<svg xmlns="http://www.w3.org/2000/svg" viewBox="0 0 633.09 120"><defs><style>.cls-1{fill:#306d85;}.cls-2{fill:#2b5f74;opacity:0.5;}.cls-3{fill:#fff;}.cls-4{fill:#e5c129;}.cls-5,.cls-6{fill:#fee03b;}.cls-11,.cls-5{stroke:#fff;stroke-width:2.64px;}.cls-11,.cls-5,.cls-7{stroke-miterlimit:10;}.cls-7,.cls-8{fill:#71d3d3;}.cls-7{stroke:#306d85;stroke-width:6.59px;}.cls-9{fill:#4c8f9e;}.cls-10{fill:#ea3f5c;}.cls-11,.cls-12{fill:#f04f62;}</style></defs><g id="Слой_2" data-name="Слой 2"><g id="Layer_1" data-name="Layer 1"><path id="_Прямоугольник_" data-name="&lt;Прямоугольник&gt;" class="cls-1" d="M1.09 0h632v120h-632z"/><path id="_Контур_" data-name="&lt;Контур&gt;" class="cls-2" d="M0 106.15s52.41-26.08 193.42-14C338 104.49 374.21 76.74 454.65 84.29s97.58 23.27 178.18 7.65v27.66H0z"/><path id="_Контур_2" data-name="&lt;Контур&gt;" class="cls-2" d="M0 76.4s52.41-26.08 193.42-14C338 74.73 374.21 47 454.65 54.53s97.58 23.27 178.18 7.65V120H0z"/></g><g id="Layer_2" data-name="Layer 2"><g id="_Группа_" data-name="&lt;Группа&gt;"><g id="_Группа_2" data-name="&lt;Группа&gt;"><path id="_Контур_3" data-name="&lt;Контур&gt;" class="cls-3" d="M275.19 74s-1.59-11.87-7-16.83c-4.37-4-18.15-10.43-55.25-12-38.45-1.61-69.67 12.89-69.67 28.8s31.19 28.68 69.67 28.68"/><path id="_Контур_4" data-name="&lt;Контур&gt;" class="cls-3" d="M275.19 73.9s-1.59 11.87-7 16.83c-4.37 4-18.15 10.43-55.25 12-38.45 1.61-69.67-12.89-69.67-28.8s31.19-28.8 69.67-28.8"/></g><path id="_Контур_5" data-name="&lt;Контур&gt;" class="cls-3" d="M276.31 102.19a21 21 0 0 1-27.87-10.11l19-8.88z"/><path id="_Контур_6" data-name="&lt;Контур&gt;" class="cls-4" d="M273.1 100.93a14 14 0 0 1-18.57-6.74l12.65-5.92z"/><path id="_Контур_7" data-name="&lt;Контур&gt;" class="cls-3" d="M276 45.88A21 21 0 0 0 248.16 56l19 8.88z"/><path id="_Контур_8" data-name="&lt;Контур&gt;" class="cls-3" d="M286.39 90.27c-10.44 0-18.9-7.36-18.9-16.44s8.46-16.44 18.9-16.44"/><path id="_Контур_9" data-name="&lt;Контур&gt;" class="cls-3" d="M198.7 36.13h-10.75V11.1h10.75l5.34 12.51-5.34 12.52z"/><ellipse id="_Контур_10" data-name="&lt;Контур&gt;" class="cls-3" cx="209.12" cy="44.26" rx="13.9" ry="5.61"/><ellipse id="_Контур_11" data-name="&lt;Контур&gt;" class="cls-3" cx="209.12" cy="47.34" rx="18.62" ry="7.52"/><path id="_Контур_12" data-name="&lt;Контур&gt;" class="cls-3" d="M192.79 34.26a10.6 10.6 0 1 1 0-21.2"/><path id="_Контур_13" data-name="&lt;Контур&gt;" class="cls-5" d="M191.41 18.3h15.25a7.8 7.8 0 0 1 7.77 7.77V47l-10.85-4.46v-9.8a3.73 3.73 0 0 0-3.72-3.72h-9"/><g id="_Группа_3" data-name="&lt;Группа&gt;"><path id="_Контур_14" data-name="&lt;Контур&gt;" class="cls-6" d="M273 74s-1.53-10.78-6.75-15.28c-4.22-3.63-17.5-9.47-53.28-10.87-37.05-1.48-67.15 11.68-67.15 26.15s30.61 26 67.71 26"/><path id="_Контур_15" data-name="&lt;Контур&gt;" class="cls-6" d="M273 73.86s-1.53 10.78-6.75 15.28c-4.2 3.63-17.48 9.46-53.25 10.86-37.07 1.46-67.17-11.71-67.17-26.15S175.89 47.71 213 47.71"/></g><g id="_Группа_4" data-name="&lt;Группа&gt;"><path id="_Контур_16" data-name="&lt;Контур&gt;" class="cls-6" d="M273 73.77s-1.53 10.78-6.75 15.28c-4.22 3.63-17.5 9.47-53.28 10.87-37.07 1.46-67.17-11.71-67.17-26.15"/></g><ellipse id="_Контур_17" data-name="&lt;Контур&gt;" class="cls-4" cx="209.12" cy="48.9" rx="17.85" ry="6.33"/><ellipse id="_Контур_18" data-name="&lt;Контур&gt;" class="cls-6" cx="209.12" cy="45.74" rx="13.38" ry="4.75"/><circle id="_Контур_19" data-name="&lt;Контур&gt;" class="cls-7" cx="225.42" cy="73.77" r="9.5"/><circle id="_Контур_20" data-name="&lt;Контур&gt;" class="cls-7" cx="193.44" cy="73.77" r="9.5"/><path id="_Контур_21" data-name="&lt;Контур&gt;" class="cls-8" d="M192.27 32.18a8.52 8.52 0 1 1 0-17"/><path id="_Контур_22" data-name="&lt;Контур&gt;" class="cls-6" d="M197.36 34.53h-8.07V13.08h8.07l4.55 10.72-4.55 10.73z"/><path id="_Контур_23" data-name="&lt;Контур&gt;" class="cls-6" d="M284.1 87.8a14 14 0 0 1 0-27.94"/><path id="_Контур_24" data-name="&lt;Контур&gt;" class="cls-6" d="M272.82 47.13a14 14 0 0 0-18.57 6.74l12.65 5.92z"/><g id="_Группа_5" data-name="&lt;Группа&gt;"><circle id="_Контур_25" data-name="&lt;Контур&gt;" class="cls-9" cx="193.44" cy="64.28" r="1.22"/><circle id="_Контур_26" data-name="&lt;Контур&gt;" class="cls-9" cx="193.44" cy="83.27" r="1.22"/><circle id="_Контур_27" data-name="&lt;Контур&gt;" class="cls-9" cx="202.94" cy="73.73" r="1.22"/><circle id="_Контур_28" data-name="&lt;Контур&gt;" class="cls-9" cx="183.95" cy="73.73" r="1.22"/><circle id="_Контур_29" data-name="&lt;Контур&gt;" class="cls-9" cx="186.73" cy="67.06" r="1.22" transform="rotate(-45 186.73 67.064)"/><circle id="_Контур_30" data-name="&lt;Контур&gt;" class="cls-9" cx="200.16" cy="80.49" r="1.22" transform="rotate(-45 200.16 80.49)"/><circle id="_Контур_31" data-name="&lt;Контур&gt;" class="cls-9" cx="200.13" cy="67.03" r="1.22" transform="rotate(-45 200.135 67.03)"/><circle id="_Контур_32" data-name="&lt;Контур&gt;" class="cls-9" cx="186.7" cy="80.46" r="1.22" transform="rotate(-45 186.697 80.458)"/></g><g id="_Группа_6" data-name="&lt;Группа&gt;"><circle id="_Контур_33" data-name="&lt;Контур&gt;" class="cls-9" cx="225.42" cy="64.28" r="1.22"/><circle id="_Контур_34" data-name="&lt;Контур&gt;" class="cls-9" cx="225.42" cy="83.27" r="1.22"/><circle id="_Контур_35" data-name="&lt;Контур&gt;" class="cls-9" cx="234.92" cy="73.73" r="1.22"/><circle id="_Контур_36" data-name="&lt;Контур&gt;" class="cls-9" cx="215.93" cy="73.73" r="1.22"/><circle id="_Контур_37" data-name="&lt;Контур&gt;" class="cls-9" cx="218.71" cy="67.06" r="1.22" transform="rotate(-45 218.707 67.06)"/><circle id="_Контур_38" data-name="&lt;Контур&gt;" class="cls-9" cx="232.14" cy="80.49" r="1.22" transform="rotate(-45 232.138 80.485)"/><circle id="_Контур_39" data-name="&lt;Контур&gt;" class="cls-9" cx="232.11" cy="67.03" r="1.22" transform="rotate(-45 232.113 67.026)"/><circle id="_Контур_40" data-name="&lt;Контур&gt;" class="cls-9" cx="218.68" cy="80.46" r="1.22" transform="rotate(-45 218.686 80.457)"/></g><path id="_Контур_41" data-name="&lt;Контур&gt;" class="cls-4" d="M195.74 13.08v21.45h1.62l4.55-10.73-4.55-10.72h-1.62z"/><path id="_Прямоугольник_2" data-name="&lt;Прямоугольник&gt;" class="cls-6" d="M199.97 19.23h3.7v8.94h-3.7z"/><path id="_Прямоугольник_3" data-name="&lt;Прямоугольник&gt;" class="cls-4" d="M204.49 35.51h9.04v1.35h-9.04z"/><path id="_Прямоугольник_4" data-name="&lt;Прямоугольник&gt;" class="cls-4" d="M204.49 38.22h9.04v1.35h-9.04z"/><path id="_Прямоугольник_5" data-name="&lt;Прямоугольник&gt;" class="cls-3" d="M167.48 52.66h3.13v42.83h-3.13z"/><path id="_Прямоугольник_6" data-name="&lt;Прямоугольник&gt;" class="cls-3" d="M248.45 50.49h3.13v46.52h-3.13z"/></g><g id="_Группа_7" data-name="&lt;Группа&gt;"><g id="_Группа_8" data-name="&lt;Группа&gt;"><path id="_Контур_42" data-name="&lt;Контур&gt;" class="cls-3" d="M363.4 74.09s1.59-11.87 7-16.83c4.37-4 18.15-10.43 55.25-12 38.45-1.61 69.67 12.89 69.67 28.8s-31.19 28.68-69.67 28.68"/><path id="_Контур_43" data-name="&lt;Контур&gt;" class="cls-3" d="M363.4 74s1.59 11.87 7 16.83c4.37 4 18.15 10.43 55.25 12 38.45 1.61 69.67-12.89 69.67-28.8s-31.19-28.8-69.67-28.8"/></g><path id="_Контур_44" data-name="&lt;Контур&gt;" class="cls-3" d="M362.27 102.26a21 21 0 0 0 27.87-10.11l-19-8.88z"/><path id="_Контур_45" data-name="&lt;Контур&gt;" class="cls-10" d="M365.48 101a14 14 0 0 0 18.57-6.74l-12.65-5.91z"/><path id="_Контур_46" data-name="&lt;Контур&gt;" class="cls-3" d="M362.55 45.95a21 21 0 0 1 27.87 10.11l-19 8.88z"/><path id="_Контур_47" data-name="&lt;Контур&gt;" class="cls-3" d="M352.19 90.34c10.44 0 18.9-7.36 18.9-16.44s-8.46-16.44-18.9-16.44"/><path id="_Контур_48" data-name="&lt;Контур&gt;" class="cls-3" d="M439.89 36.2h10.74V11.17h-10.74l-5.34 12.52 5.34 12.51z"/><ellipse id="_Контур_49" data-name="&lt;Контур&gt;" class="cls-3" cx="429.46" cy="44.33" rx="13.9" ry="5.61"/><ellipse id="_Контур_50" data-name="&lt;Контур&gt;" class="cls-3" cx="429.46" cy="47.41" rx="18.62" ry="7.52"/><path id="_Контур_51" data-name="&lt;Контур&gt;" class="cls-3" d="M445.8 34.33a10.6 10.6 0 1 0 0-21.2"/><path id="_Контур_52" data-name="&lt;Контур&gt;" class="cls-11" d="M447.17 18.37h-15.24a7.8 7.8 0 0 0-7.77 7.77v21L435 42.66v-9.8a3.73 3.73 0 0 1 3.72-3.72h9"/><g id="_Группа_9" data-name="&lt;Группа&gt;"><path id="_Контур_53" data-name="&lt;Контур&gt;" class="cls-12" d="M365.57 74s1.53-10.78 6.75-15.28c4.22-3.63 17.5-9.47 53.28-10.87 37.07-1.41 67.17 11.75 67.17 26.15s-30.61 26-67.71 26"/><path id="_Контур_54" data-name="&lt;Контур&gt;" class="cls-12" d="M365.57 73.93s1.53 10.78 6.75 15.28c4.22 3.63 17.5 9.47 53.28 10.87 37.07 1.46 67.17-11.71 67.17-26.15s-30.08-26.15-67.17-26.15"/></g><g id="_Группа_10" data-name="&lt;Группа&gt;"><path id="_Контур_55" data-name="&lt;Контур&gt;" class="cls-12" d="M365.57 73.85s1.53 10.78 6.75 15.28c4.22 3.63 17.5 9.47 53.28 10.87 37.07 1.46 67.17-11.71 67.17-26.15"/></g><ellipse id="_Контур_56" data-name="&lt;Контур&gt;" class="cls-10" cx="429.46" cy="48.97" rx="17.85" ry="6.33"/><ellipse id="_Контур_57" data-name="&lt;Контур&gt;" class="cls-12" cx="429.46" cy="45.81" rx="13.38" ry="4.75"/><circle id="_Контур_58" data-name="&lt;Контур&gt;" class="cls-7" cx="413.16" cy="73.85" r="9.5"/><circle id="_Контур_59" data-name="&lt;Контур&gt;" class="cls-7" cx="445.14" cy="73.85" r="9.5"/><path id="_Контур_60" data-name="&lt;Контур&gt;" class="cls-8" d="M446.31 32.26a8.52 8.52 0 1 0 0-17"/><path id="_Контур_61" data-name="&lt;Контур&gt;" class="cls-12" d="M441.22 34.6h8.08V13.15h-8.08l-4.54 10.72 4.54 10.73z"/><path id="_Контур_62" data-name="&lt;Контур&gt;" class="cls-12" d="M354.48 87.87a14 14 0 0 0 0-27.94"/><path id="_Контур_63" data-name="&lt;Контур&gt;" class="cls-12" d="M365.77 47.21a14 14 0 0 1 18.57 6.74l-12.65 5.92z"/><g id="_Группа_11" data-name="&lt;Группа&gt;"><circle id="_Контур_64" data-name="&lt;Контур&gt;" class="cls-9" cx="445.14" cy="64.35" r="1.22"/><circle id="_Контур_65" data-name="&lt;Контур&gt;" class="cls-9" cx="445.14" cy="83.34" r="1.22"/><circle id="_Контур_66" data-name="&lt;Контур&gt;" class="cls-9" cx="435.65" cy="73.8" r="1.22"/><circle id="_Контур_67" data-name="&lt;Контур&gt;" class="cls-9" cx="454.64" cy="73.8" r="1.22"/><circle id="_Контур_68" data-name="&lt;Контур&gt;" class="cls-9" cx="451.86" cy="67.13" r="1.22" transform="rotate(-45 451.854 67.126)"/><circle id="_Контур_69" data-name="&lt;Контур&gt;" class="cls-9" cx="438.43" cy="80.56" r="1.22" transform="rotate(-45 438.428 80.557)"/><circle id="_Контур_70" data-name="&lt;Контур&gt;" class="cls-9" cx="438.46" cy="67.1" r="1.22" transform="rotate(-45 438.456 67.106)"/><circle id="_Контур_71" data-name="&lt;Контур&gt;" class="cls-9" cx="451.88" cy="80.53" r="1.22" transform="rotate(-45 451.887 80.532)"/></g><g id="_Группа_12" data-name="&lt;Группа&gt;"><circle id="_Контур_72" data-name="&lt;Контур&gt;" class="cls-9" cx="413.16" cy="64.35" r="1.22"/><circle id="_Контур_73" data-name="&lt;Контур&gt;" class="cls-9" cx="413.16" cy="83.34" r="1.22"/><circle id="_Контур_74" data-name="&lt;Контур&gt;" class="cls-9" cx="403.67" cy="73.8" r="1.22"/><circle id="_Контур_75" data-name="&lt;Контур&gt;" class="cls-9" cx="422.66" cy="73.8" r="1.22"/><circle id="_Контур_76" data-name="&lt;Контур&gt;" class="cls-9" cx="419.88" cy="67.13" r="1.22" transform="rotate(-45 419.877 67.13)"/><circle id="_Контур_77" data-name="&lt;Контур&gt;" class="cls-9" cx="406.45" cy="80.56" r="1.22" transform="rotate(-45 406.45 80.563)"/><circle id="_Контур_78" data-name="&lt;Контур&gt;" class="cls-9" cx="406.48" cy="67.1" r="1.22" transform="rotate(-45 406.483 67.1)"/><circle id="_Контур_79" data-name="&lt;Контур&gt;" class="cls-9" cx="419.91" cy="80.53" r="1.22" transform="rotate(-45 419.91 80.538)"/></g><path id="_Контур_80" data-name="&lt;Контур&gt;" class="cls-10" d="M442.84 13.15V34.6h-1.62l-4.54-10.73 4.54-10.72h1.62z"/><path id="_Прямоугольник_7" data-name="&lt;Прямоугольник&gt;" class="cls-12" d="M438.62 28.24h-3.7V19.3h3.7z"/><path id="_Прямоугольник_8" data-name="&lt;Прямоугольник&gt;" class="cls-10" d="M434.1 36.93h-9.04v-1.35h9.04z"/><path id="_Прямоугольник_9" data-name="&lt;Прямоугольник&gt;" class="cls-10" d="M434.1 39.64h-9.04v-1.35h9.04z"/><path id="_Прямоугольник_10" data-name="&lt;Прямоугольник&gt;" class="cls-3" d="M471.11 95.57h-3.13V52.74h3.13z"/><path id="_Прямоугольник_11" data-name="&lt;Прямоугольник&gt;" class="cls-3" d="M390.14 97.08h-3.13V50.56h3.13z"/></g></g></g></svg>
