<svg id="Layer_1" xmlns="http://www.w3.org/2000/svg" xmlns:xlink="http://www.w3.org/1999/xlink" viewBox="0 0 632 120.1"><style>.st3{fill:#d7a66c}</style><g id="XMLID_11893_"><defs><path id="XMLID_11894_" d="M0 0h632v120.1H0z"/></defs><clipPath id="XMLID_10_"><use xlink:href="#XMLID_11894_" overflow="visible"/></clipPath><g id="XMLID_11895_" clip-path="url(#XMLID_10_)"><g id="XMLID_11896_"><defs><path id="XMLID_11897_" d="M-1.2-150.8h632v478h-632z"/></defs><clipPath id="XMLID_11_"><use xlink:href="#XMLID_11897_" overflow="visible"/></clipPath><g id="XMLID_11898_" clip-path="url(#XMLID_11_)"><path id="XMLID_12187_" fill="#e2ba87" d="M-1.1-150.5h632v631.9h-632z"/><path id="XMLID_12177_" class="st3" d="M202.2 176.6c40.9-4.2 82.2-4.6 123.4-5.3 19-.3 38.1 2.1 57.1 4.2 17.3 2 34.4 7.3 51.6 7.6 37.5.8 75.1-.3 112.6-1.3 28-.7 56-1.9 84-2.9v-3.6c-36.7 1.5-73.3 3-110 4.2-46.8 1.5-93.6 2.9-140.1-7.4-19.6-4.4-40.4-3.7-60.7-4.1-17.5-.3-35.1 1.9-52.6 1.7-44.9-.5-89.7-1.8-134.6-2.5-7.7-.1-15.6 0-23.2 1.3C73 174.6 36.4 181-1.1 180.8v2.9c67.8 1 135.6-.2 203.3-7.1zm-16.1-1.1l-113.7 6.1c37-15.9 75.4-9.7 113.7-6.1z"/><path id="XMLID_12171_" class="st3" d="M296.6 236.3c67.2 24.2 136 22.5 205.2 10.1 26-4.6 52.2-8.4 78.5-11.1 16.9-1.7 33.8-3.4 50.6-4.9v-1.2l-68.3 4.6a289.8 289.8 0 0 1 68.3-13.4v-3.8a358 358 0 0 0-47 6.2c-39.8 8.1-79 20.5-119.2 25.7-56.9 7.4-113.8 4.8-168.9-15.2-26.2-9.5-53.3-16.6-81.4-10.2-24.1 5.5-47.5 14.3-71.7 19.6a420.1 420.1 0 0 1-143.8 5.8v3c8.3 1.1 16.6 1.9 25 2.4 50.5 2.8 100.5 1 148.4-17.1a172.5 172.5 0 0 1 124.3-.5z"/><path id="XMLID_12168_" class="st3" d="M59.9 455A263.3 263.3 0 0 1-1 463.4v-2.2c11.5-.3 22.9-1.9 34.1-4.9 48.9-12.9 97.8-15 147.8-13.9 53 1.1 106-1.3 159-.2a311 311 0 0 1 71.2 9.3 224.3 224.3 0 0 0 141.3-7.8c25.4-9.8 52-10.1 78.7-8.2v3.9c-32.3-2.2-63.6 1-94.2 12.8a188.3 188.3 0 0 1-116.6 4.9 336 336 0 0 0-87-11.1c-68.5.7-137.1-.5-205.6.5-22.8.5-46 3-67.8 8.5z"/><path id="XMLID_12165_" class="st3" d="M45.7 70.7a160 160 0 0 1-46.8 10v-3.5c20.5-1.5 40.9-6.6 60.7-14.3 30.2-11.8 61.1-12.2 92.7-10 37.6 2.6 75.4 5.4 113.1 5.7 21.9.2 43.8-4.6 65.7-6.6 31.5-2.8 61.7 3.5 91 14.4 37.4 13.9 75.3 13.4 113.2 3.6a319.6 319.6 0 0 1 87-11.2l8.6.2v4.2c-34.4-.3-67.9 3.5-101.5 12a193.5 193.5 0 0 1-120.1-8.8C376 53 341.4 52.9 306.8 58c-47.9 7-95.5 7.2-143.4 0-40.2-6.1-79.2-2-117.7 12.7z"/><path id="XMLID_12162_" class="st3" d="M208.2-10.6c-47.1.1-94.3-6.7-141.2-11.9C44.3-25 21.6-27-1-28v-3.9c31.6 1.8 63.2 5.8 94.8 8.7 39.4 3.6 78.9 7 118.4 9.3 66.7 3.8 132.6-5.9 198.6-13.2A727.9 727.9 0 0 1 595-25.2c12.1 1.7 24.1 3.8 36.2 5.8v1.8c-6.4-1.1-12.8-2.1-19.3-2.9a978.2 978.2 0 0 0-225.6-1 1610.8 1610.8 0 0 1-178.1 10.9z"/><path id="XMLID_12159_" class="st3" d="M134.8 36.9a105.1 105.1 0 0 1-86.4-8A96 96 0 0 0-1.1 16.7v-4.1a81.4 81.4 0 0 1 44.6 10.6 120.2 120.2 0 0 0 94.4 9.6c20.1-5.8 42.7-3.6 64.2-4 31-.7 62-1.1 93-.4 14.1.3 28.7 1.4 42 5.7a101 101 0 0 0 81.7-7.6c27-14.8 53.8-16.4 82.6-8.2 32.5 9.3 65.1 18.5 97.9 26.3 10.5 2.5 21.1 4.1 31.6 5v3.3a371.6 371.6 0 0 1-72.2-14.7c-26.9-8-54.3-14.3-81.6-21a67.8 67.8 0 0 0-48.4 8.3c-31.3 16.5-63.3 22.6-97.8 10.1-8.2-3-17.6-3.5-26.5-3.5-46.5-.3-93.1-.4-139.6.1a95 95 0 0 0-30 4.7z"/><path id="XMLID_12156_" class="st3" d="M38.6 322.6l-39.7-.4v-.4c13.3.1 26.5.4 39.7.8z"/><path id="XMLID_12153_" class="st3" d="M143.2 325.2c-34.8-.2-69.7-1.7-104.5-2.7 41.8.4 83.7.7 125.5.5 80.3-.4 160.6-3 240.9-3.4 49.7-.2 99.4 2.8 149.1 2.8 25.6 0 51.2-.7 76.8-1.5v2.9c-29.7.7-59.4 1.2-89 1.5-65.2.4-130.4-1.2-195.6-1.2-67.8 0-135.5 1.5-203.2 1.1z"/><path id="XMLID_12150_" class="st3" d="M183 373.3c-37.3-6.4-75.1-9.6-112.5-15.3-24-3.6-47.8-4.3-71.6-3.6v-3.1c29.9-.6 60 2.1 89.8 5.3 35.9 3.9 71.6 10.2 107.4 15.7 30.6 4.8 60.7 2.9 91.1-2.5 33.6-5.9 67.7-9.1 101.4-14.5 68.7-11.1 136.6.1 204.8 5.9 12.5 1.1 25 2 37.5 2.8v4.4c-55.9-4.9-111.7-10.6-167.7-14.3-23.7-1.6-48 2-71.8 4.8-38.8 4.6-77.4 10.5-116 16.1a286.6 286.6 0 0 1-92.4-1.7z"/><path id="XMLID_12147_" class="st3" d="M205.1 17.8c-24.5.1-49 3.1-73.3 1.4-30.3-2.1-60.5-7.1-90.6-11.8a181.8 181.8 0 0 0-42.3-1V2.9c29.6-3 57.8 4.9 86.4 10.3 11.9 2.2 24.3 3 36.5 3.1 75.5.3 150.9.4 226.4 0 15-.1 30.8-.3 44.9-4.7C433.5-1 473.7 2.2 514.2 8.8a916.5 916.5 0 0 0 116.7 11.4v1.5a2600 2600 0 0 1-121.6-10.5c-38-4.4-74.8-6.5-112.8 2.7-24 5.9-50.1 4.2-75.2 4.5-38.7.3-77.5-.7-116.2-.6z"/><path id="XMLID_12144_" class="st3" d="M40.4 397.1a748.2 748.2 0 0 0-41.5-5.4v-3.2l22.2 2.3c52.2 6 104.7 10.1 157.1 12.9 37.4 2 75.1 2.1 112.5-.1 57.3-3.4 114.6-8.7 171.7-14.7 30.7-3.2 60.6-3.8 91 3.7 18.8 4.6 38.7 6.4 58.1 6.6h19.6v1.2c-21.5-.1-43-.6-64.5-1.9-29.3-1.8-58.1-12.1-88.3-8.1-32.7 4.3-65.4 9.6-98.3 12-36.5 2.7-73.3 2.9-109.9 3.7-22.4.5-44.9-1-67.3.2-54.6 2.9-108.7-1-162.4-9.2z"/><path id="XMLID_12141_" class="st3" d="M52.1 167.5a676.1 676.1 0 0 1-53.2 6V170c20.2-1.5 40.4-3.6 60.6-6.3 34.6-4.6 69.7-6.2 104.6-7.1a3534 3534 0 0 1 149.2-.6c28.9.5 57.7 3.6 86.5 5.8 45.5 3.4 90.9 9.1 136.4 9.8 31.5.5 63.1-3.3 94.7-5.8v5.8l-41.1 2.7a947 947 0 0 1-199.7-10.2c-34-4.9-69.1-2.7-103.7-3.1-33.4-.3-67 2-100.3-.2-45-2.9-89.5-.3-134 6.7z"/><path id="XMLID_12138_" class="st3" d="M2.7 308.3l-3.8-.3v-1.5c20.4 1.1 40.8 2 61.2 1.8 41.9-.5 84.2-1.7 125.6-7.7 37.9-5.5 74.6-2.9 111.9 2a758.6 758.6 0 0 0 158.7 3.4c29.3-2.3 58.7-2.1 88-3.9 28.8-1.7 57.7-3.9 86.5-5.9v5.1c-14.5 1.2-29 2.4-43.5 3.3-23.2 1.5-46.5 1.1-69.7 2-33.4 1.3-66.9 4.9-100.3 4-49.2-1.3-98.6-4-147.5-9.4-31-3.4-61-.7-91.3 3.4-58.4 7.8-117 7.8-175.8 3.7z"/><path id="XMLID_12135_" class="st3" d="M-1.1 268.8V265c27.2.6 54.5.1 81.7-.8 39-1.3 78-6.6 116.7-12.2a310 310 0 0 1 83.9 1.2c68.8 8.8 137.9 15.1 207.3 11.6 32.9-1.6 65.6-7.2 98.5-9.4 14.6-1 29.2-1.8 43.8-2.6v5c-45.8 3.9-91.6 7.8-137.4 9.6-54 2.2-108.2 2-162.3-5.9-53.9-7.9-108.2-12.6-163.1-3.5A870.4 870.4 0 0 1-1.1 268.8z"/><path id="XMLID_12132_" class="st3" d="M158.8 345.5A562.3 562.3 0 0 0-1 333.9v-2.7a635.3 635.3 0 0 1 176.7 14.7c45.1 10.2 90.7 7 135.8-3.2a573.2 573.2 0 0 1 217.6-5.3 1033 1033 0 0 0 102 11.4v2.6A1547 1547 0 0 1 528 340a626.5 626.5 0 0 0-229.6 7.8 320.8 320.8 0 0 1-139.6-2.3z"/><path id="XMLID_12129_" class="st3" d="M124.1 381.3c-41.5-5.5-83.4-9.3-125.2-10V369l5.8.1c50.4 1.1 100.7 7.4 151 12.5 52.5 5.3 104.9 5 157.4.2 58.8-5.5 117.7-11.6 176.7-13.1 39.3-1 78.7 6.4 118.2 9.1l22.9 1.5v4.4c-30-2.7-59.9-6.2-89.9-9.6-57.3-6.5-114.1-1.6-170.7 4.9-82 9.2-163.8 13.2-246.2 2.3z"/><path id="XMLID_12126_" class="st3" d="M161.8 1.2C107.6-3.5 53.2-9.3-1.1-10.7v-3.6c39.3.3 78.5 3.2 117.8 8.2 69 8.6 138.2 9.4 207.5 2.9 44.2-4.2 88.4-10.4 132.7-11.5 40.2-1 80.6 3.5 120.8 6.2l53.2 3.7v3c-27.1-1.9-54.2-4-81.2-6.5a883 883 0 0 0-190.2 4.8 967.7 967.7 0 0 1-197.7 4.7z"/><path id="XMLID_12123_" class="st3" d="M145 282.2a801 801 0 0 1-146.1 3.7v-2.5a761 761 0 0 0 148.5-4.2c53.4-7 106.4-9.3 159.7-2a775 775 0 0 0 180.7 4.5c41-4 81.6-12 122.6-14.9 6.8-.5 13.7-.8 20.5-1v3.3a678.2 678.2 0 0 0-83.7 8.5 827.2 827.2 0 0 1-252.3 1.1c-50-6.9-99.9-2.6-149.9 3.5z"/><path id="XMLID_12120_" class="st3" d="M382.3 136.4c-35.9-.3-86.4-4-122.3-3.9-38.3.1-76.5 1.6-114.8 2-32.2.4-64.5-1.2-96.6.6-16.6.9-33.4 2.8-49.7 6.4v-3.3c26.5-5.8 53.6-7.1 81.1-6.7 48 .7 96-2.1 144.1-2.6 19.9-.2 33.5-.5 53.5 0 18.7.4 43.8 2.3 62.5 2.4 54.5.3 109.2-3.3 162.1 15.3 25.6 9 52.9 9 78.5 2.1a314 314 0 0 1 50.3-8.9v3l-1.2.1c-23.8 1.7-47.3 8.5-71.1 11.9-22.6 3.2-44.8-.4-66.3-7.8-40.6-14.2-68.1-10.2-110.1-10.6z"/><path id="XMLID_12117_" class="st3" d="M61.9 418.4c-20.7-6.6-41.9-11.2-63-16.3v-4c4.9.8 9.9 1.9 15 3.4 20.3 6 40.9 11.1 61.2 17.2 42.7 12.9 86 19.8 130.4 12.4 20-3.3 39.3-3.2 59.2.1 50 8.2 98-2.7 145.7-17.1 23.7-7.2 48-12.7 72.4-17.1 21.8-4 41 4.7 58.4 17.3l.2.1.2.2c-3.4-1.1-7.2-1.5-10.2-3.3a85.8 85.8 0 0 0-69.6-7.8l-96.7 26.3c-38.6 10.3-77.4 8.8-116.6 3.6-11-1.5-22.6-.9-33.6.8-52.5 8.4-103 .1-153-15.8z"/><path id="XMLID_12114_" class="st3" d="M630.9 98.5l-1.8-.1c-31.7-1.7-63.4-3-95.1-4.5h-10.3C534.6 84 573 77.5 630.9 74.8v3.6a450 450 0 0 0-80.9 8.9c27.5 1.2 54.3 4.3 80.9 7.1v4.1z"/><path id="XMLID_12111_" class="st3" d="M305.8 191.4c52.6 0 105.2.7 157.8-.2 55.8-.9 111.5-2.3 167.3-3.7v2c-18.8 0-37.5.1-56.3.5-55.9 1.4-111.7 4-167.5 4.6-33.8.3-67.5-2.1-101.3-3.2z"/><path id="XMLID_12108_" class="st3" d="M-1.1 193.3v-4.9c47.4.9 94.8 2.1 142.1 3 7.7.2 15.5 0 23.2 0-2.8.5-5.5 1.6-8.3 1.6-52.3.1-104.6.8-157 .3z"/><path id="XMLID_12105_" class="st3" d="M460.7 163.8l34.3-3.9v-2.1l-25.4-5.2.5-2.4c8.9 1.7 17.7 3.4 26.6 4.9 9.5 1.6 19 3.3 28.6 4.6 32.9 4.5 64.4-2.7 96.6-8.2l9-1.3v3c-8.5 1.3-17 3-25.5 4.6a390.1 390.1 0 0 1-59.1 6.6c-28.4 1.1-56.8.3-85.6-.6z"/><path id="XMLID_12102_" class="st3" d="M-1.1 166v-2.2l.8.2.1 1.8a3 3 0 0 1-.9.2z"/><path id="XMLID_12099_" class="st3" d="M541.4 414.4l-.3-.2h.1c8.6 2.1 17.1 5.4 25.8 5.9 14 .8 28.7 2.2 42-1.2 7.3-1.8 14.6-3.4 22-4.6v5c-6.6.9-13.1 2.1-19.6 3.5a96.4 96.4 0 0 1-70-8.4z"/><path id="XMLID_12096_" class="st3" d="M630.9 40.5a448.3 448.3 0 0 1-56.2-9.4l.4-3c11.2 2.1 22.3 4.4 33.5 6.3 7.4 1.3 14.9 2.2 22.3 2.6v3.5z"/><path id="XMLID_12093_" class="st3" d="M630.9-40.6l-3.7-.8c-1.7-.4-3.2-1.4-4.8-2.1l-.5-.2h.3l8.8 1.6v1.5z"/><path id="XMLID_12083_" class="st3" d="M64.5 468.4l-6 .6 2.3.2 3.7-.8zm-3.7.9a61.3 61.3 0 0 0-21.9 8.5c7.7-.4 15.3-1 23-1.1 16.3-.1 33.1-2.5 48.7.9 7.1 1.5 14.3 2.7 21.4 3.7h54.6l-22.7-1.3c-33.7-2.3-67.2-6.9-103.1-10.7zm367.3 8.1c.9.1 1.9-.9 3-1.5-30.8-23.4-280.5-26.4-366.6-7.5a1605.4 1605.4 0 0 1 343.1 2c-45.1 3.7-90.1 8.3-135.2 10.9h53.2c34-4.7 68-8.1 102.5-3.9z"/><path id="XMLID_12077_" class="st3" d="M27.2 480.6L-1.1 474v5.3l12.3 2.2H28l-.8-.9z"/><path id="XMLID_12074_" class="st3" d="M440.2 480.2c50.7-10.4 98.5-20.9 146.6-30 14.7-2.8 29.4-3.4 44.1-2.2v4.2c-33.7-2-66.8 4.7-100.1 12.1a4217 4217 0 0 1-78.6 16.5c-3 .7-6.3-.2-12-.6z"/><path id="XMLID_12071_" class="st3" d="M46.3 116.9c-16 3.9-31.7 5.6-47.3 4.5v-4.3c22 1.5 43.8-1.6 65.8-8.7 29.7-9.6 60.5-7.4 91-8.1 25.3-.5 50.7-3.7 75.7-1.4 66.7 6.1 134.9-7.4 200.4 15.7 22.7 8 46.3 4.2 68.7-3a187 187 0 0 1 116.7-1.2c4.5 1.4 9.1 2.8 13.7 3.9v3.2c-5.2-1-10.4-2.3-15.5-3.7a190.4 190.4 0 0 0-112.1 1.2 144.9 144.9 0 0 1-90.2-.9c-37.7-12-76.4-11.5-115.2-9.4-6.1.3-12.2.4-18.4.4-52.6-.3-105.2-2.1-157.6-.5a369 369 0 0 0-75.7 12.3z"/><path id="XMLID_12063_" class="st3" d="M516 98.3c-8.7 2.8-15.8 6-23.3 7.4a122.7 122.7 0 0 1-61.5-5.6A257.6 257.6 0 0 0 324 87.6c-21.3 2-43.1-.3-64.6-1.5a36.3 36.3 0 0 1-19.2-8.4c2.8-.9 5.5-2.2 8.3-2.6 22.2-3.3 44.3-6.4 66.5-9.5 35.1-4.9 69.1 2.7 103 9.7 31.7 6.5 63.1 14.7 98 23zM254.9 78l-.3 5.1c18.9.7 38.1 3.6 56.7 1.7 43.3-4.4 85.2-1.4 126.4 13.3 21 7.5 42.8 7.5 64.8 2.1-21.4-5.2-42.1-11-63.1-15.1-31.1-6.1-62.3-14.2-93.7-15.5-30.1-1.2-60.5 5.3-90.8 8.4z"/><path id="XMLID_12060_" class="st3" d="M602.6 125.3c-31.7-4.2-63.5-13.2-95.2 2.4 30.8 18 63.6 14.6 97.2 10.2-3.4 1.4-6.8 3.4-10.4 4.1-26.1 4.6-52 4.6-77.3-3.9-4.7-1.6-8.1-6.8-12.1-10.3 4.2-3.1 8.1-7.8 12.8-8.9 30.5-7.5 60.3-1.8 90.6 4.3-6.7 15.1-69.7 16.1-84.7 1.3H558l.1 1.6h-22v3.1h66.2l.3-3.9z"/><path id="XMLID_12057_" class="st3" d="M-1.1 91.4v-3.6l66.2-15.3a280.5 280.5 0 0 1 129.5-.1c10.9 2.5 22.3 2.6 33.4 3.8l-.4 3.5c-15.3-1.6-31.1-1.4-45.9-5.2-45.9-11.7-90.5-4.2-135.2 6.2-15.8 3.7-31.7 7.2-47.6 10.7z"/><path id="XMLID_12054_" class="st3" d="M484.8 218.6l-33.9 10.3-1.8-5.7 30.9-4.8c-22.1-9.9-69.2-2.6-93.9 13.2 18.4 10.4 113-1.7 138.9-17.8-10.6-9.4-14.8-9.9-83.7-7.9-28.5.8-56.2 6.3-82.9 16.8C390.9 199.4 509 193 530 213c-18 18.8-130.1 34.1-149.3 20.4 14.8-18.7 77.5-30.2 103.1-19l1 4.2z"/><path id="XMLID_12051_" class="st3" d="M296.3 215.5l45.3 18.6c-35.1-7.5-65.8-30.3-103.6-29.8 47.3 3.5 94.3 10.7 141.2-3.2l.3 5.1a13964 13964 0 0 1-83.2 9.3z"/><path id="XMLID_12048_" class="st3" d="M173.2 215.5l-83.2-9 .2-5c47.1 13.1 94.2 7 141.6 2.4-37.5.9-68.5 21.8-103.4 30.2l44.8-18.6z"/><path id="XMLID_12045_" class="st3" d="M-1.1 232.7v-2.9c27.9 4.4 56.1 6.6 84.8 3.1-26.4-16.5-55.1-20.4-84.8-19.5v-1.7c32.1-4.4 75.2 5.4 90.2 21.5-1.8 1.4-3.4 3.9-5.3 4.1a305 305 0 0 1-84.9-4.6z"/><path id="XMLID_12042_" class="st3" d="M106.6 219.5A679.8 679.8 0 0 0-1.1 204.2v-2.7c4.9 0 9.8.2 14.6.6 26.6 2.2 53.1 7.2 79.5 11.4 4.8.7 9.3 3.5 13.6 6z"/><path id="XMLID_12039_" class="st3" d="M583.3 209c-5.4-1.1-10.8-2.6-16.3-3.1-14.4-1.3-28.8-2.1-42.9-4h100.3v3.7l-41.3 3.1.2.3z"/><path id="XMLID_12036_" class="st3" d="M163.7 191.5a314 314 0 0 1 142.7 0c-19.7-1.9-39.5-4.7-59.3-5.3-16.9-.5-33.9 1.5-50.8 2.6-10.8.7-21.7 1.8-32.6 2.7z"/><path id="XMLID_12033_" class="st3" d="M17.4 240.8c33.7-.4 68.7 13.4 101.5-8.8l-7.4-10c4.1 2.1 6.8 2.6 7.1 3.8.8 2.9 1.7 8 .4 8.8-6.8 4.1-14.2 9.9-21.6 10.2-26.6 1.2-53.2.5-79.8.5l-.2-4.5z"/><path id="XMLID_12030_" class="st3" d="M452.3 241.8c-34.4 2.7-69.4 14.9-101.7-7.6 32.8 19.6 67.9 6.6 101.7 7.6z"/><path id="XMLID_12027_" class="st3" d="M583.2 208.7l-80.3 27.4-1.1-3.4c24.8-8 49.6-16 74.5-23.8 2.2-.7 4.7 0 7.1 0l-.2-.2z"/><path id="XMLID_12024_" class="st3" d="M431.7 440.7c30.8 7.8 61.5 12.7 90.8-5.4-25.9-12-51.8-5.8-77.6-2.9l-.1 4.3h44.5c-10.9 9.1-38.9 7.9-51.7-3.6 5-2 9.1-4.8 13.4-5.1 19.4-1.5 38.9-2.5 58.4-3.4a13 13 0 0 1 7 1.7c3.5 2.3 8.1 4.9 9.2 8.3.7 2.2-3.4 7.3-6.6 9a51.5 51.5 0 0 1-17.1 5.7c-24.3 3.1-48.6 3.9-71.4-7.5l1.2-1.1z"/><path id="XMLID_12021_" class="st3" d="M16.4 427A113 113 0 0 1-1 428.1V425a273 273 0 0 1 17.4 2z"/><path id="XMLID_12018_" class="st3" d="M44.2 436.6l-1.5.7 1.3-.9.2.2z"/><path id="XMLID_12015_" class="st3" d="M-1.1 447.9v-.1c15.1-.8 30.8-4.3 43.7-10.4-4.5 3.5-9 8.5-13.7 8.9-10 .7-20 1.3-30 1.6z"/><path id="XMLID_12012_" class="st3" d="M430.6 441.9c-9.4-7.1-9.3-13 1.2-18.7 18.5-10.1 38.9-11.3 59.3-11.2 15 0 29.8 1.8 42.7 10.9-26.8-10-54-9.1-81.3-3.5a92.4 92.4 0 0 0-18.3 6.4c-8.1 3.5-10.8 8.5-2.4 14.9l-1.2 1.2z"/><path id="XMLID_12009_" class="st3" d="M43.9 436.4c-3.1-3.8-5.6-9.5-9.5-10.9A192.4 192.4 0 0 0-1.1 416v-3.5c12.3 1.4 24.4 4.6 36.3 9.4 9.5 3.8 10.2 6.1 8.7 14.5z"/><path id="XMLID_12006_" class="st3" d="M44.2 436.6l-.2-.2v-.1c0 .2.1.3.2.3z"/><path id="XMLID_12003_" class="st3" d="M-1.1 31.7v-3.6a125 125 0 0 1 45.9 8.5c1.2.5 2.1 1.7 3.2 2.5a132.8 132.8 0 0 0-49.1-7.4z"/><path id="XMLID_12000_" class="st3" d="M-1.1 56.1V53h4.5a17 17 0 0 1-4.5 3.1z"/><path id="XMLID_11997_" class="st3" d="M.8 67.5h-1.9V62c7.4-.1 14.7-.4 22.1-.7 5.6-.3 11.1-4.9 16.1-9.6a85.2 85.2 0 0 0-38.2-6.9v-3.7c16.4-.8 31.9.4 37.1 4.1 7.6 5.5 4.7 11.8-1.4 14.2A98.9 98.9 0 0 1 .8 67.5z"/><path id="XMLID_11994_" class="st3" d="M224.2 46.7l106.4-6.8.2 3.9-106.4 6.8-.2-3.9z"/><path id="XMLID_11991_" class="st3" d="M528.8 54c1.5-9.6-6.4-12-12.5-13.8-29.8-8.9-59.9-14.5-89.6 1.3 8.6-10.1 20.2-12.1 32.2-12.6 21.7-.8 43.2.4 63.1 10.2 5.9 2.9 13.2 6.3 7.2 15.3l-.4-.4z"/><path id="XMLID_11988_" class="st3" d="M431.4 49.7c5.8 4 11.1 10.2 17.4 11.5 27.2 5.7 54.2 4.8 80-7.2l.4.4c-4.2 2.8-8 7.1-12.5 8.3a141.8 141.8 0 0 1-72.3 1.5c-10.7-2.8-14-6.8-13.7-15.2l.7.7z"/><path id="XMLID_11985_" class="st3" d="M430.7 49c3.6-2.3 7.1-6.5 10.7-6.7 20.6-.6 41.2-.3 61.8-.3l.1 4.1c-2.7.2-5.4.7-8 .6-3.2-.1-6.5-.9-9.7-1-18.2-.8-36.6-4.4-54.1 4.1l-.8-.8z"/><path id="XMLID_11982_" class="st3" d="M50.1 149.8c-.1 0-.1 0 0 0-.1 0-.1 0 0 0-.1 0-.1 0 0 0z"/><path id="XMLID_11979_" class="st3" d="M42.3 153.1c-7.6-2.8-4.3-7.8-6.6-8.7-4.4 4.5-6.8 9.4-9.9 9.8-5.9.8-12.2-.9-21-1.9 11.8-12.1 23.8-14.2 33.5-7.7 3 1.8 4.2 6.7 4 8.5z"/><path id="XMLID_11976_" class="st3" d="M-1.1 159.2v-1.4c17.1 2.8 32.9.7 51.1-8-.2 1.7-1.4 3.4-3.4 5.1-7.8 7-33.3 9.1-47.7 4.3z"/><path id="XMLID_11973_" class="st3" d="M132.6-32c-40.2-1.9-80.1-9.4-120.1-14.7l-13.6-1.7v-3.4c23.3 2.2 46.6 5.5 69.8 9.2 56.4 9 112.8 9.6 169.6 8.6 21.2-.4 42.6 1.9 63.6.2a2501 2501 0 0 0 133.7-13.7c61.1-8 121.9-8.5 182.8 1.7 1.3.2 2.5 1.2 3.8 1.9l.4.2h-.1c-30.4-2.5-60.8-6.3-91.2-7.2-61-1.8-120.8 10.7-181.1 17.6a358.7 358.7 0 0 1-41.4 3.1c-58.9 0-117.6 1-176.2-1.8z"/><path id="XMLID_11970_" class="st3" d="M322.1 425.1c-17.6-1.1-35.6-.1-52.6-3.9-27.6-6.1-54.1-1.8-81.2 1.8-33.5 4.4-66.4-.4-98.4-11.6l25 5c31.2 5.9 62.5 6.8 93.6.3 18.3-3.9 36.1-2.8 54.5.2 19.6 3.1 39.5 3.9 59.3 5.8-.2.7-.2 1.5-.2 2.4z"/><path id="XMLID_11967_" class="st3" d="M59.9-81A263.3 263.3 0 0 1-1-72.6v-2.2c11.4-.2 22.8-1.8 34-4.8 48.9-12.9 97.8-15 147.8-13.9 53 1.1 106-1.3 159-.2a311 311 0 0 1 71.2 9.3 224.3 224.3 0 0 0 141.3-7.8c25.4-9.8 52-10.1 78.7-8.2v3.9c-32.3-2.2-63.6 1-94.2 12.8a188.3 188.3 0 0 1-116.6 4.9 336 336 0 0 0-87-11.1c-68.5.7-137.1-.5-205.6.5A301 301 0 0 0 59.9-81z"/><path id="XMLID_11964_" class="st3" d="M40.4-138.8a748.2 748.2 0 0 0-41.5-5.4v-3.2l22.2 2.3c52.2 6 104.7 10.1 157.1 12.9 37.4 2 75.1 2.1 112.5-.1 57.3-3.4 114.6-8.7 171.7-14.7 30.7-3.2 60.6-3.8 91 3.7 18.8 4.6 38.7 6.4 58.1 6.6h19.6v1.2c-21.5-.1-43-.6-64.5-1.9-29.3-1.8-58.1-12.1-88.3-8.1-32.7 4.3-65.4 9.6-98.3 12-36.5 2.7-73.3 2.9-109.9 3.7-22.4.5-44.9-1-67.3.2a801.4 801.4 0 0 1-162.4-9.2z"/><path id="XMLID_11961_" class="st3" d="M61.9-117.5c-20.7-6.6-41.9-11.2-63-16.3v-4c4.9.8 9.9 1.9 15 3.4 20.3 6 40.9 11.1 61.2 17.2 42.7 12.9 86 19.8 130.4 12.4 20-3.3 39.3-3.2 59.2.1 50 8.2 98-2.7 145.7-17.1 23.7-7.2 48-12.7 72.4-17.1 21.8-4 41 4.7 58.4 17.3l.2.1.2.2c-3.4-1.1-7.2-1.5-10.2-3.3a85.8 85.8 0 0 0-69.6-7.8l-96.7 26.3c-38.6 10.3-77.4 8.8-116.6 3.6-11-1.5-22.6-.9-33.6.8-52.5 8.3-103 0-153-15.8z"/><path id="XMLID_11958_" class="st3" d="M541.4-121.6l-.3-.2h.1c8.6 2.1 17.1 5.4 25.8 5.9 14 .8 28.7 2.2 42-1.2 7.3-1.8 14.6-3.4 22-4.6v5c-6.6.9-13.1 2.1-19.6 3.5a96 96 0 0 1-70-8.4z"/><path id="XMLID_11948_" class="st3" d="M64.5-67.3l-6 .6 2.3.2 3.7-.8zm-3.7.9a61.3 61.3 0 0 0-21.9 8.5c7.7-.4 15.3-1 23-1.1 16.3-.1 33.1-2.5 48.7.9 7.1 1.5 14.3 2.7 21.4 3.7h54.6l-22.7-1.3C130.2-58 96.7-62.6 60.8-66.4zm367.3 8.1c.9.1 1.9-.9 3-1.5-30.8-23.4-280.5-26.4-366.6-7.5a1605.4 1605.4 0 0 1 343.1 2c-45.1 3.7-90.1 8.3-135.2 10.9h53.2c34-4.8 68-8.1 102.5-3.9z"/><path id="XMLID_11945_" class="st3" d="M440.2-55.7c50.7-10.4 98.5-20.9 146.6-30 14.7-2.8 29.4-3.4 44.1-2.2v4.2c-33.7-2-66.8 4.7-100.1 12.1a4217 4217 0 0 1-78.6 16.5c-3 .6-6.3-.3-12-.6z"/><path id="XMLID_11942_" class="st3" d="M431.7-95.2c30.8 7.8 61.5 12.7 90.8-5.4-25.9-12-51.8-5.8-77.6-2.9l-.1 4.3h44.5c-10.9 9.1-38.9 7.9-51.7-3.6 5-2 9.1-4.8 13.4-5.1 19.4-1.5 38.9-2.5 58.4-3.4a13 13 0 0 1 7 1.7c3.5 2.3 8.1 4.9 9.2 8.3.7 2.2-3.4 7.3-6.6 9a51.5 51.5 0 0 1-17.1 5.7c-24.3 3.1-48.6 3.9-71.4-7.5l1.2-1.1z"/><path id="XMLID_11939_" class="st3" d="M44.2-99.3l-1.5.7 1.3-.9.2.2z"/><path id="XMLID_11936_" class="st3" d="M-1.1-88v-.1c15.1-.8 30.8-4.3 43.7-10.4-4.5 3.5-9 8.5-13.7 8.9-10 .6-20 1.2-30 1.6z"/><path id="XMLID_11933_" class="st3" d="M430.6-94c-9.4-7.1-9.3-13 1.2-18.7 18.5-10.1 38.9-11.3 59.3-11.2 15 0 29.8 1.8 42.7 10.9-26.8-10-54-9.1-81.3-3.5a92.4 92.4 0 0 0-18.3 6.4c-8.1 3.5-10.8 8.5-2.4 14.9l-1.2 1.2z"/><path id="XMLID_11930_" class="st3" d="M43.9-99.6c-3.1-3.8-5.6-9.5-9.5-10.9A192.4 192.4 0 0 0-1.1-120v-3.5c12.3 1.4 24.4 4.6 36.3 9.4 9.5 3.8 10.2 6.2 8.7 14.5z"/><path id="XMLID_11927_" class="st3" d="M44.2-99.3l-.2-.2v-.1l.2.3z"/><path id="XMLID_11924_" class="st3" d="M322.1-110.9c-17.6-1.1-35.6-.1-52.6-3.9-27.6-6.1-54.1-1.8-81.2 1.8-33.5 4.4-66.4-.4-98.4-11.6l25 5c31.2 5.9 62.5 6.8 93.6.3 18.3-3.9 36.1-2.8 54.5.2 19.6 3.1 39.5 3.9 59.3 5.8-.2.8-.2 1.6-.2 2.4z"/><path id="XMLID_11916_" class="st3" d="M368.8-45.6c-5.3 1.3-9 2.6-12.7 3.1-12.5 1.5-25.2 4.4-37.6 3.6-31.3-2-62.5-5.8-94.1-8.9 15.6-5.8 122.3-4.4 144.4 2.2zM281-47.4c22.3 8.5 45 4.8 67.8 3.1v-3.1H281z"/><g id="XMLID_11900_"><g id="XMLID_59_"><g id="XMLID_60_"><g id="XMLID_61_"><path id="XMLID_62_" class="st3" d="M252.6 337.7c-14.9-7.9-25-7.5-34.5 1 13.4 9 20.8 8.9 34.5-1zm-29.6.7c6.3-5.6 12.9-5.9 22.7-.7-9 6.5-13.9 6.6-22.7.7z"/></g></g></g></g><linearGradient id="XMLID_12_" gradientUnits="userSpaceOnUse" x1="-1532.4" y1="7600.7" x2="-1528.8" y2="7600.7" gradientTransform="rotate(-159 -1272.6 3642.6)"><stop offset=".2" stop-color="#fff"/><stop offset="1" stop-color="#e6e6e6"/></linearGradient><path id="XMLID_11899_" d="M393.1 36.6l-3.3-1.2-4 10.3L389 47l4.1-10.4z" fill-rule="evenodd" clip-rule="evenodd" fill="url(#XMLID_12_)"/></g></g></g></g><path id="XMLID_11890_" fill="#30cde5" d="M227.3 18.6h80v80h-80z"/><path id="XMLID_11887_" fill="#ffed4f" d="M324.9 18.6h80v80h-80z"/></svg>