<svg xmlns="http://www.w3.org/2000/svg" viewBox="0 0 87.69 45.62"><defs><style>.cls-1{fill:#055d62}</style></defs><title>fish-stock-1</title><g id="Layer_2" data-name="Layer 2"><g id="_Группа_" data-name="&lt;Группа&gt;"><path id="_Составной_контур_" data-name="&lt;Составной контур&gt;" class="cls-1" d="M9.4 15.2a3.88 3.88 0 0 0-2.28-.1l-.28 1 3.23.88zm0 0"/><path id="_Составной_контур_2" data-name="&lt;Составной контур&gt;" class="cls-1" d="M6.42 17.68A12.78 12.78 0 0 0 0 14.08l1.26 2.3a1.5 1.5 0 0 0 1 .75.57.57 0 0 1 0 1.12 1.5 1.5 0 0 0-1 .74L0 21.3a12.78 12.78 0 0 0 6.42-3.6zm0 0"/><path id="_Составной_контур_3" data-name="&lt;Составной контур&gt;" class="cls-1" d="M24.68 17.7a18.35 18.35 0 0 1-3.14 1.7q-.5.23-1 .4-.76.28-1.55.48a18.37 18.37 0 0 1-14-1.94.73.73 0 0 1 0-1.26 18.38 18.38 0 0 1 13.95-2q.78.2 1.55.47a18.38 18.38 0 0 1 3.28 1.54l-.27.14a.67.67 0 0 0-.24.92l1.16-.67.25.16zm0 0"/><path id="_Составной_контур_4" data-name="&lt;Составной контур&gt;" class="cls-1" d="M24.68 17.7a18.35 18.35 0 0 1-3.14 1.7q-.5.23-1 .4a4.7 4.7 0 0 1 0-4.22 18.38 18.38 0 0 1 3.28 1.54l-.27.15a.67.67 0 0 0-.25.92l1.16-.68.25.17zm0 0"/><path id="_Составной_контур_5" data-name="&lt;Составной контур&gt;" class="cls-1" d="M21.54 19.42a18.27 18.27 0 0 1-2.58.88 18.4 18.4 0 0 1-11.8-.88 18.38 18.38 0 0 1 14.38 0zm0 0"/><path id="_Составной_контур_6" data-name="&lt;Составной контур&gt;" class="cls-1" d="M22.73 17.7a1.1 1.1 0 1 1-1.1-1.1 1.1 1.1 0 0 1 1.1 1.1zm0 0"/><path id="_Составной_контур_7" data-name="&lt;Составной контур&gt;" class="cls-1" d="M22.3 17.7a.67.67 0 1 1-.66-.67.67.67 0 0 1 .67.67zm0 0"/><path id="_Составной_контур_8" data-name="&lt;Составной контур&gt;" class="cls-1" d="M17 15.24A24.37 24.37 0 0 0 4.77 8.4l2.4 4.4a2.84 2.84 0 0 0 1.9 1.4 27.8 27.8 0 0 1 5.13 1.6 2.48 2.48 0 0 0 2.5-.33zm0 0"/><path id="_Составной_контур_9" data-name="&lt;Составной контур&gt;" class="cls-1" d="M13.48 19.25a12.78 12.78 0 0 1-6.42 3.6l1.26-2.3a1.5 1.5 0 0 1 1-.75A14.57 14.57 0 0 0 12 19a1.3 1.3 0 0 1 1.32.17zm0 0"/></g><g id="_Группа_2" data-name="&lt;Группа&gt;"><path id="_Составной_контур_10" data-name="&lt;Составной контур&gt;" class="cls-1" d="M25.2 32.2a3.88 3.88 0 0 0-2.27-.1l-.28 1 3.23.87zm0 0"/><path id="_Составной_контур_11" data-name="&lt;Составной контур&gt;" class="cls-1" d="M22.24 34.67a12.78 12.78 0 0 0-6.42-3.6l1.26 2.3a1.5 1.5 0 0 0 1 .75.57.57 0 0 1 0 1.12 1.5 1.5 0 0 0-1 .74l-1.26 2.3a12.78 12.78 0 0 0 6.42-3.6zm0 0"/><path id="_Составной_контур_12" data-name="&lt;Составной контур&gt;" class="cls-1" d="M40.5 34.7a18.35 18.35 0 0 1-3.14 1.7q-.5.23-1 .4-.76.28-1.55.48a18.37 18.37 0 0 1-13.93-2 .73.73 0 0 1 0-1.26 18.38 18.38 0 0 1 13.95-2q.78.2 1.55.47a18.38 18.38 0 0 1 3.28 1.53l-.27.15a.67.67 0 0 0-.25.92l1.16-.67.24.17zm0 0"/><path id="_Составной_контур_13" data-name="&lt;Составной контур&gt;" class="cls-1" d="M40.5 34.7a18.35 18.35 0 0 1-3.14 1.7q-.5.23-1 .4a4.7 4.7 0 0 1 0-4.22 18.38 18.38 0 0 1 3.28 1.54l-.27.15a.67.67 0 0 0-.25.92l1.16-.68.25.17zm0 0"/><path id="_Составной_контур_14" data-name="&lt;Составной контур&gt;" class="cls-1" d="M37.36 36.4a18.4 18.4 0 0 1-14.38 0 18.38 18.38 0 0 1 14.38 0zm0 0"/><path id="_Составной_контур_15" data-name="&lt;Составной контур&gt;" class="cls-1" d="M38.55 34.7a1.1 1.1 0 1 1-1.1-1.1 1.1 1.1 0 0 1 1.1 1.1zm0 0"/><path id="_Составной_контур_16" data-name="&lt;Составной контур&gt;" class="cls-1" d="M38.12 34.7a.67.67 0 1 1-.67-.67.67.67 0 0 1 .67.67zm0 0"/><path id="_Составной_контур_17" data-name="&lt;Составной контур&gt;" class="cls-1" d="M32.83 32.23A24.37 24.37 0 0 0 20.6 25.4l2.4 4.38a2.84 2.84 0 0 0 1.9 1.42 27.8 27.8 0 0 1 5.1 1.58 2.48 2.48 0 0 0 2.5-.32zm0 0"/><path id="_Составной_контур_18" data-name="&lt;Составной контур&gt;" class="cls-1" d="M29.3 36.24a12.78 12.78 0 0 1-6.42 3.6l1.26-2.3a1.5 1.5 0 0 1 1-.75 14.57 14.57 0 0 0 2.7-.84 1.3 1.3 0 0 1 1.3.17zm0 0"/></g><g id="_Группа_3" data-name="&lt;Группа&gt;"><path id="_Составной_контур_19" data-name="&lt;Составной контур&gt;" class="cls-1" d="M28.6 6.8a3.88 3.88 0 0 0-2.28-.1l-.28 1 3.23.88zm0 0"/><path id="_Составной_контур_20" data-name="&lt;Составной контур&gt;" class="cls-1" d="M25.62 9.28a12.78 12.78 0 0 0-6.42-3.6L20.46 8a1.5 1.5 0 0 0 1 .74.57.57 0 0 1 0 1.12 1.5 1.5 0 0 0-1 .74l-1.26 2.3a12.78 12.78 0 0 0 6.42-3.6zm0 0"/><path id="_Составной_контур_21" data-name="&lt;Составной контур&gt;" class="cls-1" d="M43.88 9.3a18.35 18.35 0 0 1-3.14 1.7q-.5.22-1 .4-.76.27-1.55.47a18.38 18.38 0 0 1-4.62.6 18.38 18.38 0 0 1-7.2-1.47 18.37 18.37 0 0 1-2.15-1.08.73.73 0 0 1 0-1.26 18.38 18.38 0 0 1 13.95-2q.78.2 1.55.47A18.38 18.38 0 0 1 43 8.73l-.27.15a.67.67 0 0 0-.25.92l1.16-.67.25.17zm0 0"/><path id="_Составной_контур_22" data-name="&lt;Составной контур&gt;" class="cls-1" d="M43.88 9.3a18.35 18.35 0 0 1-3.14 1.7q-.5.22-1 .4a4.7 4.7 0 0 1 0-4.23A18.38 18.38 0 0 1 43 8.73l-.27.15a.67.67 0 0 0-.25.92l1.16-.67.25.17zm0 0"/><path id="_Составной_контур_23" data-name="&lt;Составной контур&gt;" class="cls-1" d="M40.74 11a18.27 18.27 0 0 1-2.58.88 18.38 18.38 0 0 1-4.6.6 18.38 18.38 0 0 1-7.2-1.48 18.38 18.38 0 0 1 14.4 0zm0 0"/><path id="_Составной_контур_24" data-name="&lt;Составной контур&gt;" class="cls-1" d="M41.93 9.3a1.1 1.1 0 1 1-1.1-1.08 1.1 1.1 0 0 1 1.1 1.1zm0 0"/><path id="_Составной_контур_25" data-name="&lt;Составной контур&gt;" class="cls-1" d="M41.5 9.3a.67.67 0 1 1-.66-.66.67.67 0 0 1 .67.67zm0 0"/><path id="_Составной_контур_26" data-name="&lt;Составной контур&gt;" class="cls-1" d="M36.2 6.84A24.37 24.37 0 0 0 24 0l2.4 4.4a2.84 2.84 0 0 0 1.9 1.4 27.8 27.8 0 0 1 5.1 1.6 2.48 2.48 0 0 0 2.5-.33zm0 0"/><path id="_Составной_контур_27" data-name="&lt;Составной контур&gt;" class="cls-1" d="M32.68 10.85a12.78 12.78 0 0 1-6.42 3.6l1.26-2.3a1.5 1.5 0 0 1 1-.75 14.57 14.57 0 0 0 2.7-.83 1.3 1.3 0 0 1 1.3.17zm0 0"/></g><g id="_Группа_4" data-name="&lt;Группа&gt;"><path id="_Составной_контур_28" data-name="&lt;Составной контур&gt;" class="cls-1" d="M41.35 23.3a3.88 3.88 0 0 0-2.28-.12l-.28 1 3.22.88zm0 0"/><path id="_Составной_контур_29" data-name="&lt;Составной контур&gt;" class="cls-1" d="M38.37 25.76a12.78 12.78 0 0 0-6.42-3.6l1.26 2.3a1.5 1.5 0 0 0 1 .75.57.57 0 0 1 0 1.13 1.5 1.5 0 0 0-1 .74l-1.25 2.3a12.78 12.78 0 0 0 6.42-3.6zm0 0"/><path id="_Составной_контур_30" data-name="&lt;Составной контур&gt;" class="cls-1" d="M56.63 25.8a18.35 18.35 0 0 1-3.14 1.7q-.52.22-1 .4-.77.27-1.56.47a18.37 18.37 0 0 1-13.94-2 .73.73 0 0 1 0-1.26 18.38 18.38 0 0 1 13.95-2q.78.2 1.55.48a18.38 18.38 0 0 1 3.28 1.54l-.27.15a.67.67 0 0 0-.24.92l1.16-.68.25.17zm0 0"/><path id="_Составной_контур_31" data-name="&lt;Составной контур&gt;" class="cls-1" d="M56.63 25.8a18.35 18.35 0 0 1-3.14 1.7q-.52.22-1 .4a4.7 4.7 0 0 1 0-4.23 18.38 18.38 0 0 1 3.27 1.54l-.27.16a.67.67 0 0 0-.25.92l1.16-.67.26.18zm0 0"/><path id="_Составной_контур_32" data-name="&lt;Составной контур&gt;" class="cls-1" d="M53.5 27.5a18.27 18.27 0 0 1-2.6.88 18.4 18.4 0 0 1-11.8-.88 18.38 18.38 0 0 1 14.4 0zm0 0"/><path id="_Составной_контур_33" data-name="&lt;Составной контур&gt;" class="cls-1" d="M54.68 25.8a1.1 1.1 0 1 1-1.1-1.1 1.1 1.1 0 0 1 1.1 1.1zm0 0"/><path id="_Составной_контур_34" data-name="&lt;Составной контур&gt;" class="cls-1" d="M54.26 25.8a.67.67 0 1 1-.67-.68.67.67 0 0 1 .66.67zm0 0"/><path id="_Составной_контур_35" data-name="&lt;Составной контур&gt;" class="cls-1" d="M49 23.32a24.37 24.37 0 0 0-12.24-6.84l2.4 4.4a2.84 2.84 0 0 0 1.84 1.4 27.8 27.8 0 0 1 5.13 1.6 2.48 2.48 0 0 0 2.5-.33zm0 0"/><path id="_Составной_контур_36" data-name="&lt;Составной контур&gt;" class="cls-1" d="M45.43 27.33a12.78 12.78 0 0 1-6.43 3.6l1.26-2.3a1.5 1.5 0 0 1 1-.75A14.57 14.57 0 0 0 44 27a1.3 1.3 0 0 1 1.32.17zm0 0"/></g><g id="_Группа_5" data-name="&lt;Группа&gt;"><path id="_Составной_контур_37" data-name="&lt;Составной контур&gt;" class="cls-1" d="M58.67 9.82a3.88 3.88 0 0 0-2.28-.1l-.3 1 3.24.87zm0 0"/><path id="_Составной_контур_38" data-name="&lt;Составной контур&gt;" class="cls-1" d="M55.7 12.3a12.78 12.78 0 0 0-6.43-3.6l1.26 2.3a1.5 1.5 0 0 0 1 .74.57.57 0 0 1 0 1.12 1.5 1.5 0 0 0-1 .74l-1.26 2.3a12.78 12.78 0 0 0 6.42-3.6zm0 0"/><path id="_Составной_контур_39" data-name="&lt;Составной контур&gt;" class="cls-1" d="M74 12.32A18.35 18.35 0 0 1 70.8 14q-.5.22-1 .4-.75.27-1.54.47a18.38 18.38 0 0 1-4.6.6A18.38 18.38 0 0 1 56.43 14a18.37 18.37 0 0 1-2.15-1 .73.73 0 0 1 0-1.26 18.38 18.38 0 0 1 13.94-2q.78.2 1.55.47a18.38 18.38 0 0 1 3.27 1.55l-.27.15a.67.67 0 0 0-.25.92l1.16-.67.26.17zm0 0"/><path id="_Составной_контур_40" data-name="&lt;Составной контур&gt;" class="cls-1" d="M74 12.32A18.35 18.35 0 0 1 70.8 14q-.5.22-1 .4a4.7 4.7 0 0 1 0-4.23 18.38 18.38 0 0 1 3.3 1.54l-.28.16a.67.67 0 0 0-.25.92l1.16-.67.25.18zm0 0"/><path id="_Составной_контур_41" data-name="&lt;Составной контур&gt;" class="cls-1" d="M70.8 14a18.27 18.27 0 0 1-2.57.88 18.38 18.38 0 0 1-4.6.6 18.38 18.38 0 0 1-7.2-1.48 18.38 18.38 0 0 1 14.4 0zm0 0"/><path id="_Составной_контур_42" data-name="&lt;Составной контур&gt;" class="cls-1" d="M72 12.32a1.1 1.1 0 1 1-1.1-1.1 1.1 1.1 0 0 1 1.1 1.1zm0 0"/><path id="_Составной_контур_43" data-name="&lt;Составной контур&gt;" class="cls-1" d="M71.58 12.32a.67.67 0 1 1-.67-.67.67.67 0 0 1 .68.67zm0 0"/><path id="_Составной_контур_44" data-name="&lt;Составной контур&gt;" class="cls-1" d="M66.28 9.86A24.37 24.37 0 0 0 54 3l2.4 4.4a2.84 2.84 0 0 0 1.9 1.4 27.8 27.8 0 0 1 5.13 1.6 2.48 2.48 0 0 0 2.57-.3zm0 0"/><path id="_Составной_контур_45" data-name="&lt;Составной контур&gt;" class="cls-1" d="M62.75 13.86a12.78 12.78 0 0 1-6.42 3.6l1.26-2.3a1.5 1.5 0 0 1 1-.75 14.57 14.57 0 0 0 2.68-.82 1.3 1.3 0 0 1 1.32.17zm0 0"/></g><g id="_Группа_6" data-name="&lt;Группа&gt;"><path id="_Составной_контур_46" data-name="&lt;Составной контур&gt;" class="cls-1" d="M53.7 38a3.88 3.88 0 0 0-2.3-.1l-.27 1 3.23.87zm0 0"/><path id="_Составной_контур_47" data-name="&lt;Составной контур&gt;" class="cls-1" d="M50.7 40.46a12.78 12.78 0 0 0-6.4-3.6l1.25 2.3a1.5 1.5 0 0 0 1 .75.57.57 0 0 1 0 1.13 1.5 1.5 0 0 0-1 .74l-1.26 2.3a12.78 12.78 0 0 0 6.4-3.6zm0 0"/><path id="_Составной_контур_48" data-name="&lt;Составной контур&gt;" class="cls-1" d="M69 40.5a18.35 18.35 0 0 1-3.14 1.7q-.5.22-1 .4-.76.27-1.55.47a18.37 18.37 0 0 1-13.93-2 .73.73 0 0 1 0-1.26 18.38 18.38 0 0 1 13.95-2q.78.2 1.55.48a18.38 18.38 0 0 1 3.28 1.54l-.27.15a.67.67 0 0 0-.25.92l1.16-.68.24.17zm0 0"/><path id="_Составной_контур_49" data-name="&lt;Составной контур&gt;" class="cls-1" d="M69 40.5a18.35 18.35 0 0 1-3.14 1.7q-.5.22-1 .4a4.7 4.7 0 0 1 0-4.23 18.38 18.38 0 0 1 3.28 1.54l-.27.16a.67.67 0 0 0-.25.92l1.16-.67.25.18zm0 0"/><path id="_Составной_контур_50" data-name="&lt;Составной контур&gt;" class="cls-1" d="M65.83 42.2a18.4 18.4 0 0 1-14.38 0 18.38 18.38 0 0 1 14.38 0zm0 0"/><path id="_Составной_контур_51" data-name="&lt;Составной контур&gt;" class="cls-1" d="M67 40.5a1.1 1.1 0 1 1-1.1-1.1 1.1 1.1 0 0 1 1.1 1.1zm0 0"/><path id="_Составной_контур_52" data-name="&lt;Составной контур&gt;" class="cls-1" d="M66.6 40.5a.67.67 0 1 1-.67-.68.67.67 0 0 1 .67.67zm0 0"/><path id="_Составной_контур_53" data-name="&lt;Составной контур&gt;" class="cls-1" d="M61.3 38a24.37 24.37 0 0 0-12.24-6.84l2.4 4.4a2.84 2.84 0 0 0 1.9 1.44 27.8 27.8 0 0 1 5.13 1.58 2.48 2.48 0 0 0 2.5-.33zm0 0"/><path id="_Составной_контур_54" data-name="&lt;Составной контур&gt;" class="cls-1" d="M57.77 42a12.78 12.78 0 0 1-6.42 3.6l1.26-2.3a1.5 1.5 0 0 1 1-.75 14.57 14.57 0 0 0 2.7-.83 1.3 1.3 0 0 1 1.32.17zm0 0"/></g><g id="_Группа_7" data-name="&lt;Группа&gt;"><path id="_Составной_контур_55" data-name="&lt;Составной контур&gt;" class="cls-1" d="M72.4 25.52a3.88 3.88 0 0 0-2.28-.1l-.28 1 3.23.87zm0 0"/><path id="_Составной_контур_56" data-name="&lt;Составной контур&gt;" class="cls-1" d="M69.43 28A12.78 12.78 0 0 0 63 24.4l1.26 2.3a1.5 1.5 0 0 0 1 .74.57.57 0 0 1 0 1.12 1.5 1.5 0 0 0-1 .74L63 31.63A12.78 12.78 0 0 0 69.43 28zm0 0"/><path id="_Составной_контур_57" data-name="&lt;Составной контур&gt;" class="cls-1" d="M87.7 28a18.35 18.35 0 0 1-3.15 1.7q-.5.23-1 .4-.76.28-1.55.48a18.37 18.37 0 0 1-13.94-2 .73.73 0 0 1 0-1.26 18.38 18.38 0 0 1 13.95-2q.8.2 1.56.47a18.38 18.38 0 0 1 3.28 1.53l-.27.15a.67.67 0 0 0-.25.92l1.16-.67.25.17zm0 0"/><path id="_Составной_контур_58" data-name="&lt;Составной контур&gt;" class="cls-1" d="M87.7 28a18.35 18.35 0 0 1-3.15 1.7q-.5.23-1 .4a4.7 4.7 0 0 1 0-4.22 18.38 18.38 0 0 1 3.28 1.54l-.27.15a.67.67 0 0 0-.25.92l1.17-.68.25.17zm0 0"/><path id="_Составной_контур_59" data-name="&lt;Составной контур&gt;" class="cls-1" d="M84.55 29.73a18.4 18.4 0 0 1-14.38 0 18.38 18.38 0 0 1 14.38 0zm0 0"/><path id="_Составной_контур_60" data-name="&lt;Составной контур&gt;" class="cls-1" d="M85.74 28a1.1 1.1 0 1 1-1.1-1.1 1.1 1.1 0 0 1 1.1 1.1zm0 0"/><path id="_Составной_контур_61" data-name="&lt;Составной контур&gt;" class="cls-1" d="M85.32 28a.67.67 0 1 1-.67-.67.67.67 0 0 1 .67.67zm0 0"/><path id="_Составной_контур_62" data-name="&lt;Составной контур&gt;" class="cls-1" d="M80 25.55a24.37 24.37 0 0 0-12.24-6.84l2.4 4.4a2.84 2.84 0 0 0 1.9 1.42 27.8 27.8 0 0 1 5.13 1.58 2.48 2.48 0 0 0 2.5-.32zm0 0"/><path id="_Составной_контур_63" data-name="&lt;Составной контур&gt;" class="cls-1" d="M76.5 29.56a12.78 12.78 0 0 1-6.43 3.6l1.26-2.3a1.5 1.5 0 0 1 1-.75 14.57 14.57 0 0 0 2.67-.83 1.3 1.3 0 0 1 1.32.17zm0 0"/></g></g></svg>