<svg xmlns="http://www.w3.org/2000/svg" viewBox="0 0 168.85 64.67"><defs><style>.cls-1{fill:#055d62}</style></defs><title>fish-stock-4</title><g id="Layer_2" data-name="Layer 2"><g id="_Группа_" data-name="&lt;Группа&gt;"><path id="_Составной_контур_" data-name="&lt;Составной контур&gt;" class="cls-1" d="M153.57 47.47a3.88 3.88 0 0 0-2.28-.1l-.3 1 3.24.87zm0 0"/><path id="_Составной_контур_2" data-name="&lt;Составной контур&gt;" class="cls-1" d="M150.6 49.94a12.78 12.78 0 0 0-6.43-3.6l1.26 2.3a1.5 1.5 0 0 0 1 .75.57.57 0 0 1 0 1.1 1.5 1.5 0 0 0-1 .75l-1.26 2.3A12.78 12.78 0 0 0 150.6 50zm0 0"/><path id="_Составной_контур_3" data-name="&lt;Составной контур&gt;" class="cls-1" d="M168.85 50a18.35 18.35 0 0 1-3.14 1.7q-.5.23-1 .4-.75.28-1.54.48a18.37 18.37 0 0 1-13.94-2 .73.73 0 0 1 0-1.26 18.38 18.38 0 0 1 13.95-2q.78.2 1.55.47a18.38 18.38 0 0 1 3.28 1.6l-.27.15a.67.67 0 0 0-.25.92l1.16-.67.25.17zm0 0"/><path id="_Составной_контур_4" data-name="&lt;Составной контур&gt;" class="cls-1" d="M168.85 50a18.35 18.35 0 0 1-3.14 1.7q-.5.23-1 .4a4.7 4.7 0 0 1 0-4.22 18.38 18.38 0 0 1 3.3 1.52l-.27.15a.67.67 0 0 0-.25.92l1.16-.67.25.17zm0 0"/><path id="_Составной_контур_5" data-name="&lt;Составной контур&gt;" class="cls-1" d="M165.7 51.7a18.4 18.4 0 0 1-14.37 0 18.38 18.38 0 0 1 14.38 0zm0 0"/><path id="_Составной_контур_6" data-name="&lt;Составной контур&gt;" class="cls-1" d="M166.9 50a1.1 1.1 0 1 1-1.1-1.1 1.1 1.1 0 0 1 1.1 1.1zm0 0"/><path id="_Составной_контур_7" data-name="&lt;Составной контур&gt;" class="cls-1" d="M166.48 50a.67.67 0 1 1-.67-.67.67.67 0 0 1 .68.67zm0 0"/><path id="_Составной_контур_8" data-name="&lt;Составной контур&gt;" class="cls-1" d="M161.18 47.5a24.37 24.37 0 0 0-12.24-6.83l2.4 4.4a2.84 2.84 0 0 0 1.9 1.4 27.8 27.8 0 0 1 5.13 1.6 2.48 2.48 0 0 0 2.5-.33zm0 0"/><path id="_Составной_контур_9" data-name="&lt;Составной контур&gt;" class="cls-1" d="M157.65 51.5a12.78 12.78 0 0 1-6.42 3.6l1.26-2.3a1.5 1.5 0 0 1 1-.74 14.57 14.57 0 0 0 2.68-.83 1.3 1.3 0 0 1 1.32.17zm0 0"/></g><g id="_Группа_2" data-name="&lt;Группа&gt;"><path id="_Составной_контур_10" data-name="&lt;Составной контур&gt;" class="cls-1" d="M53.35 27.4a5.4 5.4 0 0 0-3.16-.16l-.4 1.43 4.5 1.23zm0 0"/><path id="_Составной_контур_11" data-name="&lt;Составной контур&gt;" class="cls-1" d="M49.22 30.82a17.76 17.76 0 0 0-8.92-5L42 29a2.07 2.07 0 0 0 1.4 1 .8.8 0 0 1 0 1.56 2.07 2.07 0 0 0-1.4 1l-1.75 3.2a17.76 17.76 0 0 0 8.92-5zm0 0"/><path id="_Составной_контур_12" data-name="&lt;Составной контур&gt;" class="cls-1" d="M74.6 30.86a25.5 25.5 0 0 1-4.37 2.38q-.7.3-1.44.56-1.07.38-2.16.66a25.53 25.53 0 0 1-19.37-2.72 1 1 0 0 1 0-1.76 25.55 25.55 0 0 1 19.38-2.73q1.08.28 2.15.66a25.55 25.55 0 0 1 4.55 2.16l-.37.2a.94.94 0 0 0-.34 1.3l1.6-.94.36.23zm0 0"/><path id="_Составной_контур_13" data-name="&lt;Составной контур&gt;" class="cls-1" d="M74.6 30.86a25.5 25.5 0 0 1-4.37 2.38q-.7.3-1.44.56a6.52 6.52 0 0 1 0-5.88 25.55 25.55 0 0 1 4.54 2.15l-.37.2a.94.94 0 0 0-.34 1.3l1.6-.94.36.23zm0 0"/><path id="_Составной_контур_14" data-name="&lt;Составной контур&gt;" class="cls-1" d="M70.23 33.24a25.4 25.4 0 0 1-3.58 1.22 25.57 25.57 0 0 1-16.4-1.22 25.54 25.54 0 0 1 20 0zm0 0"/><path id="_Составной_контур_15" data-name="&lt;Составной контур&gt;" class="cls-1" d="M71.88 30.86a1.5 1.5 0 1 1-1.5-1.5 1.5 1.5 0 0 1 1.5 1.5zm0 0"/><path id="_Составной_контур_16" data-name="&lt;Составной контур&gt;" class="cls-1" d="M71.3 30.86a.93.93 0 1 1-.93-.93.93.93 0 0 1 .93.93zm0 0"/><path id="_Составной_контур_17" data-name="&lt;Составной контур&gt;" class="cls-1" d="M63.94 27.43a33.87 33.87 0 0 0-17-9.5l3.3 6.07a4 4 0 0 0 2.66 2 38.64 38.64 0 0 1 7.1 2.2 3.45 3.45 0 0 0 3.5-.45zm0 0"/><path id="_Составной_контур_18" data-name="&lt;Составной контур&gt;" class="cls-1" d="M59 33a17.76 17.76 0 0 1-8.92 5l1.75-3.2a2.07 2.07 0 0 1 1.4-1A20.25 20.25 0 0 0 57 32.6a1.8 1.8 0 0 1 1.83.24zm0 0"/></g><g id="_Группа_3" data-name="&lt;Группа&gt;"><path id="_Составной_контур_19" data-name="&lt;Составной контур&gt;" class="cls-1" d="M9.4 38a3.88 3.88 0 0 0-2.28-.1l-.28 1 3.23.87zm0 0"/><path id="_Составной_контур_20" data-name="&lt;Составной контур&gt;" class="cls-1" d="M6.42 40.5A12.78 12.78 0 0 0 0 36.9l1.26 2.3a1.5 1.5 0 0 0 1 .75.57.57 0 0 1 0 1.12 1.5 1.5 0 0 0-1 .74L0 44.15a12.78 12.78 0 0 0 6.42-3.6zm0 0"/><path id="_Составной_контур_21" data-name="&lt;Составной контур&gt;" class="cls-1" d="M24.68 40.52a18.35 18.35 0 0 1-3.14 1.7q-.5.23-1 .4-.76.28-1.55.48a18.37 18.37 0 0 1-14-1.95.73.73 0 0 1 0-1.26 18.38 18.38 0 0 1 13.95-2q.78.2 1.55.46a18.38 18.38 0 0 1 3.28 1.54l-.27.15a.67.67 0 0 0-.24.92l1.16-.67.25.17zm0 0"/><path id="_Составной_контур_22" data-name="&lt;Составной контур&gt;" class="cls-1" d="M24.68 40.52a18.35 18.35 0 0 1-3.14 1.7q-.5.23-1 .4a4.7 4.7 0 0 1 0-4.22 18.38 18.38 0 0 1 3.28 1.54l-.27.15a.67.67 0 0 0-.25.9l1.16-.66.25.17zm0 0"/><path id="_Составной_контур_23" data-name="&lt;Составной контур&gt;" class="cls-1" d="M21.54 42.24a18.4 18.4 0 0 1-14.38 0 18.38 18.38 0 0 1 14.38 0zm0 0"/><path id="_Составной_контур_24" data-name="&lt;Составной контур&gt;" class="cls-1" d="M22.73 40.52a1.1 1.1 0 1 1-1.1-1.1 1.1 1.1 0 0 1 1.1 1.1zm0 0"/><path id="_Составной_контур_25" data-name="&lt;Составной контур&gt;" class="cls-1" d="M22.3 40.52a.67.67 0 1 1-.66-.67.67.67 0 0 1 .67.67zm0 0"/><path id="_Составной_контур_26" data-name="&lt;Составной контур&gt;" class="cls-1" d="M17 38.05A24.37 24.37 0 0 0 4.77 31.2l2.4 4.4a2.84 2.84 0 0 0 1.9 1.4 27.8 27.8 0 0 1 5.13 1.58 2.48 2.48 0 0 0 2.5-.32zm0 0"/><path id="_Составной_контур_27" data-name="&lt;Составной контур&gt;" class="cls-1" d="M13.48 42.06a12.78 12.78 0 0 1-6.42 3.6l1.26-2.3a1.5 1.5 0 0 1 1-.75 14.57 14.57 0 0 0 2.68-.83 1.3 1.3 0 0 1 1.32.17zm0 0"/></g><g id="_Группа_4" data-name="&lt;Группа&gt;"><path id="_Составной_контур_28" data-name="&lt;Составной контур&gt;" class="cls-1" d="M90 6.8a3.88 3.88 0 0 0-2.28-.1l-.28 1 3.23.88zm0 0"/><path id="_Составной_контур_29" data-name="&lt;Составной контур&gt;" class="cls-1" d="M87.07 9.28a12.78 12.78 0 0 0-6.42-3.6L81.9 8a1.5 1.5 0 0 0 1 .74.57.57 0 0 1 0 1.12 1.5 1.5 0 0 0-1 .74l-1.26 2.3a12.78 12.78 0 0 0 6.42-3.6zm0 0"/><path id="_Составной_контур_30" data-name="&lt;Составной контур&gt;" class="cls-1" d="M105.33 9.3a18.35 18.35 0 0 1-3.14 1.7q-.52.22-1 .4-.77.27-1.56.47a18.38 18.38 0 0 1-4.6.6A18.38 18.38 0 0 1 87.8 11a18.37 18.37 0 0 1-2.13-1.08.73.73 0 0 1 0-1.26 18.38 18.38 0 0 1 13.95-2q.78.2 1.55.47a18.38 18.38 0 0 1 3.28 1.54l-.27.15a.67.67 0 0 0-.25.92l1.16-.67.24.17zm0 0"/><path id="_Составной_контур_31" data-name="&lt;Составной контур&gt;" class="cls-1" d="M105.33 9.3a18.35 18.35 0 0 1-3.14 1.7q-.52.22-1 .4a4.7 4.7 0 0 1 0-4.23 18.38 18.38 0 0 1 3.27 1.54l-.27.16a.67.67 0 0 0-.25.92l1.16-.67.26.18zm0 0"/><path id="_Составной_контур_32" data-name="&lt;Составной контур&gt;" class="cls-1" d="M102.2 11a18.27 18.27 0 0 1-2.6.88 18.38 18.38 0 0 1-4.6.6A18.38 18.38 0 0 1 87.8 11a18.38 18.38 0 0 1 14.4 0zm0 0"/><path id="_Составной_контур_33" data-name="&lt;Составной контур&gt;" class="cls-1" d="M103.38 9.3a1.1 1.1 0 1 1-1.1-1.08 1.1 1.1 0 0 1 1.1 1.1zm0 0"/><path id="_Составной_контур_34" data-name="&lt;Составной контур&gt;" class="cls-1" d="M103 9.3a.67.67 0 1 1-.67-.66.67.67 0 0 1 .67.67zm0 0"/><path id="_Составной_контур_35" data-name="&lt;Составной контур&gt;" class="cls-1" d="M97.66 6.84A24.37 24.37 0 0 0 85.4 0l2.4 4.4a2.84 2.84 0 0 0 1.9 1.4 27.8 27.8 0 0 1 5.14 1.6 2.48 2.48 0 0 0 2.5-.33zm0 0"/><path id="_Составной_контур_36" data-name="&lt;Составной контур&gt;" class="cls-1" d="M94.13 10.85a12.78 12.78 0 0 1-6.42 3.6l1.3-2.32a1.5 1.5 0 0 1 1-.74 14.57 14.57 0 0 0 2.7-.84 1.3 1.3 0 0 1 1.3.17zm0 0"/></g><g id="_Группа_5" data-name="&lt;Группа&gt;"><path id="_Составной_контур_37" data-name="&lt;Составной контур&gt;" class="cls-1" d="M101.2 59.54a3.5 3.5 0 0 0-2.05-.1l-.25.93 2.92.8zm0 0"/><path id="_Составной_контур_38" data-name="&lt;Составной контур&gt;" class="cls-1" d="M98.52 61.78a11.55 11.55 0 0 0-5.8-3.24l1.13 2.08a1.35 1.35 0 0 0 .9.67.52.52 0 0 1 0 1 1.35 1.35 0 0 0-.9.66l-1.13 2.08a11.55 11.55 0 0 0 5.8-3.24zm0 0"/><path id="_Составной_контур_39" data-name="&lt;Составной контур&gt;" class="cls-1" d="M115 61.8a16.58 16.58 0 0 1-2.84 1.55q-.46.2-.93.36-.7.26-1.4.44a16.6 16.6 0 0 1-12.6-1.77.66.66 0 0 1 0-1.14 16.6 16.6 0 0 1 12.6-1.77q.7.18 1.4.43a16.6 16.6 0 0 1 3 1.4l-.24.13a.6.6 0 0 0-.23.83l1-.6.23.14zm0 0"/><path id="_Составной_контур_40" data-name="&lt;Составной контур&gt;" class="cls-1" d="M115 61.8a16.58 16.58 0 0 1-2.84 1.55q-.46.2-.93.36a4.24 4.24 0 0 1 0-3.82 16.6 16.6 0 0 1 3 1.4l-.24.14a.6.6 0 0 0-.23.83l1-.6.23.14zm0 0"/><path id="_Составной_контур_41" data-name="&lt;Составной контур&gt;" class="cls-1" d="M112.2 63.35a16.63 16.63 0 0 1-13 0 16.6 16.6 0 0 1 13 0zm0 0"/><path id="_Составной_контур_42" data-name="&lt;Составной контур&gt;" class="cls-1" d="M113.26 61.8a1 1 0 1 1-1-1 1 1 0 0 1 1 1zm0 0"/><path id="_Составной_контур_43" data-name="&lt;Составной контур&gt;" class="cls-1" d="M112.88 61.8a.6.6 0 1 1-.6-.6.6.6 0 0 1 .6.6zm0 0"/><path id="_Составной_контур_44" data-name="&lt;Составной контур&gt;" class="cls-1" d="M108.1 59.57A22 22 0 0 0 97 53.4l2.16 4a2.57 2.57 0 0 0 1.73 1.27 25.13 25.13 0 0 1 4.63 1.43 2.24 2.24 0 0 0 2.27-.3zm0 0"/><path id="_Составной_контур_45" data-name="&lt;Составной контур&gt;" class="cls-1" d="M104.9 63.2a11.55 11.55 0 0 1-5.8 3.23l1.14-2.08a1.35 1.35 0 0 1 .9-.67 13.17 13.17 0 0 0 2.44-.75 1.18 1.18 0 0 1 1.2.15zm0 0"/></g><g id="_Группа_6" data-name="&lt;Группа&gt;"><path id="_Составной_контур_46" data-name="&lt;Составной контур&gt;" class="cls-1" d="M93.16 40a2.44 2.44 0 0 0-1.43-.07l-.17.65 2 .55zm0 0"/><path id="_Составной_контур_47" data-name="&lt;Составной контур&gt;" class="cls-1" d="M91.3 41.52a8 8 0 0 0-4-2.25l.7 1.44a.94.94 0 0 0 .63.48.36.36 0 0 1 0 .7.94.94 0 0 0-.63.48l-.8 1.45a8 8 0 0 0 4-2.24zm0 0"/><path id="_Составной_контур_48" data-name="&lt;Составной контур&gt;" class="cls-1" d="M102.77 41.54a11.53 11.53 0 0 1-2 1.08l-.65.25q-.48.17-1 .3a11.54 11.54 0 0 1-8.76-1.23.46.46 0 0 1 0-.8 11.55 11.55 0 0 1 8.76-1.22q.5.13 1 .3a11.55 11.55 0 0 1 2.06 1l-.17.1a.42.42 0 0 0-.14.58l.73-.42.15.1zm0 0"/><path id="_Составной_контур_49" data-name="&lt;Составной контур&gt;" class="cls-1" d="M102.77 41.54a11.53 11.53 0 0 1-2 1.08l-.65.25a2.95 2.95 0 0 1 0-2.66 11.55 11.55 0 0 1 2.06 1l-.17.1a.42.42 0 0 0-.14.6l.73-.43.15.1zm0 0"/><path id="_Составной_контур_50" data-name="&lt;Составной контур&gt;" class="cls-1" d="M100.8 42.6a11.56 11.56 0 0 1-9 0 11.55 11.55 0 0 1 9 0zm0 0"/><path id="_Составной_контур_51" data-name="&lt;Составной контур&gt;" class="cls-1" d="M101.54 41.54a.68.68 0 1 1-.68-.68.68.68 0 0 1 .68.68zm0 0"/><path id="_Составной_контур_52" data-name="&lt;Составной контур&gt;" class="cls-1" d="M101.27 41.54a.42.42 0 1 1-.42-.42.42.42 0 0 1 .42.42zm0 0"/><path id="_Составной_контур_53" data-name="&lt;Составной контур&gt;" class="cls-1" d="M97.95 40a15.3 15.3 0 0 0-7.7-4.3l1.5 2.76a1.8 1.8 0 0 0 1.2.9 17.47 17.47 0 0 1 3.24 1 1.56 1.56 0 0 0 1.57-.2zm0 0"/><path id="_Составной_контур_54" data-name="&lt;Составной контур&gt;" class="cls-1" d="M95.73 42.5a8 8 0 0 1-4 2.25l.8-1.45a.94.94 0 0 1 .62-.47 9.16 9.16 0 0 0 1.7-.52.82.82 0 0 1 .82.12zm0 0"/></g><g id="_Группа_7" data-name="&lt;Группа&gt;"><path id="_Составной_контур_55" data-name="&lt;Составной контур&gt;" class="cls-1" d="M61.28 54a3 3 0 0 0-1.76-.08l-.22.8 2.5.68zm0 0"/><path id="_Составной_контур_56" data-name="&lt;Составной контур&gt;" class="cls-1" d="M59 55.92a9.9 9.9 0 0 0-5-2.78l1 1.8a1.15 1.15 0 0 0 .77.57.45.45 0 0 1 0 .88A1.15 1.15 0 0 0 55 57l-1 1.8a9.9 9.9 0 0 0 5-2.8zm0 0"/><path id="_Составной_контур_57" data-name="&lt;Составной контур&gt;" class="cls-1" d="M73.13 55.94a14.22 14.22 0 0 1-2.44 1.33l-.8.3q-.6.22-1.2.38a14.24 14.24 0 0 1-10.82-1.52.57.57 0 0 1 0-1 14.25 14.25 0 0 1 10.82-1.5q.6.16 1.2.37a14.25 14.25 0 0 1 2.54 1.2l-.2.12a.52.52 0 0 0-.2.7l.9-.5.2.12zm0 0"/><path id="_Составной_контур_58" data-name="&lt;Составной контур&gt;" class="cls-1" d="M73.13 55.94a14.22 14.22 0 0 1-2.44 1.33l-.8.3a3.63 3.63 0 0 1 0-3.27 14.25 14.25 0 0 1 2.53 1.2l-.2.12a.52.52 0 0 0-.2.7l.9-.5.2.12zm0 0"/><path id="_Составной_контур_59" data-name="&lt;Составной контур&gt;" class="cls-1" d="M70.7 57.27a14.26 14.26 0 0 1-11.16 0 14.25 14.25 0 0 1 11.15 0zm0 0"/><path id="_Составной_контур_60" data-name="&lt;Составной контур&gt;" class="cls-1" d="M71.62 55.94a.84.84 0 1 1-.84-.84.84.84 0 0 1 .84.84zm0 0"/><path id="_Составной_контур_61" data-name="&lt;Составной контур&gt;" class="cls-1" d="M71.3 55.94a.52.52 0 1 1-.53-.52.52.52 0 0 1 .52.52zm0 0"/><path id="_Составной_контур_62" data-name="&lt;Составной контур&gt;" class="cls-1" d="M67.18 54a18.9 18.9 0 0 0-9.5-5.3l1.87 3.4A2.2 2.2 0 0 0 61 53.23a21.56 21.56 0 0 1 4 1.23 1.92 1.92 0 0 0 2-.26zm0 0"/><path id="_Составной_контур_63" data-name="&lt;Составной контур&gt;" class="cls-1" d="M64.44 57.13a9.9 9.9 0 0 1-5 2.78l1-1.78a1.16 1.16 0 0 1 .78-.58 11.3 11.3 0 0 0 2.1-.64 1 1 0 0 1 1 .13zm0 0"/></g><g id="_Группа_8" data-name="&lt;Группа&gt;"><path id="_Составной_контур_64" data-name="&lt;Составной контур&gt;" class="cls-1" d="M112.43 24.44a2.67 2.67 0 0 0-1.57-.07l-.2.7 2.23.62zm0 0"/><path id="_Составной_контур_65" data-name="&lt;Составной контур&gt;" class="cls-1" d="M110.38 26.15a8.8 8.8 0 0 0-4.38-2.48l.87 1.6a1 1 0 0 0 .7.5.4.4 0 0 1 0 .77 1 1 0 0 0-.7.5l-.87 1.62a8.8 8.8 0 0 0 4.43-2.47zm0 0"/><path id="_Составной_контур_66" data-name="&lt;Составной контур&gt;" class="cls-1" d="M123 26.16a12.64 12.64 0 0 1-2.16 1.18l-.7.28q-.54.2-1.08.33a12.66 12.66 0 0 1-9.6-1.35.5.5 0 0 1 0-.87 12.67 12.67 0 0 1 9.54-1.35q.54.14 1.07.33a12.67 12.67 0 0 1 2.26 1.07l-.18.1a.46.46 0 0 0-.17.64l.8-.45.17.12zm0 0"/><path id="_Составной_контур_67" data-name="&lt;Составной контур&gt;" class="cls-1" d="M123 26.16a12.64 12.64 0 0 1-2.16 1.18l-.7.28a3.23 3.23 0 0 1 0-2.92 12.67 12.67 0 0 1 2.25 1.06l-.2.1a.46.46 0 0 0-.16.64l.8-.46.17.12zm0 0"/><path id="_Составной_контур_68" data-name="&lt;Составной контур&gt;" class="cls-1" d="M120.8 27.35a12.68 12.68 0 0 1-9.9 0 12.67 12.67 0 0 1 9.9 0zm0 0"/><path id="_Составной_контур_69" data-name="&lt;Составной контур&gt;" class="cls-1" d="M121.62 26.16a.75.75 0 1 1-.75-.75.75.75 0 0 1 .75.76zm0 0"/><path id="_Составной_контур_70" data-name="&lt;Составной контур&gt;" class="cls-1" d="M121.33 26.16a.46.46 0 1 1-.46-.46.46.46 0 0 1 .46.46zm0 0"/><path id="_Составной_контур_71" data-name="&lt;Составной контур&gt;" class="cls-1" d="M117.68 24.47a16.8 16.8 0 0 0-8.44-4.7l1.65 3a2 2 0 0 0 1.3 1 19.16 19.16 0 0 1 3.55 1.08 1.7 1.7 0 0 0 1.73-.22zm0 0"/><path id="_Составной_контур_72" data-name="&lt;Составной контур&gt;" class="cls-1" d="M115.25 27.23a8.8 8.8 0 0 1-4.43 2.47l.87-1.6a1 1 0 0 1 .68-.5 10 10 0 0 0 1.86-.57.9.9 0 0 1 .9.12zm0 0"/></g><g id="_Группа_9" data-name="&lt;Группа&gt;"><path id="_Составной_контур_73" data-name="&lt;Составной контур&gt;" class="cls-1" d="M57.45 5.08A2.67 2.67 0 0 0 55.88 5l-.2.7 2.23.62zm0 0"/><path id="_Составной_контур_74" data-name="&lt;Составной контур&gt;" class="cls-1" d="M55.4 6.78A8.8 8.8 0 0 0 51 4.3l.87 1.6a1 1 0 0 0 .7.5.4.4 0 0 1 0 .78 1 1 0 0 0-.7.5L51 9.3a8.8 8.8 0 0 0 4.4-2.46zm0 0"/><path id="_Составной_контур_75" data-name="&lt;Составной контур&gt;" class="cls-1" d="M68 6.8A12.64 12.64 0 0 1 65.82 8l-.7.28q-.54.2-1.08.33a12.67 12.67 0 0 1-3.18.4 12.66 12.66 0 0 1-5-1 12.66 12.66 0 0 1-1.48-.74.5.5 0 0 1 0-.87A12.67 12.67 0 0 1 64 5q.54.14 1.07.33a12.67 12.67 0 0 1 2.3 1.07l-.18.1a.46.46 0 0 0-.18.64l.8-.46.18.12zm0 0"/><path id="_Составной_контур_76" data-name="&lt;Составной контур&gt;" class="cls-1" d="M68 6.8A12.64 12.64 0 0 1 65.82 8l-.7.28a3.23 3.23 0 0 1 0-2.92 12.67 12.67 0 0 1 2.25 1.04l-.18.1a.46.46 0 0 0-.18.64l.8-.46.18.12zm0 0"/><path id="_Составной_контур_77" data-name="&lt;Составной контур&gt;" class="cls-1" d="M65.82 8a12.6 12.6 0 0 1-1.78.6 12.67 12.67 0 0 1-3.18.4 12.66 12.66 0 0 1-5-1 12.67 12.67 0 0 1 9.9 0zm0 0"/><path id="_Составной_контур_78" data-name="&lt;Составной контур&gt;" class="cls-1" d="M66.64 6.8a.75.75 0 1 1-.75-.8.75.75 0 0 1 .74.75zm0 0"/><path id="_Составной_контур_79" data-name="&lt;Составной контур&gt;" class="cls-1" d="M66.35 6.8a.46.46 0 1 1-.46-.46.46.46 0 0 1 .45.46zm0 0"/><path id="_Составной_контур_80" data-name="&lt;Составной контур&gt;" class="cls-1" d="M62.7 5.1A16.8 16.8 0 0 0 54.26.4l1.65 3a2 2 0 0 0 1.33 1 19.16 19.16 0 0 1 3.54 1.08 1.7 1.7 0 0 0 1.73-.22zm0 0"/><path id="_Составной_контур_81" data-name="&lt;Составной контур&gt;" class="cls-1" d="M60.26 7.86a8.8 8.8 0 0 1-4.43 2.47l.87-1.6a1 1 0 0 1 .7-.5 10 10 0 0 0 1.85-.57.9.9 0 0 1 .9.12zm0 0"/></g><g id="_Группа_10" data-name="&lt;Группа&gt;"><path id="_Составной_контур_82" data-name="&lt;Составной контур&gt;" class="cls-1" d="M148.56 16.06A2.67 2.67 0 0 0 147 16l-.2.7 2.23.62zm0 0"/><path id="_Составной_контур_83" data-name="&lt;Составной контур&gt;" class="cls-1" d="M146.5 17.76a8.8 8.8 0 0 0-4.42-2.47l.87 1.58a1 1 0 0 0 .7.5.4.4 0 0 1 0 .78 1 1 0 0 0-.7.5l-.87 1.6a8.8 8.8 0 0 0 4.43-2.47zm0 0"/><path id="_Составной_контур_84" data-name="&lt;Составной контур&gt;" class="cls-1" d="M159.1 17.78a12.64 12.64 0 0 1-2.17 1.22l-.7.28q-.54.2-1.08.33a12.66 12.66 0 0 1-9.6-1.34.5.5 0 0 1 0-.87 12.67 12.67 0 0 1 9.6-1.4q.54.14 1.07.33a12.67 12.67 0 0 1 2.26 1.06l-.18.1a.46.46 0 0 0-.17.63l.8-.46.17.12zm0 0"/><path id="_Составной_контур_85" data-name="&lt;Составной контур&gt;" class="cls-1" d="M159.1 17.78a12.64 12.64 0 0 1-2.17 1.22l-.7.28a3.23 3.23 0 0 1 0-2.92 12.67 12.67 0 0 1 2.25 1.06l-.18.1a.46.46 0 0 0-.17.64l.8-.46.17.12zm0 0"/><path id="_Составной_контур_86" data-name="&lt;Составной контур&gt;" class="cls-1" d="M156.93 19a12.6 12.6 0 0 1-1.78.6A12.68 12.68 0 0 1 147 19a12.67 12.67 0 0 1 9.9 0zm0 0"/><path id="_Составной_контур_87" data-name="&lt;Составной контур&gt;" class="cls-1" d="M157.75 17.78A.75.75 0 1 1 157 17a.75.75 0 0 1 .75.75zm0 0"/><path id="_Составной_контур_88" data-name="&lt;Составной контур&gt;" class="cls-1" d="M157.46 17.78a.46.46 0 1 1-.46-.46.46.46 0 0 1 .46.46zm0 0"/><path id="_Составной_контур_89" data-name="&lt;Составной контур&gt;" class="cls-1" d="M153.8 16.08a16.8 16.8 0 0 0-8.43-4.7l1.65 3a2 2 0 0 0 1.32 1 19.16 19.16 0 0 1 3.54 1.08 1.7 1.7 0 0 0 1.73-.22zm0 0"/><path id="_Составной_контур_90" data-name="&lt;Составной контур&gt;" class="cls-1" d="M151.37 18.84a8.8 8.8 0 0 1-4.43 2.47l.87-1.58a1 1 0 0 1 .7-.5 10 10 0 0 0 1.86-.58.9.9 0 0 1 .9.12zm0 0"/></g></g></svg>