<svg version="1.1" id="Layer_1" xmlns="http://www.w3.org/2000/svg" xmlns:xlink="http://www.w3.org/1999/xlink" x="0px" y="0px" viewBox="0 0 632 120.1" style="enable-background:new 0 0 632 120.1" xml:space="preserve"><style type="text/css">.st1{clip-path:url(#XMLID_107_)}.st2{fill:#65db65}.st3{fill:#4caf50}.st4{fill:#388e3c}.st5,.st6{fill:#a46c0a}.st6{clip-path:url(#XMLID_107_)}</style><g id="XMLID_653_"><defs><rect id="XMLID_53_" x="0" y="0.1" width="632" height="120"/></defs><clipPath id="XMLID_107_"><use xlink:href="#XMLID_53_" style="overflow:visible"/></clipPath><rect id="XMLID_652_" x="0" y="-165" width="632" height="478" style="clip-path:url(#XMLID_107_);fill-rule:evenodd;clip-rule:evenodd;fill:#3a454d"/><g id="XMLID_632_" class="st1"><path id="XMLID_651_" class="st2" d="M271.5 118.4c3.1 2.3 31.6 16.1 31.6 16.1l-1.6 28-30-17.1-27.5-17.1 27.5-9.9z"/><path id="XMLID_650_" class="st2" d="M360.2 117.7c-3.1 2.3-31.6 16.1-31.6 16.1l1.6 28 30-17.1 27.5-17.1-27.5-9.9z"/><polygon id="XMLID_649_" class="st3" points="118,41.4 256.8,110.6 256.8,131.2 118,62.8 		"/><polygon id="XMLID_648_" class="st4" points="294.8,82.6 294.8,108.8 256.8,131.2 256.8,105.4 		"/><polygon id="XMLID_647_" class="st4" points="516.7,41.4 378,110.6 378,131.2 516.7,62.8 		"/><polygon id="XMLID_646_" class="st3" points="339.9,82.6 339.9,108.8 378,131.2 378,105.4 		"/><polygon id="XMLID_645_" class="st4" points="174.1,54.1 216.9,32.1 216.9,12.5 152.4,42.7 		"/><polygon id="XMLID_644_" class="st3" points="460.6,54.1 417.9,32.1 417.9,12.5 482.4,42.7 		"/><polygon id="XMLID_643_" class="st3" points="216.9,111.5 216.9,132.9 317.4,181.6 317.4,60.4 256.8,31.5 256.8,51.7 294.8,71 
			294.8,148.9 239.8,121.9 238.6,119.9 238.6,22.8 216.9,12.5 		"/><polygon id="XMLID_642_" class="st4" points="417.9,111.5 417.9,132.9 317.4,181.6 317.4,60.4 378,31.5 378,51.7 339.9,71 
			339.9,148.9 395,121.9 396.1,119.9 396.1,22.8 417.9,12.5 		"/><polygon id="XMLID_641_" class="st2" points="294.8,90 256.8,110.6 118,41.4 216,-7.1 235,3.4 159.2,41.4 256.8,91.2 294.8,71 		
			"/><polygon id="XMLID_640_" class="st2" points="339.9,90 378,110.6 516.7,41.4 418.8,-7.1 399.8,3.4 475.5,41.4 378,91.2 339.9,71 
					"/><polygon id="XMLID_639_" class="st2" points="216.9,12.5 317.4,-37.9 417.9,12.5 396.1,22.8 317.4,-18.4 238.6,22.8 		"/><polygon id="XMLID_638_" class="st4" points="256.8,31.5 256.8,91.2 238.6,81.9 238.6,22.8 317.4,-18.4 317.4,0 		"/><polygon id="XMLID_637_" class="st3" points="378,31.5 378,91.2 396.1,81.9 396.1,22.8 317.4,-18.4 317.4,0 		"/><polygon id="XMLID_636_" class="st2" points="256.8,31.5 274.6,22.2 317.4,43.3 360.1,22.2 378,31.5 317.4,60.4 		"/><polygon id="XMLID_635_" class="st3" points="317.4,0 317.4,5.1 317.4,43.3 298.2,33.8 298.2,10 		"/><polygon id="XMLID_634_" class="st4" points="317.4,0 317.4,5.1 317.4,43.3 336.5,33.8 336.5,10 		"/><path id="XMLID_633_" class="st3" d="M317.4 43.3"/></g><g id="XMLID_535_" class="st1"><path id="XMLID_542_" class="st5" d="M470.3-76.3c-1.9.8-3.1.4-4.6-.7-5.7-4-10.5-8.9-14.8-14.4.7-.6 2.3.2 2.3-1.5-.1-1.5-1.4-1.3-2.2-1.4-2.5-.5-5.1-.7-7.7-.9-1.3-.1-3.4-.7-3.5 1.2-.1 2.1 2.1 1 3.3 1.3 1.5.4 3.1-.8 4.4 1 1.8 2.4 3.5 5.1 5.9 6.8 5.7 4.2 6.3 8.6 2.1 14.1-.6.7-.8 1.6.2 2.2 1 .5 1.5-.4 2-1.1.8-1.4 1.6-2.8 2.6-4.6.3 1 .5 1.5.6 2 .8 3.1 1.6 6.2 3.2 9 .6 1 1.4 2.3 2.7 1.4 1.4-1-.1-1.7-.6-2.6-1.8-3.5-2.9-7.3-3.5-11.4 3.7 2.1 3.7 2.1 4 3.9.4 3.1 2.8 4.8 5.9 4.2 3.4-.7 5.4-3.2 4.7-5.7-.8-2.6-3.9-4.1-7-2.8zm1.4 6.4c-1.3.1-2.4-.3-2.4-1.9 0-1.8 1.4-2.3 2.8-2.5 1.4-.3 2.4.5 3 1.9-.6 1.5-1.8 2.4-3.4 2.5z"/><path id="XMLID_541_" class="st5" d="M438.2-100.7c2.6.7 5.2.3 7.5-.9 1.9-.9 3.5-.8 5.3.1 3.1 1.5 6.5 1.9 9.5.1 1.8-1 3.1-.8 4.7.1 2.6 1.3 5.3 1.5 8.1.5.9-.3 1.6-.8 1.3-1.8-.3-1.1-1.1-1.1-2-.6-1.3.6-2.9.8-4.1.3-3.7-1.7-7.3-3-10.9 0-.2.2-.6 0-1 0-3.2.5-5.8-2.5-8.4-2.3-2.8.2-5.5 2.7-8.8 2.3-.3 0-.6 0-1-.1-.9-.2-2-.6-2.2.8-.2 1.6 1.2 1.3 2 1.5z"/><path id="XMLID_540_" class="st5" d="M450.9-81.2c-5.1 1.4-8.4-.6-9.8-5.8-.2-.7-.6-1.1-1.4-1-2.9.3-4.8-1.5-6.9-3.1-.8-.6-1.7-1.4-2.5-.4-1.1 1.3.2 1.9 1.1 2.5 4.4 2.7 8.3 5.8 11.9 9.6 1.2 1.2 2.8 1.9 4.9 1.9 1.2 0 2.5-.6 3.7-1.3.8-.4 1.1-1 .6-1.9-.3-.7-.9-.7-1.6-.5z"/><path id="XMLID_539_" class="st5" d="M460.3-86.6c-.5-.3-1-.2-1.4.4-.5.8-.3 1.5.4 2 2.3 1.4 4.6 2.7 7 4 .8.4 1.7.4 2.1-.9-.2-.3-.3-.8-.6-.9-2.5-1.6-5-3.1-7.5-4.6z"/><path id="XMLID_538_" class="st5" d="M474.2-93.3c.2-.9-.5-1.5-1.2-1.5-.8-.1-1.3.7-1.4 1.4-.1.8.3 1.4.5 1.4 1.7.2 2-.6 2.1-1.3z"/><path id="XMLID_537_" class="st5" d="M473.2-88.4c-.1.9.4 1.6 1.2 1.6.9.1 1.3-.6 1.4-1.4 0-.9-.4-1.6-1.2-1.7-.9-.1-1.3.6-1.4 1.5z"/><path id="XMLID_536_" class="st5" d="M470.7-85.3c-.9-.1-1.3.6-1.4 1.4-.1.9.4 1.6 1.2 1.6.9.1 1.3-.6 1.4-1.4 0-.8-.4-1.5-1.2-1.6z"/></g><g id="XMLID_530_" class="st1"><path id="XMLID_532_" class="st5" d="M382.3-86.7c.6.4 2.1.7 1.3 2.1-2.5 4.7.2 8.7 2 12.7.4.9.9 2.3 2.3 1.4 1.1-.7.3-1.7-.1-2.5-1.2-2.5-2.5-5-2.6-7.8-.1-.9-.2-2.3.9-2.4.7-.1 1.6 1 2.1 1.8.3.4.1 1.2.1 1.9-.4 3.3 1.5 6 4.7 6.5 2.9.4 5.3-1.2 5.8-3.8.5-2.9-1.7-6.4-4.7-6-3.9.5-5.4-2.2-7.8-3.9-1.8-1.2-3.3-2.8-5-4.1-2.6-1.9-3.5-4.5-3.8-7.5-.2-2-.5-4.1-.6-6.1-.1-1-.3-2.2-1.4-2.1-1.5.1-1.3 1.5-1.1 2.5.3 1.4.7 2.7.3 4.8l-2.1-3.5c-.6-1-.9-2.7-2.4-1.9-1.4.7-.4 2.1.2 3 3 5.6 6.4 11 11.9 14.9zm11 5.8c1.4.5 2.8 1.2 2.8 3.2 0 1.7-1.1 2.2-2.5 2-1.8-.2-3.1-1.3-3.1-3 0-1.3 1.1-2.2 2.8-2.2z"/><path id="XMLID_531_" class="st5" d="M405.9-65.3c-3.9-1.3-7.8-1.9-11.7-.4-4.9 1.9-9.8 1.9-14.8.1-3.9-1.5-7.8-.7-11.7.3-.9.2-1.6.7-1.4 1.8.3 1.3 1.4.9 2.1.7 2.1-.6 4.1-1.2 6.3-1.2 1.8 0 3.3.6 5 1.1 4.3 1.2 8.7 1.5 13 .2 4.2-1.3 8.3-1.9 12.5-.1.8.4 1.9.4 2.1-.7.3-1.1-.4-1.5-1.4-1.8z"/></g><g id="XMLID_523_" class="st1"><path id="XMLID_529_" class="st5" d="M341.8-79.3c-4.9-1.9-10-2.7-15-.5-6.7 2.9-13.3 2.9-20 0-1.9-.8-3.9-1.3-5.9-1.1-3.1-.2-5.8.7-8.6 1.6-.9.3-2.8.3-2.1 2.1.6 1.5 1.7.6 2.7.2 4.9-1.8 9.8-2.2 14.7 0 6.1 2.7 12.4 2.5 18.4-.1 4.9-2.1 9.7-2 14.6 0 .9.4 2.1 1.4 2.7-.2.9-1.4-.6-1.6-1.5-2z"/><path id="XMLID_526_" class="st5" d="M307.2-82.9c4.1-.5 7.9-1.9 11.2-4.3 1.4-1 2.2-1.5 3.3.4 1.2 1.9 3.3 1.9 5.1.8 2.4-1.5 3.9-3.6 3.9-7.7 0-2-1.5-4.3-4-4.6-3.1-.4-4.9 1.2-5.7 4-.4 1.1-.6 2.2-1.6 3.1-3.6 3.2-7.7 5.3-12.6 5.8-1.1.1-2.8-.4-2.6 1.4.3 1.7 1.9 1.3 3 1.1zm15.8-8c.1-2.1.2-4.5 2.9-4.9 2-.3 2.4 1.4 2.4 3.3-.2 1.9-.9 4-3.4 4.4-2 .4-1.9-1.4-1.9-2.8z"/><path id="XMLID_525_" class="st5" d="M337-69.1c-4.1-2.2-8.2-3-12.5-.6-5 2.7-9.9 2.9-15 .1-4-2.2-8.1-1.4-12.1.4-1 .4-2.4.8-1.8 2.1.6 1.3 1.9.6 2.8.2 4-2 7.8-1.8 11.6.4 2.1 1.2 4.4 1.5 6.3 1.5 2.8 0 5-.2 7-1.4 4.1-2.3 8.2-2.9 12.5-.3.8.5 2 .8 2.5-.4.6-1.3-.6-1.6-1.3-2z"/><path id="XMLID_524_" class="st5" d="M314.3-93.2c.8.7 1.3 2.8 2.9 1.4 1.5-1.3-.4-2-1-2.8-1.9-2.8-1.8-3.8 1.2-5.5 1.5-.9 3.1-1.4 4.8-1.5.9 0 1.9-.3 1.8-1.3-.1-1.2-1.2-1.4-2.2-1.2-2.7.5-5.4 1.3-7.6 3.2-1.2 1-2 2.2-1.9 3.8.2 1.6.9 3 2 3.9z"/></g><path id="XMLID_520_" class="st6" d="M255.8-85.3c-.7-.2-1.6-.4-2 .5-.3.9-.3 1.7.9 2 2 .5 2.5 2.2 2.8 3.9.4 1.7 1.9 2 2.4.9 1.2-2.6 1.7-.4 2 .2 2.1 3.7.1 8.8-4.1 10.7-7.3 3.2-18.4-1.1-21.6-8.5-.8-2-1.2-4-.8-6.2.8-4.3 3.1-7.9 5.1-11.7 1-1.9 1.8-3.6 4.6-3.6 2.6 0 4.3-2.9 3.6-5.4-.8-2.8-4-4.3-7-3.3-2.9 1-4.3 3.7-2.7 6 1.2 1.7.6 2.8-.1 4.2-2.7 5-5.9 9.8-6 17-.1 1.4.7 3.9 2.2 6 4.8 6.8 11.5 9.6 19.7 8.7 6.5-.7 10-4.3 10.5-10.1.3-4.6-4.3-10.1-9.5-11.3zm-11.4-18.3c.9 0 2.2.7 2 2.1-.1 1.3-1.4 2.3-2.8 2.1-1.2-.1-2.7-.9-2.7-2.3.1-1.4 1.4-1.9 3.5-1.9z"/><path id="XMLID_517_" class="st6" d="M195.7-84.6c-.7.4-.9 1.1-.9 1.9.1 1.3-.2 2.5-.6 3.8-.3 1-2.2 2.2-.2 3.1 1.7.7 1.8-1.3 2.5-2.3.2-.2.4-.5.6-.8.9 3.3.7 6.7-.5 9.1-2.4 4.9-7.7 5.9-11.7 2.1-1.6-1.5-3-3.3-3.5-5.3-1.7-6.8-.3-13.7-.9-20.6-.1-1 .7-.8 1.3-1 2.5-.8 4.3-2.3 3.8-5.2-.5-2.8-2.1-4.7-5-5.1-2.8-.3-5.5.4-6.6 3.3-1.1 2.8.4 4.8 2.7 6.2 1 .6 1.3 1.2 1.3 2.3.1 3.8.6 7.5.4 11.3-.2 4.4-.4 8.8-2.8 12.7-1.7 2.8-4.3 3.7-7.4 3.7-3.1 0-4.9-1.9-6.1-4.5-1.1-2.3-1.3-4.8-.8-7.6.6.5.9.8 1.2 1.1.7.7 1.6 1.4 2.5.5 1.1-1.1-.1-1.7-.8-2.3-1.1-.9-1.3-2.1-1.3-3.5 0-.9.4-2.1-1-2.4-1.5-.3-1.7 1.1-2.1 2-1.1 2.6-1.6 5.4-1.3 8.2.7 8.4 6.8 12.9 14.1 10.4 3.4-1.2 5.3-3.9 6.8-7.1 1.2 1.7 2.1 3.3 3.3 4.4 2.6 2.5 5.7 4.2 9.6 3.1 7.7-2.2 11-14.8 5.3-20.6-.5-.5-1-1.4-1.9-.9zm-19.5-15.5c-.1-1.8 1.8-2.2 3.4-2.2 2.1 0 3.5 1 3.6 3.2.1 2-1.5 2-2.7 2.2-2.5 0-4.2-1.1-4.3-3.2z"/></g></svg>