<svg xmlns="http://www.w3.org/2000/svg" viewBox="0 0 101.66 72.14"><defs><style>.cls-1{fill:#055d62}</style></defs><title>fish-stock-5</title><g id="Layer_2" data-name="Layer 2"><g id="_Группа_" data-name="&lt;Группа&gt;"><path id="_Составной_контур_" data-name="&lt;Составной контур&gt;" class="cls-1" d="M91.6 34.26l3.22-.88-.28-1a3.88 3.88 0 0 0-2.28.1zm.67-1.8"/><path id="_Составной_контур_2" data-name="&lt;Составной контур&gt;" class="cls-1" d="M95.28 35a12.78 12.78 0 0 0 6.42 3.6l-1.26-2.3a1.5 1.5 0 0 0-1-.75.57.57 0 0 1 0-1.12 1.5 1.5 0 0 0 1-.74l1.26-2.3a12.78 12.78 0 0 0-6.42 3.58zm0 0"/><path id="_Составной_контур_3" data-name="&lt;Составной контур&gt;" class="cls-1" d="M77 35l.25-.17 1.16.67a.67.67 0 0 0-.24-.92l-.27-.15a18.38 18.38 0 0 1 3.27-1.54q.76-.28 1.55-.48a18.38 18.38 0 0 1 13.95 2 .73.73 0 0 1 0 1.26 18.4 18.4 0 0 1-13.94 2q-.78-.2-1.55-.47-.52-.18-1-.4A18.35 18.35 0 0 1 77 35zm0 0"/><path id="_Составной_контур_4" data-name="&lt;Составной контур&gt;" class="cls-1" d="M77 35l.25-.17 1.16.67a.67.67 0 0 0-.24-.92l-.27-.15a18.38 18.38 0 0 1 3.27-1.54 4.7 4.7 0 0 1 0 4.22l-1-.4A18.35 18.35 0 0 1 77 35zm0 0"/><path id="_Составной_контур_5" data-name="&lt;Составной контур&gt;" class="cls-1" d="M80.12 36.67a18.38 18.38 0 0 1 14.38 0 18.4 18.4 0 0 1-14.38 0zm0 0"/><path id="_Составной_контур_6" data-name="&lt;Составной контур&gt;" class="cls-1" d="M78.93 35A1.1 1.1 0 1 1 80 36a1.1 1.1 0 0 1-1.07-1zm0 0"/><path id="_Составной_контур_7" data-name="&lt;Составной контур&gt;" class="cls-1" d="M79.35 35a.67.67 0 1 1 .67.67.67.67 0 0 1-.67-.67zm0 0"/><path id="_Составной_контур_8" data-name="&lt;Составной контур&gt;" class="cls-1" d="M84.94 32.72a2.48 2.48 0 0 0 2.5.32 27.8 27.8 0 0 1 5.14-1.58A2.84 2.84 0 0 0 94.5 30l2.4-4.4a24.37 24.37 0 0 0-12.25 6.85zm-.3-.23"/><path id="_Составной_контур_9" data-name="&lt;Составной контур&gt;" class="cls-1" d="M88.33 36.37a1.3 1.3 0 0 1 1.32-.17 14.57 14.57 0 0 0 2.7.83 1.5 1.5 0 0 1 1 .74l1.25 2.3a12.78 12.78 0 0 1-6.42-3.6zm-.15.12"/></g><g id="_Группа_2" data-name="&lt;Группа&gt;"><path id="_Составной_контур_10" data-name="&lt;Составной контур&gt;" class="cls-1" d="M73 58.47l3.23-.88-.28-1a3.88 3.88 0 0 0-2.28.1zm.68-1.8"/><path id="_Составной_контур_11" data-name="&lt;Составной контур&gt;" class="cls-1" d="M76.7 59.16a12.78 12.78 0 0 0 6.42 3.6l-1.26-2.3a1.5 1.5 0 0 0-1-.75.57.57 0 0 1 0-1.1 1.5 1.5 0 0 0 1-.75l1.26-2.3a12.78 12.78 0 0 0-6.42 3.6zm0 0"/><path id="_Составной_контур_12" data-name="&lt;Составной контур&gt;" class="cls-1" d="M58.4 59.16l.25-.17 1.16.66a.67.67 0 0 0-.24-.92l-.27-.15a18.38 18.38 0 0 1 3.27-1.6q.76-.27 1.55-.47a18.38 18.38 0 0 1 13.95 2 .73.73 0 0 1 0 1.26 18.4 18.4 0 0 1-13.94 2q-.78-.2-1.55-.48l-1-.4a18.35 18.35 0 0 1-3.14-1.7zm0 0"/><path id="_Составной_контур_13" data-name="&lt;Составной контур&gt;" class="cls-1" d="M58.4 59.16l.25-.17 1.16.66a.67.67 0 0 0-.24-.92l-.27-.15a18.38 18.38 0 0 1 3.27-1.6 4.7 4.7 0 0 1 0 4.23l-1-.4a18.35 18.35 0 0 1-3.14-1.7zm0 0"/><path id="_Составной_контур_14" data-name="&lt;Составной контур&gt;" class="cls-1" d="M61.54 60.88a18.38 18.38 0 0 1 14.38 0 18.4 18.4 0 0 1-14.38 0zm0 0"/><path id="_Составной_контур_15" data-name="&lt;Составной контур&gt;" class="cls-1" d="M60.35 59.16a1.1 1.1 0 1 1 1.1 1.1 1.1 1.1 0 0 1-1.1-1.1zm0 0"/><path id="_Составной_контур_16" data-name="&lt;Составной контур&gt;" class="cls-1" d="M60.78 59.16a.67.67 0 1 1 .67.67.67.67 0 0 1-.67-.67zm0 0"/><path id="_Составной_контур_17" data-name="&lt;Составной контур&gt;" class="cls-1" d="M66.37 56.93a2.48 2.48 0 0 0 2.5.32A27.8 27.8 0 0 1 74 55.67a2.84 2.84 0 0 0 1.9-1.42l2.4-4.4a24.37 24.37 0 0 0-12.23 6.85zm-.3-.23"/><path id="_Составной_контур_18" data-name="&lt;Составной контур&gt;" class="cls-1" d="M69.76 60.58a1.3 1.3 0 0 1 1.32-.17 14.57 14.57 0 0 0 2.7.84 1.5 1.5 0 0 1 1 .74l1.22 2.3a12.78 12.78 0 0 1-6.4-3.58zm-.15.12"/></g><g id="_Группа_3" data-name="&lt;Группа&gt;"><path id="_Составной_контур_19" data-name="&lt;Составной контур&gt;" class="cls-1" d="M61.56 12L66 10.75l-.4-1.43a5.4 5.4 0 0 0-3.15.15zm.94-2.5"/><path id="_Составной_контур_20" data-name="&lt;Составной контур&gt;" class="cls-1" d="M66.68 12.93a17.76 17.76 0 0 0 8.92 5l-1.75-3.2a2.07 2.07 0 0 0-1.4-1 .8.8 0 0 1 0-1.56 2.07 2.07 0 0 0 1.4-1l1.75-3.2a17.76 17.76 0 0 0-8.92 5zm0 0"/><path id="_Составной_контур_21" data-name="&lt;Составной контур&gt;" class="cls-1" d="M41.25 12.93l.35-.23 1.6.93a.94.94 0 0 0-.33-1.28l-.37-.2A25.55 25.55 0 0 1 47 10q1.06-.38 2.15-.66a25.55 25.55 0 0 1 19.38 2.73 1 1 0 0 1 0 1.76 25.53 25.53 0 0 1-3 1.5 25.54 25.54 0 0 1-10 2 25.55 25.55 0 0 1-6.4-.8q-1.1-.3-2.16-.67-.73-.26-1.44-.56a25.5 25.5 0 0 1-4.37-2.38zm0 0"/><path id="_Составной_контур_22" data-name="&lt;Составной контур&gt;" class="cls-1" d="M41.25 12.93l.35-.23 1.6.93a.94.94 0 0 0-.33-1.28l-.37-.2A25.55 25.55 0 0 1 47 10a6.52 6.52 0 0 1 0 5.88q-.73-.26-1.44-.56a25.5 25.5 0 0 1-4.37-2.38zm0 0"/><path id="_Составной_контур_23" data-name="&lt;Составной контур&gt;" class="cls-1" d="M45.6 15.32a25.54 25.54 0 0 1 20 0 25.54 25.54 0 0 1-10 2 25.55 25.55 0 0 1-6.4-.8 25.4 25.4 0 0 1-3.58-1.23zm0 0"/><path id="_Составной_контур_24" data-name="&lt;Составной контур&gt;" class="cls-1" d="M44 12.93a1.5 1.5 0 1 1 1.5 1.5 1.5 1.5 0 0 1-1.5-1.5zm0 0"/><path id="_Составной_контур_25" data-name="&lt;Составной контур&gt;" class="cls-1" d="M44.55 12.93a.93.93 0 1 1 .93.93.93.93 0 0 1-.93-.93zm0 0"/><path id="_Составной_контур_26" data-name="&lt;Составной контур&gt;" class="cls-1" d="M52.32 9.83a3.45 3.45 0 0 0 3.5.45 38.64 38.64 0 0 1 7.12-2.2 4 4 0 0 0 2.65-2L68.92 0a33.87 33.87 0 0 0-17 9.5zm-.4-.32"/><path id="_Составной_контур_27" data-name="&lt;Составной контур&gt;" class="cls-1" d="M57 14.9a1.8 1.8 0 0 1 1.83-.23 20.25 20.25 0 0 0 3.74 1.15 2.07 2.07 0 0 1 1.4 1l1.74 3.2a17.76 17.76 0 0 1-8.9-5zm-.22.18"/></g><g id="_Группа_4" data-name="&lt;Группа&gt;"><path id="_Составной_контур_28" data-name="&lt;Составной контур&gt;" class="cls-1" d="M46.77 38.06l3.23-.88-.28-1a3.88 3.88 0 0 0-2.28.1zm.68-1.8"/><path id="_Составной_контур_29" data-name="&lt;Составной контур&gt;" class="cls-1" d="M50.46 38.75a12.78 12.78 0 0 0 6.42 3.6l-1.26-2.3a1.5 1.5 0 0 0-1-.75.57.57 0 0 1 0-1.12 1.5 1.5 0 0 0 1-.74l1.26-2.3a12.78 12.78 0 0 0-6.42 3.6zm0 0"/><path id="_Составной_контур_30" data-name="&lt;Составной контур&gt;" class="cls-1" d="M32.16 38.75l.25-.17 1.17.67a.67.67 0 0 0-.25-.92l-.27-.15a18.38 18.38 0 0 1 3.28-1.54q.76-.27 1.55-.47a18.38 18.38 0 0 1 13.95 2 .73.73 0 0 1 0 1.26 18.4 18.4 0 0 1-13.94 2q-.8-.2-1.56-.47l-1-.4a18.35 18.35 0 0 1-3.14-1.7zm0 0"/><path id="_Составной_контур_31" data-name="&lt;Составной контур&gt;" class="cls-1" d="M32.16 38.75l.25-.17 1.17.67a.67.67 0 0 0-.25-.92l-.27-.15a18.38 18.38 0 0 1 3.28-1.54 4.7 4.7 0 0 1 0 4.23l-1-.4a18.35 18.35 0 0 1-3.14-1.7zm0 0"/><path id="_Составной_контур_32" data-name="&lt;Составной контур&gt;" class="cls-1" d="M35.3 40.47a18.38 18.38 0 0 1 14.38 0 18.4 18.4 0 0 1-14.38 0zm0 0"/><path id="_Составной_контур_33" data-name="&lt;Составной контур&gt;" class="cls-1" d="M34.1 38.75a1.1 1.1 0 1 1 1.1 1.1 1.1 1.1 0 0 1-1.1-1.1zm0 0"/><path id="_Составной_контур_34" data-name="&lt;Составной контур&gt;" class="cls-1" d="M34.53 38.75a.67.67 0 1 1 .67.67.67.67 0 0 1-.67-.67zm0 0"/><path id="_Составной_контур_35" data-name="&lt;Составной контур&gt;" class="cls-1" d="M40.12 36.52a2.48 2.48 0 0 0 2.5.32 27.8 27.8 0 0 1 5.14-1.58 2.84 2.84 0 0 0 1.9-1.42l2.4-4.4a24.37 24.37 0 0 0-12.24 6.85zm-.3-.23"/><path id="_Составной_контур_36" data-name="&lt;Составной контур&gt;" class="cls-1" d="M43.5 40.18a1.3 1.3 0 0 1 1.33-.18 14.57 14.57 0 0 0 2.7.83 1.5 1.5 0 0 1 1 .74l1.25 2.3a12.78 12.78 0 0 1-6.42-3.6zm-.14.12"/></g><g id="_Группа_5" data-name="&lt;Группа&gt;"><path id="_Составной_контур_37" data-name="&lt;Составной контур&gt;" class="cls-1" d="M16.07 18.65l3.23-.88-.28-1a3.88 3.88 0 0 0-2.28.1zm.68-1.8"/><path id="_Составной_контур_38" data-name="&lt;Составной контур&gt;" class="cls-1" d="M19.76 19.34A12.78 12.78 0 0 0 26.14 23l-1.26-2.3a1.5 1.5 0 0 0-1-.74.57.57 0 0 1 0-1.12 1.5 1.5 0 0 0 1-.74l1.26-2.3a12.78 12.78 0 0 0-6.42 3.6zm0 0"/><path id="_Составной_контур_39" data-name="&lt;Составной контур&gt;" class="cls-1" d="M1.46 19.34l.25-.17 1.17.67a.67.67 0 0 0-.25-.92l-.27-.15a18.38 18.38 0 0 1 3.28-1.54q.76-.27 1.55-.47a18.38 18.38 0 0 1 13.95 2 .73.73 0 0 1 0 1.26 18.4 18.4 0 0 1-13.94 2q-.8-.2-1.56-.47l-1-.4a18.35 18.35 0 0 1-3.14-1.7zm0 0"/><path id="_Составной_контур_40" data-name="&lt;Составной контур&gt;" class="cls-1" d="M1.46 19.34l.25-.17 1.17.67a.67.67 0 0 0-.25-.92l-.27-.15a18.38 18.38 0 0 1 3.28-1.54 4.7 4.7 0 0 1 0 4.23l-1-.4a18.35 18.35 0 0 1-3.14-1.7zm0 0"/><path id="_Составной_контур_41" data-name="&lt;Составной контур&gt;" class="cls-1" d="M4.6 21.05a18.38 18.38 0 0 1 14.38 0 18.4 18.4 0 0 1-11.8.88 18.27 18.27 0 0 1-2.58-.88zm0 0"/><path id="_Составной_контур_42" data-name="&lt;Составной контур&gt;" class="cls-1" d="M3.4 19.34a1.1 1.1 0 1 1 1.1 1.1 1.1 1.1 0 0 1-1.1-1.1zm0 0"/><path id="_Составной_контур_43" data-name="&lt;Составной контур&gt;" class="cls-1" d="M3.84 19.34a.67.67 0 1 1 .66.66.67.67 0 0 1-.67-.67zm0 0"/><path id="_Составной_контур_44" data-name="&lt;Составной контур&gt;" class="cls-1" d="M9.43 17.1a2.48 2.48 0 0 0 2.5.32 27.8 27.8 0 0 1 5.14-1.58A2.84 2.84 0 0 0 19 14.42L21.38 10a24.37 24.37 0 0 0-12.25 6.87zm-.3-.23"/><path id="_Составной_контур_45" data-name="&lt;Составной контур&gt;" class="cls-1" d="M12.82 20.76a1.3 1.3 0 0 1 1.32-.17 14.57 14.57 0 0 0 2.7.82 1.5 1.5 0 0 1 1 .74l1.25 2.3a12.78 12.78 0 0 1-6.43-3.6zm-.15.12"/></g><g id="_Группа_6" data-name="&lt;Группа&gt;"><path id="_Составной_контур_46" data-name="&lt;Составной контур&gt;" class="cls-1" d="M37.12 66.88l2.92-.8-.25-.93a3.5 3.5 0 0 0-2.07.1zm.6-1.63"/><path id="_Составной_контур_47" data-name="&lt;Составной контур&gt;" class="cls-1" d="M40.46 67.5a11.55 11.55 0 0 0 5.8 3.25l-1.13-2.08a1.35 1.35 0 0 0-.9-.67.52.52 0 0 1 0-1 1.35 1.35 0 0 0 .9-.67l1.13-2.08a11.55 11.55 0 0 0-5.8 3.24zm0 0"/><path id="_Составной_контур_48" data-name="&lt;Составной контур&gt;" class="cls-1" d="M23.92 67.5l.23-.14 1 .6a.6.6 0 0 0-.22-.82l-.2-.14a16.6 16.6 0 0 1 3-1.4q.7-.25 1.4-.43a16.6 16.6 0 0 1 12.6 1.77.66.66 0 0 1 0 1.14 16.62 16.62 0 0 1-12.6 1.77q-.7-.18-1.4-.43-.47-.17-.93-.36a16.58 16.58 0 0 1-2.84-1.55zm0 0"/><path id="_Составной_контур_49" data-name="&lt;Составной контур&gt;" class="cls-1" d="M23.92 67.5l.23-.14 1 .6a.6.6 0 0 0-.22-.82l-.2-.14a16.6 16.6 0 0 1 3-1.4 4.24 4.24 0 0 1 0 3.83q-.47-.17-.93-.36a16.58 16.58 0 0 1-2.84-1.55zm0 0"/><path id="_Составной_контур_50" data-name="&lt;Составной контур&gt;" class="cls-1" d="M26.76 69.06a16.6 16.6 0 0 1 13 0 16.62 16.62 0 0 1-13 0zm0 0"/><path id="_Составной_контур_51" data-name="&lt;Составной контур&gt;" class="cls-1" d="M25.68 67.5a1 1 0 1 1 1 1 1 1 0 0 1-1-1zm0 0"/><path id="_Составной_контур_52" data-name="&lt;Составной контур&gt;" class="cls-1" d="M26.07 67.5a.6.6 0 1 1 .6.6.6.6 0 0 1-.6-.6zm0 0"/><path id="_Составной_контур_53" data-name="&lt;Составной контур&gt;" class="cls-1" d="M31.12 65.5a2.24 2.24 0 0 0 2.27.28 25.13 25.13 0 0 1 4.6-1.43 2.57 2.57 0 0 0 1.73-1.28l2.16-4a22 22 0 0 0-11.08 6.18zm-.27-.22"/><path id="_Составной_контур_54" data-name="&lt;Составной контур&gt;" class="cls-1" d="M34.18 68.8a1.18 1.18 0 0 1 1.2-.16 13.17 13.17 0 0 0 2.42.75 1.35 1.35 0 0 1 .9.66l1.15 2.08A11.55 11.55 0 0 1 34 68.9zm-.18.1"/></g><g id="_Группа_7" data-name="&lt;Группа&gt;"><path id="_Составной_контур_55" data-name="&lt;Составной контур&gt;" class="cls-1" d="M10.07 43.5l2.22-.6-.2-.72a2.67 2.67 0 0 0-1.57.07zm.47-1.24"/><path id="_Составной_контур_56" data-name="&lt;Составной контур&gt;" class="cls-1" d="M12.6 44a8.8 8.8 0 0 0 4.4 2.47l-.87-1.6a1 1 0 0 0-.7-.5.4.4 0 0 1 0-.77 1 1 0 0 0 .7-.5l.87-1.6a8.8 8.8 0 0 0-4.4 2.5zm0 0"/><path id="_Составной_контур_57" data-name="&lt;Составной контур&gt;" class="cls-1" d="M0 44l.17-.12.8.46a.46.46 0 0 0-.17-.63l-.18-.1a12.67 12.67 0 0 1 2.26-1.06q.53-.2 1.07-.33a12.67 12.67 0 0 1 9.6 1.36.5.5 0 0 1 0 .87 12.68 12.68 0 0 1-9.6 1.35q-.54-.14-1.07-.33l-.7-.28A12.64 12.64 0 0 1 0 44zm0 0"/><path id="_Составной_контур_58" data-name="&lt;Составной контур&gt;" class="cls-1" d="M0 44l.17-.12.8.46a.46.46 0 0 0-.17-.63l-.18-.1a12.67 12.67 0 0 1 2.26-1.06A3.2 3.2 0 0 1 3.22 44a3.2 3.2 0 0 1-.35 1.46l-.7-.28A12.64 12.64 0 0 1 0 44zm0 0"/><path id="_Составной_контур_59" data-name="&lt;Составной контур&gt;" class="cls-1" d="M2.16 45.16a12.67 12.67 0 0 1 9.9 0 12.67 12.67 0 0 1-9.9 0zm0 0"/><path id="_Составной_контур_60" data-name="&lt;Составной контур&gt;" class="cls-1" d="M1.35 44a.75.75 0 1 1 .75.75.75.75 0 0 1-.75-.75zm0 0"/><path id="_Составной_контур_61" data-name="&lt;Составной контур&gt;" class="cls-1" d="M1.64 44a.46.46 0 1 1 .46.46.46.46 0 0 1-.46-.46zm0 0"/><path id="_Составной_контур_62" data-name="&lt;Составной контур&gt;" class="cls-1" d="M5.5 42.44a1.7 1.7 0 0 0 1.72.22 19.16 19.16 0 0 1 3.54-1.1 2 2 0 0 0 1.32-1l1.65-3A16.8 16.8 0 0 0 5.3 42.3zm-.2-.16"/><path id="_Составной_контур_63" data-name="&lt;Составной контур&gt;" class="cls-1" d="M7.83 45a.9.9 0 0 1 .9-.12 10 10 0 0 0 1.87.57 1 1 0 0 1 .7.5l.86 1.6A8.8 8.8 0 0 1 7.72 45zm-.1 0"/></g></g></svg>