<svg version="1.1" id="Layer_1" xmlns="http://www.w3.org/2000/svg" xmlns:xlink="http://www.w3.org/1999/xlink" x="0px" y="0px" viewBox="0 0 632 120" style="enable-background:new 0 0 632 120" xml:space="preserve"><style type="text/css">.st1{fill:#80fff3}.st2{fill:#a1fff9}.st3{fill:none}</style><rect id="_Rectangle_" y="0" width="632" height="120" style="fill:#216e7e"/><g id="_Group_"><g id="_Group_3"><path id="_Compound_Path_" class="st1" d="M520.4 34.7l111.6-.1v50l-111.5.1-.1-50zM566.5-.2h53.3v16.3h-53.3V-.2zm.1 103.5h53.3v16.5h-53.3v-16.5z"/></g><g id="_Group_4"><path id="_Compound_Path_2" class="st2" d="M520.4 34.7l111.6-.1v50l-111.5.1-.1-50z"/></g></g><g id="_Group_5"><g id="_Group_6"><path id="_Compound_Path_3" class="st2" d="M0 34.7l110.6-.1v48.7L0 83.4V34.7z"/></g></g><g id="_Group_7"><g id="_Group_8"><g id="_Group_9"><path id="_Compound_Path_4" class="st1" d="M202.4 82.9h-48.9V34.3h48.9V.1h50.4v34.2h48.9v48.6h-48.9v37.2h-50.4V82.9z"/></g></g><g id="_Group_10"><g id="_Group_11"><path id="_Compound_Path_5" class="st2" d="M153.6 34.5l148-.1v48.7l-148 .1V34.5z"/></g></g></g><g id="_Group_12"><polygon id="_Path_" class="st3" points="415.6,25.1 440.8,-0.1 390.5,-0.1 	"/><polygon id="_Path_2" class="st3" points="390.1,119.9 439.4,119.9 414.7,95.3 	"/><polygon id="_Path_3" class="st1" points="484.6,24.8 484.6,24.8 459.7,-0.1 459.7,-0.1 	"/><polygon id="_Path_4" class="st1" points="345.8,95.4 441.1,-0.1 440.8,-0.1 415.6,25.1 390.5,-0.1 370.4,0 344.8,25.5 380.1,60.7 
		345.5,95.3 370.2,120 370.4,120 	"/><polygon id="_Path_5" class="st1" points="439.4,119.9 460,119.9 485.3,94.6 450.3,59.7 414.7,95.3 	"/><rect id="_Path_6" x="443" y="42.1" transform="matrix(0.7065 -0.7077 0.7077 0.7065 107.3118 343.2171)" class="st2" width="48.9" height="0.3"/><polygon id="_Path_7" class="st2" points="414.5,95.1 389.6,119.9 390.1,119.9 414.7,95.3 	"/><polygon id="_Path_8" class="st2" points="441.1,-0.1 345.8,95.4 370.4,120 389.6,119.9 414.5,95.1 414.7,95.3 450.3,59.7 
		450.1,59.4 484.6,24.8 459.7,-0.1 	"/></g></svg>