<svg id="Слой_1" data-name="Слой 1" xmlns="http://www.w3.org/2000/svg" viewBox="0 0 776.4 461.7"><defs><style>.cls-3{fill:#a35e26}.cls-4{fill:#864f22}</style></defs><title>bg-1</title><g id="_Группа_" data-name="&lt;Группа&gt;"><path id="_Контур_" data-name="&lt;Контур&gt;" d="M755.5-11.8H18.6C-4-11.8-22.5 7.8-22.5 31.8v402.7c0 24 18.5 43.6 41.1 43.6h736.9c22.6 0 41.1-19.6 41.1-43.6V31.8c0-24-18.5-43.6-41.1-43.6z" style="fill:#523202"/><path id="_Контур_2" data-name="&lt;Контур&gt;" d="M796.6 21.5v402.7a44.29 44.29 0 0 1-20.2 37.5 32.09 32.09 0 0 1-4.5 2.4 38 38 0 0 1-16.5 3.7H17.3a6.15 6.15 0 0 1-1.3-.1 2.77 2.77 0 0 1-.9-.1 2 2 0 0 1-.8-.1c-.5-.1-.9-.1-1.4-.2s-1.2-.2-1.7-.3a5.16 5.16 0 0 0-1.1-.2c-.3-.1-.6-.1-1-.2a15.46 15.46 0 0 1-2.3-.7c-.5-.2-1.1-.4-1.6-.6s-1-.4-1.6-.6c-.2-.1-.5-.2-.7-.3a12.44 12.44 0 0 1-2-1c-.3-.2-.6-.3-.9-.5a2.19 2.19 0 0 1-.5-.3 2.19 2.19 0 0 1-.5-.3c-.3-.2-.5-.3-.8-.5a16.29 16.29 0 0 1-1.7-1.1c-.5-.4-1.1-.8-1.6-1.2a38.76 38.76 0 0 1-3.1-2.6 4.62 4.62 0 0 1-.7-.7l-.4-.4a41.73 41.73 0 0 1-3.4-3.8c-.3-.3-.5-.7-.8-1l-1.5-2.1a5.67 5.67 0 0 1-.8-1.3c-.2-.4-.5-.8-.7-1.2a10.93 10.93 0 0 1-.8-1.5 3.55 3.55 0 0 1-.4-.9c-.2-.5-.5-1-.7-1.5-.1-.3-.3-.7-.4-1-.4-1-.8-2.1-1.2-3.1-.1-.3-.2-.7-.3-1.1s-.2-.7-.3-1.1c-.3-1.1-.6-2.1-.8-3.2-.1-.7-.3-1.3-.4-2v-.1c-.1-.5-.1-1-.2-1.5a20.39 20.39 0 0 1-.5-5.2V19a3.4 3.4 0 0 1 .1-1v-.2c0-.4.1-.7.1-1.1s.1-.7.1-1.1.1-1 .2-1.5a41.5 41.5 0 0 1 1.1-4.8l.3-.9c0-.1.1-.2.1-.3l.6-1.8c.2-.6.4-1.1.6-1.6.3-.7.6-1.5.9-2.2a43.24 43.24 0 0 1 18.7-20c.7-.4 1.5-.7 2.2-1.1 1-.4 1.9-.8 2.9-1.2a6.89 6.89 0 0 0 .8-.3c.5-.2 1-.3 1.6-.5a2.35 2.35 0 0 1 .8-.2 2.35 2.35 0 0 1 .8-.2c.2-.1.5-.1.7-.2l1.8-.3c.4-.1.9-.1 1.3-.2a.9.9 0 0 1 .5-.1c.6-.1 1.1-.1 1.7-.2.4 0 .7-.1 1.1-.1a3.4 3.4 0 0 0 1-.1h738a36.42 36.42 0 0 1 5.7.4 39 39 0 0 1 5.9 1.4c12.5 3.9 22.5 14 27 26.8.1.2.1.4.2.6.1.4.3.8.4 1.2.2.7.4 1.5.6 2.3.1.5.2.9.3 1.4s.2.9.3 1.4c0 .2.1.5.1.7a7.72 7.72 0 0 1 .2 1.5v.5a6.6 6.6 0 0 1 .1 1.4v.4c0 .4.1.7.1 1.1v.8a5.54 5.54 0 0 1 .2 1.8z" style="fill:#945c23"/><g id="_Группа_2" data-name="&lt;Группа&gt;"><path id="_Контур_3" data-name="&lt;Контур&gt;" class="cls-3" d="M796.6 235.7v108.9c-3.6-.3-7.2-.7-10.8-1-27.7-2.5-56.1-4.9-83.8-2.4-5.3.5-10.6 1.1-15.8 1.9-13.6 2-26.9 4.5-40.8 5.9-10.2 1.1-20.5 1.5-30.9 1.7-19.6.3-39.4-.3-59.1.3-4.6.1-9.2.4-13.8.7-17.7 1.1-35.1 3.1-52.4 5.4-40.9 5.5-81.2 12.7-123.4 14-84.3 2.5-160.1-18.6-238-36.5-14-3.2-28.1-6.3-42.4-9.1-30.9-6.2-62.4-11.1-95.1-13.1a118.22 118.22 0 0 1-13-1.6V297c2.6-.8 5.2-1.6 7.7-2.4 1.6-.5 3.3-1 4.9-1.6l73.5-23.1c35.2-11.1 81-8.6 119.5-15.3 11.7-2.1 22.8-4.9 34.7-6.7 16.4-2.4 33.7-2.6 50.8-2.7q37.5-.3 75-.7c19.2-.1 38.5-.3 57.7-.5l104.5-.9c12.5-.1 25.4-.2 37.1 2 11.3 2.1 20.7 6.1 31.8 8.5 35.2 7.7 74.8-2.3 111.6-8.2.5-.1.9-.1 1.3-.2 14.8-2.3 30-3.9 45.4-5.2h.1c13.4-1.1 26.9-2 40.3-2.8z"/><path id="_Контур_4" data-name="&lt;Контур&gt;" class="cls-3" d="M796.6 21.5v54c-2.3-.2-4.7-.4-7-.5-33.8-2-69.5 1.7-101.7-3-16.2-2.4-30.2-6.6-45.5-9.8-41.4-8.5-89.7-8.1-135.3-11.2-52.9-3.6-103.1-11.9-153.9-18.8C264.1 20 171.4 11.7 77.6 10.7c-33.1-.5-66.3.1-99.2 1.6.2-1 .5-2.1.7-3.1l.3-.9c0-.1.1-.2.1-.3l.6-1.8c.2-.5.4-1.1.6-1.6.1-.2.1-.4.2-.6.2-.5.5-1.1.7-1.6a43.17 43.17 0 0 1 8.3-12.2A39.39 39.39 0 0 1 .3-17.6a15.05 15.05 0 0 1 2.2-1.1c1-.4 1.9-.8 2.9-1.2.2 0 .3-.1.5-.1s.3-.1.4-.1c.5-.2 1-.3 1.6-.5a2.35 2.35 0 0 1 .8-.2 3.09 3.09 0 0 1 .8-.2 1.85 1.85 0 0 0 .7-.2l1.8-.3c.4-.1.9-.1 1.3-.2h.4c.6-.1 1.2-.1 1.7-.2a4.1 4.1 0 0 0 1.1-.1h473.9c5.9.7 11.8 1.4 17.7 2 34.1 4 68.2 7.9 102.5 11.6 9.8 1.1 19.6 2.1 29.5 3.1 14.7 1.5 29.3 3 44 4.3L696.7.2c32.4 2.9 64.9 5.4 97.8 7.2.1.3.2.6.3 1 .2.8.4 1.5.6 2.3.1.4.2.9.3 1.4s.2.9.3 1.4c0 .2.1.5.1.7a7.72 7.72 0 0 1 .2 1.5v.4a6.15 6.15 0 0 1 .1 1.3v.4c0 .4.1.7.1 1.1v.8a10.86 10.86 0 0 1 .1 1.8z"/><path id="_Контур_5" data-name="&lt;Контур&gt;" class="cls-4" d="M796.6 68.5v11c-38.7.6-78.2 4.6-113.4-1.5-15.6-2.7-28.9-7.3-44.1-10.4-23.9-4.9-51.1-5.9-77.4-7.3-120.8-6.7-236.1-24.6-353.9-37.5-52.9-5.9-107.3-10.8-161.9-9.4-24.7.7-47 2.7-68.3 5.3a2.77 2.77 0 0 1 .1-.9v-.2c0-.4.1-.7.1-1.1s.1-.7.1-1.1.1-1 .2-1.5.2-1.1.3-1.7c.2-1 .5-2.1.7-3.1l.3-.9c0-.1.1-.2.1-.3l.6-1.8c.2-.5.4-1.1.6-1.6.1-.2.1-.4.2-.6C49.4.3 120.6 5.8 189.2 11.4c88.5 7.2 177.3 14.5 262.2 27.1 32.8 4.9 65.4 10.5 100 11.9 29.9 1.2 61.3-.8 89 4.1 21.6 3.8 39.7 11.6 63.1 12.6 12.4.5 24.8-1.1 37.1-1.5 19.9-.7 38.2.8 56 2.9z"/><path id="_Контур_6" data-name="&lt;Контур&gt;" class="cls-4" d="M796.6 94.5v5.5c-8 .2-16 .4-24 .4-54.1.2-106.9-6-158.8-12.2-116.7-13.9-230.2-31.3-351.4-35.3-94.8-3.1-190.6-6.2-285-3v-5.7c84.5-3.4 170.1-1.6 254.7 2.1 67.9 2.9 135.8 7 201.9 14.2 29.6 3.2 58.9 7 88.1 10.9 39.4 5.2 72.9 12.8 113.8 15.3 49.7 3.1 100 6.7 150.2 7.9 3.7.1 7.2 0 10.5-.1z"/><path id="_Контур_7" data-name="&lt;Контур&gt;" class="cls-4" d="M796.6 41.7V52c-18.2-.5-36.5-1.6-53-4.7-18-3.4-33.5-9-52.3-11.5-26.7-3.4-55.6.2-83.3-1-23.7-1-56.1-4.9-76.1-10.5-23.5-6.6-31.4-14.8-63.3-16.9-27.9-1.8-56.3.3-84.6.3-84.7.3-165-17.3-249.7-17.8-21.7-.1-43.3.9-65 .6-28-.3-53.9-.6-79.4-.1A39.39 39.39 0 0 1 .3-17.4a15.05 15.05 0 0 1 2.2-1.1c1-.4 1.9-.8 2.9-1.2.2 0 .3-.1.5-.1 84.6-.9 169.2 4.2 253 9.4Q350.4-4.7 442 .9c19.2 1.2 38.9 2.4 55.6 6.6 11.4 2.8 20.8 6.9 32.1 9.9 46.1 12.2 107.5 3.6 160.8 8.7 32.2 3 60.6 11.1 92.5 14.6 4.5.3 9.1.7 13.6 1z"/><path id="_Контур_8" data-name="&lt;Контур&gt;" class="cls-4" d="M796.3 15.5c-20.9-.4-42.2-1.7-58.9-5.9C724 6.2 711.2 2 696.6 0c-3-.4-6-.8-9.1-1-1.1-.1-2.3-.1-3.5-.2-8.9-.4-18-.1-26.7-1.1a157.55 157.55 0 0 1-17.4-3.3q-4.65-1.05-9.6-1.8a160.94 160.94 0 0 0-19.9-1.3c-11.8-.1-23.9.5-35.6-.2-30.7-1.8-63-7.9-94.7-13.5h92.7c23.1.6 46.4 1.2 68.6 3.3 44.1 4.1 84 13.9 128 18.2 7.4.7 14.8 1.3 22.3 1.7a49.87 49.87 0 0 1 2.3 5.3c.1.2.1.4.2.6s0 .1.1.2c.1.3.2.6.3 1 .2.8.4 1.5.6 2.3.1.4.2.9.3 1.4s.2.9.3 1.4c0 .2.1.5.1.7.2.8.3 1.3.4 1.8z"/><path id="_Контур_9" data-name="&lt;Контур&gt;" class="cls-4" d="M796.6 144.9v8.4c-32.5.7-64.9-2.3-96.6-5.3q-91.8-8.55-183.5-17c-66.3-6.1-121.8-7.3-189.5-10.2-29.9-1.3-60.7-2.5-89.6.9-25.8 3-49.7 9.7-76.6 9.5-10-.1-20.2-1.2-29.9-.1-12.3 1.3-20.6 5.8-30.3 9.1-32.6 11.2-78.7 9.5-123.1 10.4v-9.4c17.3.4 34.4.5 50.2-2 16-2.5 28.7-7.5 43.6-10.9 33.5-7.7 74.6-7.3 112.3-10.8 42.1-4 74.1-9.3 119-8.7 66.1.9 131.7 4.7 196.3 10.2 95 8.1 197.8 29.5 296.5 26a4.87 4.87 0 0 1 1.2-.1z"/><path id="_Контур_10" data-name="&lt;Контур&gt;" class="cls-4" d="M796.6 114.5v9.2q-43.2 0-86.3 1.6c-13.7.5-27.7 1.1-41.1-.5-61.9-7.4-121.7-21-185.3-27.6-71.5-7.5-144.3-12-217.4-13.5-15.5-.3-31.2-.5-45.9-2.9-11.8-2-22.5-5.3-34.6-6.6-14.3-1.6-29.3-.1-43.7 1.3Q59.8 83.6-22.6 91.8v-12c25.4-1.7 53.9 1.5 78.2-3 9.3-1.8 17.8-4.6 27.7-5.6 30.7-2.9 94.2-11.6 122.7-4.5 6.8 1.7 12.6 4.2 19.5 5.8 19.4 4.5 42.2.9 63.6 1.3 22.7.4 44.8 5.2 67.5 4.4 8.2-.3 16.2-1.3 24.4-1.6 22.6-.6 41.3 5.5 62.9 6.9 17.7 1.2 32.6.1 50.4 2.2 35.2 4.2 59.9 12.1 91.3 19.2 7.2 1.6 15.4 1.6 23.3 2 31.3 1.7 57.8 12.3 89 13.2 21.5.7 42.1-4 63.5-4.7 11.7-.6 23.4-.8 35.2-.9z"/><path id="_Контур_11" data-name="&lt;Контур&gt;" class="cls-4" d="M796.6 169v7.9q-43.8 1.8-87.3 4.6c-42.4 2.8-84.6 6.3-127 9.3-66 4.6-133.4 7.6-199 2.1-55.9-4.7-109.6-15.6-166.3-17.1-38-1-75.9 2.3-113.5 5.4q-62.85 5.1-126.1 9.5v-13.4c9.5-.6 19-1.1 28.6-1.5 47.1-2.3 94.2-4.6 141.5-5.8 48.7-1.2 98.3-1 145.4 5.1 38.1 4.9 74.6 13.7 113.9 15.1 39.7 1.5 79-4.7 118.9-4.9 24.2-.1 48.7 2 72.4-.4 16.9-1.7 32.5-5.5 49-8.1 23.2-3.6 47.8-4.4 72.1-5.2q38.7-1.2 77.4-2.6z"/><path id="_Контур_12" data-name="&lt;Контур&gt;" class="cls-4" d="M796.6 226.6v9.9c-7.5.4-15.1.7-22.6 1.1-13.6.7-27.4 1.4-41 2.4h-.1c-15.4 1.2-30.7 2.7-45.4 5.2-.5.1-.9.1-1.3.2-1.6.3-3.1.5-4.7.8-28.5 5.3-56.1 14.3-86.5 12.9-24.9-1.1-46.2-9.1-70.3-12.2-34.3-4.5-70.2 1.1-105.2 3.8a677.76 677.76 0 0 1-120.9-1.3c-15.9-1.6-32.1-3.9-48.3-2.9-21.8 1.3-40.4 8.1-61.4 11.2-30 4.4-63.3.8-93 5.8C57 270 29.9 290.2-10 293l-4.8.3a5.85 5.85 0 0 0-.2 1.3c.2 4.8 10.4 8.4 19.5 10.9 26.4 7.1 53.4 13.9 80.9 20.1 14 3.2 28.1 6.2 42.4 9.1 27.2 5.6 54.7 10.7 82.7 15.4 74.6 12.4 157 21.4 231.3 8.6 30.1-5.1 58.5-13.8 90.3-14.6 21.7-.6 43.3 2.6 65 2.2 40.2-.7 76.9-13.3 117.1-12.6 20.1.3 39.3 4.1 59.2 5.8 7.6.7 15.3 1.1 23 1.3v9.5c-12.3.2-24.6.2-36.8-.5-24.7-1.5-49.2-5.8-73.6-6.7a199 199 0 0 0-25.6.7c-13 1.3-25 4.2-37.7 5.9-2.8.4-5.5.7-8.3.9-23.7 2.1-48.5.6-72.8 1-8 .1-16 .5-23.8 1.2a285 285 0 0 0-28.6 4.2c-16.7 3.3-32.7 7.5-49.2 11.1-25.6 5.5-52.7 5.5-80.5 7.1-35.3 2.1-71.9-1.1-103.6-8.9-11.9-2.9-23.2-6.5-36.1-8.3-15.8-2.2-32.6-1.4-48.9-2-30.3-1.1-59.7-6.9-83-16.3-32-13.1-54.1-24.5-99-25.1-3.9-.1-7.8 0-11.6-.1v-29.6c16.5-2.9 34.8-4.6 49.7-9.2 13.4-4.1 23.5-10.4 36.1-15 37.1-13.7 84-5.7 126.3-11.9 17.7-2.6 33.5-7.9 51.4-10.1 33.7-4.3 68 2.6 102.6 5.7a279.93 279.93 0 0 0 30.4 1.3c9.2-.1 18.3-.8 27.3-1.8 35.4-3.9 70-12.3 105.2-8.6 32.6 3.4 60.9 16.9 94 14.8 17.9-1.1 33.2-6.7 50.5-9.2 43.7-6.2 83.2-.2 125.7-10.9 7-1.5 13.6-2.6 20.1-3.4z"/><path id="_Контур_13" data-name="&lt;Контур&gt;" class="cls-4" d="M796.6 196.1v10.2l-130.3 11.1c-43.6 3.7-87.9 7.4-131.8 4.9-24.2-1.5-48.4-4.8-72.6-3.4-11.3.6-22.2 2.3-33.4 3.3-57.6 5.1-116.3-7.6-174.5-4.8-25.3 1.3-49.5 5.4-73.5 9.5-22.4 3.8-44.7 7.7-67.1 11.6-13.6 2.3-27.3 4.7-40.2 7.9-11.8 2.9-23 6.6-35.7 8.5-17.8 2.7-37 1.7-55.4 3.3-1.6.1-3.1.3-4.6.5v-8c13.9-.3 28 .5 41.2-1.5 18.1-2.8 31.8-10.4 49.8-13.1 15.5-2.3 32.5-.8 48.3-2.8s28.9-7.3 42.9-11.5c43.3-12.9 95.1-14.8 144.7-14 24.5.4 50.6.5 74.7 1.9 20.8 1.2 46.2 8 66.9 4.3 6-1.1 11.2-3 17.3-3.9 22.9-3.4 43.7 9 67.6 9.4 21.1.3 39.8-8.8 60.7-7.4 11.6.8 22.9 4.8 34.1 3.1 4.8-.7 8.6-2.4 12.8-3.7 23.8-7.2 50.5-1.1 75.8-3.6 20.2-2 36-8.1 56.8-10q12.75-1.05 25.5-1.8z"/><path id="_Контур_14" data-name="&lt;Контур&gt;" class="cls-4" d="M796.6 388.4V403c-24.1 2.8-48.3 5.4-72.5 6.7-53.8 2.8-108.6-1.1-162.1 2.8-31.8 2.3-62.7 7.4-94.6 9-93.4 4.8-181.4-19.6-273.3-29-73.6-7.5-154.8-6.1-216.6-26.6v-6.5c55.1 18.9 128.7 18.3 196 23 104.2 7.2 205.9 29.1 310.6 23.5 44.9-2.4 88.5-9.8 133.6-10.4 30.9-.4 61.9 2.5 92.7 1.2 20.5-.9 40.4-3.5 60.4-5.7 8.5-1 17.1-1.8 25.8-2.6z"/><path id="_Контур_15" data-name="&lt;Контур&gt;" class="cls-4" d="M796.1 431.1a48.45 48.45 0 0 1-3.6 12.1c-125.3 4.2-251.4 2.7-376.8-1.6-35.6-1.2-71.2-2.7-106.4-5.5-24.3-2-48.9-4.6-73.4-3.4-19.1.9-38.4 4.2-56.9 1.9-15.1-1.9-27.2-7.2-41.3-10.3-37.1-8.3-81.7-.6-121-5.9-12.7-1.7-24.5-4.8-37.4-6.1-.7-.1-1.3-.1-2-.2v-8c19.6 1 38 5.9 57.7 7.1 29.2 1.8 58.3-4.9 87.6-3.5 33.2 1.6 61.2 13.4 94.1 16.1 28.1 2.3 57.3-2.2 85.4.3 17.6 1.6 33.7 5.8 50.9 8.2 20 2.8 41.2 3.2 62 3.5 44.3.6 97.4 9.5 140.4 3.8 10.8-1.4 21.2-3.9 32.4-4 17.8-.3 33.9 5.3 51.4 6.7 25.7 2.1 51.4-4.5 77.3-3.6 5.3.2 10.5.7 15.7.3 8.1-.6 14.8-3.3 22.1-5 12.4-3 26.9-3.3 41.8-2.9z"/><path id="_Контур_16" data-name="&lt;Контур&gt;" class="cls-4" d="M366.5 467.8h-86.2a363.58 363.58 0 0 0-44.3-1c-4.7.2-9.4.6-14.1 1h-48.5c-12.5-2.3-23.3-6.7-35.6-9.5-37.1-8.3-81.7-.6-121-5.9-11.3-1.5-22-4.1-33.4-5.6a10.93 10.93 0 0 1-.8-1.5c-.2-.3-.3-.6-.5-.9-.2-.5-.5-1-.7-1.5-.1-.3-.3-.7-.4-1-.4-1-.8-2.1-1.2-3.1-.1-.2-.1-.4-.2-.6 18.8 1.2 36.6 5.9 55.6 7 29.2 1.8 58.3-4.9 87.6-3.5 33.2 1.6 61.2 13.4 94.1 16.1 28.1 2.3 57.3-2.2 85.4.3 17.6 1.6 33.7 5.8 50.9 8.2 4.4.6 8.8 1.1 13.3 1.5z"/><path id="_Контур_17" data-name="&lt;Контур&gt;" class="cls-4" d="M105.4 297.2c-1.5 2.8 8.1 4.9 16.6 6.3 56.8 9.3 116.4 17.1 177.9 23.2 64.4 6.5 135.5 11.2 199.7 4.5 26-2.7 50.5-7.2 77.9-7.6 18.8-.3 37.4 1.3 56.2 1.2 34.7-.4 66.4-6.9 101.1-6.6 17.4.2 34 2.1 51.1 3 3.5.2 7.1.3 10.7.4v5.3c-7.5 0-15 0-22.5-.3-28.8-1-57.3-4.8-85.7-3.1-11.2.7-21.6 2.2-32.6 3.1-29.3 2.3-60.8-.1-90.6 1.6-23.8 1.3-45 5.1-67.2 8s-45.5 2.9-69.5 3.7a508.73 508.73 0 0 1-89.4-4.6c-10.3-1.5-20.1-3.4-31.2-4.3-13.6-1.1-28.1-.7-42.2-1-26.1-.6-51.6-3.6-71.6-8.5-27.6-6.8-46.7-12.8-85.5-13.1-8.1-.1-16.2.1-24.1-.5s-15.5-2.1-17.6-4.4 1.9-4.8 7.6-6.5c17.3-5.2 46-5.1 66.9-8.9 11.6-2.1 20.3-5.4 31.2-7.8 32-7.2 72.5-3 109-6.2 15.3-1.4 28.9-4.1 44.4-5.3 37.6-2.9 76 4 114.8 3.7 39-.3 76.3-7.8 114.4-5.4 28.1 1.8 52.6 8.8 81.1 7.7 15.4-.6 28.6-3.5 43.6-4.8 37.7-3.2 71.8-.1 108.5-5.7 2.7-.4 5.4-.8 8.1-1.1v4.6l-10.3.3c-27.1.8-54.5 1.7-79.9 4.5-24.6 2.8-48.4 7.4-74.7 6.7-21.5-.6-39.8-4.7-60.7-6.4-29.6-2.4-60.5.5-90.8 2a956.52 956.52 0 0 1-104.4-.7c-13.8-.9-27.7-2-41.7-1.5-18.8.7-34.9 4.2-53 5.8-25.9 2.3-54.7.4-80.3 3-34.6 3.7-58.5 14.9-95.3 15.7z"/><path id="_Контур_18" data-name="&lt;Контур&gt;" class="cls-4" d="M200.9 299.4c-1.4 1.3 7.3 2.4 15 3 51 4.4 104.6 8.2 159.9 11.1 57.9 3.1 121.9 5.3 179.6 2.2 23.3-1.3 45.4-3.4 70.1-3.7 16.9-.1 33.6.7 50.5.5 31.2-.2 59.7-3.3 90.9-3.1 10.1.1 20 .5 29.8.9v3c-24-.6-47.8-2.1-71.6-1.3-10.1.3-19.4 1.1-29.3 1.5-26.3 1.1-54.7 0-81.5.8-21.4.6-40.5 2.4-60.4 3.8s-40.9 1.4-62.5 1.8c-27.4.5-55.8-.3-80.4-2.2-9.2-.7-18-1.6-28-2.1-12.3-.5-25.3-.4-38-.5-23.5-.3-46.4-1.7-64.4-4.1-24.9-3.3-42-6.1-76.9-6.3-7.2 0-14.6 0-21.6-.2s-13.9-1-15.8-2.1 1.7-2.3 6.8-3.1c15.5-2.5 41.4-2.4 60.2-4.3 10.5-1 18.2-2.6 28-3.7 28.8-3.4 65.2-1.4 98.1-2.9 13.8-.7 26-2 39.9-2.5 33.8-1.4 68.3 1.9 103.2 1.7s68.6-3.7 102.9-2.6c25.3.8 47.3 4.2 72.9 3.7 13.9-.3 25.8-1.7 39.2-2.3 27.5-1.2 52.9-.5 79.1-1.6v1c-18.9.4-37.7.8-55.4 1.9-22.1 1.3-43.6 3.6-67.1 3.2-19.3-.3-35.8-2.3-54.5-3-26.6-1.1-54.5.3-81.7.9-31.1.8-63.1.7-93.9-.3-12.4-.4-24.9-1-37.5-.7-16.9.3-31.4 2-47.7 2.8-23.3 1.1-49.2.2-72.2 1.5-31.2 1.6-52.7 6.9-85.7 7.3z"/></g><path id="_Контур_19" data-name="&lt;Контур&gt;" d="M796.6 19.8V19a4.1 4.1 0 0 0-.1-1.1v-.4c0-.5-.1-.9-.1-1.4v-.5c-.1-.5-.1-1-.2-1.5 0-.2-.1-.5-.1-.7-.1-.5-.2-.9-.3-1.4s-.2-.9-.3-1.4c-.2-.8-.4-1.5-.6-2.3a5.64 5.64 0 0 0-.4-1.2c-.1-.2-.1-.4-.2-.6-4.5-12.9-14.5-22.9-27-26.8a39 39 0 0 0-5.9-1.4 36.42 36.42 0 0 0-5.7-.4H17.4a3.4 3.4 0 0 0-1 .1 4.1 4.1 0 0 0-1.1.1c-.6.1-1.2.1-1.7.2a.6.6 0 0 0-.4.1c-.4.1-.9.1-1.3.2l-1.8.3c-.2.1-.5.1-.7.2s-.5.1-.8.2-.5.1-.8.2a9.83 9.83 0 0 0-1.6.5c-.3.1-.5.2-.8.3-1 .4-2 .8-2.9 1.2a22.56 22.56 0 0 0-2.2 1.1 42.77 42.77 0 0 0-18.7 20c-.3.7-.6 1.5-.9 2.2-.2.4-.4.9-.6 1.4l-.6 1.8c0 .1-.1.2-.1.3l-.3.9c-.4 1.6-.8 3.2-1.1 4.8a7.72 7.72 0 0 0-.2 1.5c0 .3-.1.7-.1 1.1s-.1.7-.1 1.1v.2a3.4 3.4 0 0 1-.1 1v10.3a3.4 3.4 0 0 1 .1-1V28c0-.4.1-.7.1-1.1s.1-.7.1-1.1.1-1 .2-1.5a41.5 41.5 0 0 1 1.1-4.8l.3-.9c0-.1.1-.2.1-.3l.6-1.8c.2-.5.4-1.1.6-1.6.3-.7.6-1.5.9-2.2A43.24 43.24 0 0 1 .3-7.3C1-7.7 1.8-8 2.5-8.4c1-.4 1.9-.8 2.9-1.2a6.89 6.89 0 0 0 .8-.3c.5-.2 1-.3 1.6-.5a2.35 2.35 0 0 1 .8-.2 2.35 2.35 0 0 1 .8-.2c.2-.1.5-.1.7-.2l1.8-.3c.4-.1.9-.1 1.3-.2a.6.6 0 0 0 .4-.1c.6-.1 1.1-.1 1.7-.2.4 0 .7-.1 1.1-.1a3.4 3.4 0 0 0 1-.1h738.1a36.42 36.42 0 0 1 5.7.4 39 39 0 0 1 5.9 1.4c12.5 3.9 22.5 14 27 26.8.1.2.1.4.2.6.1.4.3.8.4 1.2.2.7.4 1.5.6 2.3.1.5.2.9.3 1.4s.2.9.3 1.4c0 .2.1.5.1.7a7.72 7.72 0 0 1 .2 1.5v.5a6.6 6.6 0 0 1 .1 1.4v.4c0 .4.1.7.1 1.1v-7.6a5.24 5.24 0 0 0 .2-1.7z" style="fill:#c49931;opacity:.62;isolation:isolate"/></g></svg>