<svg xmlns="http://www.w3.org/2000/svg" xmlns:xlink="http://www.w3.org/1999/xlink" viewBox="0 0 68 68"><defs><style>.cls-3{fill:#2078a5}</style><linearGradient id="linear-gradient" x1="19.84" y1="47.93" x2="38.14" y2="29.63" gradientUnits="userSpaceOnUse"><stop offset="0" stop-color="#fff" stop-opacity="0"/><stop offset="0.54" stop-color="#6a696b" stop-opacity="0.65"/><stop offset="1" stop-color="#1a171b"/></linearGradient></defs><title>box</title><g style="isolation:isolate"><g id="Layer_1" data-name="Layer 1"><rect width="68" height="68" style="fill:#1c6999"/><path class="cls-3" d="M12.14 0H0v12.14A12.14 12.14 0 0 0 12.14 0z"/><path class="cls-3" d="M68 12.14V0H55.86A12.14 12.14 0 0 0 68 12.14z"/><path class="cls-3" d="M55.86 68H68V55.86A12.14 12.14 0 0 0 55.86 68z"/><path class="cls-3" d="M0 55.86V68h12.14A12.14 12.14 0 0 0 0 55.86z"/><g style="opacity:.4;mix-blend-mode:multiply"><path d="M38.43 37.86a6 6 0 0 0-8.64-8.43l-.11.11-.25.25L20.29 39a6.06 6.06 0 0 0-.89.89l-.14.14a6 6 0 0 0-1.13 4.74 6.12 6.12 0 0 0 5.1 4.9 6 6 0 0 0 5-1.55l.11-.11.14-.14L38 38.36l.32-.32.18-.18z" style="fill:url(#linear-gradient)"/></g><circle cx="34" cy="34" r="6" style="fill:#fbba01"/></g></g></svg>