<svg version="1.1" id="Layer_1" xmlns="http://www.w3.org/2000/svg" xmlns:xlink="http://www.w3.org/1999/xlink" x="0px" y="0px" viewBox="0 0 632 120" style="enable-background:new 0 0 632 120" xml:space="preserve"><style type="text/css">.st1{fill:#fff}.st2{fill:#e2bd28}.st3{fill:#c5a423}.st4{fill:#e1bf32}.st5{fill:#196b6b}.st6{fill:#ffdc4c}</style><title>Artboard 1</title><rect id="_Rectangle_" x="0.8" y="0" width="631.5" height="120" style="fill:#215563"/><g id="_Group_"><g id="_Group_2"><ellipse id="_Path_" class="st1" cx="174.8" cy="94.1" rx="20.4" ry="9.6"/><polygon id="_Path_2" class="st1" points="154.3,89.5 154.3,94.1 159.8,97.2 195.2,94.1 195.2,89.5 		"/><path id="_Path_3" class="st1" d="M195.2 89.5c0 5.3-9.2 9.6-20.4 9.6s-20.4-4.3-20.4-9.6l12.1-8.9h16.7l12 8.9z"/></g><rect id="_Rectangle_2" x="165.4" y="69.5" class="st1" width="18.8" height="18.3"/><g id="_Group_3"><rect id="_Rectangle_3" x="155.3" y="59.1" class="st1" width="5.2" height="16.7"/><circle id="_Path_4" class="st1" cx="157.9" cy="77.8" r="4.2"/></g><g id="_Group_4"><polygon id="_Path_5" class="st1" points="148.6,22.2 134.8,59.5 214.7,59.5 201,22.2 		"/><ellipse id="_Path_6" class="st1" cx="174.8" cy="22.2" rx="26.2" ry="6.4"/><ellipse id="_Path_7" class="st1" cx="174.8" cy="23.5" rx="23.6" ry="5.2"/><ellipse id="_Path_8" class="st1" cx="174.8" cy="59.5" rx="40" ry="11.5"/></g><g id="_Group_5"><rect id="_Rectangle_4" x="156.7" y="66.1" class="st2" width="2.5" height="9.7"/><circle id="_Path_9" class="st2" cx="157.9" cy="77.8" r="2.6"/></g><g id="_Group_6"><ellipse id="_Path_10" class="st3" cx="174.8" cy="93.6" rx="16.8" ry="7.8"/><polygon id="_Path_11" class="st3" points="158,89.8 158,93.6 162.5,96.1 191.5,93.6 191.5,89.8 		"/><path id="_Path_12" class="st4" d="M191.5 89.8c0 4.3-7.5 7.8-16.8 7.8S158 94.2 158 89.8l9.9-7.3h13.7l9.9 7.3z"/></g><ellipse id="_Path_13" class="st5" cx="174.8" cy="82.5" rx="6.9" ry="3.2"/><rect id="_Rectangle_5" x="168" y="66.5" class="st5" width="13.5" height="16.3"/><path id="_Path_14" class="st3" d="M181.6 82.5c0 1.8-3.1 3.2-6.9 3.2s-6.9-1.4-6.9-3.2l.1-2.6h13.5l.2 2.6z"/><rect id="_Rectangle_6" x="168" y="66.5" class="st3" width="13.5" height="13.4"/><g id="_Group_7"><polygon id="_Path_15" class="st6" points="151,23.9 138.5,57.8 211.1,57.8 198.7,23.9 		"/><ellipse id="_Path_16" class="st2" cx="174.8" cy="23.9" rx="23.8" ry="5.9"/><ellipse id="_Path_17" class="st3" cx="174.8" cy="25.1" rx="21.5" ry="4.7"/><ellipse id="_Path_18" class="st6" cx="174.8" cy="57.8" rx="36.4" ry="10.4"/></g></g><g id="_Group_8"><g id="_Group_9"><ellipse id="_Path_19" class="st1" cx="316.3" cy="101.5" rx="24.8" ry="11.6"/><polygon id="_Path_20" class="st1" points="291.4,95.9 291.4,101.5 298.1,105.2 341.1,101.5 341.1,95.9 		"/><path id="_Path_21" class="st1" d="M341.1 95.9c0 6.4-11.1 11.6-24.8 11.6s-24.8-5.2-24.8-11.6l14.7-10.8h20.3l14.6 10.8z"/></g><rect id="_Rectangle_7" x="304.9" y="71.6" class="st1" width="22.8" height="22.2"/><g id="_Group_10"><rect id="_Rectangle_8" x="292.7" y="59" class="st1" width="6.3" height="20.3"/><circle id="_Path_22" class="st1" cx="295.8" cy="81.7" r="5"/></g><g id="_Group_11"><polygon id="_Path_23" class="st1" points="284.5,14.3 267.8,59.5 364.8,59.5 348.2,14.3 		"/><ellipse id="_Path_24" class="st1" cx="316.3" cy="14.3" rx="31.8" ry="7.8"/><ellipse id="_Path_25" class="st1" cx="316.3" cy="15.8" rx="28.7" ry="6.3"/><ellipse id="_Path_26" class="st1" cx="316.3" cy="59.6" rx="48.6" ry="13.9"/></g><g id="_Group_12"><rect id="_Rectangle_9" x="294.3" y="67.5" class="st2" width="3" height="11.8"/><circle id="_Path_27" class="st2" cx="295.8" cy="81.7" r="3.2"/></g><g id="_Group_13"><ellipse id="_Path_28" class="st3" cx="316.3" cy="100.9" rx="20.3" ry="9.5"/><polygon id="_Path_29" class="st3" points="295.9,96.4 295.9,100.9 301.3,104 336.6,100.9 336.6,96.4 		"/><path id="_Path_30" class="st4" d="M336.6 96.4c0 5.3-9.1 9.5-20.3 9.5s-20.3-4.3-20.3-9.5l12-8.9h16.6l12 8.9z"/></g><ellipse id="_Path_31" class="st5" cx="316.3" cy="87.5" rx="8.3" ry="3.9"/><rect id="_Rectangle_10" x="308.1" y="68" class="st5" width="16.4" height="19.8"/><path id="_Path_32" class="st3" d="M324.6 87.5c0 2.1-3.7 3.9-8.3 3.9s-8.3-1.7-8.3-3.9l.1-3.1h16.4l.1 3.1z"/><rect id="_Rectangle_11" x="308.1" y="68" class="st3" width="16.4" height="16.3"/><g id="_Group_14"><polygon id="_Path_33" class="st6" points="287.4,16.3 272.2,57.5 360.4,57.5 345.3,16.3 		"/><ellipse id="_Path_34" class="st2" cx="316.3" cy="16.3" rx="28.9" ry="7.1"/><ellipse id="_Path_35" class="st3" cx="316.3" cy="17.7" rx="26.1" ry="5.7"/><ellipse id="_Path_36" class="st6" cx="316.3" cy="57.5" rx="44.1" ry="12.6"/></g></g><g id="_Group_15"><g id="_Group_16"><ellipse id="_Path_37" class="st1" cx="456.6" cy="94.1" rx="20.4" ry="9.6"/><polygon id="_Path_38" class="st1" points="436.2,89.5 436.2,94.1 441.6,97.2 477.1,94.1 477.1,89.5 		"/><path id="_Path_39" class="st1" d="M477.1 89.5c0 5.3-9.2 9.6-20.4 9.6s-20.4-4.3-20.4-9.6l12.1-8.9H465l12.1 8.9z"/></g><rect id="_Rectangle_12" x="447.2" y="69.5" class="st1" width="18.8" height="18.3"/><g id="_Group_17"><rect id="_Rectangle_13" x="437.2" y="59.1" class="st1" width="5.2" height="16.7"/><circle id="_Path_40" class="st1" cx="439.8" cy="77.8" r="4.2"/></g><g id="_Group_18"><polygon id="_Path_41" class="st1" points="430.5,22.2 416.7,59.5 496.6,59.5 482.9,22.2 		"/><ellipse id="_Path_42" class="st1" cx="456.7" cy="22.2" rx="26.2" ry="6.4"/><ellipse id="_Path_43" class="st1" cx="456.7" cy="23.5" rx="23.6" ry="5.2"/><ellipse id="_Path_44" class="st1" cx="456.7" cy="59.5" rx="40" ry="11.5"/></g><g id="_Group_19"><rect id="_Rectangle_14" x="438.5" y="66.1" class="st2" width="2.5" height="9.7"/><circle id="_Path_45" class="st2" cx="439.8" cy="77.8" r="2.6"/></g><g id="_Group_20"><ellipse id="_Path_46" class="st3" cx="456.6" cy="93.6" rx="16.8" ry="7.8"/><polygon id="_Path_47" class="st3" points="439.9,89.8 439.9,93.6 444.3,96.1 473.4,93.6 473.4,89.8 		"/><path id="_Path_48" class="st4" d="M473.4 89.8c0 4.3-7.5 7.8-16.8 7.8s-16.8-3.5-16.8-7.8l9.9-7.3h13.7l10 7.3z"/></g><ellipse id="_Path_49" class="st5" cx="456.6" cy="82.5" rx="6.9" ry="3.2"/><rect id="_Rectangle_15" x="449.9" y="66.5" class="st5" width="13.5" height="16.3"/><path id="_Path_50" class="st3" d="M463.5 82.5c0 1.8-3.1 3.2-6.9 3.2s-6.9-1.4-6.9-3.2l.1-2.6h13.5l.2 2.6z"/><rect id="_Rectangle_16" x="449.9" y="66.5" class="st3" width="13.5" height="13.4"/><g id="_Group_21"><polygon id="_Path_51" class="st6" points="432.8,23.9 420.3,57.8 493,57.8 480.5,23.9 		"/><ellipse id="_Path_52" class="st2" cx="456.7" cy="23.9" rx="23.8" ry="5.9"/><ellipse id="_Path_53" class="st3" cx="456.7" cy="25.1" rx="21.5" ry="4.7"/><ellipse id="_Path_54" class="st6" cx="456.7" cy="57.8" rx="36.4" ry="10.4"/></g></g></svg>