<svg xmlns="http://www.w3.org/2000/svg" id="Layer_1" x="0px" y="0px" viewBox="0 0 632 119.2"><style>.st1{fill:#fff}</style><rect id="XMLID_2349_" width="631.9" height="119.5" x="0.1" y="0.3" style="fill:#169386"/><g id="XMLID_2311_"><path id="XMLID_2312_" d="M47.4 35.1h13.4l21.4 50.5h-15l-3.7-9H44.2l-3.6 9H26l21.4-50.5zm12.1 30.7l-5.6-14.3-5.7 14.3h11.3z" class="st1"/></g><g id="XMLID_2292_"><path id="XMLID_2293_" d="M241 27h35c8.6 0 14.6 2.1 18.6 6.1 2.7 2.7 4.4 6.3 4.4 11.2 0 7.9-4.5 12.6-10.5 15.2 8.3 2.7 13.5 7.4 13.5 16.8 0 11.7-9.5 18.8-25.8 18.8H241V27zm30.3 27.2c5.7 0 9-1.9 9-6.1 0-3.7-2.9-5.8-8.6-5.8h-12.3v12h11.9zM274 80c5.7 0 9.1-2.2 9.1-6.4 0-3.7-2.9-6.1-9.3-6.1h-14.4V80H274z" class="st1"/></g><g id="XMLID_2288_"><path id="XMLID_2290_" d="M192.2 43h28.6v8.4H202v5.4h17v7.8h-17.1v5.6H221v8.4h-28.8V43z" class="st1"/></g><g id="XMLID_57_"><path id="XMLID_58_" d="M340.6 47.7h-15.3V35.3H370v12.4h-15.3v38.6h-14.1V47.7z" class="st1"/></g><g id="XMLID_53_"><path id="XMLID_54_" d="M475 60.7c0-11.8 9.5-21.3 22.1-21.3 12.7 0 22 9.4 22 21.3 0 11.8-9.5 21.3-22.1 21.3-12.6 0-22-9.4-22-21.3zm32.6 0c0-5.9-4.3-11.1-10.5-11.1s-10.4 5-10.4 11.1c0 5.9 4.3 11.1 10.5 11.1s10.4-5.1 10.4-11.1z" class="st1"/></g><g id="XMLID_28_"><path id="XMLID_29_" d="M94 61.3C94 36.5 113.1 17 138.9 17c17.4 0 28.3 7.6 35.8 18l-17.3 13.4c-4.9-6.1-10.6-9.9-18.8-9.9-11.9 0-20.3 10.1-20.3 22.8 0 12.8 8.4 22.8 20.3 22.8 8.9 0 14.1-4.1 19.2-10.4l17.8 12.7c-8 11.1-18.9 19.2-37.8 19.2C113.6 105.7 94 87 94 61.3z" class="st1"/></g><g id="XMLID_24_"><path id="XMLID_25_" d="M388 17h24.5v35.8L442.9 17h29l-33.4 38 34.6 50.3h-29.4l-22.2-32.8-9 10v22.8H388V17z" class="st1"/></g><g id="XMLID_19_"><path id="XMLID_20_" d="M535.6 27.6h19.6l16 26 16-26h19.6v67h-18.5V56.2l-17.1 26.2h-.4l-17-26v38.3h-18.2V27.6z" class="st1"/></g></svg>