<svg version="1.1" id="Layer_1" xmlns="http://www.w3.org/2000/svg" xmlns:xlink="http://www.w3.org/1999/xlink" x="0px" y="0px" viewBox="0 0 632 120" style="enable-background:new 0 0 632 120" xml:space="preserve"><style type="text/css">.st1{opacity:.8;fill:#fff;enable-background:new}</style><rect id="XMLID_768_" y="0" width="632" height="120" style="fill:#a52ff2"/><g id="XMLID_795_"><polygon id="XMLID_50_" class="st1" points="187.6,26.2 211.8,73.7 165.1,107.7 121.4,74.2 137.1,17.7 	"/><polygon id="XMLID_164_" class="st1" points="126.5,8.8 165.1,58.5 126.5,107.7 77.7,58 	"/></g><g id="XMLID_177_"><polygon id="XMLID_172_" class="st1" points="307.7,14.5 365.5,14.5 375,66.6 337.2,104.7 289.4,70.3 	"/><polygon id="XMLID_173_" class="st1" points="271.4,24.6 316.3,24.6 323.7,65.1 294.3,94.6 257.2,67.9 	"/></g><g id="XMLID_804_"><path id="XMLID_817_" class="st1" d="M446.9 83V37.4s38.2-22.6 39-22.6 40 22.6 40 22.6l-8.1 41.1-31.4 26.3L446.9 83z"/><path id="XMLID_807_" class="st1" d="M553.6 42.2l-70.1-4.8s39.2 66.8 39.5 67.3l30.6-62.5z"/></g></svg>