<svg id="Layer_1" data-name="Layer 1" xmlns="http://www.w3.org/2000/svg" viewBox="0 0 632 120"><defs><style>.cls-2{fill:#28cfe5;opacity:.5}.cls-3{fill:none}</style></defs><rect id="_Rectangle_" data-name="&lt;Rectangle&gt;" y="-0.0734" width="632" height="120" style="fill:#3867e8"/><path id="_Compound_Path_" data-name="&lt;Compound Path&gt;" class="cls-2" d="M199.634 84.873c-.025-29.522-22.492-45.72-48.063-45.698-14.346.013-23.696 5.426-31.384 11.254 1.856-18.297 10.37-30.986 27.417-31 11.643-.01 19.962 4.348 28.907 10.993l18.895-28.498a108 108 0 0 0-2.407-1.739L104.453.26c-16.792 14.226-25.024 37.881-25 65.588.022 27.212 6.885 43.54 17.415 54.348l89.194-.076c8.468-8.816 13.584-20.76 13.572-35.247zm-59.441 21.048c-12.683.011-20.59-8.298-20.599-18.901-.01-10.811 7.468-18.925 20.151-18.936 12.682-.01 20.59 8.298 20.598 18.693.01 11.019-7.468 19.134-20.15 19.144z"/><g id="_Group_" data-name="&lt;Group&gt;"><g id="_Group_2" data-name="&lt;Group&gt;"><path id="_Path_" data-name="&lt;Path&gt;" class="cls-3" d="M501.062 47.845c10.227-.009 16.909-6.308 16.901-15.355-.006-7.67-6.502-14.548-16.926-14.54s-16.908 6.702-16.902 14.765c.008 8.654 6.7 15.138 16.927 15.13z"/><polygon id="_Path_2" data-name="&lt;Path&gt;" class="cls-3" points="111.011 74.922 143.855 74.894 143.821 35.363 111.011 74.922"/><path id="_Path_3" data-name="&lt;Path&gt;" class="cls-3" d="M501.11 103.502c12.783-.01 19.857-7.293 19.85-15.947-.007-8.85-8.273-14.94-19.877-14.93s-19.858 6.114-19.85 15.357c.007 8.26 7.093 15.531 19.876 15.52z"/><path id="_Path_4" data-name="&lt;Path&gt;" class="cls-3" d="M198.332 74.651l.024 28.518-17.504.014.014 17.012 278.365-.235c-9.31-7.068-14.763-16.9-14.773-28.603-.014-16.717 8.827-26.755 23.572-33.061-10.625-5.89-18.892-14.93-18.905-30.271-.01-11.356 5.586-21.192 15.23-28.07l-283.59.24.063 74.47z"/><path id="_Compound_Path_2" data-name="&lt;Compound Path&gt;" class="cls-2" d="M449.125 28.025c.013 15.34 8.28 24.38 18.905 30.271-14.745 6.306-23.586 16.344-23.572 33.061.01 11.702 5.464 21.535 14.773 28.603l84.028-.071c9.151-7.002 14.492-16.737 14.482-28.432-.015-17.503-9.66-26.738-23.629-33.217 10.615-5.909 18.867-14.963 18.855-29.91-.01-11.583-5.647-21.526-15.341-28.436l-73.27.062c-9.645 6.877-15.241 16.713-15.231 28.069zm51.912-10.074c10.424-.01 16.92 6.87 16.926 14.54.008 9.046-6.674 15.345-16.9 15.354s-16.92-6.476-16.928-15.13c-.006-8.063 6.478-14.755 16.902-14.764zm.046 54.674c11.604-.01 19.87 6.08 19.877 14.93.007 8.654-7.068 15.937-19.85 15.947s-19.87-7.26-19.877-15.52c-.008-9.243 8.247-15.347 19.85-15.357z"/></g><g id="_Group_3" data-name="&lt;Group&gt;"><g id="_Group_4" data-name="&lt;Group&gt;"><g id="_Group_5" data-name="&lt;Group&gt;"><path id="_Compound_Path_3" data-name="&lt;Compound Path&gt;" d="M302.72 73.556l-26.659.022-.022-26.502 26.658-.023-.023-27.131 27.448-.023.023 27.131 26.658-.022.023 26.502-26.658.022.023 27.132-27.449.023z" style="fill:#29d6f8"/></g></g><g id="_Group_6" data-name="&lt;Group&gt;"><g id="_Group_7" data-name="&lt;Group&gt;"><path id="_Compound_Path_4" data-name="&lt;Compound Path&gt;" d="M276.117 47.203l80.687-.069.022 26.564-80.687.069z" style="fill:#48ecf9"/></g></g></g></g></svg>