<svg id="Layer_1" data-name="Layer 1" xmlns="http://www.w3.org/2000/svg" viewBox="0 0 166.24 107.98"><defs><style>.cls-1{fill:#055d62}</style></defs><title>fish-stock-3</title><path id="_Контур_" data-name="&lt;Контур&gt;" class="cls-1" d="M96.33 6.54s-6.84-8.62-23.8-1.78L64.84 0l2.07 5.65-3.57 5.05 8.62-3s18.73 6.87 24.38-1.16z"/><path id="_Контур_2" data-name="&lt;Контур&gt;" class="cls-1" d="M65.57 68.32s-5.58-7-19.4-1.45L39.88 63l1.7 4.6-2.9 4.13 7-2.42s15.33 5.57 19.9-.98z"/><path id="_Контур_3" data-name="&lt;Контур&gt;" class="cls-1" d="M69.24 37s-3.55-4.5-12.34-1l-4-2.47L54 36.5l-1.85 2.62 4.47-1.54s9.7 3.55 12.62-.58z"/><path id="_Контур_4" data-name="&lt;Контур&gt;" class="cls-1" d="M55.57 21.27S50.3 14.62 37.2 19.9l-6-3.68 1.62 4.36-2.75 3.9 6.65-2.3s14.5 5.28 18.85-.9z"/><path id="_Контур_5" data-name="&lt;Контур&gt;" class="cls-1" d="M139.07 104.77s-5.28-6.65-18.36-1.38l-6-3.68 1.62 4.36-2.72 3.92 6.65-2.3s14.46 5.3 18.82-.93z"/><path id="_Контур_6" data-name="&lt;Контур&gt;" class="cls-1" d="M109.9 53.7s-6.75-8.54-23.5-1.77l-7.65-4.7 2.06 5.6-3.52 5 8.53-2.95s18.52 6.75 24.1-1.2z"/><path id="_Контур_7" data-name="&lt;Контур&gt;" class="cls-1" d="M102.74 25.22S98.5 19.87 88 24.12l-4.8-3 1.3 3.5-2.23 3.18 5.35-1.8s11.62 4.2 15.12-.78z"/><path id="_Контур_8" data-name="&lt;Контур&gt;" class="cls-1" d="M166.24 70.55s-4-5-13.9-1l-4.53-2.78L149 70l-2.1 3 5-1.74s11.04 3.98 14.34-.7z"/><path id="_Контур_9" data-name="&lt;Контур&gt;" class="cls-1" d="M140.3 40s-4.88-6.17-17-1.28l-5.52-3.4 1.5 4-2.6 3.68 6.18-2.13s13.4 4.85 17.45-.87z"/><path id="_Контур_10" data-name="&lt;Контур&gt;" class="cls-1" d="M116 80.88s-4-5-13.9-1l-4.53-2.78 1.22 3.3-2.1 3 5-1.74s11 3.92 14.3-.78z"/><path id="_Контур_11" data-name="&lt;Контур&gt;" class="cls-1" d="M33.66 37.54s-6.84-8.62-23.78-1.78L2.15 31l2.08 5.65L.66 41.7l8.62-3S28 45.57 33.66 37.54z"/></svg>