<svg id="Layer_1" data-name="Layer 1" xmlns="http://www.w3.org/2000/svg" viewBox="0 0 632 120"><defs><style>.cls-3{fill:none}.cls-4{fill:#7bfff2;opacity:.5}</style></defs><rect id="_Rectangle_" data-name="&lt;Rectangle&gt;" x="0.00495" y="0.00084" width="632" height="120" style="fill:#30b59e"/><g id="_Group_" data-name="&lt;Group&gt;"><g id="_Group_2" data-name="&lt;Group&gt;"><path id="_Compound_Path_" data-name="&lt;Compound Path&gt;" d="M276.412 47.503l80.687-.068.022 26.564-80.686.068z" style="fill:#a1fff9"/></g></g><g id="_Group_3" data-name="&lt;Group&gt;"><path id="_Path_" data-name="&lt;Path&gt;" class="cls-3" d="M496.062 47.768c10.226-.009 16.909-6.308 16.901-15.355-.006-7.67-6.503-14.548-16.926-14.539s-16.909 6.701-16.902 14.765c.007 8.653 6.7 15.138 16.927 15.129z"/><polygon id="_Path_2" data-name="&lt;Path&gt;" class="cls-3" points="106.01 74.845 138.854 74.817 138.821 35.286 106.01 74.845"/><path id="_Path_3" data-name="&lt;Path&gt;" class="cls-3" d="M496.109 103.426c12.783-.011 19.858-7.294 19.85-15.947-.007-8.85-8.273-14.94-19.876-14.93s-19.858 6.113-19.85 15.356c.007 8.26 7.093 15.532 19.876 15.52z"/><path id="_Path_4" data-name="&lt;Path&gt;" class="cls-3" d="M193.332 74.574l.024 28.518-17.504.015.014 17.012 278.365-.236c-9.31-7.068-14.763-16.9-14.773-28.603-.014-16.717 8.827-26.755 23.572-33.06-10.625-5.892-18.893-14.931-18.906-30.272-.01-11.356 5.587-21.192 15.23-28.07l-283.59.24.064 74.471z"/><path id="_Compound_Path_2" data-name="&lt;Compound Path&gt;" class="cls-4" d="M523.576 102.813l17.504-.015-.024-28.518-17.504.015-.063-74.47-46.04.039-63.834 76.098 6.317 26.938 66.67-.056.015 17.012 36.974-.031zM453.735 74.55l32.81-39.559.034 39.531z"/><path id="_Compound_Path_3" data-name="&lt;Compound Path&gt;" class="cls-4" d="M96.393 28.242c.013 15.34 8.28 24.38 18.906 30.271-14.745 6.306-23.586 16.344-23.572 33.061.01 11.703 5.464 21.535 14.773 28.603l84.028-.07c9.15-7.003 14.491-16.738 14.482-28.432-.015-17.504-9.66-26.739-23.63-33.217 10.616-5.91 18.868-14.963 18.855-29.91-.01-11.584-5.646-21.527-15.34-28.437l-73.27.062c-9.645 6.877-15.241 16.714-15.232 28.07zm51.913-10.074c10.424-.009 16.92 6.87 16.926 14.54.008 9.046-6.674 15.346-16.9 15.354s-16.92-6.476-16.928-15.13c-.007-8.063 6.478-14.755 16.902-14.764zm.046 54.674c11.604-.01 19.87 6.08 19.877 14.93.007 8.654-7.068 15.937-19.85 15.948s-19.87-7.26-19.877-15.52c-.008-9.244 8.247-15.348 19.85-15.358z"/></g></svg>