<svg style="position:absolute;width:0;height:0;overflow:hidden" version="1.1" xmlns="http://www.w3.org/2000/svg" xmlns:xlink="http://www.w3.org/1999/xlink"><defs><symbol id="fish-1" viewBox="0 0 58 32"><path fill="#000" opacity="0.2" style="fill:var(--color1, #000)" d="M26.846 6.258a4.35 4.35 0 0 0-.458.226l.023-.012a.32.32 0 0 0-.132.472l-.001-.001c.264.462.512.937.807 1.379s.638.464.985.032c.18-.23.331-.584.568-.662s.555.131.84.205c.201.052.404.093.606.14v.061c-.385.539-.36.507.068 1.001.388.441.782.844 1.195 1.227l.011.01a.64.64 0 0 0 .748.167l-.004.002c.049-.022.144.022.2.061.511.36.793.306 1.057-.257.243-.512.451-1.043.665-1.568a.362.362 0 0 1 .311-.261h.001a19.91 19.91 0 0 0 6.443-2.224l-.103.052c.147-.081.28-.189.464-.316l-.264-.099c.246-.153.257-.214.038-.399-.719-.618-1.438-1.258-2.188-1.843-1.104-.87-2.405-1.215-3.775-1.309l-.028.001a.323.323 0 0 1-.317-.264v-.002a6.489 6.489 0 0 0-.333-.928l.017.042c-.2-.433-.557-.606-1.037-.609-1.693-.016-3.276.476-4.854 1.014-.165.056-.334.101-.5.158-.288.101-.342.271-.088.439.272.169.587.322.917.443l.036.012c.185.065.421.131.663.183l.042.008c-.539.144-.996.275-1.462.392q-1.258.315-2.517.615a3.11 3.11 0 0 1-2.176-.202l.019.008a24.573 24.573 0 0 0-4.399-1.615l-.179-.04a2.07 2.07 0 0 0-.575-.061h.003c-.309 0-.448.191-.325.469.103.241.245.446.422.616l.001.001c.413.378.859.719 1.293 1.079.059.043.111.087.16.135.404.444.374 1.746-.014 2.208a2.951 2.951 0 0 0-.489.798l-.007.02c-.138.36.009.539.388.599.604.104 1.095-.12 1.546-.491a6.78 6.78 0 0 1 1.81-1.103l.045-.016c1.21-.467 2.431-.539 3.66-.072.056.022.115.05.174.081z"/><path fill="#000" opacity="0.1" style="fill:var(--color1, #000)" d="M9.719 27.468a4.413 4.413 0 0 0-.457.229l.022-.012a.32.32 0 0 0-.132.472l-.001-.001c.264.462.512.937.807 1.379s.638.464.985.032c.18-.23.331-.584.568-.662s.556.131.84.205c.201.052.405.093.606.14v.061c-.385.539-.36.507.068 1.001.388.441.782.844 1.195 1.227l.011.01a.64.64 0 0 0 .748.167l-.004.002c.049-.022.144.022.2.061.511.36.793.306 1.057-.257.243-.512.451-1.043.665-1.568a.362.362 0 0 1 .311-.257h.001a19.904 19.904 0 0 0 6.443-2.233l-.102.052c.147-.081.28-.189.464-.316l-.264-.099c.246-.153.257-.214.038-.399-.719-.618-1.438-1.258-2.188-1.843-1.104-.87-2.405-1.215-3.775-1.309l-.028.001a.323.323 0 0 1-.317-.264v-.002a6.489 6.489 0 0 0-.333-.928l.017.042c-.2-.433-.557-.606-1.037-.609-1.693-.016-3.276.476-4.854 1.014-.165.056-.334.101-.5.158-.288.101-.342.271-.088.439.274.169.591.323.924.443l.036.012c.185.065.421.131.663.183l.042.008c-.539.144-.996.275-1.462.392q-1.258.315-2.517.615a3.11 3.11 0 0 1-2.176-.202l.019.008a24.55 24.55 0 0 0-4.416-1.614l-.179-.04a2.07 2.07 0 0 0-.575-.061h.003c-.309 0-.448.191-.325.469.103.241.245.446.422.616l.001.001c.413.378.859.719 1.293 1.079.059.043.111.087.16.135.405.444.374 1.746-.014 2.208a2.951 2.951 0 0 0-.489.798l-.007.02c-.138.36.009.539.388.599.604.104 1.095-.12 1.546-.491a6.745 6.745 0 0 1 1.815-1.096l.045-.016c1.21-.467 2.431-.539 3.66-.072.059.013.11.041.178.074z"/><path fill="#000" opacity="0.3" style="fill:var(--color1, #000)" d="M57.395 18.409c-.512.658-1.185.919-1.877 1.12-1.516.44-3.033.872-4.547 1.318a.655.655 0 0 0-.319.249l-.001.002c-.413.617-.805 1.258-1.222 1.868-.081.12-.284.266-.347.221a.726.726 0 0 1-.235-.455v-.003c-.045-.408-.041-.825-.058-1.273-.428.076-.849.153-1.271.227-.887.183-1.906.287-2.95.287-.305 0-.608-.009-.908-.026l.041.002c-.36-.029-.548.032-.694.437a3.134 3.134 0 0 1-.4.648l.005-.006c-.18.277-.279.266-.43-.036-.034-.068-.079-.129-.119-.192-.437.476-.859.953-1.298 1.404-.135.138-.284.392-.503.2s-.16-.487-.133-.75c.009-.324.065-.632.163-.921l-.006.022c.124-.282.092-.566.142-.845a1.36 1.36 0 0 1 .183-.349l-.003.004c-.514-.084-1.028-.18-1.542-.252-.588-.083-1.178-.133-1.765-.219s-1.061.218-1.55.539A78.56 78.56 0 0 1 33 23.347c-.385.232-.626.079-.739-.422-.162-.719-.404-1.413-.347-2.182.014-.18-.027-.376 0-.552a.364.364 0 0 1 .211-.21l.002-.001c.205-.074.419-.111.629-.162v-.149c-.372-.086-.741-.196-1.116-.25a5.272 5.272 0 0 0-.904-.017l.016-.001c-.888.018-1.695.442-2.517.793a8.262 8.262 0 0 1-3.252.762h-.012a.152.152 0 0 1-.057-.017h.001c.084-.457.164-.911.255-1.361.061-.302.122-.62.539-.627-.336-.216-.2-.451-.153-.708a4.171 4.171 0 0 0 .093-1.171v.011c-.031-.302-.21-.581-.329-.868-.086-.21-.101-.396.047-.485a3.416 3.416 0 0 1-.106-.548l-.002-.016c-.013-.422.011-.845 0-1.258 0-.264.084-.36.291-.325a5.72 5.72 0 0 1 2.481.993l-.018-.012c.303.19.566.384.812.597l-.009-.007c.867.789 1.846.956 2.876.847.11-.011.219-.014.329-.023s.194-.02.291-.031v-.081c-.18-.063-.36-.119-.539-.196-.079-.036-.212-.144-.205-.18.031-.119.093-.291.169-.313.225-.06.487-.101.756-.113h.008c.1.006.191.041.266.096l-.001-.001c.698.428 1.413.298 2.143.153 1.314-.262 2.637-.476 3.955-.719.38-.07.715-.166 1.035-.29l-.039.013-1.222-.413c.02-.36.207-.496.385-.672.215-.222.412-.466.585-.726l.012-.019c.081-.119.133-.164.248-.088a.257.257 0 0 0 .248.021l-.002.001-.205-.218 1.055-1.575.275.122a1.918 1.918 0 0 1-.037-.196l-.001-.011c0-.117-.041-.315 0-.338a.308.308 0 0 1 .313-.026l-.002-.001c.496.405.941.809 1.364 1.234l.001.001a26.41 26.41 0 0 1 1.733 1.967c.268.343.573.212.858.27a6.027 6.027 0 0 0 1.202.07h-.012c1.92.016 3.791.415 5.654.962 1.213.36 2.423.719 3.572 1.314.481.272.894.59 1.258.958l.001.001c.347.333.288.635-.099.879a1.654 1.654 0 0 0-.386.288 2.486 2.486 0 0 1 .368 0h-.008c.156.031.287.067.414.11l-.024-.007z"/></symbol><symbol id="fish-2" viewBox="0 0 28 32"><path d="M15.668 24.276c-.935 1.831-2.163 3.489-3.274 5.241.072-.065.15-.129.217-.199a26.223 26.223 0 0 0 3.122-3.958l.063-.104c.678-1.031 1.305-2.105 1.969-3.136a1.04 1.04 0 0 1 .368-.311l.006-.003c1.256-.676 2.507-1.359 3.781-1.999a8.756 8.756 0 0 1 1.284-.437l.065-.014a11.755 11.755 0 0 0 1.61-.539l-.079.029c.37-.22.689-.475.969-.768l.002-.002c.079-.07.077-.234.11-.351-.115-.019-.234-.04-.346-.054a.988.988 0 0 0-.191.022l.007-.001c.089-.079.143-.124.192-.173.257-.26.283-.55-.021-.758a7.43 7.43 0 0 0-1.153-.626l-.049-.019a.706.706 0 0 1-.384-.342l-.002-.004c-.783-1.602-1.978-2.89-3.29-4.078-2.17-1.95-4.546-3.653-6.894-5.379q-3.41-2.53-6.828-5.037a7.674 7.674 0 0 0-.658-.397L6.221.858c-.019.077-.033.103-.026.11.337.327.554.744.935 1.057 2.32 1.95 4.579 3.989 6.721 6.16.484.489.952 1.01 1.038 1.726a2.332 2.332 0 0 1-.162.977l.006-.016a.464.464 0 0 0 .015.442l-.001-.002a3.121 3.121 0 0 1 .451 2.252l.003-.019a.895.895 0 0 1-.782.783h-.004c-.543.101-1.045-.061-1.553-.234a377.644 377.644 0 0 0-4.576-1.541 2.625 2.625 0 0 0-.422-.072l-.011-.001-.035.082c.065.047.129.133.196.136.292.012.414.234.554.428.737 1.036 1.221 2.165 1.23 3.459l.001.073a3.63 3.63 0 0 1-.345 1.549l.009-.022a.633.633 0 0 1-.6.436l-.035-.001h.002a1.27 1.27 0 0 0-.299.073l.009-.003a2.166 2.166 0 0 0 1.322.083l-.015.003a7.567 7.567 0 0 0 2.868-1.369l-.017.013a1.039 1.039 0 0 1 1.545.348l.003.006c.304.631.222 1.298.019 1.915a7.676 7.676 0 0 1-2.047 3.252l-.004.004a44.538 44.538 0 0 1-5.037 3.921l-.161.101c-2.037 1.389-4.097 2.734-6.141 4.095a.475.475 0 0 0-.17.169l-.001.002c.077-.037.157-.07.234-.115q5.577-3.491 11.148-6.99c.29-.21.545-.433.779-.676l.002-.002a10.847 10.847 0 0 1 2.271-1.531l.062-.029a12.6 12.6 0 0 1 1.071-.521 1.048 1.048 0 0 1 .409.001l-.007-.001a.887.887 0 0 1-.029.35l.002-.006a6.375 6.375 0 0 1-.755 1.266l.011-.015c-1.144 1.274-2.338 2.512-3.508 3.763a.724.724 0 0 0-.136.179l-.002.004c1.228-.746 2.275-1.73 3.412-2.631z"/></symbol><symbol id="fish-3" viewBox="0 0 39 32"><path d="M1.765 10.813V9.466c.314-.864.575-1.765 1.416-2.321.776-.515.76-.688 0-1.256a2.363 2.363 0 0 1-.253-.286l-.004-.006c.22-.129.477-.225.75-.271l.013-.002c.905.06 1.884 0 2.698.314 2.585.974 4.541 2.811 6.178 5.041.431.614.87 1.152 1.342 1.657l-.008-.008a1.78 1.78 0 0 0 2.65-.222l.003-.005c-.477-.138-.942-.292-1.435-.411-.568-.138-.628-.481-.565-1.011.251-1.715 1.3-3.034 2.491-4.058.839-.722 1.781-1.325 2.487-2.214.363-.466.746-.879 1.161-1.259l.008-.007c.409-.359.862-.69 1.343-.978l.042-.023c.477-.286.996-.502 1.495-.747h.735c.295.314.628.581.876.908 1.467 1.84 2.098 4.051 2.77 6.247.095.277.276.505.51.657l.005.003c1.084.628 2.198 1.225 3.298 1.812.694.367 1.407.697 2.107 1.049.54.231.996.473 1.43.747l-.042-.025c.565.405.911 1.109 1.69 1.234.069 0 .138.091.182.154.358.506.716 1.014 1.065 1.526.493.729.446 1.256-.173 1.91-.339.355-.7.688-1.036 1.043-1.052 1.109-2.236 2.001-3.769 2.381a1.267 1.267 0 0 0-.555.36l-.001.001a5.969 5.969 0 0 1-2.909 1.619l-.04.008c-1.291.323-2.622.565-3.967.845a20.955 20.955 0 0 1-.002 2.251l.002-.053c-.251 2.296-1.57 4.039-3.068 5.672a.692.692 0 0 1-.347.225l-.005.001c-.188.031-.452.057-.568-.044s-.094-.358-.094-.546c.035-.24.084-.452.149-.657l-.008.029c-1.049-.141-.656-1.222-1.153-1.759-.44.396-.829.782-1.256 1.118-.942.744-1.869 1.533-3.194 1.445-.016.002-.034.002-.053.002a.578.578 0 0 1-.575-.518v-.002a2.145 2.145 0 0 1 .587-2.048 1.404 1.404 0 0 0 .382-1.29l.002.009a2.844 2.844 0 0 1 .028-.919l-.003.018c.079-.506.261-1.005.289-1.511.047-.901.364-1.357 1.256-1.482.628-.091 1.3-.069 1.947-.129.405-.038.804-.129 1.31-.21-.154-.11-.185-.138-.22-.154a1.446 1.446 0 0 0-.209-.097l-.011-.004c-2.101-.691-3.627-1.928-4.174-4.19-.069-.286-.512-.481-.782-.719-.201.276-.405.55-.594.835-.038.057 0 .16 0 .242a8.89 8.89 0 0 1-2.944 6.337l-.008.007a36.118 36.118 0 0 1-3.671 2.855l-.126.081c-.986.678-2.045 1.316-3.301 1.442a2.306 2.306 0 0 1-1.335-.342l.01.006c-.104-.063.122-.707.217-1.077.126-.499.314-.992.402-1.498.082-.415.053-.851.138-1.256.128-.568.276-1.049.455-1.516l-.025.074a6.567 6.567 0 0 1 .645-1.52l-.017.031c.807-1.184 2.023-1.913 3.181-2.698.449-.314.845-.682 1.256-1.024l-.126-.17c-.204.107-.405.223-.612.314a2.426 2.426 0 0 1-.696.31l-.017.004c-1.002.116-2.01.195-3.015.273a1.691 1.691 0 0 1-.74-.021l.012.003c-.236-.094-.587-.314-.587-.499 0-.628-.38-.813-.879-.974-.66-.217-.867-.675-.779-1.363a1.975 1.975 0 0 0-.125-1.075l.005.013a1.707 1.707 0 0 1-.037-1.415l-.004.011c.242-.744.506-1.514.069-2.283-.314-.54-.65-1.068-.97-1.602zM23.869 23.9l-.314-.207a5.942 5.942 0 0 0-.478 1.717l-.003.03z"/></symbol><symbol id="frog" viewBox="0 0 31 32"><path d="M23.266 25.972s3.052-5.176 5.798-2.566-1.754 5.241-1.654 6.118 3.894 0 3.894 2.48h-5.647z"/><path d="M8.248 25.972s-3.052-5.176-5.778-2.566 1.754 5.241 1.654 6.118-3.889-.01-3.889 2.475h5.622z"/><path d="M21.081 20.169H10.312s-4.891 3.007-4.891 11.786h20.545c0-8.759-4.886-11.786-4.886-11.786z"/><path fill="#fff" style="fill:var(--color6, #fff)" d="M20.209 32c.389-.79.616-1.719.616-2.702v-.026.001c0-3.167-2.315-5.723-5.166-5.723s-5.171 2.556-5.171 5.723v.024c0 .983.227 1.912.633 2.738l-.016-.037h9.105z"/><path fill="#020202" opacity="0.04" style="fill:var(--color4, #020202)" d="M5.422 31.955c0-8.759 4.891-11.786 4.891-11.786h.837a18.18 18.18 0 0 0-4.205 11.664v.129-.007z"/><path d="M25.37 7.657c-1.957-3.42-5.509-5.732-9.615-5.922l-.026-.001h-.065A11.677 11.677 0 0 0 6.043 7.6l-.03.057c-3.402 6.013.501 11.295 3.984 12.412 3.272 1.052 3.989.977 5.697.977s2.43.085 5.692-.962c3.483-1.132 7.386-6.419 3.984-12.427z"/><path fill="#b11d00" opacity="0.2" style="fill:var(--color5, #b11d00)" d="M22.99 13.966v.296a1.8 1.8 0 0 1 .659.124l-.012-.004c-.266.576-1.694 2.776-7.942 2.836-6.244-.065-7.677-2.255-7.942-2.836.194-.079.42-.125.656-.125v-.296c-1.153 0-1.448.742-1.458.772l.276.11a.87.87 0 0 1 .287-.309l.003-.002c.321.697 1.794 2.841 7.912 2.961h.546c6.123-.135 7.577-2.29 7.907-2.961a.865.865 0 0 1 .293.326l.002.005.276-.11c-.015-.045-.311-.767-1.463-.787z"/><path fill="#020202" opacity="0.04" style="fill:var(--color4, #020202)" d="M17.864 2.029a10.14 10.14 0 0 0-2.116-.295l-.018-.001h-.065a11.677 11.677 0 0 0-9.621 5.866l-.03.057c-1.503 2.681-1.583 5.216-.877 7.301S7.387 2.961 17.865 2.029z"/><path d="M25.661 4.37a3.994 3.994 0 1 1-7.988 0 3.994 3.994 0 0 1 7.988 0z"/><path fill="#fff" style="fill:var(--color6, #fff)" d="M23.592 4.37a1.923 1.923 0 1 1-3.847.001 1.923 1.923 0 0 1 3.847-.001z"/><path fill="#000" style="fill:var(--color1, #000)" d="M23.025 4.37a1.358 1.358 0 1 1-2.716 0 1.358 1.358 0 0 1 2.716 0z"/><path fill="#fff" style="fill:var(--color6, #fff)" d="M23.271 3.718a.707.707 0 1 1-1.414 0 .707.707 0 0 1 1.414 0z"/><path d="M13.409 4.37a3.994 3.994 0 1 1-7.988 0 3.994 3.994 0 0 1 7.988 0z"/><path fill="#fff" style="fill:var(--color6, #fff)" d="M11.34 4.37a1.923 1.923 0 1 1-3.847.001 1.923 1.923 0 0 1 3.847-.001z"/><path fill="#000" style="fill:var(--color1, #000)" d="M10.774 4.37a1.358 1.358 0 1 1-2.716 0 1.358 1.358 0 0 1 2.716 0z"/><path fill="#fff" style="fill:var(--color6, #fff)" d="M11.019 3.718a.707.707 0 1 1-1.414 0 .707.707 0 0 1 1.414 0z"/><path fill="#020202" opacity="0.04" style="fill:var(--color4, #020202)" d="M17.148 8.652c.165.473.075.934-.199 1.029s-.63-.211-.795-.684c-.165-.473-.075-.934.199-1.029s.63.211.795.684z"/><path fill="#020202" opacity="0.04" style="fill:var(--color4, #020202)" d="M15.042 7.965c.274.095.364.556.199 1.029s-.52.779-.795.684c-.274-.095-.364-.556-.199-1.029s.52-.779.795-.684z"/></symbol><symbol id="water-lily-1" viewBox="0 0 48 32"><path fill="#0b3038" style="fill:var(--color9, #0b3038)" d="M46.058 18.769c0-8.332-10.693-15.053-23.71-14.718C10.504 4.355.894 10.604.491 18.261c-.293 5.663 4.365 10.64 11.389 13.263 3.083 1.151 7.003.037 7.778-2.209l3.622-10.546 3.617 10.541c.764 2.219 4.637 3.365 7.689 2.235 6.867-2.523 11.473-7.301 11.473-12.776z"/><path fill="currentColor" d="M46.058 16.314c0-8.332-10.693-15.053-23.71-14.744C10.504 1.9.894 8.149.491 15.801.198 21.459 4.856 26.447 11.88 29.069c3.083 1.151 7.003.037 7.778-2.209l3.622-10.546 3.622 10.552c.764 2.219 4.637 3.365 7.689 2.235 6.862-2.538 11.467-7.312 11.467-12.786z"/></symbol><symbol id="water-lily-2" viewBox="0 0 47 32"><path fill="#0b3038" style="fill:var(--color9, #0b3038)" d="M22.239 2.98C10.065 3.222.32 9.822.515 17.691a9.763 9.763 0 0 0 .813 3.672l-.025-.063c.913 2.16 4.847 3.094 7.765 1.898l13.922-5.723-8.9 8.993c-1.861 1.887-.402 4.429 2.939 5.017 1.673.31 3.608.497 5.583.515h.017c12.174.108 22.389-6.188 22.765-14.051C45.796 9.57 35.205 2.722 22.237 2.98z"/><path fill="currentColor" d="M22.239.562C10.065.804.32 7.404.515 15.273a9.763 9.763 0 0 0 .813 3.672l-.025-.063c.913 2.16 4.847 3.094 7.765 1.898l13.922-5.723-8.9 8.993c-1.861 1.887-.402 4.429 2.939 5.017 1.673.31 3.608.497 5.583.515h.017c12.174.108 22.389-6.188 22.765-14.051C45.796 7.152 35.205.304 22.237.562z"/></symbol><symbol id="water-lily-3" viewBox="0 0 46 32"><path fill="#0b3038" style="fill:var(--color9, #0b3038)" d="M23.569 2.707c12.174.242 21.919 6.842 21.749 14.706a9.763 9.763 0 0 1-.813 3.672l.025-.063c-.913 2.16-4.847 3.094-7.765 1.898l-13.922-5.724 8.874 8.993c1.861 1.887.402 4.429-2.939 5.017-1.673.31-3.608.497-5.583.515h-.017C11.004 31.829.789 25.533.413 17.67.001 9.281 10.602 2.449 23.57 2.706z"/><path fill="currentColor" d="M23.569.284c12.169.232 21.914 6.842 21.749 14.711a9.763 9.763 0 0 1-.813 3.672l.025-.063c-.913 2.16-4.847 3.094-7.765 1.898l-13.922-5.723 8.874 8.993c1.861 1.887.402 4.429-2.939 5.017-1.673.31-3.608.497-5.583.515h-.017C10.999 29.392.784 23.116.408 15.253.001 6.874 10.602.026 23.57.284z"/></symbol></defs></svg>