<svg id="Layer_1" data-name="Layer 1" xmlns="http://www.w3.org/2000/svg" viewBox="0 0 632 119.69439"><defs><style>.cls-4{fill:none}.cls-5{fill:#aeaeff;opacity:.5}</style></defs><rect id="_Rectangle_" data-name="&lt;Rectangle&gt;" x="-0.11765" y="0.31742" width="632" height="120" style="fill:#8e60fc"/><g id="_Group_" data-name="&lt;Group&gt;"><g id="_Group_2" data-name="&lt;Group&gt;"><path id="_Compound_Path_" data-name="&lt;Compound Path&gt;" d="M317.52 79.056l-18.835 18.866-18.756-18.724 18.834-18.866-19.2-19.169 19.392-19.425 19.2 19.168L336.99 22.04l18.756 18.724-18.834 18.867 19.2 19.168-19.392 19.425z" style="fill:#c0c0ff"/></g></g><g id="_Group_3" data-name="&lt;Group&gt;"><g id="_Group_4" data-name="&lt;Group&gt;"><path id="_Compound_Path_2" data-name="&lt;Compound Path&gt;" d="M280.074 79.232L337.08 22.13l18.8 18.768L298.873 98z" style="fill:#dcdcff"/></g></g><g id="_Group_5" data-name="&lt;Group&gt;"><path id="_Path_" data-name="&lt;Path&gt;" class="cls-4" d="M501.062 47.951c10.227-.008 16.909-6.307 16.901-15.354-.006-7.67-6.502-14.549-16.926-14.54s-16.908 6.702-16.902 14.765c.008 8.653 6.7 15.138 16.927 15.13z"/><polygon id="_Path_2" data-name="&lt;Path&gt;" class="cls-4" points="111.011 75.028 143.855 75 143.821 35.47 111.011 75.028"/><path id="_Path_3" data-name="&lt;Path&gt;" class="cls-4" d="M501.11 103.609c12.783-.01 19.857-7.294 19.85-15.947-.007-8.85-8.273-14.94-19.877-14.93s-19.858 6.114-19.85 15.357c.007 8.26 7.093 15.53 19.876 15.52z"/><path id="_Path_4" data-name="&lt;Path&gt;" class="cls-4" d="M198.332 74.758l.024 28.517-17.504.015.014 17.012 278.365-.235c-9.31-7.069-14.763-16.901-14.773-28.603-.014-16.718 8.827-26.755 23.572-33.061-10.625-5.891-18.892-14.931-18.905-30.272-.01-11.355 5.586-21.192 15.23-28.069l-283.59.24.063 74.47z"/><path id="_Compound_Path_3" data-name="&lt;Compound Path&gt;" class="cls-5" d="M180.852 103.29l17.504-.015-.024-28.517-17.504.014-.063-74.47-46.04.039L70.89 76.439l6.317 26.939 66.67-.057.015 17.012 36.973-.031zm-69.841-28.262l32.81-39.558.034 39.53z"/><path id="_Compound_Path_4" data-name="&lt;Compound Path&gt;" class="cls-5" d="M449.125 28.131c.013 15.34 8.28 24.38 18.905 30.272-14.745 6.306-23.586 16.343-23.572 33.06.01 11.703 5.464 21.535 14.773 28.604l84.028-.071c9.151-7.003 14.492-16.737 14.482-28.432-.015-17.503-9.66-26.739-23.629-33.217 10.615-5.91 18.867-14.963 18.855-29.91-.01-11.583-5.647-21.526-15.341-28.437l-73.27.062c-9.645 6.877-15.241 16.714-15.231 28.07zm51.912-10.074c10.424-.009 16.92 6.87 16.926 14.54.008 9.047-6.674 15.346-16.9 15.354s-16.92-6.476-16.928-15.129c-.006-8.063 6.478-14.756 16.902-14.765zm.046 54.675c11.604-.01 19.87 6.08 19.877 14.93.007 8.653-7.068 15.936-19.85 15.947s-19.87-7.26-19.877-15.52c-.008-9.243 8.247-15.348 19.85-15.357z"/></g></svg>