<svg id="Layer_1" data-name="Layer 1" xmlns="http://www.w3.org/2000/svg" xmlns:xlink="http://www.w3.org/1999/xlink" viewBox="0 0 632 120"><defs><style>.cls-69{fill:#fff}.cls-136{fill:#0b3038}.cls-138{fill:#afea00}.cls-139{fill:#020202;opacity:.04}.cls-140{fill:#6fa536}.cls-141{fill:#209688}</style><radialGradient id="radial-gradient" cx="-2190.14" cy="-4696.59" r="1.01" gradientTransform="matrix(-28.36, 0, 0, 19.29, -61458.88, 90734.03)" gradientUnits="userSpaceOnUse"><stop offset="0" stop-color="#757575"/><stop offset="0.05" stop-color="#6b6b6b"/><stop offset="0.28" stop-color="#3d3d3d"/><stop offset="0.48" stop-color="#1c1c1c"/><stop offset="0.66" stop-color="#070707"/><stop offset="0.77"/></radialGradient><radialGradient id="radial-gradient-2" cx="-2051.78" cy="-4913.03" r="1.01" gradientTransform="matrix(-114.85, 0, 0, 13.47, -235018.25, 66285.31)" xlink:href="#radial-gradient"/><radialGradient id="radial-gradient-3" cx="-2018.3" cy="-4915.87" r="1.01" gradientTransform="translate(232050.5 66285.31) scale(114.85 13.47)" xlink:href="#radial-gradient"/><radialGradient id="radial-gradient-4" cx="-2070.51" cy="-4819.84" r="1.01" gradientTransform="translate(102979.58 77405.3) scale(49.6 16.04)" xlink:href="#radial-gradient"/><radialGradient id="radial-gradient-5" cx="-2012.28" cy="-4772.81" r="0.75" gradientTransform="translate(132285.52 77337.37) scale(65.67 16.19)" xlink:href="#radial-gradient"/><radialGradient id="radial-gradient-6" cx="-2012.83" cy="-4769.12" r="1.01" gradientTransform="translate(132285.52 77337.37) scale(65.67 16.19)" xlink:href="#radial-gradient"/><radialGradient id="radial-gradient-7" cx="-2057.81" cy="-4697.48" r="1.01" gradientTransform="translate(58491.02 90734.03) scale(28.36 19.29)" xlink:href="#radial-gradient"/><radialGradient id="radial-gradient-8" cx="-1981.46" cy="-4726.6" r="0.75" gradientTransform="matrix(63.86, -19.27, 2.99, 15.75, 140742.99, 36375.64)" xlink:href="#radial-gradient"/><radialGradient id="radial-gradient-9" cx="-2008.6" cy="-4502.13" r="1.01" gradientTransform="translate(120877.57 115727.77) scale(60.04 25.7)" xlink:href="#radial-gradient"/><radialGradient id="radial-gradient-10" cx="-2048.22" cy="-4472.41" r="1.01" gradientTransform="translate(53415.78 136962.85) scale(25.93 30.62)" xlink:href="#radial-gradient"/><radialGradient id="radial-gradient-11" cx="-1989.64" cy="-4461.82" r="0.75" gradientTransform="matrix(58.39, -30.58, 2.73, 24.99, 128617.41, 50713.21)" xlink:href="#radial-gradient"/><radialGradient id="radial-gradient-12" cx="-2057.77" cy="-4699.58" r="0.75" gradientTransform="translate(58491.02 90734.03) scale(28.36 19.29)" xlink:href="#radial-gradient"/><radialGradient id="radial-gradient-13" cx="-2148.04" cy="-4817.46" r="1.01" gradientTransform="matrix(-49.6, 0, 0, 16.04, -105947.37, 77405.3)" xlink:href="#radial-gradient"/><radialGradient id="radial-gradient-14" cx="-2053.09" cy="-4698.42" r="0.75" gradientTransform="translate(58491.02 90734.03) scale(28.36 19.29)" xlink:href="#radial-gradient"/><radialGradient id="radial-gradient-15" cx="-2124.04" cy="-4635.87" r="1.01" gradientTransform="matrix(44.77, 15.69, -9.01, 17.08, 53874.6, 112559.69)" xlink:href="#radial-gradient"/><radialGradient id="radial-gradient-16" cx="-2315.88" cy="-4585.98" r="1.01" gradientTransform="matrix(19.33, 6.78, -10.73, 20.35, -3874.95, 109069.6)" xlink:href="#radial-gradient"/><radialGradient id="radial-gradient-17" cx="-2095.84" cy="-4730.34" r="0.75" gradientTransform="matrix(54.25, -5.06, -6.72, 17.32, 82429.59, 71403.72)" xlink:href="#radial-gradient"/><radialGradient id="radial-gradient-18" cx="-2144.08" cy="-4816.55" r="1.01" gradientTransform="matrix(-49.6, 0, 0, 16.04, -105947.37, 77405.3)" xlink:href="#radial-gradient"/><radialGradient id="radial-gradient-19" cx="-2067.86" cy="-4769.55" r="0.75" gradientTransform="matrix(-65.67, 0, 0, 16.19, -135253.51, 77337.37)" xlink:href="#radial-gradient"/><radialGradient id="radial-gradient-20" cx="-2069.54" cy="-4500.08" r="1.01" gradientTransform="matrix(-60.04, 0, 0, 25.7, -123855.51, 115727.77)" xlink:href="#radial-gradient"/><radialGradient id="radial-gradient-21" cx="-2188.96" cy="-4470.68" r="1.01" gradientTransform="matrix(-25.93, 0, 0, 30.62, -56383.65, 136962.85)" xlink:href="#radial-gradient"/><radialGradient id="radial-gradient-22" cx="-2048.84" cy="-4532.15" r="0.75" gradientTransform="matrix(-58.39, -30.58, -2.73, 24.99, -131585.33, 50713.21)" xlink:href="#radial-gradient"/><radialGradient id="radial-gradient-23" cx="-2186.45" cy="-4696.84" r="0.75" xlink:href="#radial-gradient"/><radialGradient id="radial-gradient-24" cx="-2072.81" cy="-4500.64" r="1.01" gradientTransform="matrix(-60.04, 0, 0, 25.7, -123855.51, 115727.77)" xlink:href="#radial-gradient"/><radialGradient id="radial-gradient-25" cx="-2060.91" cy="-4775.03" r="1.01" gradientTransform="matrix(-65.67, 0, 0, 16.19, -135253.51, 77337.37)" xlink:href="#radial-gradient"/><radialGradient id="radial-gradient-26" cx="-2169.15" cy="-4702.23" r="1.01" xlink:href="#radial-gradient"/><radialGradient id="radial-gradient-27" cx="-2062.32" cy="-4773.73" r="1.01" gradientTransform="matrix(-65.67, 0, 0, 16.19, -135253.51, 77337.37)" xlink:href="#radial-gradient"/><radialGradient id="radial-gradient-28" cx="-2172.42" cy="-4701.34" r="1.01" xlink:href="#radial-gradient"/><radialGradient id="radial-gradient-29" cx="-2029.38" cy="-4789.98" r="0.75" gradientTransform="matrix(-63.86, -19.27, -2.99, 15.75, -143710.81, 36375.64)" xlink:href="#radial-gradient"/><radialGradient id="radial-gradient-30" cx="-2167.7" cy="-4702.28" r="0.75" xlink:href="#radial-gradient"/><radialGradient id="radial-gradient-31" cx="-2098.01" cy="-4454.61" r="1.01" gradientTransform="matrix(42.55, -21.77, 4.21, 19.13, 108588.92, 39654.05)" xlink:href="#radial-gradient"/><radialGradient id="radial-gradient-32" cx="-2108.22" cy="-4555.63" r="1.01" gradientTransform="matrix(46.92, -3.76, -2.4, 19.5, 88314.86, 80973.13)" xlink:href="#radial-gradient"/><radialGradient id="radial-gradient-33" cx="-2065.69" cy="-4774.93" r="1.01" gradientTransform="matrix(-65.67, 0, 0, 16.19, -135253.51, 77337.37)" xlink:href="#radial-gradient"/><radialGradient id="radial-gradient-34" cx="-2180.22" cy="-4702.19" r="1.01" xlink:href="#radial-gradient"/><radialGradient id="radial-gradient-35" cx="-2196.52" cy="-4471.16" r="1.01" gradientTransform="matrix(-25.93, 0, 0, 30.62, -56383.65, 136962.85)" xlink:href="#radial-gradient"/><radialGradient id="radial-gradient-36" cx="-2032.6" cy="-4795.16" r="0.75" gradientTransform="matrix(-63.86, -19.27, -2.99, 15.75, -143710.81, 36375.64)" xlink:href="#radial-gradient"/><radialGradient id="radial-gradient-37" cx="-2110.19" cy="-4231.47" r="0.75" gradientTransform="matrix(-36.25, 26.55, 9.21, 12.59, -37063.17, 109355.78)" xlink:href="#radial-gradient"/><radialGradient id="radial-gradient-38" cx="-2081.74" cy="-4875.43" r="0.75" gradientTransform="matrix(-39.65, -20.04, -5.22, 15.04, -107529.03, 31666.65)" xlink:href="#radial-gradient"/><radialGradient id="radial-gradient-39" cx="-1690.12" cy="-4596.81" r="0.75" gradientTransform="matrix(37.9, -23.69, -8.36, -13.27, 26152.09, -100984.34)" xlink:href="#radial-gradient"/><radialGradient id="radial-gradient-40" cx="-1678.77" cy="-4393.14" r="0.75" gradientTransform="matrix(42.78, -9.93, -4.2, -15.41, 53932.72, -84345.16)" xlink:href="#radial-gradient"/><radialGradient id="radial-gradient-41" cx="-1737.59" cy="-3966.54" r="0.75" gradientTransform="matrix(38.64, 22.24, 5.93, -14.73, 91036.77, -19711.79)" xlink:href="#radial-gradient"/><radialGradient id="radial-gradient-42" cx="-1817.37" cy="-3776.97" r="0.75" gradientTransform="matrix(16.42, 30.97, 12.14, -9.22, 76055.17, 21517.12)" xlink:href="#radial-gradient"/><radialGradient id="radial-gradient-43" cx="-2206.63" cy="-4273.85" r="0.75" gradientTransform="matrix(-28.24, 18.42, 8.75, 12.97, -24579.49, 96180.15)" xlink:href="#radial-gradient"/><radialGradient id="radial-gradient-44" cx="-2200.12" cy="-4282.48" r="0.75" gradientTransform="matrix(-28.24, 18.42, 8.75, 12.97, -24579.49, 96180.15)" xlink:href="#radial-gradient"/><radialGradient id="radial-gradient-45" cx="-2211.17" cy="-4271.83" r="0.75" gradientTransform="matrix(-28.24, 18.42, 8.75, 12.97, -24579.49, 96180.15)" xlink:href="#radial-gradient"/><radialGradient id="radial-gradient-46" cx="-2051.99" cy="-4536.59" r="0.75" gradientTransform="matrix(-58.39, -30.58, -2.73, 24.99, -131585.33, 50713.21)" xlink:href="#radial-gradient"/><radialGradient id="radial-gradient-47" cx="-2226.05" cy="-4421.67" r="0.75" gradientTransform="matrix(-31.33, 11.1, 5.85, 14.77, -43427.74, 90038.18)" xlink:href="#radial-gradient"/><radialGradient id="radial-gradient-48" cx="-2224.16" cy="-4515.79" r="0.75" gradientTransform="matrix(-32.38, 6.64, 4.04, 15.46, -53446.72, 84671.28)" xlink:href="#radial-gradient"/><radialGradient id="radial-gradient-49" cx="-2124.06" cy="-4392.61" r="0.75" gradientTransform="matrix(-41.08, 16.31, 6.15, 14.63, -59841.77, 98952.78)" xlink:href="#radial-gradient"/><radialGradient id="radial-gradient-50" cx="-2051.6" cy="-4854.25" r="0.75" gradientTransform="matrix(-50.64, -21.49, -4.42, 15.34, -124936.49, 30465.01)" xlink:href="#radial-gradient"/><radialGradient id="radial-gradient-51" cx="-1738.18" cy="-4348.26" r="0.64" gradientTransform="matrix(56.98, -33.56, -17.13, -16.99, 24675.5, -132132.15)" xlink:href="#radial-gradient"/><radialGradient id="radial-gradient-52" cx="-2069.66" cy="-4774.66" r="1.01" gradientTransform="matrix(-65.67, 0, 0, 16.19, -135253.51, 77337.37)" xlink:href="#radial-gradient"/><radialGradient id="radial-gradient-53" cx="-2189.42" cy="-4702.12" r="1.01" xlink:href="#radial-gradient"/><radialGradient id="radial-gradient-54" cx="-2212.02" cy="-4853.42" r="2.82" gradientTransform="matrix(-8.65, 0, 0, 9.37, -18899.61, 45589.3)" gradientUnits="userSpaceOnUse"><stop offset="0" stop-color="#fff"/><stop offset="0.06" stop-color="#dadada"/><stop offset="0.15" stop-color="#a7a7a7"/><stop offset="0.24" stop-color="#7b7b7b"/><stop offset="0.34" stop-color="#555"/><stop offset="0.44" stop-color="#363636"/><stop offset="0.55" stop-color="#1e1e1e"/><stop offset="0.66" stop-color="#0d0d0d"/><stop offset="0.78" stop-color="#030303"/><stop offset="0.93"/></radialGradient><radialGradient id="radial-gradient-55" cx="-1988.97" cy="-5012.41" r="2.82" gradientTransform="matrix(-11.98, 0, 0, 8.7, -23666.98, 43631.73)" xlink:href="#radial-gradient-54"/><radialGradient id="radial-gradient-56" cx="-1998.32" cy="-5030.34" r="3.93" gradientTransform="matrix(-11.98, 0, 0, 8.37, -23666.98, 42154.2)" xlink:href="#radial-gradient-54"/><radialGradient id="radial-gradient-57" cx="-2193.24" cy="-4574.61" r="1.01" gradientTransform="matrix(-44.77, 15.69, 9.01, 17.08, -56842.47, 112559.69)" xlink:href="#radial-gradient"/><radialGradient id="radial-gradient-58" cx="-2023.96" cy="-5027.61" r="3.93" gradientTransform="matrix(-11.98, 0, 0, 8.37, -23666.98, 42154.2)" xlink:href="#radial-gradient-54"/><radialGradient id="radial-gradient-59" cx="-1982.88" cy="-5145.25" r="3.93" gradientTransform="matrix(-11.98, 0, 0, 6.34, -23666.98, 32645.66)" xlink:href="#radial-gradient-54"/><radialGradient id="radial-gradient-60" cx="-2013.4" cy="-5094.63" r="3.93" gradientTransform="matrix(-11.98, 0, 0, 7.08, -23666.98, 36116.79)" xlink:href="#radial-gradient-54"/><radialGradient id="radial-gradient-61" cx="-1765.34" cy="-5166.49" r="3.93" gradientTransform="matrix(-16.95, 0, 0, 6.14, -29563.04, 31736.37)" xlink:href="#radial-gradient-54"/><radialGradient id="radial-gradient-62" cx="-1804.53" cy="-4723.64" r="2.82" gradientTransform="matrix(-18.52, 0, 0, 18.27, -32997.53, 86422.67)" xlink:href="#radial-gradient-54"/><radialGradient id="radial-gradient-63" cx="-2166.01" cy="-4753.77" r="0.75" gradientTransform="matrix(-54.25, -5.06, 6.72, 17.32, -85397.47, 71403.72)" xlink:href="#radial-gradient"/><radialGradient id="radial-gradient-64" cx="-2011.41" cy="-4770.43" r="1.01" gradientTransform="translate(132285.52 77337.37) scale(65.67 16.19)" xlink:href="#radial-gradient"/><radialGradient id="radial-gradient-65" cx="-2054.54" cy="-4698.57" r="1.01" gradientTransform="translate(58491.02 90734.03) scale(28.36 19.29)" xlink:href="#radial-gradient"/><mask id="mask" x="620.02" y="108.89" width="57.33" height="38.99" maskUnits="userSpaceOnUse"><path d="M620 128.38c0 10.78 12.83 19.5 28.67 19.5s28.66-8.72 28.66-19.5-12.83-19.49-28.66-19.49S620 117.62 620 128.38z" style="fill:url(#radial-gradient)"/></mask><mask id="mask-2" x="522.12" y="109.15" width="232.19" height="27.22" maskUnits="userSpaceOnUse"><ellipse cx="638.21" cy="122.76" rx="116.09" ry="13.61" style="fill:url(#radial-gradient-2)"/></mask><mask id="mask-3" x="544.01" y="98.95" width="100.27" height="32.44" maskUnits="userSpaceOnUse"><path d="M544 115.18c0 9 22.45 16.21 50.14 16.21s50.13-7.26 50.13-16.21-22.45-16.23-50.13-16.23S544 106.21 544 115.18z" style="fill:url(#radial-gradient-13)"/></mask><mask id="mask-4" x="538.94" y="48.94" width="121.38" height="51.95" maskUnits="userSpaceOnUse"><ellipse cx="599.62" cy="74.91" rx="60.69" ry="25.97" style="fill:url(#radial-gradient-24)"/></mask><mask id="mask-5" x="543.91" y="43.96" width="52.42" height="61.9" maskUnits="userSpaceOnUse"><path d="M543.91 74.91c0 17.08 11.73 31 26.21 31s26.21-13.87 26.21-31S584.6 44 570.12 44s-26.21 13.82-26.21 30.91z" style="fill:url(#radial-gradient-35)"/></mask><mask id="mask-6" x="595.63" y="61.57" width="88.19" height="59.57" maskUnits="userSpaceOnUse"><path d="M595.68 68.3c-1.14 10.41 17.65 29.18 42 41.92s45 14.61 46.11 4.2-17.66-29.17-42-41.91-44.97-14.62-46.11-4.21z" style="fill:url(#radial-gradient-46)"/></mask><mask id="mask-7" x="86.35" y="1.19" width="92.33" height="46.88" maskUnits="userSpaceOnUse"><path d="M87.27 40.5c5 9.53 29.37 10.16 54.36 1.4s41.17-23.59 36.14-33.12S148.4-1.4 123.4 7.38 82.24 31 87.27 40.5z" style="fill:url(#radial-gradient-57)"/></mask><mask id="mask-8" x="126.93" y="0.47" width="82.48" height="27.23" maskUnits="userSpaceOnUse"><path d="M127.25 10.26c2.8 7.22 23.39 14.78 46 16.89s38.66-2 35.85-9.25-23.4-14.78-46-16.9-38.64 2.05-35.85 9.26z" style="fill:url(#radial-gradient-63)"/></mask><mask id="mask-9" x="137.26" y="82.92" width="132.75" height="32.73" maskUnits="userSpaceOnUse"><path d="M270 99.28c0 9-29.71 16.37-66.37 16.37s-66.37-7.33-66.37-16.37S167 82.92 203.63 82.92 270 90.24 270 99.28z" style="fill:url(#radial-gradient-64)"/></mask><mask id="mask-10" x="200.17" y="70.64" width="57.33" height="39.01" maskUnits="userSpaceOnUse"><ellipse cx="228.83" cy="90.15" rx="28.66" ry="19.5" style="fill:url(#radial-gradient-65)"/></mask><mask id="mask-11" x="123.2" y="70.92" width="232.19" height="27.23" maskUnits="userSpaceOnUse"><path d="M355.39 84.52c0 7.52-52 13.62-116.09 13.62S123.2 92 123.2 84.52s52-13.6 116.1-13.6S355.39 77 355.39 84.52z" style="fill:url(#radial-gradient-3)"/></mask><mask id="mask-12" x="233.23" y="60.71" width="100.27" height="32.44" maskUnits="userSpaceOnUse"><path d="M333.51 76.94c0 8.95-22.45 16.21-50.14 16.21s-50.13-7.27-50.13-16.21 22.45-16.22 50.13-16.22 50.14 7.28 50.14 16.22z" style="fill:url(#radial-gradient-4)"/></mask><mask id="mask-13" x="96.91" y="48.5" width="99.05" height="24.43" maskUnits="userSpaceOnUse"><path d="M196 60.71c0 6.75-22.17 12.21-49.52 12.21s-49.57-5.46-49.57-12.21 22.18-12.21 49.53-12.21S196 54 196 60.71z" style="fill:url(#radial-gradient-5)"/></mask><mask id="mask-14" x="44.42" y="104.03" width="132.75" height="32.74" maskUnits="userSpaceOnUse"><ellipse cx="110.8" cy="120.4" rx="66.38" ry="16.37" style="fill:url(#radial-gradient-6)"/></mask><mask id="mask-15" x="107.33" y="91.76" width="57.33" height="39.01" maskUnits="userSpaceOnUse"><path d="M164.66 111.26c0 10.78-12.84 19.51-28.67 19.51s-28.67-8.73-28.67-19.51 12.83-19.5 28.67-19.5 28.67 8.74 28.67 19.5z" style="fill:url(#radial-gradient-7)"/></mask><mask id="mask-16" x="18.73" y="112" width="96.45" height="37.54" maskUnits="userSpaceOnUse"><path d="M115.12 116.24c1.24 6.57-19.31 18.38-45.91 26.41s-49.18 9.2-50.43 2.66 19.31-18.39 45.91-26.43 49.18-9.2 50.43-2.64z" style="fill:url(#radial-gradient-8)"/></mask><mask id="mask-17" x="217.2" y="10.7" width="121.38" height="51.95" maskUnits="userSpaceOnUse"><path d="M338.58 36.69c0 14.34-27.17 26-60.69 26S217.2 51 217.2 36.69s27.17-26 60.69-26 60.69 11.64 60.69 26z" style="fill:url(#radial-gradient-9)"/></mask><mask id="mask-18" x="281.18" y="5.74" width="52.42" height="61.89" maskUnits="userSpaceOnUse"><path d="M333.6 36.69c0 17.08-11.73 30.94-26.21 30.94s-26.21-13.86-26.21-30.94 11.73-31 26.21-31 26.21 13.9 26.21 31z" style="fill:url(#radial-gradient-10)"/></mask><mask id="mask-19" x="193.7" y="23.35" width="88.19" height="59.56" maskUnits="userSpaceOnUse"><path d="M281.83 30.06c1.14 10.41-17.65 29.18-42 41.91s-45 14.61-46.11 4.21 17.66-29.17 42-41.91 44.98-14.61 46.11-4.21z" style="fill:url(#radial-gradient-11)"/></mask><mask id="mask-20" x="115.95" y="56.1" width="42.78" height="29.1" maskUnits="userSpaceOnUse"><path d="M158.72 70.64c0 8-9.58 14.56-21.39 14.56s-21.39-6.52-21.39-14.56 9.58-14.54 21.39-14.54 21.39 6.51 21.39 14.54z" style="fill:url(#radial-gradient-12)"/></mask><mask id="mask-21" x="248.62" y="78.59" width="42.78" height="29.11" maskUnits="userSpaceOnUse"><ellipse cx="270.01" cy="93.15" rx="21.39" ry="14.55" style="fill:url(#radial-gradient-14)"/></mask><mask id="mask-22" x="502.66" y="40.97" width="92.33" height="46.89" maskUnits="userSpaceOnUse"><path d="M594.07 80.27c-5 9.54-29.36 10.17-54.35 1.41s-41.18-23.6-36.15-33.13 29.36-10.16 54.35-1.4 41.18 23.59 36.15 33.12z" style="fill:url(#radial-gradient-15)"/></mask><mask id="mask-23" x="548.73" y="39.12" width="44.71" height="43.37" maskUnits="userSpaceOnUse"><path d="M590.62 67.66c-6 11.36-19.59 17.5-30.39 13.72S545.55 65.32 551.54 54s19.59-17.51 30.39-13.72 14.69 16.02 8.69 27.38z" style="fill:url(#radial-gradient-16)"/></mask><mask id="mask-24" x="471.92" y="51.26" width="82.48" height="27.23" maskUnits="userSpaceOnUse"><path d="M554.09 61.06c-2.8 7.21-23.39 14.77-46 16.87s-38.65-2-35.85-9.24 23.39-14.77 46-16.88 38.64 2.04 35.85 9.25z" style="fill:url(#radial-gradient-17)"/></mask><mask id="mask-25" x="347.84" y="113.5" width="100.27" height="32.45" maskUnits="userSpaceOnUse"><path d="M347.84 129.72c0 9 22.44 16.22 50.13 16.22s50.13-7.27 50.13-16.22-22.44-16.22-50.1-16.22-50.16 7.26-50.16 16.22z" style="fill:url(#radial-gradient-18)"/></mask><mask id="mask-26" x="485.37" y="101.28" width="99.06" height="24.43" maskUnits="userSpaceOnUse"><path d="M485.37 113.5c0 6.74 22.17 12.22 49.53 12.22s49.53-5.47 49.53-12.22-22.17-12.21-49.53-12.21-49.53 5.47-49.53 12.21z" style="fill:url(#radial-gradient-19)"/></mask><mask id="mask-27" x="342.76" y="63.5" width="121.38" height="51.94" maskUnits="userSpaceOnUse"><ellipse cx="403.45" cy="89.47" rx="60.69" ry="25.97" style="fill:url(#radial-gradient-20)"/></mask><mask id="mask-28" x="347.74" y="58.52" width="52.42" height="61.89" maskUnits="userSpaceOnUse"><ellipse cx="373.95" cy="89.46" rx="26.21" ry="30.94" style="fill:url(#radial-gradient-21)"/></mask><mask id="mask-29" x="399.46" y="76.13" width="88.18" height="59.57" maskUnits="userSpaceOnUse"><path d="M399.51 82.85c-1.14 10.41 17.65 29.18 42 41.92s45 14.62 46.11 4.21-17.66-29.17-42-41.91-44.98-14.62-46.11-4.22z" style="fill:url(#radial-gradient-22)"/></mask><mask id="mask-30" x="522.62" y="108.89" width="42.78" height="29.11" maskUnits="userSpaceOnUse"><path d="M522.62 123.43c0 8 9.58 14.56 21.39 14.56s21.39-6.51 21.39-14.56-9.58-14.54-21.39-14.54-21.39 6.51-21.39 14.54z" style="fill:url(#radial-gradient-23)"/></mask><mask id="mask-31" x="12.23" y="8.32" width="132.75" height="32.74" maskUnits="userSpaceOnUse"><ellipse cx="78.61" cy="24.69" rx="66.37" ry="16.37" style="fill:url(#radial-gradient-25)"/></mask><mask id="mask-32" x="24.75" y="0.05" width="57.33" height="39.01" maskUnits="userSpaceOnUse"><ellipse cx="53.41" cy="19.56" rx="28.67" ry="19.5" style="fill:url(#radial-gradient-26)"/></mask><mask id="mask-33" x="105.06" y="29.44" width="132.75" height="32.73" maskUnits="userSpaceOnUse"><ellipse cx="171.44" cy="45.81" rx="66.37" ry="16.37" style="fill:url(#radial-gradient-27)"/></mask><mask id="mask-34" x="117.58" y="17.17" width="57.33" height="39" maskUnits="userSpaceOnUse"><ellipse cx="146.24" cy="36.68" rx="28.66" ry="19.5" style="fill:url(#radial-gradient-28)"/></mask><mask id="mask-35" x="167.07" y="37.41" width="96.45" height="37.54" maskUnits="userSpaceOnUse"><path d="M167.12 41.64C165.88 48.2 186.43 60 213 68.05s49.18 9.22 50.43 2.66-19.28-18.39-45.88-26.41-49.18-9.21-50.43-2.66z" style="fill:url(#radial-gradient-29)"/></mask><mask id="mask-36" x="-9.16" y="4" width="42.78" height="29.11" maskUnits="userSpaceOnUse"><ellipse cx="12.23" cy="18.55" rx="21.39" ry="14.55" style="fill:url(#radial-gradient-30)"/></mask><mask id="mask-37" x="508.27" y="59.61" width="86.44" height="58.59" maskUnits="userSpaceOnUse"><path d="M594.5 66.9c2.35 10.68-15 29.19-38.75 41.34s-44.92 13.34-47.27 2.66 15-29.19 38.75-41.34 44.92-13.34 47.27-2.66z" style="fill:url(#radial-gradient-31)"/></mask><mask id="mask-38" x="300.16" y="52.85" width="94.98" height="40.15" maskUnits="userSpaceOnUse"><path d="M395.08 69.13c-1.35 10.87-23.66 21.41-49.86 23.51s-46.34-5-45-15.91 23.67-21.41 49.86-23.51 46.34 5.03 45 15.91z" style="fill:url(#radial-gradient-32)"/></mask><mask id="mask-39" x="326.21" y="10" width="132.75" height="32.74" maskUnits="userSpaceOnUse"><path d="M326.21 26.37c0 9 29.72 16.37 66.38 16.37S459 35.41 459 26.37 429.24 10 392.59 10s-66.38 7.33-66.38 16.37z" style="fill:url(#radial-gradient-33)"/></mask><mask id="mask-40" x="338.73" y="0.73" width="57.33" height="39" maskUnits="userSpaceOnUse"><ellipse cx="367.39" cy="20.24" rx="28.66" ry="19.5" style="fill:url(#radial-gradient-34)"/></mask><mask id="mask-41" x="388.22" y="17.97" width="96.44" height="37.54" maskUnits="userSpaceOnUse"><path d="M388.27 22.2c-1.25 6.56 19.31 18.39 45.91 26.41s49.18 9.21 50.43 2.66-19.31-18.38-45.92-26.41-49.17-9.21-50.42-2.66z" style="fill:url(#radial-gradient-36)"/></mask><mask id="mask-42" x="420.81" y="33.21" width="56.44" height="44.33" maskUnits="userSpaceOnUse"><path d="M421.68 75.4c3.84 5.25 19.19.54 34.29-10.52s24.23-24.28 20.4-29.52-19.2-.54-34.3 10.52-24.22 24.27-20.39 29.52z" style="fill:url(#radial-gradient-37)"/></mask><mask id="mask-43" x="448.49" y="37.13" width="60.33" height="37.81" maskUnits="userSpaceOnUse"><path d="M448.75 40.91c-2.18 6.27 9.44 18.11 26 26.46s31.67 10 33.84 3.78-9.45-18.12-26-26.46-31.66-10.05-33.84-3.78z" style="fill:url(#radial-gradient-38)"/></mask><mask id="mask-44" x="511.92" y="26.13" width="58.57" height="40.96" maskUnits="userSpaceOnUse"><path d="M569.79 28.75c-3.49-5.53-19.11-2-34.89 7.85s-25.77 22.34-22.29 27.87 19.11 2 34.9-7.86 25.76-22.33 22.28-27.86z" style="fill:url(#radial-gradient-39)"/></mask><mask id="mask-45" x="538.42" y="15.46" width="64.86" height="27.66" maskUnits="userSpaceOnUse"><path d="M603.12 21.8c-1.76-6.43-17.61-8.28-35.44-4.15s-30.85 12.7-29.11 19.11S556.2 45 574 40.91s30.87-12.69 29.12-19.11z" style="fill:url(#radial-gradient-40)"/></mask><mask id="mask-46" x="330.48" y="47.15" width="58.98" height="40.25" maskUnits="userSpaceOnUse"><path d="M389.11 84.05c2.48-6.14-8.57-18.62-24.66-27.89s-31.15-11.8-33.62-5.67 8.58 18.62 24.67 27.89 31.15 11.81 33.61 5.67z" style="fill:url(#radial-gradient-41)"/></mask><mask id="mask-47" x="326.03" y="21.92" width="30.81" height="48.77" maskUnits="userSpaceOnUse"><path d="M353.82 69.67c5.07-3.84 3.62-17.42-3.22-30.32s-16.48-20.25-21.54-16.41-3.62 17.42 3.22 30.32 16.49 20.25 21.54 16.41z" style="fill:url(#radial-gradient-42)"/></mask><mask id="mask-48" x="314.51" y="58.1" width="44.61" height="33.99" maskUnits="userSpaceOnUse"><path d="M315.52 89c3.65 5.41 16.14 3.57 27.9-4.1s18.34-18.28 14.7-23.68-16.14-3.56-27.9 4.11-18.35 18.26-14.7 23.67z" style="fill:url(#radial-gradient-43)"/></mask><mask id="mask-49" x="55.33" y="65.92" width="44.61" height="33.99" maskUnits="userSpaceOnUse"><path d="M56.34 96.81c3.65 5.41 16.14 3.57 27.9-4.1S102.58 74.43 98.94 69 82.8 65.46 71 73.14 52.69 91.42 56.34 96.81z" style="fill:url(#radial-gradient-44)"/></mask><mask id="mask-50" x="460.36" y="0.65" width="44.61" height="33.99" maskUnits="userSpaceOnUse"><path d="M461.37 31.53c3.64 5.41 16.13 3.57 27.9-4.1S507.61 9.15 504 3.75 487.83.19 476.07 7.86s-18.35 18.28-14.7 23.67z" style="fill:url(#radial-gradient-45)"/></mask><mask id="mask-51" x="434.1" y="12.04" width="48.09" height="27.87" maskUnits="userSpaceOnUse"><path d="M434.51 34.35c2.44 6.16 15 7.4 28 2.77s21.65-13.36 19.22-19.51-15-7.4-28-2.77-21.66 13.36-19.22 19.51z" style="fill:url(#radial-gradient-47)"/></mask><mask id="mask-52" x="290.45" y="68.75" width="49.24" height="25.39" maskUnits="userSpaceOnUse"><path d="M290.65 86.45c1.69 6.45 14 9.43 27.48 6.66s23.06-10.23 21.38-16.66-14-9.45-27.51-6.66S289 80 290.65 86.45z" style="fill:url(#radial-gradient-48)"/></mask><mask id="mask-53" x="390.06" y="53.31" width="62.68" height="33.04" maskUnits="userSpaceOnUse"><path d="M390.41 82.13c2.56 6.1 18.51 5.52 35.62-1.27s28.91-17.24 26.36-23.33-18.51-5.53-35.63 1.27-28.91 17.2-26.35 23.33z" style="fill:url(#radial-gradient-49)"/></mask><mask id="mask-54" x="356.6" y="56.81" width="76.68" height="39.84" maskUnits="userSpaceOnUse"><path d="M356.74 60.51c-1.84 6.4 13.76 18.83 34.86 27.78s39.69 11 41.53 4.64-13.77-18.83-34.86-27.78-39.69-11.03-41.53-4.64z" style="fill:url(#radial-gradient-50)"/></mask><mask id="mask-55" x="64.45" y="44.69" width="76.13" height="48.12" maskUnits="userSpaceOnUse"><path d="M139 47.29c-6-6-27.27-1.26-47.4 10.59S60 84.22 66.07 90.21s27.27 1.25 47.4-10.6S145 53.3 139 47.29z" style="fill:url(#radial-gradient-51)"/></mask><mask id="mask-56" x="587.11" y="14.47" width="132.75" height="32.73" maskUnits="userSpaceOnUse"><ellipse cx="653.48" cy="30.83" rx="66.38" ry="16.36" style="fill:url(#radial-gradient-52)"/></mask><mask id="mask-57" x="599.63" y="2.19" width="57.33" height="39.01" maskUnits="userSpaceOnUse"><ellipse cx="628.29" cy="21.7" rx="28.66" ry="19.5" style="fill:url(#radial-gradient-53)"/></mask><mask id="mask-58" x="204.41" y="70.64" width="48.85" height="52.95" maskUnits="userSpaceOnUse"><ellipse cx="228.83" cy="97.12" rx="24.42" ry="26.47" style="fill:url(#radial-gradient-54)"/></mask><mask id="mask-59" x="124.24" y="0.05" width="67.67" height="49.14" maskUnits="userSpaceOnUse"><ellipse cx="158.08" cy="24.62" rx="33.83" ry="24.57" style="fill:url(#radial-gradient-55)"/></mask><mask id="mask-60" x="223.03" y="11.05" width="94.17" height="65.81" maskUnits="userSpaceOnUse"><ellipse cx="270.12" cy="43.95" rx="47.08" ry="32.9" style="fill:url(#radial-gradient-56)"/></mask><mask id="mask-61" x="530.13" y="33.85" width="94.17" height="65.8" maskUnits="userSpaceOnUse"><ellipse cx="577.21" cy="66.75" rx="47.08" ry="32.9" style="fill:url(#radial-gradient-58)"/></mask><mask id="mask-62" x="38.12" y="21.85" width="94.17" height="49.8" maskUnits="userSpaceOnUse"><ellipse cx="85.2" cy="46.75" rx="47.08" ry="24.9" style="fill:url(#radial-gradient-59)"/></mask><mask id="mask-63" x="403.71" y="18.5" width="94.16" height="55.66" maskUnits="userSpaceOnUse"><ellipse cx="450.79" cy="46.33" rx="47.08" ry="27.83" style="fill:url(#radial-gradient-60)"/></mask><mask id="mask-64" x="293.9" y="2.65" width="133.25" height="48.24" maskUnits="userSpaceOnUse"><ellipse cx="360.53" cy="26.77" rx="66.63" ry="24.12" style="fill:url(#radial-gradient-61)"/></mask><mask id="mask-65" x="374.89" y="52.72" width="104.63" height="103.23" maskUnits="userSpaceOnUse"><path d="M374.89 104.35c0 28.51 23.42 51.6 52.32 51.6s52.32-23.1 52.32-51.6-23.43-51.63-52.32-51.63-52.32 23.12-52.32 51.63z" style="fill:url(#radial-gradient-62)"/></mask></defs><title>find-a-coin</title><rect width="632" height="120" style="fill:#104252"/><g style="opacity:.1"><g style="mask:url(#mask)"><path class="cls-69" d="M622.86 120a23.42 23.42 0 0 1 8.47-7.12V120z"/></g><g style="mask:url(#mask-2)"><path class="cls-69" d="M524.57 120c10.44-5.93 53.81-10.45 106.76-10.82V120z"/></g><g style="mask:url(#mask-3)"><path class="cls-69" d="M546.32 120a7.05 7.05 0 0 1-2.31-4.82c0-9 22.45-16.23 50.14-16.23 14.75 0 28 2.06 37.19 5.35V120z"/></g><g style="mask:url(#mask-4)"><path class="cls-69" d="M599.62 48.94a126.28 126.28 0 0 1 31.71 3.83v44.3a126.55 126.55 0 0 1-31.71 3.83c-33.52 0-60.69-11.63-60.69-26s27.17-25.96 60.69-25.96z"/></g><g style="mask:url(#mask-5)"><path class="cls-69" d="M543.91 74.91c0 17.08 11.73 31 26.21 31s26.21-13.87 26.21-31S584.6 44 570.12 44s-26.21 13.82-26.21 30.91z"/></g><g style="mask:url(#mask-6)"><path class="cls-69" d="M595.68 68.3c1-8.88 16.12-8.81 35.65-.69v39.09c-21.17-12.49-36.69-28.92-35.65-38.4z"/></g><g style="mask:url(#mask-7)"><path class="cls-69" d="M87.27 40.5c5 9.53 29.37 10.16 54.36 1.4s41.17-23.59 36.14-33.12S148.4-1.4 123.4 7.38 82.24 31 87.27 40.5z"/></g><g style="mask:url(#mask-8)"><path class="cls-69" d="M127.25 10.26c2.8 7.22 23.39 14.78 46 16.89s38.66-2 35.85-9.25-23.4-14.78-46-16.9-38.64 2.05-35.85 9.26z"/></g><g style="mask:url(#mask-9)"><path class="cls-69" d="M270 99.28c0 9-29.71 16.37-66.37 16.37s-66.37-7.33-66.37-16.37S167 82.92 203.63 82.92 270 90.24 270 99.28z"/></g><g style="mask:url(#mask-10)"><ellipse class="cls-69" cx="228.83" cy="90.15" rx="28.66" ry="19.5"/></g><g style="mask:url(#mask-11)"><path class="cls-69" d="M355.39 84.52c0 7.52-52 13.62-116.09 13.62S123.2 92 123.2 84.52s52-13.6 116.1-13.6S355.39 77 355.39 84.52z"/></g><g style="mask:url(#mask-12)"><path class="cls-69" d="M333.51 76.94c0 8.95-22.45 16.21-50.14 16.21s-50.13-7.27-50.13-16.21 22.45-16.22 50.13-16.22 50.14 7.28 50.14 16.22z"/></g><g style="mask:url(#mask-13)"><path class="cls-69" d="M196 60.71c0 6.75-22.17 12.21-49.52 12.21s-49.57-5.46-49.57-12.21 22.18-12.21 49.53-12.21S196 54 196 60.71z"/></g><g style="mask:url(#mask-14)"><path class="cls-69" d="M44.48 120c.87-8.85 30.22-16 66.33-16s65.45 7.12 66.32 16z"/></g><g style="mask:url(#mask-15)"><path class="cls-69" d="M110.41 120a14.61 14.61 0 0 1-3.08-8.74c0-10.76 12.83-19.5 28.67-19.5s28.67 8.74 28.67 19.5a14.59 14.59 0 0 1-3.08 8.74z"/></g><g style="mask:url(#mask-16)"><path class="cls-69" d="M61.16 120c1.17-.37 2.34-.75 3.53-1.11 26.61-8 49.18-9.21 50.43-2.65a5.14 5.14 0 0 1-1.21 3.76z"/></g><g style="mask:url(#mask-17)"><path class="cls-69" d="M338.58 36.69c0 14.34-27.17 26-60.69 26S217.2 51 217.2 36.69s27.17-26 60.69-26 60.69 11.64 60.69 26z"/></g><g style="mask:url(#mask-18)"><path class="cls-69" d="M333.6 36.69c0 17.08-11.73 30.94-26.21 30.94s-26.21-13.86-26.21-30.94 11.73-31 26.21-31 26.21 13.9 26.21 31z"/></g><g style="mask:url(#mask-19)"><path class="cls-69" d="M281.83 30.06c1.14 10.41-17.65 29.18-42 41.91s-45 14.61-46.11 4.21 17.66-29.17 42-41.91 44.98-14.61 46.11-4.21z"/></g><g style="mask:url(#mask-20)"><path class="cls-69" d="M158.72 70.64c0 8-9.58 14.56-21.39 14.56s-21.39-6.52-21.39-14.56 9.58-14.54 21.39-14.54 21.39 6.51 21.39 14.54z"/></g><g style="mask:url(#mask-21)"><ellipse class="cls-69" cx="270.01" cy="93.15" rx="21.39" ry="14.55"/></g><g style="mask:url(#mask-22)"><path class="cls-69" d="M594.07 80.27c-5 9.54-29.36 10.17-54.35 1.41s-41.18-23.6-36.15-33.13 29.36-10.16 54.35-1.4 41.18 23.59 36.15 33.12z"/></g><g style="mask:url(#mask-23)"><path class="cls-69" d="M590.62 67.66c-6 11.36-19.59 17.5-30.39 13.72S545.55 65.32 551.54 54s19.59-17.51 30.39-13.72 14.69 16.02 8.69 27.38z"/></g><g style="mask:url(#mask-24)"><path class="cls-69" d="M554.09 61.06c-2.8 7.21-23.39 14.77-46 16.87s-38.65-2-35.85-9.24 23.39-14.77 46-16.88 38.64 2.04 35.85 9.25z"/></g><g style="mask:url(#mask-25)"><path class="cls-69" d="M357.91 120c9.14-3.94 23.65-6.5 40.06-6.5s30.91 2.56 40.05 6.5z"/></g><g style="mask:url(#mask-26)"><path class="cls-69" d="M576.78 120H493c-4.83-1.88-7.65-4.11-7.65-6.5 0-6.73 22.17-12.21 49.53-12.21s49.53 5.48 49.53 12.21c.02 2.39-2.8 4.62-7.63 6.5z"/></g><g style="mask:url(#mask-27)"><ellipse class="cls-69" cx="403.45" cy="89.47" rx="60.69" ry="25.97"/></g><g style="mask:url(#mask-28)"><path class="cls-69" d="M377.95 120h-8c-12.57-2.27-22.21-15.05-22.21-30.54 0-17.09 11.73-30.95 26.21-30.95s26.21 13.86 26.21 30.95c0 15.49-9.65 28.27-22.21 30.54z"/></g><g style="mask:url(#mask-29)"><path class="cls-69" d="M433.1 120c-20.11-12.3-34.6-28-33.6-37.15 1.14-10.4 21.78-8.52 46.1 4.22 18.4 9.6 33.53 22.64 39.4 32.93z"/></g><g style="mask:url(#mask-30)"><path class="cls-69" d="M523.24 120c2.27-6.37 10.69-11.11 20.76-11.11s18.5 4.74 20.77 11.11z"/></g><g style="mask:url(#mask-31)"><ellipse class="cls-69" cx="78.61" cy="24.69" rx="66.37" ry="16.37"/></g><g style="mask:url(#mask-32)"><ellipse class="cls-69" cx="53.41" cy="19.56" rx="28.67" ry="19.5"/></g><g style="mask:url(#mask-33)"><ellipse class="cls-69" cx="171.44" cy="45.81" rx="66.37" ry="16.37"/></g><g style="mask:url(#mask-34)"><ellipse class="cls-69" cx="146.24" cy="36.68" rx="28.66" ry="19.5"/></g><g style="mask:url(#mask-35)"><path class="cls-69" d="M167.12 41.64C165.88 48.2 186.43 60 213 68.05s49.18 9.22 50.43 2.66-19.28-18.39-45.88-26.41-49.18-9.21-50.43-2.66z"/></g><g style="mask:url(#mask-36)"><path class="cls-69" d="M0 6.7A28.28 28.28 0 0 1 12.23 4C24 4 33.62 10.51 33.62 18.55S24 33.1 12.23 33.1A28.36 28.36 0 0 1 0 30.41z"/></g><g style="mask:url(#mask-37)"><path class="cls-69" d="M594.5 66.9c2.35 10.68-15 29.19-38.75 41.34s-44.92 13.34-47.27 2.66 15-29.19 38.75-41.34 44.92-13.34 47.27-2.66z"/></g><g style="mask:url(#mask-38)"><path class="cls-69" d="M395.08 69.13c-1.35 10.87-23.66 21.41-49.86 23.51s-46.34-5-45-15.91 23.67-21.41 49.86-23.51 46.34 5.03 45 15.91z"/></g><g style="mask:url(#mask-39)"><path class="cls-69" d="M326.21 26.37c0 9 29.72 16.37 66.38 16.37S459 35.41 459 26.37 429.24 10 392.59 10s-66.38 7.33-66.38 16.37z"/></g><g style="mask:url(#mask-40)"><ellipse class="cls-69" cx="367.39" cy="20.24" rx="28.66" ry="19.5"/></g><g style="mask:url(#mask-41)"><path class="cls-69" d="M388.27 22.2c-1.25 6.56 19.31 18.39 45.91 26.41s49.18 9.21 50.43 2.66-19.31-18.38-45.92-26.41-49.17-9.21-50.42-2.66z"/></g><g style="mask:url(#mask-42)"><path class="cls-69" d="M421.68 75.4c3.84 5.25 19.19.54 34.29-10.52s24.23-24.28 20.4-29.52-19.2-.54-34.3 10.52-24.22 24.27-20.39 29.52z"/></g><g style="mask:url(#mask-43)"><path class="cls-69" d="M448.75 40.91c-2.18 6.27 9.44 18.11 26 26.46s31.67 10 33.84 3.78-9.45-18.12-26-26.46-31.66-10.05-33.84-3.78z"/></g><g style="mask:url(#mask-44)"><path class="cls-69" d="M569.79 28.75c-3.49-5.53-19.11-2-34.89 7.85s-25.77 22.34-22.29 27.87 19.11 2 34.9-7.86 25.76-22.33 22.28-27.86z"/></g><g style="mask:url(#mask-45)"><path class="cls-69" d="M603.12 21.8c-1.76-6.43-17.61-8.28-35.44-4.15s-30.85 12.7-29.11 19.11S556.2 45 574 40.91s30.87-12.69 29.12-19.11z"/></g><g style="mask:url(#mask-46)"><path class="cls-69" d="M389.11 84.05c2.48-6.14-8.57-18.62-24.66-27.89s-31.15-11.8-33.62-5.67 8.58 18.62 24.67 27.89 31.15 11.81 33.61 5.67z"/></g><g style="mask:url(#mask-47)"><path class="cls-69" d="M353.82 69.67c5.07-3.84 3.62-17.42-3.22-30.32s-16.48-20.25-21.54-16.41-3.62 17.42 3.22 30.32 16.49 20.25 21.54 16.41z"/></g><g style="mask:url(#mask-48)"><path class="cls-69" d="M315.52 89c3.65 5.41 16.14 3.57 27.9-4.1s18.34-18.28 14.7-23.68-16.14-3.56-27.9 4.11-18.35 18.26-14.7 23.67z"/></g><g style="mask:url(#mask-49)"><path class="cls-69" d="M56.34 96.81c3.65 5.41 16.14 3.57 27.9-4.1S102.58 74.43 98.94 69 82.8 65.46 71 73.14 52.69 91.42 56.34 96.81z"/></g><g style="mask:url(#mask-50)"><path class="cls-69" d="M461.37 31.53c3.64 5.41 16.13 3.57 27.9-4.1S507.61 9.15 504 3.75 487.83.19 476.07 7.86s-18.35 18.28-14.7 23.67z"/></g><g style="mask:url(#mask-51)"><path class="cls-69" d="M434.51 34.35c2.44 6.16 15 7.4 28 2.77s21.65-13.36 19.22-19.51-15-7.4-28-2.77-21.66 13.36-19.22 19.51z"/></g><g style="mask:url(#mask-52)"><path class="cls-69" d="M290.65 86.45c1.69 6.45 14 9.43 27.48 6.66s23.06-10.23 21.38-16.66-14-9.45-27.51-6.66S289 80 290.65 86.45z"/></g><g style="mask:url(#mask-53)"><path class="cls-69" d="M390.41 82.13c2.56 6.1 18.51 5.52 35.62-1.27s28.91-17.24 26.36-23.33-18.51-5.53-35.63 1.27-28.91 17.2-26.35 23.33z"/></g><g style="mask:url(#mask-54)"><path class="cls-69" d="M356.74 60.51c-1.84 6.4 13.76 18.83 34.86 27.78s39.69 11 41.53 4.64-13.77-18.83-34.86-27.78-39.69-11.03-41.53-4.64z"/></g><g style="mask:url(#mask-55)"><path class="cls-69" d="M139 47.29c-6-6-27.27-1.26-47.4 10.59S60 84.22 66.07 90.21s27.27 1.25 47.4-10.6S145 53.3 139 47.29z"/></g><g style="mask:url(#mask-56)"><path class="cls-69" d="M631.33 15.4v30.86C605.57 44 587.11 38 587.11 30.83s18.46-13.18 44.22-15.43z"/></g><g style="mask:url(#mask-57)"><path class="cls-69" d="M628.29 2.19q1.55 0 3 .11v38.78c-1 .07-2 .11-3 .11-15.83 0-28.66-8.73-28.66-19.5s12.83-19.5 28.66-19.5z"/></g><g style="mask:url(#mask-58)"><path class="cls-69" d="M241 120h-24.39a26.9 26.9 0 0 1-12.2-22.88c0-14.62 10.93-26.47 24.42-26.47s24.43 11.86 24.43 26.47A26.9 26.9 0 0 1 241 120z"/></g><g style="mask:url(#mask-59)"><ellipse class="cls-69" cx="158.08" cy="24.62" rx="33.83" ry="24.57"/></g><g style="mask:url(#mask-60)"><ellipse class="cls-69" cx="270.12" cy="43.95" rx="47.08" ry="32.9"/></g><g style="mask:url(#mask-61)"><ellipse class="cls-69" cx="577.21" cy="66.75" rx="47.08" ry="32.9"/></g><g style="mask:url(#mask-62)"><ellipse class="cls-69" cx="85.2" cy="46.75" rx="47.08" ry="24.9"/></g><g style="mask:url(#mask-63)"><ellipse class="cls-69" cx="450.79" cy="46.33" rx="47.08" ry="27.83"/></g><g style="mask:url(#mask-64)"><ellipse class="cls-69" cx="360.53" cy="26.77" rx="66.63" ry="24.12"/></g><g style="mask:url(#mask-65)"><path class="cls-69" d="M377.37 120a51 51 0 0 1-2.47-15.65c0-28.5 23.42-51.62 52.32-51.62s52.32 23.12 52.32 51.62A51 51 0 0 1 477 120z"/></g></g><ellipse cx="315.9" cy="60.5" rx="77.18" ry="50.3" style="stroke-width:2px;fill:none;stroke:#fff;stroke-miterlimit:10;opacity:.1"/><ellipse cx="315.9" cy="59.43" rx="58.11" ry="37.87" style="opacity:.25;fill:none;stroke:#fff;stroke-miterlimit:10"/><path class="cls-136" d="M317.71 36.6c22.13.4 39.84 12.4 39.54 26.74a17.79 17.79 0 0 1-1.43 6.58c-1.66 3.92-8.81 5.64-14.12 3.45L316.42 63l16.1 16.33c3.38 3.43.73 8.05-5.34 9.12a61.81 61.81 0 0 1-10.18.93c-22.13.2-40.7-11.24-41.38-25.54-.73-15.26 18.52-27.71 42.09-27.24z"/><path d="M317.71 32.2c22.13.44 39.84 12.44 39.53 26.74a17.79 17.79 0 0 1-1.43 6.58c-1.65 3.92-8.81 5.63-14.11 3.48l-25.27-10.4 16.1 16.33c3.38 3.43.73 8.05-5.34 9.12a61.81 61.81 0 0 1-10.18.93c-22.13.2-40.7-11.24-41.38-25.54-.74-15.26 18.51-27.7 42.08-27.24z" style="fill:#32d6bd"/><path class="cls-138" d="M330.45 49.78s5.19-8.82 9.84-4.37-3 8.93-2.82 10.42 6.63 0 6.63 4.22h-9.58z"/><path class="cls-138" d="M304.86 49.78S299.67 41 295 45.41s3 8.93 2.82 10.42-6.63 0-6.63 4.22h9.58z"/><path class="cls-138" d="M326.72 39.9h-18.34s-8.33 5.1-8.33 20.1h35c-.05-15-8.33-20.1-8.33-20.1z"/><path class="cls-69" d="M325.23 60a10.61 10.61 0 0 0 1.05-4.64c0-5.4-3.94-9.78-8.8-9.78s-8.8 4.38-8.8 9.78a10.61 10.61 0 0 0 1.05 4.64h15.5z"/><path class="cls-139" d="M300.05 60c0-14.92 8.33-20.08 8.33-20.08h1.42A31.14 31.14 0 0 0 302.64 60z"/><path class="cls-138" d="M334 18.58a19.88 19.88 0 0 0-16.4-10.09h-.11a19.88 19.88 0 0 0-16.42 10.09c-5.79 10.23.85 19.23 6.78 21.14 5.56 1.79 6.78 1.66 9.69 1.64s4.14.15 9.69-1.64c5.95-1.9 12.59-10.9 6.77-21.14z"/><path class="cls-140" d="M330 29.33v.5a3.06 3.06 0 0 1 1.11.21c-.45 1-2.88 4.73-13.53 4.83C306.91 34.76 304.47 31 304 30a3 3 0 0 1 1.12-.21v-.5a2.52 2.52 0 0 0-2.49 1.32l.47.18a1.47 1.47 0 0 1 .49-.56c.54 1.18 3.06 4.84 13.48 5h.93c10.45-.21 12.95-3.88 13.48-5.05a1.47 1.47 0 0 1 .5.57l.47-.18a2.52 2.52 0 0 0-2.45-1.24z"/><path class="cls-139" d="M321.24 9a17.85 17.85 0 0 0-3.63-.51h-.11a19.88 19.88 0 0 0-16.42 10.09 15 15 0 0 0-1.5 12.42s3.82-20.41 21.66-22z"/><circle class="cls-138" cx="327.72" cy="12.99" r="6.8"/><circle class="cls-69" cx="327.72" cy="12.99" r="3.27"/><circle cx="327.72" cy="12.99" r="2.31"/><circle class="cls-69" cx="329.25" cy="11.87" r="1.2"/><circle class="cls-138" cx="306.85" cy="12.99" r="6.8"/><circle class="cls-69" cx="306.85" cy="12.99" r="3.27"/><circle cx="306.85" cy="12.99" r="2.31"/><circle class="cls-69" cx="308.38" cy="11.87" r="1.2"/><ellipse class="cls-140" cx="319.18" cy="20.57" rx="0.9" ry="1.54" transform="translate(10.94 105.94) rotate(-19.17)"/><ellipse class="cls-140" cx="315.92" cy="20.57" rx="1.54" ry="0.9" transform="translate(192.75 312.21) rotate(-70.83)"/><path class="cls-136" d="M226.9 66.65c-16.09.32-29 9-28.74 19.44a12.93 12.93 0 0 0 1 4.78c1.21 2.85 6.41 4.1 10.27 2.51l18.37-7.56-11.7 11.87c-2.46 2.49-.53 5.85 3.88 6.63a44.94 44.94 0 0 0 7.4.67c16.09.14 29.59-8.18 30.09-18.57C258 75.36 244 66.31 226.9 66.65z"/><path class="cls-141" d="M226.9 63.45c-16.09.32-29 9-28.74 19.44a12.93 12.93 0 0 0 1 4.78c1.21 2.85 6.41 4.1 10.27 2.51l18.37-7.56-11.7 11.87c-2.46 2.49-.53 5.85 3.88 6.63a44.94 44.94 0 0 0 7.4.67c16.09.14 29.59-8.18 30.09-18.57C258 72.16 244 63.11 226.9 63.45z"/><path class="cls-136" d="M480.23 76.65c-16.09.32-29 9-28.74 19.44a12.93 12.93 0 0 0 1 4.78c1.21 2.85 6.41 4.1 10.27 2.51l18.37-7.56-11.7 11.87c-2.46 2.49-.53 5.85 3.88 6.63a44.94 44.94 0 0 0 7.4.67c16.09.14 29.59-8.18 30.09-18.57.57-11.06-13.43-20.11-30.57-19.77z"/><path class="cls-141" d="M480.23 73.45c-16.09.32-29 9-28.74 19.44a12.93 12.93 0 0 0 1 4.78c1.21 2.85 6.41 4.1 10.27 2.51l18.37-7.56-11.7 11.87c-2.46 2.49-.53 5.85 3.88 6.63a44.94 44.94 0 0 0 7.4.67c16.09.14 29.59-8.18 30.09-18.57.57-11.06-13.43-20.11-30.57-19.77z"/><path class="cls-136" d="M180.73 45.64c0-10-12.81-18-28.36-17.6-14.16.36-25.65 7.83-26.13 17-.35 6.77 5.21 12.72 13.62 15.86 3.68 1.38 8.37 0 9.3-2.64l4.33-12.61 4.33 12.61c.91 2.65 5.54 4 9.19 2.67 8.19-3.03 13.72-8.74 13.72-15.29z"/><path class="cls-141" d="M180.73 42.71c0-10-12.81-18-28.36-17.6-14.16.36-25.65 7.83-26.13 17-.35 6.77 5.21 12.72 13.62 15.86 3.68 1.38 8.37 0 9.3-2.64l4.33-12.61 4.33 12.61c.91 2.65 5.54 4 9.19 2.67 8.19-3 13.72-8.75 13.72-15.29z"/><path class="cls-136" d="M406.61 27.91c-16.09.32-29 9-28.74 19.44a12.93 12.93 0 0 0 1 4.78c1.21 2.85 6.41 4.1 10.27 2.51l18.37-7.56-11.7 11.87c-2.46 2.49-.53 5.85 3.88 6.63a44.94 44.94 0 0 0 7.4.67c16.09.14 29.59-8.18 30.09-18.57.57-11.07-13.43-20.11-30.57-19.77z"/><path class="cls-141" d="M406.61 24.71c-16.09.32-29 9-28.74 19.44a12.93 12.93 0 0 0 1 4.78c1.21 2.85 6.41 4.1 10.27 2.51l18.37-7.56-11.7 11.87c-2.46 2.49-.53 5.85 3.88 6.63a44.94 44.94 0 0 0 7.4.67c16.09.14 29.59-8.18 30.09-18.57.57-11.07-13.43-20.11-30.57-19.77z"/></svg>