<svg version="1.1" id="Layer_1" xmlns="http://www.w3.org/2000/svg" xmlns:xlink="http://www.w3.org/1999/xlink" x="0px" y="0px" viewBox="0 0 1920 1080" style="enable-background:new 0 0 1920 1080" xml:space="preserve"><style type="text/css">.st0{fill:#fbba01}.st1{opacity:.5}.st2{fill:#ffa022}.st5{fill:#f29400}</style><title>desktop_background</title><rect id="_Rectangle_" x="0.3" class="st0" width="1919.2" height="930"/><g class="st1"><rect x="333.9" y="0.5" class="st2" width="117.3" height="749.3"/><rect x="363.1" class="st0" width="8.4" height="750.3"/><rect x="413.3" class="st0" width="8.4" height="750.3"/><path class="st0" d="M401.4 10.2c0 5-4 9-9 9s-9-4-9-9 4-9 9-9 9 4 9 9z"/><path class="st0" d="M401.4 53.1c-.1 5-4.2 8.9-9.2 8.8s-8.9-4.2-8.8-9.2c.1-4.9 4.1-8.8 9-8.8 5 .1 9.1 4.2 9 9.2z"/><path class="st0" d="M401.4 96.1c-.1 5-4.2 8.9-9.2 8.8s-8.9-4.2-8.8-9.2c.1-4.9 4.1-8.8 9-8.8 5 .1 9.1 4.2 9 9.2z"/><path class="st0" d="M401.4 139c-.1 5-4.2 8.9-9.2 8.8s-8.9-4.2-8.8-9.2c.1-4.9 4.1-8.8 9-8.8 5 .1 9.1 4.2 9 9.2z"/><path class="st0" d="M401.4 181.9c-.1 5-4.2 8.9-9.2 8.8s-8.9-4.2-8.8-9.2c.1-4.9 4.1-8.8 9-8.8 5 .1 9.1 4.2 9 9.2z"/><path class="st0" d="M401.4 224.9c-.1 5-4.2 8.9-9.2 8.8s-8.9-4.2-8.8-9.2c.1-4.9 4.1-8.8 9-8.8 5 .1 9.1 4.2 9 9.2z"/><path class="st0" d="M401.4 267.8c-.1 5-4.2 8.9-9.2 8.8-5-.1-8.9-4.2-8.8-9.2.1-4.9 4.1-8.8 9-8.8 5 .1 9.1 4.2 9 9.2z"/><path class="st0" d="M401.4 310.7c-.1 5-4.2 8.9-9.2 8.8-5-.1-8.9-4.2-8.8-9.2.1-4.9 4.1-8.8 9-8.8 5 .1 9.1 4.2 9 9.2z"/><path class="st0" d="M401.4 353.7c-.1 5-4.2 8.9-9.2 8.8-5-.1-8.9-4.2-8.8-9.2.1-4.9 4.1-8.8 9-8.8 5 .1 9.1 4.2 9 9.2z"/><path class="st0" d="M401.4 396.6c-.1 5-4.2 8.9-9.2 8.8-5-.1-8.9-4.2-8.8-9.2.1-4.9 4.1-8.8 9-8.8 5 .1 9.1 4.2 9 9.2z"/><path class="st0" d="M401.4 439.5c-.1 5-4.2 8.9-9.2 8.8-5-.1-8.9-4.2-8.8-9.2.1-4.9 4.1-8.8 9-8.8 5 .1 9.1 4.2 9 9.2z"/><path class="st0" d="M401.4 482.5c-.1 5-4.2 8.9-9.2 8.8-5-.1-8.9-4.2-8.8-9.2.1-4.9 4.1-8.8 9-8.8 5 .1 9.1 4.2 9 9.2z"/><path class="st0" d="M401.4 525.4c-.1 5-4.2 8.9-9.2 8.8-5-.1-8.9-4.2-8.8-9.2.1-4.9 4.1-8.8 9-8.8 5 .1 9.1 4.2 9 9.2z"/><path class="st0" d="M401.4 568.3c-.1 5-4.2 8.9-9.2 8.8-5-.1-8.9-4.2-8.8-9.2.1-4.9 4.1-8.8 9-8.8 5 .1 9.1 4.2 9 9.2z"/><path class="st0" d="M401.4 611.3c-.1 5-4.2 8.9-9.2 8.8-5-.1-8.9-4.2-8.8-9.2.1-4.9 4.1-8.8 9-8.8 5 .1 9.1 4.2 9 9.2z"/><path class="st0" d="M401.4 654.2c-.1 5-4.2 8.9-9.2 8.8-5-.1-8.9-4.2-8.8-9.2.1-4.9 4.1-8.8 9-8.8 5 .1 9.1 4.2 9 9.2z"/><path class="st0" d="M401.4 697.1c-.1 5-4.2 8.9-9.2 8.8-5-.1-8.9-4.2-8.8-9.2.1-4.9 4.1-8.8 9-8.8 5 .1 9.1 4.2 9 9.2z"/><path class="st0" d="M401.4 740.1c-.1 5-4.2 8.9-9.2 8.8-5-.1-8.9-4.2-8.8-9.2.1-4.9 4.1-8.8 9-8.8 5 .1 9.1 4.2 9 9.2z"/></g><g class="st1"><rect x="496.5" y="0.5" class="st2" width="117.3" height="749.3"/><rect x="525.7" class="st0" width="8.4" height="750.3"/><rect x="576" class="st0" width="8.4" height="750.3"/><path class="st0" d="M564.1 10.2c0 5-4 9-9 9s-9-4-9-9 4-9 9-9c4.9 0 9 4 9 9z"/><path class="st0" d="M564.1 53.1c-.1 5-4.2 8.9-9.1 8.9-5-.1-8.9-4.2-8.9-9.1.1-4.9 4-8.8 8.9-8.9 5 0 9.1 4.1 9.1 9.1z"/><path class="st0" d="M564.1 96.1c-.1 5-4.2 8.9-9.2 8.8s-8.9-4.2-8.8-9.2c.1-4.9 4.1-8.8 9-8.8 5 .1 9 4.2 9 9.2z"/><path class="st0" d="M564.1 139c-.1 5-4.2 8.9-9.2 8.8s-8.9-4.2-8.8-9.2c.1-4.9 4.1-8.8 9-8.8 5 .1 9 4.2 9 9.2z"/><path class="st0" d="M564.1 181.9c-.1 5-4.2 8.9-9.2 8.8s-8.9-4.2-8.8-9.2c.1-4.9 4.1-8.8 9-8.8 5 .1 9 4.2 9 9.2z"/><path class="st0" d="M564.1 224.9c-.1 5-4.2 8.9-9.2 8.8s-8.9-4.2-8.8-9.2c.1-4.9 4.1-8.8 9-8.8 5 .1 9 4.2 9 9.2z"/><path class="st0" d="M564.1 267.8c-.1 5-4.2 8.9-9.2 8.8-5-.1-8.9-4.2-8.8-9.2.1-4.9 4.1-8.8 9-8.8 5 .1 9 4.2 9 9.2z"/><path class="st0" d="M564.1 310.7c-.1 5-4.2 8.9-9.2 8.8-5-.1-8.9-4.2-8.8-9.2.1-4.9 4.1-8.8 9-8.8 5 .1 9 4.2 9 9.2z"/><path class="st0" d="M564.1 353.7c-.1 5-4.2 8.9-9.2 8.8-5-.1-8.9-4.2-8.8-9.2.1-4.9 4.1-8.8 9-8.8 5 .1 9 4.2 9 9.2z"/><path class="st0" d="M564.1 396.6c-.1 5-4.2 8.9-9.2 8.8-5-.1-8.9-4.2-8.8-9.2.1-4.9 4.1-8.8 9-8.8 5 .1 9 4.2 9 9.2z"/><path class="st0" d="M564.1 439.5c-.1 5-4.2 8.9-9.2 8.8-5-.1-8.9-4.2-8.8-9.2.1-4.9 4.1-8.8 9-8.8 5 .1 9 4.2 9 9.2z"/><path class="st0" d="M564.1 482.5c-.1 5-4.2 8.9-9.2 8.8-5-.1-8.9-4.2-8.8-9.2.1-4.9 4.1-8.8 9-8.8 5 .1 9 4.2 9 9.2z"/><path class="st0" d="M564.1 525.4c-.1 5-4.2 8.9-9.2 8.8s-8.9-4.2-8.8-9.2c.1-4.9 4.1-8.8 9-8.8 5 .1 9 4.2 9 9.2z"/><path class="st0" d="M564.1 568.3c-.1 5-4.2 8.9-9.2 8.8s-8.9-4.2-8.8-9.2c.1-4.9 4.1-8.8 9-8.8 5 .1 9 4.2 9 9.2z"/><path class="st0" d="M564.1 611.3c-.1 5-4.2 8.9-9.2 8.8s-8.9-4.2-8.8-9.2c.1-4.9 4.1-8.8 9-8.8 5 .1 9 4.2 9 9.2z"/><path class="st0" d="M564.1 654.2c-.1 5-4.2 8.9-9.2 8.8s-8.9-4.2-8.8-9.2c.1-4.9 4.1-8.8 9-8.8 5 .1 9 4.2 9 9.2z"/><path class="st0" d="M564.1 697.1c-.1 5-4.2 8.9-9.2 8.8s-8.9-4.2-8.8-9.2c.1-4.9 4.1-8.8 9-8.8 5 .1 9 4.2 9 9.2z"/><path class="st0" d="M564.1 740.1c-.1 5-4.2 8.9-9.2 8.8s-8.9-4.2-8.8-9.2c.1-4.9 4.1-8.8 9-8.8 5 .1 9 4.2 9 9.2z"/></g><g class="st1"><rect x="659.2" y="0.5" class="st2" width="117.3" height="749.3"/><rect x="688.4" class="st0" width="8.4" height="750.3"/><rect x="738.6" class="st0" width="8.4" height="750.3"/><path class="st0" d="M726.7 10.2c0 5-4 9-9 9s-9-4-9-9 4-9 9-9 9 4 9 9z"/><path class="st0" d="M726.7 53.1c-.1 5-4.2 8.9-9.2 8.8s-8.9-4.2-8.8-9.2c.1-4.9 4.1-8.8 9-8.8 5 .1 9.1 4.2 9 9.2z"/><path class="st0" d="M726.7 96.1c-.1 5-4.2 8.9-9.2 8.8s-8.9-4.2-8.8-9.2c.1-4.9 4.1-8.8 9-8.8 5 .1 9.1 4.2 9 9.2z"/><path class="st0" d="M726.7 139c-.1 5-4.2 8.9-9.2 8.8s-8.9-4.2-8.8-9.2c.1-4.9 4.1-8.8 9-8.8 5 .1 9.1 4.2 9 9.2z"/><path class="st0" d="M726.7 181.9c-.1 5-4.2 8.9-9.2 8.8s-8.9-4.2-8.8-9.2c.1-4.9 4.1-8.8 9-8.8 5 .1 9.1 4.2 9 9.2z"/><path class="st0" d="M726.7 224.9c-.1 5-4.2 8.9-9.2 8.8s-8.9-4.2-8.8-9.2c.1-4.9 4.1-8.8 9-8.8 5 .1 9.1 4.2 9 9.2z"/><path class="st0" d="M726.7 267.8c-.1 5-4.2 8.9-9.2 8.8-5-.1-8.9-4.2-8.8-9.2.1-4.9 4.1-8.8 9-8.8 5 .1 9.1 4.2 9 9.2z"/><path class="st0" d="M726.7 310.7c-.1 5-4.2 8.9-9.2 8.8-5-.1-8.9-4.2-8.8-9.2.1-4.9 4.1-8.8 9-8.8 5 .1 9.1 4.2 9 9.2z"/><path class="st0" d="M726.7 353.7c-.1 5-4.2 8.9-9.2 8.8-5-.1-8.9-4.2-8.8-9.2.1-4.9 4.1-8.8 9-8.8 5 .1 9.1 4.2 9 9.2z"/><path class="st0" d="M726.7 396.6c-.1 5-4.2 8.9-9.2 8.8-5-.1-8.9-4.2-8.8-9.2.1-4.9 4.1-8.8 9-8.8 5 .1 9.1 4.2 9 9.2z"/><path class="st0" d="M726.7 439.5c-.1 5-4.2 8.9-9.2 8.8-5-.1-8.9-4.2-8.8-9.2.1-4.9 4.1-8.8 9-8.8 5 .1 9.1 4.2 9 9.2z"/><path class="st0" d="M726.7 482.5c-.1 5-4.2 8.9-9.2 8.8-5-.1-8.9-4.2-8.8-9.2.1-4.9 4.1-8.8 9-8.8 5 .1 9.1 4.2 9 9.2z"/><path class="st0" d="M726.7 525.4c-.1 5-4.2 8.9-9.2 8.8s-8.9-4.2-8.8-9.2c.1-4.9 4.1-8.8 9-8.8 5 .1 9.1 4.2 9 9.2z"/><path class="st0" d="M726.7 568.3c-.1 5-4.2 8.9-9.2 8.8s-8.9-4.2-8.8-9.2c.1-4.9 4.1-8.8 9-8.8 5 .1 9.1 4.2 9 9.2z"/><path class="st0" d="M726.7 611.3c-.1 5-4.2 8.9-9.2 8.8s-8.9-4.2-8.8-9.2c.1-4.9 4.1-8.8 9-8.8 5 .1 9.1 4.2 9 9.2z"/><path class="st0" d="M726.7 654.2c-.1 5-4.2 8.9-9.2 8.8s-8.9-4.2-8.8-9.2c.1-4.9 4.1-8.8 9-8.8 5 .1 9.1 4.2 9 9.2z"/><path class="st0" d="M726.7 697.1c-.1 5-4.2 8.9-9.2 8.8s-8.9-4.2-8.8-9.2c.1-4.9 4.1-8.8 9-8.8 5 .1 9.1 4.2 9 9.2z"/><path class="st0" d="M726.7 740.1c-.1 5-4.2 8.9-9.2 8.8s-8.9-4.2-8.8-9.2c.1-4.9 4.1-8.8 9-8.8 5 .1 9.1 4.2 9 9.2z"/></g><g class="st1"><rect x="821.9" y="0.5" class="st2" width="117.3" height="749.3"/><rect x="851" class="st0" width="8.4" height="750.3"/><rect x="901.3" class="st0" width="8.4" height="750.3"/><path class="st0" d="M889.4 10.2c0 5-4 9-9 9s-9-4-9-9 4-9 9-9c4.9 0 9 4 9 9z"/><path class="st0" d="M889.4 53.1c-.1 5-4.2 8.9-9.2 8.8s-8.9-4.2-8.8-9.2c.1-4.9 4.1-8.8 9-8.8 5 .1 9 4.2 9 9.2z"/><path class="st0" d="M889.4 96.1c-.1 5-4.2 8.9-9.2 8.8s-8.9-4.2-8.8-9.2c.1-4.9 4.1-8.8 9-8.8 5 .1 9 4.2 9 9.2z"/><path class="st0" d="M889.4 139c-.1 5-4.2 8.9-9.2 8.8s-8.9-4.2-8.8-9.2c.1-4.9 4.1-8.8 9-8.8 5 .1 9 4.2 9 9.2z"/><path class="st0" d="M889.4 181.9c-.1 5-4.2 8.9-9.2 8.8s-8.9-4.2-8.8-9.2c.1-4.9 4.1-8.8 9-8.8 5 .1 9 4.2 9 9.2z"/><path class="st0" d="M889.4 224.9c-.1 5-4.2 8.9-9.2 8.8s-8.9-4.2-8.8-9.2c.1-4.9 4.1-8.8 9-8.8 5 .1 9 4.2 9 9.2z"/><path class="st0" d="M889.4 267.8c-.1 5-4.2 8.9-9.2 8.8-5-.1-8.9-4.2-8.8-9.2.1-4.9 4.1-8.8 9-8.8 5 .1 9 4.2 9 9.2z"/><path class="st0" d="M889.4 310.7c-.1 5-4.2 8.9-9.2 8.8-5-.1-8.9-4.2-8.8-9.2.1-4.9 4.1-8.8 9-8.8 5 .1 9 4.2 9 9.2z"/><path class="st0" d="M889.4 353.7c-.1 5-4.2 8.9-9.2 8.8-5-.1-8.9-4.2-8.8-9.2.1-4.9 4.1-8.8 9-8.8 5 .1 9 4.2 9 9.2z"/><path class="st0" d="M889.4 396.6c-.1 5-4.2 8.9-9.2 8.8-5-.1-8.9-4.2-8.8-9.2.1-4.9 4.1-8.8 9-8.8 5 .1 9 4.2 9 9.2z"/><path class="st0" d="M889.4 439.5c-.1 5-4.2 8.9-9.2 8.8-5-.1-8.9-4.2-8.8-9.2.1-4.9 4.1-8.8 9-8.8 5 .1 9 4.2 9 9.2z"/><path class="st0" d="M889.4 482.5c-.1 5-4.2 8.9-9.2 8.8-5-.1-8.9-4.2-8.8-9.2.1-4.9 4.1-8.8 9-8.8 5 .1 9 4.2 9 9.2z"/><path class="st0" d="M889.4 525.4c-.1 5-4.2 8.9-9.2 8.8s-8.9-4.2-8.8-9.2c.1-4.9 4.1-8.8 9-8.8 5 .1 9 4.2 9 9.2z"/><path class="st0" d="M889.4 568.3c-.1 5-4.2 8.9-9.2 8.8s-8.9-4.2-8.8-9.2c.1-4.9 4.1-8.8 9-8.8 5 .1 9 4.2 9 9.2z"/><path class="st0" d="M889.4 611.3c-.1 5-4.2 8.9-9.2 8.8s-8.9-4.2-8.8-9.2c.1-4.9 4.1-8.8 9-8.8 5 .1 9 4.2 9 9.2z"/><path class="st0" d="M889.4 654.2c-.1 5-4.2 8.9-9.2 8.8s-8.9-4.2-8.8-9.2c.1-4.9 4.1-8.8 9-8.8 5 .1 9 4.2 9 9.2z"/><path class="st0" d="M889.4 697.1c-.1 5-4.2 8.9-9.2 8.8s-8.9-4.2-8.8-9.2c.1-4.9 4.1-8.8 9-8.8 5 .1 9 4.2 9 9.2z"/><path class="st0" d="M889.4 740.1c-.1 5-4.2 8.9-9.2 8.8s-8.9-4.2-8.8-9.2c.1-4.9 4.1-8.8 9-8.8 5 .1 9 4.2 9 9.2z"/></g><g class="st1"><rect x="984.5" y="0.5" class="st2" width="117.3" height="749.3"/><rect x="1013.7" class="st0" width="8.4" height="750.3"/><rect x="1063.9" class="st0" width="8.4" height="750.3"/><path class="st0" d="M1052 10.2c0 5-4 9-9 9s-9-4-9-9 4-9 9-9 9 4 9 9z"/><path class="st0" d="M1052 53.1c-.1 5-4.2 8.9-9.2 8.8-5-.1-8.9-4.2-8.8-9.2.1-4.9 4.1-8.8 9-8.8 5 .1 9 4.2 9 9.2z"/><path class="st0" d="M1052 96.1c-.1 5-4.2 8.9-9.2 8.8-5-.1-8.9-4.2-8.8-9.2.1-4.9 4.1-8.8 9-8.8 5 .1 9 4.2 9 9.2z"/><path class="st0" d="M1052 139c-.1 5-4.2 8.9-9.2 8.8-5-.1-8.9-4.2-8.8-9.2.1-4.9 4.1-8.8 9-8.8 5 .1 9 4.2 9 9.2z"/><path class="st0" d="M1052 181.9c-.1 5-4.2 8.9-9.2 8.8-5-.1-8.9-4.2-8.8-9.2.1-4.9 4.1-8.8 9-8.8 5 .1 9 4.2 9 9.2z"/><path class="st0" d="M1052 224.9c-.1 5-4.2 8.9-9.2 8.8-5-.1-8.9-4.2-8.8-9.2.1-4.9 4.1-8.8 9-8.8 5 .1 9 4.2 9 9.2z"/><path class="st0" d="M1052 267.8c-.1 5-4.2 8.9-9.2 8.8-5-.1-8.9-4.2-8.8-9.2.1-4.9 4.1-8.8 9-8.8 5 .1 9 4.2 9 9.2z"/><path class="st0" d="M1052 310.7c-.1 5-4.2 8.9-9.2 8.8-5-.1-8.9-4.2-8.8-9.2.1-4.9 4.1-8.8 9-8.8 5 .1 9 4.2 9 9.2z"/><path class="st0" d="M1052 353.7c-.1 5-4.2 8.9-9.2 8.8-5-.1-8.9-4.2-8.8-9.2.1-4.9 4.1-8.8 9-8.8 5 .1 9 4.2 9 9.2z"/><path class="st0" d="M1052 396.6c-.1 5-4.2 8.9-9.2 8.8-5-.1-8.9-4.2-8.8-9.2.1-4.9 4.1-8.8 9-8.8 5 .1 9 4.2 9 9.2z"/><path class="st0" d="M1052 439.5c-.1 5-4.2 8.9-9.2 8.8-5-.1-8.9-4.2-8.8-9.2.1-4.9 4.1-8.8 9-8.8 5 .1 9 4.2 9 9.2z"/><path class="st0" d="M1052 482.5c-.1 5-4.2 8.9-9.2 8.8-5-.1-8.9-4.2-8.8-9.2.1-4.9 4.1-8.8 9-8.8 5 .1 9 4.2 9 9.2z"/><path class="st0" d="M1052 525.4c-.1 5-4.2 8.9-9.2 8.8-5-.1-8.9-4.2-8.8-9.2.1-4.9 4.1-8.8 9-8.8 5 .1 9 4.2 9 9.2z"/><path class="st0" d="M1052 568.3c-.1 5-4.2 8.9-9.2 8.8-5-.1-8.9-4.2-8.8-9.2.1-4.9 4.1-8.8 9-8.8 5 .1 9 4.2 9 9.2z"/><path class="st0" d="M1052 611.3c-.1 5-4.2 8.9-9.2 8.8-5-.1-8.9-4.2-8.8-9.2.1-4.9 4.1-8.8 9-8.8 5 .1 9 4.2 9 9.2z"/><path class="st0" d="M1052 654.2c-.1 5-4.2 8.9-9.2 8.8-5-.1-8.9-4.2-8.8-9.2.1-4.9 4.1-8.8 9-8.8 5 .1 9 4.2 9 9.2z"/><path class="st0" d="M1052 697.1c-.1 5-4.2 8.9-9.2 8.8-5-.1-8.9-4.2-8.8-9.2.1-4.9 4.1-8.8 9-8.8 5 .1 9 4.2 9 9.2z"/><path class="st0" d="M1052 740.1c-.1 5-4.2 8.9-9.2 8.8-5-.1-8.9-4.2-8.8-9.2.1-4.9 4.1-8.8 9-8.8 5 .1 9 4.2 9 9.2z"/></g><g class="st1"><rect x="1147.2" y="0.5" class="st2" width="117.3" height="749.3"/><rect x="1176.4" class="st0" width="8.4" height="750.3"/><rect x="1226.6" class="st0" width="8.4" height="750.3"/><path class="st0" d="M1214.7 10.2c0 5-4 9-9 9s-9-4-9-9 4-9 9-9 9 4 9 9z"/><path class="st0" d="M1214.7 53.1c-.1 5-4.2 8.9-9.2 8.8-5-.1-8.9-4.2-8.8-9.2.1-4.9 4.1-8.8 9-8.8 5 .1 9 4.2 9 9.2z"/><path class="st0" d="M1214.7 96.1c-.1 5-4.2 8.9-9.2 8.8-5-.1-8.9-4.2-8.8-9.2.1-4.9 4.1-8.8 9-8.8 5 .1 9 4.2 9 9.2z"/><path class="st0" d="M1214.7 139c-.1 5-4.2 8.9-9.2 8.8-5-.1-8.9-4.2-8.8-9.2.1-4.9 4.1-8.8 9-8.8 5 .1 9 4.2 9 9.2z"/><path class="st0" d="M1214.7 181.9c-.1 5-4.2 8.9-9.2 8.8-5-.1-8.9-4.2-8.8-9.2.1-4.9 4.1-8.8 9-8.8 5 .1 9 4.2 9 9.2z"/><path class="st0" d="M1214.7 224.9c-.1 5-4.2 8.9-9.2 8.8-5-.1-8.9-4.2-8.8-9.2.1-4.9 4.1-8.8 9-8.8 5 .1 9 4.2 9 9.2z"/><path class="st0" d="M1214.7 267.8c-.1 5-4.2 8.9-9.2 8.8-5-.1-8.9-4.2-8.8-9.2.1-4.9 4.1-8.8 9-8.8 5 .1 9 4.2 9 9.2z"/><path class="st0" d="M1214.7 310.7c-.1 5-4.2 8.9-9.2 8.8-5-.1-8.9-4.2-8.8-9.2.1-4.9 4.1-8.8 9-8.8 5 .1 9 4.2 9 9.2z"/><path class="st0" d="M1214.7 353.7c-.1 5-4.2 8.9-9.2 8.8-5-.1-8.9-4.2-8.8-9.2.1-4.9 4.1-8.8 9-8.8 5 .1 9 4.2 9 9.2z"/><path class="st0" d="M1214.7 396.6c-.1 5-4.2 8.9-9.2 8.8-5-.1-8.9-4.2-8.8-9.2.1-4.9 4.1-8.8 9-8.8 5 .1 9 4.2 9 9.2z"/><path class="st0" d="M1214.7 439.5c-.1 5-4.2 8.9-9.2 8.8-5-.1-8.9-4.2-8.8-9.2.1-4.9 4.1-8.8 9-8.8 5 .1 9 4.2 9 9.2z"/><path class="st0" d="M1214.7 482.5c-.1 5-4.2 8.9-9.2 8.8-5-.1-8.9-4.2-8.8-9.2.1-4.9 4.1-8.8 9-8.8 5 .1 9 4.2 9 9.2z"/><path class="st0" d="M1214.7 525.4c-.1 5-4.2 8.9-9.2 8.8-5-.1-8.9-4.2-8.8-9.2.1-4.9 4.1-8.8 9-8.8 5 .1 9 4.2 9 9.2z"/><path class="st0" d="M1214.7 568.3c-.1 5-4.2 8.9-9.2 8.8-5-.1-8.9-4.2-8.8-9.2.1-4.9 4.1-8.8 9-8.8 5 .1 9 4.2 9 9.2z"/><path class="st0" d="M1214.7 611.3c-.1 5-4.2 8.9-9.2 8.8-5-.1-8.9-4.2-8.8-9.2.1-4.9 4.1-8.8 9-8.8 5 .1 9 4.2 9 9.2z"/><path class="st0" d="M1214.7 654.2c-.1 5-4.2 8.9-9.2 8.8-5-.1-8.9-4.2-8.8-9.2.1-4.9 4.1-8.8 9-8.8 5 .1 9 4.2 9 9.2z"/><path class="st0" d="M1214.7 697.1c-.1 5-4.2 8.9-9.2 8.8-5-.1-8.9-4.2-8.8-9.2.1-4.9 4.1-8.8 9-8.8 5 .1 9 4.2 9 9.2z"/><path class="st0" d="M1214.7 740.1c-.1 5-4.2 8.9-9.2 8.8-5-.1-8.9-4.2-8.8-9.2.1-4.9 4.1-8.8 9-8.8 5 .1 9 4.2 9 9.2z"/></g><g class="st1"><rect x="1309.8" y="0.5" class="st2" width="117.3" height="749.3"/><rect x="1339" class="st0" width="8.4" height="750.3"/><rect x="1389.2" class="st0" width="8.4" height="750.3"/><path class="st0" d="M1377.3 10.2c0 5-4 9-9 9s-9-4-9-9 4-9 9-9 9 4 9 9z"/><path class="st0" d="M1377.3 53.1c-.1 5-4.2 8.9-9.2 8.8-5-.1-8.9-4.2-8.8-9.2.1-4.9 4.1-8.8 9-8.8 5.1.1 9.1 4.2 9 9.2z"/><path class="st0" d="M1377.3 96.1c-.1 5-4.2 8.9-9.2 8.8-5-.1-8.9-4.2-8.8-9.2.1-4.9 4.1-8.8 9-8.8 5.1.1 9.1 4.2 9 9.2z"/><path class="st0" d="M1377.3 139c-.1 5-4.2 8.9-9.2 8.8-5-.1-8.9-4.2-8.8-9.2.1-4.9 4.1-8.8 9-8.8 5.1.1 9.1 4.2 9 9.2z"/><path class="st0" d="M1377.3 181.9c-.1 5-4.2 8.9-9.2 8.8-5-.1-8.9-4.2-8.8-9.2.1-4.9 4.1-8.8 9-8.8 5.1.1 9.1 4.2 9 9.2z"/><path class="st0" d="M1377.3 224.9c-.1 5-4.2 8.9-9.2 8.8-5-.1-8.9-4.2-8.8-9.2.1-4.9 4.1-8.8 9-8.8 5.1.1 9.1 4.2 9 9.2z"/><path class="st0" d="M1377.3 267.8c-.1 5-4.2 8.9-9.2 8.8-5-.1-8.9-4.2-8.8-9.2.1-4.9 4.1-8.8 9-8.8 5.1.1 9.1 4.2 9 9.2z"/><path class="st0" d="M1377.3 310.7c-.1 5-4.2 8.9-9.2 8.8-5-.1-8.9-4.2-8.8-9.2.1-4.9 4.1-8.8 9-8.8 5.1.1 9.1 4.2 9 9.2z"/><path class="st0" d="M1377.3 353.7c-.1 5-4.2 8.9-9.2 8.8-5-.1-8.9-4.2-8.8-9.2.1-4.9 4.1-8.8 9-8.8 5.1.1 9.1 4.2 9 9.2z"/><path class="st0" d="M1377.3 396.6c-.1 5-4.2 8.9-9.2 8.8-5-.1-8.9-4.2-8.8-9.2.1-4.9 4.1-8.8 9-8.8 5.1.1 9.1 4.2 9 9.2z"/><path class="st0" d="M1377.3 439.5c-.1 5-4.2 8.9-9.2 8.8-5-.1-8.9-4.2-8.8-9.2.1-4.9 4.1-8.8 9-8.8 5.1.1 9.1 4.2 9 9.2z"/><path class="st0" d="M1377.3 482.5c-.1 5-4.2 8.9-9.2 8.8-5-.1-8.9-4.2-8.8-9.2.1-4.9 4.1-8.8 9-8.8 5.1.1 9.1 4.2 9 9.2z"/><path class="st0" d="M1377.3 525.4c-.1 5-4.2 8.9-9.2 8.8-5-.1-8.9-4.2-8.8-9.2.1-4.9 4.1-8.8 9-8.8 5.1.1 9.1 4.2 9 9.2z"/><path class="st0" d="M1377.3 568.3c-.1 5-4.2 8.9-9.2 8.8-5-.1-8.9-4.2-8.8-9.2.1-4.9 4.1-8.8 9-8.8 5.1.1 9.1 4.2 9 9.2z"/><path class="st0" d="M1377.3 611.3c-.1 5-4.2 8.9-9.2 8.8-5-.1-8.9-4.2-8.8-9.2.1-4.9 4.1-8.8 9-8.8 5.1.1 9.1 4.2 9 9.2z"/><path class="st0" d="M1377.3 654.2c-.1 5-4.2 8.9-9.2 8.8-5-.1-8.9-4.2-8.8-9.2.1-4.9 4.1-8.8 9-8.8 5.1.1 9.1 4.2 9 9.2z"/><path class="st0" d="M1377.3 697.1c-.1 5-4.2 8.9-9.2 8.8-5-.1-8.9-4.2-8.8-9.2.1-4.9 4.1-8.8 9-8.8 5.1.1 9.1 4.2 9 9.2z"/><path class="st0" d="M1377.3 740.1c-.1 5-4.2 8.9-9.2 8.8-5-.1-8.9-4.2-8.8-9.2.1-4.9 4.1-8.8 9-8.8 5.1.1 9.1 4.2 9 9.2z"/></g><g class="st1"><rect x="1472.5" y="0.5" class="st2" width="117.3" height="749.3"/><rect x="1501.7" class="st0" width="8.4" height="750.3"/><rect x="1551.9" class="st0" width="8.4" height="750.3"/><path class="st0" d="M1540 10.2c0 5-4 9-9 9s-9-4-9-9 4-9 9-9 9 4 9 9z"/><path class="st0" d="M1540 53.1c-.1 5-4.2 8.9-9.2 8.8-5-.1-8.9-4.2-8.8-9.2.1-4.9 4.1-8.8 9-8.8 5 .1 9 4.2 9 9.2z"/><path class="st0" d="M1540 96.1c-.1 5-4.2 8.9-9.2 8.8-5-.1-8.9-4.2-8.8-9.2.1-4.9 4.1-8.8 9-8.8 5 .1 9 4.2 9 9.2z"/><path class="st0" d="M1540 139c-.1 5-4.2 8.9-9.2 8.8-5-.1-8.9-4.2-8.8-9.2.1-4.9 4.1-8.8 9-8.8 5 .1 9 4.2 9 9.2z"/><path class="st0" d="M1540 181.9c-.1 5-4.2 8.9-9.2 8.8-5-.1-8.9-4.2-8.8-9.2.1-4.9 4.1-8.8 9-8.8 5 .1 9 4.2 9 9.2z"/><path class="st0" d="M1540 224.9c-.1 5-4.2 8.9-9.2 8.8-5-.1-8.9-4.2-8.8-9.2.1-4.9 4.1-8.8 9-8.8 5 .1 9 4.2 9 9.2z"/><path class="st0" d="M1540 267.8c-.1 5-4.2 8.9-9.2 8.8-5-.1-8.9-4.2-8.8-9.2.1-4.9 4.1-8.8 9-8.8 5 .1 9 4.2 9 9.2z"/><path class="st0" d="M1540 310.7c-.1 5-4.2 8.9-9.2 8.8-5-.1-8.9-4.2-8.8-9.2.1-4.9 4.1-8.8 9-8.8 5 .1 9 4.2 9 9.2z"/><path class="st0" d="M1540 353.7c-.1 5-4.2 8.9-9.2 8.8-5-.1-8.9-4.2-8.8-9.2.1-4.9 4.1-8.8 9-8.8 5 .1 9 4.2 9 9.2z"/><path class="st0" d="M1540 396.6c-.1 5-4.2 8.9-9.2 8.8-5-.1-8.9-4.2-8.8-9.2.1-4.9 4.1-8.8 9-8.8 5 .1 9 4.2 9 9.2z"/><path class="st0" d="M1540 439.5c-.1 5-4.2 8.9-9.2 8.8-5-.1-8.9-4.2-8.8-9.2.1-4.9 4.1-8.8 9-8.8 5 .1 9 4.2 9 9.2z"/><path class="st0" d="M1540 482.5c-.1 5-4.2 8.9-9.2 8.8-5-.1-8.9-4.2-8.8-9.2.1-4.9 4.1-8.8 9-8.8 5 .1 9 4.2 9 9.2z"/><path class="st0" d="M1540 525.4c-.1 5-4.2 8.9-9.2 8.8-5-.1-8.9-4.2-8.8-9.2.1-4.9 4.1-8.8 9-8.8 5 .1 9 4.2 9 9.2z"/><path class="st0" d="M1540 568.3c-.1 5-4.2 8.9-9.2 8.8-5-.1-8.9-4.2-8.8-9.2.1-4.9 4.1-8.8 9-8.8 5 .1 9 4.2 9 9.2z"/><path class="st0" d="M1540 611.3c-.1 5-4.2 8.9-9.2 8.8-5-.1-8.9-4.2-8.8-9.2.1-4.9 4.1-8.8 9-8.8 5 .1 9 4.2 9 9.2z"/><path class="st0" d="M1540 654.2c-.1 5-4.2 8.9-9.2 8.8-5-.1-8.9-4.2-8.8-9.2.1-4.9 4.1-8.8 9-8.8 5 .1 9 4.2 9 9.2z"/><path class="st0" d="M1540 697.1c-.1 5-4.2 8.9-9.2 8.8-5-.1-8.9-4.2-8.8-9.2.1-4.9 4.1-8.8 9-8.8 5 .1 9 4.2 9 9.2z"/><path class="st0" d="M1540 740.1c-.1 5-4.2 8.9-9.2 8.8-5-.1-8.9-4.2-8.8-9.2.1-4.9 4.1-8.8 9-8.8 5 .1 9 4.2 9 9.2z"/></g><g class="st1"><rect x="1634.6" y="0.5" class="st2" width="117.3" height="749.3"/><rect x="1663.7" class="st0" width="8.4" height="750.3"/><rect x="1714" class="st0" width="8.4" height="750.3"/><path class="st0" d="M1702.1 10.2c0 5-4 9-9 9s-9-4-9-9 4-9 9-9c4.9 0 9 4 9 9z"/><path class="st0" d="M1702.1 53.1c-.1 5-4.2 8.9-9.2 8.8-5-.1-8.9-4.2-8.8-9.2.1-4.9 4.1-8.8 9-8.8 5 .1 9 4.2 9 9.2z"/><path class="st0" d="M1702.1 96.1c-.1 5-4.2 8.9-9.2 8.8-5-.1-8.9-4.2-8.8-9.2.1-4.9 4.1-8.8 9-8.8 5 .1 9 4.2 9 9.2z"/><path class="st0" d="M1702.1 139c-.1 5-4.2 8.9-9.2 8.8-5-.1-8.9-4.2-8.8-9.2.1-4.9 4.1-8.8 9-8.8 5 .1 9 4.2 9 9.2z"/><path class="st0" d="M1702.1 181.9c-.1 5-4.2 8.9-9.2 8.8-5-.1-8.9-4.2-8.8-9.2.1-4.9 4.1-8.8 9-8.8 5 .1 9 4.2 9 9.2z"/><path class="st0" d="M1702.1 224.9c-.1 5-4.2 8.9-9.2 8.8-5-.1-8.9-4.2-8.8-9.2.1-4.9 4.1-8.8 9-8.8 5 .1 9 4.2 9 9.2z"/><path class="st0" d="M1702.1 267.8c-.1 5-4.2 8.9-9.2 8.8-5-.1-8.9-4.2-8.8-9.2.1-4.9 4.1-8.8 9-8.8 5 .1 9 4.2 9 9.2z"/><path class="st0" d="M1702.1 310.7c-.1 5-4.2 8.9-9.2 8.8-5-.1-8.9-4.2-8.8-9.2.1-4.9 4.1-8.8 9-8.8 5 .1 9 4.2 9 9.2z"/><path class="st0" d="M1702.1 353.7c-.1 5-4.2 8.9-9.2 8.8-5-.1-8.9-4.2-8.8-9.2.1-4.9 4.1-8.8 9-8.8 5 .1 9 4.2 9 9.2z"/><path class="st0" d="M1702.1 396.6c-.1 5-4.2 8.9-9.2 8.8-5-.1-8.9-4.2-8.8-9.2.1-4.9 4.1-8.8 9-8.8 5 .1 9 4.2 9 9.2z"/><path class="st0" d="M1702.1 439.5c-.1 5-4.2 8.9-9.2 8.8-5-.1-8.9-4.2-8.8-9.2.1-4.9 4.1-8.8 9-8.8 5 .1 9 4.2 9 9.2z"/><path class="st0" d="M1702.1 482.5c-.1 5-4.2 8.9-9.2 8.8-5-.1-8.9-4.2-8.8-9.2.1-4.9 4.1-8.8 9-8.8 5 .1 9 4.2 9 9.2z"/><path class="st0" d="M1702.1 525.4c-.1 5-4.2 8.9-9.2 8.8-5-.1-8.9-4.2-8.8-9.2.1-4.9 4.1-8.8 9-8.8 5 .1 9 4.2 9 9.2z"/><path class="st0" d="M1702.1 568.3c-.1 5-4.2 8.9-9.2 8.8-5-.1-8.9-4.2-8.8-9.2.1-4.9 4.1-8.8 9-8.8 5 .1 9 4.2 9 9.2z"/><path class="st0" d="M1702.1 611.3c-.1 5-4.2 8.9-9.2 8.8-5-.1-8.9-4.2-8.8-9.2.1-4.9 4.1-8.8 9-8.8 5 .1 9 4.2 9 9.2z"/><path class="st0" d="M1702.1 654.2c-.1 5-4.2 8.9-9.2 8.8-5-.1-8.9-4.2-8.8-9.2.1-4.9 4.1-8.8 9-8.8 5 .1 9 4.2 9 9.2z"/><path class="st0" d="M1702.1 697.1c-.1 5-4.2 8.9-9.2 8.8-5-.1-8.9-4.2-8.8-9.2.1-4.9 4.1-8.8 9-8.8 5 .1 9 4.2 9 9.2z"/><path class="st0" d="M1702.1 740.1c-.1 5-4.2 8.9-9.2 8.8-5-.1-8.9-4.2-8.8-9.2.1-4.9 4.1-8.8 9-8.8 5 .1 9 4.2 9 9.2z"/></g><g class="st1"><rect x="170.9" y="0.5" class="st2" width="117.3" height="749.3"/><rect x="200.1" class="st0" width="8.4" height="750.3"/><rect x="250.3" class="st0" width="8.4" height="750.3"/><path class="st0" d="M238.4 10.2c0 5-4 9-9 9s-9-4-9-9 4-9 9-9 9 4 9 9z"/><path class="st0" d="M238.4 53.1c-.1 5-4.2 8.9-9.2 8.8s-8.9-4.2-8.8-9.2c.1-4.9 4.1-8.8 9-8.8 5 .1 9.1 4.2 9 9.2z"/><path class="st0" d="M238.4 96.1c-.1 5-4.2 8.9-9.2 8.8-5-.1-8.9-4.2-8.8-9.2.1-4.9 4.1-8.8 9-8.8 5 .1 9.1 4.2 9 9.2z"/><path class="st0" d="M238.4 139c-.1 5-4.2 8.9-9.2 8.8-5-.1-8.9-4.2-8.8-9.2.1-4.9 4.1-8.8 9-8.8 5 .1 9.1 4.2 9 9.2z"/><path class="st0" d="M238.4 181.9c-.1 5-4.2 8.9-9.2 8.8-5-.1-8.9-4.2-8.8-9.2.1-4.9 4.1-8.8 9-8.8 5 .1 9.1 4.2 9 9.2z"/><path class="st0" d="M238.4 224.9c-.1 5-4.2 8.9-9.2 8.8-5-.1-8.9-4.2-8.8-9.2.1-4.9 4.1-8.8 9-8.8 5 .1 9.1 4.2 9 9.2z"/><path class="st0" d="M238.4 267.8c-.1 5-4.2 8.9-9.2 8.8-5-.1-8.9-4.2-8.8-9.2.1-4.9 4.1-8.8 9-8.8 5 .1 9.1 4.2 9 9.2z"/><path class="st0" d="M238.4 310.7c-.1 5-4.2 8.9-9.2 8.8-5-.1-8.9-4.2-8.8-9.2.1-4.9 4.1-8.8 9-8.8 5 .1 9.1 4.2 9 9.2z"/><path class="st0" d="M238.4 353.7c-.1 5-4.2 8.9-9.2 8.8-5-.1-8.9-4.2-8.8-9.2.1-4.9 4.1-8.8 9-8.8 5 .1 9.1 4.2 9 9.2z"/><path class="st0" d="M238.4 396.6c-.1 5-4.2 8.9-9.2 8.8-5-.1-8.9-4.2-8.8-9.2.1-4.9 4.1-8.8 9-8.8 5 .1 9.1 4.2 9 9.2z"/><path class="st0" d="M238.4 439.5c-.1 5-4.2 8.9-9.2 8.8-5-.1-8.9-4.2-8.8-9.2.1-4.9 4.1-8.8 9-8.8 5 .1 9.1 4.2 9 9.2z"/><path class="st0" d="M238.4 482.5c-.1 5-4.2 8.9-9.2 8.8-5-.1-8.9-4.2-8.8-9.2.1-4.9 4.1-8.8 9-8.8 5 .1 9.1 4.2 9 9.2z"/><path class="st0" d="M238.4 525.4c-.1 5-4.2 8.9-9.2 8.8-5-.1-8.9-4.2-8.8-9.2.1-4.9 4.1-8.8 9-8.8 5 .1 9.1 4.2 9 9.2z"/><path class="st0" d="M238.4 568.3c-.1 5-4.2 8.9-9.2 8.8-5-.1-8.9-4.2-8.8-9.2.1-4.9 4.1-8.8 9-8.8 5 .1 9.1 4.2 9 9.2z"/><path class="st0" d="M238.4 611.3c-.1 5-4.2 8.9-9.2 8.8-5-.1-8.9-4.2-8.8-9.2.1-4.9 4.1-8.8 9-8.8 5 .1 9.1 4.2 9 9.2z"/><path class="st0" d="M238.4 654.2c-.1 5-4.2 8.9-9.2 8.8-5-.1-8.9-4.2-8.8-9.2.1-4.9 4.1-8.8 9-8.8 5 .1 9.1 4.2 9 9.2z"/><path class="st0" d="M238.4 697.1c-.1 5-4.2 8.9-9.2 8.8-5-.1-8.9-4.2-8.8-9.2.1-4.9 4.1-8.8 9-8.8 5 .1 9.1 4.2 9 9.2z"/><path class="st0" d="M238.4 740.1c-.1 5-4.2 8.9-9.2 8.8-5-.1-8.9-4.2-8.8-9.2.1-4.9 4.1-8.8 9-8.8 5 .1 9.1 4.2 9 9.2z"/></g><g class="st1"><rect x="1796.9" y="0.5" class="st2" width="117.3" height="749.3"/><rect x="1826.1" class="st0" width="8.4" height="750.3"/><rect x="1876.3" class="st0" width="8.4" height="750.3"/><path class="st0" d="M1864.4 10.2c0 5-4 9-9 9s-9-4-9-9 4-9 9-9 9 4 9 9z"/><path class="st0" d="M1864.4 53.1c-.1 5-4.2 8.9-9.2 8.8-5-.1-8.9-4.2-8.8-9.2.1-4.9 4.1-8.8 9-8.8 5 .1 9.1 4.2 9 9.2z"/><path class="st0" d="M1864.4 96.1c-.1 5-4.2 8.9-9.2 8.8-5-.1-8.9-4.2-8.8-9.2.1-4.9 4.1-8.8 9-8.8 5 .1 9.1 4.2 9 9.2z"/><path class="st0" d="M1864.4 139c-.1 5-4.2 8.9-9.2 8.8-5-.1-8.9-4.2-8.8-9.2.1-4.9 4.1-8.8 9-8.8 5 .1 9.1 4.2 9 9.2z"/><path class="st0" d="M1864.4 181.9c-.1 5-4.2 8.9-9.2 8.8-5-.1-8.9-4.2-8.8-9.2.1-4.9 4.1-8.8 9-8.8 5 .1 9.1 4.2 9 9.2z"/><path class="st0" d="M1864.4 224.9c-.1 5-4.2 8.9-9.2 8.8-5-.1-8.9-4.2-8.8-9.2.1-4.9 4.1-8.8 9-8.8 5 .1 9.1 4.2 9 9.2z"/><path class="st0" d="M1864.4 267.8c-.1 5-4.2 8.9-9.2 8.8-5-.1-8.9-4.2-8.8-9.2.1-4.9 4.1-8.8 9-8.8 5 .1 9.1 4.2 9 9.2z"/><path class="st0" d="M1864.4 310.7c-.1 5-4.2 8.9-9.2 8.8-5-.1-8.9-4.2-8.8-9.2.1-4.9 4.1-8.8 9-8.8 5 .1 9.1 4.2 9 9.2z"/><path class="st0" d="M1864.4 353.7c-.1 5-4.2 8.9-9.2 8.8-5-.1-8.9-4.2-8.8-9.2.1-4.9 4.1-8.8 9-8.8 5 .1 9.1 4.2 9 9.2z"/><path class="st0" d="M1864.4 396.6c-.1 5-4.2 8.9-9.2 8.8-5-.1-8.9-4.2-8.8-9.2.1-4.9 4.1-8.8 9-8.8 5 .1 9.1 4.2 9 9.2z"/><path class="st0" d="M1864.4 439.5c-.1 5-4.2 8.9-9.2 8.8-5-.1-8.9-4.2-8.8-9.2.1-4.9 4.1-8.8 9-8.8 5 .1 9.1 4.2 9 9.2z"/><path class="st0" d="M1864.4 482.5c-.1 5-4.2 8.9-9.2 8.8-5-.1-8.9-4.2-8.8-9.2.1-4.9 4.1-8.8 9-8.8 5 .1 9.1 4.2 9 9.2z"/><path class="st0" d="M1864.4 525.4c-.1 5-4.2 8.9-9.2 8.8-5-.1-8.9-4.2-8.8-9.2.1-4.9 4.1-8.8 9-8.8 5 .1 9.1 4.2 9 9.2z"/><path class="st0" d="M1864.4 568.3c-.1 5-4.2 8.9-9.2 8.8-5-.1-8.9-4.2-8.8-9.2.1-4.9 4.1-8.8 9-8.8 5 .1 9.1 4.2 9 9.2z"/><path class="st0" d="M1864.4 611.3c-.1 5-4.2 8.9-9.2 8.8-5-.1-8.9-4.2-8.8-9.2.1-4.9 4.1-8.8 9-8.8 5 .1 9.1 4.2 9 9.2z"/><path class="st0" d="M1864.4 654.2c-.1 5-4.2 8.9-9.2 8.8-5-.1-8.9-4.2-8.8-9.2.1-4.9 4.1-8.8 9-8.8 5 .1 9.1 4.2 9 9.2z"/><path class="st0" d="M1864.4 697.1c-.1 5-4.2 8.9-9.2 8.8-5-.1-8.9-4.2-8.8-9.2.1-4.9 4.1-8.8 9-8.8 5 .1 9.1 4.2 9 9.2z"/><path class="st0" d="M1864.4 740.1c-.1 5-4.2 8.9-9.2 8.8-5-.1-8.9-4.2-8.8-9.2.1-4.9 4.1-8.8 9-8.8 5 .1 9.1 4.2 9 9.2z"/></g><g class="st1"><rect x="6.9" y="0.5" class="st2" width="117.3" height="749.3"/><rect x="36.1" class="st0" width="8.4" height="750.3"/><rect x="86.3" class="st0" width="8.4" height="750.3"/><path class="st0" d="M74.4 10.2c0 5-4 9-9 9s-9-4-9-9 4-9 9-9 9 4 9 9z"/><path class="st0" d="M74.4 53.1c-.1 5-4.2 8.9-9.2 8.8s-8.9-4.2-8.8-9.2c.1-4.9 4.1-8.8 9-8.8 5 .1 9.1 4.2 9 9.2z"/><path class="st0" d="M74.4 96.1c-.1 5-4.2 8.9-9.2 8.8-5-.1-8.9-4.2-8.8-9.2.1-4.9 4.1-8.8 9-8.8 5 .1 9.1 4.2 9 9.2z"/><path class="st0" d="M74.4 139c-.1 5-4.2 8.9-9.2 8.8-5-.1-8.9-4.2-8.8-9.2.1-4.9 4.1-8.8 9-8.8 5 .1 9.1 4.2 9 9.2z"/><path class="st0" d="M74.4 181.9c-.1 5-4.2 8.9-9.2 8.8-5-.1-8.9-4.2-8.8-9.2.1-4.9 4.1-8.8 9-8.8 5 .1 9.1 4.2 9 9.2z"/><path class="st0" d="M74.4 224.9c-.1 5-4.2 8.9-9.2 8.8-5-.1-8.9-4.2-8.8-9.2.1-4.9 4.1-8.8 9-8.8 5 .1 9.1 4.2 9 9.2z"/><path class="st0" d="M74.4 267.8c-.1 5-4.2 8.9-9.2 8.8-5-.1-8.9-4.2-8.8-9.2.1-4.9 4.1-8.8 9-8.8 5 .1 9.1 4.2 9 9.2z"/><path class="st0" d="M74.4 310.7c-.1 5-4.2 8.9-9.2 8.8-5-.1-8.9-4.2-8.8-9.2.1-4.9 4.1-8.8 9-8.8 5 .1 9.1 4.2 9 9.2z"/><path class="st0" d="M74.4 353.7c-.1 5-4.2 8.9-9.2 8.8-5-.1-8.9-4.2-8.8-9.2.1-4.9 4.1-8.8 9-8.8 5 .1 9.1 4.2 9 9.2z"/><path class="st0" d="M74.4 396.6c-.1 5-4.2 8.9-9.2 8.8-5-.1-8.9-4.2-8.8-9.2.1-4.9 4.1-8.8 9-8.8 5 .1 9.1 4.2 9 9.2z"/><path class="st0" d="M74.4 439.5c-.1 5-4.2 8.9-9.2 8.8-5-.1-8.9-4.2-8.8-9.2.1-4.9 4.1-8.8 9-8.8 5 .1 9.1 4.2 9 9.2z"/><path class="st0" d="M74.4 482.5c-.1 5-4.2 8.9-9.2 8.8-5-.1-8.9-4.2-8.8-9.2.1-4.9 4.1-8.8 9-8.8 5 .1 9.1 4.2 9 9.2z"/><path class="st0" d="M74.4 525.4c-.1 5-4.2 8.9-9.2 8.8-5-.1-8.9-4.2-8.8-9.2.1-4.9 4.1-8.8 9-8.8 5 .1 9.1 4.2 9 9.2z"/><path class="st0" d="M74.4 568.3c-.1 5-4.2 8.9-9.2 8.8-5-.1-8.9-4.2-8.8-9.2.1-4.9 4.1-8.8 9-8.8 5 .1 9.1 4.2 9 9.2z"/><path class="st0" d="M74.4 611.3c-.1 5-4.2 8.9-9.2 8.8-5-.1-8.9-4.2-8.8-9.2.1-4.9 4.1-8.8 9-8.8 5 .1 9.1 4.2 9 9.2z"/><path class="st0" d="M74.4 654.2c-.1 5-4.2 8.9-9.2 8.8-5-.1-8.9-4.2-8.8-9.2.1-4.9 4.1-8.8 9-8.8 5 .1 9.1 4.2 9 9.2z"/><path class="st0" d="M74.4 697.1c-.1 5-4.2 8.9-9.2 8.8-5-.1-8.9-4.2-8.8-9.2.1-4.9 4.1-8.8 9-8.8 5 .1 9.1 4.2 9 9.2z"/><path class="st0" d="M74.4 740.1c-.1 5-4.2 8.9-9.2 8.8-5-.1-8.9-4.2-8.8-9.2.1-4.9 4.1-8.8 9-8.8 5 .1 9.1 4.2 9 9.2z"/></g><rect x="0.3" y="708" width="1919.2" height="372" style="fill:#f17918"/><rect x="0.3" y="686.2" width="1919.2" height="25" style="fill:#e5640c"/><g><rect x="532.5" y="357" class="st0" width="161" height="188"/><path class="st5" d="M676.2 426.5c.3-.9.4-1.9.4-2.8 0-4.8-3.4-8.6-7.6-8.6-1.3 0-2.6.4-3.7 1.1v-.5c0-7-5-12.8-11.2-12.8-5.1 0-9.3 3.8-10.7 9.1-1-.7-2.2-1.1-3.3-1.1-3.6 0-6.5 3.3-6.5 7.4 0 .8.1 1.6.3 2.3-.9-1-2.2-1.6-3.6-1.6-3 0-5.3 2.7-5.3 6.1 0 .4 0 .9.1 1.3l51.1.1z"/><path class="st5" d="M667.6 503.6c-4.2 0-7.7 3.9-7.7 8.7 0 4.5 3 8.2 6.8 8.7v8h1.6v-8c3.9-.4 6.9-4.2 6.9-8.7.1-4.8-3.3-8.7-7.6-8.7z"/><path class="st5" d="M641.5 493.3c-3.8 0-6.8 6-6.8 13.4 0 6.6 2.4 12 5.5 13.2v9.1h2.6v-9.1c3.2-1.2 5.5-6.6 5.5-13.2.1-7.4-3-13.4-6.8-13.4z"/><path class="st5" d="M601.3 350h-77.8v201h178V350H601.3zm88.2 191h-154V360h154v181z"/><path class="st5" d="M556 441c-.2-.7-.3-1.4-.3-2.1 0-3.6 2.6-6.6 5.8-6.6 1 0 2 .3 2.8.8v-.4c0-5.4 3.8-9.8 8.6-9.8 3.9 0 7.2 2.9 8.2 6.9.8-.5 1.6-.8 2.6-.8 2.8 0 5 2.5 5 5.7 0 .6-.1 1.2-.3 1.8.7-.8 1.7-1.2 2.8-1.2 2.4.2 4.2 2.2 4.1 4.6 0 .3 0 .7-.1 1l-39.2.1z"/><polygon class="st5" points="674.6,558 663.6,558 626.9,558 623.7,558 561.4,558 550.4,558 510.5,558 510.5,569 550.4,569 
		561.4,569 623.7,569 626.9,569 663.6,569 674.6,569 714.5,569 714.5,558 	"/><path class="st5" d="M556.7 503.6c4.2 0 7.7 3.9 7.7 8.7 0 4.5-3 8.2-6.8 8.7v8H556v-8c-3.9-.4-6.9-4.2-6.9-8.7-.1-4.8 3.4-8.7 7.6-8.7z"/><path class="st5" d="M582.5 475c5.8 0 10.5 9.3 10.5 20.7 0 10.1-3.7 18.5-8.5 20.3v14h-3.9v-14c-4.8-1.8-8.5-10.2-8.5-20.3-.1-11.4 4.6-20.7 10.4-20.7z"/><rect x="606.5" y="350" class="st5" width="12" height="201"/></g></svg>