<svg xmlns="http://www.w3.org/2000/svg" id="Layer_1" data-name="Layer 1" viewBox="0 0 632 120"><defs><style>.cls-8{fill:#a467c1}</style><clipPath id="clip-path"><polygon points="633.08 120 -0.42 120 -0.93 -0.38 632.57 -0.38 633.08 120" style="fill:none"/></clipPath></defs><g style="clip-path:url(#clip-path)"><rect width="633" height="120.38" x="-0.42" y="-0.38" style="fill:#fd8023"/><path d="M-.42 73.86h634v6h-634zm0-16.05h152.53c35.06.07 68.78 1.59 104.09 0h147.48c24.71.07 50.34.8 75.8.82 3.64 0 7.27.38 10.91.38 23.21 0 43.47.15 66.8 0 3.41.09 7.06.18 10.72.18s7.31-.7 11-.7c2.74 0 5.45-.63 8 .32h46.64v2H558c-19.64.05-37.65.81-58.16.86-4.13 0-12.23.14-12.23.14l-83.92-1H265.36a799.17 799.17 0 0 1-121.25 0H-.42zm0-17.05h94c2.74.37 5.8 1.17 8.86 1.2 10.37-.09 23.87-.47 35.57-.52a70.13 70.13 0 0 0 9.2-.68h163.27c32 3.38 61.25 1.9 93.23 0h69.45c4 .37 8.26 1.37 12.63 1.75 30 5.49 57.09-5.6 87.3-1.41 3.43.24 7 0 10.57.67h49.93v5h-56.52c-29.68-1.14-61.2.39-91.53.61a60 60 0 0 0-12.35.39H-.42zm0-16H305c35.4 3 71.45 0 108.46 0H471c3 0 6.2.91 9.47 1.19 33.4 5.62 69.45-6.28 103.11-.18 3.83 0 7.67-.51 11.52-.51 4.81 0 9.22-.5 13.21-.5h25.24v3h-49.39c-34.19-3-70.24 4.59-105.15.23-3.26-.22-6.36-.23-9.49-.23h-56a520.84 520.84 0 0 1-96.11.14c-4.18-.12-8.28-.14-12.35-.14H-.42zm0-19.06h59.49s9.1 1.12 13.62 1.6c31.11 5.51 64.88-3.61 96.35-1.6h116.69a34.57 34.57 0 0 0 9.9 1.77c37.85 3 78.37 4.21 117.63-.36a30.66 30.66 0 0 0 9.43-1.4h41.8a33.49 33.49 0 0 0 8.3 2c36.32 5.86 72.34-6 108.71-.28 3.61.32 7.2-.24 10.8-.25 3.21.07 6.24-.48 9.09-.47h32.19v3H597c-2.52 0-5.17.69-7.94.58-37.16-4.41-77.69 4.38-116.26 0-2.81-.2-5.6-.59-8.39-.58h-41.7c-3.13 0-6.28.77-9.43.78-37 3-70.76 4.18-107.65-.31-3.36-.07-6.66-.48-10-.47H167.77c-34.69-4.59-70.72 3-104 0H-.42zm0 110.3h165.26s8.64.45 13.11.38c33.91-3 70 .07 103-.38h93.77a90.32 90.32 0 0 0 9.75 1.1c34.61-3 70.64-2.73 103.71-1.43 4.33 0 8.66-.46 13-.44 39 .19 77.81 1.23 116.12 1.78h16.31v2h-16c-38.33 0-77.17-.09-116.19-.47-4.33 0-8.66-.42-13-.45-33.07-1.79-69.15-2.08-103.77.92H284.39c-4.32 0-8.62 0-13-.11-34.57-2.94-68.37.11-101.8.11H-.42zm0-20.43c52.08-.41 110-.71 165.26-1.64h12.76c20.8.37 61.22 0 61.22 0h9.94s55.49.11 85.13.43a78.21 78.21 0 0 0 10.71-.43h36.2c33.73 3.07 67.5.07 101.71 1.72 4.5-.07 8.77-.18 13.09-.28 38.31-1 76.64-2.73 115-.46 3.58 0 23-.5 23-.5v5.22s-8.2 0-22.49-.16c-39.41-1.72-78.78-1-118.26-.27-4.45.06-8.93.12-13.59.11-32.91-1.28-69-2.89-103.6-.37h-45.52c-23.49-1-46-1-68.46-.48q-5.89 0-11.72-.1c-27.14-.27-54 0-80.81 1-4.3 0-8.59.19-12.89.21-51.5.14-103 .41-154.34.41H-.42z" style="opacity:.15"/><path d="M178.2 21.69H457a2.34 2.34 0 0 1 2.3 2.31v307.32a2.35 2.35 0 0 1-2.35 2.35H178.2a2.34 2.34 0 0 1-2.34-2.34V24a2.35 2.35 0 0 1 2.35-2.35z" style="fill:#1bbc9c"/><path d="M284 107h62.1a2 2 0 0 1 2 2v62.2a2 2 0 0 1-2 2H284a2 2 0 0 1-2-2V109a2 2 0 0 1 2-2zm75.15 0h62.09a2 2 0 0 1 2 2v62.2a2 2 0 0 1-2 2h-62.1a2 2 0 0 1-2-2V109a2 2 0 0 1 2.01-2zm-149.24 0H272a2 2 0 0 1 2 2v62.2a2 2 0 0 1-2 2h-62.09a2 2 0 0 1-2-2V109a2 2 0 0 1 2-2z" style="opacity:.8;isolation:isolate;fill:#fff"/><path d="M185.87 27.71h262.41a2 2 0 0 1 2 2v66.22a2 2 0 0 1-2 2H185.87a2 2 0 0 1-2-2V29.72a2 2 0 0 1 2-2.01z" style="fill:#fff"/><polygon points="219.58 77.87 250.97 77.87 250.97 46.27 219.58 77.87" class="cls-8"/><polygon points="296.08 78.87 311.07 78.87 311.07 62.82 327.09 62.82 327.09 46.77 311.59 46.77 296.04 62.78 296.08 78.87" class="cls-8"/><path d="M390 60.42l.35-.4c5.15-.44 7-1.65 7-3.6 0-1.51-1.2-2.45-3.33-2.45a10.18 10.18 0 0 0-6.48 2.93l-4.41-5.9a15.59 15.59 0 0 1 11.49-4.66c6.52 0 11.1 3.55 11.1 9.42 0 5.6-3.73 8-8.65 9.2l-.53 2.85h-5.37zm-.82 10.42h9v8h-9z" class="cls-8"/><path d="M272.12 64.83H268v-4h11v4zm83-7h10v4h-10zm0 5h10v4h-10z" style="fill:#1a171b"/></g></svg>