<svg id="Layer_1" data-name="Layer 1" xmlns="http://www.w3.org/2000/svg" viewBox="0 0 632 120"><defs><style>.cls-2{fill:none}.cls-3{fill:#a9e7ff;opacity:.5}</style></defs><rect id="_Rectangle_" data-name="&lt;Rectangle&gt;" width="632" height="120" style="fill:#1f9efd"/><path id="_Path_" data-name="&lt;Path&gt;" class="cls-2" d="M193.406 1.845L174.51 30.343c-8.945-6.645-17.264-11.004-28.907-10.994-17.048.014-25.561 12.704-27.417 31 7.688-5.827 17.039-11.24 31.384-11.253 25.571-.021 48.038 16.176 48.063 45.698.012 14.487-5.104 26.431-13.572 35.247l262.029-.222a79.994 79.994 0 0 1-9.14-8.616l25.343-25.385c10.404 10.594 21.427 16.613 34.733 16.602 11.435-.01 18.707-5.837 18.7-15.193s-8.538-14.961-23.715-14.948l-17.047.014-5.84-20.993 33.447-30.174-55.717.047-.018-21.283-255.838.216c.804.565 1.606 1.142 2.407 1.739z"/><path id="_Path_2" data-name="&lt;Path&gt;" class="cls-2" d="M137.745 68.005c-12.683.01-20.16 8.125-20.15 18.936.008 10.603 7.915 18.912 20.598 18.901 12.682-.01 20.16-8.125 20.15-19.144-.009-10.395-7.916-18.704-20.598-18.693z"/><path id="_Compound_Path_" data-name="&lt;Compound Path&gt;" class="cls-3" d="M197.634 84.794c-.025-29.522-22.492-45.72-48.063-45.698-14.346.012-23.696 5.426-31.384 11.253 1.856-18.296 10.37-30.986 27.417-31 11.643-.01 19.962 4.349 28.907 10.994l18.895-28.498a107.968 107.968 0 0 0-2.407-1.74l-88.546.076c-16.792 14.226-25.024 37.88-25 65.588.022 27.212 6.885 43.54 17.415 54.347l89.194-.075c8.468-8.816 13.585-20.76 13.572-35.247zm-59.44 21.048c-12.684.01-20.59-8.298-20.6-18.901-.01-10.811 7.468-18.926 20.151-18.936 12.682-.011 20.59 8.298 20.598 18.693.01 11.019-7.468 19.133-20.15 19.144z"/><path id="_Path_3" data-name="&lt;Path&gt;" class="cls-3" d="M552.034.113L446.837.202l.018 21.284 55.717-.047-33.446 30.174 5.839 20.993 17.047-.015c15.177-.013 23.706 5.594 23.714 14.949s-7.264 15.183-18.699 15.193c-13.305.01-24.33-6.009-34.733-16.603l-25.342 25.385a79.994 79.994 0 0 0 9.139 8.617l97.214-.082c7.428-8.09 11.726-18.729 11.715-31.296-.021-25.156-16.87-36.784-37.665-41.34l34.694-29.76z"/><g id="_Group_" data-name="&lt;Group&gt;"><g id="_Group_2" data-name="&lt;Group&gt;"><path id="_Compound_Path_2" data-name="&lt;Compound Path&gt;" d="M278.448 46.497l79.381-.067.023 26.999-79.38.067zm24.864-38.339l28.778-.024.024 28.293-28.778.025zm.064 75.341l28.778-.024.024 28.293-28.778.024z" style="fill:#a9e7ff"/></g><g id="_Group_3" data-name="&lt;Group&gt;"><path id="_Compound_Path_3" data-name="&lt;Compound Path&gt;" d="M278.448 46.497l79.381-.067.023 26.999-79.38.067z" style="fill:#c0eaff"/></g></g></svg>