<svg xmlns="http://www.w3.org/2000/svg" xmlns:xlink="http://www.w3.org/1999/xlink" viewBox="0 0 632 120"><defs><style>.cls-2{fill:#ee6261}.cls-3{fill:#da5b5b}.cls-4{fill:#713616}.cls-8{fill:#c14d4d}.cls-9{fill:#fff}</style><linearGradient id="linear-gradient" x1="316" y1="115" x2="316" y2="103.91" gradientUnits="userSpaceOnUse"><stop offset="0" stop-color="#fff" stop-opacity="0"/><stop offset="1" stop-color="#1a171b"/></linearGradient></defs><title>Artboard 13 copy 15</title><g style="isolation:isolate"><g id="Layer_1" data-name="Layer 1"><rect id="_Rectangle_" data-name="&lt;Rectangle&gt;" class="cls-2" width="632" height="120"/><rect class="cls-3" width="34" height="120"/><rect class="cls-3" x="68" width="33" height="120"/><rect class="cls-3" x="134" width="33" height="120"/><rect class="cls-3" x="201" width="33" height="120"/><rect class="cls-3" x="267" width="33" height="120"/><rect class="cls-3" x="333" width="33" height="120"/><rect class="cls-3" x="399" width="33" height="120"/><rect class="cls-3" x="466" width="33" height="120"/><rect class="cls-3" x="532" width="33" height="120"/><rect class="cls-3" x="599" width="33" height="120"/><path class="cls-4" d="M267.93 21.64v82.27h96.13V21.64zm89.66 75.8H274.4V28.11h83.2z"/><rect x="274.4" y="28.11" width="83.19" height="69.33" style="fill:#00dace"/><rect x="267.93" y="103.91" width="96.13" height="11.09" style="opacity:.3;mix-blend-mode:multiply;fill:url(#linear-gradient)"/><rect class="cls-4" x="290.21" y="13.78" width="28.48" height="0.92" transform="translate(49.05 180.56) rotate(-35.75)"/><rect class="cls-4" x="327.09" y="0.01" width="0.92" height="28.48" transform="translate(124.6 271.74) rotate(-54.25)"/><circle cx="316.46" cy="7.31" r="2.31" style="fill:#ffecb7"/><path class="cls-8" d="M170.47 41L153 25.54a2.49 2.49 0 0 0-4.87-.77L129.53 41H116v51h68V41zm-22.42-15a2.49 2.49 0 0 0 4.69.57l16 14.41h-37.5z"/><rect class="cls-2" x="122" y="47" width="56" height="38"/><path class="cls-8" d="M502.47 28L485 12.54a2.49 2.49 0 0 0-4.87-.77L461.53 28H454v74h56V28zm-22.42-15a2.49 2.49 0 0 0 4.69.57l16 14.41h-37.5z"/><rect class="cls-2" x="464" y="38" width="36" height="52"/><path class="cls-9" d="M325.13 67.13h.66a12.42 12.42 0 1 0-12.41-12.73 18.31 18.31 0 0 1 11.75 12.71z"/><polygon class="cls-9" points="329.27 40.7 325.79 35.25 322.3 40.7 329.27 40.7"/><polygon class="cls-9" points="339.81 58.22 345.27 54.73 339.81 51.24 339.81 58.22"/><path class="cls-9" d="M311.76 51.25l-3.46 2.21a18.33 18.33 0 0 1 3.46.49z"/><polygon class="cls-9" points="333.24 42.35 338.17 47.28 339.57 40.95 333.24 42.35"/><polygon class="cls-9" points="338.17 62.19 333.24 67.12 339.57 68.51 338.17 62.19"/><polygon class="cls-9" points="313.4 47.28 318.33 42.35 312 40.95 313.4 47.28"/><path class="cls-9" d="M330.34 69.12a9.63 9.63 0 0 0-6.2 2.26 17 17 0 0 0-.26-2.62 16.5 16.5 0 0 0-.44-1.84 16.7 16.7 0 0 0-16-11.93h-.69a16.72 16.72 0 0 0-15.29 21.6 5.9 5.9 0 0 0 .13 11.81h38.76a9.65 9.65 0 0 0 0-19.31z"/></g></g></svg>