<svg id="Layer_1" data-name="Layer 1" xmlns="http://www.w3.org/2000/svg" viewBox="0 0 139.32 50.71"><defs><style>.cls-1{fill:#055d62}</style></defs><title>fish-stock-2</title><path id="_Контур_" data-name="&lt;Контур&gt;" class="cls-1" d="M108.84 26.43s6.18-7.8 21.48-1.6l7-4.3-1.88 5.1 3.22 4.55-7.8-2.7s-16.92 6.2-22.02-1.05z"/><path id="_Контур_2" data-name="&lt;Контур&gt;" class="cls-1" d="M97.47 6.14S102 .44 113.2 5l5.1-3.15-1.37 3.74 2.36 3.33-5.7-2s-12.4 4.52-16.13-.8z"/><path id="_Контур_3" data-name="&lt;Контур&gt;" class="cls-1" d="M76.77 47.06s5.78-7.28 20.1-1.5l6.52-4-1.77 4.76 3 4.27-7.28-2.52s-15.8 5.76-20.58-1.02z"/><path id="_Контур_4" data-name="&lt;Контур&gt;" class="cls-1" d="M54.27 26.67s7.55-9.52 26.26-2l8.53-5.25-2.3 6.24 3.94 5.58L81.2 28s-20.7 7.53-26.93-1.33z"/><path id="_Контур_5" data-name="&lt;Контур&gt;" class="cls-1" d="M23 41.76s6.08-7.66 21.13-1.58L51 36l-1.85 5 3.17 4.5-7.66-2.65S28 48.9 23 41.75z"/><path id="_Контур_6" data-name="&lt;Контур&gt;" class="cls-1" d="M0 21.62S5.28 15 18.37 20.24l6-3.67-1.6 4.36 2.75 3.9-6.66-2.3s-14.5 5.3-18.86-.9z"/><path id="_Контур_7" data-name="&lt;Контур&gt;" class="cls-1" d="M41.45 6.43S47.65-1.4 63 4.8l7-4.3-1.84 5.12 3.24 4.6-7.82-2.7s-17 6.2-22.13-1.1z"/></svg>