<svg id="Layer_1" xmlns="http://www.w3.org/2000/svg" viewBox="0 0 1254 858"><style>.st0{fill:#13757e}</style><title>bg-2</title><path id="_Составной_контур_" class="st0" d="M1158.7 718h-17.2c-1.3 0-2.3 1-2.3 2.3v4.6c0 1.3-1 2.3-2.3 2.3h-4.6c-1.3 0-2.3-1-2.3-2.3v-4.6c0-1.3-1-2.3-2.3-2.3h-17.2c-1.3 0-2.3 1-2.3 2.3v4.6c0 1.3-1 2.3-2.3 2.3h-4.6c-.7 0-1.4-.3-1.8-.9v-54c0-2.5 2-4.5 4.6-4.5h3.9c2.5 0 4.5-2 4.6-4.5v-29.6c0-2.5-2-4.5-4.6-4.5h-33.4c-2.5 0-4.5 2-4.6 4.5v8.8c0 2.5-2 4.5-4.6 4.5h-8.7c-2.5 0-4.5-2-4.6-4.5v-8.8c0-2.5-2-4.5-4.6-4.5h-33.4c-2.5 0-4.5 2-4.5 4.5v8.8c0 2.5-2 4.5-4.5 4.5h-8.7c-2.5 0-4.5-2-4.5-4.5v-8.8c0-2.5-2-4.5-4.5-4.5H954c-2.5 0-4.5 2-4.5 4.5v8.8c0 2.5-2 4.5-4.5 4.5h-8.7c-2.5 0-4.5-2-4.5-4.5v-8.8c0-2.5-2-4.5-4.5-4.5h-33.4c-2.5 0-4.5 2-4.5 4.5v8.8c0 2.5-2 4.5-4.5 4.5H876c-2.5 0-4.5-2-4.5-4.5v-8.8c0-2.5-2-4.5-4.5-4.5h-33.3c-2.5 0-4.5 2-4.5 4.5v29.6c0 2.5 2 4.5 4.5 4.5h3.9c2.5 0 4.5 2 4.5 4.5v54.9H838c-1.3 0-2.3-1-2.3-2.3v-4.6c0-1.3-1-2.3-2.3-2.3h-17.2c-1.3 0-2.3 1-2.3 2.3v4.6c0 1.3-1 2.3-2.3 2.3H807c-1.3 0-2.3-1-2.3-2.3v-4.6c0-1.3-1-2.3-2.3-2.3h-17.2c-1.3 0-2.3 1-2.3 2.3v15.3c0 1.3 1 2.3 2.3 2.3h2.1c1.3 0 2.3 1 2.3 2.3v79.4c0 1.3 1 2.3 2.3 2.3h140.4c2.3 0 2.2-2 2.2-3v-47.7c0-20.7 16.8-37.5 37.5-37.5s37.5 16.8 37.5 37.5v47.7c0 1 .2 3 2.2 3h140.4c1.3 0 2.3-1 2.3-2.3v-79.4c0-1.3 1-2.3 2.3-2.3h2.1c1.3 0 2.3-1 2.3-2.3v-15.3c-.1-1.3-1.1-2.3-2.4-2.3z"/><path id="_Контур_" class="st0" d="M177.5 719.9l-16.4-183.4-5 1.4 16.6 176.8L62.1 595.8l-2.4 1.8s20.1 24.4 52.5 70.2c-12.4 111.9 61.1 153.9 61.1 153.9l115.5 5.8-111.3-107.6z"/><g id="_Группа_"><path id="_Контур_2" class="st0" d="M489.7 861.2l-1.3-54.9s.6-15 8.2-20.5 9.2-51.8 8.5-74c0 0 .9-9.3 7.8-7.1 6.9 2.3 1.5 48.7 3.8 71.2s1.4 81.5 1.4 81.5l-28.4 3.8z"/><path id="_Контур_3" class="st0" d="M528.6 838.5s-.6-135.4-.2-159.9 14-44.7 29.7-44.7 25.5 16.5 26.3 40.4 1.6 148 1.6 148l-18 2.2-2.7-109.7s-1.3-12.6-10.2-11.5-18.8 28.9-18 57.5 4.6 75.5 4.6 75.5l-13.1 2.2z"/><path id="_Контур_4" class="st0" d="M584.4 838.4s-5-47.9 8.8-56 29.4-13.9 35.1 7.3 4.2 44.7 4.2 44.7-28.7 8.4-48.1 4z"/></g></svg>