<svg id="Layer_1" data-name="Layer 1" xmlns="http://www.w3.org/2000/svg" xmlns:xlink="http://www.w3.org/1999/xlink" viewBox="0 0 632 120"><defs><style>.cls-2{fill:url(#linear-gradient-2)}.cls-6{fill:url(#linear-gradient-6)}.cls-7{fill:url(#linear-gradient-7)}</style><linearGradient id="linear-gradient" y1="62.1" x2="632" y2="62.1" gradientTransform="matrix(1 0 0 -1 0 122)" gradientUnits="userSpaceOnUse"><stop offset="0" stop-color="#2af39a"/><stop offset="1" stop-color="#0ab4e3"/></linearGradient><linearGradient id="linear-gradient-2" x1="11" y1="61.2" x2="1244.6" y2="61.2" gradientTransform="matrix(1 0 0 -1 0 122)" gradientUnits="userSpaceOnUse"><stop offset="0" stop-color="#ecf370"/><stop offset=".3" stop-color="#2af39a"/><stop offset=".7" stop-color="#0ab4e3"/><stop offset=".7" stop-color="#29a4d4"/><stop offset=".9" stop-color="#7a79ad"/><stop offset=".9" stop-color="#ac5e94"/><stop offset="1" stop-color="#c0548b"/></linearGradient><linearGradient id="linear-gradient-3" y1="53.2" x2="1244.6" y2="53.2" xlink:href="#linear-gradient-2"/><linearGradient id="linear-gradient-4" y1="38.3" x2="1244.6" y2="38.3" xlink:href="#linear-gradient-2"/><linearGradient id="linear-gradient-5" y1="47.4" x2="1244.6" y2="47.4" xlink:href="#linear-gradient-2"/><linearGradient id="linear-gradient-6" y1="62.7" x2="1244.6" y2="62.7" xlink:href="#linear-gradient-2"/><linearGradient id="linear-gradient-7" y1="56.3" x2="1244.6" y2="56.3" xlink:href="#linear-gradient-2"/><linearGradient id="linear-gradient-8" y1="51.6" x2="1244.6" y2="51.6" xlink:href="#linear-gradient-2"/><linearGradient id="linear-gradient-9" y1="53.2" x2="1244.6" y2="53.2" xlink:href="#linear-gradient-2"/><linearGradient id="linear-gradient-11" x1="11.8" y1="58.8" x2="1245.4" y2="58.8" xlink:href="#linear-gradient-2"/><linearGradient id="linear-gradient-12" y1="45.1" x2="1244.6" y2="45.1" xlink:href="#linear-gradient-2"/><linearGradient id="linear-gradient-13" y1="40.2" x2="1244.6" y2="40.2" xlink:href="#linear-gradient-2"/><linearGradient id="linear-gradient-14" y1="51.2" x2="1244.6" y2="51.2" xlink:href="#linear-gradient-2"/><linearGradient id="linear-gradient-17" y1="45.8" x2="1244.6" y2="45.8" xlink:href="#linear-gradient-2"/><linearGradient id="linear-gradient-20" y1="35.9" x2="1244.6" y2="35.9" xlink:href="#linear-gradient-2"/><linearGradient id="linear-gradient-21" y1="44.2" x2="1244.6" y2="44.2" xlink:href="#linear-gradient-2"/></defs><path fill="url(#linear-gradient)" d="M0 0h632v120H0z"/><path class="cls-2" d="M73.4 18.8h20.5v84.1H73.4z"/><path fill="url(#linear-gradient-3)" d="M42.2 34.8h20.5v68.1H42.2z"/><path fill="url(#linear-gradient-4)" d="M11 64.7h20.5v38.2H11z"/><path fill="url(#linear-gradient-5)" d="M104.2 46.4h20.5v56.5h-20.5z"/><path class="cls-6" d="M197.9 15.8h20.5v87.1h-20.5z"/><path class="cls-7" d="M166.7 28.7h20.5v74.2h-20.5z"/><path fill="url(#linear-gradient-8)" d="M135.5 38H156v64.9h-20.5z"/><path fill="url(#linear-gradient-9)" d="M228.8 34.9h20.5v68h-20.5z"/><path class="cls-2" d="M322.2 18.8h20.5v84.1h-20.5z"/><path fill="url(#linear-gradient-11)" d="M291.8 23.7h20.5v79.2h-20.5z"/><path fill="url(#linear-gradient-12)" d="M259.8 51.1h20.5v51.8h-20.5z"/><path fill="url(#linear-gradient-13)" d="M353.1 60.9h20.5v42h-20.5z"/><path fill="url(#linear-gradient-14)" d="M446.6 38.8h20.5v64.1h-20.5z"/><path class="cls-7" d="M415.4 28.7h20.5v74.2h-20.5z"/><path class="cls-6" d="M384.3 15.8h20.5v87.1h-20.5z"/><path fill="url(#linear-gradient-17)" d="M477.5 49.6H498v53.3h-20.5z"/><path class="cls-2" d="M571 18.8h20.5v84.1H571z"/><path class="cls-7" d="M539.9 28.7h20.5v74.2h-20.5z"/><path fill="url(#linear-gradient-20)" d="M508.7 69.5h20.5v33.4h-20.5z"/><path fill="url(#linear-gradient-21)" d="M601.9 52.8h20.5v50.1h-20.5z"/></svg>