<svg version="1.1" id="Слой_1" xmlns="http://www.w3.org/2000/svg" xmlns:xlink="http://www.w3.org/1999/xlink" x="0px" y="0px" viewBox="0 0 87 38" style="enable-background:new 0 0 87 38" xml:space="preserve"><style type="text/css">.st0{fill:#546a79}.st1{fill:#ebd261}</style><g id="XMLID_651_"><path id="XMLID_676_" class="st0" d="M86.4 18.9c0 2.6-2.1 4.7-4.7 4.7S77 21.5 77 18.9s2.1-4.7 4.7-4.7 4.7 2.1 4.7 4.7zm0 0"/><path id="XMLID_673_" class="st0" d="M67.4 18.9c0 2.6-2.1 4.7-4.7 4.7S58 21.5 58 18.9s2.1-4.7 4.7-4.7 4.7 2.1 4.7 4.7zm0 0"/><path id="XMLID_670_" class="st0" d="M76.9 4.7c0 2.6-2.1 4.7-4.7 4.7s-4.7-2.1-4.7-4.7S69.6 0 72.2 0s4.7 2.1 4.7 4.7zm0 0"/><path id="XMLID_667_" class="st0" d="M48.4 18.9c0 2.6-2.1 4.7-4.7 4.7S39 21.5 39 18.9s2.1-4.7 4.7-4.7 4.7 2.1 4.7 4.7zm0 0"/><path id="XMLID_664_" class="st0" d="M29.5 18.9c0 2.6-2.1 4.7-4.7 4.7s-4.7-2.1-4.7-4.7 2.1-4.7 4.7-4.7c2.5 0 4.7 2.1 4.7 4.7zm0 0"/><path id="XMLID_661_" class="st0" d="M57.9 4.7c0 2.6-2.1 4.7-4.7 4.7s-4.7-2.1-4.7-4.7S50.6 0 53.2 0s4.7 2.1 4.7 4.7zm0 0"/><path id="XMLID_658_" class="st0" d="M38.9 4.7c0 2.6-2.1 4.7-4.7 4.7s-4.7-2.1-4.7-4.7S31.6 0 34.2 0s4.7 2.1 4.7 4.7zm0 0"/><path id="XMLID_655_" class="st0" d="M10.5 18.9c0 2.6-2.1 4.7-4.7 4.7s-4.7-2.1-4.7-4.7 2.1-4.7 4.7-4.7 4.7 2.1 4.7 4.7zm0 0"/><path id="XMLID_652_" class="st0" d="M20 4.7c0 2.6-2.1 4.7-4.7 4.7s-4.7-2.1-4.7-4.7S12.7 0 15.3 0 20 2.1 20 4.7zm0 0"/></g><g id="XMLID_578_"><path id="XMLID_582_" class="st1" d="M53.8 30.1v5.6c0 1 .8 1.9 1.9 1.9s1.9-.8 1.9-1.9v-5.6h-3.8z"/><path id="XMLID_581_" class="st1" d="M31.5 30.1v5.6c0 1 .8 1.9 1.9 1.9 1 0 1.9-.8 1.9-1.9v-5.6h-3.8z"/><path id="XMLID_580_" class="st1" d="M38.9 30.1v5.6c0 1 .8 1.9 1.9 1.9 1 0 1.9-.8 1.9-1.9v-5.6h-3.8z"/><path id="XMLID_579_" class="st1" d="M46.4 30.1v5.6c0 1 .8 1.9 1.9 1.9 1 0 1.9-.8 1.9-1.9v-5.6h-3.8z"/></g></svg>