<svg id="Layer_1" data-name="Layer 1" xmlns="http://www.w3.org/2000/svg" xmlns:xlink="http://www.w3.org/1999/xlink" viewBox="0 0 632 120"><defs><style>.cls-5{fill:#fa5f02}.cls-6{fill:#2ec8ff}</style><clipPath id="clip-path"><rect x="-0.15" width="632" height="120" style="fill:none"/></clipPath></defs><title>poschitay_cveta_fin</title><g style="clip-path:url(#clip-path)"><rect x="0.15" width="632" height="120" style="fill:#104252"/><rect x="34.65" width="563" height="120" rx="4" ry="4" style="opacity:.3"/><circle class="cls-5" cx="80.15" cy="78.78" r="19.5"/><circle class="cls-5" cx="395.15" cy="38.78" r="19.5"/><rect class="cls-5" x="217.65" y="-19.72" width="39" height="39"/><rect class="cls-5" x="493.65" y="-19.72" width="39" height="39"/><polygon class="cls-6" points="138.71 19.28 99.43 19.28 119.07 -20 119.07 -20 138.71 19.28"/><rect class="cls-6" x="296.65" y="59.28" width="39" height="39"/><polygon class="cls-6" points="375.26 138.28 335.98 138.28 355.62 99 355.62 99 375.26 138.28"/><rect class="cls-6" x="453.65" y="19.28" width="39" height="39"/><polygon class="cls-6" points="532.37 97.28 493.09 97.28 512.73 58 512.73 58 532.37 97.28"/><polygon class="cls-5" points="217.27 97.28 177.99 97.28 197.63 58 197.63 58 217.27 97.28"/><polygon class="cls-5" points="453.81 137.28 414.54 137.28 434.18 98 434.18 98 453.81 137.28"/></g></svg>