<svg version="1.1" id="Layer_1" xmlns="http://www.w3.org/2000/svg" xmlns:xlink="http://www.w3.org/1999/xlink" x="0px" y="0px" viewBox="0 0 210 125" style="enable-background:new 0 0 210 125" xml:space="preserve"><style type="text/css">.st1{fill:#fff}</style><rect id="XMLID_3001_" width="210" height="125" style="fill-rule:evenodd;clip-rule:evenodd;fill:#019788"/><g id="XMLID_2227_"><path id="XMLID_2280_" class="st1" d="M34.2 12h8L55 42.3h-8.9L43.9 37H32.3l-2.2 5.4h-8.8L34.2 12zm7.3 18.5l-3.4-8.6-3.4 8.6h6.8z"/></g><g id="XMLID_1577_"><path id="XMLID_1582_" class="st1" d="M118.1 70h23c5.6 0 9.6 1.4 12.2 4 1.8 1.8 2.9 4.2 2.9 7.4 0 5.2-2.9 8.3-6.9 10 5.4 1.8 8.9 4.9 8.9 11.1 0 7.7-6.3 12.4-17 12.4h-23.1V70zM138 87.9c3.8 0 5.9-1.3 5.9-4 0-2.4-1.9-3.8-5.6-3.8h-8.1V88h7.8zm1.8 17c3.8 0 6-1.5 6-4.2 0-2.4-1.9-4-6.1-4h-9.5v8.3h9.6z"/></g><g id="XMLID_69_"><path id="XMLID_1575_" class="st1" d="M127.2 27.1h19.7v5.8h-13v3.7h11.7v5.3h-11.7v3.9H147v5.8h-19.8V27.1z"/></g><g id="XMLID_95_"><path id="XMLID_96_" class="st1" d="M172.2 21.8h-12.8V11.5h37.3v10.3H184V54h-11.8V21.8z"/></g><g id="XMLID_91_"><path id="XMLID_92_" class="st1" d="M170.6 89.7c0-8.1 6.5-14.7 15.2-14.7S201 81.5 201 89.7c0 8.1-6.5 14.7-15.2 14.7s-15.2-6.6-15.2-14.7zm22.4 0c0-4.1-2.9-7.6-7.3-7.6-4.3 0-7.1 3.5-7.1 7.6s2.9 7.6 7.2 7.6c4.4 0 7.2-3.5 7.2-7.6z"/></g><g id="XMLID_86_"><path id="XMLID_87_" class="st1" d="M65.9 39c0-14.6 11.2-26 26.4-26 10.2 0 16.6 4.4 21 10.6l-10.2 7.9c-2.9-3.6-6.2-5.8-11-5.8-7 0-11.9 5.9-11.9 13.4s4.9 13.4 11.9 13.4c5.2 0 8.3-2.4 11.3-6.1l10.4 7.4c-4.7 6.4-11 11.2-22.1 11.2-14.3 0-25.8-10.9-25.8-26z"/></g><g id="XMLID_83_"><path id="XMLID_84_" class="st1" d="M80.2 89.6H87v9.9l8.4-9.9h8l-9.2 10.5 9.5 13.9h-8.1l-6.1-9.1-2.5 2.8v6.3h-6.8V89.6z"/></g><g id="XMLID_80_"><path id="XMLID_81_" class="st1" d="M16.8 67H29l10 16.2L49 67h12.2v41.7H49.6v-24L39 101.1h-.2L28.1 84.9v23.8H16.8V67z"/></g></svg>