<svg version="1.1" id="Layer_1" xmlns="http://www.w3.org/2000/svg" xmlns:xlink="http://www.w3.org/1999/xlink" x="0px" y="0px" viewBox="0 0 210 125" style="enable-background:new 0 0 210 125" xml:space="preserve"><style type="text/css">.st1{fill:#5fb5d4}.st4{fill:#f5972b}.st5{fill:#f5d03a}.st6{fill:#fff}.st7{fill:#4d4d4d}.st8,.st9{fill:none;stroke:#fff;stroke-width:1.82;stroke-miterlimit:10}.st9{stroke-width:3.32}</style><g id="_Группа_обтравки_2"><g><defs><rect id="SVGID_1_" y="0" width="210" height="125"/></defs><use xlink:href="#SVGID_1_" style="overflow:visible;fill:#5fb5d4"/><clipPath id="SVGID_2_"><use xlink:href="#SVGID_1_" style="overflow:visible"/></clipPath><g style="clip-path:url(#SVGID_2_)"><g id="_Группа_74"><rect id="_Контур_93" x="-216.8" y="-219.6" class="st1" width="632.7" height="632.3"/><g id="caustic1" style="opacity:9.000000e-02"><g id="_Группа_75"><path id="_Контур_94" class="st1" d="M147.4 128.8c.1-.7.2-1.3.3-2v.7c.2-.9.2-1.8.2-2.7l-.1.6c-.2 1 0-1.2-.1-1.6-.1.3-.3 3-.3 2.3v-1.2c-.1.7-.2 1.4-.2 2.1-.1-5.3-.3 1.5-.5-1.9-.1.4-.2 0-.3 1.1 0-1.3-.1-.1-.2-1.6.1 3.1-.4-1.3-.2 2.6-.2-1 0 .2-.2-.6v-.5c-.1-.8 0 1.7-.2-.1-.2-.2.1 1 .1 2.1-.2-.8-.4-1.7-.4-2.5.1.6.1 1.3 0 1.9.1.4.2.7.2 1.1-.2-.2 0 1.2-.1 1.8-.3-2 .1-.1-.2-1.6 0-1 .1-.9 0-2.4-.1-.1-.3.3-.3 1.2-.1-.2-.1-1-.1-1.1-.2-.8 0 2.1-.2 1.3l-.1-1c.1 1.4-.3-.2-.3.6.1.5.1.9.2 1.2-.3-2.6 0 1.4-.4-.3.2.9.2 1.9.2 2.8-.1-.4-.2-1.1-.2-1.5.2.9-.1-1.8-.1-2.7 0 .9-.2.1-.1 1.3l-.1-1.3c-.1-.2.3 2.9 0 1.8l-.1-.9c-.1.1-.2-.1-.4-.2l-.5-.4.2 2.2c0 .4.2.6.7-.2.3-.6.9-2.1 1.1-2.6-.3.4-.8 1.4-1.2 1.8l.6-1.1c-.1.2-.3.4-.4.6l-.2 1.7c0-.5-.1-1-.2-1.5 0-.8.2 1.3.2.4.2 1.6.2 1.7.4 3v-.8c.1.6.1.5.2 1.1-.1-1.9.3.6.3-.3l-.1-.2c-.1-.3-.1-.7-.1-1l.3 1.5c-.1-.8-.1-1.5-.1-2.3.2 1.6.2.8.4 2.2-.2-1.6.1-.6 0-1.6 0-.3.1-.2.2.7v.3h.1v.4c0 .1-.1-1.2 0-.4v.6c.1.2-.1-2.6.1-1.1 0-.9-.1-1.7-.2-2.6.1.6.3 2 .3 1.7-.1-1.5.2.5.1-.5.1 1.6 0 .4.1 1.9.1.6 0-1.4.1-1.2l.1 1.1c0-.5-.1-1.8.1-.5l-.1-1c.2.4.3.8.4 1.3l-.1-2c.3 2.1 1.1.2 1.1-1.7.1.1 1 .4 1 .9v.7c0 .1-.7 1.2-.7-.5 0-.5-.3 1.1-.3 1.4 0-2.4.2 1.7.1-1.9-.1 0-.3-.7-.4-.5 0-.4-.1-1.2 0-1.2s.2 1.2.3.6v2.3c0 2 .2-3.4.3-.1z"/><path id="_Контур_95" class="st1" d="M150.3 126.8l.4-1.2c-.1.7.2 0-.1 1.1.4-1.5.2.2.7-2.1-.6.4-.9-1.3-1.7.5l.2-.9c-.5 1.7-.1-2.2-.8 1.4l.3-1.9c-.1-.6-.5 2.7-.4.6l-.1.8v-.4.3c-.2.8-.2.6-.2.1s.1-.2.1-.4c0-.6-.2.7-.2.6 0-.4 0-.8.1-1.1-.3.8-.2-1.3-.5 1.6 0 .4 0 .8-.1 1.2.1.9.2-.2.4-1 .3-2.8 0 .7.2-.5-.1 1.1-.2 1.1-.2 1.7 0 2.2.4-1.6.2 1.2v.1c0 .3.1-.2.1-.5v-.8c0-.2.2-1.5.3-2-.1 1.2.1-.6.1.1 0 .5-.1 1.1-.3 1.6l.2-.7c0 .6 0 1.2-.1 1.9.2-.8 0-.6.2-1.8-.1 1.4.2 1.2.6.2-.1.1-.2 1.2-.2 1 0 .3.1-.3.3-1.1.2-.7.3-.1.2.8l.3-.8c.4-1.4.5 1.2.5.5 0-.2.3-2.1.3-1.6-.4.7-.6.5-.8 1.5z"/><path id="_Контур_96" class="st1" d="M151.2 125.3l-.3 1.1c.3-.6.5-1.2.6-1.8-.1.2 0-.3-.2.3-.1.2-.2.6-.1.4z"/><path id="_Контур_97" class="st1" d="M152.2 126.1c.1-.2.2-.6.3-.9-.2-.1-.6.1-.5-.8 0-.4-.4 1.2-.6 1.6l.2-1.2c-.2.7-.1-.7-.5 1.2 0 .2.3-.8.2-.5l-.2.6.1-.1-.2.8c-.2 1.2.7-2.3.7-1.4l-.4 1.6c.1.2.3-.3.1.7 0 0 .2-.8.1-.5l.3-1.2c.5-1.1-.3.9-.4 1.7.4-1 .9-1.6.6-.3.2-1 .6-1.9.7-1.7-.1.5-.3.9-.5 1.3 0 .2-.1.6 0 .4.2-.8.5-1.7.9-2.4.2-1.2-.8 1.4-.9 1.1z"/><path id="_Контур_98" class="st1" d="M152.7 124.8c-.1.1-.1.2-.1.3h.1v-.3z"/></g><g id="_Группа_76"><path id="_Контур_99" class="st1" d="M108.9 129.1c0-.7 0-1.3-.1-2l.1.7c0-.9-.1-1.8-.3-2.7l.1.6c.1 1-.2-1.1-.4-1.5 0 .4.3 2.9.2 2.4-.1-.4-.2-.7-.2-1.1-.1-.1.2 1.8.2 2.1-.9-5 0 1.5-.6-1.6 0 .4-.2.1-.1 1.1-.2-1.3-.1-.1-.3-1.5.5 2.9-.5-1.2.2 2.5-.3-1 0 .2-.2-.5 0-.2-.1-.3-.1-.5-.2-.8.2 1.6-.1-.1 0 .7.1 1.4.2 2.1-.2-.8-.4-1.6-.5-2.5.1.6.1 1.3.1 1.9.1.4.2.7.2 1.1-.2-.2 0 1.2 0 1.8-.3-2 .1-.1-.2-1.6 0-1 0-.9-.1-2.4-.1-.1-.2.3-.2 1.2-.1-.2-.1-1-.2-1.1-.2-.8.1 2.1-.1 1.3l-.1-1c.1 1.4-.2-.2-.2.6.1.5.2.9.2 1.2-.4-2.6.1 1.4-.3-.3.2.9.3 1.8.3 2.7-.1-.4-.2-1.1-.3-1.5.2.9-.2-1.8-.3-2.6.1.9-.2.1 0 1.3l-.2-1.3c-.1-.1.4 2.9.1 1.8l-.2-.9c-.2.2-.7-1.2-.4.9.2.7.6 2.4.7 3-.1-.7-.3-2-.4-2.7l.3 1.4c-.2-1-.2-1.6-.4-2.3s.3 1.2.2.4l.5 2.9-.1-.8c.1.6.1.5.2 1.1-.3-1.9.2.6.2-.2l-.1-.2c-.1-.3-.1-.7-.1-1l.3 1.5c-.1-.7-.3-2.2-.2-2.2.2 1.6.2.8.5 2.2-.1-.5-.1-1-.1-1.6 0-.4.1-.2.2.7v.7s-.1-1.1 0-.4c0 .2.1.4.1.6.1.2-.2-2.5 0-1.1-.1-.8 0-.9-.2-2.6.1.6.1 1.1.3 1.7-.1-1.5.1.5.1-.4.1 1.6 0 .4.2 1.9.1.6-.1-1.4 0-1.2l.1 1.1c0-.5-.1-1.8.1-.6l-.1-1c.2.4.3.8.4 1.2l-.2-2c.5 2 .3.1 0-1.7.1.3.2.5.2.8l.1.7c.1 0 .3 1.1.1-.5 0-.5.2 1.1.3 1.3-.3-2.3.6 1.5 0-2 0 0-.2-.6-.3-.4-.1-.4-.2-1.1-.2-1.2s.3 1 .3.4l.4 2.2c.5 1.9-.2-3.3.4-.3z"/><path id="_Контур_100" class="st1" d="M111.1 126.2c.2-.3.4-.7.6-1-.2.6.3.2-.2 1.1.7-1.2.3.4 1.1-1.4-.4-.2-.7-.8-1.2-1.1s-.9-.3-1.3.7c0-.3.1-.6.1-.9-.2.9-.3.4-.4.1s-.2-.3-.2 1.6l-.1-1.9c-.2-.5-.1 2.8-.3.8l.1.8-.1-.3v.3c0 .8 0 .7-.2.2s0-.3 0-.4c-.1-.6 0 .7-.1.7-.1-.4-.1-.8-.1-1.1-.1.9-.4-1-.1 1.8.1.4.1.8.2 1.2.2.8.1-.3.1-1.1-.3-2.8.1.6.1-.6.1 1.1-.3 1.1-.2 1.8.3 2.1 0-1.7 0 1v.1c0 .3.3-.3.3-.5s.1-.5.1-.8v-2c.1 1.2 0-.6.2 0 .1 1.2 0 1.1.1 1.7v-.8c.1.6.2 1.2.2 1.8 0-.9-.1-.6-.1-1.8.2 1.4.3 1 .6-.1-.1.2-.1 1.2-.1 1 0 .3.1-.3.2-1.2s.3-.1.3.7l.1-.9c.4-1.4.1 1.2.4.5.1-.1.7-1.9.8-1.4-.5.4-.7.9-.9 1.4z"/><path id="_Контур_101" class="st1" d="M112.3 125.6l-.5.8c-.1.3.6-.7.9-1.2-.2.1 0-.4-.3.1l-.1.3z"/></g></g><g id="caustic"><g id="_Группа_77"><g id="_Группа_78"><g id="_Группа_79"><g><ellipse id="_Контур_102" class="st1" cx="-7.2" cy="43" rx="66.6" ry="18.2"/></g></g><g id="_Группа_80"><g><path id="_Контур_103" class="st1" d="M-159.4 26.5c0 8.4 52.1 15.1 116.4 15.1S73.4 34.9 73.4 26.5 21.3 11.4-43 11.4s-116.4 6.8-116.4 15.1z"/></g></g><g><ellipse id="_Контур_104" class="st1" cx="50.2" cy="0" rx="49.7" ry="13.6"/></g><g id="_Группа_81"><g id="_Группа_82"><g><ellipse id="_Контур_105" class="st1" cx="85.9" cy="66.5" rx="66.6" ry="18.2"/></g><g><ellipse id="_Контур_106" class="st1" cx="60.6" cy="56.3" rx="28.7" ry="21.7"/></g></g><g><path id="_Контур_107" class="st1" d="M81.6 61.8c-1.2 7.3 19.4 20.5 46 29.4s49.3 10.2 50.6 3-19.4-20.5-46-29.4-49.4-10.3-50.6-3z"/></g></g><g id="_Группа_83"><g><path id="_Контур_108" class="st1" d="M-85.6-34.1c-1.1 11.6 17.7 32.5 42.1 46.7S1.6 28.8 2.7 17.3-15-15.2-39.4-29.4s-45-16.3-46.2-4.7z"/></g></g><g><ellipse id="_Контур_109" class="st1" cx="59.3" cy="11.1" rx="21.4" ry="16.2"/></g></g><g id="_Группа_84"><g id="_Группа_85"><g id="_Группа_86"><g><path id="_Контур_110" class="st1" d="M158 133.2c0 8.4 52.1 15.2 116.4 15.2s116.4-6.8 116.4-15.2S338.7 118 274.4 118 158 124.8 158 133.2z"/></g><g><path id="_Контур_111" class="st1" d="M179.9 124.7c0 10 22.5 18.1 50.3 18.1s50.3-8.1 50.3-18.1-22.5-18-50.3-18-50.3 8-50.3 18z"/></g></g><g id="_Группа_87"><g id="_Группа_88"><g><ellipse id="_Контур_112" class="st1" cx="235.7" cy="79.9" rx="60.8" ry="28.9"/></g><g><ellipse id="_Контур_113" class="st1" cx="206.1" cy="79.9" rx="26.3" ry="34.4"/></g></g></g><g><ellipse id="_Контур_114" class="st1" cx="132.4" cy="119.3" rx="21.4" ry="16.2"/></g></g></g><g id="_Группа_89"><g id="_Группа_90"><g id="_Группа_91"><g><path id="_Контур_115" class="st1" d="M230.1 85.9c-5 10.6-29.4 11.3-54.5 1.6s-41.3-26.3-36.2-36.9 29.5-11.3 54.5-1.6 41.3 26.3 36.2 36.9z"/></g><g><path id="_Контур_116" class="st1" d="M226.7 71.8c-6 12.6-19.6 19.5-30.5 15.3s-14.7-17.9-8.7-30.5 19.6-19.5 30.5-15.3 14.7 17.9 8.7 30.5z"/></g></g><g><path id="_Контур_117" class="st1" d="M190 64.5c-2.8 8-23.4 16.5-46.1 18.8S105.2 81 108 73s23.4-16.4 46.1-18.8 38.8 2.3 35.9 10.3z"/></g></g><g id="_Группа_92"><g id="_Группа_93"><g><path id="_Контур_118" class="st1" d="M-18.4 118.4c-3.1 9.3 15.3 26.8 41.1 39.3s49.2 15 52.2 5.8-15.3-26.8-41.1-39.3-49.1-15.1-52.2-5.8z"/></g></g><g><path id="_Контур_119" class="st1" d="M121.2 122.9c0 7.5 22.2 13.6 49.7 13.6s49.7-6.1 49.7-13.6-22.2-13.6-49.7-13.6-49.7 6-49.7 13.6z"/></g><g id="_Группа_94"><g id="_Группа_95"><g><path id="_Контур_120" class="st1" d="M-21.8 96.1c0 16 27.2 28.9 60.8 28.9s60.8-12.9 60.8-28.9S72.6 67.2 39 67.2s-60.8 12.9-60.8 28.9z"/></g><g><path id="_Контур_121" class="st1" d="M-16.9 96.1c0 19 11.8 34.4 26.3 34.4s26.3-15.4 26.3-34.4S23.9 61.7 9.4 61.7s-26.3 15.4-26.3 34.4z"/></g></g><g><path id="_Контур_122" class="st1" d="M35.1 88.7c-1.2 11.6 17.7 32.5 42.1 46.7s45.1 16.3 46.2 4.7-17.7-32.5-42.1-46.7-45.1-16.2-46.2-4.7z"/></g></g><g><path id="_Контур_123" class="st1" d="M158.5 133.9c0 8.9 9.6 16.2 21.4 16.2s21.4-7.2 21.4-16.2-9.6-16.2-21.4-16.2-21.4 7.3-21.4 16.2z"/></g></g></g><g id="_Группа_96"><g id="_Группа_97"><g id="_Группа_98"><g><ellipse id="_Контур_124" class="st1" cx="196.6" cy="7.3" rx="66.5" ry="18.2"/></g><g><ellipse id="_Контур_125" class="st1" cx="171.4" cy="-2.8" rx="28.7" ry="21.7"/></g></g><g id="_Группа_99"><g><ellipse id="_Контур_126" class="st1" cx="160.9" cy="-9.1" rx="116.4" ry="15.1"/></g><g><ellipse id="_Контур_127" class="st1" cx="116.7" cy="-17.5" rx="50.3" ry="18"/></g></g><g><path id="_Контур_128" class="st1" d="M108.6.5c0 9 9.6 16.2 21.4 16.2S151.4 9.4 151.4.5s-9.6-16.2-21.4-16.2S108.6-8.4 108.6.5z"/></g></g></g><g id="_Группа_102"><g id="_Группа_103"><g><path id="_Контур_129" class="st1" d="M234.9 123.2c-2.8 8-23.4 16.5-46.1 18.8s-38.8-2.3-35.9-10.3 23.4-16.4 46.1-18.8 38.7 2.3 35.9 10.3z"/></g><g><path id="_Контур_130" class="st1" d="M194.9 120.6c1.8 8.4-10.5 30.1-27.4 48.4s-32.1 26.3-33.9 17.8 10.5-30.1 27.4-48.4 32.1-26.2 33.9-17.8z"/></g></g></g><g id="_Группа_104"><g id="_Группа_105"><g id="_Группа_106"><g><path id="_Контур_131" class="st1" d="M144 143.1c-5 10.6-29.4 11.3-54.5 1.6s-41.2-26.3-36.2-36.9 29.4-11.3 54.5-1.6 41.3 26.3 36.2 36.9z"/></g><g><path id="_Контур_132" class="st1" d="M140.6 129c-6 12.6-19.7 19.5-30.5 15.3s-14.7-17.9-8.7-30.5 19.6-19.4 30.5-15.2 14.7 17.8 8.7 30.4z"/></g></g><g><path id="_Контур_133" class="st1" d="M103.9 121.7c-2.8 8-23.4 16.4-46.1 18.8s-38.8-2.3-36-10.3 23.5-16.5 46.1-18.8 38.9 2.2 36 10.3z"/></g></g><g id="_Группа_107"><g id="_Группа_108"><g id="_Группа_109"><g><ellipse id="_Контур_134" class="st1" cx="-47.1" cy="153.3" rx="60.8" ry="28.9"/></g></g></g></g></g></g></g><g id="caustic_shadows"><g><ellipse id="_Контур_135" class="st1" cx="84.7" cy="157.5" rx="54.7" ry="45.5"/></g><g><ellipse id="_Контур_136" class="st1" cx="223.9" cy="88.3" rx="54.7" ry="45.5"/></g></g><g><rect id="_Контур_137" x="-215.6" y="-219.6" class="st1" width="631.5" height="632.5"/></g><g id="fog-2"><g><path id="_Контур_138" class="st1" d="M415.9-219.7H-4.8C-35-164.8-52.6-98.1-52.6-26.1c0 187.3 119.5 339.1 267 339.1 80.4 0 152.5-45.2 201.5-116.6v-416.1z"/></g><g><path id="_Контур_139" class="st1" d="M210.8-219.7h-426.5v407.5C-166.7 264.2-92 313-8.4 313c147.5 0 267.1-151.8 267.1-339.1-.1-72-17.7-138.7-47.9-193.6z"/></g></g><g id="_Группа_110"><g><path id="_Контур_140" class="st1" d="M63.5 413.3C114.7 291.2 182 82.8 244.9-156.5c5.6-21.2 11-42.2 16.3-63H115.9c-2.7 10.2-5.5 20.5-8.2 30.9C41.8 62.1-3.2 285.1-16.3 413.3h79.8z"/></g><g><path id="_Контур_141" class="st1" d="M198.2-219.6C111.5 123.2 62.7 391.6 87.6 397.5c25.5 6 118.9-264.6 214.3-617l-103.7-.1z"/></g><g><path id="_Контур_142" class="st1" d="M71.4-219.6C-19.5 76.8-71.8 299.5-49.3 306c23.1 6.7 118-218.4 223.9-525.6H71.4z"/></g><g><path id="_Контур_143" class="st1" d="M219.7 413.3c44.1-112 104.1-351.9 155-632.5l.1-.4H231.4c-49.8 279.2-76.6 520.4-72.7 632.8l61 .1z"/></g><g><path id="_Контур_144" class="st1" d="M7.4-219.6C-137 113.5-224.5 382.2-191 395.5c35.2 14 191-259.5 351.2-615.1H7.4z"/></g><g><path id="_Контур_145" class="st1" d="M-215.9 223.8C-149.7 137.4-49.4-24 58-219.6H-96.3c-46.9 94.3-87.5 181.4-119.6 255.9v187.5z"/></g></g><g id="_Группа_111"><g><path id="_Контур_146" class="st1" d="M254.8-219.6C212.3-81 187.8 23.2 198.3 26.2c10.8 3.2 55.2-102.1 104.7-245.8h-48.2z"/></g><g><path id="_Контур_147" class="st1" d="M224.9-219.6C157.3-63.8 116.4 61.8 132.1 68.1c16.4 6.5 89.3-121.3 164.2-287.6h-71.4z"/></g></g></g></g></g></g><path id="_Составной_контур_" d="M201 72.3h-8.9c-.6 0-1.1.5-1.1 1.2v2.4c0 .6-.5 1.2-1.2 1.2h-2.4c-.6 0-1.2-.5-1.2-1.2v-2.4c0-.6-.5-1.2-1.2-1.2h-8.9c-.6 0-1.2.5-1.2 1.2v2.4c0 .6-.5 1.2-1.2 1.2h-2.4c-.4 0-.7-.2-.9-.4v-28c0-1.3 1.1-2.3 2.4-2.3h2c1.3 0 2.3-1 2.3-2.3V28.8c0-1.3-1-2.3-2.3-2.3h-17.2c-1.3 0-2.3 1-2.3 2.3v4.5c0 1.3-1 2.3-2.3 2.3h-4.5c-1.3 0-2.3-1-2.3-2.3v-4.5c0-1.3-1-2.3-2.3-2.3h-17.2c-1.3 0-2.3 1-2.3 2.3v4.5c0 1.3-1 2.3-2.3 2.3h-4.5c-1.3 0-2.3-1-2.3-2.3v-4.5c0-1.3-1-2.3-2.3-2.3H95.7c-1.3 0-2.3 1-2.3 2.3v4.5c0 1.3-1.1 2.3-2.4 2.3h-4.5c-1.3 0-2.3-1-2.3-2.3v-4.5c0-1.3-1-2.3-2.3-2.3H64.7c-1.3 0-2.3 1-2.3 2.3v4.5c0 1.3-1 2.3-2.3 2.3h-4.5c-1.3 0-2.3-1-2.3-2.3v-4.5c0-1.3-1-2.3-2.3-2.3H33.6c-1.3 0-2.3 1-2.3 2.3V44c0 1.3 1 2.3 2.3 2.3h2c1.3 0 2.4 1 2.4 2.3V77h-2.1c-.6 0-1.2-.5-1.2-1.2v-2.4c0-.6-.5-1.2-1.2-1.2h-8.9c-.6 0-1.2.5-1.2 1.2v2.4c0 .6-.5 1.2-1.2 1.2h-2.4c-.6 0-1.2-.5-1.2-1.2v-2.4c0-.6-.5-1.2-1.2-1.2H8.7c-.6 0-1.2.5-1.2 1.2v7.9c0 .6.5 1.2 1.2 1.2h1.1c.7 0 1.2.5 1.2 1.2v40.9c0 .6.5 1.2 1.2 1.2h72.3c1.2 0 1.1-1 1.1-1.5V99.6c0-10.7 8.6-19.3 19.3-19.3s19.3 8.6 19.3 19.3v24.6c0 .5.1 1.5 1.1 1.5h72.3c.6 0 1.2-.5 1.2-1.2V83.7c0-.6.5-1.2 1.2-1.2h1.1c.6 0 1.2-.5 1.2-1.2v-7.9c-.1-.6-.6-1.1-1.3-1.1z" style="opacity:.1;enable-background:new"/><g id="_Группа_115"><path id="_Составной_контур_10" class="st4" d="M23.9 68.3V51.5l8.4 8.4-8.4 8.4z"/><path id="_Составной_контур_11" class="st5" d="M48.7 60.5c-.3 0-.6-.3-.6-.6s.3-.6.6-.6h1.8L31.1 40v39.9l19.4-19.4h-1.8z"/><path id="_Составной_контур_12" class="st6" d="M46.6 59.9c0 1-.9 1.9-1.9 1.9s-1.9-.9-1.9-1.9c0-1 .9-1.9 1.9-1.9s1.9.9 1.9 1.9z"/><path id="_Составной_контур_13" class="st7" d="M45.8 59.9c0 .6-.5 1.2-1.2 1.2s-1.2-.5-1.2-1.2.5-1.2 1.2-1.2c.7.1 1.2.6 1.2 1.2z"/><path id="_Составной_контур_14" class="st4" d="M32.6 41.5l3.4 3.4-1.4 7.5-2-10.9z"/><path id="_Составной_контур_15" class="st4" d="M40.3 49.2l-.9 5-1.3-7.2 2.2 2.2z"/><path id="_Составной_контур_16" class="st4" d="M34.6 67.5L36 75l-3.4 3.4 2-10.9z"/><path id="_Составной_контур_17" class="st4" d="M40.3 70.6l-2.2 2.2 1.3-7.2.9 5z"/><polygon id="_Контур_151" class="st8" points="51.5,59.8 30.5,38.8 30.5,80.6 	"/><polyline id="_Контур_152" class="st8" points="30.5,57.8 23.9,51.3 23.9,68.3 30.4,61.8 	"/></g><g id="_Группа_117"><path id="_Составной_контур_18" class="st4" d="M160.8 68.3V51.5l8.4 8.4-8.4 8.4z"/><path id="_Составной_контур_19" class="st5" d="M185.6 60.5c-.3 0-.6-.3-.6-.6s.3-.6.6-.6h1.8L168 40v39.9l19.4-19.4h-1.8z"/><path id="_Составной_контур_20" class="st6" d="M183.5 59.9c0 1-.9 1.9-1.9 1.9-1 0-1.9-.9-1.9-1.9 0-1 .9-1.9 1.9-1.9 1 0 1.9.9 1.9 1.9z"/><path id="_Составной_контур_21" class="st7" d="M182.7 59.9c0 .6-.5 1.2-1.2 1.2-.6 0-1.2-.5-1.2-1.2 0-.6.5-1.2 1.2-1.2s1.2.6 1.2 1.2z"/><path id="_Составной_контур_22" class="st4" d="M169.5 41.5l3.4 3.4-1.4 7.5-2-10.9z"/><path id="_Составной_контур_23" class="st4" d="M177.2 49.2l-.9 5L175 47l2.2 2.2z"/><path id="_Составной_контур_24" class="st4" d="M171.5 67.5l1.4 7.5-3.4 3.4 2-10.9z"/><path id="_Составной_контур_25" class="st4" d="M177.2 70.6l-2.2 2.2 1.3-7.2.9 5z"/><polygon id="_Контур_153" class="st8" points="188.4,59.8 167.4,38.8 167.4,80.6 	"/><polyline id="_Контур_154" class="st8" points="167.4,57.8 160.8,51.3 160.8,68.3 167.3,61.8 	"/></g><title>Artboard 10</title><polygon id="_Контур_148" class="st4" points="129,62 123.9,68.1 123.9,53.6 131,60.6 "/><g id="_Группа_113"><path id="_Составной_контур_2" class="st4" d="M80.1 75.4V44.8l15.3 15.3-15.3 15.3z"/><path id="_Составной_контур_3" class="st5" d="M125.2 61.1c-.6 0-1-.5-1-1s.5-1 1-1h3.2L93.1 23.7v72.7l35.3-35.3h-3.2z"/><path id="_Составной_контур_4" class="st6" d="M121.3 60.1c0 1.9-1.5 3.5-3.5 3.5-1.9 0-3.4-1.5-3.4-3.5 0-1.9 1.5-3.5 3.5-3.5 1.9 0 3.4 1.6 3.4 3.5z"/><path id="_Составной_контур_5" class="st7" d="M120 60.1c0 1.2-.9 2.1-2.1 2.1-1.2 0-2.1-.9-2.1-2.1 0-1.2.9-2.1 2.1-2.1 1.1 0 2.1.9 2.1 2.1z"/><path id="_Составной_контур_6" class="st4" d="M95.8 26.5l6.2 6.1-2.5 13.6-3.7-19.7z"/><path id="_Составной_контур_7" class="st4" d="M110 40.6l-1.7 9.1-2.4-13.2 4.1 4.1z"/><path id="_Составной_контур_8" class="st4" d="M99.5 73.9l2.5 13.6-6.1 6.1 3.6-19.7z"/><path id="_Составной_контур_9" class="st4" d="M110 79.5l-4.1 4.1 2.4-13.2 1.7 9.1z"/><polygon id="_Контур_149" class="st9" points="130.3,59.8 92.1,21.6 92.1,97.8 	"/><polyline id="_Контур_150" class="st9" points="91.9,56.2 80,44.3 80,75.4 91.9,63.5 	"/></g></svg>