<svg version="1.1" id="Layer_1" xmlns="http://www.w3.org/2000/svg" xmlns:xlink="http://www.w3.org/1999/xlink" x="0px" y="0px" viewBox="-211 178 209 124" style="enable-background:new -211 178 209 124" xml:space="preserve"><style type="text/css">.st3{fill:#774022}.st5{clip-path:url(#SVGID_2_)}.st6{fill:#eceded}.st7{fill:#ffc61c}.st10{fill:#593728}</style><g id="XMLID_1890_"><defs><rect id="XMLID_1891_" x="-210.9" y="178" width="208.9" height="123.9"/></defs><clipPath id="XMLID_3_"><use xlink:href="#XMLID_1891_" style="overflow:visible"/></clipPath><g id="XMLID_1892_" style="clip-path:url(#XMLID_3_)"><rect id="XMLID_2432_" x="-222.8" y="46.4" width="234.6" height="340.1" style="fill:#a37b66"/><g id="XMLID_1896_" style="opacity:.1"><path id="XMLID_2431_" class="st3" d="M-130.1 99.1c8.1 1.3 18.9 1.5 29 4.1 4.7 1.2 26.4-.7 57.5-.7 12.4 0 25.5.6 37.4.6 6.4 0 12.6.3 18 .6v-1.5c-5.8-.4-12.2-.8-17.9-.7-18.3.3-36.9-2.1-54.8-1.8-18.7.3-22.9 2.5-38 1.3-6.9-.5-27.3-1.4-32.9-3.4-.3-.1-3.3-.5-8.2-1.1-7.3-.8.2-1.8-30.6-2-16.3-.1-30 1.6-32.6 1.7l-19.7 1.1v2.8c7-2 19.2-2.7 33.7-3.3 19.5-.5 42.6-.4 59.1 2.3z"/><path id="XMLID_2430_" class="st3" d="M-98.7 136.1c15.1-1.3 19.3 1.1 38 1.4 17.8.3 36.5-.8 54.8-.6 5.7.1 12.1 0 17.8-.2V133c-5.3.4-11.6.7-17.9.7-11.8 0-25 .7-37.4.6-31.1 0-52.8-2.1-57.5-.8-.2.1-1.8.1-4.2.3 2.8.5 4.7.8 4.7 1-3.9.4-10.6.8-18.3 0-3.7.4-7.1.8-9.1 1.4-15.2 4.3-37.8 5.2-61.2 4.2-14.6-.6-26.8-1.4-33.7-3.6v3.1l19.7 1.2c2.6.2 16.3 2 32.6 1.9 22.3-.1 69.2-6.7 71.7-6.9z"/><path id="XMLID_2429_" class="st3" d="M-127.9 96.4c6.4 1.6 26.1 2.2 26.9 2.4 4.7 1.2 26.4-.7 57.5-.7 12.4 0 25.5.6 37.4.6 6.4 0 12.6.3 18 .6v-3.4c-5.8-.2-12.2-.3-17.9-.2-18.3.3-37-.8-54.8-.5-18.7.3-22.9 2.5-38 1.3-2.5-.2-49.3-6.3-71.7-6.4-16.3-.1-30 1.6-32.6 1.7l-19.7 1.1v2.8c7-2 19.2-2.7 33.7-3.3 23.4-.8 46 .1 61.2 4z"/><path id="XMLID_2428_" class="st3" d="M-139.8 89.5c18.7-.3 22.9-2.5 38-1.3 2.5.2 49.4 6.3 71.7 6.4 16.3.1 30-1.6 32.6-1.7l9.3-.5v-1.6c-6.5.7-14.5 1.1-23.4 1.5-23.4.9-45.9 0-61.2-3.9-2-.5-5.4-.9-9.2-1.3-7.6.8-14.3.4-18.3 0 0-.1 1.9-.4 4.7-.9-2.4-.1-4-.2-4.2-.2-4.7-1.2-26.4.7-57.5.7-12.4 0-25.5-.6-37.4-.6-11.3 0-22.1-.8-28.3-1.5v3.7c7.1.6 18.6.9 28.2.7 18.5-.2 37.2.8 55 .5z"/><path id="XMLID_2425_" class="st3" d="M-135 134.6c0-.4-1.5-.9-4.2-1.1-2.8-.3-6.9-.6-12.3-.1s-11 1.7-15.3 2.1c-4.3.5-7.3.7-7.3 1.1 0 .3 3 .5 7.3.6 4.3.1 10 .3 15.3.4 5.4.1 9.5-.6 12.3-1.4 2.8-.8 4.2-1.2 4.2-1.6zm-16.4 2.6c-4.6-.1-9.1-.2-12.5-.2-3.4-.1-5.6-.2-5.6-.5s2.3-.6 5.7-1c3.4-.5 7.9-1.4 12.3-1.7 4.4-.3 7.4-.2 9.5 0 2.1.2 3.3.5 4.1.8.8.4-.3.9-2.7 1.6-2.5.6-6.3 1-10.8 1z"/><path id="XMLID_2424_" class="st3" d="M-183.2 384.4c-2.4.6-4.7 1.4-7 2.2h32.8c6.8-.2 13.5-.4 20.3-.4 7.8-.1 14.9.1 21.8.4h43.2c-1.4-.1-2.9-.1-4-.2-24.8-1.1-49.6-2-74.6-1.6-10.8.2-30.8-.9-32.5-.4z"/><path id="XMLID_2421_" class="st3" d="M-124.3 91.6c2.3 0 5.4.7 8.1.7 7.3 0 13.8 2.7 21 2.7 4.7 0 14.1-.4 18.5-1.1 3.7-.6-14.6-2.5-16-2.5-6.1 0-22.8-3.3-27.6-.6-.3-.4-2.5-.7-3.2-.8-2.3-.4-2 1.6-.8 1.6zm9.5-.7c3.5.5 6.7.1 10.5.5 2.9.3 5.8.7 7.4.7.8 0 9.1.5 6.9.9-2.6.5-5.6.8-8.3.8-4.2 0-8-1.6-12.2-1.6-1.6 0-3.4-.4-4.7-.4-.8.1-1-1.1.4-.9z"/><path id="XMLID_2418_" class="st3" d="M-61.3 312c-2.8.3-4.2.7-4.2 1.1 0 .4 1.5.8 4.2 1.6 2.8.8 6.9 1.5 12.3 1.4 5.4-.1 11-.4 15.3-.4 4.3-.1 7.3-.3 7.3-.6 0-.4-3-.6-7.3-1.1-4.3-.5-10-1.7-15.3-2.1-5.4-.5-9.5-.2-12.3.1zm12.3.2c4.4.3 8.9 1.3 12.3 1.7 3.4.4 5.7.7 5.7 1 0 .3-2.2.4-5.6.5-3.4.1-7.9.2-12.5.2-4.6.1-8.4-.3-10.8-1-2.5-.7-3.5-1.2-2.7-1.6.8-.4 2-.7 4.1-.8 2.1-.1 5.1-.3 9.5 0z"/><path id="XMLID_2417_" class="st3" d="M-123.1 130.7c-5.5-1.1-12.6-4.3-17.6-3.6-14 2.2-27.2 2.8-41.5 2.7-13.5-.1-26.7 1.8-40.5-.5v2.8c14.8 1.7 40-.2 43.8.3 7.9 1.1 24.1-2.6 41.2-2.1 5.3.2 10.5 3.1 15.6 3.9 1.2.2 2.4.3 3.5.5 4.8-.5 10-.8 13.6-1-5-.7-12.7-1.9-18.1-3z"/><path id="XMLID_2414_" class="st3" d="M-155.7 138.3c7 .3 13.1-.8 18-1.9 4.5-1 7.5-1.1 7.5-1.7 0-.6-2.8-1.4-7.5-2-4.6-.6-11-1-18 .1-7 1-13.6 2-18.8 2.4-5.2.4-8.9 1-10.1 1.4-1.2.3 2.5.9 8.3 1.1 5.7.2 13.6.3 20.6.6zm-22.8-1.8c0-.5 2.8-.9 7.1-1.2 4.3-.3 10-1.2 15.7-2 5.8-.8 11.4-.6 15.6-.2 4.2.4 6.9.9 6.9 1.5 0 .5-2.7 1-6.9 2s-9.8 1.3-15.6 1.1c-5.8-.2-11.5-.2-15.7-.3-4.3-.1-7.1-.4-7.1-.9z"/><path id="XMLID_2411_" class="st3" d="M-139.3 134.7c0-.5-4.6-.7-8.9-.6-4.3.1-12.3 1.3-12.3 1.7 0 .4 8 1 12.2 1 4.3-.1 9-1.6 9-2.1zm-4 .5c0 .4-2.8.9-6.2.9-3.4 0-6.8-.1-6.8-.5 0-.3 3.4-1 6.8-1.1 3.4-.1 6.2.2 6.2.7z"/><path id="XMLID_2408_" class="st3" d="M-27 373.4c-9.1-.4-24.3 1.2-24.3 2.1 0 1 15.1 1.8 24.3 1.9 9.1.1 14.8.4 22 .3 7.2 0 12.9-.7 12.9-1.1 0-.4-5.7-.6-12.9-1.3-7.2-.6-12.9-1.5-22-1.9zm22.7 3.1c0 .6-9.5.7-19.2.5-9.7-.3-17.6-.7-17.6-1.5 0-.7 7.9-1.3 17.6-.9 9.7.4 19.2 1.3 19.2 1.9z"/><path id="XMLID_2407_" class="st3" d="M-133 121.7c.9-.2 7.7-.5 11.4-.8 19.9-1.6 36.5-3.8 58.2-3.5 14.1.2 28.3.7 42.6 1.7 10.9.8 21.5 5.9 32.7 6.1V123c-11.5.4-20-4.7-29.1-7.8-1.7-.6-21.7.7-32.4.5-25.1-.5-49.9.6-74.6 2-3.5.2-9.9.4-10.6.6-29.6 9.2-58.7 6.5-87.8 3.5v3.5c27.5-1.5 63 3.5 89.6-3.6z"/><path id="XMLID_2406_" class="st3" d="M-146.2 117.8c1.2-.2 13.9-.5 17.6-.8 19.9-1.6 43-3.8 64.7-3.5 14.1.2 40.1.5 54.4 1.5 10.2.7 14.4 5 21.4 5.6v-3.7c-6.9-.3-12.7-1.8-20.7-4.5-1.7-.6-30.1-1.1-40.9-1.3-25.1-.5-56.9 1.4-81.7 2.7-3.5.2-16.3 1.7-17 1.9-29.6 9.2-45.2 4.4-74.4 1.5v3.5c20-.2 25.2 6.9 76.6-2.9z"/><path id="XMLID_2405_" class="st3" d="M-56 372.8c-6.5.8-9.8 1.8-9.8 2.7 0 .9 3.4 1.7 9.8 2.3 6.5.5 16.1.6 28.6.7 12.5.1 25.7.9 35.6-.2 1.3-.1 2.4-.3 3.6-.4v-1c-2.3.5-6 1.1-10.6 1.4-7.9.5-18.4-.3-28.6-.4-10.2-.1-16.1-.3-20.3-.8-4.2-.5-6.7-1.2-10.3-2-3.6-.8-1.3-1.5 4.5-2 5.9-.5 15.3-.7 25.9-.2 10.6.5 21.1 1.7 29 2.1 4.5.2 8.1.3 10.4.4v-.8c-1.1 0-2.3-.1-3.6-.1-10-.2-23.1-1.6-35.6-2.3-12.5-.6-22.1-.2-28.6.6z"/><path id="XMLID_2404_" class="st3" d="M-153.6 135.6c0 .1 2.1.2 4.7.2 2.6-.1 4.7-.3 4.7-.5s-2.1-.2-4.7-.1-4.7.3-4.7.4z"/><path id="XMLID_2401_" class="st3" d="M-61.2 313.2c0 .5 4.6 2 8.9 2 4.3 0 12.3-.6 12.3-1s-8-1.6-12.3-1.7c-4.3 0-8.9.2-8.9.7zm10.1-.3c3.4.1 6.8.7 6.8 1.1 0 .4-3.4.5-6.8.5s-6.2-.5-6.2-.9c.1-.4 2.8-.7 6.2-.7z"/><path id="XMLID_2400_" class="st3" d="M-51.6 314.3c2.6.1 4.7 0 4.7-.2 0-.1-2.1-.3-4.7-.4-2.6-.1-4.7 0-4.7.1 0 .2 2.1.4 4.7.5z"/><path id="XMLID_2399_" class="st3" d="M-35.1 375.7c0 .2 4.8.4 10.6.6 5.8.2 10.6.3 10.6.1s-4.8-.6-10.6-.8c-5.8-.2-10.6-.1-10.6.1z"/><path id="XMLID_2396_" class="st3" d="M-173.1 107.8c12.5-.1 22.1-.2 28.6-.9s9.8-1.7 9.8-2.8c0-1.1-3.4-2.4-9.8-3.4-6.5-1-16.1-1.5-28.6-.6-12.5.8-25.6 2.6-35.6 2.8-6.1.2-11.1.3-14 .6v1.7c2.9.7 7.9 1.5 14 2.3 9.9 1.4 23.1.4 35.6.3zm-42-3.2c0-.7 5.2-.6 13.1-1.1 7.9-.5 18.4-1.9 29-2.6 10.6-.6 20.1-.4 25.9.2 5.9.6 8.2 1.6 4.5 2.5-3.6 1-6.2 1.9-10.3 2.5-4.2.6-10 .8-20.3.9-10.2.1-20.7 1-28.6.4-7.9-.4-13.3-2.1-13.3-2.8z"/><path id="XMLID_2395_" class="st3" d="M-139.5 112.9c4.9-.5 7.9-.9 8.2-1.1 5.7-2 13.7-2.8 20.6-3.4 15.1-1.2 31.2.1 49.9.3 23.7.4 48.8-3.9 72.7-.5v-2.1c-15.1-1.7-36.1-.2-55.4-.2-31.1 0-64.7-.9-69.4.3-10.1 2.6-9 1.8-17.2 3.1-29.1 4.8-76.5 3.5-92.7-1.1v2.8c6.7 1.8 18.2 2.9 23.1 3.5 8.4 1 13.4 2.6 29.1.4 3-.3 23.9-1.2 31.1-2z"/><path id="XMLID_2392_" class="st3" d="M-149.2 104.2c0-1.2-15.2-3.1-24.3-2.7-9.1.5-14.8 1.6-22 2.4-7.2.9-12.9 1.1-12.9 1.6s5.7 1.4 12.9 1.4 12.9-.3 22-.4c9.2 0 24.3-1 24.3-2.3zm-47.1 1.2c0-.8 9.5-1.8 19.2-2.4 9.7-.5 17.6.2 17.6 1.1 0 .9-7.9 1.6-17.6 1.9-9.6.3-19.2.2-19.2-.6z"/><path id="XMLID_2389_" class="st3" d="M-62.8 311.3c-4.6.6-7.5 1.4-7.5 2 0 .6 3 .6 7.5 1.7 4.9 1.1 11 2.2 18 1.9 7-.3 14.9-.4 20.6-.6 5.8-.2 9.5-.7 8.3-1.1-1.2-.3-4.9-.9-10.1-1.4-5.2-.4-11.8-1.4-18.8-2.4-7.1-1.1-13.4-.7-18-.1zm33.7 2.5c4.3.3 7.1.7 7.1 1.2s-2.8.8-7.1.9c-4.3.1-10 .1-15.7.3-5.8.2-11.4-.1-15.6-1.1-4.2-1-6.9-1.4-6.9-2 0-.5 2.8-1.1 6.9-1.5 4.2-.4 9.8-.6 15.6.2 5.7.8 11.4 1.7 15.7 2z"/><path id="XMLID_2388_" class="st3" d="M-179.3 109.8c15.8-.3 30.2-.1 40.5-1.2 10.4-1.1 16.8-2.5 16.8-3.7s-6.4-3.4-16.8-5.1c-10.3-1.7-24.7-2.1-40.5-.8-14.6 1.2-30.8 2.1-43.5 2.8v1.1c2.3-.2 5-.3 8.1-.4 9.6-.3 22.4-1.4 35.4-2.4s25.7-.9 35.1.3c9.5 1.2 15.6 2.9 15.6 4.2 0 1.3-6.2 2.5-15.6 3.2-9.4.8-22.1.7-35.1 1-13 .3-25.7.2-35.4-1.4-3-.5-5.8-.9-8.1-1.2v.6c.4 0 .7.1 1.1.1 11.8 1.6 26.6 3.2 42.4 2.9z"/><path id="XMLID_2387_" class="st3" d="M-35.1 59.1c0 .3 4.8.5 10.6.7 5.8.2 10.6.3 10.6.1 0-.2-4.8-.8-10.6-1-5.8-.3-10.6-.1-10.6.2z"/><path id="XMLID_2384_" class="st3" d="M-62.8 85.3c-4.6.5-7.5 1.3-7.5 1.8s3 .6 7.5 1.5c4.9 1 11 2 18 1.7 7-.3 14.9-.4 20.6-.6 5.8-.2 9.5-.7 8.3-1-1.2-.3-4.9-.8-10.1-1.2-5.2-.4-11.8-1.3-18.8-2.2-7.1-.9-13.4-.6-18 0zm33.7 2.3c4.3.3 7.1.7 7.1 1.1 0 .4-2.8.7-7.1.8-4.3.1-10 .1-15.7.3-5.8.2-11.4-.1-15.6-1-4.2-.9-6.9-1.3-6.9-1.8s2.8-1 6.9-1.4c4.2-.3 9.8-.5 15.6.2 5.7.7 11.4 1.5 15.7 1.8z"/><path id="XMLID_2381_" class="st3" d="M-61.3 182.3c-2.8.2-4.2.5-4.2.8 0 .3 1.5.6 4.2 1.2 2.8.6 6.9 1.1 12.3 1 5.4-.1 11-.3 15.3-.3 4.3-.1 7.3-.2 7.3-.5s-3-.5-7.3-.8c-4.3-.3-10-1.2-15.3-1.6-5.4-.2-9.5 0-12.3.2zm12.3.2c4.4.2 8.9.9 12.3 1.3 3.4.3 5.7.5 5.7.7 0 .2-2.2.3-5.6.4-3.4 0-7.9.1-12.5.2-4.6 0-8.4-.2-10.8-.7-2.5-.5-3.5-.9-2.7-1.2.8-.3 2-.5 4.1-.6 2.1-.2 5.1-.3 9.5-.1z"/><path id="XMLID_2378_" class="st3" d="M-62.8 181.8c-4.6.4-7.5 1-7.5 1.5 0 .4 3 .5 7.5 1.2 4.9.8 11 1.6 18 1.4 7-.3 14.9-.3 20.6-.5 5.8-.2 9.5-.5 8.3-.8-1.2-.2-4.9-.7-10.1-1-5.2-.3-11.8-1-18.8-1.8-7.1-.7-13.4-.4-18 0zm33.7 1.9c4.3.2 7.1.5 7.1.9 0 .3-2.8.6-7.1.7-4.3.1-10 .1-15.7.2-5.8.1-11.4-.1-15.6-.8-4.2-.7-6.9-1.1-6.9-1.5 0-.4 2.8-.8 6.9-1.1 4.2-.3 9.8-.4 15.6.1 5.7.6 11.4 1.2 15.7 1.5z"/><path id="XMLID_2377_" class="st3" d="M-70 124.2c0 .3 4.5.8 10.1 1 5.6.2 10.1.1 10.1-.2 0-.3-4.5-.5-10.1-.7-5.5-.2-10.1-.4-10.1-.1z"/><path id="XMLID_2376_" class="st3" d="M-130.6 46.4H-151c-11.6.9-24.6.9-37.9.4-3.4-.1-6.7-.3-9.7-.4h-23.5l19.2 1.1c2.6.1 16.3 1.8 32.6 1.7 10.2 0 25.7-1.3 39.7-2.8z"/><path id="XMLID_2375_" class="st3" d="M-56 55.4c-6.5 1-9.8 2.3-9.8 3.4s3.4 2.1 9.8 2.8c6.5.7 16.1.8 28.6.9 12.5.1 25.7 1.1 35.6-.3 1.3-.2 2.4-.3 3.6-.5v-1.2c-2.3.7-6 1.4-10.6 1.7-7.9.6-18.4-.3-28.6-.5-10.2-.1-16.1-.3-20.3-.9-4.2-.6-6.7-1.6-10.3-2.5-3.6-1-1.3-1.9 4.5-2.5 5.9-.6 15.3-.8 25.9-.2 10.6.6 21.1 2.1 29 2.6 4.5.3 8.1.4 10.4.5v-.9c-1.1 0-2.3-.1-3.6-.1-10-.3-23.1-2-35.6-2.8-12.5-1-22.1-.5-28.6.5z"/><path id="XMLID_2372_" class="st3" d="M-61.2 183.2c0 .4 4.6 1.5 8.9 1.5 4.3 0 12.3-.5 12.3-.7 0-.3-8-1.1-12.3-1.2-4.3-.1-8.9.1-8.9.4zm10.1-.2c3.4.1 6.8.6 6.8.8 0 .3-3.4.3-6.8.4s-6.2-.3-6.2-.6c.1-.4 2.8-.6 6.2-.6z"/><path id="XMLID_2369_" class="st3" d="M-27 56.2c-9.1-.5-24.3 1.4-24.3 2.7 0 1.2 15.1 2.2 24.3 2.3 9.1.1 14.8.4 22 .4 7.2 0 12.9-.9 12.9-1.4 0-.5-5.7-.7-12.9-1.6-7.2-.9-12.9-2-22-2.4zM-4.3 60c0 .8-9.5.9-19.2.6-9.7-.3-17.6-.9-17.6-1.8s7.9-1.6 17.6-1.1c9.7.5 19.2 1.6 19.2 2.3z"/><path id="XMLID_2366_" class="st3" d="M-61.3 85.9c-2.8.2-4.2.6-4.2 1s1.5.8 4.2 1.5c2.8.7 6.9 1.4 12.3 1.3 5.4-.1 11-.3 15.3-.4 4.3-.1 7.3-.3 7.3-.6s-3-.6-7.3-1-10-1.5-15.3-1.9c-5.4-.4-9.5-.1-12.3.1zm12.3.2c4.4.3 8.9 1.1 12.3 1.6 3.4.4 5.7.6 5.7.9 0 .3-2.2.4-5.6.4-3.4.1-7.9.2-12.5.2-4.6.1-8.4-.3-10.8-.9-2.5-.6-3.5-1.1-2.7-1.5.8-.4 2-.6 4.1-.8 2.1 0 5.1-.2 9.5.1z"/><path id="XMLID_2363_" class="st3" d="M-78.4 122.5c-6.9 0-12.3.9-12.3 1.4 0 .5 5.4.7 12.2 1.6 6.9.9 12.2 2 20.9 2.4 8.7.5 23.2-1.4 23.2-2.7 0-1.2-14.4-2.2-23.1-2.3-8.6-.1-14-.4-20.9-.4zm17.6 1c9.2.3 16.7.9 16.7 1.9 0 .9-7.5 1.6-16.7 1.1s-18.3-1.6-18.3-2.4c0-.8 9.1-.9 18.3-.6z"/><path id="XMLID_2360_" class="st3" d="M-27 150.7c-9.1-.5-24.3 1.6-24.3 2.9 0 1.3 15.1 2.5 24.3 2.5 9.1.1 14.8.5 22 .5 7.2 0 12.9-1 12.9-1.5s-5.7-.8-12.9-1.7c-7.2-1-12.9-2.2-22-2.7zm22.7 4.2c0 .8-9.5 1-19.2.7-9.7-.3-17.6-1-17.6-2s7.9-1.8 17.6-1.2c9.7.5 19.2 1.6 19.2 2.5z"/><path id="XMLID_2359_" class="st3" d="M-56 149.8c-6.5 1.1-9.8 2.5-9.8 3.7 0 1.2 3.4 2.3 9.8 3.1 6.5.8 16.1.9 28.6 1 12.5.1 25.7 1.2 35.6-.3 1.3-.2 2.4-.4 3.6-.5v-1.3c-2.3.7-6 1.5-10.6 1.9-7.9.6-18.4-.4-28.6-.5-10.2-.1-16.1-.4-20.3-1-4.2-.7-6.7-1.7-10.3-2.7-3.6-1-1.3-2.1 4.5-2.8 5.9-.7 15.3-.9 25.9-.2 10.6.7 21.1 2.3 29 2.8 4.5.3 8.1.4 10.4.6v-1c-1.1 0-2.3-.1-3.6-.1-10-.3-23.1-2.2-35.6-3.1-12.5-1.2-22.1-.7-28.6.4z"/><path id="XMLID_2356_" class="st3" d="M-29.9 122.6c-6.2-.7-15.3-.8-27.2-.9-11.9-.1-24.4-1.1-33.9.3-9.6 1.4-16.1 2.6-16.1 3.4 0 .7 6.6.9 16.1 1.2 9.5.3 22 2 33.9 2.8 11.9.8 21.1.3 27.2-.6 6.2-1 9.4-2.2 9.4-3.4 0-1.2-3.2-2.2-9.4-2.8zm1.9 3.2c3.5 1 1.3 1.9-4.3 2.5-5.6.6-14.6.8-24.7.2-10.1-.6-20.1-2.1-27.6-2.6s-12.4-.4-12.4-1.1c0-.7 5.1-2.4 12.6-2.9 7.5-.6 17.5.3 27.2.4 9.7.1 15.3.3 19.3.9 4.1.7 6.5 1.7 9.9 2.6z"/><path id="XMLID_2353_" class="st3" d="M-61.2 87c0 .4 4.6 1.8 8.9 1.8 4.3.1 12.3-.5 12.3-.8 0-.3-8-1.4-12.3-1.5-4.3-.1-8.9.1-8.9.5zm10.1-.2c3.4.1 6.8.7 6.8 1 0 .3-3.4.4-6.8.4s-6.2-.4-6.2-.8c.1-.4 2.8-.7 6.2-.6z"/><path id="XMLID_2352_" class="st3" d="M-35.1 153.8c0 .3 4.8.6 10.6.8 5.8.2 10.6.4 10.6.1 0-.3-4.8-.9-10.6-1.1-5.8-.3-10.6-.1-10.6.2z"/><path id="XMLID_2351_" class="st3" d="M-51.6 88c2.6 0 4.7 0 4.7-.2 0-.1-2.1-.3-4.7-.4-2.6-.1-4.7 0-4.7.1 0 .3 2.1.5 4.7.5z"/><path id="XMLID_2348_" class="st3" d="M-8.4 124.7c0-1.3-6.1-2.7-16-3.7-9.9-1.1-23.5-.9-38.6-1.2-15-.3-29.1 1.2-40.3 2.7-11 1.5-19.1 1.6-21.7 2.2-2.6.6 5.4 2.2 17.8 2.9 12.4.7 29.2 1.7 44.2 3 15 1.3 28.7.9 38.6-.8 9.9-1.8 16-3.9 16-5.1zm-21.2 4.5c-9 1.2-21 1.3-33.4.3-12.3-1-24.5-2.1-33.7-2.4-9.1-.3-15.2-1.1-15.2-2.1s6.1-1.4 15.2-2.9c9.2-1.6 21.3-1.7 33.7-1.4 12.3.3 24.4.2 33.4 1s14.9 1.9 14.9 3.2c-.1 1.4-5.9 3.1-14.9 4.3z"/><path id="XMLID_2347_" class="st3" d="M-21.2 64.3c11.9.2 23.2-.6 33-1.6v-.4c-9.3 1.2-21.1 1.3-33 1-13-.3-25.7-.2-35.1-1-9.4-.8-15.6-1.9-15.6-3.2 0-1.3 6.2-3 15.6-4.2 9.4-1.2 22.1-1.3 35.1-.3 11.9.9 23.8 1.9 33 2.3v-1.2c-10.5-.6-22.2-1.3-33-2.2-15.8-1.3-30.2-.9-40.5.8-10.4 1.7-16.8 3.8-16.8 5.1s6.4 2.7 16.8 3.7c10.3 1.1 24.7 1 40.5 1.2z"/><path id="XMLID_2346_" class="st3" d="M-130.6 78.8c0-.2-4.5-.1-10.1.1s-10.1.5-10.1.7c0 .3 4.5.5 10.1.2 5.6-.2 10.1-.8 10.1-1z"/><path id="XMLID_2343_" class="st3" d="M-27 280.1c-9.1-.5-24.3 1.4-24.3 2.7 0 1.2 15.1 2.2 24.3 2.3 9.1.1 14.8.4 22 .4 7.2 0 12.9-.9 12.9-1.4 0-.5-5.7-.7-12.9-1.6-7.2-.9-12.9-2-22-2.4zm22.7 3.8c0 .8-9.5.9-19.2.6-9.7-.3-17.6-.9-17.6-1.9 0-.9 7.9-1.6 17.6-1.1 9.7.6 19.2 1.6 19.2 2.4z"/><path id="XMLID_2340_" class="st3" d="M-122.1 80.1c6.8-.9 12.2-1.1 12.2-1.6s-5.4-1.4-12.3-1.4-12.3.3-21 .4c-8.7.1-23.1 1.1-23.1 2.3 0 1.2 14.5 3.1 23.2 2.7 8.7-.4 14.1-1.6 21-2.4zm-34.4-.2c0-.9 7.5-1.6 16.7-1.9 9.2-.3 18.3-.2 18.3.6s-9.1 1.8-18.3 2.4c-9.2.6-16.7-.1-16.7-1.1z"/><path id="XMLID_2339_" class="st3" d="M-56 279.3c-6.5 1-9.8 2.2-9.8 3.4 0 1.1 3.4 2.1 9.8 2.8 6.5.7 16.1.8 28.6.9 12.5.1 25.7 1.1 35.6-.3 1.3-.2 2.4-.3 3.6-.5v-1.2c-2.3.7-6 1.4-10.6 1.7-7.9.6-18.4-.3-28.6-.4-10.2-.1-16.1-.3-20.3-.9-4.2-.6-6.7-1.6-10.3-2.5s-1.3-1.9 4.5-2.5c5.9-.6 15.3-.8 25.9-.2 10.6.6 21.1 2.1 29 2.6 4.5.3 8.1.4 10.4.5v-1c-1.1 0-2.3-.1-3.6-.1-10-.3-23.1-2-35.6-2.8-12.5-1-22.1-.5-28.6.5z"/><path id="XMLID_2338_" class="st3" d="M-51.6 184c2.6 0 4.7 0 4.7-.1s-2.1-.2-4.7-.3c-2.6-.1-4.7 0-4.7.1s2.1.3 4.7.3z"/><path id="XMLID_2337_" class="st3" d="M-35.1 283c0 .3 4.8.5 10.6.7 5.8.2 10.6.3 10.6.1 0-.3-4.8-.8-10.6-1-5.8-.3-10.6-.1-10.6.2z"/><path id="XMLID_2334_" class="st3" d="M-109.5 81.1c9.5-.3 16.1-.5 16.1-1.2 0-.8-6.5-2-16.1-3.4-9.5-1.3-22-.4-33.9-.3-11.9.1-21 .2-27.2.9-6.2.7-9.4 1.7-9.4 2.8 0 1.1 3.2 2.4 9.4 3.4s15.3 1.5 27.2.6c11.9-.8 24.3-2.5 33.9-2.8zm-58.7 1.8c-5.6-.7-7.8-1.6-4.3-2.5 3.5-1 5.9-1.9 9.8-2.5 4-.6 9.5-.8 19.3-.9 9.7-.1 19.7-1 27.2-.4 7.6.6 12.6 2.3 12.6 2.9 0 .7-5 .6-12.4 1.1-7.5.5-17.5 1.9-27.6 2.6-10.1.6-19.1.4-24.6-.3z"/><path id="XMLID_2331_" class="st3" d="M-137.5 85.2c15-1.3 31.8-2.3 44.2-3 12.4-.7 20.4-2.3 17.8-2.9-2.6-.6-10.7-.8-21.7-2.2-11.2-1.5-25.3-3-40.3-2.7-15 .3-28.7.1-38.6 1.2-9.9 1.1-16 2.5-16 3.7 0 1.3 6.1 3.4 16 5.1 9.9 1.7 23.5 2 38.6.8zm-33.4-1.4c-9-1.2-14.9-2.9-14.9-4.2 0-1.3 5.9-2.5 14.9-3.3 9-.8 21-.7 33.4-1 12.3-.3 24.5-.2 33.7 1.4 9.1 1.5 15.2 1.9 15.2 2.9s-6.1 1.7-15.2 2.1c-9.2.3-21.4 1.3-33.7 2.3-12.4 1.1-24.5 1-33.4-.2z"/><path id="XMLID_2330_" class="st3" d="M-137.1 72c21.7-.3 38.3 1.9 58.2 3.5 3.7.3 10.6.6 11.4.8 23.3 6.3 53.6 3.1 79.4 3.4v-2.2c-25.7 2.4-51.3 3.5-77.4-4.6-.7-.2-7.1-.4-10.6-.6-24.8-1.4-49.6-2.4-74.6-2-10.7.2-30.7-1.1-32.4-.5-11.7 4-22.3 11.3-39.6 6v2.5c15 4.9 28.8-3.5 43.1-4.5 14.2-1.1 28.4-1.6 42.5-1.8z"/><path id="XMLID_2329_" class="st3" d="M-157 52.6c31.1 0 52.8 1.9 57.5.7.7-.2 20.4-.7 26.9-2.4 15.2-3.9 37.8-4.7 61.2-3.9 8.9.3 16.8.7 23.3 1.4v-1.6L3 46.3h-61.6c-20.5 1.8-41.4 4.5-43.1 4.7-15.1 1.2-19.3-1-38-1.3-17.8-.3-36.5.8-54.8.5-9.6-.1-21.1.1-28.2.7v3.6c6.2-.6 17.1-1.5 28.3-1.5 11.8.2 25-.4 37.4-.4z"/><path id="XMLID_2328_" class="st3" d="M-68 221.4c15.3 1.6 31.8 2.8 46.4.9 3-.4 19.3.6 33.4.3v-2.2c-10.1.4-20-.6-30.1-.5-14.4.1-29.1 1.9-43.1-.2-16.4-2.2-6.6 1.1-6.6 1.7z"/><path id="XMLID_2327_" class="st3" d="M-79.7 46.4h-5.5c-1.3 0-3.2.4-4.7.4-4.3 0-8 1.6-12.2 1.6-2.8 0-5.8-.4-8.3-.8-2.2-.4 6.1-.9 6.9-.9.9 0 2.2-.1 3.6-.3h-13.8c-5.5.6-12.5 1.6-10.1 2 4.4.8 13.8 1.1 18.5 1.1 7.2 0 13.7-2.7 21-2.7 1.4 0 3.1-.2 4.6-.4z"/><path id="XMLID_2326_" class="st3" d="M-157 57.1c31.1 0 52.8 1.9 57.5.7 10.1-2.6 20.9-2.8 29-4.1 16.6-2.8 39.7-2.9 59-2.1 8.9.3 16.8.7 23.3 1.4v-1.6l-9.2-.5C0 50.7-13.7 49.1-30 49.2c-30.7.1-23.3 1.2-30.6 2-4.9.5-7.9.9-8.2 1.1-5.7 2-26.1 2.8-32.9 3.4-15.1 1.2-19.3-1-38-1.3-17.8-.3-36.5 2.1-54.8 1.8-9.6-.1-21.1 1-28.2 1.6v1.5c6.2-.6 17.1-1.5 28.3-1.5 11.8-.1 25-.7 37.4-.7z"/><path id="XMLID_2325_" class="st3" d="M-139.7 63.4c18.7-.3 34.7-1.5 49.9-.3 6.9.5 14.9 1.4 20.6 3.4.3.1 3.3.5 8.2 1.1 7.3.8 28.1 1.7 31.1 2.1 15.6 2.2 20.7.6 29.1-.4C2 69 7 68.4 11.9 67.7v-2.8c-21 2.9-58.1 3.1-82.3-.9-8.1-1.4-7-.5-17.2-3.1-4.7-1.2-38.2-.3-69.4-.3-24.2 0-51.3-2.4-65.8 2.3v2c26.9-6.7 55.9-1.1 83.1-1.5z"/><path id="XMLID_2324_" class="st3" d="M-78.3 86.7c5.1-.7 10.3-3.4 15.6-3.5 17.1-.5 33.3 2.9 41.2 1.9 3-.4 19.3.6 33.4.3v-2.2c-10.1.4-20-.6-30.1-.5-14.4.1-27.5-.5-41.6-2.5-5-.7-12.1 2.2-17.6 3.2-5.4 1-13.1 2.1-18 2.9 3.5.2 8.8.5 13.5.9 1.2-.2 2.4-.3 3.6-.5z"/><path id="XMLID_2323_" class="st3" d="M-136.6 68.1c21.7-.3 44.8 1.9 64.7 3.5 3.7.3 16.4.6 17.6.8 41.4 7.9 52.8 4.9 66.1 3.4V73c-22.9 2.8-38.1 5.4-64-2.6-.7-.2-13.4-1.7-17-1.9-24.8-1.4-56.6-3.2-81.7-2.7-10.7.2-39.1.7-40.9 1.3-11.7 4-18.6 5.3-31.1 4.2v2.5c15 5 17.6-3 31.8-4 14.4-1.2 40.4-1.5 54.5-1.7z"/><path id="XMLID_2322_" class="st3" d="M-165.5 104.5c0-.3-4.8-.5-10.6-.2-5.8.2-10.6.8-10.6 1 0 .2 4.8.1 10.6-.1 5.9-.2 10.6-.4 10.6-.7z"/><path id="XMLID_2321_" class="st3" d="M-78.3 312.8c5.1-.8 10.3-3.7 15.6-3.9 17.1-.5 33.3 3.2 41.2 2.1 3-.4 19.3.7 33.4.3v-2.5c-10.1.4-20-.6-30.1-.5-14.4.1-27.5-.5-41.6-2.7-5-.7-12.1 2.5-17.6 3.6-5.4 1.1-13.1 2.3-18 3.2 3.5.2 8.8.5 13.5 1l3.6-.6z"/><path id="XMLID_2318_" class="st3" d="M-93.3 306.1c12.4-.7 20.4-2.3 17.8-2.9-2.6-.6-10.7-.8-21.7-2.2-11.2-1.5-25.3-3-40.3-2.7-15 .3-28.7.1-38.6 1.2-9.9 1.1-16 2.5-16 3.7 0 1.3 6.1 3.4 16 5.1 9.8 1.7 23.5 2.1 38.6.8 15-1.3 31.8-2.3 44.2-3zm-77.6 1.6c-9-1.2-14.9-2.9-14.9-4.2 0-1.3 5.9-2.5 14.9-3.2 9-.8 21-.7 33.4-1 12.3-.3 24.5-.2 33.7 1.4 9.1 1.5 15.2 1.9 15.2 2.9s-6.1 1.8-15.2 2.1c-9.1.3-21.3 1.4-33.7 2.4-12.4.9-24.5.8-33.4-.4z"/><path id="XMLID_2315_" class="st3" d="M-109.5 305c9.5-.3 16.1-.5 16.1-1.2s-6.5-2-16.1-3.4c-9.5-1.3-22-.4-33.9-.3-11.9.1-21 .2-27.2.9-6.2.7-9.4 1.7-9.4 2.8 0 1.1 3.2 2.4 9.4 3.4s15.3 1.5 27.2.6c11.9-.8 24.3-2.5 33.9-2.8zm-58.7 1.8c-5.6-.6-7.8-1.6-4.3-2.5 3.5-1 5.9-1.9 9.8-2.5 4-.6 9.5-.8 19.3-.9 9.7-.1 19.7-1 27.2-.4 7.6.6 12.6 2.3 12.6 2.9 0 .7-5 .6-12.4 1.1-7.5.5-17.5 1.9-27.6 2.6-10.1.6-19.1.4-24.6-.3z"/><path id="XMLID_2314_" class="st3" d="M-139.8 315.9c18.7-.3 22.9-2.7 38-1.4 2.5.2 49.4 6.9 71.7 7 16.3.1 30-1.7 32.6-1.9l9.3-.6v-1.7c-6.5.8-14.5 1.2-23.4 1.6-23.4.9-45.9 0-61.2-4.2-2-.6-5.5-1-9.2-1.4-7.6.8-14.3.4-18.2 0 0-.1 1.9-.5 4.7-1-2.4-.1-4-.2-4.2-.3-4.7-1.3-26.4.7-57.5.8-12.4 0-25.5-.7-37.4-.7-11.3 0-22.1-.9-28.3-1.6v4c7.1.7 18.6 1 28.2.8 18.4-.2 37.1.9 54.9.6z"/><path id="XMLID_2311_" class="st3" d="M-122.1 304c6.8-.9 12.2-1.1 12.2-1.6s-5.4-1.4-12.3-1.4-12.3.3-21 .4c-8.7.1-23.1 1.1-23.1 2.3 0 1.2 14.5 3.1 23.2 2.7 8.7-.5 14.1-1.6 21-2.4zm-34.4-.2c0-.9 7.5-1.6 16.7-1.9 9.2-.3 18.3-.2 18.3.6s-9.1 1.8-18.3 2.4c-9.2.6-16.7-.2-16.7-1.1z"/><path id="XMLID_2308_" class="st3" d="M-124.3 318.2c2.3 0 5.4.7 8.1.7 7.3 0 13.8 3 21 3 4.7 0 14.1-.4 18.5-1.3 3.7-.7-14.6-2.8-16-2.8-6.1 0-22.8-3.6-27.6-.6-.3-.4-2.5-.7-3.2-.8-2.3-.4-2 1.8-.8 1.8zm9.5-.7c3.5.5 6.7.1 10.5.5 2.9.3 5.8.7 7.4.7.8 0 9.1.6 6.9 1-2.6.5-5.6.9-8.3.9-4.2 0-8-1.8-12.2-1.8-1.6 0-3.4-.4-4.7-.4-.8.1-1-1.1.4-.9z"/><path id="XMLID_2307_" class="st3" d="M-130.1 326.4c8.1 1.5 18.9 1.7 29 4.5 4.7 1.3 26.4-.8 57.5-.8 12.4 0 25.5.7 37.4.6 6.4 0 12.6.3 18 .7v-1.6C6.1 329.4-.3 329-6 329c-18.3.3-36.9-2.3-54.8-2-18.7.3-22.9 2.7-38 1.4-6.9-.6-27.3-1.5-32.9-3.7-.3-.1-3.3-.6-8.2-1.2-7.3-.8.2-2-30.6-2.1-16.3-.1-30 1.7-32.6 1.9l-19.7 1.2v3.1c7-2.2 19.2-3 33.7-3.6 19.4-.7 42.5-.6 59 2.4z"/><path id="XMLID_2306_" class="st3" d="M-165.5 332.3c0-.3-4.8-.5-10.6-.2s-10.6.9-10.6 1.1c0 .3 4.8.1 10.6-.1 5.9-.2 10.6-.5 10.6-.8z"/><path id="XMLID_2305_" class="st3" d="M-130.6 302.7c0-.2-4.5-.1-10.1.1s-10.1.5-10.1.7 4.5.5 10.1.2c5.6-.2 10.1-.8 10.1-1z"/><path id="XMLID_2304_" class="st3" d="M-127.9 323.4c6.4 1.8 26.1 2.4 26.9 2.6 4.7 1.3 26.4-.8 57.5-.8 12.4 0 25.5.7 37.4.6 6.4 0 12.6.3 18 .7v-3.7c-5.8-.2-12.2-.3-17.9-.2-18.3.3-36.9-.9-54.8-.6-18.7.3-22.9 2.7-38 1.4-2.5-.2-49.3-6.9-71.7-7-16.3-.1-30 1.7-32.6 1.9l-19.7 1.2v3.1c7-2.2 19.2-3 33.7-3.6 23.4-.8 46 .1 61.2 4.4z"/><path id="XMLID_2303_" class="st3" d="M-194.4 281.6c11.8 0 25-.6 37.4-.6 31.1 0 52.8 1.9 57.5.7 10.1-2.6 20.9-2.8 29-4.1 16.6-2.7 39.7-2.9 59-2.1 8.9.3 16.8.7 23.3 1.4v-1.6l-9.2-.5c-2.6-.2-16.3-1.8-32.6-1.7-30.7.1-23.3 1.2-30.6 2-4.9.5-7.9.9-8.2 1.1-5.7 2-26.1 2.8-32.9 3.4-15.1 1.2-19.3-1-38-1.3-17.8-.3-36.5 2.1-54.8 1.8-9.6-.1-21.1 1-28.2 1.6v1.5c6.2-.8 17.1-1.6 28.3-1.6z"/><path id="XMLID_2302_" class="st3" d="M-98.7 266.7c15.1-1.2 19.3 1 38 1.3 17.8.3 36.5-.8 54.8-.5 5.7.1 12.1 0 17.8-.2V264c-5.3.4-11.6.6-17.9.6-11.8 0-25 .6-37.4.6-31.1 0-52.8-1.9-57.5-.7-.2 0-1.8.1-4.2.2 2.8.4 4.7.8 4.7.9-3.9.4-10.6.8-18.3 0-3.7.3-7.1.7-9.1 1.3-15.2 3.9-37.8 4.7-61.2 3.9-14.6-.5-26.8-1.3-33.7-3.3v2.8l19.7 1.1c2.6.1 16.3 1.8 32.6 1.7 22.3-.1 69.2-6.2 71.7-6.4z"/><path id="XMLID_2299_" class="st3" d="M-135 265.4c0-.4-1.5-.8-4.2-1-2.8-.2-6.9-.5-12.3-.1s-11 1.5-15.3 1.9c-4.3.4-7.3.7-7.3 1 0 .3 3 .5 7.3.6 4.3.1 10 .3 15.3.4 5.4.1 9.5-.5 12.3-1.3 2.8-.7 4.2-1.1 4.2-1.5zm-16.4 2.4c-4.6-.1-9.1-.2-12.5-.2-3.4-.1-5.6-.2-5.6-.4 0-.3 2.3-.5 5.7-.9 3.4-.4 7.9-1.3 12.3-1.6 4.4-.3 7.4-.1 9.5 0 2.1.2 3.3.4 4.1.8.8.4-.3.9-2.7 1.5-2.5.5-6.3.8-10.8.8z"/><path id="XMLID_2298_" class="st3" d="M-157 276.5c31.1 0 52.8 1.9 57.5.7.7-.2 20.4-.8 26.9-2.4 15.2-3.9 37.8-4.7 61.2-3.9 8.9.3 16.8.7 23.3 1.4v-1.6l-9.2-.5c-2.6-.2-16.3-1.8-32.6-1.7-22.4.1-69.2 6.2-71.7 6.4-15.1 1.2-19.3-1-38-1.3-17.8-.3-36.5.8-54.8.5-9.6-.1-21.1.1-28.2.7v3.7c6.2-.7 17.1-1.5 28.3-1.5 11.7.1 24.9-.5 37.3-.5z"/><path id="XMLID_2297_" class="st3" d="M-123.1 261.9c-5.5-1-12.6-3.9-17.6-3.2-14 2-27.2 2.6-41.5 2.5-13.5-.1-26.7 1.6-40.5-.4v2.6c14.8 1.6 40-.2 43.8.3 7.9 1 24.1-2.3 41.2-1.9 5.3.1 10.5 2.8 15.6 3.5 1.2.2 2.4.3 3.5.4 4.7-.4 10-.7 13.5-.9-4.9-.8-12.6-1.9-18-2.9z"/><path id="XMLID_2294_" class="st3" d="M-155.7 268.8c7 .3 13.1-.7 18-1.7 4.5-.9 7.5-1 7.5-1.5s-2.8-1.3-7.5-1.8c-4.6-.5-11-.9-18 .1-7 .9-13.6 1.8-18.8 2.2-5.2.4-8.9.9-10.1 1.2-1.2.3 2.5.8 8.3 1 5.7.1 13.6.2 20.6.5zm-22.8-1.7c0-.4 2.8-.8 7.1-1.1 4.3-.3 10-1.1 15.7-1.8 5.8-.7 11.4-.5 15.6-.2 4.2.3 6.9.9 6.9 1.4 0 .5-2.7.9-6.9 1.8s-9.8 1.2-15.6 1c-5.8-.2-11.5-.2-15.7-.3-4.3 0-7.1-.3-7.1-.8z"/><path id="XMLID_2293_" class="st3" d="M-139.7 287.3c18.7-.3 34.7-1.5 49.9-.3 6.9.5 14.9 1.4 20.6 3.4.3.1 3.3.5 8.2 1.1 7.3.8 28.1 1.7 31.1 2.1 15.6 2.2 20.7.6 29.1-.4 2.8-.3 7.8-.9 12.7-1.6v-2.8c-21 2.9-58.1 3.1-82.3-.9-8.1-1.3-7-.5-17.2-3.1-4.7-1.2-38.2-.3-69.4-.3-24.2 0-51.3-2.4-65.8 2.3v2c26.9-6.8 55.9-1.1 83.1-1.5z"/><path id="XMLID_2292_" class="st3" d="M-136.6 292c21.7-.3 44.8 2 64.7 3.5 3.7.3 16.4.6 17.6.8 41.4 7.9 52.8 4.9 66.1 3.4v-2.9c-22.9 2.8-38.1 5.4-64-2.6-.7-.2-13.4-1.7-17-1.9-24.8-1.4-56.6-3.2-81.7-2.7-10.7.2-39.1.7-40.9 1.3-11.7 4-18.6 5.3-31.1 4.2v2.5c15 5 17.6-3 31.8-4 14.4-1.2 40.4-1.4 54.5-1.6z"/><path id="XMLID_2289_" class="st3" d="M-149.2 332.1c0-1.3-15.2-3.4-24.3-2.9-9.1.5-14.8 1.7-22 2.7-7.2.9-12.9 1.2-12.9 1.7s5.7 1.5 12.9 1.5 12.9-.4 22-.5c9.2-.1 24.3-1.2 24.3-2.5zm-47.1 1.2c0-.8 9.5-2 19.2-2.6 9.7-.6 17.6.2 17.6 1.2s-7.9 1.7-17.6 2c-9.6.5-19.2.3-19.2-.6z"/><path id="XMLID_2288_" class="st3" d="M-137.1 295.9c21.7-.3 38.3 1.9 58.2 3.5 3.7.3 10.6.6 11.4.8 23.3 6.3 53.6 3.1 79.4 3.4v-2.2c-25.7 2.4-51.3 3.5-77.4-4.6-.7-.2-7.1-.4-10.6-.6-24.8-1.4-49.6-2.4-74.6-2-10.7.2-30.7-1.1-32.4-.5-11.7 4-22.3 11.3-39.6 6v2.5c15 5 28.8-3.5 43.1-4.5 14.2-1.1 28.4-1.7 42.5-1.8z"/><path id="XMLID_2287_" class="st3" d="M-21.2 288.2c11.9.2 23.2-.6 33-1.6v-.4c-9.3 1.2-21.1 1.3-33 1-13-.3-25.7-.2-35.1-1-9.4-.8-15.6-1.9-15.6-3.2s6.2-3 15.6-4.2c9.4-1.2 22.1-1.3 35.1-.3 11.9.9 23.8 1.9 33 2.3v-1.2c-10.5-.6-22.2-1.3-33-2.2-15.8-1.3-30.2-.9-40.5.8-10.4 1.7-16.8 3.8-16.8 5.1 0 1.3 6.4 2.6 16.8 3.7 10.3 1.1 24.7.9 40.5 1.2z"/><path id="XMLID_2284_" class="st3" d="M-76.3 270c1.2 0 1.5-2-.8-1.6-.7.1-2.9.4-3.2.7-4.8-2.7-21.6.6-27.6.6-1.3 0-19.7 1.9-16 2.5 4.4.8 13.8 1.1 18.5 1.1 7.2 0 13.7-2.7 21-2.7 2.7.1 5.9-.6 8.1-.6zm-25.9 2.3c-2.8 0-5.8-.4-8.3-.8-2.2-.4 6.1-.9 6.9-.9 1.6 0 4.5-.4 7.4-.7 3.8-.4 7 0 10.5-.5 1.4-.2 1.2.9.5.9-1.3 0-3.2.4-4.7.4-4.3 0-8.1 1.6-12.3 1.6z"/><path id="XMLID_2283_" class="st3" d="M-98.7 362.7c15.1-.9 19.3.8 38 1 17.8.2 36.5-.6 54.8-.4 5.7.1 12.1 0 17.8-.1v-2.7c-5.4.3-11.6.5-18 .5-9.2 0-19.2.3-29 .4-6.8.5-14.5.5-22.7 0-23.4-.3-39.3-1.3-43.2-.5-.2 0-1.8.1-4.1.2 2.8.4 4.7.6 4.7.7-3.9.3-10.6.6-18.2 0-3.7.3-7.1.6-9.2 1-15.2 3.1-37.8 3.8-61.2 3.1-14.6-.4-26.8-1-33.7-2.6v2.3l19.7.9c2.6.1 16.3 1.4 32.6 1.4 22.3-.2 69.2-5.1 71.7-5.2z"/><path id="XMLID_2280_" class="st3" d="M-76.3 365.4c1.2 0 1.5-1.6-.8-1.3-.7.1-2.9.3-3.2.6-4.8-2.2-21.6.5-27.6.5-1.3 0-19.7 1.5-16 2 4.4.6 13.8.9 18.5.9 7.2 0 13.7-2.2 21-2.2 2.7 0 5.9-.5 8.1-.5zm-25.9 1.8c-2.8 0-5.8-.3-8.3-.7-2.2-.3 6.1-.7 6.9-.7 1.6 0 4.5-.3 7.4-.5 3.8-.3 7 0 10.5-.4 1.4-.2 1.2.8.5.8-1.3 0-3.2.3-4.7.3-4.3-.1-8.1 1.2-12.3 1.2z"/><path id="XMLID_2277_" class="st3" d="M-173.1 336c12.5-.1 22.1-.2 28.6-1s9.8-1.9 9.8-3.1c0-1.2-3.4-2.6-9.8-3.7-6.5-1-16.1-1.6-28.6-.7-12.5.9-25.6 2.8-35.6 3.1-6.1.2-11.1.3-14 .6v1.9c2.9.7 7.9 1.6 14 2.5 9.9 1.6 23.1.5 35.6.4zm-42-3.5c0-.8 5.2-.7 13.1-1.2 7.9-.5 18.4-2.1 29-2.8 10.6-.7 20.1-.5 25.9.2 5.9.7 8.2 1.7 4.5 2.8-3.6 1-6.2 2.1-10.3 2.7-4.2.7-10 .9-20.3 1-10.2.1-20.7 1.1-28.6.5-7.9-.6-13.3-2.5-13.3-3.2z"/><path id="XMLID_2274_" class="st3" d="M-20.5 355.2c0-1.2-3.2-2.3-9.4-3.1-6.2-.8-15.3-.9-27.2-1-11.9-.1-24.4-1.1-33.9.3-9.6 1.5-16.1 2.9-16.1 3.7 0 .8 6.6 1 16.1 1.3 9.5.3 22 2.2 33.9 3.1 11.9.9 21.1.4 27.2-.7 6.2-1 9.4-2.4 9.4-3.6zm-36.5 3.5c-10.1-.7-20.1-2.3-27.6-2.8s-12.4-.4-12.4-1.2c0-.8 5.1-2.6 12.6-3.2 7.5-.6 17.5.4 27.2.5 9.7.1 15.3.4 19.3 1 4 .7 6.4 1.7 9.8 2.7 3.5 1 1.3 2.1-4.3 2.8-5.5.7-14.4.9-24.6.2z"/><path id="XMLID_2271_" class="st3" d="M-34.3 355.1c0-1.3-14.4-2.5-23.1-2.5-8.7-.1-14.1-.5-21-.5s-12.3 1-12.3 1.5 5.4.8 12.2 1.7c6.9.9 12.2 2.2 20.9 2.7 8.8.5 23.3-1.6 23.3-2.9zm-26.5 1.3c-9.2-.6-18.3-1.8-18.3-2.6s9.1-1 18.3-.7c9.2.3 16.7 1 16.7 2 0 1.1-7.5 1.9-16.7 1.3z"/><path id="XMLID_2268_" class="st3" d="M-35.1 361.4c3.9-.3 7.5-.7 10.6-1.3 9.9-1.9 16-4.2 16-5.6 0-1.4-6.1-2.9-16-4.1-9.9-1.2-23.5-1-38.6-1.3-15-.3-29.1 1.4-40.3 3-11 1.6-19.1 1.8-21.7 2.5-2.6.7 5.4 2.4 17.8 3.1 12.4.8 29.2 1.9 44.2 3.3 1.8.2 3.5.3 5.2.4 4.5.1 9.3.1 14.3.1 2.9-.1 5.7-.1 8.5-.1zm-27.9-1.7c-12.3-1.1-24.5-2.3-33.7-2.6-9.1-.3-15.2-1.2-15.2-2.3 0-1.1 6.1-1.5 15.2-3.2 9.2-1.7 21.3-1.8 33.7-1.5 12.3.3 24.4.2 33.4 1.1 9 .9 14.9 2.1 14.9 3.6s-5.9 3.3-14.9 4.6c-9 1.3-21 1.4-33.4.3z"/><path id="XMLID_2267_" class="st3" d="M-157 374.2c31.1 0 52.8 1.5 57.5.6 10.1-2.1 20.9-2.2 29-3.3 16.6-2.2 39.7-2.3 59-1.7 8.9.3 16.8.6 23.3 1.2v-1.3l-9.2-.4c-2.6-.3-16.3-1.6-32.6-1.5-30.7.1-23.3 1-30.6 1.6-4.9.4-7.9.8-8.2.8-5.7 1.6-26.1 2.3-32.9 2.7-15.1.9-19.3-.8-38-1-17.8-.2-36.5 1.7-54.8 1.5-9.6-.1-21.1.8-28.2 1.3v1.2c6.2-.5 17.1-1.2 28.3-1.2 11.8-.1 25-.5 37.4-.5z"/><path id="XMLID_2266_" class="st3" d="M-139.7 379.2c18.7-.2 34.7-1.2 49.9-.2 6.9.4 14.9 1.1 20.6 2.7.3.1 3.3.4 8.2.8 7.3.6 28.1 1.4 31.1 1.7 15.6 1.8 20.7.5 29.1-.3 2.8-.3 7.8-.7 12.7-1.3v-2.2c-21 2.3-58.1 2.5-82.3-.7-8.1-1.1-7-.4-17.2-2.5-4.7-1-38.2-.2-69.4-.2-24.2 0-51.3-1.9-65.8 1.9v1.6c26.9-5.5 55.9-1 83.1-1.3z"/><path id="XMLID_2265_" class="st3" d="M-222.8 386.5h19.7c3.3-1 6.9-2.1 12.2-2.4 14.3-.8 40.3-1 54.4-1.2 21.7-.2 44.8 1.6 64.7 2.8 3.7.2 16.4.5 17.6.6.2 0 .4.1.6.1h9.3c-2.5-.5-5.1-1.1-7.8-1.7-.7-.2-13.4-1.4-17-1.5-24.8-1.1-56.6-2.6-81.7-2.2-10.7.2-39.1.6-40.9 1-11.7 3.2-18.6 4.3-31.1 3.3v1.2z"/><path id="XMLID_2264_" class="st3" d="M-21.2 380c11.9.2 23.2-.5 33-1.3v-.3c-9.3 1-21.1 1.1-33 .8-13-.2-25.7-.2-35.1-.8-9.4-.6-15.6-1.6-15.6-2.6 0-1.1 6.2-2.4 15.6-3.4 9.4-1 22.1-1 35.1-.2 11.9.8 23.8 1.5 33 1.8v-1c-10.5-.5-22.2-1.1-33-1.8-15.8-1-30.2-.7-40.5.6-10.4 1.4-16.8 3.1-16.8 4.1 0 1 6.4 2.1 16.8 3 10.3 1 24.7.8 40.5 1.1z"/><path id="XMLID_2263_" class="st3" d="M-157 370.6c31.1 0 52.8 1.5 57.5.6.7-.1 20.4-.6 26.9-1.9 15.2-3.1 37.8-3.8 61.2-3.1 8.9.3 16.8.6 23.3 1.2V366l-9.2-.4c-2.6-.1-16.3-1.4-32.6-1.4-22.4.1-69.2 5-71.7 5.1-15.1.9-19.3-.8-38-1-17.8-.2-36.5.6-54.8.4-9.6-.1-21.1.1-28.2.6v2.9c6.2-.5 17.1-1.2 28.3-1.2 11.7 0 24.9-.4 37.3-.4z"/><path id="XMLID_2262_" class="st3" d="M-133 351.2c.9-.3 7.7-.5 11.4-.9 19.9-1.7 36.5-4.2 58.2-3.9 14.1.2 28.3.8 42.6 1.9 10.9.8 21.5 6.5 32.7 6.6v-2.4c-11.5.5-20-5.1-29.1-8.5-1.7-.6-21.7.8-32.4.6-25.1-.5-49.9.6-74.6 2.1-3.5.2-9.9.4-10.6.7-29.6 10.1-58.7 7.1-87.8 3.9v3.8c27.5-1.6 63 3.9 89.6-3.9z"/><path id="XMLID_2261_" class="st3" d="M-146.2 346.9c1.2-.3 13.9-.5 17.6-.9 19.9-1.7 43-4.2 64.7-3.9 14.1.2 40.1.5 54.4 1.6 10.2.8 14.4 5.4 21.4 6.1v-4C5 345.6-.8 343.9-8.9 341c-1.7-.6-30.1-1.2-40.9-1.4-25.1-.5-56.9 1.5-81.7 3-3.5.2-16.3 1.9-17 2.1-29.6 10.1-45.2 4.9-74.4 1.6v3.8c20.1-.2 25.3 7.6 76.7-3.2z"/><path id="XMLID_2260_" class="st3" d="M-179.3 338.1c15.8-.3 30.2-.1 40.5-1.3 10.4-1.2 16.8-2.7 16.8-4.1 0-1.4-6.4-3.7-16.8-5.6-10.3-1.9-24.7-2.3-40.5-.9-14.6 1.3-30.8 2.3-43.5 3.1v1.2c2.3-.2 5-.4 8.1-.5 9.6-.4 22.4-1.5 35.4-2.6s25.7-1 35.1.3c9.5 1.3 15.6 3.2 15.6 4.6 0 1.4-6.2 2.7-15.6 3.6-9.4.9-22.1.8-35.1 1.1-13 .3-25.7.2-35.4-1.5-3-.5-5.8-.9-8.1-1.3v.7c.4 0 .7.1 1.1.1 11.8 1.7 26.6 3.4 42.4 3.1z"/><path id="XMLID_2259_" class="st3" d="M-139.5 341.6c4.9-.6 7.9-1 8.2-1.2 5.7-2.2 13.7-3.1 20.6-3.7 15.1-1.3 31.2.1 49.9.4 23.7.4 48.8-4.2 72.7-.6v-2.3c-15.1-1.9-36.1-.3-55.4-.3-31.1 0-64.7-1-69.4.3-10.1 2.8-9 2-17.2 3.4-29.1 5.3-76.5 3.9-92.7-1.2v3.1c6.7 2 18.2 3.2 23.1 3.9 8.4 1.1 13.4 2.9 29.1.5 3-.5 23.9-1.5 31.1-2.3z"/><path id="XMLID_2258_" class="st3" d="M-153.6 362.4c0 .1 2.1.2 4.7.1 2.6 0 4.7-.2 4.7-.3 0-.1-2.1-.2-4.7-.1-2.6 0-4.7.2-4.7.3z"/><path id="XMLID_2255_" class="st3" d="M-155.7 364.3c7 .3 13.1-.6 18-1.4 4.5-.7 7.5-.8 7.5-1.2s-2.8-1-7.5-1.5c-4.6-.4-11-.7-18 .1-7 .8-13.6 1.5-18.8 1.8-5.2.3-8.9.7-10.1 1-1.2.3 2.5.6 8.3.8 5.7.2 13.6.2 20.6.4zm-22.8-1.3c0-.4 2.8-.6 7.1-.9 4.3-.2 10-.9 15.7-1.5 5.8-.6 11.4-.4 15.6-.1 4.2.3 6.9.7 6.9 1.1 0 .4-2.7.7-6.9 1.5-4.2.7-9.8 1-15.6.8-5.8-.1-11.5-.1-15.7-.2-4.3-.1-7.1-.3-7.1-.7z"/><path id="XMLID_2254_" class="st3" d="M-49.8 354.8c0-.3-4.5-.6-10.1-.8-5.6-.2-10.1-.4-10.1-.1 0 .3 4.5.9 10.1 1.1 5.6.3 10.1.1 10.1-.2z"/><path id="XMLID_2251_" class="st3" d="M-139.3 361.7c0-.4-4.6-.5-8.9-.4-4.3.1-12.3 1-12.3 1.2 0 .3 8 .7 12.2.7 4.3 0 9-1.1 9-1.5zm-4 .3c0 .3-2.8.7-6.2.6-3.4 0-6.8-.1-6.8-.4 0-.3 3.4-.7 6.8-.8 3.4.1 6.2.3 6.2.6z"/><path id="XMLID_2250_" class="st3" d="M-123.1 358.8c-5.5-.8-12.6-3.1-17.6-2.6-14 1.6-27.2 2.1-41.5 2-13.5-.1-26.7 1.3-40.5-.3v2c14.8 1.3 40-.1 43.8.2 7.9.8 24.1-1.9 41.2-1.5 5.3.1 10.5 2.3 15.6 2.9 1.2.1 2.4.3 3.6.4 4.7-.3 10-.6 13.5-.7-5-.7-12.7-1.6-18.1-2.4z"/><path id="XMLID_2247_" class="st3" d="M-135 361.6c0-.3-1.5-.6-4.2-.8-2.8-.2-6.9-.4-12.3-.1-5.4.3-11 1.2-15.3 1.6-4.3.3-7.3.5-7.3.8 0 .3 3 .4 7.3.5 4.3.1 10 .2 15.3.3 5.4.1 9.5-.4 12.3-1 2.8-.7 4.2-1 4.2-1.3zm-16.4 1.9c-4.6 0-9.1-.1-12.5-.2-3.4 0-5.6-.1-5.6-.4 0-.2 2.3-.4 5.7-.7 3.4-.3 7.9-1 12.3-1.3 4.4-.2 7.4-.1 9.5 0 2.1.1 3.3.3 4.1.6.8.3-.3.7-2.7 1.2-2.5.6-6.3.9-10.8.8z"/><path id="XMLID_2246_" class="st3" d="M-130.1 192.9c8.1 1.1 18.9 1.2 29 3.3 4.7 1 26.4-.5 57.5-.6 12.4 0 25.5.5 37.4.5 6.4 0 12.6.2 18 .5v-1.2c-5.8-.4-12.2-.7-17.9-.6-18.3.2-36.9-1.7-54.8-1.5-18.7.2-22.9 2-38 1-6.9-.4-27.3-1.1-32.9-2.7-.3-.1-3.3-.4-8.2-.8-7.3-.6.2-1.5-30.6-1.6-16.3-.1-30 1.3-32.6 1.4l-19.7.9v2.3c7-1.6 19.2-2.2 33.7-2.6 19.5-.6 42.6-.5 59.1 1.7z"/><path id="XMLID_2245_" class="st3" d="M-127.9 190.7c6.4 1.3 26.1 1.8 26.9 1.9 4.7 1 26.4-.6 57.5-.6 12.4 0 25.5.5 37.4.5 6.4 0 12.6.2 18 .5v-2.7c-5.8-.2-12.2-.2-17.9-.1-18.3.2-36.9-.6-54.8-.4-18.7.2-22.9 2-38 1-2.5-.2-49.3-5.1-71.7-5.1-16.3-.1-30 1.2-32.6 1.4l-19.7.9v2.3c7-1.6 19.2-2.2 33.7-2.6 23.4-.8 46-.1 61.2 3z"/><path id="XMLID_2242_" class="st3" d="M-76.3 139.7c1.2 0 1.5-2.2-.8-1.8-.7.1-2.9.4-3.2.8-4.8-3-21.6.6-27.6.6-1.3 0-19.7 2.1-16 2.8 4.4.8 13.8 1.3 18.5 1.3 7.2 0 13.7-3 21-3 2.7 0 5.9-.7 8.1-.7zm-25.9 2.5c-2.8 0-5.8-.4-8.3-.9-2.2-.4 6.1-1 6.9-1 1.6 0 4.5-.4 7.4-.7 3.8-.4 7 0 10.5-.5 1.4-.2 1.2 1 .5 1-1.3 0-3.2.4-4.7.4-4.3-.1-8.1 1.7-12.3 1.7z"/><path id="XMLID_2239_" class="st3" d="M-124.3 186.9c2.3 0 5.4.5 8.1.5 7.3 0 13.8 2.2 21 2.2 4.7 0 14.1-.3 18.5-.9 3.7-.5-14.6-2-16-2-6.1 0-22.8-2.7-27.6-.5-.3-.3-2.5-.5-3.2-.6-2.3-.3-2 1.3-.8 1.3zm9.5-.5c3.5.4 6.7.1 10.5.4 2.9.2 5.8.5 7.4.5.8 0 9.1.4 6.9.7-2.6.4-5.6.7-8.3.7-4.2 0-8-1.3-12.2-1.3-1.6 0-3.4-.3-4.7-.3-.8 0-1-.9.4-.7z"/><path id="XMLID_2238_" class="st3" d="M-165.5 197.3c0-.2-4.8-.4-10.6-.2s-10.6.6-10.6.8c0 .2 4.8.1 10.6-.1 5.9-.1 10.6-.3 10.6-.5z"/><path id="XMLID_2237_" class="st3" d="M-139.8 185.2c18.7-.2 22.9-2 38-1 2.5.2 49.4 5.1 71.7 5.1 16.3.1 30-1.2 32.6-1.4l9.3-.4v-1.3c-6.5.6-14.5.9-23.4 1.2-23.4.7-45.9 0-61.2-3.1-2.1-.4-5.5-.8-9.2-1-7.6.6-14.3.3-18.2 0 0-.1 1.9-.4 4.7-.7-2.4-.1-4-.2-4.2-.2-3.9-.8-19.8.1-43.2.5-8.2.5-15.9.5-22.7 0-9.8-.1-19.8-.4-29-.4-11.3 0-22.1-.7-28.3-1.2v2.9c7.1.5 18.6.7 28.2.6 18.4-.2 37.1.7 54.9.4z"/><path id="XMLID_2234_" class="st3" d="M-142.8 182.9c1.7-.1 3.5-.3 5.2-.4 15-1.4 31.8-2.5 44.2-3.3 12.4-.8 20.4-2.5 17.8-3.1-2.6-.7-10.7-.8-21.7-2.5-11.2-1.6-25.3-3.3-40.3-3-15 .3-28.7.1-38.6 1.3-9.9 1.2-16 2.7-16 4.1 0 1.4 6.1 3.7 16 5.6 3.2.6 6.8 1.1 10.6 1.3 2.8 0 5.6.1 8.4.1 5.1 0 9.9-.1 14.4-.1zm-28.1-2c-9-1.3-14.9-3.2-14.9-4.6 0-1.4 5.9-2.7 14.9-3.6 9-.9 21-.8 33.4-1.1 12.3-.3 24.5-.2 33.7 1.5 9.1 1.7 15.2 2.1 15.2 3.2s-6.1 1.9-15.2 2.3c-9.1.4-21.3 1.5-33.7 2.6-12.4 1.1-24.5 1-33.4-.3z"/><path id="XMLID_2231_" class="st3" d="M-149.2 197.1c0-1-15.2-2.5-24.3-2.1-9.1.4-14.8 1.3-22 1.9-7.2.7-12.9.9-12.9 1.3s5.7 1.1 12.9 1.1 12.9-.3 22-.3c9.2-.1 24.3-1 24.3-1.9zm-47.1.9c0-.6 9.5-1.5 19.2-1.9 9.7-.4 17.6.1 17.6.9s-7.9 1.2-17.6 1.5c-9.6.3-19.2.1-19.2-.5z"/><path id="XMLID_2230_" class="st3" d="M-146.2 208c1.2-.2 13.9-.4 17.6-.6 19.9-1.3 43-3 64.7-2.8 14.1.2 40.1.4 54.4 1.2 10.2.6 14.4 4 21.4 4.5v-2.9C5 207-.8 205.8-8.9 203.6c-1.7-.5-30.1-.9-40.9-1-25.1-.4-56.9 1.1-81.7 2.2-3.5.2-16.3 1.4-17 1.5-29.6 7.4-45.2 3.6-74.4 1.2v2.8c20.1-.1 25.3 5.6 76.7-2.3z"/><path id="XMLID_2229_" class="st3" d="M-179.3 201.5c15.8-.2 30.2-.1 40.5-1 10.4-.9 16.8-2 16.8-3s-6.4-2.7-16.8-4.1c-10.3-1.4-24.7-1.7-40.5-.6-14.6.9-30.8 1.7-43.5 2.3v.9c2.3-.1 5-.3 8.1-.3 9.6-.3 22.4-1.1 35.4-1.9 13-.8 25.7-.7 35.1.2 9.5 1 15.6 2.4 15.6 3.4 0 1.1-6.2 2-15.6 2.6-9.4.6-22.1.6-35.1.8-13 .2-25.7.1-35.4-1.1-3-.4-5.8-.7-8.1-.9v.5c.4 0 .7.1 1.1.1 11.8 1.1 26.6 2.3 42.4 2.1z"/><path id="XMLID_2226_" class="st3" d="M-173.1 200c12.5-.1 22.1-.2 28.6-.7 6.5-.6 9.8-1.4 9.8-2.3 0-.9-3.4-1.9-9.8-2.7-6.5-.8-16.1-1.2-28.6-.5s-25.6 2.1-35.6 2.3c-6.1.1-11.1.3-14 .5v1.4c2.9.5 7.9 1.2 14 1.8 9.9 1 23.1.2 35.6.2zm-42-2.6c0-.6 5.2-.5 13.1-.9 7.9-.4 18.4-1.6 29-2.1 10.6-.5 20.1-.3 25.9.2 5.9.5 8.2 1.3 4.5 2-3.6.8-6.2 1.5-10.3 2-4.2.5-10 .6-20.3.7-10.2.1-20.7.8-28.6.4-7.9-.4-13.3-1.8-13.3-2.3z"/><path id="XMLID_2225_" class="st3" d="M-139.5 204c4.9-.4 7.9-.8 8.2-.8 5.7-1.6 13.7-2.3 20.6-2.7 15.1-.9 31.2 0 49.9.3 23.7.3 48.8-3.1 72.7-.4v-1.7c-15.1-1.4-36.1-.2-55.4-.2-31.1 0-64.7-.8-69.4.2-10.1 2.1-9 1.4-17.2 2.5-29.1 3.9-76.5 2.8-92.7-.9v2.3c6.7 1.5 18.2 2.4 23.1 2.8 8.4.8 13.4 2.1 29.1.3 3-.3 23.9-1 31.1-1.7z"/><path id="XMLID_2224_" class="st3" d="M-21.2 159.6c11.9.2 23.2-.7 33-1.8v-.4c-9.3 1.4-21.1 1.4-33 1.2-13-.3-25.7-.2-35.1-1.1-9.4-.9-15.6-2.1-15.6-3.6 0-1.4 6.2-3.3 15.6-4.6 9.4-1.3 22.1-1.4 35.1-.3 11.9 1 23.8 2.1 33 2.5v-1.3c-10.5-.7-22.2-1.5-33-2.4-15.8-1.4-30.2-1-40.5.9-10.4 1.9-16.8 4.2-16.8 5.6 0 1.4 6.4 2.9 16.8 4.1 10.3 1.1 24.7.9 40.5 1.2z"/><path id="XMLID_2223_" class="st3" d="M-136.6 163.7c21.7-.3 44.8 2.1 64.7 3.9 3.7.3 16.4.6 17.6.9 41.4 8.7 52.8 5.3 66.1 3.8V169c-22.9 3-38.1 5.9-64-2.9-.7-.2-13.4-1.9-17-2.1-24.8-1.5-56.6-3.5-81.7-3-10.7.2-39.1.8-40.9 1.4-11.7 4.3-18.6 5.8-31.1 4.6v2.7c15 5.4 17.6-3.3 31.8-4.4 14.4-1.1 40.4-1.4 54.5-1.6z"/><path id="XMLID_2222_" class="st3" d="M-139.7 158.6c18.7-.3 34.7-1.6 49.9-.4 6.9.6 14.9 1.5 20.6 3.7.3.1 3.3.6 8.2 1.2 7.3.8 28.1 1.9 31.1 2.3 15.6 2.4 20.7.7 29.1-.5 2.8-.4 7.8-.9 12.7-1.7v-3c-21 3.2-58.1 3.4-82.3-1-8.1-1.5-7-.6-17.2-3.4-4.7-1.3-38.2-.3-69.4-.3-24.2 0-51.3-2.6-65.8 2.5v2.2c26.9-7.4 55.9-1.2 83.1-1.6z"/><path id="XMLID_2219_" class="st3" d="M-109.5 178c9.5-.3 16.1-.5 16.1-1.3s-6.5-2.2-16.1-3.7c-9.5-1.5-22-.4-33.9-.3-11.9.1-21 .2-27.2 1-6.2.8-9.4 1.9-9.4 3.1 0 1.2 3.2 2.6 9.4 3.7s15.3 1.6 27.2.7c11.9-1 24.3-2.9 33.9-3.2zm-58.7 2c-5.6-.7-7.8-1.7-4.3-2.8 3.5-1 5.9-2.1 9.8-2.7 4-.7 9.5-.9 19.3-1 9.7-.1 19.7-1.1 27.2-.5 7.6.6 12.6 2.5 12.6 3.2s-5 .7-12.4 1.2c-7.5.5-17.5 2.1-27.6 2.8-10.1.7-19.1.5-24.6-.2z"/><path id="XMLID_2218_" class="st3" d="M-157 146.8c31.1 0 52.8 2.1 57.5.8.7-.2 20.4-.8 26.9-2.6 15.2-4.3 37.8-5.2 61.2-4.2 8.9.4 16.8.8 23.3 1.6v-1.7l-9.2-.6c-2.7-.3-16.4-2.1-32.7-2-22.4.1-69.2 6.8-71.7 7-15.1 1.3-19.3-1.1-38-1.4-17.8-.3-36.5.8-54.8.6-9.6-.2-21.1.1-28.2.8v4c6.2-.7 17.1-1.7 28.3-1.6 11.8-.1 25-.7 37.4-.7z"/><path id="XMLID_2217_" class="st3" d="M-157 151.7c31.1 0 52.8 2.1 57.5.8 10.1-2.8 20.9-3 29-4.5 16.6-3 39.7-3.1 59-2.3 8.9.4 16.8.8 23.3 1.6v-1.7l-9.2-.6c-2.6-.3-16.3-2.1-32.6-2-30.7.2-23.3 1.3-30.6 2.1-4.9.6-7.9 1-8.2 1.2-5.7 2.2-26.1 3.1-32.9 3.7-15.1 1.3-19.3-1.1-38-1.4-17.8-.3-36.5 2.3-54.8 2-9.6-.1-21.1 1.1-28.2 1.8v1.6c6.2-.7 17.1-1.7 28.3-1.6 11.8 0 25-.7 37.4-.7z"/><path id="XMLID_2216_" class="st3" d="M-130.6 175.4c0-.3-4.5-.1-10.1.1s-10.1.5-10.1.8c0 .3 4.5.5 10.1.2 5.6-.2 10.1-.8 10.1-1.1z"/><path id="XMLID_2213_" class="st3" d="M-122.1 176.9c6.8-.9 12.2-1.2 12.2-1.7s-5.4-1.5-12.3-1.5-12.3.4-21 .5c-8.7.1-23.1 1.2-23.1 2.5s14.5 3.4 23.2 2.9c8.7-.6 14.1-1.8 21-2.7zm-34.4-.2c0-1 7.5-1.7 16.7-2 9.2-.3 18.3-.2 18.3.7 0 .8-9.1 2-18.3 2.6-9.2.5-16.7-.3-16.7-1.3z"/><path id="XMLID_2212_" class="st3" d="M-137.1 168c21.7-.3 38.3 2.1 58.2 3.9 3.7.3 10.6.6 11.4.9 23.3 6.9 53.6 3.4 79.4 3.7V174c-25.7 2.6-51.3 3.9-77.4-5-.7-.2-7.1-.4-10.6-.7-24.8-1.5-49.6-2.7-74.6-2.1-10.7.2-30.7-1.2-32.4-.6-11.7 4.3-22.3 12.3-39.6 6.5v2.7c15 5.4 28.8-3.9 43.1-5 14.2-1 28.4-1.6 42.5-1.8z"/><path id="XMLID_2211_" class="st3" d="M-78.3 183c5.1-.6 10.3-2.7 15.6-2.8 17.1-.4 33.3 2.3 41.2 1.5 3-.3 19.3.5 33.4.2V180c-10.1.3-20-.5-30.1-.4-14.4.1-27.5-.4-41.6-2-5-.5-12.1 1.8-17.6 2.6-5.4.8-13.1 1.7-18 2.3 3.5.1 8.8.4 13.5.7 1.2 0 2.4-.1 3.6-.2z"/><path id="XMLID_2210_" class="st3" d="M-130.1 232.2c8.1 1.3 18.9 1.5 29 4.1 4.7 1.2 26.4-.7 57.5-.7 12.4 0 25.5.6 37.4.6 6.4 0 12.6.3 18 .6v-1.5c-5.8-.4-12.2-.8-17.9-.7-18.3.3-36.9-2.1-54.8-1.8-18.7.3-22.9 2.5-38 1.3-6.9-.5-27.3-1.4-32.9-3.4-.3-.1-3.3-.5-8.2-1-7.3-.8.2-1.8-30.6-2-16.3-.1-30 1.6-32.6 1.7l-19.7 1.1v2.8c7-2 19.2-2.7 33.7-3.3 19.5-.7 42.6-.6 59.1 2.2z"/><path id="XMLID_2209_" class="st3" d="M-146.2 250.9c1.2-.2 13.9-.5 17.6-.8 19.9-1.6 43-3.8 64.7-3.5 14.1.2 40.1.5 54.4 1.5 10.2.7 14.4 5 21.4 5.5v-3.7c-6.9-.3-12.7-1.8-20.7-4.5-1.7-.6-30.1-1.1-40.9-1.3-25.1-.5-56.9 1.4-81.7 2.7-3.5.2-16.3 1.7-17 1.9-29.6 9.2-45.2 4.4-74.4 1.5v3.5c20-.1 25.2 7 76.6-2.8z"/><path id="XMLID_2208_" class="st3" d="M-133 254.8c.9-.2 7.7-.5 11.4-.8 19.9-1.6 36.5-3.8 58.2-3.5 14.1.2 28.3.7 42.6 1.7 10.9.8 21.5 5.9 32.7 6.1v-2.2c-11.5.4-20-4.7-29.1-7.8-1.7-.6-21.7.7-32.4.5-25.1-.5-49.9.6-74.6 2-3.5.2-9.9.4-10.6.6-29.6 9.2-58.7 6.5-87.8 3.5v3.5c27.5-1.6 63 3.5 89.6-3.6z"/><path id="XMLID_2207_" class="st3" d="M-179.3 242.8c15.8-.3 30.2-.1 40.5-1.2 10.4-1.1 16.8-2.5 16.8-3.7 0-1.3-6.4-3.4-16.8-5.1-10.3-1.7-24.7-2.1-40.5-.8-14.6 1.2-30.8 2.1-43.5 2.8v1.1c2.3-.2 5-.3 8.1-.4 9.6-.3 22.4-1.4 35.4-2.4s25.7-.9 35.1.3c9.5 1.2 15.6 2.9 15.6 4.2 0 1.3-6.2 2.5-15.6 3.3-9.4.8-22.1.7-35.1 1-13 .3-25.7.2-35.4-1.4-3-.5-5.8-.9-8.1-1.2v.6c.4 0 .7.1 1.1.1 11.8 1.6 26.6 3.1 42.4 2.8z"/><path id="XMLID_2206_" class="st3" d="M-139.5 246c4.9-.5 7.9-.9 8.2-1 5.7-2 13.7-2.8 20.6-3.4 15.1-1.2 31.2 0 49.9.3 23.7.3 48.8-3.9 72.7-.5v-2.1c-15.1-1.7-36.1-.2-55.4-.2-31.1 0-64.7-.9-69.4.3-10.1 2.6-9 1.8-17.2 3.1-29.1 4.8-76.5 3.5-92.7-1.1v2.8c6.7 1.8 18.2 2.9 23.1 3.5 8.4 1 13.4 2.6 29.1.4 3-.4 23.9-1.3 31.1-2.1z"/><path id="XMLID_2205_" class="st3" d="M-70 257.3c0 .2 4.5.8 10.1 1 5.6.2 10.1.1 10.1-.2 0-.3-4.5-.6-10.1-.7-5.5-.3-10.1-.4-10.1-.1z"/><path id="XMLID_2202_" class="st3" d="M-173.1 240.9c12.5-.1 22.1-.2 28.6-.9s9.8-1.7 9.8-2.8c0-1.1-3.4-2.4-9.8-3.4-6.5-1-16.1-1.4-28.6-.6-12.5.8-25.6 2.6-35.6 2.8-6.1.2-11.1.3-14 .6v1.7c2.9.7 7.9 1.5 14 2.3 9.9 1.4 23.1.4 35.6.3zm-42-3.2c0-.7 5.2-.6 13.1-1.1 7.9-.5 18.4-1.9 29-2.6 10.6-.6 20.1-.4 25.9.2 5.9.6 8.2 1.6 4.5 2.5-3.6 1-6.2 1.9-10.3 2.5-4.2.6-10 .8-20.3.9-10.2.1-20.7 1-28.6.5-7.9-.5-13.3-2.2-13.3-2.9z"/><path id="XMLID_2201_" class="st3" d="M-153.6 266.3c0 .1 2.1.2 4.7.2s4.7-.3 4.7-.4c0-.2-2.1-.2-4.7-.1-2.6 0-4.7.2-4.7.3z"/><path id="XMLID_2198_" class="st3" d="M-78.4 255.6c-6.9 0-12.3.9-12.3 1.4 0 .5 5.4.7 12.2 1.6 6.9.9 12.2 2 20.9 2.4 8.7.5 23.2-1.4 23.2-2.7 0-1.2-14.4-2.2-23.1-2.3-8.6-.1-14-.4-20.9-.4zm17.6 1c9.2.3 16.7.9 16.7 1.9 0 .9-7.5 1.6-16.7 1.1s-18.3-1.6-18.3-2.4c0-.8 9.1-1 18.3-.6z"/><path id="XMLID_2195_" class="st3" d="M-8.4 257.8c0-1.3-6.1-2.6-16-3.7s-23.5-.9-38.6-1.2c-15-.3-29.1 1.2-40.3 2.7-11 1.5-19.1 1.6-21.7 2.2-2.6.6 5.4 2.2 17.8 2.9 12.4.7 29.2 1.7 44.2 3 15 1.3 28.7.9 38.6-.8 9.9-1.8 16-3.9 16-5.1zm-21.2 4.5c-9 1.2-21 1.3-33.4.3-12.3-1-24.5-2.1-33.7-2.4-9.1-.3-15.2-1.1-15.2-2.1s6.1-1.4 15.2-2.9c9.2-1.6 21.3-1.7 33.7-1.4 12.3.3 24.4.2 33.4 1s14.9 1.9 14.9 3.3c-.1 1.2-5.9 3-14.9 4.2z"/><path id="XMLID_2192_" class="st3" d="M-29.9 255.6c-6.2-.7-15.3-.8-27.2-.9-11.9-.1-24.4-1.1-33.9.3-9.6 1.4-16.1 2.6-16.1 3.4 0 .7 6.6.9 16.1 1.2 9.5.3 22 2 33.9 2.8 11.9.8 21.1.3 27.2-.6 6.2-1 9.4-2.3 9.4-3.4s-3.2-2.1-9.4-2.8zm1.9 3.3c3.5 1 1.3 1.9-4.3 2.5-5.6.6-14.6.9-24.7.2-10.1-.6-20.1-2.1-27.6-2.6-7.4-.4-12.4-.3-12.4-1s5.1-2.4 12.6-2.9c7.5-.6 17.5.3 27.2.4 9.7.1 15.3.3 19.3.9 4.1.6 6.5 1.5 9.9 2.5z"/><path id="XMLID_2189_" class="st3" d="M-20.5 214.1c0-.9-3.2-1.7-9.4-2.3-6.2-.5-15.3-.6-27.2-.7-11.9-.1-24.4-.9-33.9.2-9.6 1.1-16.1 2.1-16.1 2.7 0 .6 6.6.7 16.1 1 9.5.2 22 1.6 33.9 2.3 11.9.7 21.1.3 27.2-.5 6.2-.8 9.4-1.9 9.4-2.7zm-36.5 2.5c-10.1-.5-20.1-1.7-27.6-2.1-7.5-.4-12.4-.3-12.4-.9 0-.6 5.1-1.9 12.6-2.4s17.5.3 27.2.4c9.7.1 15.3.3 19.3.7 4 .5 6.4 1.3 9.8 2 3.5.8 1.3 1.5-4.3 2-5.5.7-14.4.8-24.6.3z"/><path id="XMLID_2188_" class="st3" d="M-139.8 222.6c18.7-.3 22.9-2.5 38-1.3 2.5.2 49.4 6.3 71.7 6.4 16.3.1 30-1.6 32.6-1.7l9.3-.5v-1.6c-6.5.7-14.5 1.1-23.4 1.4-23.4.9-45.9 0-61.2-3.9-6.4-1.6-26.2-2.2-26.9-2.4-4.7-1.2-26.4.7-57.5.7-12.4 0-25.5-.6-37.4-.6-11.3 0-22.1-.8-28.3-1.5v3.6c7.1.6 18.6.9 28.2.7 18.4-.1 37.1 1 54.9.7z"/><path id="XMLID_2185_" class="st3" d="M-24.4 217.6c9.9-1.4 16-3.1 16-4.1 0-1-6.1-2.1-16-3-9.9-.9-23.5-.7-38.6-1-15-.2-29.1 1-40.3 2.2-11 1.2-19.1 1.3-21.7 1.8-2.6.5 5.4 1.7 17.8 2.3 12.4.6 29.2 1.4 44.2 2.4 15 1.1 28.7.8 38.6-.6zm-38.6-.3c-12.3-.8-24.5-1.7-33.7-1.9-9.1-.3-15.2-.9-15.2-1.7 0-.8 6.1-1.1 15.2-2.3 9.2-1.3 21.3-1.4 33.7-1.1 12.3.2 24.4.2 33.4.8 9 .6 14.9 1.6 14.9 2.6s-5.9 2.4-14.9 3.4-21 1.1-33.4.2z"/><path id="XMLID_2184_" class="st3" d="M-133 211.1c.9-.2 7.7-.4 11.4-.6 19.9-1.3 36.5-3.1 58.2-2.8 14.1.1 28.3.6 42.6 1.4 10.9.6 21.5 4.7 32.7 4.9v-1.7c-11.5.4-20-3.8-29.1-6.3-1.7-.5-21.7.6-32.4.4-25.1-.4-49.9.5-74.6 1.6-3.5.2-9.9.3-10.6.5-29.6 7.4-58.7 5.2-87.8 2.8v2.8c27.5-1.3 63 2.7 89.6-3z"/><path id="XMLID_2181_" class="st3" d="M-149.2 237.3c0-1.2-15.2-3.1-24.3-2.7-9.1.5-14.8 1.6-22 2.4-7.2.8-12.9 1.1-12.9 1.6s5.7 1.4 12.9 1.4 12.9-.3 22-.4c9.2-.1 24.3-1.1 24.3-2.3zm-47.1 1.2c0-.8 9.5-1.8 19.2-2.4 9.7-.5 17.6.2 17.6 1.1 0 .9-7.9 1.6-17.6 1.9-9.6.3-19.2.2-19.2-.6z"/><path id="XMLID_2178_" class="st3" d="M-34.3 214c0-1-14.4-1.8-23.1-1.9-8.7-.1-14.1-.4-21-.3-6.9 0-12.3.8-12.3 1.1 0 .4 5.4.6 12.2 1.3 6.9.7 12.2 1.6 20.9 1.9 8.8.4 23.3-1.1 23.3-2.1zm-26.5.9c-9.2-.4-18.3-1.3-18.3-1.9 0-.6 9.1-.7 18.3-.5 9.2.2 16.7.7 16.7 1.5s-7.5 1.4-16.7.9z"/><path id="XMLID_2177_" class="st3" d="M-49.8 213.8c0-.2-4.5-.4-10.1-.6-5.6-.2-10.1-.3-10.1-.1s4.5.6 10.1.8c5.6.2 10.1.1 10.1-.1z"/><path id="XMLID_2174_" class="st3" d="M-139.3 265.5c0-.4-4.6-.6-8.9-.5-4.3.1-12.3 1.2-12.3 1.5 0 .3 8 .9 12.2.9 4.3 0 9-1.4 9-1.9zm-4 .4c0 .4-2.8.8-6.2.8-3.4 0-6.8-.1-6.8-.4 0-.3 3.4-.9 6.8-1 3.4-.1 6.2.2 6.2.6z"/><path id="XMLID_1899_" class="st3" d="M-124.3 224.6c2.3 0 5.4.7 8.1.7 7.3 0 13.8 2.7 21 2.7 4.7 0 14.1-.4 18.5-1.1 3.7-.6-14.6-2.5-16-2.5-6.1 0-22.8-3.3-27.6-.6-.3-.4-2.5-.7-3.2-.8-2.3-.4-2 1.6-.8 1.6zm9.5-.6c3.5.5 6.7.1 10.5.5 2.9.3 5.8.7 7.4.7.8 0 9.1.5 6.9.9-2.6.4-5.6.8-8.3.8-4.2 0-8-1.6-12.2-1.6-1.6 0-3.4-.4-4.7-.4-.8 0-1-1.1.4-.9z"/><path id="XMLID_1898_" class="st3" d="M-165.5 237.6c0-.3-4.8-.5-10.6-.2-5.8.2-10.6.8-10.6 1 0 .3 4.8.1 10.6-.1 5.9-.2 10.6-.4 10.6-.7z"/><path id="XMLID_1897_" class="st3" d="M-127.9 229.4c6.4 1.6 26.1 2.2 26.9 2.4 4.7 1.2 26.4-.7 57.5-.7 12.4 0 25.5.6 37.4.6 6.4 0 12.6.3 18 .6V229c-5.8-.2-12.2-.3-17.9-.2-18.3.3-36.9-.8-54.8-.5-18.7.3-22.9 2.5-38 1.3-2.5-.2-49.3-6.3-71.7-6.4-16.3-.1-30 1.6-32.6 1.7l-19.7 1.1v2.8c7-2 19.2-2.7 33.7-3.3 23.4-.8 46 0 61.2 3.9z"/></g><g id="XMLID_1893_"><g id="XMLID_1894_"><defs><rect id="XMLID_1895_" x="-222.8" y="46.4" width="234.6" height="340.1"/></defs><clipPath id="XMLID_4_"><use xlink:href="#XMLID_1895_" style="overflow:visible"/></clipPath></g></g></g></g><rect id="XMLID_1889_" x="-211" y="178" width="209" height="123.9" style="opacity:.2;fill:#1a171b"/><g><g><defs><rect id="SVGID_1_" x="-211.5" y="177.5" width="209.9" height="124.4"/></defs><clipPath id="SVGID_2_"><use xlink:href="#SVGID_1_" style="overflow:visible"/></clipPath><g id="XMLID_100_" class="st5"><g id="XMLID_102_"><defs><rect id="SVGID_3_" x="-211" y="151" width="209" height="157.4"/></defs><clipPath id="SVGID_4_"><use xlink:href="#SVGID_3_" style="overflow:visible"/></clipPath></g></g><g id="XMLID_75_" class="st5"><g id="XMLID_79_"><path id="XMLID_98_" class="st6" d="M-210.9 240.5l5.1 9.2c.7 1.4 2.5 1.9 3.9 1.1l25.4-14.1c1.4-.7 1.9-2.5 1.1-3.9l-14.1-25.3c-.7-1.4-2.5-1.9-3.9-1.1l-17.6 9.8"/><path id="XMLID_97_" class="st7" d="M-142.9 214.6l-14.1-25.3c-.7-1.4-2.5-1.9-3.9-1.1l-25.4 14.1c-1.4.7-1.9 2.5-1.1 3.9l14.1 25.3c.7 1.4 2.5 1.9 3.9 1.1l25.4-14.1c1.4-.7 1.9-2.5 1.1-3.9z"/><path id="XMLID_96_" class="st6" d="M-141.1 177.6l-11.6 6.4c-1.4.7-1.9 2.5-1.1 3.9l14.1 25.3c.7 1.4 2.5 1.9 3.9 1.1l25.4-14.1c1.4-.7 1.9-2.5 1.1-3.9l-10.5-18.8"/><path id="XMLID_95_" class="st6" d="M-116.5 177.6l9.7 17.4c.7 1.4 2.5 1.9 3.9 1.1l25.4-14.1c1.4-.7 1.9-2.5 1.1-3.9l-.3-.6"/><path id="XMLID_94_" d="M-157 265.8l-14.2-25.2c-.7-1.4-2.5-1.9-3.9-1.1l-25.4 14.1c-1.4.7-1.9 2.5-1.1 3.9l14.1 25.3c.7 1.4 2.5 1.9 3.9 1.1l25.4-14.1c1.4-.8 1.9-2.6 1.2-4z" style="fill:#1bef52"/><path id="XMLID_93_" class="st6" d="M-124.1 247.6l-14.1-25.3c-.7-1.4-2.5-1.9-3.9-1.1l-25.4 14.1c-1.4.7-1.9 2.5-1.1 3.9l14.1 25.3c.7 1.4 2.5 1.9 3.9 1.1l25.4-14.1c1.4-.8 1.9-2.5 1.1-3.9z"/><path id="XMLID_92_" class="st6" d="M-91.6 229.3l-14.1-25.3c-.7-1.4-2.5-1.9-3.9-1.1L-135 217c-1.4.7-1.9 2.5-1.1 3.9l14.1 25.3c.7 1.4 2.5 1.9 3.9 1.1l25.4-14.1c1.4-.7 1.9-2.5 1.1-3.9z"/><path id="XMLID_91_" class="st6" d="M-58.1 211l-14.1-25.4c-.7-1.4-2.5-1.9-3.9-1.1l-25.4 14.2c-1.4.7-1.9 2.5-1.1 3.9l14.1 25.3c.7 1.4 2.5 1.9 3.9 1.1l25.4-14c1.4-.8 1.9-2.6 1.1-4z"/><path id="XMLID_90_" class="st7" d="M-63.4 177.6l-5.1 2.8c-1.4.7-1.9 2.5-1.1 3.9l14.2 25.4c.7 1.4 2.5 1.9 3.9 1.1l25.4-14.1c1.4-.7 1.9-2.5 1.1-3.9l-8.5-15.3"/><path id="XMLID_89_" class="st6" d="M-139.6 301.9c.7-.9.9-2.1.3-3.2l-14.1-25.3c-.7-1.4-2.5-1.9-3.9-1.1l-25.4 14.1c-1.4.7-1.9 2.5-1.1 3.9l6.5 11.7"/><path id="XMLID_88_" class="st6" d="M-105.8 280.4l-14.1-25.3c-.7-1.4-2.5-1.9-3.9-1.1l-25.4 14.1c-1.4.7-1.9 2.5-1.1 3.9l14.1 25.5c.7 1.4 2.5 1.9 3.9 1.1l25.4-14.1c1.4-.8 1.9-2.6 1.1-4.1z"/><path id="XMLID_87_" class="st7" d="M-72.8 262.2l-14.1-25.3c-.7-1.4-2.5-1.9-3.9-1.1l-25.4 14.2c-1.4.7-1.9 2.5-1.1 3.9l14.1 25.3c.7 1.4 2.5 1.9 3.9 1.1l25.4-14.1c1.4-.8 1.9-2.6 1.1-4z"/><path id="XMLID_86_" class="st6" d="M-39.8 244l-14.1-25.4c-.7-1.4-2.5-1.9-3.9-1.1l-25.4 14.2c-1.4.7-1.9 2.5-1.1 3.9l14.1 25.3c.7 1.4 2.5 1.9 3.9 1.1l25.4-14.1c1.4-.8 1.9-2.5 1.1-3.9z"/><path id="XMLID_85_" class="st6" d="M-7.3 225.7l-14.1-25.4c-.7-1.4-2.5-1.9-3.9-1.1l-25.5 14.3c-1.4.7-1.9 2.5-1.1 3.9l14.1 25.3c.7 1.4 2.5 1.9 3.9 1.1l25.4-14.1c1.5-.8 2-2.6 1.2-4z"/><path id="XMLID_84_" class="st6" d="M-94.4 302l-7.7-13.9c-.7-1.4-2.5-1.9-3.9-1.1l-25.4 14c-.4.3-.7.6-1 1"/><path id="XMLID_83_" class="st6" d="M-60.8 301.9l5.2-2.9c1.4-.7 1.9-2.5 1.1-3.9l-14.1-25.3c-.7-1.4-2.5-1.9-3.9-1.1l-25.4 14.1c-1.4.7-1.9 2.5-1.1 3.9l8.5 15.3"/><path id="XMLID_82_" class="st6" d="M-21.5 276.9l-14.1-25.3c-.7-1.4-2.5-1.9-3.9-1.1l-25.4 14c-1.4.7-1.9 2.5-1.1 3.9l14.1 25.4c.7 1.4 2.5 1.9 3.9 1.1l25.4-14c1.4-.8 1.9-2.6 1.1-4z"/><path id="XMLID_81_" class="st7" d="M-2 235.3l-1.1-2c-.7-1.4-2.5-1.9-3.9-1.1l-25.4 14.2c-1.4.7-1.9 2.5-1.1 3.9l14.1 25.3c.7 1.4 2.5 1.9 3.9 1.1l13.5-7.5"/></g></g><g id="XMLID_3969_" class="st5"><g id="XMLID_3988_"><g id="XMLID_3992_"><path id="XMLID_3993_" class="st6" d="M-175.8 264.2l-2 5.1-5.1-2 2-5.1 1.9-5 2-5.1 5.1 2-2 5.1-1.9 5z"/></g><g id="XMLID_3989_"><path id="XMLID_3990_" class="st6" d="M-185.8 260.2l5 1.9 5.1 2-2 5.1-5.1-2-5-1.9 2-5.1z"/></g></g></g></g></g><g><g><path class="st10" d="M-14.6 250.5l-2.5 2.3-2.9-3.1 4.1-4.2 3.4-1.9 9.7 17-4.6 2.6-7.2-12.7z"/></g></g><g><g><path class="st10" d="M-99.1 266.9l3.6-8.4c.9-2.1 1-3.3.4-4.3-.6-1.1-1.7-1.3-2.9-.6-1.1.6-1.7 1.8-2.1 4.1l-4.6-.8c.5-3.4 1.5-5.7 4.8-7.5 3.7-2.1 7.5-1.3 9.3 1.9 1.5 2.7 1 4.9-.5 8.1l-1.7 3.7 7-4 2.2 3.8-13.3 7.6-2.2-3.6z"/></g></g><g><g><path class="st10" d="M-44.6 177.5l.3.5.8 1.3-2.1 5.7c2.7-.8 5.4-.6 7.1 2.3 1.9 3.4.4 7.2-3.3 9.3-3.3 1.8-6.2 2-8.9 1.1l1.3-4.6c1.9.5 3.6.5 5.1-.4 1.3-.8 1.8-1.9 1.2-3-.6-1.1-2-1.2-3.7-.2l-2 1.1-2.1-2 1.9-5.7-6.5 3.7-2.2-3.8 8.6-4.9.8-.4h3.7z"/></g></g><g><g><path class="st10" d="M-161.5 214.4l-8.2 4.6-2.6-2.9 2.8-15.4 4.7-2.7 5.8 10.2 2.1-1.2 2 3.5-2.1 1.2 1.9 3.3-4.5 2.6-1.9-3.2zm-2-3.4l-2.8-4.8-1.3 7.1 4.1-2.3z"/></g></g></svg>