<svg id="Layer_1" xmlns="http://www.w3.org/2000/svg" xmlns:xlink="http://www.w3.org/1999/xlink" viewBox="0 0 210 125"><style>.st0,.st6{fill:#e2ba87}.st6,.st7{clip-path:url(#SVGID_14_)}.st15,.st9{fill:#ed6261}.st15,.st16{clip-path:url(#SVGID_30_)}.st18{fill:#d7a66c}</style><g id="XMLID_643_"><g id="XMLID_644_"><defs><path id="SVGID_1_" d="M0 0h210v125H0z"/></defs><clipPath id="SVGID_2_"><use xlink:href="#SVGID_1_" overflow="visible"/></clipPath></g></g><g id="XMLID_12511_"><path id="XMLID_618_" class="st0" d="M0 0h210v125H0z"/><g id="XMLID_616_"><defs><path id="SVGID_3_" d="M0 0h210v125H0z"/></defs><clipPath id="SVGID_4_"><use xlink:href="#SVGID_3_" overflow="visible"/></clipPath><g id="XMLID_617_" clip-path="url(#SVGID_4_)"><path id="XMLID_620_" class="st0" d="M-223.2-.2h658.3v125h-658.3z"/><g id="XMLID_619_"><defs><path id="SVGID_5_" d="M-223.2-.2h658.3v125h-658.3z"/></defs><defs><path id="SVGID_6_" d="M-223.2-.2h658.3v125h-658.3z"/></defs><defs><path id="SVGID_7_" d="M-223.2-.2h658.3v125h-658.3z"/></defs><defs><path id="SVGID_8_" d="M-223.2-.2h658.3v125h-658.3z"/></defs><defs><path id="SVGID_9_" d="M-223.2-.2h658.3v125h-658.3z"/></defs><clipPath id="SVGID_10_"><use xlink:href="#SVGID_5_" overflow="visible"/></clipPath><clipPath id="SVGID_11_" clip-path="url(#SVGID_10_)"><use xlink:href="#SVGID_6_" overflow="visible"/></clipPath><clipPath id="SVGID_12_" clip-path="url(#SVGID_11_)"><use xlink:href="#SVGID_7_" overflow="visible"/></clipPath><clipPath id="SVGID_13_" clip-path="url(#SVGID_12_)"><use xlink:href="#SVGID_8_" overflow="visible"/></clipPath><clipPath id="SVGID_14_" clip-path="url(#SVGID_13_)"><use xlink:href="#SVGID_9_" overflow="visible"/></clipPath><path id="XMLID_642_" class="st6" d="M.2 0h210v125H.2z"/><path id="XMLID_641_" class="st6" d="M-223.2-21.1h658.3v497.9h-658.3z"/><g id="XMLID_625_" class="st7"><path id="XMLID_640_" class="st0" d="M-142 24.8h-81.2v10.4h68.5v188.5h-68.5v10.5h81.2z"/><path id="XMLID_635_" class="st0" d="M-221.7 204c.5-1.4 1.7-2.4 3-2.4.9 0 1.7.4 2.3 1a5 5 0 0 1 4.4-2.8 5 5 0 0 1 4.8 3.8c.9-1 2.1-1.5 3.5-1.5 2.9 0 5.2 2.6 5.2 5.9a6 6 0 0 1-1.6 4.2h-23.1v11.5h68.5V35.2h-68.5v167.3c.6.4 1.1.8 1.5 1.5zm27.2-2.3v9.5h-2.7v-9.5c-3.3-1.2-5.8-6.9-5.8-13.7 0-7.7 3.2-14 7.1-14 3.9 0 7.1 6.3 7.1 14 0 6.8-2.5 12.5-5.7 13.7zm18.2 1.2v8.3h-1.7v-8.3c-4-.5-7.1-4.4-7.1-9 0-5 3.6-9.1 8-9.1s8 4.1 8 9.1c.1 4.7-3.1 8.5-7.2 9zm-39.6-85.3c1.4 0 2.8.6 3.7 1.7l-.3-2.4c0-4.3 3-7.7 6.8-7.7a6 6 0 0 1 3.5 1.1c1.4-5.5 5.9-9.5 11.2-9.5 6.5 0 11.7 6 11.7 13.3v.5a7 7 0 0 1 3.8-1.1c4.4 0 7.9 4 7.9 9 0 1-.2 2-.4 2.9h-53.3l-.1-1.4c0-3.6 2.4-6.4 5.5-6.4z"/><path id="XMLID_634_" class="st0" d="M-168.1 125.3c.3-.9.4-1.9.4-2.9 0-5-3.5-9-7.9-9a7 7 0 0 0-3.8 1.1v-.5c0-7.3-5.2-13.3-11.7-13.3-5.3 0-9.7 4-11.2 9.5a6 6 0 0 0-3.5-1.1c-3.8 0-6.8 3.5-6.8 7.7 0 .8.1 1.7.3 2.4-1-1-2.3-1.7-3.7-1.7-3.1 0-5.6 2.8-5.6 6.3l.1 1.4 53.4.1z"/><path id="XMLID_633_" class="st0" d="M-168.1 125.3c.3-.9.4-1.9.4-2.9 0-5-3.5-9-7.9-9a7 7 0 0 0-3.8 1.1v-.5c0-7.3-5.2-13.3-11.7-13.3-5.3 0-9.7 4-11.2 9.5a6 6 0 0 0-3.5-1.1c-3.8 0-6.8 3.5-6.8 7.7 0 .8.1 1.7.3 2.4-1-1-2.3-1.7-3.7-1.7-3.1 0-5.6 2.8-5.6 6.3l.1 1.4 53.4.1z"/><path id="XMLID_632_" class="st0" d="M-177 184.8c-4.4 0-8 4.1-8 9.1 0 4.7 3.1 8.5 7.1 9v8.3h1.7v-8.3c4-.4 7.2-4.3 7.2-9 0-5.1-3.6-9.1-8-9.1z"/><path id="XMLID_631_" class="st0" d="M-177 184.8c-4.4 0-8 4.1-8 9.1 0 4.7 3.1 8.5 7.1 9v8.3h1.7v-8.3c4-.4 7.2-4.3 7.2-9 0-5.1-3.6-9.1-8-9.1z"/><path id="XMLID_630_" class="st0" d="M-195.9 174c-3.9 0-7.1 6.3-7.1 14 0 6.8 2.5 12.5 5.8 13.7v9.5h2.7v-9.5c3.3-1.2 5.8-6.9 5.8-13.7-.1-7.7-3.2-14-7.2-14z"/><path id="XMLID_629_" class="st0" d="M-195.9 174c-3.9 0-7.1 6.3-7.1 14 0 6.8 2.5 12.5 5.8 13.7v9.5h2.7v-9.5c3.3-1.2 5.8-6.9 5.8-13.7-.1-7.7-3.2-14-7.2-14z"/><path id="XMLID_628_" class="st0" d="M-198.5 208c0-3.2-2.3-5.9-5.2-5.9a5 5 0 0 0-3.5 1.5 5.1 5.1 0 0 0-4.8-3.8 5 5 0 0 0-4.4 2.8c-.6-.6-1.4-1-2.3-1-1.4 0-2.6 1-3 2.4-.3-.6-.8-1.1-1.4-1.4v9.7h23.1a6.8 6.8 0 0 0 1.5-4.3z"/><path id="XMLID_627_" class="st0" d="M-198.5 208c0-3.2-2.3-5.9-5.2-5.9a5 5 0 0 0-3.5 1.5 5.1 5.1 0 0 0-4.8-3.8 5 5 0 0 0-4.4 2.8c-.6-.6-1.4-1-2.3-1-1.4 0-2.6 1-3 2.4-.3-.6-.8-1.1-1.4-1.4v9.7h23.1a6.8 6.8 0 0 0 1.5-4.3z"/><path id="XMLID_626_" class="st0" d="M-170.2 241.6h-53v11.8h94.5v-11.8z"/></g><path id="XMLID_624_" class="st6" d="M276.4 96.7c-2.2-2.9-5.9-4.5-6.5-8.5-.5-3.3.9-7.4 3.7-9.3h-10.7c10.4-6.3 8.8-13.1 8.8-13.1-12.5 3.5-11 10.8-10.2 13.1h-2.1a29.4 29.4 0 0 0-13.1-21.1v-.4s.1-8.1-12.5-8.6c-9-.4-8.1-2.1-8.1-2.1s-1.6 2.9 2.5 5.2l-5.5 5.1 5.3 5.3c-4.1 2.2-2.6 5.2-2.6 5.2s-.7-1.7 8.2-1.9c8-.1 10.9-3.4 12-5.8a27 27 0 0 1 11.6 19h-7.4c2.8 1.9 4.2 6 3.7 9.3-.6 4-4.3 5.6-6.5 8.5-4.7 6.1-3.8 12.4-.6 18.9 1.4 2.9 2.8 7 5.2 9.1h20.2c2.4-2.1 3.8-6.3 5.2-9.1 3.2-6.3 4-12.7-.6-18.8z"/><g id="XMLID_621_" class="st7"><ellipse id="XMLID_623_" class="st0" cx="370.7" cy="373.7" rx="20.1" ry="3.8"/><path id="XMLID_622_" class="st0" d="M421.9 85.9l-28.7-70.5h-10l-.9-4.4-1.2.2.9 4.2h-11v-3.3h-1.2v3.3h-10.9l.9-4.2-1.2-.2-.9 4.4h-10L319 85.9h23.9l-1 4.5 1.2.2 1-4.8h7.2v57.9a2 2 0 0 0-1.5 1.9v1.2c0 1.1.9 2 2 2s2-.9 2-2v-1.2a2 2 0 0 0-1.5-1.9V85.9h16.4V370h3.8V85.9H397l1 4.8 1.2-.2-1-4.5h23.7v-.1z"/></g></g></g></g><g id="XMLID_589_"><g id="XMLID_590_"><defs><path id="SVGID_15_" d="M0 0h210v125H0z"/></defs><clipPath id="SVGID_16_"><use xlink:href="#SVGID_15_" overflow="visible"/></clipPath></g></g></g><defs><path id="SVGID_17_" d="M0 0h210v125H0z"/></defs><clipPath id="SVGID_18_"><use xlink:href="#SVGID_17_" overflow="visible"/></clipPath><g clip-path="url(#SVGID_18_)"><g id="XMLID_12190_"><path id="XMLID_12486_" class="st9" d="M70.5 35.6h69.8v32.7H70.5z"/><g id="XMLID_12484_"><defs><path id="SVGID_19_" d="M70.5 35.6h69.8v32.7H70.5z"/></defs><clipPath id="SVGID_20_"><use xlink:href="#SVGID_19_" overflow="visible"/></clipPath><g id="XMLID_12485_" clip-path="url(#SVGID_20_)"><path id="XMLID_12488_" class="st9" d="M-3.7 35.5h218.8v32.7H-3.7z"/><g id="XMLID_12487_"><defs><path id="SVGID_21_" d="M-3.7 35.5h218.8v32.7H-3.7z"/></defs><defs><path id="SVGID_22_" d="M-3.7 35.5h218.8v32.7H-3.7z"/></defs><defs><path id="SVGID_23_" d="M-3.7 35.5h218.8v32.7H-3.7z"/></defs><defs><path id="SVGID_24_" d="M-3.7 35.5h218.8v32.7H-3.7z"/></defs><defs><path id="SVGID_25_" d="M-3.7 35.5h218.8v32.7H-3.7z"/></defs><clipPath id="SVGID_26_"><use xlink:href="#SVGID_21_" overflow="visible"/></clipPath><clipPath id="SVGID_27_" clip-path="url(#SVGID_26_)"><use xlink:href="#SVGID_22_" overflow="visible"/></clipPath><clipPath id="SVGID_28_" clip-path="url(#SVGID_27_)"><use xlink:href="#SVGID_23_" overflow="visible"/></clipPath><clipPath id="SVGID_29_" clip-path="url(#SVGID_28_)"><use xlink:href="#SVGID_24_" overflow="visible"/></clipPath><clipPath id="SVGID_30_" clip-path="url(#SVGID_29_)"><use xlink:href="#SVGID_25_" overflow="visible"/></clipPath><path id="XMLID_12510_" class="st15" d="M70.6 35.6h69.8v32.7H70.6z"/><path id="XMLID_12509_" class="st15" d="M-3.7 30.1h218.8v130.2H-3.7z"/><g id="XMLID_12493_" class="st16"><path id="XMLID_12508_" class="st9" d="M23.3 42.1h-27v2.7h22.8v49.3H-3.7v2.7h27z"/><path id="XMLID_12503_" class="st9" d="M-3.2 88.9c.2-.4.6-.6 1-.6.3 0 .6.1.8.3.3-.4.8-.7 1.5-.7.8 0 1.4.4 1.6 1 .3-.3.7-.4 1.2-.4.9 0 1.7.7 1.7 1.5 0 .4-.2.8-.5 1.1h-7.7v3h22.8V44.8H-3.7v43.7l.5.4zm9.1-.6v2.5H5v-2.5c-1.1-.3-1.9-1.8-1.9-3.6 0-2 1.1-3.7 2.4-3.7s2.4 1.6 2.4 3.7c-.1 1.8-.9 3.3-2 3.6zm6 .3v2.2h-.6v-2.2c-1.2-.1-2.3-1.1-2.3-2.3 0-1.3 1.2-2.4 2.7-2.4s2.7 1.1 2.7 2.4c-.1 1.2-1.1 2.2-2.5 2.3zM-1.2 66.3c.5 0 .9.2 1.2.4l-.1-.6c0-1.1 1-2 2.3-2l1.2.3a4 4 0 0 1 3.7-2.5c2.1 0 3.9 1.6 3.9 3.5v.1c.4-.2.8-.3 1.3-.3 1.4 0 2.6 1 2.6 2.3l-.1.8H-3v-.4c-.1-.8.7-1.6 1.8-1.6z"/><path id="XMLID_12502_" class="st9" d="M14.7 68.4l.1-.8c0-1.3-1.2-2.3-2.6-2.3-.5 0-.9.1-1.3.3v-.1c0-1.9-1.7-3.5-3.9-3.5-1.8 0-3.2 1-3.7 2.5-.3-.2-.7-.3-1.2-.3-1.2 0-2.3.9-2.3 2l.1.6c-.3-.3-.8-.4-1.2-.4-1 0-1.9.7-1.9 1.7v.4l17.9-.1z"/><path id="XMLID_12501_" class="st9" d="M14.7 68.4l.1-.8c0-1.3-1.2-2.3-2.6-2.3-.5 0-.9.1-1.3.3v-.1c0-1.9-1.7-3.5-3.9-3.5-1.8 0-3.2 1-3.7 2.5-.3-.2-.7-.3-1.2-.3-1.2 0-2.3.9-2.3 2l.1.6c-.3-.3-.8-.4-1.2-.4-1 0-1.9.7-1.9 1.7v.4l17.9-.1z"/><path id="XMLID_12500_" class="st9" d="M11.7 83.9C10.2 83.9 9 85 9 86.3c0 1.2 1 2.2 2.4 2.4v2.2h.6v-2.2c1.3-.1 2.4-1.1 2.4-2.4a2.7 2.7 0 0 0-2.7-2.4z"/><path id="XMLID_12499_" class="st9" d="M11.7 83.9C10.2 83.9 9 85 9 86.3c0 1.2 1 2.2 2.4 2.4v2.2h.6v-2.2c1.3-.1 2.4-1.1 2.4-2.4a2.7 2.7 0 0 0-2.7-2.4z"/><path id="XMLID_12498_" class="st9" d="M5.4 81.1c-1.3 0-2.4 1.6-2.4 3.7 0 1.8.8 3.3 1.9 3.6v2.5h.9v-2.5c1.2-.4 2-1.9 2-3.6 0-2.1-1.1-3.7-2.4-3.7z"/><path id="XMLID_12497_" class="st9" d="M5.4 81.1c-1.3 0-2.4 1.6-2.4 3.7 0 1.8.8 3.3 1.9 3.6v2.5h.9v-2.5c1.2-.4 2-1.9 2-3.6 0-2.1-1.1-3.7-2.4-3.7z"/><path id="XMLID_12496_" class="st9" d="M4.5 90c0-.8-.8-1.5-1.7-1.5-.4 0-.9.2-1.2.4-.2-.6-.9-1-1.6-1a2 2 0 0 0-1.5.7c-.2-.2-.5-.3-.8-.3-.5 0-.9.3-1 .6l-.5-.4V91H4c.3-.2.5-.6.5-1z"/><path id="XMLID_12495_" class="st9" d="M4.5 90c0-.8-.8-1.5-1.7-1.5-.4 0-.9.2-1.2.4-.2-.6-.9-1-1.6-1a2 2 0 0 0-1.5.7c-.2-.2-.5-.3-.8-.3-.5 0-.9.3-1 .6l-.5-.4V91H4c.3-.2.5-.6.5-1z"/><path id="XMLID_12494_" class="st9" d="M13.9 98.8H-3.7v3.1h31.4v-3.1z"/></g><path id="XMLID_12492_" class="st15" d="M162.3 60.9c-.7-.8-2-1.2-2.2-2.2-.2-.9.3-1.9 1.2-2.4h-3.6c3.5-1.7 2.9-3.4 2.9-3.4-4.2.9-3.7 2.8-3.4 3.4h-.7a7.8 7.8 0 0 0-4.4-5.5v-.1s0-2.1-4.1-2.2c-3-.1-2.7-.5-2.7-.5s-.5.8.8 1.4l-1.8 1.3 1.8 1.4c-1.4.6-.9 1.4-.9 1.4s-.2-.5 2.7-.5c2.7 0 3.6-.9 4-1.5 1.3.7 3.3 2.2 3.9 5h-2.5c.9.5 1.4 1.6 1.2 2.4-.2 1.1-1.4 1.5-2.2 2.2-1.5 1.6-1.3 3.3-.2 4.9.5.7.9 1.8 1.7 2.4h6.8c.8-.6 1.3-1.6 1.7-2.4 1.3-1.9 1.6-3.5 0-5.1z"/><g id="XMLID_12489_" class="st16"><ellipse id="XMLID_12491_" class="st9" cx="193.7" cy="133.3" rx="6.7" ry="1"/><path id="XMLID_12490_" class="st9" d="M210.7 58l-9.5-18.4h-3.3l-.3-1.2-.4.1.3 1.1h-3.6v-.9h-.4v.9h-3.7l.3-1.1-.4-.1-.3 1.2H186L176.5 58h7.9l-.3 1.2.4.1.3-1.2h2.4v15.1c-.3.1-.5.3-.5.5v.3c0 .3.3.5.6.5.4 0 .6-.2.6-.5v-.3c0-.2-.2-.4-.5-.5V58h5.4v74.3h1.3V58h8.1l.3 1.2.4-.1-.3-1.2 8.1.1z"/></g></g></g></g><defs><path id="SVGID_31_" d="M0 0h210v125H0z"/></defs><clipPath id="SVGID_32_"><use xlink:href="#SVGID_31_" overflow="visible"/></clipPath><g id="XMLID_12192_" clip-path="url(#SVGID_32_)"><path id="XMLID_12481_" class="st0" d="M0 .1h210v165.2H0z"/><path id="XMLID_12471_" class="st18" d="M67.6 85.6c13.6-1.1 27.3-1.2 41-1.4 6.3-.1 12.7.5 19 1.1 5.7.5 11.4 1.9 17.2 2 12.5.2 24.9-.1 37.4-.3l27.9-.8v-1l-36.6 1.1c-15.6.4-31.1.8-46.5-1.9-6.5-1.1-13.4-1-20.2-1.1-5.8-.1-11.6.5-17.5.4-14.9-.1-29.8-.5-44.7-.7-2.6 0-5.2 0-7.7.3A240 240 0 0 1 0 86.7v.8c22.6.2 45.1-.1 67.6-1.9zm-5.4-.3l-37.8 1.6c12.3-4.1 25.1-2.5 37.8-1.6z"/><path id="XMLID_12465_" class="st18" d="M98.9 101.2c22.3 6.3 45.2 5.9 68.2 2.7a452.6 452.6 0 0 1 42.9-4.2v-.3l-22.7 1.2a126 126 0 0 1 22.7-3.5v-1c-5.2.3-10.4.8-15.6 1.6-13.2 2.1-26.3 5.4-39.6 6.7a147.3 147.3 0 0 1-56.1-4 60.3 60.3 0 0 0-27.1-2.6c-8 1.4-15.8 3.7-23.8 5.1-16.1 2.7-32 3.1-47.8 1.5v.8c2.8.3 5.5.5 8.3.6 16.8.7 33.4.3 49.3-4.5 13.9-4.1 27.4-4 41.3-.1z"/><path id="XMLID_12462_" class="st18" d="M20.3 158.4c-6.8 1.3-13.6 2.2-20.2 2.2v-.6c3.8-.1 7.6-.5 11.3-1.3a218 218 0 0 1 49.1-3.6c17.6.3 35.2-.3 52.8 0 7.9.1 16 .9 23.6 2.4a94.2 94.2 0 0 0 46.9-2 74.2 74.2 0 0 1 26.2-2.1v1c-10.7-.6-21.1.3-31.3 3.3a79.6 79.6 0 0 1-38.8 1.3c-9.5-1.9-19-3-28.9-2.9-22.8.2-45.6-.1-68.3.1-7.5.1-15.2.8-22.4 2.2z"/><path id="XMLID_12459_" class="st18" d="M15.6 57.9A63.6 63.6 0 0 1 0 60.5v-.9c6.8-.4 13.6-1.7 20.2-3.7 10-3.1 20.3-3.2 30.8-2.6 12.5.7 25 1.4 37.6 1.5 7.3 0 14.5-1.2 21.8-1.7 10.5-.7 20.5.9 30.2 3.8 12.4 3.6 25 3.5 37.6.9 9.5-1.9 19-3.1 28.9-2.9h2.9V56c-11.4-.1-22.5.9-33.7 3.1a81.8 81.8 0 0 1-39.9-2.3 81.7 81.7 0 0 0-34.1-2.1 205.7 205.7 0 0 1-47.7 0 93.5 93.5 0 0 0-39 3.2z"/><path id="XMLID_12456_" class="st18" d="M69.6 36.7c-15.6 0-31.3-1.8-46.9-3.1-7.6-.7-15.1-1.2-22.7-1.5v-1c10.5.5 21 1.5 31.5 2.3 13.1.9 26.2 1.8 39.3 2.4 22.2 1 44.1-1.5 66-3.5 20.5-1.8 40.8-1.8 61.2.5l12 1.5v.5l-6.4-.8c-25-2.3-49.9-2.5-75-.3a643.8 643.8 0 0 1-59 3z"/><path id="XMLID_12453_" class="st18" d="M45.2 49.1A43.3 43.3 0 0 1 16.5 47 40 40 0 0 0 0 43.8v-1.1c5.2-.3 10.1.8 14.8 2.8A50 50 0 0 0 46.2 48c6.7-1.5 14.2-.9 21.3-1.1 10.3-.2 20.6-.3 30.9-.1 4.7.1 9.5.4 14 1.5a42 42 0 0 0 27.2-2c9-3.9 17.9-4.3 27.4-2.1 10.8 2.4 21.6 4.8 32.5 6.9 3.5.7 7 1.1 10.5 1.3v.9c-8.1-.6-16-2-24-3.8-8.9-2.1-18.1-3.8-27.1-5.5-5.7-1.1-11.1.1-16.1 2.2a47.7 47.7 0 0 1-32.5 2.6c-2.7-.8-5.9-.9-8.8-.9H55.1c-3.3 0-6.8.4-9.9 1.2z"/><path id="XMLID_12450_" class="st18" d="M13.2 123.8L0 123.7v-.1l13.2.2z"/><path id="XMLID_12447_" class="st18" d="M48 124.5c-11.6 0-23.2-.4-34.7-.7 13.9.1 27.8.2 41.7.1 26.7-.1 53.4-.8 80-.9 16.5-.1 33 .7 49.5.7 8.5 0 17-.2 25.5-.4v.8l-29.6.4c-21.7.1-43.3-.3-65-.3-22.5 0-45 .4-67.4.3z"/><path id="XMLID_12444_" class="st18" d="M61.2 137.1c-12.4-1.7-24.9-2.5-37.4-4-8-.9-15.9-1.1-23.8-.9v-.8c9.9-.1 19.9.6 29.8 1.4 11.9 1 23.8 2.7 35.7 4.1 10.2 1.2 20.2.8 30.3-.6 11.2-1.5 22.5-2.4 33.7-3.8 22.8-2.9 45.4 0 68 1.5l12.4.7v1.1c-18.6-1.3-37.1-2.8-55.7-3.7-7.9-.4-16 .5-23.9 1.3-12.9 1.2-25.7 2.8-38.6 4.2-10.1 1.1-20.2.8-30.5-.5z"/><path id="XMLID_12441_" class="st18" d="M68.5 44.1c-8.1 0-16.3.8-24.4.4C34 44 24 42.7 14 41.4a73 73 0 0 0-14-.3v-.9c9.8-.8 19.2 1.3 28.7 2.7 4 .6 8.1.8 12.1.8H116c5 0 10.2-.1 14.9-1.2 13.4-3.3 26.8-2.5 40.2-.7 12.9 1.6 25.8 2.7 38.8 3v.4a903 903 0 0 1-40.4-2.8 134.7 134.7 0 0 0-37.5.7c-8 1.5-16.6 1.1-25 1.2l-38.5-.2z"/><path id="XMLID_12438_" class="st18" d="M13.8 143.3A215 215 0 0 0 0 141.9v-.9l7.4.6c17.3 1.6 34.8 2.6 52.2 3.4 12.4.5 25 .6 37.4 0 19-.9 38.1-2.3 57-3.8 10.2-.8 20.1-1 30.2 1 6.2 1.2 12.8 1.7 19.3 1.7h6.5v.3c-7.2 0-14.3-.1-21.4-.5-9.7-.5-19.3-3.2-29.3-2.1-10.9 1.1-21.7 2.5-32.7 3.1-12.1.7-24.4.8-36.5 1-7.5.1-14.9-.3-22.4 0-18.1.8-36-.3-53.9-2.4z"/><path id="XMLID_12435_" class="st18" d="M17.7 83.2C11.9 84 5.9 84.5 0 84.8v-.9c6.7-.4 13.4-.9 20.1-1.6a448 448 0 0 1 34.8-1.9c16.5-.3 33-.4 49.6-.2 9.6.1 19.2.9 28.7 1.5 15.1.9 30.2 2.4 45.3 2.6 10.5.1 21-.9 31.5-1.5v1.5l-13.7.7c-22.3 1.2-44.3-.2-66.3-2.7-11.3-1.3-23-.7-34.5-.8-11.1-.1-22.3.5-33.3-.1-14.9-.7-29.7 0-44.5 1.8z"/><path id="XMLID_12432_" class="st18" d="M1.3 120l-1.3-.1v-.4a462.1 462.1 0 0 0 62-1.5c12.6-1.4 24.8-.8 37.2.5 17.5 1.8 35.1 2 52.7.9 9.7-.6 19.5-.6 29.3-1 9.6-.4 19.2-1 28.7-1.5v1.3l-14.5.9c-7.7.4-15.5.3-23.2.5-11.1.3-22.2 1.3-33.3 1-16.4-.3-32.8-1-49-2.5a153 153 0 0 0-30.3.9 354.4 354.4 0 0 1-58.3 1z"/><path id="XMLID_12429_" class="st18" d="M0 109.7v-1a419.8 419.8 0 0 0 66-3.4 130 130 0 0 1 27.9.3c22.9 2.3 45.8 3.9 68.9 3 10.9-.4 21.8-1.9 32.7-2.4l14.6-.7v1.3c-15.2 1-30.4 2-45.7 2.5-18 .6-36 .5-53.9-1.5a218.2 218.2 0 0 0-54.2-.9A365.6 365.6 0 0 1 0 109.7z"/><path id="XMLID_12426_" class="st18" d="M53.1 129.8c-17.6-3.1-35.3-4-53.1-3v-.8c19.7-.9 39.2.4 58.7 3.8a129 129 0 0 0 45.1-.8c24-4.2 48.1-4.4 72.3-1.4 11.3 1.4 22.6 2.5 33.9 3v.7c-11.5-.7-22.9-1.7-34.3-3-25.6-3-51-2.4-76.3 2a131 131 0 0 1-46.3-.5z"/><path id="XMLID_12423_" class="st18" d="M41.6 139.2A481.3 481.3 0 0 0 0 136.6v-.6h1.9c16.7.3 33.5 1.9 50.2 3.3 17.5 1.4 34.8 1.3 52.3 0 19.5-1.4 39.1-3 58.7-3.4 13.1-.2 26.2 1.7 39.3 2.4l7.6.4v1.1c-10-.7-19.9-1.6-29.9-2.5-19-1.7-37.9-.4-56.7 1.3a429.8 429.8 0 0 1-81.8.6z"/><path id="XMLID_12420_" class="st18" d="M54.1 39.7c-18-1.2-36-2.7-54.1-3.1v-1c13.1.1 26.1.8 39.1 2.1C62 40 85 40.2 108 38.5c14.7-1.1 29.4-2.7 44.1-3 13.4-.3 26.8.9 40.1 1.6l17.7 1v.8c-9-.5-18-1-27-1.7-21.2-1.6-42.2-.8-63.2 1.3a398.7 398.7 0 0 1-65.6 1.2z"/><path id="XMLID_12417_" class="st18" d="M48.6 113.2a341.2 341.2 0 0 1-48.5 1v-.7c16.4.8 32.9.6 49.3-1.1 17.7-1.8 35.4-2.4 53.1-.5 20 2.1 40 2.7 60 1.2 13.6-1 27.1-3.1 40.7-3.9l6.8-.3v.9c-9.3.3-18.5 1-27.8 2.2a345.5 345.5 0 0 1-83.8.3c-16.6-1.8-33.2-.7-49.8.9z"/><path id="XMLID_12414_" class="st18" d="M127.4 75.1c-11.9-.1-28.7-1.1-40.6-1-12.7 0-25.4.4-38.1.5-10.7.1-21.4-.3-32.1.2-5.6.2-11.2.7-16.6 1.6v-.9c8.8-1.5 17.8-1.9 26.9-1.8 15.9.2 31.9-.5 47.9-.7a528 528 0 0 1 17.8 0c6.2.1 14.5.6 20.8.6 18.1.1 36.3-.9 53.9 4a54.9 54.9 0 0 0 26.1.6c5.5-1.2 11.1-1.9 16.7-2.3v.8h-.4c-7.9.5-15.7 2.2-23.6 3.1-7.5.8-14.9-.1-22-2-13.6-3.6-22.7-2.6-36.7-2.7z"/><path id="XMLID_12411_" class="st18" d="M21 148.8c-6.9-1.7-13.9-2.9-20.9-4.3v-1.1l5 .9c6.8 1.6 13.6 2.9 20.3 4.5 14.2 3.4 28.6 5.2 43.3 3.3 6.6-.9 13-.8 19.7 0 16.6 2.2 32.6-.7 48.4-4.5 7.9-1.9 16-3.3 24.1-4.5 7.2-1 13.6 1.2 19.4 4.5h.2c-1.1-.3-2.4-.4-3.4-.9a35.2 35.2 0 0 0-23.1-2l-32.1 6.9a122.5 122.5 0 0 1-38.7.9c-3.7-.4-7.5-.2-11.2.2-17.6 2.5-34.4.3-51-3.9z"/><path id="XMLID_12408_" class="st18" d="M210 65.2h-.6L177.8 64h-3.4c3.6-2.6 16.4-4.3 35.6-5v.9c-8.9.2-17.8.8-26.9 2.3 9.1.3 18.1 1.1 26.9 1.8v1.2z"/><path id="XMLID_12405_" class="st18" d="M102 89.5c17.5 0 35 .2 52.4-.1 18.5-.2 37.1-.6 55.6-1v.6l-18.7.1c-18.6.4-37.1 1-55.7 1.2-11.2.1-22.4-.5-33.6-.8z"/><path id="XMLID_12402_" class="st18" d="M0 90v-1.3l47.2.8h7.7c-.9.1-1.8.4-2.8.4-17.3 0-34.7.2-52.1.1z"/><path id="XMLID_12399_" class="st18" d="M153.5 82.3l11.4-1v-.6l-8.4-1.4.2-.6 8.8 1.3c3.2.4 6.3.9 9.5 1.2 10.9 1.2 21.4-.7 32.1-2.1l3-.3v.8l-8.5 1.2a162 162 0 0 1-19.6 1.7c-9.5.2-19 0-28.5-.2z"/><path id="XMLID_12396_" class="st18" d="M0 82.9v-.6h.3v.5l-.3.1z"/><path id="XMLID_12393_" class="st18" d="M180.3 147.8c-.1 0-.1 0 0 0-.1 0-.1 0 0 0 2.8.5 5.6 1.4 8.5 1.5 4.7.2 9.5.6 14-.3 2.4-.5 4.9-.9 7.3-1.2v1.3c-2.2.2-4.4.5-6.5.9a40 40 0 0 1-23.3-2.2z"/><path id="XMLID_12390_" class="st18" d="M210 50a168 168 0 0 1-18.7-2.5l.1-.8 11.1 1.7c2.5.3 4.9.6 7.4.7l.1.9z"/><path id="XMLID_12387_" class="st18" d="M210 28.8l-1.2-.2c-.6-.1-1.1-.4-1.6-.6l-.2-.1h.1l2.9.4v.5z"/><path id="XMLID_12377_" class="st18" d="M21.8 161.9l-2 .2.8.1 1.2-.3zm-1.2.2c-3.4.6-5.9 1.4-7.3 2.2l7.6-.3c5.4 0 11-.6 16.2.2l7.1 1h18.2l-7.5-.3c-11.2-.5-22.4-1.7-34.3-2.8zm122.1 2.2c.3 0 .6-.2 1-.4-10.2-6.1-93.2-6.9-121.8-2 38.5-3 76.2-2.8 114 .5-15 1-29.9 2.2-44.9 2.8h17.7c11.2-1.1 22.5-2 34-.9z"/><path id="XMLID_12371_" class="st18" d="M9.4 165.1L0 163.4v1.4l4.1.6h5.6l-.3-.3z"/><path id="XMLID_12368_" class="st18" d="M146.7 165c16.8-2.7 32.7-5.5 48.7-7.8 4.9-.7 9.8-.9 14.7-.6v1.1c-11.2-.5-22.2 1.2-33.2 3.2l-26.1 4.3c-1.1.1-2.3-.1-4.1-.2z"/><path id="XMLID_12365_" class="st18" d="M15.8 70C10.4 71 5.2 71.5 0 71.2v-1.1a71 71 0 0 0 21.9-2.3c9.9-2.5 20.1-1.9 30.2-2.1 8.4-.1 16.9-1 25.2-.4 22.2 1.6 44.8-1.9 66.6 4.1a44.1 44.1 0 0 0 22.8-.8 78.4 78.4 0 0 1 38.8-.3l4.6 1v.8l-5.1-1a79.3 79.3 0 0 0-37.2.3 61 61 0 0 1-30-.2c-12.5-3.1-25.4-3-38.3-2.5l-6.1.1c-17.5-.1-34.9-.5-52.4-.1-8.5.3-17 1.7-25.2 3.3z"/><path id="XMLID_12357_" class="st18" d="M171.8 65.1c-2.9.7-5.3 1.6-7.7 1.9a50 50 0 0 1-20.4-1.5 106.3 106.3 0 0 0-35.6-3.3c-7.1.5-14.3-.1-21.5-.4-2.2-.1-4.3-.9-6.4-2.2.9-.2 1.8-.6 2.8-.7l22.1-2.5c11.7-1.3 23 .7 34.2 2.5 10.5 1.9 20.9 4.1 32.5 6.2zm-86.7-5.3l-.1 1.3c6.3.2 12.6.9 18.8.4 14.4-1.2 28.3-.4 42 3.5 7 2 14.2 2 21.5.5-7.1-1.4-14-2.9-21-3.9-10.3-1.6-20.7-3.7-31.1-4-9.9-.3-20 1.4-30.1 2.2z"/><path id="XMLID_12354_" class="st18" d="M200.6 72.2c-10.5-1.1-21.1-3.4-31.6.6 10.2 4.7 21.1 3.8 32.3 2.7-1.1.4-2.3.9-3.4 1.1a65.3 65.3 0 0 1-25.7-1c-1.6-.4-2.7-1.8-4-2.7 1.4-.8 2.7-2 4.3-2.3 10.1-2 20-.5 30.1 1.1-2.2 3.9-23.1 4.2-28.2.3h11.5v.4h-7.3v.8h22v-1z"/><path id="XMLID_12351_" class="st18" d="M0 63.3v-.9l22-4c14.4-2.7 28.7-2.6 43 0 3.6.7 7.4.7 11.1 1l-.1.9c-5.1-.4-10.3-.4-15.3-1.3-15.3-3-30.1-1.1-44.9 1.6L0 63.3z"/><path id="XMLID_12348_" class="st18" d="M161.5 96.6l-11.3 2.7-.6-1.5 10.3-1.3c-7.3-2.6-23-.7-31.2 3.5 6.1 2.7 37.5-.4 46.2-4.6-3.5-2.5-4.9-2.6-27.8-2.1a97 97 0 0 0-27.5 4.4c10.8-6.1 50-7.8 57-2.6-6 4.9-43.2 8.9-49.6 5.3 4.9-4.9 25.7-7.9 34.3-5l.2 1.2z"/><path id="XMLID_12345_" class="st18" d="M98.8 95.8l15.1 4.9c-11.7-2-21.9-7.9-34.4-7.8 15.7.9 31.4 2.8 46.9-.8l.1 1.3-27.7 2.4z"/><path id="XMLID_12342_" class="st18" d="M57.9 95.8l-27.6-2.4.1-1.3c15.7 3.4 31.3 1.8 47.1.6-12.5.3-22.8 5.7-34.4 7.9l14.8-4.8z"/><path id="XMLID_12339_" class="st18" d="M0 100.3v-.8c9.3 1.1 18.6 1.7 28.2.8A60 60 0 0 0 0 95.2v-.4c10.7-1.2 25 1.4 30 5.6-.6.4-1.1 1-1.7 1.1-9.6.7-19 .1-28.3-1.2z"/><path id="XMLID_12336_" class="st18" d="M35.8 96.8a297.5 297.5 0 0 0-35.8-4v-.7l4.9.1c8.9.6 17.6 1.9 26.4 3 1.6.3 3.1 1 4.5 1.6z"/><path id="XMLID_12333_" class="st18" d="M194.2 94.1c-1.8-.3-3.6-.7-5.4-.8-4.8-.3-9.6-.6-14.3-1.1h33.3v1c-4.5.3-9.1.5-13.6.9z"/><path id="XMLID_12330_" class="st18" d="M54.8 89.5c15.8-2.9 31.6-2.8 47.4 0-6.6-.5-13.1-1.2-19.7-1.4-5.6-.1-11.3.4-16.9.7l-10.8.7z"/><path id="XMLID_12327_" class="st18" d="M6.2 102.4c11.2-.1 22.8 3.5 33.7-2.3l-2.5-2.6c1.4.5 2.3.7 2.4 1 .3.8.6 2.1.1 2.3-2.3 1.1-4.7 2.6-7.2 2.7-8.8.3-17.7.1-26.5.1v-1.2z"/><path id="XMLID_12324_" class="st18" d="M150.7 102.7c-11.4.7-23.1 3.9-33.8-2 10.9 5.1 22.5 1.7 33.8 2z"/><path id="XMLID_12321_" class="st18" d="M194.2 94l-26.7 7.2-.4-.9 24.7-6.2c.8-.2 1.6 0 2.4-.1 0 .1 0 0 0 0z"/><path id="XMLID_12318_" class="st18" d="M143.8 154.7c10.2 2 20.4 3.3 30.2-1.4-8.6-3.1-17.2-1.5-25.8-.8v1.1H163c-3.6 2.4-12.9 2.1-17.2-.9 1.7-.5 3-1.2 4.4-1.3l19.4-.9c.8 0 1.7.1 2.3.4 1.2.6 2.7 1.3 3.1 2.2.2.6-1.1 1.9-2.2 2.4a50 50 0 0 1-29.4-.5l.4-.3z"/><path id="XMLID_12315_" class="st18" d="M5.8 151.1c-1.9.2-3.8.3-5.8.3v-.8l5.8.5z"/><path id="XMLID_12312_" class="st18" d="M15.1 153.6l-.5.2c.1-.1.2-.2.5-.2-.1 0 0 0 0 0z"/><path id="XMLID_12309_" class="st18" d="M0 156.6c5-.2 10.2-1.2 14.5-2.8-1.5.9-3 2.2-4.6 2.3l-9.9.5z"/><path id="XMLID_12306_" class="st18" d="M143.5 155c-3.1-1.9-3.1-3.4.4-4.9a50 50 0 0 1 19.7-2.9c5 0 9.9.5 14.2 2.8a60 60 0 0 0-27-.9c-2.1.3-4.1 1-6.1 1.7-2.7.9-3.6 2.2-.8 3.9l-.4.3z"/><path id="XMLID_12303_" class="st18" d="M15 153.5c-1-1-1.8-2.5-3.2-2.9A80 80 0 0 0 0 148.1v-.9c4.1.4 8.1 1.2 12 2.5 3.2 1.1 3.5 1.7 3 3.8z"/><path id="XMLID_12300_" class="st18" d="M15.1 153.6s-.1 0 0 0c-.1 0-.1-.1 0 0-.1 0-.1 0 0 0z"/><path id="XMLID_12297_" class="st18" d="M0 47.7v-.9c5.1 0 10.1.7 15.3 2.2.4.1.7.4 1.1.7a54.2 54.2 0 0 0-16.4-2z"/><path id="XMLID_12294_" class="st18" d="M0 54.1v-.8h1.5c-.4.3-.9.6-1.5.8z"/><path id="XMLID_12291_" class="st18" d="M.7 57.1H.1v-1.4l7.3-.2c1.9-.1 3.7-1.3 5.4-2.5-4.3-1.6-8.6-2-12.8-1.9v-1a32 32 0 0 1 12.3 1.1c2.5 1.4 1.6 3.1-.5 3.7A38.4 38.4 0 0 1 .7 57.1z"/><path id="XMLID_12288_" class="st18" d="M74.9 51.6l35.4-1.8.1 1L75 52.6l-.1-1z"/><path id="XMLID_12285_" class="st18" d="M176.1 53.6c.5-2.5-2.1-3.1-4.1-3.6a47.5 47.5 0 0 0-29.8.3c2.8-2.6 6.7-3.2 10.7-3.3 7.2-.2 14.3.1 21 2.7 1.9.8 4.4 1.7 2.4 4l-.2-.1z"/><path id="XMLID_12282_" class="st18" d="M143.7 52.4c1.9 1 3.7 2.7 5.8 3 9 1.5 18 1.3 26.6-1.9l.1.1c-1.4.7-2.6 1.9-4.2 2.2-7.9 1.6-16 2.1-24 .4-3.5-.7-4.7-1.8-4.6-4l.3.2z"/><path id="XMLID_12279_" class="st18" d="M143.5 52.3c1.2-.6 2.3-1.7 3.5-1.7 6.8-.2 13.7-.1 20.5-.1v1.1l-2.7.2c-1.1 0-2.1-.2-3.2-.3-6-.2-12.2-1.1-18 1.1l-.1-.3z"/><path id="XMLID_12273_" class="st18" d="M14.5 79.5c-2.5-.7-1.4-2.1-2.2-2.3-1.4 1.2-2.3 2.4-3.3 2.6-2 .2-4-.2-7-.5 3.9-3.2 7.9-3.7 11.1-2 1 .4 1.4 1.7 1.4 2.2z"/><path id="XMLID_12270_" class="st18" d="M0 81.1v-.4a34 34 0 0 0 17-2.1c0 .4-.5.9-1.1 1.3-2.6 1.9-11.1 2.4-15.9 1.2z"/><path id="XMLID_12267_" class="st18" d="M44.4 31.1c-13.3-.5-26.6-2.5-39.9-3.9L0 26.8v-.9c7.8.6 15.5 1.4 23.2 2.4 18.7 2.4 37.5 2.5 56.3 2.2 7-.1 14.1.5 21.1.1 14.8-.9 29.7-2 44.4-3.6 20.3-2.1 40.5-2.2 60.7.5l1.3.5.1.1c-10.1-.7-20.2-1.6-30.3-1.9-20.3-.5-40.2 2.8-60.2 4.6-4.6.4-9.2.8-13.8.8-19.4-.1-38.9.2-58.4-.5z"/><path id="XMLID_12264_" class="st18" d="M107.4 150.6c-5.8-.3-11.8 0-17.5-1-9.2-1.6-18-.5-27 .5a87.8 87.8 0 0 1-32.7-3l8.3 1.3c10.4 1.5 20.8 1.8 31.1.1 6.1-1 12-.7 18.1 0 6.5.8 13.1 1 19.7 1.5v.6z"/><path id="XMLID_12261_" class="st18" d="M20.3 18.3C13.5 19.6 6.7 20.4 0 20.5v-.6c3.8-.1 7.6-.5 11.3-1.3A218 218 0 0 1 60.4 15c17.6.3 35.2-.3 52.8 0 7.9.1 16 .9 23.6 2.4a94.2 94.2 0 0 0 46.9-2 74.2 74.2 0 0 1 26.2-2.1v1c-10.7-.6-21.1.3-31.3 3.3a78.8 78.8 0 0 1-38.6 1.2c-9.5-1.9-19-3-28.9-2.9-22.8.2-45.6-.1-68.3.1-7.6.2-15.3.8-22.5 2.3z"/><path id="XMLID_12258_" class="st18" d="M13.8 3.1L0 1.7V.9l7.4.6c17.3 1.6 34.8 2.6 52.2 3.4 12.4.5 25 .6 37.4 0 19-.9 38-2.3 57-3.9 10.2-.8 20.1-1 30.2 1 6.2 1.2 12.8 1.7 19.3 1.7h6.5V4c-7.2 0-14.3-.1-21.4-.5-9.7-.5-19.3-3.2-29.3-2.1-10.9 1.1-21.7 2.5-32.7 3.1-12.1.7-24.4.8-36.5 1-7.5.1-14.9-.3-22.4 0-18.1.8-36-.2-53.9-2.4z"/><path id="XMLID_12255_" class="st18" d="M21 8.7C14.1 7 7 5.8 0 4.4v-1l5 .9c6.8 1.6 13.6 2.9 20.3 4.5 14.2 3.4 28.6 5.2 43.3 3.3 6.6-.9 13-.8 19.7 0 16.6 2.2 32.6-.7 48.4-4.5 7.9-1.9 16-3.3 24.1-4.5 7.2-1 13.6 1.2 19.4 4.5h.2c-1.1-.3-2.4-.4-3.4-.9a35.2 35.2 0 0 0-23.1-2l-32.1 6.9a120.3 120.3 0 0 1-38.8 1c-3.7-.4-7.5-.2-11.2.2-17.4 2.2-34.2.1-50.8-4.1z"/><path id="XMLID_12252_" class="st18" d="M180.3 7.6c-.1 0-.1 0 0 0-.1 0-.1 0 0 0 2.8.5 5.6 1.4 8.5 1.5 4.7.2 9.5.6 14-.3 2.4-.5 4.9-.9 7.3-1.2v1.3c-2.2.2-4.4.5-6.5.9-8.3 1.5-16 1-23.3-2.2z"/><path id="XMLID_12242_" class="st18" d="M21.8 21.8l-2 .2.8.1 1.2-.3zm-1.2.3c-3.4.6-5.9 1.4-7.3 2.2l7.6-.3c5.4 0 11-.6 16.2.2l7.1 1h18.2l-7.5-.3c-11.2-.6-22.4-1.8-34.3-2.8zm122.1 2.1c.3 0 .6-.2 1-.4-10.2-6.1-93.2-6.9-121.8-2 38.5-3 76.2-2.8 114 .5-15 1-29.9 2.2-44.9 2.8h17.7c11.2-1.1 22.5-2 34-.9z"/><path id="XMLID_12239_" class="st18" d="M146.7 24.9c16.8-2.7 32.7-5.5 48.7-7.8 4.9-.7 9.8-.9 14.7-.6v1.1c-11.2-.5-22.2 1.2-33.2 3.2l-26.1 4.3c-1.1.1-2.3-.1-4.1-.2z"/><path id="XMLID_12236_" class="st18" d="M143.8 14.5c10.2 2 20.4 3.3 30.2-1.4-8.6-3.1-17.2-1.5-25.8-.8v1.1H163c-3.6 2.4-12.9 2.1-17.2-.9 1.7-.5 3-1.2 4.4-1.3l19.4-.9c.8 0 1.7.1 2.3.4 1.2.6 2.7 1.3 3.1 2.2.2.6-1.1 1.9-2.2 2.4a50 50 0 0 1-29.4-.5l.4-.3z"/><path id="XMLID_12233_" class="st18" d="M15.1 13.5l-.5.2c.1-.1.2-.2.5-.2-.1-.1 0 0 0 0z"/><path id="XMLID_12230_" class="st18" d="M0 16.4c5-.2 10.2-1.2 14.5-2.8-1.5.9-3 2.2-4.6 2.3-3.2.3-6.5.4-9.9.5z"/><path id="XMLID_12227_" class="st18" d="M143.5 14.9c-3.1-1.9-3.1-3.4.4-4.9a48 48 0 0 1 19.6-3c5 0 9.9.5 14.2 2.8a60 60 0 0 0-27-.9c-2.1.3-4.1 1-6.1 1.7-2.7.9-3.6 2.2-.8 3.9l-.3.4z"/><path id="XMLID_12224_" class="st18" d="M15 13.4c-1-1-1.8-2.5-3.2-2.9C7.9 9.4 4 8.5 0 8.1v-1c4.1.4 8.1 1.2 12 2.5 3.2 1 3.5 1.6 3 3.8z"/><path id="XMLID_12221_" class="st18" d="M15.1 13.5s-.1-.1 0 0c-.1-.1-.1-.1 0 0-.1-.1-.1-.1 0 0z"/><path id="XMLID_12218_" class="st18" d="M107.4 10.4c-5.8-.3-11.8 0-17.5-1-9.2-1.6-18-.5-27 .5a87.8 87.8 0 0 1-32.7-3l8.3 1.3c10.4 1.5 20.8 1.8 31.1.1 6.1-1 12-.7 18.1 0 6.5.8 13.1 1 19.7 1.5v.6z"/><path id="XMLID_12210_" class="st18" d="M122.9 27.5c-1.8.3-3 .7-4.2.8-4.2.4-8.4 1.2-12.5.9-10.4-.5-20.8-1.5-31.3-2.3 5.2-1.5 40.7-1.1 48 .6zM93.8 27c7.4 2.2 15 1.3 22.5.8V27H93.8z"/><g id="XMLID_12194_"><g id="XMLID_251_"><g id="XMLID_252_"><g id="XMLID_253_"><path id="XMLID_254_" class="st18" d="M84.3 127.7c-5-2.1-8.3-2-11.5.3 4.5 2.3 7 2.3 11.5-.3zm-9.8.2c2.1-1.5 4.3-1.5 7.5-.2-3 1.8-4.6 1.8-7.5.2z"/></g></g></g></g><linearGradient id="XMLID_2_" gradientUnits="userSpaceOnUse" x1="-3231.7" y1="-7446.1" x2="-3230.3" y2="-7446.1" gradientTransform="scale(-1 1) rotate(-21 18498.7 -12045.9)"><stop offset=".2" stop-color="#fff"/><stop offset="1" stop-color="#e6e6e6"/></linearGradient><path id="XMLID_12193_" d="M131 49l-1.1-.3-1.3 2.7 1.1.4L131 49z" fill="url(#XMLID_2_)"/></g></g><path id="XMLID_11884_" fill="#30cde5" d="M16.3 22.5h80v80h-80z"/><path id="XMLID_11881_" fill="#ffed4f" d="M113.9 22.5h80v80h-80z"/></g></svg>