<svg xmlns="http://www.w3.org/2000/svg" viewBox="0 0 210 125"><defs><clipPath id="a"><path fill="none" d="M-.3 0h210v125H-.3z"/></clipPath><clipPath id="b"><path fill="#ed6261" d="M70.2 35.5H140v32.7H70.2z"/></clipPath><clipPath id="c"><path fill="#ed6261" d="M-4 35.5h218.8v32.7H-4z"/></clipPath><linearGradient id="d" x1="-3408" y1="7265.6" x2="-3406.6" y2="7265.6" gradientTransform="rotate(-158.8 -2316.8 3347.8)" gradientUnits="userSpaceOnUse"><stop offset=".2" stop-color="#fff"/><stop offset="1" stop-color="#e6e6e6"/></linearGradient><clipPath id="e"><circle cx="301" cy="102" r="23" fill="none"/></clipPath><clipPath id="f"><path fill="none" d="M199.7 35h210v125h-210z"/></clipPath><clipPath id="g"><path fill="#ed6261" d="M270.2 70.5H340v32.7h-69.8z"/></clipPath><clipPath id="h"><path fill="#ed6261" d="M196 70.5h218.8v32.7H196z"/></clipPath></defs><g style="isolation:isolate"><g clip-path="url(#a)"><path fill="#ed6261" d="M70.2 35.5H140v32.7H70.2z"/><g clip-path="url(#b)" fill="#ed6261"><path d="M-4 35.5h218.8v32.7H-4z"/><g clip-path="url(#c)"><path d="M70.2 35.5H140v32.7H70.2z"/><path d="M-4 30h218.8v130.2H-4z"/><path d="M23 42H-4v2.8h22.8V94H-4v2.7h27V42z"/><path d="M-3.5 88.9a1 1 0 0 1 1-.6 1.1 1.1 0 0 1 .8.2 1.8 1.8 0 0 1 1.4-.7 1.7 1.7 0 0 1 1.6 1 1.8 1.8 0 0 1 1.2-.4A1.6 1.6 0 0 1 4.2 90a1.5 1.5 0 0 1-.5 1.1H-4v3h22.8V44.8H-4v43.7a1.1 1.1 0 0 1 .5.4zm9-.6v2.5h-.8v-2.5c-1.1-.3-2-1.8-2-3.6 0-2 1.1-3.7 2.4-3.7s2.4 1.7 2.4 3.7c0 1.8-.9 3.3-2 3.6zm6 .3v2.2H11v-2.2a2.5 2.5 0 0 1-2.3-2.4 2.5 2.5 0 0 1 2.6-2.3 2.5 2.5 0 0 1 2.7 2.3 2.5 2.5 0 0 1-2.4 2.4zm-13-22.3a2 2 0 0 1 1.2.4 1.8 1.8 0 0 1-.1-.6 2.1 2.1 0 0 1 2.2-2 2.4 2.4 0 0 1 1.2.3 3.9 3.9 0 0 1 3.7-2.5 3.7 3.7 0 0 1 3.9 3.5v.1a2.8 2.8 0 0 1 1.3-.3 2.5 2.5 0 0 1 2.6 2.4 2.1 2.1 0 0 1-.2.7H-3.3a1.5 1.5 0 0 1 0-.3 1.8 1.8 0 0 1 1.8-1.7z"/><path d="M14.3 68.3a2.1 2.1 0 0 0 .2-.8 2.5 2.5 0 0 0-2.6-2.3 2.8 2.8 0 0 0-1.3.3v-.1a3.7 3.7 0 0 0-3.9-3.5A3.9 3.9 0 0 0 3 64.4a2.4 2.4 0 0 0-1.2-.3 2.1 2.1 0 0 0-2.2 2 1.8 1.8 0 0 0 .1.6 2 2 0 0 0-1.2-.4A1.8 1.8 0 0 0-3.4 68a1.5 1.5 0 0 0 0 .4z"/><path d="M14.3 68.3a2.1 2.1 0 0 0 .2-.8 2.5 2.5 0 0 0-2.6-2.3 2.8 2.8 0 0 0-1.3.3v-.1a3.7 3.7 0 0 0-3.9-3.5A3.9 3.9 0 0 0 3 64.4a2.4 2.4 0 0 0-1.2-.3 2.1 2.1 0 0 0-2.2 2 1.8 1.8 0 0 0 .1.6 2 2 0 0 0-1.2-.4A1.8 1.8 0 0 0-3.4 68a1.5 1.5 0 0 0 0 .4zm-3 15.6a2.5 2.5 0 0 0-2.6 2.3 2.5 2.5 0 0 0 2.4 2.4v2.2h.5v-2.2a2.5 2.5 0 0 0 2.4-2.4 2.5 2.5 0 0 0-2.6-2.3z"/><path d="M11.4 83.9a2.5 2.5 0 0 0-2.7 2.3 2.5 2.5 0 0 0 2.4 2.4v2.2h.5v-2.2a2.5 2.5 0 0 0 2.4-2.4 2.5 2.5 0 0 0-2.6-2.3zM5 81c-1.3 0-2.3 1.6-2.3 3.7 0 1.7.8 3.2 1.9 3.5v2.5h.8v-2.4c1.1-.3 2-1.8 2-3.6 0-2-1-3.7-2.4-3.7z"/><path d="M5.1 81c-1.3 0-2.3 1.6-2.3 3.7 0 1.7.8 3.2 1.9 3.5v2.5h.8v-2.4c1.1-.3 2-1.8 2-3.6 0-2-1-3.7-2.4-3.7zm-.9 9a1.6 1.6 0 0 0-1.7-1.6 1.8 1.8 0 0 0-1.2.4 1.7 1.7 0 0 0-1.6-1 1.8 1.8 0 0 0-1.4.7 1.1 1.1 0 0 0-.8-.2 1 1 0 0 0-1 .6 1.1 1.1 0 0 0-.5-.4V91h7.7a1.5 1.5 0 0 0 .5-1z"/><path d="M4.2 90a1.6 1.6 0 0 0-1.7-1.6 1.8 1.8 0 0 0-1.2.4 1.7 1.7 0 0 0-1.6-1 1.8 1.8 0 0 0-1.4.7 1.1 1.1 0 0 0-.8-.2 1 1 0 0 0-1 .6 1.1 1.1 0 0 0-.5-.4V91h7.7a1.5 1.5 0 0 0 .5-1zm9.4 8.7H-4v3.1h31.4v-3H13.6zM162 60.8c-.7-.7-2-1.1-2.2-2.2a2.4 2.4 0 0 1 1.3-2.4h-3.6c3.5-1.7 3-3.4 3-3.4-4.3.9-3.8 2.8-3.5 3.4h-.7a7.8 7.8 0 0 0-4.3-5.5.8.8 0 0 0 0-.1s0-2.1-4.1-2.3c-3 0-2.7-.5-2.7-.5s-.5.7.8 1.3l-1.8 1.4 1.8 1.4c-1.4.5-1 1.3-1 1.3s-.2-.4 2.8-.5c2.6 0 3.6-.9 4-1.5a7.1 7.1 0 0 1 3.8 5h-2.4a2.4 2.4 0 0 1 1.2 2.4c-.2 1-1.4 1.5-2.2 2.3-1.5 1.6-1.2 3.2-.2 4.9a8 8 0 0 0 1.8 2.4h6.7a8 8 0 0 0 1.7-2.4c1-1.7 1.4-3.4-.2-5zm48.4-2.8l-9.6-18.4h-3.3l-.3-1.2h-.4l.3 1.2h-3.6v-.9h-.4v.9h-3.7l.3-1.1h-.4l-.3 1h-3.3L176.2 58h7.9l-.3 1.2h.4l.3-1.2h2.4v15a.6.6 0 0 0-.5.5v.3a.7.7 0 0 0 1.3 0v-.3a.6.6 0 0 0-.5-.5V58h5.5v74.3h1.2V58h8.1l.3 1.3.4-.1-.2-1.2h7.9z"/></g></g><path fill="#e2ba87" d="M-.3 0H211v165.3H-.3z"/><path d="M67.3 85.6c13.6-1.1 27.3-1.2 41-1.4a184 184 0 0 1 19 1.1c5.7.5 11.4 1.9 17.1 2 12.5.2 25 0 37.4-.3l28-.8v-1c-12.2.4-24.4.8-36.6 1a219 219 0 0 1-46.5-1.9c-6.6-1-13.5-1-20.2-1-5.9-.1-11.7.4-17.5.4-15-.1-29.8-.5-44.7-.7a53.2 53.2 0 0 0-7.7.4C24.4 85 12.2 86.7-.3 86.6v.8c22.6.3 45 0 67.6-1.8zm-5.4-.3l-37.8 1.6c12.3-4.2 25.1-2.6 37.8-1.6zm36.7 15.9a164 164 0 0 0 68.2 2.6A453 453 0 0 1 193 101l16.8-1.3v-.3l-22.7 1.2a120.8 120.8 0 0 1 22.7-3.5v-1a146.6 146.6 0 0 0-15.6 1.6c-13.2 2.2-26.3 5.4-39.6 6.8-19 1.9-37.8 1.2-56.1-4a59.3 59.3 0 0 0-27-2.7c-8 1.4-15.8 3.7-23.9 5a177 177 0 0 1-47.8 1.7v.7l8.3.7c16.8.7 33.4.2 49.4-4.5a72.1 72.1 0 0 1 41.2-.1zM15.3 57.9A65 65 0 0 1-.3 60.5v-1A85.9 85.9 0 0 0 20 55.9c10-3 20.3-3.2 30.8-2.6 12.5.7 25 1.4 37.6 1.5 7.3 0 14.5-1.2 21.8-1.7a86 86 0 0 1 30.3 3.7 78 78 0 0 0 37.5 1 131.8 131.8 0 0 1 29-3h2.8v1.1A166.5 166.5 0 0 0 176 59a80.6 80.6 0 0 1-39.9-2.3 82.4 82.4 0 0 0-34.1-2.2 205 205 0 0 1-47.6 0A95.3 95.3 0 0 0 15.3 58zm54-21.3c-15.7 0-31.4-1.8-47-3.1A440 440 0 0 0-.3 32v-1c10.5.5 21 1.5 31.5 2.3 13.1 1 26.2 1.8 39.3 2.4 22.2 1 44.1-1.5 66-3.5a307.8 307.8 0 0 1 61.2.5l12 1.6v.4l-6.4-.7a412 412 0 0 0-75-.3 653.3 653.3 0 0 1-59 3zM44.9 49A43.5 43.5 0 0 1 16 47 38.7 38.7 0 0 0-.3 43.8v-1.1a32.8 32.8 0 0 1 14.8 2.8A49.7 49.7 0 0 0 46 48c6.7-1.5 14.2-1 21.3-1 10.3-.2 20.6-.3 31-.1a62.9 62.9 0 0 1 14 1.4 41.6 41.6 0 0 0 27-2 44 44 0 0 1 27.5-2.1 978.1 978.1 0 0 0 32.6 6.9 87.3 87.3 0 0 0 10.5 1.3v.8a154.8 154.8 0 0 1-24-3.8c-9-2.1-18-3.8-27.2-5.5-5.6-1-11 .1-16 2.2a47.6 47.6 0 0 1-32.5 2.6 33.6 33.6 0 0 0-8.8-1H54.9a41.3 41.3 0 0 0-10 1.3zm-32 74.7H-.3v-.2l13.2.2zm34.7.7c-11.5 0-23.1-.4-34.7-.7l41.7.2c26.7-.1 53.4-.8 80-1 16.5 0 33 .8 49.6.8 8.5 0 17-.2 25.5-.4v.8l-29.6.4c-21.7 0-43.3-.4-65-.4-22.5 0-45 .4-67.5.3z" fill="#d7a66c"/><path d="M68.2 44c-8.1 0-16.3.9-24.3.4-10.1-.5-20.1-1.8-30.1-3a74.4 74.4 0 0 0-14-.3v-1c9.8-.7 19.2 1.3 28.7 2.7a85 85 0 0 0 12.1.8H116c5 0 10.2 0 14.9-1.2 13.4-3.3 26.7-2.4 40.2-.7a380 380 0 0 0 38.8 3v.3a903 903 0 0 1-40.4-2.8 131.8 131.8 0 0 0-37.5.8c-8 1.5-16.6 1-25 1.1-12.9.2-25.8-.1-38.7 0zM17.4 83.3c-5.9.7-11.8 1.2-17.7 1.6v-1q10-.5 20.1-1.6c11.5-1.3 23.2-1.7 34.8-2q24.8-.5 49.6-.1c9.6.1 19.1 1 28.7 1.5 15.1.9 30.2 2.4 45.4 2.5 10.4.2 21-.8 31.4-1.5v1.5l-13.6.8a398 398 0 0 1-66.4-2.7c-11.3-1.2-23-.7-34.4-.8-11.1 0-22.3.5-33.4 0a254.5 254.5 0 0 0-44.5 1.7zM1 120H-.3v-.5a408 408 0 0 0 62-1.5 172 172 0 0 1 37.3.5 322.6 322.6 0 0 0 52.7 1c9.8-.7 19.6-.6 29.3-1l28.7-1.6v1.3l-14.4.9c-7.7.4-15.5.3-23.2.5-11.1.3-22.2 1.3-33.3 1a720 720 0 0 1-49-2.5c-10.3-.9-20.3-.1-30.3 1A364.7 364.7 0 0 1 1 120zm-1.3-10.3v-1a439.7 439.7 0 0 0 66-3.4c9.4-1 18.6-.6 27.8.3a489 489 0 0 0 69 3c10.9-.4 21.7-1.9 32.7-2.4l14.5-.7v1.3c-15.2 1-30.4 2-45.6 2.5-18 .6-36 .5-54-1.5s-36-3.3-54.2-1a374.2 374.2 0 0 1-56.2 2.9z" fill="#d7a66c"/><path d="M53.8 39.7c-18-1.2-36-2.7-54-3.1v-1c13 0 26 .8 39 2.1a400.6 400.6 0 0 0 69 .8c14.7-1.1 29.4-2.7 44.1-3 13.4-.3 26.8 1 40.1 1.6l17.7 1v.8c-9-.5-18-1-27-1.7-21.2-1.6-42.1-.8-63.2 1.3a402.7 402.7 0 0 1-65.7 1.2zm-5.5 73.5a335.7 335.7 0 0 1-48.6 1v-.7a322 322 0 0 0 49.4-1c17.7-1.9 35.3-2.5 53-.6a328.2 328.2 0 0 0 60 1.2c13.7-1 27.2-3.1 40.8-3.9l6.8-.2v.8c-9.3.4-18.5 1-27.8 2.3a349.4 349.4 0 0 1-83.9.2 243 243 0 0 0-49.7.9zM127 75c-12-.1-28.7-1.1-40.6-1.1-12.7 0-25.4.4-38.2.5-10.7.1-21.4-.3-32 .2A132.6 132.6 0 0 0-.4 76.4v-.9a149 149 0 0 1 27-1.7c16 .2 31.9-.6 47.8-.7h17.8c6.2 0 14.5.6 20.8.6 18 .1 36.2-.8 53.8 4a55.5 55.5 0 0 0 26.1.6 129.7 129.7 0 0 1 16.7-2.4v.8h-.4c-7.9.5-15.7 2.3-23.6 3.1a59 59 0 0 1-22-2c-13.5-3.7-22.6-2.6-36.6-2.7zm82.6-10h-.6l-31.5-1h-3.4c3.6-2.6 16.4-4.3 35.6-5v.9a191.9 191.9 0 0 0-26.9 2.3c9.1.3 18 1.1 27 1.9zm-108 24.3c17.5 0 35 .2 52.4 0l55.6-1v.5L191 89c-18.5.4-37 1-55.7 1.2-11.2.2-22.4-.5-33.6-.8zM-.3 90v-1.3l47.2.8h7.8a18.7 18.7 0 0 1-2.8.4c-17.4.1-34.8.3-52.2.1z" fill="#d7a66c"/><path d="M153.2 82.2l11.4-1v-.5l-8.5-1.4.2-.6L165 80l9.5 1.2c11 1.2 21.4-.7 32.1-2.2l3-.3v.8l-8.5 1.2a169.2 169.2 0 0 1-19.6 1.7c-9.4.3-18.9 0-28.4-.2zm-153.5.6v-.6H0v.5zm210-32.8a185.8 185.8 0 0 1-18.7-2.5l.1-.8 11.2 1.7c2.4.3 5 .6 7.4.7zm0-21.2l-1.2-.3a8.6 8.6 0 0 1-1.6-.5h-.2.1l3 .3zM15.4 70A64.1 64.1 0 0 1-.3 71.1V70a72.5 72.5 0 0 0 21.9-2.3c9.9-2.5 20.1-2 30.3-2 8.3-.2 16.8-1 25.1-.4 22.2 1.6 44.8-2 66.6 4a43 43 0 0 0 22.8-.7 78.4 78.4 0 0 1 38.8-.3l4.5 1v.8a64.1 64.1 0 0 1-5.1-1 79.7 79.7 0 0 0-37.3.3 60.5 60.5 0 0 1-30-.2c-12.5-3.2-25.3-3-38.3-2.5l-6 .1c-17.5 0-35-.5-52.4-.1-8.4.2-17 1.7-25.1 3.3z" fill="#d7a66c"/><path d="M171.5 65.1a76.7 76.7 0 0 1-7.7 1.9 51.3 51.3 0 0 1-20.4-1.4 107.3 107.3 0 0 0-35.7-3.3c-7 .5-14.3 0-21.5-.4a13.7 13.7 0 0 1-6.3-2.2 21.2 21.2 0 0 1 2.7-.7l22.2-2.5c11.6-1.3 23 .7 34.2 2.6 10.5 1.7 21 3.8 32.5 6zm-86.7-5.3l-.1 1.3c6.3.2 12.6 1 18.8.5 14.4-1.2 28.3-.4 42 3.4a46.3 46.3 0 0 0 21.6.6c-7.2-1.4-14-2.9-21-4-10.4-1.6-20.7-3.7-31.2-4-10-.3-20 1.4-30.1 2.2zm115.5 12.4c-10.5-1.1-21-3.5-31.6.6 10.2 4.7 21 3.8 32.3 2.6a21.3 21.3 0 0 1-3.5 1.1 65.5 65.5 0 0 1-25.7-1c-1.5-.4-2.7-1.8-4-2.7 1.4-.8 2.7-2 4.3-2.3 10.1-2 20-.5 30 1-2.2 4-23 4.3-28 .4h11.4v.4h-7.3v.9h22zm-200.6-9v-.9l22-4a117.8 117.8 0 0 1 43 0c3.6.7 7.4.7 11.1 1l-.1 1c-5-.4-10.3-.4-15.3-1.4-15.2-3-30-1-44.9 1.6L-.3 63.3zm161.5 33.4l-11.3 2.7-.6-1.5 10.3-1.3a51 51 0 0 0-31.2 3.5c6 2.7 37.5-.5 46.1-4.7-3.5-2.4-4.9-2.6-27.8-2a99.5 99.5 0 0 0-27.5 4.3c10.8-6 50-7.7 57-2.5-6 4.9-43.3 9-49.6 5.3 4.9-4.9 25.7-7.9 34.2-5zm-62.7-.9l15 5c-11.6-2-21.8-8-34.3-7.9 15.7 1 31.3 2.8 46.9-.8v1.3zm-40.9 0L30 93.4V92c15.7 3.4 31.4 1.8 47.1.6-12.4.2-22.7 5.7-34.3 7.9zm-57.9 4.5v-.7a128.2 128.2 0 0 0 28.2.8A59.7 59.7 0 0 0-.3 95.2v-.5c10.7-1.1 25 1.5 30 5.7-.6.3-1.1 1-1.7 1a128 128 0 0 1-28.3-1.2zm35.8-3.4a279.8 279.8 0 0 0-35.8-4V92l4.9.1c8.8.6 17.6 2 26.4 3a16.2 16.2 0 0 1 4.5 1.6zM193.9 94c-1.8-.3-3.6-.7-5.4-.8l-14.3-1h33.4v1l-13.8.8zM54.5 89.5a132.1 132.1 0 0 1 47.4 0c-6.6-.5-13.1-1.3-19.7-1.4-5.6-.1-11.3.4-16.9.7-3.6.1-7.2.4-10.8.7z" fill="#d7a66c"/><path d="M5.9 102.4c11.2-.1 22.8 3.5 33.7-2.4l-2.4-2.6c1.3.6 2.2.7 2.3 1 .3.8.6 2.1.2 2.3-2.3 1.1-4.8 2.6-7.2 2.7-8.8.3-17.7.1-26.5.1zm144.5.2c-11.5.7-23 4-33.8-2 10.9 5.2 22.5 1.8 33.8 2zm43.4-8.6l-26.6 7.2-.4-1 24.7-6.1a10.1 10.1 0 0 1 2.4 0zM-.2 47.7v-1A52 52 0 0 1 15 49a4.5 4.5 0 0 1 1 .7 54 54 0 0 0-16.3-2zm0 6.4v-.9h1.4a6 6 0 0 1-1.5.9z" fill="#d7a66c"/><path d="M.4 57h-.7v-1.4l7.4-.2c1.8 0 3.6-1.3 5.3-2.5A35.3 35.3 0 0 0-.3 51v-1c5.5-.2 10.6 0 12.4 1 2.5 1.5 1.5 3.1-.5 3.8A35.7 35.7 0 0 1 .4 57zm74.2-5.4l35.3-1.8.1 1-35.4 1.8zm101.2 2c.5-2.6-2.1-3.2-4.1-3.7a47 47 0 0 0-29.8.3c2.8-2.6 6.7-3.1 10.7-3.2 7.2-.3 14.3 0 21 2.6 2 .8 4.4 1.7 2.4 4z" fill="#d7a66c"/><path d="M143.4 52.4c2 1 3.7 2.6 5.8 3 9 1.5 18 1.3 26.6-1.9l.1.1c-1.3.8-2.6 1.9-4.1 2.2a59.7 59.7 0 0 1-24 .4c-3.6-.8-4.7-1.8-4.6-4z" fill="#d7a66c"/><path d="M143.2 52.2c1.2-.6 2.3-1.7 3.5-1.7 6.9-.2 13.7-.1 20.6-.1v1l-2.7.2-3.2-.3c-6-.2-12.2-1.1-18 1.1zM16.7 78.6zm-2.6.8c-2.5-.7-1.4-2-2.1-2.2-1.5 1.1-2.3 2.4-3.3 2.5-2 .2-4-.2-7-.5 4-3.1 7.9-3.7 11.2-2a2.8 2.8 0 0 1 1.2 2.2z" fill="#d7a66c"/><path d="M-.3 81v-.4a33.8 33.8 0 0 0 17-2c0 .4-.4.8-1.1 1.3C13 81.7 4.5 82.3-.3 81zm44.4-50c-13.3-.5-26.6-2.5-39.9-3.9l-4.5-.4V26A437.7 437.7 0 0 1 23 28.3a408 408 0 0 0 56.4 2.2c7-.1 14 .5 21.1 0 14.8-.9 29.7-2 44.4-3.5a258 258 0 0 1 60.7.4 4.6 4.6 0 0 1 1.3.5h.1c-10-.6-20.2-1.6-30.3-1.8-20.3-.4-40.1 2.8-60.2 4.6-4.5.4-9.1.8-13.7.8-19.6 0-39.1.3-58.6-.5zM20 18.2A108.8 108.8 0 0 1-.3 20.4V20A62.2 62.2 0 0 0 11 18.6a218 218 0 0 1 49.1-3.7c17.6.3 35.2-.3 52.8 0a131.5 131.5 0 0 1 23.7 2.5 93.9 93.9 0 0 0 47-2 75 75 0 0 1 26-2.2v1a90.5 90.5 0 0 0-31.2 3.4 79 79 0 0 1-38.8 1.2 141.1 141.1 0 0 0-28.9-2.8c-22.8.1-45.5-.2-68.3.1A124.7 124.7 0 0 0 20 18.2zM13.5 3.1A215 215 0 0 0-.3 1.7V.8l7.4.6a1094 1094 0 0 0 52.2 3.4c12.4.5 25 .6 37.4 0 19-.9 38-2.3 57-3.8 10.2-.9 20.1-1 30.2 1a106 106 0 0 0 19.3 1.7h6.5V4c-7.2 0-14.3-.1-21.4-.5C178.6 3 169 .3 159 1.4c-10.9 1-21.7 2.5-32.7 3-12.1.8-24.3.8-36.5 1-7.4.2-15-.2-22.3 0a334.7 334.7 0 0 1-54-2.3z" fill="#d7a66c"/><path d="M20.6 8.7C13.8 6.9 6.7 5.7-.3 4.4v-1a50.2 50.2 0 0 1 5 .8c6.7 1.6 13.6 3 20.3 4.5C39.2 12.1 53.6 14 68.4 12A75 75 0 0 1 88 12a133 133 0 0 0 48.4-4.5 281 281 0 0 1 24-4.4c7.3-1 13.7 1.2 19.5 4.5h.1a18.8 18.8 0 0 1-3.4-.9c-7.3-3.4-15-3.8-23-2l-32.2 7a123.3 123.3 0 0 1-38.7.9 49.2 49.2 0 0 0-11.2.2C54 15 37.3 12.8 20.6 8.7zM180 7.6h-.1c2.9.5 5.7 1.4 8.6 1.5 4.6.2 9.5.6 14-.3 2.4-.5 4.8-.9 7.3-1.2V9l-6.6 1c-8.2 1.3-15.9.9-23.2-2.3zM21.5 21.8l-2 .2h.8zm-1.2.2a24.1 24.1 0 0 0-7.3 2.2l7.6-.2c5.4 0 11-.7 16.2.2l7.1 1h18.2l-7.6-.4C43.4 24.2 32.3 23 20.3 22zm122 2.1c.3 0 .7-.2 1-.4-10.2-6-93.2-6.9-121.8-2a678.1 678.1 0 0 1 114 .6c-15 1-29.9 2.1-44.9 2.8h17.7a168 168 0 0 1 34-1zm4 .7c16.9-2.7 32.8-5.4 48.8-7.8a69.4 69.4 0 0 1 14.6-.6v1.1c-11.2-.5-22.2 1.2-33.2 3.2L150.4 25a24 24 0 0 1-4-.2zm-2.8-10.3c10.3 2 20.4 3.3 30.2-1.4-8.6-3.2-17.2-1.5-25.8-.8v1.1h14.8c-3.6 2.4-13 2.1-17.2-.9 1.7-.5 3-1.2 4.5-1.3l19.4-1a5 5 0 0 1 2.3.5c1.2.6 2.7 1.3 3 2.2.3.6-1 2-2.1 2.4a19.8 19.8 0 0 1-5.7 1.5 50 50 0 0 1-23.7-2zm-128.8-1l-.5.1.5-.2zm-15 2.9a48.7 48.7 0 0 0 14.5-2.7c-1.5.9-3 2.2-4.5 2.3l-10 .4z" fill="#d7a66c"/><path d="M143.1 14.8c-3-1.9-3-3.4.4-4.9 6.2-2.6 13-2.9 19.7-2.9 5 0 10 .5 14.2 2.8a60 60 0 0 0-27-.9 37.2 37.2 0 0 0-6 1.7c-2.8 1-3.7 2.2-.9 3.9zM14.7 13.3c-1-1-1.9-2.4-3.2-2.8A78.8 78.8 0 0 0-.3 8V7a55.6 55.6 0 0 1 12 2.6c3.2 1 3.5 1.6 3 3.8zm0 .1zm92.4-3c-5.8-.3-11.8 0-17.5-1-9.1-1.6-18-.5-27 .5a88 88 0 0 1-32.7-3l8.3 1.3a99.7 99.7 0 0 0 31.1 0 61.7 61.7 0 0 1 18.1 0c6.5.9 13.1 1 19.7 1.5zm15.5 17c-1.8.4-3 .8-4.2.9-4.2.4-8.4 1.1-12.5 1-10.4-.6-20.8-1.6-31.3-2.4a235 235 0 0 1 48 .6zM93.4 27c7.4 2.2 15 1.3 22.5.8V27z" fill="#d7a66c"/><path d="M130.7 49l-1-.3-1.4 2.7 1 .3z" fill-rule="evenodd" fill="url(#d)" style="mix-blend-mode:multiply"/></g><path fill="#30cde5" d="M16 70h80v55H16z"/><path fill="#f45e1c" d="M114 70h80v55h-80z"/><path fill="#8bc34a" d="M16 0h80v54H16z"/><path fill="#ffed4f" d="M114 0h80v54h-80z"/><g clip-path="url(#e)"><g clip-path="url(#f)"><path fill="#ed6261" d="M270.2 70.5H340v32.7h-69.8z"/><g clip-path="url(#g)" fill="#ed6261"><path d="M196 70.5h218.8v32.7H196z"/><g clip-path="url(#h)"><path d="M196 65h218.8v130.2H196z"/><path d="M223 77h-27v2.8h22.8V129H196v2.7h27V77z"/><path d="M196.5 123.9a1 1 0 0 1 1-.6 1.1 1.1 0 0 1 .8.2 1.8 1.8 0 0 1 1.4-.7 1.7 1.7 0 0 1 1.6 1 1.8 1.8 0 0 1 1.2-.4 1.6 1.6 0 0 1 1.7 1.5 1.5 1.5 0 0 1-.5 1.1H196v3h22.8V79.8H196v43.7a1.1 1.1 0 0 1 .5.4zm9-.6v2.5h-.9v-2.5c-1-.3-1.9-1.8-1.9-3.6 0-2 1-3.7 2.4-3.7s2.3 1.7 2.3 3.7c0 1.8-.8 3.3-1.8 3.6zm6 .3v2.2h-.5v-2.2a2.5 2.5 0 0 1-2.3-2.4 2.7 2.7 0 0 1 5.3 0 2.5 2.5 0 0 1-2.4 2.4zm-13-22.3a2 2 0 0 1 1.2.4 1.8 1.8 0 0 1-.1-.6 2.1 2.1 0 0 1 2.2-2 2.4 2.4 0 0 1 1.2.3 3.9 3.9 0 0 1 3.7-2.5 3.7 3.7 0 0 1 3.9 3.5v.1a2.8 2.8 0 0 1 1.3-.3 2.5 2.5 0 0 1 2.6 2.4 2.1 2.1 0 0 1-.2.8h-17.7a1.5 1.5 0 0 1 0-.4 1.8 1.8 0 0 1 1.9-1.7z"/><path d="M214.3 103.3a2.1 2.1 0 0 0 .2-.8 2.5 2.5 0 0 0-2.6-2.3 2.8 2.8 0 0 0-1.3.3v-.1a3.7 3.7 0 0 0-3.9-3.5 3.9 3.9 0 0 0-3.7 2.5 2.4 2.4 0 0 0-1.2-.3 2.1 2.1 0 0 0-2.2 2 1.8 1.8 0 0 0 .1.6 2 2 0 0 0-1.2-.4 1.8 1.8 0 0 0-1.9 1.6 1.5 1.5 0 0 0 0 .4z"/><path d="M214.3 103.3a2.1 2.1 0 0 0 .2-.8 2.5 2.5 0 0 0-2.6-2.3 2.8 2.8 0 0 0-1.3.3v-.1a3.7 3.7 0 0 0-3.9-3.5 3.9 3.9 0 0 0-3.7 2.5 2.4 2.4 0 0 0-1.2-.3 2.1 2.1 0 0 0-2.2 2 1.8 1.8 0 0 0 .1.6 2 2 0 0 0-1.2-.4 1.8 1.8 0 0 0-1.9 1.6 1.5 1.5 0 0 0 0 .4zm-3 15.6a2.5 2.5 0 0 0-2.6 2.3 2.5 2.5 0 0 0 2.4 2.4v2.2h.5v-2.2a2.5 2.5 0 0 0 2.4-2.4 2.5 2.5 0 0 0-2.6-2.3z"/><path d="M211.4 118.9a2.5 2.5 0 0 0-2.7 2.3 2.5 2.5 0 0 0 2.4 2.4v2.2h.5v-2.2a2.5 2.5 0 0 0 2.4-2.4 2.5 2.5 0 0 0-2.6-2.3zM205 116c-1.3 0-2.3 1.6-2.3 3.7 0 1.7.8 3.2 1.9 3.5v2.5h.8v-2.4c1.1-.3 2-1.8 2-3.6 0-2-1-3.7-2.4-3.7z"/><path d="M205.1 116c-1.3 0-2.3 1.6-2.3 3.7 0 1.7.8 3.2 1.9 3.5v2.5h.8v-2.4c1.1-.3 2-1.8 2-3.6 0-2-1-3.7-2.4-3.7zm-.9 9a1.6 1.6 0 0 0-1.7-1.6 1.8 1.8 0 0 0-1.2.4 1.7 1.7 0 0 0-1.6-1 1.8 1.8 0 0 0-1.4.7 1.1 1.1 0 0 0-.8-.2 1 1 0 0 0-1 .6 1.1 1.1 0 0 0-.5-.4v2.5h7.7a1.5 1.5 0 0 0 .5-1z"/><path d="M204.2 125a1.6 1.6 0 0 0-1.7-1.6 1.8 1.8 0 0 0-1.2.4 1.7 1.7 0 0 0-1.6-1 1.8 1.8 0 0 0-1.4.7 1.1 1.1 0 0 0-.8-.2 1 1 0 0 0-1 .6 1.1 1.1 0 0 0-.5-.4v2.5h7.7a1.5 1.5 0 0 0 .5-1z"/></g></g><path fill="#e2ba87" d="M199.7 35H411v165.3H199.7z"/><path d="M267.3 120.6c13.6-1.1 27.3-1.2 41-1.4a184 184 0 0 1 19 1.1c5.7.5 11.4 1.9 17.1 2 12.5.2 25 0 37.4-.3l28-.8v-1c-12.2.4-24.4.8-36.6 1a219 219 0 0 1-46.5-1.9c-6.6-1-13.5-1-20.2-1-5.8-.1-11.7.4-17.5.4-15-.1-29.8-.5-44.7-.7a53.2 53.2 0 0 0-7.7.4c-12.2 1.6-24.4 3.3-36.8 3.2v.8c22.5.3 45 0 67.5-1.8zm-5.4-.3l-37.8 1.6c12.3-4.2 25.1-2.6 37.8-1.6zm-46.6-27.4a65 65 0 0 1-15.6 2.6v-1a85.9 85.9 0 0 0 20.2-3.7c10-3 20.3-3.2 30.8-2.6 12.5.7 25 1.4 37.6 1.5 7.2 0 14.5-1.2 21.8-1.7a86 86 0 0 1 30.2 3.7c12.5 3.6 25 3.5 37.6 1a131.8 131.8 0 0 1 29-3h2.8v1.1A166.5 166.5 0 0 0 376 94a80.6 80.6 0 0 1-39.9-2.3 82.4 82.4 0 0 0-34.1-2.2 205 205 0 0 1-47.6 0 95.3 95.3 0 0 0-39.1 3.4zm54-21.3c-15.7 0-31.4-1.8-47-3.1a440 440 0 0 0-22.6-1.5v-1c10.5.5 21 1.5 31.5 2.3 13.1 1 26.2 1.8 39.3 2.4 22.2 1 44.1-1.5 66-3.5a307.8 307.8 0 0 1 61.2.5l12 1.6v.4l-6.4-.7a412 412 0 0 0-75-.3 653.3 653.3 0 0 1-59 3zM244.8 84a43.5 43.5 0 0 1-28.8-2 38.7 38.7 0 0 0-16.4-3.2v-1.1a32.8 32.8 0 0 1 14.9 2.8 49.7 49.7 0 0 0 31.3 2.5c6.7-1.5 14.2-1 21.3-1 10.3-.2 20.6-.3 31-.1a62.9 62.9 0 0 1 14 1.4 41.6 41.6 0 0 0 27-2 44 44 0 0 1 27.5-2.1 978.1 978.1 0 0 0 32.6 6.9 87.3 87.3 0 0 0 10.5 1.3v.8a154.8 154.8 0 0 1-24-3.8c-9-2.1-18-3.8-27.2-5.5-5.6-1-11 .1-16 2.2a47.6 47.6 0 0 1-32.5 2.6 33.6 33.6 0 0 0-8.8-1h-46.4a41.3 41.3 0 0 0-10 1.3z" fill="#d7a66c"/><path d="M268.2 79c-8.1 0-16.3.9-24.3.4-10.1-.5-20.1-1.8-30.1-3a74.4 74.4 0 0 0-14-.3v-1c9.8-.7 19.2 1.3 28.7 2.7a85 85 0 0 0 12.1.8q37.6.2 75.3 0c5 0 10.2 0 14.9-1.2 13.4-3.3 26.7-2.4 40.2-.7a380 380 0 0 0 38.8 3v.3a903 903 0 0 1-40.4-2.8 131.8 131.8 0 0 0-37.5.8c-8 1.5-16.6 1-25 1.1-12.9.2-25.8-.1-38.7 0zm-50.8 39.2c-5.9.7-11.8 1.2-17.7 1.6v-1q10-.5 20.2-1.6c11.4-1.2 23.1-1.6 34.7-1.9q24.8-.5 49.6-.1c9.6.1 19.2 1 28.7 1.5 15.1.9 30.2 2.3 45.4 2.5 10.4.2 21-.8 31.4-1.5v1.5l-13.6.7a398 398 0 0 1-66.4-2.6c-11.3-1.3-23-.7-34.4-.8-11.1-.1-22.3.5-33.3 0a254.5 254.5 0 0 0-44.6 1.7z" fill="#d7a66c"/><path d="M253.8 74.7c-18-1.2-36-2.7-54-3.1v-1c13 0 26 .8 39 2.1a400.6 400.6 0 0 0 69 .8c14.7-1.1 29.4-2.7 44.1-3 13.4-.3 26.8 1 40.1 1.6l17.7 1v.8c-9-.5-18-1-27-1.7-21.2-1.6-42.1-.8-63.2 1.2a402.7 402.7 0 0 1-65.7 1.3zm73.3 35.4c-12-.1-28.7-1.1-40.6-1-12.7 0-25.4.4-38.2.5-10.7.1-21.4-.3-32 .2a132.6 132.6 0 0 0-16.6 1.6v-.8a149 149 0 0 1 27-1.8c16 .2 31.9-.5 47.8-.7h17.8c6.2.1 14.5.6 20.8.7 18 0 36.2-.9 53.8 4a55.5 55.5 0 0 0 26.1.5 129.7 129.7 0 0 1 16.7-2.3v.8h-.4c-7.9.4-15.7 2.2-23.6 3a59 59 0 0 1-22-2c-13.5-3.7-22.6-2.6-36.6-2.7zm-127.4 14.8v-1.3l47.3.8h7.7a18.7 18.7 0 0 1-2.8.4c-17.4.1-34.8.3-52.2.1zm0-7v-.7h.3v.5zm15.8-12.9a64.1 64.1 0 0 1-15.8 1.2V105a72.5 72.5 0 0 0 21.9-2.3c9.9-2.5 20.1-2 30.3-2 8.3-.2 16.8-1 25.1-.4 22.2 1.6 44.8-2 66.6 4a43 43 0 0 0 22.8-.7 78.4 78.4 0 0 1 38.8-.3l4.5 1v.8a64.1 64.1 0 0 1-5.1-1 79.7 79.7 0 0 0-37.3.3 60.5 60.5 0 0 1-30-.2c-12.5-3.2-25.3-3-38.3-2.5l-6 .1c-17.5 0-35-.5-52.4-.1-8.4.2-17 1.7-25.2 3.3zm-15.8-6.7v-1l22-4a117.8 117.8 0 0 1 43 0c3.6.7 7.4.7 11.1 1l-.1 1c-5-.4-10.3-.4-15.2-1.4-15.3-3-30.1-1-45 1.6l-15.8 2.8zm0-15.6v-1A52 52 0 0 1 215 84a4.5 4.5 0 0 1 1 .7 54 54 0 0 0-16.3-2zm0 6.4v-.8h1.5a6 6 0 0 1-1.5.8z" fill="#d7a66c"/><path d="M200.4 92h-.7v-1.4l7.4-.2c1.8 0 3.6-1.3 5.3-2.5a35.3 35.3 0 0 0-12.7-1.8v-1c5.4-.2 10.6 0 12.4 1 2.5 1.5 1.5 3.1-.5 3.8a35.3 35.3 0 0 1-11.2 2.1zm13.8 22.4c-2.6-.7-1.5-2-2.2-2.2-1.5 1.1-2.3 2.4-3.3 2.5-2 .2-4-.2-7-.5 4-3.1 7.9-3.7 11.2-2a2.8 2.8 0 0 1 1.2 2.2z" fill="#d7a66c"/><path d="M199.7 116v-.4a33.8 33.8 0 0 0 17-2c0 .4-.4.8-1.1 1.3-2.6 1.8-11.1 2.4-15.9 1.1zm44.4-50c-13.3-.5-26.6-2.5-39.9-3.9l-4.5-.4v-.9a437.7 437.7 0 0 1 23.2 2.4c18.7 2.4 37.5 2.5 56.3 2.3 7-.1 14.2.4 21.2 0 14.8-1 29.7-2 44.4-3.6a258 258 0 0 1 60.7.5 4.6 4.6 0 0 1 1.3.5h.1c-10-.6-20.2-1.6-30.3-1.8-20.3-.5-40.1 2.8-60.2 4.6-4.5.4-9.1.8-13.7.8-19.6 0-39.1.3-58.6-.5zM220 53.2a108.8 108.8 0 0 1-20.2 2.2V55a62.2 62.2 0 0 0 11.2-1.3 218 218 0 0 1 49.1-3.7c17.6.3 35.2-.3 52.8 0a131.5 131.5 0 0 1 23.7 2.5 93.9 93.9 0 0 0 47-2 75 75 0 0 1 26-2.2v1a90.5 90.5 0 0 0-31.2 3.4 79 79 0 0 1-38.8 1.3 141.1 141.1 0 0 0-28.9-3c-22.7.2-45.5 0-68.3.2a124.7 124.7 0 0 0-22.4 2.1zm-6.5-15.1c-4.6-.6-9.2-1-13.8-1.4v-.9l7.4.6c17.3 1.6 34.8 2.7 52.2 3.4 12.4.5 25 .6 37.4 0 19-.9 38-2.3 57-3.8 10.2-.9 20.1-1 30.2 1a106 106 0 0 0 19.3 1.7h6.5v.3c-7.2 0-14.3-.1-21.4-.5-9.7-.5-19.3-3.2-29.3-2.1-10.9 1-21.7 2.5-32.7 3-12.1.8-24.3.9-36.5 1-7.4.2-15-.2-22.3 0a334.7 334.7 0 0 1-54-2.3z" fill="#d7a66c"/><path d="M220.7 43.7c-7-1.8-14-3-21-4.3v-1a50.2 50.2 0 0 1 5 .8l20.4 4.5c14.1 3.4 28.5 5.2 43.3 3.3a75 75 0 0 1 19.6 0 133 133 0 0 0 48.4-4.5 281 281 0 0 1 24-4.4c7.3-1 13.7 1.2 19.5 4.5h.1a18.8 18.8 0 0 1-3.4-.9c-7.3-3.4-15-3.8-23-2l-32.2 6.9a123.3 123.3 0 0 1-38.7 1 49.2 49.2 0 0 0-11.2.1 136 136 0 0 1-50.9-4zm-21 7.7a48.7 48.7 0 0 0 14.5-2.7c-1.5.9-3 2.2-4.5 2.3l-10 .4zm15-3c-1-1-1.9-2.5-3.2-2.9a78.8 78.8 0 0 0-11.8-2.5v-1a55.6 55.6 0 0 1 12 2.5c3.2 1 3.5 1.7 3 3.8z" fill="#d7a66c"/></g></g></g></svg>