<svg id="Слой_1" data-name="Слой 1" xmlns="http://www.w3.org/2000/svg" xmlns:xlink="http://www.w3.org/1999/xlink" viewBox="0 0 210 125"><defs><style>.cls-4{fill:url(#Безымянный_градиент_10-3)}</style><linearGradient id="Безымянный_градиент_4" y1="-651.5" x2="210" y2="-651.5" gradientTransform="matrix(1, 0, 0, -1, 0, -589)" gradientUnits="userSpaceOnUse"><stop offset="0" stop-color="#2af39a"/><stop offset="1" stop-color="#0ab4e3"/></linearGradient><linearGradient id="Безымянный_градиент_10" x1="-71.3" y1="-654.2" x2="872.6" y2="-654.2" gradientTransform="matrix(1, 0, 0, -1, 0, -589)" gradientUnits="userSpaceOnUse"><stop offset="0" stop-color="#ecf370"/><stop offset="0.3" stop-color="#2af39a"/><stop offset="0.7" stop-color="#0ab4e3"/><stop offset="0.7" stop-color="#29a4d4"/><stop offset="0.9" stop-color="#7a79ad"/><stop offset="0.9" stop-color="#ac5e94"/><stop offset="1" stop-color="#c0548b"/></linearGradient><linearGradient id="Безымянный_градиент_10-2" x1="94" y1="-650.45" x2="116" y2="-650.45" xlink:href="#Безымянный_градиент_10"/><linearGradient id="Безымянный_градиент_10-3" x1="-106" y1="-650.45" x2="1214.1" y2="-650.45" xlink:href="#Безымянный_градиент_10"/><linearGradient id="Безымянный_градиент_10-5" x1="-106" y1="-650.2" x2="1214.1" y2="-650.2" xlink:href="#Безымянный_градиент_10"/><linearGradient id="Безымянный_градиент_10-6" x1="-106" y1="-653" x2="1214.1" y2="-653" xlink:href="#Безымянный_градиент_10"/><linearGradient id="Безымянный_градиент_10-7" x1="-1566.3" y1="-654.2" x2="-622.3" y2="-654.2" gradientTransform="translate(-1285 -589) rotate(180)" xlink:href="#Безымянный_градиент_10"/><linearGradient id="Безымянный_градиент_10-8" x1="-1601" y1="-650.2" x2="-280.8" y2="-650.2" gradientTransform="translate(-1285 -589) rotate(180)" xlink:href="#Безымянный_градиент_10"/><linearGradient id="Безымянный_градиент_10-9" x1="-1601" y1="-653" x2="-280.8" y2="-653" gradientTransform="translate(-1285 -589) rotate(180)" xlink:href="#Безымянный_градиент_10"/><linearGradient id="Безымянный_градиент_17" x1="71.65" y1="-650.64" x2="140.75" y2="-650.64" gradientTransform="matrix(1, 0, 0, -1, 0, -589)" gradientUnits="userSpaceOnUse"><stop offset="0" stop-color="#0ab4e3"/><stop offset="0.3" stop-color="#359ece"/><stop offset="0.8" stop-color="#9f659b"/><stop offset="1" stop-color="#c0548b"/></linearGradient><linearGradient id="Безымянный_градиент_17-2" x1="70.7" y1="-658.75" x2="82.1" y2="-658.75" xlink:href="#Безымянный_градиент_17"/><linearGradient id="Безымянный_градиент_17-3" x1="72.3" y1="-659.84" x2="84.7" y2="-659.84" xlink:href="#Безымянный_градиент_17"/><linearGradient id="Безымянный_градиент_17-4" x1="10.8" y1="-649.98" x2="16.3" y2="-649.98" xlink:href="#Безымянный_градиент_17"/><linearGradient id="Безымянный_градиент_17-5" x1="16.3" y1="-654.75" x2="55.42" y2="-654.75" xlink:href="#Безымянный_градиент_17"/><linearGradient id="Безымянный_градиент_17-6" x1="165.9" y1="-652.9" x2="203.8" y2="-652.9" xlink:href="#Безымянный_градиент_17"/><linearGradient id="Безымянный_градиент_17-7" x1="187.8" y1="-658.55" x2="193.1" y2="-658.55" xlink:href="#Безымянный_градиент_17"/></defs><path id="_Rectangle_" data-name=" Rectangle " d="M0 0h210v125H0z" style="fill:url(#Безымянный_градиент_4)"/><path d="M0 49.85h15.7v30.7H0z" style="fill:url(#Безымянный_градиент_10)"/><path d="M94 16.45h21.9v90H94z" style="fill:url(#Безымянный_градиент_10-2)"/><path class="cls-4" d="M94 16.45h21.9v90H94z"/><path class="cls-4" d="M94 16.45h21.9v90H94z"/><path d="M60.6 24.55h21.9v73.3H60.6z" style="fill:url(#Безымянный_градиент_10-5)"/><path d="M27.3 41.05h21.9V87H27.3z" style="fill:url(#Безымянный_градиент_10-6)"/><path d="M194.3 49.85H210v30.7h-15.7z" style="fill:url(#Безымянный_градиент_10-7)"/><path d="M127.4 24.55h21.9v73.3h-21.9z" style="fill:url(#Безымянный_градиент_10-8)"/><path d="M160.8 41.05h21.9V87h-21.9z" style="fill:url(#Безымянный_градиент_10-9)"/><path d="M139 69.35a10.31 10.31 0 0 0-4.7-3.7 6.28 6.28 0 0 1-2.3-1.5 6.19 6.19 0 0 1-1.7-3 2.2 2.2 0 0 0-1.4-1.8 1.89 1.89 0 0 0-2 .4l-.2.4c-1 1.8-3.8 2.1-5.8.8l-3-2a5.81 5.81 0 0 1-2.7-3.6 1.7 1.7 0 0 1 .8-1.6l.2-.2a1.71 1.71 0 0 0 .3-1.9 2.19 2.19 0 0 0-2-1.3 1.23 1.23 0 0 1-.8-.4 3.47 3.47 0 0 1-.7-1 10.05 10.05 0 0 0-3-4 13.7 13.7 0 0 0-16.6-.2l-9.5-9-1.6-1.5 1.5-1.6a1.3 1.3 0 1 0-.64-1.72 1.32 1.32 0 0 0-.06.92l-1.6 1.7-2.1-2 1.6-1.7a1.3 1.3 0 1 0-.7-1.7 1.33 1.33 0 0 0 0 1l-1.7 1.7-.6-.6a1.21 1.21 0 0 0-.4-1l-1.9-1.8a1.2 1.2 0 0 0-1.7 0l-2 2a1.2 1.2 0 0 0 0 1.7l1.9 1.9a1.19 1.19 0 0 0 .9.3l.6.7-1.7 1.7a1.3 1.3 0 1 0 .7 1.7 1.33 1.33 0 0 0 0-1l1.7-1.7 2 2.2-1.6 1.6a1.3 1.3 0 1 0 .86 1.62 1.27 1.27 0 0 0-.06-.92l1.5-1.6 1.6 1.6 9 9.6c-3.6 5-3.6 12 .2 16.6a10.05 10.05 0 0 0 4 3 3.64 3.64 0 0 1 1 .6 1.24 1.24 0 0 1 .3.8 2.19 2.19 0 0 0 1.4 2 1.71 1.71 0 0 0 1.9-.3l.1-.1a1.7 1.7 0 0 1 1.7-.8 5.78 5.78 0 0 1 3.6 2.6l2 3c1.2 2 1 4.9-.8 5.8l-.5.3a1.91 1.91 0 0 0-.4 1.9 2.2 2.2 0 0 0 1.8 1.4 6.19 6.19 0 0 1 3 1.7 6.28 6.28 0 0 1 1.5 2.3 10.35 10.35 0 0 0 3.8 4.6c6 3.7 13.4 2 19.8-4.4l.3-.3.3-.3c6.5-6.5 8.2-14 4.5-19.9zm-60.4-37l.6-.7zm-2.3 2.3l.6-.7z" style="fill:url(#Безымянный_градиент_17)"/><path d="M70.7 44.35l10.3 51 1.1-.2-10.4-51z" style="fill:url(#Безымянный_градиент_17-2)"/><path d="M84.2 92.55l-8.8-43.2h.4a1 1 0 0 0 1-1 1.64 1.64 0 0 0 0-.22l-.3-1a1 1 0 0 0-1.16-.81l-3 .5.6 2.9 1.9-.3 8.8 43.1-3 .5.4 2.3 3.6-.6z" style="fill:url(#Безымянный_градиент_17-3)"/><path d="M11.6 59.85a16.14 16.14 0 0 1-.8 1.8 4.59 4.59 0 0 0 5.5.1 26.82 26.82 0 0 0-1.5-2.4 6 6 0 0 1-3.2.5z" style="fill:url(#Безымянный_градиент_17-4)"/><path d="M55 71.65c-.7-2.5-5.2-5.6-5.6-8s-.2-3.2.9-3.8c2-1.3 1.5-2.2-.7-2-1.7.2-10.3-.2-11.8-.3-1.2-.2-2.4.7 0 2 2.6 1.1 2 4 3.5 6.5a29.57 29.57 0 0 0 5.4 6.2c1.6 1.5 1.7 3.2.3 3.8a1.9 1.9 0 0 1-2.28-1.42v-.08L39 67.85a2.1 2.1 0 0 0 .3-2.7 2 2 0 0 0-2.6-.3l-1.7-2A1.89 1.89 0 0 0 32.6 60l-1.3-1.6a1.9 1.9 0 0 0-2.3-3l-4.2-4.8c-1.8-2-5.3-2.8-7-.5-2 3 .7 5-1.5 7.8l1.9 2.4a10.5 10.5 0 0 0 1-1.4 11.79 11.79 0 0 0 .7-3.9s-.1-2.2 1-.6q8 10.8 15.8 21.8c.5.7 5.6 9 13 6.1a7.3 7.3 0 0 0 4.1-3.4c1.5-1.8 2.1-4 1.2-7.3zm-19.4-3.6a1.8 1.8 0 0 0 1.2.7 1.6 1.6 0 0 1-1.2-.7zm11.4-1.9a1.41 1.41 0 0 1-2.2.4 1.6 1.6 0 1 1 2.2-.43zm3.4 4.3a1.6 1.6 0 1 1-.54-2.2l.14.1a1.6 1.6 0 0 1 .4 2.1z" style="fill:url(#Безымянный_градиент_17-5)"/><path d="M201.1 67.35a8.61 8.61 0 0 0-1.7-1.3c-2.2-1.5-4.4-.9-5.7-2-.6-.6-.6-1.6-1.6-2.6a6.11 6.11 0 0 0-7.5-1l-.6-.4v.8l-11-11-.8-1 .4-.3a.41.41 0 0 0 .4 0 .46.46 0 0 0-.6-.7.42.42 0 0 0-.1.4l-.4.3-.7-1 .4-.4a.42.42 0 1 0-.2-.7.42.42 0 0 0-.1.4l-.4.4-.7-.9.5-.5a.41.41 0 0 0 .4 0 .46.46 0 0 0-.6-.7.42.42 0 0 0-.1.4l-.5.5-.5-.7-1.6 1.65-1.6 1.5.7.6-.4.4a.42.42 0 1 0 .3.3l.5-.5.8.7-.4.4a.41.41 0 0 0-.3.1.42.42 0 1 0 .6.6.41.41 0 0 0 0-.4l.5-.4 1 .8-.3.3a.42.42 0 1 0 .3.3l.4-.4.9.8 11 11h-.8l.3.6a6.11 6.11 0 0 0 1 7.5c1 1 2 1 2.7 1.7 1.1 1.3.5 3.5 2 5.6a9 9 0 1 0 15.36-9.39 9.32 9.32 0 0 0-1.26-1.61zM187.9 72a3.5 3.5 0 1 1 5 0 3.5 3.5 0 0 1-5 0zm5.8 5.8l-.5-.5 2.5-2.5 2.3-2.6.6.6-2.5 2.5z" style="fill:url(#Безымянный_градиент_17-6)"/><circle cx="190.4" cy="69.55" r="2.6" style="fill:url(#Безымянный_градиент_17-7)"/></svg>