<svg id="Слой_1" data-name="Слой 1" xmlns="http://www.w3.org/2000/svg" viewBox="0 0 210 125"><defs><style>.cls-2{fill:#fff}</style></defs><title>duration-series_1</title><rect id="_Прямоугольник_" data-name="&lt;Прямоугольник&gt;" width="210" height="125" style="fill:#3acbdd"/><g id="_Группа_" data-name="&lt;Группа&gt;"><path id="_Составной_контур_" data-name="&lt;Составной контур&gt;" class="cls-2" d="M18.34 50.62l-6 1.37-1.87-7.6 10.39-2.94H28v35.72h-9.66z"/><path id="_Составной_контур_2" data-name="&lt;Составной контур&gt;" class="cls-2" d="M33.13 69.77L46.4 59.64c3.35-2.53 4.6-4.26 4.6-6.38s-1.57-3.6-4-3.6-4.24 1.34-7 4.56l-6.67-5.52c3.8-4.91 7.55-7.6 14.44-7.6 7.75 0 13.07 4.61 13.07 11.4 0 5.67-2.89 8.66-8.21 12.41l-6.08 4.25H61.2v8H33.13z"/></g><g id="_Группа_2" data-name="&lt;Группа&gt;"><path id="_Составной_контур_3" data-name="&lt;Составной контур&gt;" class="cls-2" d="M155.78 53.85l.87-1c12.66-1.09 17.14-4 17.14-8.84 0-3.71-2.95-6-8.19-6s-10.81 2.62-15.94 7.2l-10.91-14.39c6.66-6.66 15.72-11.46 28.27-11.46 16 0 27.29 8.73 27.29 23.14 0 13.75-9.17 19.65-21.28 22.59l-1.31 7h-13.21zM154 78.41h21.5V97H154z"/></g><g id="_Группа_3" data-name="&lt;Группа&gt;"><path id="_Составной_контур_4" data-name="&lt;Составной контур&gt;" class="cls-2" d="M83.7 50.62l-6 1.37-1.87-7.6 10.39-2.94h7.14v35.72H83.7z"/><path id="_Составной_контур_5" data-name="&lt;Составной контур&gt;" class="cls-2" d="M98.9 59.44c0-10 6.38-18.44 16.46-18.44s16.36 8.31 16.36 18.44-6.33 18.44-16.46 18.44S98.9 69.57 98.9 59.44zm22.95 0c0-5.62-2.69-9.73-6.59-9.73s-6.48 4-6.48 9.73 2.63 9.73 6.59 9.73 6.48-4.01 6.48-9.73z"/></g></svg>