<svg id="Layer_1" data-name="Layer 1" xmlns="http://www.w3.org/2000/svg" viewBox="0 0 210 125"><defs><style>.cls-2{fill:#ffd15c}.cls-3{fill:#f8b64c}.cls-4{fill:#ff7058}.cls-5{fill:#fff}.cls-7{fill:#334a5e}</style></defs><title>Artboard 13</title><rect id="_Прямоугольник_" data-name="&lt;Прямоугольник&gt;" width="210" height="125" style="fill:#8e60fc"/><g id="_Группа_" data-name="&lt;Группа&gt;"><g id="_Группа_2" data-name="&lt;Группа&gt;"><polygon id="_Контур_" data-name="&lt;Контур&gt;" class="cls-2" points="102.27 75.6 87.47 116.12 84.28 125 68.35 125 74.04 109.06 86.11 75.6 102.27 75.6"/><polygon id="_Контур_2" data-name="&lt;Контур&gt;" class="cls-2" points="141.65 125 125.72 125 122.53 116.12 107.73 75.6 123.89 75.6 135.96 109.06 141.65 125"/></g><g id="_Группа_3" data-name="&lt;Группа&gt;"><path id="_Контур_3" data-name="&lt;Контур&gt;" class="cls-3" d="M86.11 75.6h16.16L87.7 116.12a55.65 55.65 0 0 1-13.7-7.06z"/><path id="_Контур_4" data-name="&lt;Контур&gt;" class="cls-3" d="M136 109.06a55.38 55.38 0 0 1-13.66 7.06L107.73 75.6h16.16z"/></g><circle id="_Контур_5" data-name="&lt;Контур&gt;" class="cls-4" cx="105" cy="65.81" r="50.08"/><circle id="_Контур_6" data-name="&lt;Контур&gt;" class="cls-5" cx="105" cy="65.81" r="39.38"/><circle id="_Контур_7" data-name="&lt;Контур&gt;" class="cls-4" cx="105" cy="65.81" r="28.91"/><circle id="_Контур_8" data-name="&lt;Контур&gt;" class="cls-5" cx="105" cy="65.81" r="18.44"/><circle id="_Контур_9" data-name="&lt;Контур&gt;" class="cls-4" cx="105" cy="65.81" r="7.97"/><path id="_Контур_10" data-name="&lt;Контур&gt;" d="M142.79 34.4L106.37 67h-.23l-2.28-2.28v-.23l36.42-32.78h.23l2 2.28c.28.18.28.18.28.41z" style="fill:#40596b"/><g id="_Группа_4" data-name="&lt;Группа&gt;"><polygon id="_Контур_11" data-name="&lt;Контур&gt;" class="cls-7" points="137.78 36.67 124.58 48.51 122.76 38.95 135.96 27.11 137.78 36.67"/><polygon id="_Контур_12" data-name="&lt;Контур&gt;" class="cls-7" points="133.91 51.24 147.12 39.63 137.78 36.67 124.58 48.51 133.91 51.24"/></g></g></svg>