<svg xmlns="http://www.w3.org/2000/svg" xmlns:xlink="http://www.w3.org/1999/xlink" viewBox="0 0 210 125"><defs><style>.cls-2{fill:#ee6261}.cls-3{fill:#da5b5b}.cls-4{fill:#713616}.cls-8{fill:#fff}.cls-9{fill:#c14d4d}</style><linearGradient id="linear-gradient" x1="105" y1="120" x2="105" y2="108.91" gradientUnits="userSpaceOnUse"><stop offset="0" stop-color="#fff" stop-opacity="0"/><stop offset="1" stop-color="#1a171b"/></linearGradient></defs><title>Artboard 63</title><g style="isolation:isolate"><g id="Layer_1" data-name="Layer 1"><rect id="_Rectangle_" data-name="&lt;Rectangle&gt;" class="cls-2" x="-45" width="300" height="125"/><rect class="cls-3" x="-10" width="33" height="125"/><rect class="cls-3" x="56" width="33" height="125"/><rect class="cls-3" x="122" width="33" height="125"/><rect class="cls-3" x="188" width="33" height="125"/><path class="cls-4" d="M56.93 26.64v82.27h96.13V26.64zm89.66 75.8H63.4V33.11h83.2z"/><rect x="63.4" y="33.11" width="83.19" height="69.33" style="fill:#00dace"/><rect x="56.93" y="108.91" width="96.13" height="11.09" style="opacity:.3;mix-blend-mode:multiply;fill:url(#linear-gradient)"/><rect class="cls-4" x="79.21" y="18.78" width="28.48" height="0.92" transform="translate(6.36 58.22) rotate(-35.75)"/><rect class="cls-4" x="116.09" y="5.01" width="0.92" height="28.48" transform="translate(32.83 102.59) rotate(-54.25)"/><circle cx="105.46" cy="12.31" r="2.31" style="fill:#ffecb7"/><path class="cls-8" d="M114.13 72.13h.66a12.42 12.42 0 1 0-12.41-12.73 18.31 18.31 0 0 1 11.75 12.71z"/><polygon class="cls-8" points="118.27 45.7 114.79 40.25 111.3 45.7 118.27 45.7"/><polygon class="cls-8" points="128.81 63.22 134.27 59.73 128.81 56.24 128.81 63.22"/><path class="cls-8" d="M100.76 56.25l-3.46 2.2a18.33 18.33 0 0 1 3.46.49z"/><polygon class="cls-8" points="122.24 47.35 127.17 52.28 128.57 45.95 122.24 47.35"/><polygon class="cls-8" points="127.17 67.19 122.24 72.12 128.57 73.51 127.17 67.19"/><polygon class="cls-8" points="102.4 52.28 107.33 47.35 101 45.95 102.4 52.28"/><path class="cls-8" d="M119.34 74.12a9.63 9.63 0 0 0-6.2 2.26 17 17 0 0 0-.26-2.62 16.5 16.5 0 0 0-.44-1.84A16.7 16.7 0 0 0 96.43 60h-.69a16.72 16.72 0 0 0-15.29 21.6 5.9 5.9 0 0 0 .13 11.81h38.76a9.65 9.65 0 0 0 0-19.31z"/><path class="cls-9" d="M30.47 45L13 29.54a2.49 2.49 0 0 0-4.87-.77L-10.47 45H-24v51h68V45zM8.05 30a2.49 2.49 0 0 0 4.69.57L28.76 45H-8.76z"/><rect class="cls-2" x="-18" y="51" width="56" height="38"/><path class="cls-9" d="M219.47 32L202 16.54a2.49 2.49 0 0 0-4.87-.77L178.53 32H171v74h56V32zm-22.42-15a2.49 2.49 0 0 0 4.69.57l16 14.41h-37.5z"/><rect class="cls-2" x="181" y="42" width="36" height="52"/></g></g></svg>