<svg xmlns="http://www.w3.org/2000/svg" xmlns:xlink="http://www.w3.org/1999/xlink" viewBox="0 0 210 125"><defs><radialGradient id="a" cx="827.94" cy="1210.42" r="618.07" gradientTransform="translate(-112.33 -126.63) scale(0.26 0.16)" gradientUnits="userSpaceOnUse"><stop offset="0.43" stop-color="#fec"/><stop offset="0.54" stop-color="#fbe9c7"/><stop offset="0.67" stop-color="#f0dab8"/><stop offset="0.81" stop-color="#dec29f"/><stop offset="0.96" stop-color="#c5a17c"/><stop offset="1" stop-color="#bd9671"/></radialGradient></defs><title>Artboard 12</title><rect width="210" height="125" fill="url(#a)"/><rect x="41" width="3" height="125" fill="#a46c0a"/><rect x="84" width="3" height="125" fill="#a46c0a"/><rect x="126" width="3" height="125" fill="#a46c0a"/><rect x="169" width="3" height="125" fill="#a46c0a"/><path d="M204 99.8a6.68 6.68 0 0 0-3.75-5.8c-.48-.28-1.06-.76-1.54 0s.21 1 .71 1.27a6.19 6.19 0 0 1 3 3.52c.38 1.28-.24 1.84-1.52 1.43a4.22 4.22 0 0 1-2.71-2.9c-.18-.54-.39-1.1-1-.85s-.59.81-.35 1.47a5.7 5.7 0 0 0 4.29 3.89c2.13.47 2.68 1.25 2.15 3.38-.69 2.79-3.06 3.71-5.38 2.1a16.51 16.51 0 0 0-1.69-1c-.86-.46-2.34-.25-2.57-1.08s.78-1.7 1.45-2.41a.69.69 0 0 0-.06-1.16c-.41-.34-.75-.13-1 .19a9.76 9.76 0 0 0-1.62 2.18c-.44 1.05-1.12 1-2 1-1.06 0-1-.74-1.27-1.39a16.19 16.19 0 0 0-.94-2.13c-.18-.34-.53-.61-1-.29s-.55.55-.31 1a8 8 0 0 1 1 2.65c-2.36.51-4.83.59-6.18 3a.61.61 0 0 1-.83.29c-1.3-.55-2.47-1.32-2.73-2.82a2.83 2.83 0 0 1 1.62-3.25c1.1-.56 2.24-1.08 3.29-1.72a7.36 7.36 0 0 0 3.13-3.4c.26-.62.17-1.07-.39-1.3s-.81.22-1 .67c-.83 2.07-2.73 2.86-4.77 4a7.18 7.18 0 0 1 3.51-5.48c.45-.26 1.06-.46.72-1.13s-.92-.48-1.5-.17a7.57 7.57 0 0 0-3.89 5.13 8.3 8.3 0 0 1-1.47 3.5 4.37 4.37 0 0 0 .72 6 8 8 0 0 0 2.69 1.56c1.81.69 2 1.63.56 2.84-.5.42-1.06.77-1.57 1.18s-.74.6-.3 1.13.76.39 1.19.07a12.73 12.73 0 0 1 1.94-1.32c.8-.39 1-2.31 2.1-1.36.71.61-.59 1.61-1.13 2.34-.31.42-.51.74 0 1.17s.82.11 1.16-.21a5.66 5.66 0 0 0 1.59-2.2c.2-.57.38-1 1-.8 2.23.78 5.56-.93 6.51 2.82 0 .11.17.19.26.29.44.48 1 .81 1.51.26s-.12-.92-.41-1.31a5.7 5.7 0 0 1-.69-.95c-.17-.38-.85-.85 0-1.22.5-.21 1.05-.68 1.48.15a3.61 3.61 0 0 0 1.65 1.64c.59.28 1.28 1.1 1.87.19s-.6-1-1-1.47-1.69-.77-.89-1.71a3.49 3.49 0 0 1 2.37-1.53 5.77 5.77 0 0 0 4.56-7.88 6.09 6.09 0 0 1-.57-2.07zm-11.51 11.46c-.93.22-1.14-.2-.85-1.08.19-.6.45-1.44-.49-1.59s-.87.69-.95 1.34c-.12 1.08-.69 1.61-1.84 1.36a18.13 18.13 0 0 1-4.51-1.15c-1.14-.57-1.36-1.27-.36-2.22a3.35 3.35 0 0 1 4.41-.39c.52.4.82.16 1.11-.26s.39-.88.82-.7c2.51 1.06 5.72 0 7.75 2.56-1.34 1.52-3.25 1.71-5.07 2.13z" fill="#a46c0a"/><path d="M163.25 106.5c-1.7 0-3.42-.11-5.11 0-1.42.12-2-.38-2.32-1.75a6.26 6.26 0 0 0-6.07-4.89c-3.31-.22-7.12 1.32-7.62 3.94-.62 3.23-2.52 2.87-4.68 2.76a26.88 26.88 0 0 0-2.75 0c-.71 0-1.82-.34-1.74.93s1.13.61 1.73.61c8 0 16 0 24-.28h4.52c.54 0 1.33.19 1.28-.73-.06-.74-.75-.58-1.24-.59zm-10.27.06h-4.71c-1.44 0-2.89-.11-4.32 0s-1.41-.56-1.07-1.58c.68-2.08 3-3.55 5.74-3.56s4.71 1.19 5.52 3.45c.44 1.26.1 1.72-1.14 1.69z" fill="#a46c0a"/><path d="M160.34 111.77c-5.39.3-10.69-.85-16-1a18.81 18.81 0 0 0-6.59.73c-.58.22-1.47.27-1.21 1.2s1 .4 1.58.25a23.39 23.39 0 0 1 7.75-.65c4.75.39 9.48 1.25 14.28 1 .56 0 1.3.18 1.32-.71-.03-.68-.47-.85-1.13-.82z" fill="#a46c0a"/><path d="M156.28 116.79c-4.31.09-8.66-.31-12.89.87-.57.16-1.49.3-1.22 1.2s1.05.44 1.54.29c2.54-.79 5.16-.75 8-.84h4.26c.56 0 1.08-.26 1.1-.9.04-.41-.33-.63-.79-.62z" fill="#a46c0a"/><path d="M153.8 98.64a69 69 0 0 0 4.37-5.49c-.28-.77-.67-.94-1.32-.44a13.24 13.24 0 0 0-3.75 4.88c-.29.6.23 1.54.7 1.05z" fill="#a46c0a"/><path d="M157.24 103.16a.74.74 0 0 0 1 .25 24.56 24.56 0 0 1 5.08-1.88c.41-.13.74-.25.67-1-.13-.23-.32-.65-.9-.49a19.86 19.86 0 0 0-5.45 2c-.32.23-.76.57-.4 1.12z" fill="#a46c0a"/><path d="M138.41 95.38a13.87 13.87 0 0 1 3.7 3.41.75.75 0 0 0 1 .2 1.54 1.54 0 0 0 .39-.46c0-1.17-3.91-4.66-4.94-4.56-.28 0-.5.1-.58.4a.86.86 0 0 0 .43 1.01z" fill="#a46c0a"/><path d="M133.89 102.26a26.12 26.12 0 0 1 5.33 1.19c.65.07 1.18.17 1.33-.43s-.33-.81-.75-1a30.43 30.43 0 0 0-5.51-1.27.8.8 0 0 0-1 .7.6.6 0 0 0 .6.81z" fill="#a46c0a"/><path d="M147.48 96.08c0 .51-.06 1.14.76 1 .67-.09.75-.61.74-1.11a24.35 24.35 0 0 1-.32-4.53c0-.63 0-1.48-.94-1.41s-.61 1-.59 1.54c.05 1.53.23 3.02.35 4.51z" fill="#a46c0a"/><path d="M110.36 93.62c.53-.2.9-.8 1.34-1.22a5.14 5.14 0 0 0-1.76-.14c-6.58 1.91-9.9 7-9 13.81a4.8 4.8 0 0 0 5.26 4.17 28.81 28.81 0 0 0 3.62-.87 18.4 18.4 0 0 1-.88 2 12 12 0 0 1-6.74 5.09 8.94 8.94 0 0 0-1.64 1l.26.5a6.18 6.18 0 0 0 1.13.07c4.37-.52 9.12-5.05 9.56-9.47a10.79 10.79 0 0 0-.65-5.46c-1.38-2.9-4.33-3.22-8.49-1.22 1.1-4.61 4.13-6.82 7.99-8.26zm-3.9 8.34a3.72 3.72 0 0 1 3.57 3.27c0 1.75-2.17 3.67-4.19 3.64a3.61 3.61 0 0 1-3.43-3.38c-.01-1.73 2.02-3.49 4.05-3.49z" fill="#a46c0a"/><path d="M60.36 101.29a3.07 3.07 0 0 1 .78-1.93 11.93 11.93 0 0 1 7-5c.57-.18 1.29-.29 1.09-1.06s-.95-.59-1.5-.44c-7.22 2-12.14 9.48-8.22 16.89a7.6 7.6 0 0 1-3.76-2 13.08 13.08 0 0 1-3.64-6.15c-.18-.59-.39-1-1-.85s-.63.6-.48 1.11c1.36 4.46 3.76 8 8.44 9.49 2.5.79 5 .31 7.79 0a11.06 11.06 0 0 1-6.25 5.57c-.67.26-1.34.49-2 .75a.69.69 0 0 0-.46.78c.05.42.41.5.73.47a7 7 0 0 0 1.53-.28c5.59-1.81 10.89-7.33 8-15.62a12.05 12.05 0 0 1 6.85 7.63c.2.58.18 1.46 1.17 1.12s.36-1.05.2-1.61c-2.28-7.33-9.02-11-16.27-8.87zm3.76 8.83a4.78 4.78 0 0 1-4.5-4.34c-.09-1.93 1.61-3.49 3.83-3.54 2.47 0 4.17 1.66 4.28 4.29a3.5 3.5 0 0 1-3.61 3.59z" fill="#a46c0a"/><path d="M74 97.41a.75.75 0 0 0-1.18.56c-.13.59.36.69.84.8a5 5 0 0 1 3.63 2.33c.29.53.74.76 1.28.36s.2-.92-.08-1.33A5.79 5.79 0 0 0 74 97.41z" fill="#a46c0a"/><path d="M55.43 97.27c.62.13 1-.16 1-.82a4.74 4.74 0 0 1 1.69-2.93 1.86 1.86 0 0 1 .71-.39c-.07-1.3-.52-1.55-1.17-1.15a6.19 6.19 0 0 0-2.81 4.22c-.09.47.02.96.58 1.07z" fill="#a46c0a"/><path d="M71.64 112.72c-.59-.07-.89.41-.92 1a8.41 8.41 0 0 1-1.36 3.42c-.24.47-.64.93.08 1.3s.94 0 1.24-.54a9.56 9.56 0 0 0 1.53-3.57c.04-.88.1-1.53-.57-1.61z" fill="#a46c0a"/><path d="M54.57 112.95a4.71 4.71 0 0 1-3.19-.64c-.52-.38-.86-.14-1.13.28s0 .74.35 1a4.1 4.1 0 0 0 3 .9h.9c.6-.06 1.48.24 1.51-.75s-.79-.82-1.44-.79z" fill="#a46c0a"/><path d="M23.14 97.64a4.38 4.38 0 0 1-.29-3.94c.25-.52.75-1.05 0-1.47-.63-.34-1 .25-1.25.64-3.6 4.83-6.28 10.04-6.6 15.87.05 1 .06 1.64.12 2.29a7.35 7.35 0 0 0 6.84 6.59c4.54.17 7.62-2 8.34-6 .39-2.17-.73-3.91-1.81-5.61-1.78-2.78-3.94-5.34-5.35-8.37zm4.75 16.07A6.69 6.69 0 0 1 21 116a5.84 5.84 0 0 1-4.39-5.16c-.62-4.22 1-7.89 2.72-11.54a8.3 8.3 0 0 1 1.71-2.76c1.35 4.05 4.11 7.12 6.28 10.56 1.35 2.11 2.32 4.23.56 6.6z" fill="#a46c0a"/><path d="M19.67 108.56c-1.27.12-1.52 1-1.5 2.09 0 1.73 1.64 3.51 3.1 3.41A1.75 1.75 0 0 0 23 112c0-1.64-1.89-3.58-3.33-3.44zm1.44 3.88c-1.07-.23-1.31-1.12-1.57-2.06.23-.13.3-.2.33-.18.9.33 1.6.84 1.6 1.91 0 .11-.27.35-.37.33z" fill="#a46c0a"/><path d="M26.81 53.79a8.48 8.48 0 0 0 3.07.48 9 9 0 0 0 3.26-.51c.52-.21 1.26-.39 1-1.15s-1-.51-1.52-.31a8.17 8.17 0 0 1-5.69-.05 9.3 9.3 0 0 0-6.49.27 7.23 7.23 0 0 1-5.88-.09 7.15 7.15 0 0 0-5-.28c-.59.17-1 .32-.83 1s.59.56 1.09.44a7.9 7.9 0 0 1 4.95.52 7.59 7.59 0 0 0 5.9-.1 8.45 8.45 0 0 1 6.14-.22z" fill="#a46c0a"/><path d="M13.49 49c1.29.46 2.66 1.21 4 .77a19.08 19.08 0 0 1 10.7-.26 5.35 5.35 0 0 0 .76 0 16.86 16.86 0 0 0 1.78-.12c.56-.09 1.29-.23 1.14-1s-.82-.66-1.3-.51c-2.13.67-4.12 0-6.12-.59a5.22 5.22 0 0 0-2.89 0c-2.5.67-5 1.67-7.58.27A.67.67 0 0 0 13 48c-.29.53.05.88.49 1z" fill="#a46c0a"/><path d="M27.33 73.16a41.81 41.81 0 0 1-1.24-9.26c0-.74.31-2-1-1.9-1 .09-.37 1.18-.53 1.81a6.67 6.67 0 0 0 0 .9c.35 3.83.76 8.16 2.39 12.25.22.55.36 1.47 1.24 1.17s.41-1.1.24-1.68c-.35-1.1-.83-2.17-1.1-3.29z" fill="#a46c0a"/><path d="M19 61.92c-1.22-.06-.74 1.12-.79 1.8C18 68 17.57 72.18 16 76.2c-.23.6-.9 1.46.12 1.81s1.06-.71 1.31-1.33c1.63-4.13 1.92-8.49 2.27-12.91-.05-.64.5-1.77-.7-1.85z" fill="#a46c0a"/><path d="M36.07 69.13c-.88 1-1.71.32-2.41-.18a5.55 5.55 0 0 0-2.22-1.14 2.07 2.07 0 0 0-2.56 2.24c.09.62.11 1.58 1.19 1.49s.38-.93.38-1.47c0-1.09.6-1 1.29-.59s1.52 1 2.33 1.39a2.27 2.27 0 0 0 3-.6c.28-.35.58-.71.17-1.2s-.83-.32-1.17.06z" fill="#a46c0a"/><path d="M14.28 68.07c-1.37-.77-2.49-.05-3.58.7-.73.5-1.42 1.33-2.41.51-.42-.34-.84-.85-1.29-.23s-.1 1.25.51 1.65a2.39 2.39 0 0 0 2.59.19c.74-.4 1.42-.92 2.16-1.31.36-.19.73-.59 1.25-.21s.32.76 0 1.16c-.1.39-.21.82.27 1a.88.88 0 0 0 1.22-.47c.65-1.2.56-2.27-.72-2.99z" fill="#a46c0a"/><path d="M14.81 63.52c-1.54-1.4-3.28-1.38-5.11-.72-1 .37-2.1.82-3.21.29-.52-.24-1-.49-1.25.23s.19 1 .71 1.23a4.11 4.11 0 0 0 3.41-.07c1.62-.67 3.23-1 4.71.35.62.58 1 .28 1.36-.37-.01-.46-.34-.68-.62-.94z" fill="#a46c0a"/><path d="M37.7 63a3 3 0 0 1-2.79-.12 4.71 4.71 0 0 0-2.22-.5 4.41 4.41 0 0 0-3.59 1.25.85.85 0 0 0-.1 1.27.62.62 0 0 0 1 0c1.5-1.53 3.15-1.07 4.82-.4a4.13 4.13 0 0 0 3.39 0c.49-.23.95-.6.76-1.18s-.73-.57-1.27-.32z" fill="#a46c0a"/><path d="M31.11 57.57c-.63-.23-1.64-1.08-2 .06S30 58.82 30.83 59c.38.07.76.19 1.14.29 2-.47 4-1.42 6.09-.54.21.08.6-.22.66-.59s-.11-.7-.57-.86a6.43 6.43 0 0 0-4.38-.05 3.72 3.72 0 0 1-2.66.32z" fill="#a46c0a"/><path d="M6.69 58.59a5.59 5.59 0 0 1 4 .33 4.58 4.58 0 0 0 3.43-.1c.49-.19 1.26-.37 1-1.19s-.88-.6-1.44-.29a3.11 3.11 0 0 1-3 0 6.33 6.33 0 0 0-2.43-.46 14.36 14.36 0 0 0-1.78.28c-.48.13-1.11.36-1 1s.63.62 1.22.43z" fill="#a46c0a"/><path d="M26.54 61.34c.23.39.5.82 1.05.54s.6-.74.26-1.29c-.62-1-1.13-2-1.79-3-.36-.52-.91-1.08-1.55-.23a12.93 12.93 0 0 0-1.79 3.2c-.17.44-.12.79.27 1a.74.74 0 0 0 1.12-.38l.93-1.95a5.08 5.08 0 0 1 1.5 2.11z" fill="#a46c0a"/><path d="M19.58 57.26c-.39-.46-.79-.33-1.15.07a12.4 12.4 0 0 0-2.11 3.47.77.77 0 0 0 .44 1.13c.49.17.72-.21.91-.53.42-.7.8-1.42 1.35-2.4.47.94.83 1.59 1.14 2.27a.71.71 0 0 0 1 .37c.36-.11.39-.49.34-.81a7.23 7.23 0 0 0-1.92-3.57z" fill="#a46c0a"/><path d="M68.21 50.42c-1.9-1.08-3.71-.36-5.38.46s-3.11 1.91-4.66 2.87a11.54 11.54 0 0 1-6.43 2c-.61 0-1.26 0-1.27-.86s.77-.74 1.3-.71c2.51.14 4.51-1 6.47-2.37 2.31-1.59 4.65-3.16 7.6-3.31a6.76 6.76 0 0 1 4.73 1.38c.37.29.77.57.64 1.1s-.54.47-.94.53c-.79.13-1.6.34-1.62 1.37s.75 1.42 1.59 1.72c2.07.72 4-.27 6-.53.45-.06.88-.23 1.33-.29s.81 0 .92.51-.26.73-.63.84c-2.57.78-5.19 1.47-7.89 1s-3.52-2.96-1.76-5.71z" fill="#a46c0a"/><path d="M57.94 66.37c-.8 3.56.31 5.62 3.36 6.58.46.14 1.17 0 1.09.79s-.85.62-1.38.59c-2.86-.15-5.26-3.39-4.94-6.67.05-.57.21-1.13.36-1.86a11.25 11.25 0 0 0-1.16.44.71.71 0 0 1-1-.31c-.39-.55.08-.83.43-1.1 1.93-1.51 3.22-1.32 4.63.65.33.46 1 1 .49 1.5-.66.69-1.25.02-1.88-.61z" fill="#a46c0a"/><path d="M68.9 60.41c.46-.54.2-1.73 1.27-1.49s.43 1.1.43 1.68a2.91 2.91 0 0 1-3.87 2.65.64.64 0 0 1-.5-.7c0-1 .9-.72 1.41-1-2.29-2.36-5.19-2.46-7.56-.26-.49.46-1 1.39-1.7.54s.22-1.3.7-1.76c2.54-2.49 6.57-2.38 9.82.34z" fill="#a46c0a"/><path d="M67.05 73.77c0 .8 1.45.67 1 1.68a.73.73 0 0 1-1 .38c-1-.42-2.11-1-2.35-2.15a4.89 4.89 0 0 1 .77-3 .64.64 0 0 1 .83-.34c.92.34.2 1.14.43 1.69 3-.65 4.25-2.63 3.85-6-.07-.61-.34-1.24.45-1.4s.88.67 1 1.15c.85 2.5-.74 6-3.26 7.3-.54.28-1.15.46-1.72.69z" fill="#a46c0a"/><path d="M119.51 53.47c-2.48.32-2.48.31-2.5-2.17v-1.18c0-.39-.28-.92-.78-.92s-.79.38-.79.92v3.38a5.06 5.06 0 0 1-2.57-.92c-.49-.27-.87-.48-1.42-.08-2.78 2-5.63 1.57-8.46.14a1.9 1.9 0 0 0-2 0 9.42 9.42 0 0 1-6.57 1 .81.81 0 0 0-1 .56c-.17.68.46.77 1 .89a10.26 10.26 0 0 0 6.47-.76 2.25 2.25 0 0 1 2 0 9.28 9.28 0 0 0 8.63 0c1.56-.82 4.24 1.13 4.27 2.93 0 2.48 0 5 .28 7.45a19 19 0 0 1-.17 4.89c-.11.71-.45.86-1 .83s-.67-.51-.67-1v-1.18c0-.4-.14-.64-.54-.68s-.75 0-.84.35a3.77 3.77 0 0 0 .16 3c.77 1.32 2 1.07 3.15.92s1.25-1.14 1.24-2.12c0-3.73.08-7.47-.06-11.2-.06-1.79-.4-3.47 2.2-3.45a1.17 1.17 0 0 0 .55-.19.74.74 0 0 0 .37-1c-.16-.41-.46-.46-.95-.41z" fill="#a46c0a"/><path d="M105 61.69a11.57 11.57 0 0 0-6.9 2.38c-1.59 1.24-2.65 1.48-3.44-.62-.25-.67-.7-.79-1.21-.5a.71.71 0 0 0-.09 1.18c1.84 1.8 1.35 3.37-.36 4.87a.7.7 0 0 0 .09 1.17c.38.31.72.13 1-.2a11.47 11.47 0 0 0 1-1.18c.72-1.12 1.4-1.06 2.45-.29a13.34 13.34 0 0 0 8.48 2.73 4.38 4.38 0 0 0 4.7-4.54c.05-3-2.3-5.09-5.72-5zm.08 8.15a13.45 13.45 0 0 1-6.82-2.67c-.76-.54-.69-1 0-1.47a11.68 11.68 0 0 1 7.44-2.45 3.48 3.48 0 0 1 3.51 3.43c0 1.93-1.74 3.32-4.12 3.16z" fill="#a46c0a"/><path d="M161.61 71.45a18.21 18.21 0 0 0-6.34-3.4c-2.3-.66-3.44-3.63-6.36-2.74.72-2.72.71-2.67 3.24-2.16a8.67 8.67 0 0 0 4.65-.24c.57-.2 1.32-.27 1.14-1s-.94-.61-1.6-.38a8.17 8.17 0 0 1-5.34-.22c-.44-.14-1.05-.22-.74-.83.47-.94.24-2.34 1.95-2.52a2.45 2.45 0 0 0 2.33-2.68 3 3 0 0 0-2.36-3.17 3 3 0 0 0-3.63 1.18A2.65 2.65 0 0 0 149 57c1.3 1.12.06 2-.17 2.92-.3 1.19-1.26.35-1.75.12a1.3 1.3 0 0 0-1.84.4 7.29 7.29 0 0 1-2.5 2.17c-.34.15-.66.49-.39 1a.8.8 0 0 0 1.16.35A7.78 7.78 0 0 0 146 62c.56-.66 1.25-.36 1.79-.11s.25.86.13 1.37c-.44 1.82-1.21 3.29-3.43 3-1.23-.18-2.37 1.61-3.38.45-.84-1-.44-2.52-.43-3.83a7.63 7.63 0 0 1 .21-1.74c1.56-6.26 5-10.82 11.51-12.55.46-.12 1.18-.19 1.11-.88s-.64-.76-1.15-.92a12.33 12.33 0 0 0-3.68-.49c-5.95 0-10.51 2.63-13.9 7.4-.35.49-.88 1.21 0 1.66.68.35.92-.32 1.28-.83a15.33 15.33 0 0 1 8.92-6.3 7.91 7.91 0 0 1 4.31-.33l-1.42.85c-6.39 3.76-10 11.71-8.32 18.41C141 73 149 78.26 155.4 77.45c.48-.06 1-.08 1-.7s-.52-.71-1-.78-1.17-.1-1.76-.13a1.59 1.59 0 0 1-1.38-.69 19.66 19.66 0 0 0 9-1.58c1.3-.57 1.46-1.23.35-2.12zM149.56 55c-.1-1 .65-1.44 1.42-1.56a1.89 1.89 0 0 1 2.12 1.81c.07.88-.69 1.38-1.6 1.33a1.82 1.82 0 0 1-1.94-1.58zm-4.78 16.91c-1.28-.65-3.05-1.62-2.7-2.94s2.32-1.31 3.8-1.31a1.36 1.36 0 0 1-.12.4c-.41.52-1.91.4-1.17 1.53s1.49.08 2.11-.35.95-1.16 1.56-1.45c1.17-.56 3 .75 3 2.06 0 .68-.2 1.69.83 1.64s.7-1.06.75-1.74c0-.26 0-.52.06-.9a28 28 0 0 1 7.46 3.61c-5.58 1.77-10.64 1.9-15.58-.6z" fill="#a46c0a"/><path d="M202.68 68.45c-2 .39-4 .55-6 .8s-1.88-.26-1.18-1.72a91.36 91.36 0 0 0 5.21-12.4c.22-.69.39-1.42-.43-1.62s-.8.58-1 1.17c-1.37 4.14-3.38 8-5 12.07-.94 2.39-2.24 3.25-4.62 2.79a4.91 4.91 0 0 1-.49-.15 7.45 7.45 0 0 0-.1-4.86c-.92-2.1-.43-4 .45-6a1.34 1.34 0 0 1 2-.85 14.3 14.3 0 0 0 3.85 1.32c.45 0 1 .12 1.13-.48s-.36-.7-.8-.88c-.69-.28-1.51-.26-2.11-.92 1.35-.56 2.66-1.13 4-1.66.51-.2 1.1-.4.84-1s-.83-.54-1.47-.29c-1.86.7-3.64 1.68-5.86 1.84.8-1.89 1.38-3.45 3.68-3.71 1.7-.19 2.34-2 1.74-3.73a3.43 3.43 0 0 0-4.39-1.84c-1.64.6-2.72 2.48-1.7 3.75 1.34 1.66.29 2.71-.28 4-.75 1.66-1.54 3.31-2.34 4.95a6.88 6.88 0 0 0-.26 5.69 7.91 7.91 0 0 1 .4 3.08c0 1.44-.55 2.18-2.14 2-2.27-.31-4.6.2-6.85-.42-.6-.16-1.14 0-1.22.63s.44.85 1 .89c1.76.12 3.52.33 5.28.37 2.64.06 5.28 0 8.13 0-.83 1.87-1.59 3.45-2.23 5.07-.28.71-1 1.58 0 2.27.86.56 1.78 1.34 2.87.79s1.09-1.59.89-2.59a14.62 14.62 0 0 1-.3-3.91c.08-1.25.54-2 2-2a34.28 34.28 0 0 0 7.4-.82c.68-.13 1.69-.09 1.58-1-.06-1.29-1.11-.74-1.68-.63zm-9.5-20.95a1.81 1.81 0 0 1 2 1.71c.13 1-.65 1.31-1.42 1.45-1.16-.13-2.06-.59-2.12-1.74-.03-.84.64-1.36 1.54-1.42zm-1 29.7c0 .32 0 .68-.54.56-.23-.2-.75-.28-.4-.82.16-.25.1-.72.56-.66s.39.59.42.93z" fill="#a46c0a"/><path d="M51.36 20.54c-1.42-.23-2.63-.66-3-2.15a2.3 2.3 0 0 1 .64-2.51 2.33 2.33 0 0 1 2.57-.39c.43.19.66.39.59.85s-.36.78-.78.64c-.7-.22-1.31-.35-1.56.54a1 1 0 0 0 .56 1.14 1.65 1.65 0 0 0 2 0C53.48 17.5 55 17 56.3 16.21a34.63 34.63 0 0 1-2.16-2.83A2.11 2.11 0 0 1 55.32 10 40.85 40.85 0 0 1 75 8.09a8.93 8.93 0 0 1 2 .65A6.23 6.23 0 0 1 81.15 14c.21 2.46-1.45 4.14-3.35 5.41-2.53 1.68-5.44 2.08-8.58 2A5.64 5.64 0 0 1 67.71 24a3.93 3.93 0 0 0-.65 3.15c.08.73.41 1.32 1.17 1.27s.83-.68.79-1.33a9.08 9.08 0 0 1 .07-1.18c1.18-.31 1.45.38 1.51 1.23a2.36 2.36 0 0 1-1.8 2.68c-1.92.58-2.7-.69-3.37-2.15-1.59.18-3.28.74-4.25-1.18a2.37 2.37 0 0 1 1.34-3.34c.56-.19 1.24-.34 1.52.38s-.17 1-.78 1.07a1.08 1.08 0 0 0-.86.7c1 1.36 2.4 1.5 2.9.12a33.85 33.85 0 0 1 2.36-4.15c-3.42-.85-6.83-1.27-9.66-3.44-1.12-.86-2.61.55-3.72 1.34A3 3 0 0 0 53 22.06c.06.4.45.61.9.61a.88.88 0 0 0 1-.77c.13-.75.6-1.1 1.24-.77s.33 1 .12 1.54a2.52 2.52 0 0 1-4.81-.34 7.1 7.1 0 0 1-.09-1.79zm16.8-11.33a40.5 40.5 0 0 0-12.87 2.36c1.19 4.53 8.32 8.56 13.79 7.94-3.28-4.88-2.47-6.95-.92-10.3zm11.52 5.13a5.3 5.3 0 0 0-2.85-4 11.56 11.56 0 0 0-5.07-1.17 2.43 2.43 0 0 0-2.42 1.25 6.1 6.1 0 0 0 .85 7.67C72.09 20 74.44 20 77.06 18a5.51 5.51 0 0 0 2.63-3.66z" fill="#a46c0a"/><path d="M73 17.18A2 2 0 0 1 70.9 15a3.15 3.15 0 0 1 3-3.38 3.1 3.1 0 0 1 3.1 2.93c0 1.52-1.43 2.61-4 2.63zm.64-1.57c.69-.13 1.76 0 1.75-1.18 0-.8-.63-1.21-1.49-1.2-1 0-1.35.75-1.5 1.51s.55.85 1.24.87z" fill="#a46c0a"/><path d="M37.23 14.92c-.7-4.93-1.42-5.68-6.35-5.63S21 10 17.55 14.45c-1.35 1.76-5.11 2.11-7.1 1.19A2.66 2.66 0 0 1 8.82 13c0-1.2.94-1.64 1.88-2 .45-.16 1.23-.39 1.35.15.47 2 1.55.52 2.37.51.54 0 1-.35.9-.8-.2-1-1.18-1.06-2-1.27a6.87 6.87 0 0 0-1.13-.27c-3.16-.26-5.41 2.09-4.75 4.85a6.08 6.08 0 0 0 1.72 2.77c-2.12 1.79-2.66 3.95-1.44 5.62s4.58 2.27 6.45 1.11c.43-.27 1-.55.88-1.16-.26-.93-1.34-.62-1.94-1.08-.43-.33-1-.27-1.12.24-.24 1.8-1.29 1-2.06.65a1.9 1.9 0 0 1-1.17-2.68c1-2.34 6.19-3.05 7.74-1 2.16 2.81 4.68 5.1 8.25 5.92 2.64.6 5.33.43 8 .56a3.38 3.38 0 0 0 3.69-2.49 14.88 14.88 0 0 0 .79-7.71zm-19.87 2.14c3.58-5.3 8.73-6.91 15-6a16.06 16.06 0 0 0 .28 12.31c-6.43.7-11.92-.59-15.28-6.31zm17.26 5.88c-2.36-2.57-2.5-8.84-.11-11.88 1.76 4.12 2.13 7.94.1 11.88z" fill="#a46c0a"/><path d="M26.89 12.43a2.85 2.85 0 0 0-3 2.42c-.07 1.43 1.5 2.81 3.17 2.79A2.94 2.94 0 0 0 29.94 15c.06-1.34-1.39-2.57-3.05-2.57zm.16 3.76A1.52 1.52 0 0 1 25.44 15c-.15-.86.66-1 1.31-1.07a1.46 1.46 0 0 1 1.67 1 1.42 1.42 0 0 1-1.37 1.25z" fill="#a46c0a"/><path d="M197.25 3.44a14.82 14.82 0 0 0-12.48.44 1.74 1.74 0 0 0-1.2 1.63c.09 6.05-.54 12.27 5.14 16.68 1.76 1.36 2.12 5.09 1.2 7.1a2.66 2.66 0 0 1-2.65 1.64c-1.2 0-1.69-.91-2-1.87-.13-.43-.65-1.17.29-1.38 1.35-.29.77-1.14.52-1.79s-.08-1.51-1-1.47-1 .91-1.19 1.58a8.19 8.19 0 0 0-.31 1.13c-.32 1.88.65 4.24 2.13 4.92a4.24 4.24 0 0 0 4.86-.94l.61-.57a4 4 0 0 0 4.83 1.92c1.54-.42 2.58-2.32 2.57-4.44 0-1.46-.26-2.79-2-3.52l-1 2.5c.24 1.23 1.31.38 1.39 1.29a2.78 2.78 0 0 1-1 2.43 1.82 1.82 0 0 1-2.18.21c-2.25-1.16-2.73-6.24-.71-7.8 3.33-2.57 5.63-5.7 6.09-10.06.22-2.1 0-4.2.23-6.27a3 3 0 0 0-2.14-3.36zm-.11 1.81c-2.72 2.21-8.42 2.36-11.69.21a11.53 11.53 0 0 1 11.69-.21zm-5.7 17.2c-5.49-3.65-6.92-8.87-6.16-15.06a15.81 15.81 0 0 0 12.2-.22c.91 6.6-.21 11.35-6.04 15.28z" fill="#a46c0a"/><path d="M189.2 9.81a2.9 2.9 0 0 0-2.5 3 2.84 2.84 0 0 0 2.55 3.11 3.1 3.1 0 0 0 2.67-3.1 2.93 2.93 0 0 0-2.72-3.01zm-.13 4.71c-1-.91-1.19-1.81-.43-2.8.51-.66 1.12-.36 1.46.15.8 1.13.16 1.91-1.03 2.65z" fill="#a46c0a"/><path d="M120.54 14.57A17.85 17.85 0 0 0 106 10.16a6 6 0 0 0-5.45 4.43c-.47 1.92-1.28 2.63-2.86 2.18a25.82 25.82 0 0 1-2.63 0 2.56 2.56 0 0 1-2.26-2.57 1.85 1.85 0 0 1 1.46-2.05c.54-.14 1.32-.9 1.72 0 1.07 2.37 2.1.11 3-.07.6-.12.15-.85-.35-1.14a6.18 6.18 0 0 0-3.82-.47c-2.84.27-4.51 2.91-3.07 5.36 1 1.65 1.1 2.63-.08 4.2-.87 1.16-.48 2.74.69 3.91 1.44 1.43 3.21 1.35 5 1.08.85-.13 2-.47 1.93-1.6s-1.33-.74-2-1.07-1.19-.12-1.1.8c0 .33 0 .74-.49.61-1-.27-2.1-.31-2.64-1.42a2.09 2.09 0 0 1 .65-2.61c1.7-1.63 3.88-1.29 5.94-1.37.56 0 .43.52.48.88a6.24 6.24 0 0 0 5.17 5.67 17.17 17.17 0 0 0 15.3-4c2.41-2.05 2.31-4.24-.05-6.34zm-16 8.44c-2.25-.92-3.35-3.38-3-6.38s2-4.61 4.63-5a14.58 14.58 0 0 1 6.87.6 26 26 0 0 0-7.06 10.42c-.33 1.21-.98.55-1.41.35zm14.81-2.92a16.83 16.83 0 0 1-7.6 3.37c-.9.18-1.81.29-2.71.43-1.51.15-1.91-.31-1.21-1.77a27.05 27.05 0 0 1 6-8.39 1.77 1.77 0 0 1 2.41-.3 15.51 15.51 0 0 1 3.35 2.35c1.54 1.52 1.5 2.89-.21 4.31z" fill="#a46c0a"/><path d="M115.36 16.4a1 1 0 0 0-1.11 1.09 1.11 1.11 0 0 0 1.17 1.26 1.26 1.26 0 0 0 1.4-1 1.37 1.37 0 0 0-1.46-1.35z" fill="#a46c0a"/><path d="M155.23 8.64a2.17 2.17 0 0 0-1.38-1.75 7.7 7.7 0 0 0-2.8-.78 4.26 4.26 0 0 1-2-.25c-.08-.79-.11-1.52-.24-2.22a.69.69 0 0 0-.85-.61.73.73 0 0 0-.56.72v2.37a9.3 9.3 0 0 0-4.2.88 2.73 2.73 0 0 0-1.83 2.32 46.28 46.28 0 0 0 .74 15.77c.71 3.28 2.16 5.57 5.93 5.46.34 1-.12 2.14 1 2.77 1.31-.56.26-1.92.88-2.69 3.38-.43 3.59-.66 4.89-4.1 0-.12 0-.27.05-.39a29.94 29.94 0 0 0 .89-6.18 45.89 45.89 0 0 0-.52-11.32zm-8-.91c.31.49.3 1.29 1 1.36 1-.35.38-1.23 1.07-1.66a10.54 10.54 0 0 1 3.82.78c-2.13 2.37-6.54 2.7-9.73.75 1.14-1.07 1.61-1.21 3.85-1.23zM154 22.6a14.39 14.39 0 0 1-1.11 4.72 2.19 2.19 0 0 1-2.32 1.68h-2.94a3.34 3.34 0 0 1-3.51-2.49 28.9 28.9 0 0 1-1.28-6.21c3.8.61 7.54.89 11.29-.31.54.89-.13 1.75-.13 2.61zm.37-4.39a15.11 15.11 0 0 1-7.59 1 13 13 0 0 1-2.88-.43 1.73 1.73 0 0 1-1.35-1.78 62.36 62.36 0 0 1 .16-6.37c3.78 1.5 7.47 1.67 11.17-.64a35.3 35.3 0 0 1 .5 8.22z" fill="#a46c0a"/></svg>