<svg version="1.1" id="Layer_1" xmlns="http://www.w3.org/2000/svg" xmlns:xlink="http://www.w3.org/1999/xlink" x="0px" y="0px" viewBox="0 0 210 125" style="enable-background:new 0 0 210 125" xml:space="preserve"><style type="text/css">.st0{clip-path:url(#SVGID_2_)}.st5{fill:#864f22}.st6{fill:#ebd261}.st8{fill:#38454f}.st9{fill:#546a79}.st10{opacity:.3;clip-path:url(#SVGID_2_)}.st12{fill:#1a171b}</style><title>Artboard 5</title><g><g><defs><rect id="SVGID_1_" y="0" width="210" height="125"/></defs><clipPath id="SVGID_2_"><use xlink:href="#SVGID_1_" style="overflow:visible"/></clipPath><g id="_Группа_обтравки_3" class="st0"><g><g id="_Группа_обтравки_4"><defs><rect id="SVGID_3_" x="-14.8" y="-25" width="235.8" height="178.4"/></defs><clipPath id="SVGID_4_"><use xlink:href="#SVGID_3_" style="overflow:visible"/></clipPath><g style="clip-path:url(#SVGID_4_)"><g id="_Группа_13"><path id="_Контур_17" d="M240.5-25h-275c-8.4 0-15.3 7.3-15.3 16.3v150.3c0 8.9 6.9 16.3 15.3 16.3h275c8.4 0 15.4-7.3 15.4-16.3V-8.7c0-9-7-16.3-15.4-16.3z" style="fill:#523202"/><path id="_Контур_18" d="M255.9-12.6v150.3c.1 5.6-2.8 10.9-7.5 14-.5.3-1.1.6-1.7.9-1.9.9-4 1.4-6.1 1.4H-36.1l-.5-.1-.7-.1-.4-.1-.4-.1c-.3-.1-.6-.2-.9-.2l-.6-.2-.6-.2-.3-.1c-.3-.1-.5-.2-.8-.4l-.3-.2-.2-.1-.2-.1-.3-.2-.6-.4-.6-.4c-.4-.3-.8-.6-1.1-1l-.3-.3-.2-.1c-.4-.4-.9-.9-1.2-1.4l-.3-.4c-.2-.2-.4-.5-.5-.8l-.3-.5-.3-.4-.3-.6c-.1-.2-.1-.2-.2-.3s-.2-.4-.3-.6l-.2-.4c-.2-.4-.3-.8-.4-1.2 0-.1-.1-.3-.1-.4s-.1-.3-.1-.4l-.3-1.2c0-.2-.1-.5-.1-.7 0-.2 0-.4-.1-.6-.1-.7-.1-1.4-.1-2.1V-14.9c0-.1 0-.4.1-.6.1-.6.2-1.2.4-1.8 0-.1.1-.2.1-.3v-.1c.1-.2.2-.5.2-.7s.1-.4.2-.6.2-.5.3-.8c1.5-3.2 3.9-5.8 7-7.5.3-.1.5-.3.8-.4s.7-.3 1.1-.5l.3-.1.6-.2.3-.1.3-.1.3-.1.7-.1.5-.1h.1l.6-.1h276.4c.7 0 1.4 0 2.1.1.8.1 1.5.3 2.2.5 4.7 1.6 8.5 5.3 10.1 10l.1.2c0 .1.1.3.1.4s.2.6.2.9.1.3.1.5.1.3.1.5v.3c0 .1.1.4.1.6v1.6c.4.5.4.7.4.9z" style="fill:#945c23"/><g id="_Группа_14"><path id="_Контур_19" d="M255.9 67.4V108l-4-.4c-10.3-.9-20.9-1.8-31.3-.9-2 .2-3.9.4-5.9.7-5.1.7-10 1.7-15.2 2.2-3.8.4-7.7.6-11.5.6-7.3.1-14.7-.1-22 .1-1.7.1-3.4.1-5.1.2-6.6.4-13.1 1.2-19.6 2-15.2 2-30.3 4.8-46.1 5.2-31.5.9-59.7-7-88.8-13.6-5.2-1.2-10.5-2.3-15.8-3.4-11.7-2.4-23.6-4-35.6-4.8-1.6-.1-3.2-.3-4.8-.6v-5.1l2.9-.9 1.8-.6 27.4-8.6c13.1-4.1 30.2-3.2 44.6-5.7 4.4-.8 8.5-1.8 13-2.5 6.3-.8 12.6-1.1 18.9-1l28-.2 21.5-.2 39-.3c4.6-.2 9.3.1 13.8.7 4.2.8 7.7 2.3 11.9 3.2 13.1 2.9 27.8-.9 41.6-3.1l.5-.1c5.5-.9 11.2-1.5 16.9-1.9h.1c5-.4 10-.7 15-1l8.8-.6z" style="fill:#a35e26"/><path id="_Контур_20" class="st5" d="M255.9 5v4.1c-14.4.2-29.2 1.7-42.3-.6-5.8-1-10.8-2.7-16.4-3.9-8.9-1.8-19.1-2.2-28.9-2.7-45.1-2.5-88.1-9.2-132.1-14-19.7-2.2-40-4-60.4-3.5-9.2.2-17.5 1-25.5 2v-1.3c0-.1 0-.4.1-.6s.1-.4.1-.6c.1-.4.2-.8.3-1.1 0-.1.1-.2.1-.3v-.1c.1-.2.1-.5.2-.7.1-.2.1-.4.2-.6l.1-.2c25.5-1.4 52.1.7 77.7 2.8 33 2.7 66.2 5.4 97.8 10.1 12.2 1.8 24.4 3.9 37.3 4.4 11.1.5 22.9-.3 33.2 1.5 8.1 1.4 14.8 4.3 23.5 4.7 4.6.2 9.2-.4 13.9-.6 7.1-.1 14.1.3 21.1 1.2z"/><path id="_Контур_21" class="st5" d="M255.9 14.7v2.1c-3 .1-6 .1-9 .1-20.2.1-39.9-2.2-59.3-4.6C144.1 7.1 101.7.6 56.5-.8 21.1-2-14.6-3.2-49.8-2v-2.1c31.5-1.3 63.5-.6 95 .8C70.6-2.2 95.9-.7 120.6 2c11.1 1.2 22 2.6 32.9 4.1 14.7 1.9 27.2 4.8 42.4 5.7 18.6 1.1 37.3 2.5 56 2.9h4z"/><path id="_Контур_22" class="st5" d="M255.9 33.5v3.1c-12.1.2-24.2-.9-36.1-2l-68.5-6.3c-24.8-2.3-45.4-2.7-70.7-3.8-11.2-.5-22.7-.9-33.4.3-9.6 1.2-18.5 3.6-28.6 3.5-3.7 0-7.6-.4-11.2 0-4.6.5-7.7 2.2-11.3 3.4-12.2 4.2-29.4 3.5-46 3.9v-3.5c6.5.1 12.8.2 18.8-.8s10.7-2.8 16.3-4.1c12.5-2.9 27.9-2.7 41.9-4 15.7-1.5 27.7-3.5 44.4-3.2 24.7.3 49.2 1.8 73.3 3.8 35.5 3 73.8 11 110.6 9.7h.5z"/><path id="_Контур_23" class="st5" d="M255.9 22.1v3.4c-10.7 0-21.5.2-32.2.6-5.1.3-10.2.3-15.3-.2-23.1-2.8-45.4-7.8-69.1-10.3-26.7-2.8-53.9-4.5-81.1-5-5.7 0-11.4-.3-17.1-1.1-4.6-.7-8.6-2-13.1-2.5-5.4-.6-10.9 0-16.3.5l-61.5 6.1V9.1c9.5-.6 20.1.6 29.2-1.1 3.5-.7 6.7-1.7 10.3-2.1C1.1 4.8 24.8 1.5 35.5 4.2c2.5.6 4.7 1.6 7.3 2.2 7.2 1.6 15.7.3 23.7.4 8.5.2 16.7 2 25.2 1.7 3.1-.1 6-.5 9.1-.6 8.4-.2 15.4 2.1 23.5 2.6 6.6.4 12.2 0 18.8.8 13.1 1.6 22.4 4.5 34.1 7.2 2.9.5 5.8.7 8.7.8 11.7.6 21.6 4.6 33.2 4.9 8 .2 15.7-1.5 23.7-1.7 4.3-.2 8.6-.3 13.1-.4z"/><path id="_Контур_24" class="st5" d="M255.9 42.5v3c-10.9.5-21.7 1-32.6 1.7-15.8 1-31.6 2.4-47.4 3.5-24.6 1.7-49.8 2.8-74.3.8-20.9-1.8-40.9-5.8-62-6.4-14.2-.4-28.3.8-42.4 2-15.6 1.3-31.3 2.5-47 3.5v-5c3.5-.2 7.1-.4 10.7-.6 17.6-.9 35.2-1.7 52.8-2.2 18.2-.4 36.7-.4 54.3 1.9 14.2 1.8 27.8 5.1 42.5 5.6s29.5-1.7 44.3-1.8c9 0 18.2.8 27-.1 6.3-.6 12.1-2.1 18.3-3 8.7-1.3 17.8-1.6 26.9-2l28.9-.9z"/><path id="_Контур_25" class="st5" d="M255.9 64v3.7l-8.4.4c-5.1.3-10.2.5-15.3.9h-.1c-5.8.4-11.4 1-16.9 1.9l-.5.1-1.7.3c-10.6 2-20.9 5.3-32.3 4.8-9.3-.4-17.2-3.4-26.2-4.6-12.8-1.7-26.2.4-39.2 1.4-15 1.2-30.1 1-45.1-.5-6-.6-12-1.4-18-1.1-8.1.5-15.1 3-22.9 4.2-11.2 1.6-23.6.3-34.7 2.2-14.5 2.4-24.6 10-39.5 11-.6 0-1.2.1-1.8.1 0 .2-.1.3-.1.5.1 1.8 3.9 3.2 7.3 4.1 9.9 2.7 19.9 5.2 30.2 7.5 5.2 1.2 10.5 2.3 15.8 3.4 10.1 2.1 20.4 4 30.9 5.7 27.8 4.6 58.6 8 86.3 3.2 11.2-1.9 21.8-5.2 33.7-5.5 8.1-.2 16.1 1 24.3.8 15-.3 28.7-5 43.7-4.7 7.5.1 14.7 1.5 22.1 2.2 2.8.2 5.7.4 8.6.5v3.6c-4.6.1-9.2.1-13.7-.2-9.2-.5-18.4-2.2-27.5-2.5-3.2-.1-6.4 0-9.6.3-4.8.5-9.3 1.6-14.1 2.2-1 .1-2.1.2-3.1.3-8.9.8-18.1.2-27.2.4-3 0-6 .2-8.9.4-3.6.3-7.1.9-10.7 1.6-6.2 1.2-12.2 2.8-18.3 4.1-9.6 2.1-19.7 2.1-30 2.7-13 .8-26-.3-38.7-3.3-4.4-1.1-8.7-2.4-13.5-3.1-5.9-.8-12.1-.5-18.3-.7-11.3-.4-22.3-2.6-31-6.1-11.9-4.9-20.2-9.1-36.9-9.4h-4.3v-11c6.2-1.1 13-1.7 18.5-3.4 5-1.5 8.8-3.9 13.5-5.6 13.8-5.1 31.4-2.1 47.2-4.4 6.6-1 12.5-2.9 19.2-3.8 12.6-1.6 25.4 1 38.3 2.1 3.8.3 7.6.5 11.3.5 3.4 0 6.8-.3 10.2-.7 13.2-1.4 26.1-4.6 39.3-3.2 12.2 1.3 22.7 6.3 35.1 5.5 6.7-.4 12.4-2.5 18.8-3.4 16.3-2.3 31.1-.1 46.9-4.1 2.2-.6 4.7-1 7.3-1.3z"/><path id="_Контур_26" class="st5" d="M255.9 52.6v3.8l-48.6 4.1C191 62 174.4 63.3 158 62.4c-9-.5-18.1-1.8-27.1-1.3-4.2.2-8.3.8-12.5 1.2-21.5 1.9-43.4-2.9-65.1-1.8-9.4.5-18.5 2-27.4 3.5l-25 4.3c-5.1.9-10.2 1.8-15 2.9-4.4 1.1-8.6 2.5-13.3 3.2-6.7 1-13.8.6-20.7 1.2-.6 0-1.2.1-1.7.2V73c5.2-.1 10.5.2 15.4-.6 6.8-1 11.9-3.9 18.6-4.9 5.8-.9 12.1-.3 18-1s10.8-2.7 16-4.3c16.2-4.8 35.5-5.5 54-5.2 9.1.2 18.9.2 27.9.7 7.8.4 17.2 3 25 1.6 2.2-.4 4.2-1.1 6.4-1.5 8.5-1.3 16.3 3.3 25.2 3.5 7.9.1 14.9-3.3 22.6-2.8 4.3.3 8.6 1.8 12.7 1.2 1.6-.3 3.2-.8 4.8-1.4 8.9-2.7 18.9-.4 28.3-1.3 7.5-.8 13.4-3 21.2-3.7 3.2-.3 6.4-.5 9.6-.7z"/><path id="_Контур_27" class="st5" d="M255.9 124.3v5.4c-9 1.1-18 2-27.1 2.5-20.1 1-40.5-.4-60.5 1.1-11.9.9-23.4 2.8-35.3 3.4-34.8 1.8-67.7-7.3-102-10.8-27.4-2.8-57.8-2.3-80.8-9.9v-2.4c20.6 7.1 48 6.8 73.1 8.6 38.9 2.7 76.8 10.8 115.9 8.8 16.8-.9 33-3.7 49.9-3.9 11.6-.1 23.1.9 34.6.4 7.6-.3 15.1-1.3 22.6-2.1 3.1-.4 6.3-.8 9.6-1.1z"/><path id="_Контур_28" class="st5" d="M-2.1 90.3c-.6 1.1 3 1.8 6.2 2.4 21.2 3.5 43.4 6.4 66.4 8.7 24 2.4 50.6 4.2 74.5 1.7 9.7-1 18.8-2.7 29.1-2.8 7-.1 14 .5 21 .4 12.9-.1 24.8-2.6 37.7-2.5 6.5.1 12.7.8 19.1 1.1 1.3.1 2.7.1 4 .2v2c-2.8 0-5.6 0-8.4-.1-10.7-.4-21.4-1.8-32-1.2-4.2.2-8 .8-12.2 1.2-10.9.9-22.7 0-33.8.6-8.9.5-16.8 1.9-25.1 3s-17 1.1-25.9 1.4c-11.2.4-22.3-.2-33.4-1.7-3.8-.6-7.5-1.3-11.6-1.6-5.1-.4-10.5-.3-15.8-.4-9-.1-18-1.2-26.8-3.3-10.3-2.5-17.4-4.8-31.9-4.9-3 0-6.1 0-9-.2s-5.8-.8-6.6-1.6.7-1.8 2.9-2.4c6.4-1.9 17.2-1.9 25-3.3 4.3-.8 7.6-2 11.6-2.9 12-2.7 27.1-1.1 40.7-2.3 5.7-.5 10.8-1.5 16.6-2 14-1.1 28.4 1.5 42.8 1.4s28.5-2.9 42.7-2c10.5.7 19.6 3.3 30.3 2.9 5.8-.2 10.7-1.3 16.3-1.8 14.1-1.2 26.8 0 40.5-2.1 1-.2 2-.3 3-.4v1.7l-3.8.1c-10.1.3-20.3.6-29.8 1.7-9.2 1-18.1 2.8-27.9 2.5-8-.2-14.9-1.8-22.6-2.4-11-.9-22.6.2-33.9.8-13 .6-26 .5-39-.3-5.1-.3-10.3-.8-15.6-.6-7 .2-13 1.6-19.8 2.2-9.7.8-20.4.2-30 1.1-12.8 1.2-21.8 5.4-35.5 5.7z"/><path id="_Контур_29" class="st5" d="M33.5 91.1c-.5.5 2.7.9 5.6 1.1 19 1.7 39 3 59.7 4.2 21.6 1.2 45.5 2 67 .8 8.7-.5 16.9-1.3 26.1-1.4 6.3-.1 12.5.2 18.9.2 11.6-.1 22.3-1.2 33.9-1.2 3.8 0 7.4.2 11.1.3v1.1c-9-.2-17.9-.8-26.7-.5-3.8.1-7.2.4-10.9.5-9.8.4-20.4 0-30.4.3-8 .2-15.1.9-22.5 1.4s-15.2.5-23.3.7c-10.2.2-20.8-.1-30-.8-3.4-.3-6.7-.6-10.4-.8-4.6-.2-9.4-.1-14.2-.2-8 0-16-.6-24-1.5-9.3-1.2-15.7-2.3-28.7-2.3-2.7 0-5.5 0-8.1-.1s-5.2-.4-5.9-.8.6-.8 2.5-1.2c5.8-.9 15.4-.9 22.5-1.6 3.9-.4 6.8-1 10.5-1.4 10.8-1.3 24.3-.5 36.6-1.1 5.1-.2 9.7-.7 14.9-.9 12.6-.5 25.5.7 38.5.7s25.6-1.4 38.4-1c9.4.3 17.6 1.6 27.2 1.4 5.2-.1 9.6-.6 14.6-.8 10.3-.5 19.7-.2 29.5-.6v.4c-7 .1-14.1.3-20.7.7-8.2.5-16.2 1.3-25.1 1.2-7.2-.1-13.4-.8-20.3-1.1-9.9-.4-20.3.1-30.5.3-11.6.3-23.5.2-35-.1-4.6-.2-9.3-.4-14-.3-6.3.1-11.7.8-17.8 1-8.7.4-18.3.1-26.9.5-11.7.8-19.7 2.8-32.1 2.9z"/></g></g></g></g></g></g><g id="_Группа_15" class="st0"><g id="_Группа_16"><path id="_Составной_контур_" class="st6" d="M140.6 40.9c-.8 0-1.4.6-1.4 1.4 0 .8.6 1.4 1.4 1.4h4.1V41h-4.1z"/><path id="_Составной_контур_2" class="st6" d="M139.3 46.4c0 .8.6 1.4 1.4 1.4h4.1V45h-4.1c-.8 0-1.4.6-1.4 1.4z"/><path id="_Составной_контур_3" class="st6" d="M139.3 50.5c0 .8.6 1.4 1.4 1.4h4.1v-2.7h-4.1c-.8-.1-1.4.5-1.4 1.3z"/><path id="_Составной_контур_4" class="st6" d="M139.3 54.6c0 .8.6 1.4 1.3 1.4h4.1v-2.8h-4.1c-.7 0-1.3.6-1.3 1.4z"/><path id="_Составной_контур_5" class="st6" d="M139.3 58.7c0 .8.6 1.4 1.4 1.4h4.1v-2.8h-4.1c-.8 0-1.4.6-1.4 1.4z"/><path id="_Составной_контур_6" class="st6" d="M139.3 62.8c0 .8.6 1.4 1.4 1.4h4.1v-2.7h-4.1c-.8-.1-1.4.6-1.4 1.3z"/><path id="_Составной_контур_7" class="st6" d="M139.3 66.9c0 .8.6 1.4 1.4 1.4h4.1v-2.7h-4.1c-.8 0-1.4.6-1.4 1.3z"/><path id="_Составной_контур_8" class="st6" d="M139.3 71c0 .8.6 1.4 1.4 1.4h4.1v-2.7h-4.1c-.8 0-1.4.6-1.4 1.3z"/><path id="_Составной_контур_9" class="st6" d="M139.3 75.1c0 .8.6 1.4 1.4 1.4h4.1v-2.8h-4.1c-.8.1-1.4.7-1.4 1.4z"/><path id="_Составной_контур_10" d="M140.6 40.9h4.1V25.1c0-3.4-2.8-6.2-6.2-6.2h-10.3c0 3-2.5 5.5-5.5 5.5s-5.5-2.5-5.5-5.5H71.4c-3.4 0-6.2 2.8-6.2 6.2v7.5h5.5v5.5h-5.5v54.1c0 3.4 2.8 6.2 6.2 6.2h45.9c0-3 2.5-5.5 5.5-5.5s5.5 2.5 5.5 5.5h10.3c3.4 0 6.2-2.8 6.2-6.2V76.5h-4.1c-.8 0-1.4-.6-1.4-1.4 0-.8.6-1.4 1.4-1.4h4.1v-1.4h-4.1c-.8 0-1.4-.6-1.4-1.4 0-.8.6-1.4 1.4-1.4h4.1v-1.4h-4.1c-.8 0-1.4-.6-1.4-1.4 0-.8.6-1.4 1.4-1.4h4.1v-1.4h-4.1c-.8 0-1.4-.6-1.4-1.4 0-.8.6-1.4 1.4-1.4h4.1v-1.4h-4.1c-.8 0-1.4-.6-1.4-1.4 0-.8.6-1.4 1.4-1.4h4.1V56h-4.1c-.8 0-1.4-.6-1.4-1.4 0-.8.6-1.4 1.4-1.4h4.1v-1.4h-4.1c-.8 0-1.4-.6-1.4-1.4 0-.8.6-1.4 1.4-1.4h4.1v-1.4h-4.1c-.8 0-1.4-.6-1.4-1.4 0-.8.6-1.4 1.4-1.4h4.1v-1.4h-4.1c-.8 0-1.4-.6-1.4-1.4 0-.5.6-1.1 1.3-1.1zM70.7 94.3c-.8 0-1.4-.6-1.4-1.4s.6-1.4 1.4-1.4 1.4.6 1.4 1.4c0 .9-.6 1.5-1.4 1.4 0 .1 0 .1 0 0zm0-68.5c-.8 0-1.4-.6-1.4-1.4s.6-1.4 1.4-1.4 1.4.6 1.4 1.4c0 .8-.6 1.4-1.4 1.4zM140.6 93c0 .8-.6 1.4-1.4 1.4-.8 0-1.4-.6-1.4-1.4s.6-1.4 1.4-1.4c.8 0 1.4.6 1.4 1.4zm-2.7-68.5c0-.8.6-1.4 1.4-1.4.8 0 1.4.6 1.4 1.4s-.6 1.4-1.4 1.4c-.8-.1-1.4-.7-1.4-1.4z" style="fill:#1faa35"/><path id="_Составной_контур_11" class="st6" d="M70.7 68.3c0 .8-.6 1.4-1.4 1.4S68 69 68 68.3c0-.8.6-1.4 1.4-1.4s1.3.6 1.3 1.4z"/><path id="_Составной_контур_12" class="st6" d="M70.7 73.8c0 .8-.6 1.4-1.4 1.4s-1.3-.7-1.3-1.4c0-.8.6-1.4 1.4-1.4s1.3.6 1.3 1.4z"/><path id="_Составной_контур_13" class="st6" d="M70.7 79.2c0 .8-.6 1.4-1.4 1.4S68 80 68 79.2c0-.8.6-1.4 1.4-1.4s1.3.7 1.3 1.4z"/><path id="_Составной_контур_14" class="st6" d="M70.7 84.7c0 .8-.6 1.4-1.4 1.4-.8 0-1.4-.6-1.4-1.4 0-.8.6-1.4 1.4-1.4.8.1 1.4.7 1.4 1.4z"/><path id="_Составной_контур_15" class="st6" d="M80.3 94.3c0 .8-.6 1.4-1.3 1.4-.8 0-1.4-.6-1.4-1.3 0-.8.6-1.4 1.3-1.4h.1c.8 0 1.4.6 1.3 1.3z"/><path id="_Составной_контур_16" class="st6" d="M85.8 94.3c0 .8-.6 1.4-1.3 1.4-.8 0-1.4-.6-1.4-1.3 0-.8.6-1.4 1.3-1.4.8 0 1.4.6 1.4 1.3 0 .1 0 .1 0 0z"/><path id="_Составной_контур_17" class="st6" d="M91.3 94.3c0 .8-.6 1.4-1.3 1.4-.8 0-1.4-.6-1.4-1.3 0-.8.6-1.4 1.3-1.4.8 0 1.4.6 1.4 1.3 0 .1 0 .1 0 0z"/><path id="_Составной_контур_18" class="st6" d="M96.8 94.3c0 .8-.6 1.4-1.3 1.4s-1.4-.6-1.4-1.3c0-.8.6-1.4 1.3-1.4.8 0 1.4.6 1.4 1.3z"/></g><g id="_Группа_18"><g id="_Группа_20"><polygon id="_Контур_30" class="st8" points="131.4,85.9 131.4,61.8 122.4,61.9 122.4,67.6 114,67.6 114,50.9 
						105.5,50.9 105.5,58.9 96.8,58.9 96.8,64.5 86.8,64.5 86.8,53.8 78.1,53.8 78.1,85.9 					"/></g></g><g id="_Группа_21"><path id="_Составной_контур_19" class="st9" d="M126.1 79.4c0 1.3-1.1 2.4-2.4 2.4-1.3 0-2.4-1.1-2.4-2.4 0-1.3 1.1-2.4 2.4-2.4 1.4 0 2.4 1.1 2.4 2.4z"/><path id="_Составной_контур_20" class="st9" d="M116.6 79.4c0 1.3-1.1 2.4-2.4 2.4-1.3 0-2.4-1.1-2.4-2.4 0-1.3 1.1-2.4 2.4-2.4 1.3 0 2.3 1.1 2.4 2.4z"/><path id="_Составной_контур_21" class="st9" d="M121.4 72.2c0 1.3-1.1 2.4-2.4 2.4s-2.4-1.1-2.4-2.4c0-1.3 1.1-2.4 2.4-2.4s2.4 1.1 2.4 2.4z"/><path id="_Составной_контур_22" class="st9" d="M107 79.4c0 1.3-1.1 2.4-2.4 2.4s-2.4-1.1-2.4-2.4c0-1.3 1.1-2.4 2.4-2.4 1.3 0 2.4 1.1 2.4 2.4z"/><path id="_Составной_контур_23" class="st9" d="M97.4 79.4c0 1.3-1.1 2.4-2.4 2.4s-2.4-1.1-2.4-2.4c0-1.3 1.1-2.4 2.4-2.4 1.3 0 2.4 1.1 2.4 2.4z"/><path id="_Составной_контур_24" class="st9" d="M111.8 72.2c0 1.3-1.1 2.4-2.4 2.4s-2.4-1.1-2.4-2.4c0-1.3 1.1-2.4 2.4-2.4s2.4 1.1 2.4 2.4z"/><path id="_Составной_контур_25" class="st9" d="M102.2 72.2c0 1.3-1.1 2.4-2.4 2.4-1.3 0-2.4-1.1-2.4-2.4 0-1.3 1.1-2.4 2.4-2.4 1.3 0 2.4 1.1 2.4 2.4z"/><path id="_Составной_контур_26" class="st9" d="M87.8 79.4c0 1.3-1.1 2.4-2.4 2.4-1.3 0-2.4-1.1-2.4-2.4 0-1.3 1.1-2.4 2.4-2.4 1.4 0 2.5 1.1 2.4 2.4.1 0 .1 0 0 0z"/><path id="_Составной_контур_27" class="st9" d="M92.6 72.2c0 1.3-1.1 2.4-2.4 2.4-1.3 0-2.4-1.1-2.4-2.4 0-1.3 1.1-2.4 2.4-2.4 1.3 0 2.4 1.1 2.4 2.4z"/></g><path id="_Контур_31" class="st6" d="M109.6 85.9v2.8c0 .5.4.9.9.9s.9-.4.9-.9v-2.8h-1.8z"/><path id="_Контур_32" class="st6" d="M98.3 85.9v2.8c0 .5.4.9.9.9s.9-.4.9-.9v-2.8h-1.8z"/><path id="_Контур_33" class="st6" d="M102.1 85.9v2.8c0 .5.4.9.9.9s.9-.4.9-.9v-2.8h-1.8z"/><path id="_Контур_34" class="st6" d="M105.8 85.9v2.8c0 .5.4.9.9.9s.9-.4.9-.9v-2.8h-1.8z"/></g><g id="_Группа_22" class="st0"><g id="_Группа_23"><polygon id="_Контур_35" class="st8" points="131.4,62 131.4,32.8 78.1,32.8 78.1,54 86.8,54 86.8,64.6 96.8,64.7 
					96.8,59.1 105.5,59.1 105.5,51.1 114,51.1 114,67.8 122.4,67.8 122.4,62.1 				"/></g><g id="_Группа_25"><path id="_Составной_контур_28" class="st9" d="M83.4 38.4c0-1.3 1.1-2.4 2.4-2.4 1.3 0 2.4 1.1 2.4 2.4 0 1.3-1.1 2.4-2.4 2.4-1.3 0-2.4-1.1-2.4-2.4z"/><path id="_Составной_контур_29" class="st9" d="M93 38.4c0-1.3 1.1-2.4 2.4-2.4 1.3 0 2.4 1.1 2.4 2.4 0 1.3-1.1 2.4-2.4 2.4-1.3 0-2.4-1.1-2.4-2.4z"/><path id="_Составной_контур_30" class="st9" d="M88.2 45.5c0-1.3 1.1-2.4 2.4-2.4s2.4 1.1 2.4 2.4c0 1.3-1.1 2.4-2.4 2.4s-2.4-1-2.4-2.4z"/><path id="_Составной_контур_31" class="st9" d="M102.6 38.4c0-1.3 1.1-2.4 2.4-2.4 1.3 0 2.4 1.1 2.4 2.4 0 1.3-1.1 2.4-2.4 2.4-1.3 0-2.4-1.1-2.4-2.4z"/><path id="_Составной_контур_32" class="st9" d="M112.2 38.4c0-1.3 1.1-2.4 2.4-2.4 1.3 0 2.4 1.1 2.4 2.4 0 1.3-1.1 2.4-2.4 2.4-1.4 0-2.4-1.1-2.4-2.4z"/><path id="_Составной_контур_33" class="st9" d="M97.8 45.5c0-1.3 1.1-2.4 2.4-2.4s2.4 1.1 2.4 2.4c0 1.3-1.1 2.4-2.4 2.4s-2.4-1-2.4-2.4z"/><path id="_Составной_контур_34" class="st9" d="M107.4 45.5c0-1.3 1.1-2.4 2.4-2.4s2.4 1.1 2.4 2.4c0 1.3-1.1 2.4-2.4 2.4-1.4 0-2.4-1-2.4-2.4 0 .1 0 .1 0 0z"/><path id="_Составной_контур_35" class="st9" d="M121.7 38.4c0-1.3 1.1-2.4 2.4-2.4 1.3 0 2.4 1.1 2.4 2.4 0 1.3-1.1 2.4-2.4 2.4-1.3 0-2.4-1.1-2.4-2.4z"/><path id="_Составной_контур_36" class="st9" d="M116.9 45.5c0-1.3 1.1-2.4 2.4-2.4s2.4 1.1 2.4 2.4c0 1.3-1.1 2.4-2.4 2.4-1.3.1-2.3-1-2.4-2.4 0 .1 0 .1 0 0z"/></g><g id="_Группа_26"><path id="_Контур_36" class="st6" d="M99.9 32.8V30c0-.5-.4-.9-.9-.9s-1 .3-1 .8v2.8l1.9.1z"/><path id="_Контур_37" class="st6" d="M111.2 32.8V30c0-.5-.4-.9-.9-.9s-.9.4-.9.9v2.8h1.8z"/><path id="_Контур_38" class="st6" d="M107.4 32.8V30c0-.5-.4-.9-.9-.9s-.9.4-.9.9v2.8h1.8z"/><path id="_Контур_39" class="st6" d="M103.6 32.8V30c0-.5-.4-.9-.9-.9s-.9.4-.9.9v2.8h1.8z"/></g></g><g id="_Группа_обтравки_5" class="st10"><g><defs><polygon id="SVGID_5_" points="-17.6,87 40.6,87 55.1,1 -29.8,3.4 					"/></defs><clipPath id="SVGID_6_"><use xlink:href="#SVGID_5_" style="overflow:visible"/></clipPath><g style="clip-path:url(#SVGID_6_)"><path id="_Составной_контур_37" d="M37.8 48.2c3.4 3.4 3.4 9 0 12.4l-.1.1c-3.4 3.4-9 3.4-12.4 0L-5.6 29.9c-2-2-5.3-2-7.4 0l-.1.1c-2 2-2 5.3 0 7.4l1.5 1.5.5-.5c.3-.3.6-.4 1-.4s.7.2 1 .4L13 59.6l.8-.8c.6-.6 1.5-.6 2.1 0s.6 1.5 0 2.1l-1.5 1.5 14.1 14.1c.6.6.6 1.5 0 2.1l5.9 5.9c.6.6.6 1.5 0 2.1-.6.6-1.5.6-2.1 0l-5.9-5.9c-.6.6-1.5.6-2.1 0L10.2 66.6l-1.5 1.5c-.6.6-1.5.6-2.1 0-.6-.6-.6-1.5 0-2.1l.8-.8-21.2-22c-.6-.6-.6-1.5 0-2.1l.2-.2-1.5-1.5c-3.2-3.2-3.2-8.4 0-11.6l.1-.1c1.5-1.5 3.6-2.4 5.8-2.4 2.2 0 4.2.9 5.8 2.4l30.9 30.9c2.3 2.3 6 2.3 8.3 0l.1-.1c2.3-2.3 2.3-6 0-8.3l-38-38.4c-.6-.6-.6-1.5 0-2.1.6-.6 1.5-.6 2.1 0-.2.1 37.8 38.5 37.8 38.5z"/></g></g></g><g id="_Группа_27" class="st10"><g id="_Группа_28"><path id="_Контур_40" class="st12" d="M194.9 34.4l-3.9-3.8 15.4-15.4c2.1-2.1 4.6-3.2 5.4-2.3l.8.8c.9.9-.2 3.3-2.3 5.4l-15.4 15.3z"/><path id="_Контур_41" class="st12" d="M181.4 40.2l3.9 3.8 3.9-3.9-3.9-3.8-3.9 3.9z"/></g><path id="_Контур_42" class="st12" d="M189.1 40.2c.4-1.4 1.2-2.6 2.1-3.7 1.1-1 2.3-1.7 3.7-2.1l-3.9-3.9c-.4 1.4-1.2 2.6-2.1 3.7-1.1 1-2.3 1.7-3.7 2.1l3.9 3.9z"/><path id="_Контур_43" class="st12" d="M166.9 58.5c-.2-.2 0-.8.5-1.4L171 53l4.8-4.8 1.5 1.5-4.8 4.8-4.2 3.5c-.5.6-1.1.8-1.4.5"/><path id="_Контур_44" class="st12" d="M175.8 48.1l1.5 1.5 6.8-6.8-1.5-1.5-6.8 6.8z"/><path id="_Контур_45" class="st12" d="M195.9 29.6c-.2-.2 0-.8.6-1.4L208 16.7c.6-.6 1.1-.8 1.4-.6.2.2 0 .8-.6 1.4l-11.6 11.6c-.6.5-1.1.8-1.3.5"/><g id="_Группа_29"><path id="_Контур_46" class="st12" d="M201.8 41.4l-3.8-3.9 15.4-15.4c2.1-2.1 4.6-3.2 5.4-2.3l.8.8c.9.9-.2 3.3-2.3 5.4l-15.5 15.4z"/><path id="_Контур_47" class="st12" d="M188.3 47.2l3.8 3.8 3.8-3.8-3.9-3.8-3.7 3.8z"/></g><path id="_Контур_48" class="st12" d="M196 47.2c.4-1.4 1.2-2.6 2.1-3.7 1.1-1 2.3-1.7 3.7-2.1l-3.8-3.9c-.4 1.4-1.2 2.6-2.1 3.7-1.1 1-2.3 1.7-3.7 2.1l3.8 3.9z"/><path id="_Контур_49" class="st12" d="M168.3 73.4l-2.3-2.3 3.9-3.9 2.3-1.5 1.5 1.5-1.5 2.3-3.9 3.9z"/><path id="_Контур_50" class="st12" d="M173.7 67.2l-1.5-1.5 17.4-17.3 1.5 1.5-17.4 17.3z"/><path id="_Контур_51" class="st12" d="M202.8 36.6c-.2-.2 0-.8.6-1.3L215 23.7c.6-.6 1.1-.8 1.4-.6s0 .8-.6 1.4L204.1 36c-.5.6-1.1.8-1.3.6"/><g id="_Группа_30"><path id="_Контур_52" class="st12" d="M208.7 48.3l-3.9-3.8L220.3 29c2.1-2.1 4.6-3.2 5.4-2.3l.8.8c.9.9-.2 3.3-2.3 5.4l-15.5 15.4z"/><path id="_Контур_53" class="st12" d="M195.2 54.1l3.9 3.8L203 54l-3.9-3.8-3.9 3.9z"/></g><path id="_Контур_54" class="st12" d="M203 54.1c.4-1.4 1.2-2.6 2.1-3.7 1.1-1 2.3-1.7 3.7-2.1l-3.9-3.8c-.4 1.4-1.2 2.6-2.1 3.7-1.1 1-2.3 1.7-3.7 2.1l3.9 3.8z"/><path id="_Контур_55" class="st12" d="M170.6 83.4l-.8-.8 4.1-5.6 5.2-4.4 1.5 1.5-4.4 5.2-5.6 4.1z"/><path id="_Контур_56" class="st12" d="M179.1 72.6l1.5 1.5L198 56.8l-1.5-1.5-17.4 17.3z"/><path id="_Контур_57" class="st12" d="M209.7 43.5c-.2-.2 0-.8.6-1.3l11.6-11.6c.6-.6 1.1-.8 1.4-.6s0 .8-.6 1.4L211.1 43c-.6.5-1.2.7-1.4.5"/></g><g id="_Прямоугольник_5" style="opacity:.2;clip-path:url(#SVGID_2_)"><image style="overflow:visible;enable-background:new" width="232" height="168" id="_Изображение_10" xlink:href="61347280510A69BC.png" transform="matrix(1 0 0 1 -11.86 -163.55)"/></g></g></g></svg>