<svg version="1.1" id="Layer_1" xmlns="http://www.w3.org/2000/svg" xmlns:xlink="http://www.w3.org/1999/xlink" x="0px" y="0px" viewBox="0 0 210 125" style="enable-background:new 0 0 210 125" xml:space="preserve"><style type="text/css">.st1{opacity:.6;clip-path:url(#___2_);fill:#aef;enable-background:new}.st5{fill:#5a9646}.st6{fill:#96cd78}.st7{fill:#73af55}.st8{fill:#464655}</style><rect id="_wq_" y="0" width="210" height="125" style="fill:#3598db"/><g><defs><rect id="_wq__1_" y="0" width="210" height="125"/></defs><circle id="_odwq__1_" class="st1" cx="104.6" cy="63" r="124.3"/><circle id="_odwq_2_1_" class="st1" cx="104.6" cy="63.3" r="91.3"/><circle id="_odwq_3_1_" class="st1" cx="104.6" cy="62.7" r="70"/></g><g id="_Группа_3"><path id="_odwq_4" d="M42.8 69.7c0 12.5 19.5 36.4 62.1 36.4S167 82.2 167 69.7H42.8z" style="fill:#bee178"/><path id="_odwq_5" d="M104.9 70.8H42.8s0 9.6 10.7 9.6c8.6 0 30-4.8 51.4-4.8s42.8 4.8 51.4 4.8c10.7 0 10.7-9.6 10.7-9.6h-62.1z" style="fill:#d2f0a0"/><path id="_odwq_6" d="M168.3 59.8c-9.9-7.3-30.8-19.4-42-24-5-2-8.6-4.7-21.4-4.7s-16.4 2.7-21.4 4.7c-11.2 4.5-32.1 16.7-42 24-1.8 1.3-3 3.4-3 5.7 0 3.5 2.3 6.3 5.2 6.3H166c2.9 0 5.2-2.8 5.2-6.3 0-2.2-1.1-4.3-2.9-5.7z" style="fill:#82c35f"/><g id="_Группа_4"><path id="_odwq_7" class="st5" d="M94.2 61.1c-1.2 0-2.2-.9-2.2-2.1v-2.2c0-1.2 1-2.1 2.1-2.1 1.2 0 2.1 1 2.1 2.1V59c.1 1.2-.9 2.1-2 2.1z"/><path id="_odwq_8" class="st5" d="M115.6 61.1c-1.2 0-2.1-.9-2.1-2.1v-2.2c0-1.2 1-2.1 2.1-2.1 1.2 0 2.1 1 2.1 2.1V59c0 1.2-.9 2.1-2.1 2.1z"/></g><path id="_odwq_9" class="st6" d="M63.1 55.9c18.2 0 24.3-9.9 26.3-14.7.7-1.8.6-3.8-.4-5.5-3.2-5.5-12.5-18.4-27.1-14.6-3.8 1.1-6.3 4.6-6.1 8.6.6 9 2.6 26.2 7.3 26.2z"/><path id="_odwq_10" class="st7" d="M77 48.3S70.8 56 63.1 56s-13.9-7.2-13.9-16.1 6.2-16.1 13.9-16.1c7.5 0 13.9 15.6 13.9 24.5z"/><path id="_odwq_11" class="st8" d="M56.7 33.3c-2.2 0-4.4.2-6.5.8-1.3 3.8-1.3 7.9 0 11.6 2.1.5 4.3.8 6.5.8 7.7 0 11.8-3 11.8-6.6s-4.1-6.6-11.8-6.6z"/><path id="_odwq_12" class="st6" d="M146.6 55.9c-18.2 0-24.3-9.9-26.3-14.7-.7-1.8-.6-3.8.4-5.5 3.2-5.5 12.5-18.4 27.2-14.6 3.8 1 6.4 4.6 6.1 8.6-.6 9-2.6 26.2-7.4 26.2z"/><path id="_odwq_13" class="st7" d="M132.7 48.3s6.2 7.7 13.9 7.7 13.9-7.2 13.9-16.1-6.2-16.1-13.9-16.1c-7.5 0-13.9 15.6-13.9 24.5z"/><path id="_odwq_14" class="st8" d="M153.1 33.3c2.2 0 4.4.2 6.5.8 1.3 3.8 1.3 7.9 0 11.6-2.1.5-4.3.8-6.5.8-7.7 0-11.8-3-11.8-6.6s4.1-6.6 11.8-6.6z"/></g><title>Artboard 24</title></svg>