<svg version="1.1" id="Layer_1" xmlns="http://www.w3.org/2000/svg" xmlns:xlink="http://www.w3.org/1999/xlink" x="0px" y="0px" viewBox="0 0 210 125" style="enable-background:new 0 0 210 125" xml:space="preserve"><style type="text/css">.st1{clip-path:url(#__2_2_);fill:#fcd532}.st2{fill:#a467c1}.st3{fill:#a9f369}</style><rect id="_teh_2" y="0" width="210" height="125" style="fill:#ff8f43"/><g><defs><rect id="_teh_2_1_" y="0" width="210" height="125"/></defs><polygon id="_oiqdwj__1_" class="st1" points="121,128.6 154.3,128.6 154.3,110.8 188.3,110.8 188.3,76.9 154.6,76.9 
		120.9,110.7 	"/><path id="_oiqdwj_2_1_" class="st1" d="M-15.2 129.4c0-29 23.5-52.5 52.5-52.5s52.5 23.5 52.5 52.5"/></g><title>Artboard 7</title><rect id="_teh_6" x="22.5" y="26.2" transform="matrix(0.7071 -0.7071 0.7071 0.7071 -20.6277 44.5729)" class="st2" width="42" height="42"/><rect id="_teh_7" x="168.7" y="17.5" class="st2" width="28.7" height="28.7"/><circle id="_oiqdwj_3" class="st3" cx="81.1" cy="87" r="8.4"/><circle id="_oiqdwj_4" class="st3" cx="166.8" cy="60.9" r="16"/><polygon id="_oiqdwj_5" points="81.3,78.7 166.8,43.3 112.1,17.5 " style="fill:#1bbc9c"/><rect id="_teh_8" x="17.6" y="10.2" class="st3" width="169.5" height="7.3"/></svg>