<svg version="1.1" id="Слой_1" xmlns="http://www.w3.org/2000/svg" xmlns:xlink="http://www.w3.org/1999/xlink" x="0px" y="0px" viewBox="0 0 210 125" style="enable-background:new 0 0 210 125" xml:space="preserve"><style type="text/css">.st2{fill:#f6d653}.st4{fill:#f1f0ef}.st5{fill:#383a3a}.st6{fill:#394f7c}.st7{fill:#eaeaea}.st8{fill:#d0d0d0}.st9{fill:#fff}.st10{fill:#4a4647}.st11{fill:none}.st12{fill:#cbced3}.st13{fill:#ebe8d2}.st14{fill:#f7cd3e}.st15{fill:#ebe5d9}</style><g><linearGradient id="_Rectangle_2_1_" gradientUnits="userSpaceOnUse" x1="-8.5913" y1="33.0663" x2="218.5913" y2="93.9337" gradientTransform="matrix(1 0 0 -1 0 126)"><stop offset="0" style="stop-color:#a1dbff"/><stop offset="1" style="stop-color:#7bbcec"/></linearGradient><rect id="_Rectangle_2" width="210" height="125" style="fill:url(#_Rectangle_2_1_)"/><g><defs><rect id="SVGID_1_" width="210" height="125"/></defs><clipPath id="SVGID_2_"><use xlink:href="#SVGID_1_" style="overflow:visible"/></clipPath><g style="clip-path:url(#SVGID_2_)"><path class="st2" d="M96.4 18.8l1.2-5.2c.2-1 1.3-1.7 2.3-1.4l14.9 3.4-2 8.9-14.9-3.4c-1.1-.2-1.8-1.2-1.5-2.3 0 .1 0 .1 0 0z"/><rect x="108.5" y="19.2" transform="matrix(0.2214 -0.9752 0.9752 0.2214 68.5766 125.7043)" width="9.1" height="1.4" style="fill:#f4cb26"/><rect x="112.8" y="18.2" transform="matrix(0.2214 -0.9752 0.9752 0.2214 70.2689 129.1936)" class="st4" width="6.4" height="4.8"/><rect x="115.5" y="18.6" transform="matrix(0.2214 -0.9752 0.9752 0.2214 72.0415 128.2436)" class="st5" width="1.6" height="0.8"/><rect x="114.8" y="21.7" transform="matrix(0.2214 -0.9752 0.9752 0.2214 68.4092 129.9976)" class="st5" width="1.6" height="0.8"/><path class="st2" d="M121.7 27.1l4.7 1.1c1 .2 2-.4 2.3-1.4l1.2-5.1c.2-1-.4-2-1.4-2.3l-4.7-1.1-2.1 8.8z"/><path class="st6" d="M118.9 42.3L168 18.8c1.8-.9 4-.1 4.9 1.7l26.4 55.1c.9 1.8.1 4-1.7 4.9L148.5 104c-1.8.9-4 .1-4.9-1.7l-26.4-55.1c-1-1.8-.2-4 1.7-4.9z"/><rect x="181.9" y="19.5" transform="matrix(0.9018 -0.4321 0.4321 0.9018 -3.6273 83.7283)" class="st7" width="1" height="60.6"/><rect x="182.9" y="19.7" transform="matrix(0.9018 -0.4321 0.4321 0.9018 -3.3818 84.12)" class="st8" width="1" height="59.7"/><rect x="129.5" y="31.1" transform="matrix(0.9018 -0.4321 0.4321 0.9018 -11.3021 73.939)" class="st9" width="55.1" height="61.4"/><circle class="st10" cx="123.5" cy="48.9" r="1.2"/><circle class="st10" cx="127.2" cy="56.6" r="1.2"/><circle class="st10" cx="130.9" cy="64.3" r="1.2"/><circle class="st10" cx="134.6" cy="72.1" r="1.2"/><circle class="st10" cx="138.3" cy="79.8" r="1.2"/><ellipse transform="matrix(0.9018 -0.4321 0.4321 0.9018 -23.8745 69.9375)" class="st10" cx="142" cy="87.5" rx="1.2" ry="1.2"/><circle class="st10" cx="145.7" cy="95.2" r="1.2"/><line class="st11" x1="151.2" y1="34.9" x2="126.6" y2="46.7"/><path class="st12" d="M123.6 49.7l-5.1 2.5c-.4.2-.9 0-1-.4-.2-.4 0-.9.4-1l5.1-2.5c.4-.2.9 0 1 .4.1.3 0 .8-.4 1z"/><path class="st12" d="M127.3 57.4l-5.1 2.5c-.4.2-.9 0-1-.4-.2-.4 0-.9.4-1l5.1-2.4c.4-.2.9 0 1 .4.1.3 0 .7-.4.9z"/><path class="st12" d="M131 65.1l-5.1 2.4c-.4.2-.9 0-1-.4s0-.9.4-1l5.1-2.5c.4-.2.9 0 1 .4.2.5 0 .9-.4 1.1z"/><path class="st12" d="M134.7 72.8l-5.1 2.4c-.4.2-.9 0-1-.4-.2-.4 0-.9.4-1l5.1-2.4c.4-.2.9 0 1 .4.1.4 0 .9-.4 1z"/><path class="st12" d="M138.4 80.6l-5.1 2.4c-.4.2-.9 0-1-.4-.2-.4 0-.9.4-1l5.1-2.4c.4-.2.9 0 1 .4.2.3 0 .8-.4 1z"/><path class="st12" d="M142.1 88.4l-5.1 2.4c-.4.2-.9 0-1-.4-.2-.4 0-.9.4-1l5.1-2.4c.4-.2.9 0 1 .4.2.4 0 .8-.4 1z"/><path class="st12" d="M145.8 96l-5.1 2.4c-.4.2-.9 0-1-.4-.2-.4 0-.9.4-1l5.1-2.4c.4-.2.9 0 1 .4.1.3 0 .8-.4 1z"/><path class="st6" d="M63.1 69l49.1-23.5c1.8-.9 4-.1 4.9 1.7l26.4 55.1c.9 1.8.1 4-1.7 4.9l-49.1 23.5c-1.8.9-4 .1-4.9-1.7L61.4 74c-.9-1.9-.1-4.1 1.7-5z"/><rect x="77.7" y="69.5" transform="matrix(0.9018 -0.4321 0.4321 0.9018 -35.4513 43.5812)" class="st7" width="1" height="60.6"/><rect x="76.8" y="70.5" transform="matrix(0.9018 -0.4321 0.4321 0.9018 -35.7754 43.2472)" class="st8" width="1" height="59.7"/><rect x="75.9" y="56.8" transform="matrix(0.9018 -0.4321 0.4321 0.9018 -27.668 53.2861)" class="st9" width="55.1" height="61.4"/><circle class="st10" cx="114.4" cy="53.2" r="1.2"/><circle class="st10" cx="118.1" cy="61" r="1.2"/><circle class="st10" cx="121.8" cy="68.7" r="1.2"/><circle class="st10" cx="125.5" cy="76.4" r="1.2"/><circle class="st10" cx="129.2" cy="84.1" r="1.2"/><circle class="st10" cx="132.9" cy="91.9" r="1.2"/><circle class="st10" cx="136.6" cy="99.6" r="1.2"/><line class="st11" x1="86.1" y1="66.1" x2="110.7" y2="54.3"/><path class="st12" d="M114.9 53.8l5.1-2.5c.4-.2.6-.7.4-1-.2-.4-.7-.6-1-.4l-5.1 2.5c-.4.2-.6.7-.4 1 .2.4.7.6 1 .4z"/><path class="st12" d="M118.6 61.5l5.1-2.5c.4-.2.6-.7.4-1-.2-.4-.7-.6-1-.4l-5.1 2.5c-.4.2-.6.7-.4 1 .2.4.7.6 1 .4z"/><path class="st12" d="M122.3 69.2l5.1-2.4c.4-.2.6-.7.4-1s-.7-.6-1-.4l-5.1 2.4c-.4.2-.6.7-.4 1s.7.6 1 .4z"/><path class="st12" d="M126.1 77l5.1-2.4c.4-.2.6-.7.4-1-.2-.4-.7-.6-1-.4l-5.1 2.4c-.4.2-.6.7-.4 1s.6.6 1 .4z"/><path class="st12" d="M129.8 84.7l5.1-2.4c.4-.2.6-.7.4-1-.2-.4-.7-.6-1-.4l-5.1 2.4c-.4.2-.6.7-.4 1 .1.4.6.6 1 .4z"/><path class="st12" d="M133.5 92.5l5.1-2.4c.4-.2.6-.7.4-1-.2-.4-.7-.6-1-.4l-5.1 2.4c-.4.2-.6.7-.4 1 .1.4.6.6 1 .4z"/><path class="st12" d="M137.2 100.2l5.1-2.4c.4-.2.6-.7.4-1-.2-.4-.7-.6-1-.4l-5.1 2.4c-.4.2-.6.7-.4 1 .1.4.6.6 1 .4z"/><rect x="75.7" y="63.7" transform="matrix(0.9016 -0.4326 0.4326 0.9016 -19.1647 45.8585)" class="st13" width="31" height="2.7"/><rect x="78" y="68.5" transform="matrix(0.9016 -0.4326 0.4326 0.9016 -21.0333 47.3327)" class="st13" width="31" height="2.7"/><rect x="80.3" y="73.4" transform="matrix(0.9016 -0.4326 0.4326 0.9016 -22.892 48.8155)" class="st13" width="31" height="2.7"/><rect x="82.7" y="78.2" transform="matrix(0.9016 -0.4326 0.4326 0.9016 -24.7596 50.2942)" class="st13" width="31" height="2.7"/><rect x="91.7" y="82.9" transform="matrix(0.9016 -0.4326 0.4326 0.9016 -32.0031 56.048)" class="st14" width="31" height="31"/><rect x="132.1" y="43.3" transform="matrix(0.9016 -0.4326 0.4326 0.9016 -5.5461 63.8418)" class="st13" width="11" height="1.7"/><rect x="152.4" y="83.1" transform="matrix(0.9016 -0.4326 0.4326 0.9016 -19.6539 81.4744)" class="st13" width="33.7" height="1.7"/><rect x="150.9" y="80" transform="matrix(0.9016 -0.4326 0.4326 0.9016 -18.4633 80.5257)" class="st13" width="33.7" height="1.7"/><rect x="133.6" y="46.4" transform="matrix(0.9016 -0.4326 0.4326 0.9016 -6.7402 64.7932)" class="st13" width="11" height="1.7"/><rect x="145.7" y="40.5" transform="matrix(0.9016 -0.4326 0.4326 0.9016 -3.0144 69.4848)" class="st13" width="11" height="1.7"/><rect x="144.3" y="37.4" transform="matrix(0.9016 -0.4326 0.4326 0.9016 -1.8193 68.5377)" class="st13" width="11" height="1.7"/><rect x="144.3" y="47.6" transform="matrix(0.9016 -0.4326 0.4326 0.9016 -6.2027 69.5719)" class="st13" width="11" height="1.7"/><rect x="145.8" y="50.7" transform="matrix(0.9016 -0.4326 0.4326 0.9016 -7.3968 70.5234)" class="st13" width="11" height="1.7"/><rect x="158" y="44.9" transform="matrix(0.9016 -0.4326 0.4326 0.9016 -3.671 75.2149)" class="st13" width="11" height="1.7"/><rect x="156.5" y="41.8" transform="matrix(0.9016 -0.4326 0.4326 0.9016 -2.4759 74.2678)" class="st13" width="11" height="1.7"/><rect x="149" y="57.3" transform="matrix(0.9016 -0.4326 0.4326 0.9016 -9.9335 72.5317)" class="st13" width="11" height="1.7"/><rect x="150.5" y="60.4" transform="matrix(0.9016 -0.4326 0.4326 0.9016 -11.1276 73.4832)" class="st13" width="11" height="1.7"/><rect x="162.6" y="54.5" transform="matrix(0.9016 -0.4326 0.4326 0.9016 -7.4018 78.1748)" class="st13" width="11" height="1.7"/><rect x="161.2" y="51.4" transform="matrix(0.9016 -0.4326 0.4326 0.9016 -6.2067 77.2276)" class="st13" width="11" height="1.7"/><rect x="155.1" y="63.5" transform="matrix(0.9016 -0.4326 0.4326 0.9016 -14.8618 76.4463)" class="st13" width="11" height="14.8"/><rect x="167.3" y="57.6" transform="matrix(0.9016 -0.4326 0.4326 0.9016 -11.135 81.1422)" class="st14" width="11" height="14.8"/><rect x="24.5" y="17.2" transform="matrix(0.6901 -0.7237 0.7237 0.6901 -13.2601 39.5009)" class="st15" width="30.1" height="36.2"/><polygon class="st6" points="56.3,34.3 39.3,52 33.8,46.8 19.6,33.3 36.6,15.5 			"/><polygon class="st2" points="35.2,39.7 43.3,38.1 45.2,31.5 51.3,29.5 56.3,34.3 39.3,52 35,47.9 			"/><circle class="st2" cx="36.9" cy="26.4" r="4.6"/><rect x="41.2" y="16.2" transform="matrix(0.8512 -0.5249 0.5249 0.8512 -9.622 34.6261)" class="st15" width="30.1" height="36.2"/><polygon class="st6" points="72.7,37.6 51.8,50.5 47.8,44 37.5,27.4 58.5,14.5 			"/><polygon class="st2" points="51,37.5 59.2,38 62.7,32.1 69.1,31.8 72.7,37.6 51.8,50.5 48.6,45.4 			"/><circle class="st2" cx="56" cy="25" r="4.6"/><rect x="34.4" y="68.1" transform="matrix(0.8004 -0.5994 0.5994 0.8004 -40.9467 37.5182)" width="3" height="24.2" style="fill:#ffc12b"/><polygon class="st5" points="44.3,89.1 41.9,90.8 46.2,94 46.4,93.8 			"/><rect x="28.2" y="70.2" transform="matrix(0.8004 -0.5994 0.5994 0.8004 -37.215 32.1405)" class="st9" width="3" height="3.5"/><polygon class="st5" points="46.2,94 46.4,93.8 45.6,91.9 44.5,92.7 			"/><polygon class="st4" points="41.9,90.8 44.5,92.7 45.6,91.9 44.3,89.1 			"/></g></g></g></svg>