<svg version="1.1" id="Layer_1" xmlns="http://www.w3.org/2000/svg" xmlns:xlink="http://www.w3.org/1999/xlink" x="0px" y="0px" viewBox="0 0 210 125" style="enable-background:new 0 0 210 125" xml:space="preserve"><style type="text/css">.st1{fill:#a1fff9}.st2{fill:#80fff3}</style><title>Artboard 18</title><rect id="_Rectangle_" width="210" height="125" style="fill:#216e7e"/><g id="_Group_6"><g id="_Group_8"><path id="_Compound_Path_" class="st1" d="M12.4 14.5h49.5v16.3H12.4V14.5z"/></g></g><g id="_Group_9"><g id="_Group_10"><g id="_Group_12"><path id="_Compound_Path_2" class="st2" d="M96.8 71.9H80.5V55.7h16.3V39.1h16.8v16.6h16.3v16.2h-16.3v16.6H96.8V71.9z"/></g></g><g id="_Group_13"><g id="_Group_15"><path id="_Compound_Path_3" class="st1" d="M80.6 55.8h49.3V72H80.6V55.8z"/></g></g></g><g id="_Group_16"><g id="_Group_17"><g id="_Group_19"><path id="_Compound_Path_4" class="st1" d="M12.4 76.4h49.5v16.3H12.4V76.4z"/></g></g><g id="_Group_20"><g id="_Group_22"><path id="_Compound_Path_5" class="st2" d="M28.4 53.7h17.2v16.9H28.4V53.7zm.1 44.9h17.2v16.9H28.5V98.6z"/></g></g></g><g id="_Group_23"><g id="_Group_24"><g id="_Group_26"><path id="_Compound_Path_6" class="st2" d="M177.5 45.8L166 57.3l-11.5-11.5L166 34.3l-11.7-11.7 11.9-11.9 11.7 11.7 11.5-11.5 11.5 11.5-11.5 11.5 11.7 11.7-11.9 11.9-11.7-11.7z"/></g></g><g id="_Group_27"><g id="_Group_29"><path id="_Compound_Path_7" class="st1" d="M154.6 45.9L189.5 11 201 22.5l-34.9 34.9-11.5-11.5z"/></g></g></g><g id="_Group_30"><g id="_Group_32"><path id="_Compound_Path_8" class="st1" d="M157 73.9h41.2v14H157v-14zm0 22.6h41.2v14H157v-14z"/></g></g></svg>