<svg id="Layer_1" data-name="Layer 1" xmlns="http://www.w3.org/2000/svg" xmlns:xlink="http://www.w3.org/1999/xlink" viewBox="0 0 210 125"><defs><style>.cls-1{fill:none}.cls-7{fill:#ba68c8}</style><clipPath id="clip-path"><rect class="cls-1" x="-14.63" y="-749.58" width="632" height="120"/></clipPath><clipPath id="clip-path-3"><rect class="cls-1" x="497" y="21" width="115" height="88"/></clipPath><clipPath id="clip-path-4"><rect class="cls-1" x="497" y="109" width="115" height="32"/></clipPath><clipPath id="clip-path-5"><rect class="cls-1" x="497" y="141" width="115" height="32"/></clipPath><clipPath id="clip-path-6"><rect class="cls-1" x="497" y="173" width="115" height="32"/></clipPath><clipPath id="clip-path-7"><rect class="cls-1" x="497" y="205" width="115" height="32"/></clipPath><clipPath id="clip-path-8"><rect class="cls-1" x="497" y="237" width="115" height="32"/></clipPath><clipPath id="clip-path-9"><rect class="cls-1" x="497" y="269" width="115" height="32"/></clipPath><clipPath id="clip-path-10"><rect class="cls-1" x="497" y="301" width="115" height="32"/></clipPath><clipPath id="clip-path-11"><rect class="cls-1" x="497" y="333" width="115" height="32"/></clipPath><clipPath id="clip-path-12"><rect class="cls-1" x="497" y="365" width="115" height="32"/></clipPath><clipPath id="clip-path-13"><rect class="cls-1" x="497" y="397" width="115" height="32"/></clipPath><clipPath id="clip-path-14"><rect class="cls-1" x="497" y="429" width="115" height="32"/></clipPath><clipPath id="clip-path-15"><rect class="cls-1" x="497" y="461" width="115" height="32"/></clipPath><clipPath id="clip-path-16"><rect class="cls-1" x="497" y="493" width="115" height="32"/></clipPath><clipPath id="clip-path-17"><rect class="cls-1" x="497" y="525" width="115" height="32"/></clipPath></defs><title>Artboard 43</title><rect y="0.2" width="210" height="125" style="fill:#7b1fa2"/><g id="_Rectangle_" data-name="&lt;Rectangle&gt;"><rect x="109.4" y="27" width="78.26" height="48.4" rx="4.91" ry="4.91" style="fill:#6a1b9a"/></g><g id="_Rectangle_2" data-name="&lt;Rectangle&gt;"><rect x="43" y="48" width="85.66" height="52.97" rx="4.91" ry="4.91" style="fill:#5d198e"/></g><g id="_Rectangle_3" data-name="&lt;Rectangle&gt;"><rect x="10.22" y="9.19" width="105.44" height="65.2" rx="4.91" ry="4.91" style="fill:#8e24aa"/></g><path class="cls-7" d="M38.76 37h-6.63v-3.36h11v3L36.83 48h-4.37z"/><path class="cls-7" d="M44.12 45l5.36-4.09c1.35-1 1.84-1.72 1.84-2.58a1.43 1.43 0 0 0-1.6-1.45c-1 0-1.72.55-2.84 1.84l-2.68-2.26c1.53-2 3-3.07 5.83-3.07 3.13 0 5.28 1.86 5.28 4.6 0 2.29-1.17 3.5-3.31 5l-2.45 1.72h5.91V48H44.12z"/><path class="cls-7" d="M67.25 41.88h-3.92v-2.25h3.93v-3.9h2.33v3.91h3.93v2.25h-3.94v3.91h-2.33z"/><path class="cls-7" d="M81.66 44a3.52 3.52 0 0 1 2.45-3.44 3.42 3.42 0 0 1-2-3.15c0-2.29 2.19-4 5.4-4s5.4 1.7 5.4 4a3.4 3.4 0 0 1-2 3.11A3.59 3.59 0 0 1 93.44 44c0 2.56-2.45 4.21-5.89 4.21s-5.89-1.7-5.89-4.21zm8-.39c0-.92-.86-1.55-2.07-1.55s-2.07.63-2.07 1.6.74 1.62 2.07 1.62 2.02-.8 2.02-1.7zm-.31-5.73a1.77 1.77 0 1 0-1.76 1.6 1.61 1.61 0 0 0 1.71-1.63z"/><g id="_Rectangle_4" data-name="&lt;Rectangle&gt;"><rect x="93.63" y="49.8" width="105.44" height="65.2" rx="4.91" ry="4.91" style="fill:#9c27b0"/></g><path class="cls-7" d="M103.34 77.84l-2.41.55-.76-3.07 4.19-1.19h2.88v14.43h-3.91z"/><path class="cls-7" d="M109.19 84.57a3.52 3.52 0 0 1 2.45-3.44 3.42 3.42 0 0 1-2-3.15c0-2.29 2.19-4 5.4-4s5.4 1.7 5.4 4a3.4 3.4 0 0 1-2 3.11 3.59 3.59 0 0 1 2.56 3.5c0 2.56-2.45 4.21-5.89 4.21s-5.92-1.69-5.92-4.23zm8-.39c0-.92-.86-1.55-2.07-1.55s-2.07.63-2.07 1.6.74 1.62 2.07 1.62 2.03-.76 2.03-1.66zm-.31-5.73a1.77 1.77 0 1 0-1.76 1.6 1.61 1.61 0 0 0 1.72-1.59z"/><path class="cls-7" d="M122.36 81.4c0-4 2.58-7.45 6.65-7.45s6.61 3.35 6.61 7.45-2.56 7.45-6.65 7.45-6.61-3.36-6.61-7.45zm9.27 0c0-2.27-1.08-3.93-2.66-3.93s-2.62 1.6-2.62 3.93 1.06 3.93 2.66 3.93 2.62-1.61 2.62-3.93z"/><path class="cls-7" d="M143.27 81.12h8.51v2.35h-8.51z"/><path class="cls-7" d="M161.93 77.84l-2.41.55-.76-3.07 4.19-1.19h2.88v14.43h-3.91z"/><path class="cls-7" d="M167.9 85.58l5.36-4.09c1.35-1 1.84-1.72 1.84-2.58a1.43 1.43 0 0 0-1.6-1.45c-1 0-1.72.55-2.84 1.84L168 77.07c1.53-2 3-3.07 5.83-3.07 3.13 0 5.28 1.86 5.28 4.6 0 2.29-1.17 3.5-3.31 5l-2.45 1.72h5.91v3.23H167.9z"/><path class="cls-7" d="M180.36 86.31l2.5-2.5a4.69 4.69 0 0 0 3.42 1.64c1.12 0 1.84-.57 1.84-1.49s-.84-1.47-2.33-1.47h-1.69l-.57-2.07 3.29-3h-5.48v-3.18h10.35v2.84L188.27 80c2 .45 3.7 1.6 3.7 4.07 0 2.9-2.33 4.77-5.52 4.77a7.8 7.8 0 0 1-6.09-2.53z"/></svg>