<svg version="1.1" id="Layer_1" xmlns="http://www.w3.org/2000/svg" xmlns:xlink="http://www.w3.org/1999/xlink" x="0px" y="0px" viewBox="0 0 210 125" style="enable-background:new 0 0 210 125" xml:space="preserve"><style type="text/css">.st1{fill:#14af95}.st2{opacity:.9}.st3{fill:#fff}</style><g id="Layer_2"><rect id="XMLID_1602_" y="0" width="210" height="125" style="fill:#15c4ad"/><g id="XMLID_889_"><g id="XMLID_928_"><g id="XMLID_711_"><path id="XMLID_713_" class="st1" d="M193.6 62.5c0-8.9 7.2-16.2 16.1-16.3v-28h-4.1c-1.1.2-2.1 1.4-2.1 2.4v10.1l-2.6.7c-2.3.7-4.5 1.6-6.6 2.7l-2.3 1.3-7.1-7.1c-.6-.6-1.4-.8-2.2-.7-.5.1-.9.3-1.3.7l-5.7 5.6c-.6.6-.8 1.4-.7 2.2.1.5.3.9.7 1.3l7.1 7.1-1.3 2.3c-1.2 2.1-2.1 4.3-2.7 6.6l-.7 2.6h-10.5c-1 .1-2.1 1.4-2.1 2.4v8.5c.2 1.1 1.2 2 2.4 2H178l.7 2.6c.7 2.3 1.6 4.5 2.7 6.6l1.3 2.3-7.1 7.1c-.5.5-.7 1.1-.7 1.7v.5c.1.5.3.9.7 1.3l5.6 5.7c.6.6 1.4.8 2.2.7.5-.1.9-.3 1.3-.7l7.1-7.1 2.3 1.3c2.1 1.2 4.3 2.1 6.6 2.7l2.6.7v10.6c.1.5.3.9.7 1.3.5.5 1.1.7 1.7.7h3.8v-28c-8.8-.2-15.9-7.5-15.9-16.4"/><path id="XMLID_712_" class="st1" d="M202.6 62.5c0 3.9 3.2 7.1 7.1 7.1V55.4c-4 0-7.1 3.2-7.1 7.1"/></g></g></g><g id="XMLID_915_"><g id="XMLID_918_"><g id="XMLID_714_"><path id="XMLID_716_" class="st1" d="M16.1 62.5c0 8.9-7.2 16.2-16.1 16.3v28h4.1c1.1-.2 2.1-1.4 2.1-2.4V94.3l2.6-.7c2.3-.7 4.5-1.6 6.6-2.7l2.3-1.3 7.1 7.1c.6.6 1.4.8 2.2.7.5-.1.9-.3 1.3-.7l5.7-5.6c.6-.6.8-1.4.7-2.2-.1-.5-.3-.9-.7-1.3l-7.1-7.1 1.3-2.3c1.2-2.1 2.1-4.3 2.7-6.6l.7-2.6h10.5c1-.1 2.1-1.4 2.1-2.4v-8.5c-.2-1.1-1.2-2-2.4-2H31.7l-.7-2.6c-.7-2.3-1.6-4.5-2.7-6.6L27 44.6l7.1-7.1c.5-.5.7-1.1.7-1.7v-.5c-.1-.5-.3-.9-.7-1.3l-5.6-5.7c-.6-.6-1.4-.8-2.2-.7-.5.1-.9.3-1.3.7l-7.1 7.1-2.3-1.3c-2.1-1.2-4.3-2.1-6.6-2.7l-2.6-.7V20.1c-.1-.5-.3-.9-.7-1.3-.5-.5-1.1-.7-1.7-.7H.2v28c8.7.2 15.9 7.5 15.9 16.4"/><path id="XMLID_715_" class="st1" d="M7.1 62.5c0-3.9-3.2-7.1-7.1-7.1v14.2c3.9 0 7.1-3.2 7.1-7.1"/></g></g></g><g id="XMLID_693_" class="st2"><path id="XMLID_694_" class="st3" d="M125.8 57.7l.7-.8c10.6-.9 14.3-3.4 14.3-7.4 0-3.1-2.5-5-6.8-5s-9 2.2-13.3 6l-9.1-12c5.6-5.6 13.1-9.6 23.6-9.6 13.4 0 22.8 7.3 22.8 19.3 0 11.5-7.6 16.4-17.8 18.9l-1.1 5.8h-11l-2.3-15.2zm-1.5 20.5h17.9v15.5h-17.9V78.2z"/></g><g id="XMLID_1483_" class="st2"><path id="XMLID_1486_" class="st3" d="M65.8 57.7l.7-.8c10.6-.9 14.3-3.4 14.3-7.4 0-3.1-2.5-5-6.8-5s-9 2.2-13.3 6l-9.1-12C57.2 33 64.7 29 75.2 29 88.6 29 98 36.2 98 48.3c0 11.5-7.6 16.4-17.8 18.9L79.1 73h-11l-2.3-15.3zm-1.4 20.5h17.9v15.5H64.4V78.2z"/></g></g></svg>