<svg version="1.1" id="Layer_1" xmlns="http://www.w3.org/2000/svg" xmlns:xlink="http://www.w3.org/1999/xlink" x="0px" y="0px" viewBox="0 0 210 125" style="enable-background:new 0 0 210 125" xml:space="preserve"><style type="text/css">.st1{fill:#1e8cd6}</style><g id="Layer_1_1_"><rect id="XMLID_1688_" y="0" width="210" height="125" style="fill:#2196f3"/><g id="XMLID_1408_"><g id="XMLID_1674_"><g id="XMLID_1053_"><path id="XMLID_1055_" class="st1" d="M49 57.2c-.3-1.2-1.4-2.2-2.7-2.2H35.2l-.8-2.8c-.7-2.5-1.7-5-3-7.3L30 42.4l7.9-7.8c.5-.5.8-1.2.8-1.9v-.5c-.1-.5-.3-1-.7-1.4l-6.2-6.2c-.7-.7-1.6-.9-2.4-.7-.5.1-1 .3-1.4.7l-8 7.8-2.6-1.4c-2.3-1.3-4.7-2.3-7.3-3l-2.8-.8V15.6c-.1-.5-.3-1-.7-1.4-.5-.5-1.2-.8-1.9-.8H0v30.8h.2c9.9 0 18 8 18 18 0 9.9-8 18-18 18H0V111h5c1.2-.2 2.4-1.6 2.3-2.6V97.3l2.8-.8c2.5-.7 5-1.7 7.3-3l2.6-1.4 7.8 7.9c.6.7 1.6.9 2.4.7.5-.1 1-.3 1.4-.7l6.2-6.2c.7-.7.9-1.6.7-2.4-.1-.5-.3-1-.7-1.4L30 81.8l1.4-2.6c1.3-2.3 2.3-4.7 3-7.3l.8-2.8h11.5c1.2-.2 2.3-1.6 2.3-2.6v-9.3"/><path id="XMLID_1054_" class="st1" d="M0 54.3v15.6c4.3 0 7.8-3.5 7.8-7.8S4.3 54.3 0 54.3"/></g></g></g><g id="XMLID_1411_"><g id="XMLID_1412_"><g id="XMLID_1050_"><path id="XMLID_1052_" class="st1" d="M192.3 62.1c0-9.8 7.9-17.8 17.7-17.9V13.3h-4.5c-1.2.2-2.3 1.6-2.3 2.7v11.1l-2.8.8c-2.5.7-5 1.7-7.3 3l-2.6 1.4-7.8-7.9c-.7-.7-1.6-.9-2.4-.7-.5.1-1 .3-1.4.7l-6.2 6.2c-.7.6-.9 1.5-.7 2.4.1.5.3 1 .7 1.4l7.8 7.9-1.4 2.6c-1.3 2.3-2.3 4.7-3 7.3l-.8 2.8h-11.5c-1.2.2-2.3 1.6-2.3 2.6v9.3c.2 1.2 1.3 2.2 2.6 2.2h11.1l.8 2.8c.7 2.5 1.7 5 3 7.3l1.4 2.6-7.9 7.8c-.5.5-.8 1.2-.8 1.9 0 .2 0 .3.1.5.1.5.3 1 .7 1.4l6.2 6.2c.7.6 1.6.9 2.4.7.5-.1 1-.3 1.4-.7l7.9-7.8 2.6 1.4c2.3 1.3 4.7 2.3 7.3 3l2.8.8v11.1c0 .2 0 .3.1.5.1.5.3 1 .7 1.4.5.5 1.2.8 1.9.8h4.2V80c-9.8-.1-17.7-8.1-17.7-17.9"/><path id="XMLID_1051_" class="st1" d="M202.2 62.1c0 4.3 3.5 7.8 7.8 7.8V54.3c-4.3 0-7.8 3.5-7.8 7.8"/></g></g></g><g id="XMLID_1659_" style="opacity:.8"><path id="XMLID_1660_" d="M93 57.1l1.1-1.2c15.9-1.4 21.5-5.1 21.5-11.1 0-4.6-3.7-7.5-10.2-7.5-6.4 0-13.5 3.3-20 9l-13.7-18C80 20 91.4 13.9 107.1 13.9c20.1 0 34.2 10.9 34.2 29 0 17.2-11.5 24.6-26.6 28.3l-1.6 8.7H96.4L93 57.1zm-2.2 30.8h26.9v23.2H90.8V87.9z" style="fill:#fff"/></g></g></svg>