<svg aria-hidden="true" style="position:absolute;width:0;height:0;overflow:hidden" version="1.1" xmlns="http://www.w3.org/2000/svg" xmlns:xlink="http://www.w3.org/1999/xlink"><defs><symbol id="icon-on" viewBox="0 0 39 32" fill="currentColor"><title>icon-on</title><path d="M35.556 0h-32A3.544 3.544 0 0 0 0 3.556v5.333h3.556V3.556h32v24.889H23.112v3.556h12.444a3.556 3.556 0 0 0 3.556-3.556V3.556c0-1.973-1.6-3.556-3.556-3.556zM0 12.444V16c8.837 0 16 7.163 16 16h3.556c0-10.809-8.764-19.556-19.556-19.556zm32-5.333H7.111v2.898a23.173 23.173 0 0 1 14.88 14.88H32V7.111zM0 19.556v3.556a8.885 8.885 0 0 1 8.888 8.889h3.556c0-6.873-5.572-12.444-12.444-12.444zm0 7.111V32h5.333A5.333 5.333 0 0 0 0 26.667z"/></symbol><symbol id="icon-off" viewBox="0 0 35 32" fill="currentColor"><title>icon-off</title><path d="M2.327.393L.363 2.546 2.05 4.073a2.903 2.903 0 0 0-.596 1.745v4.364h2.909V6.153l22.109 20.029h-6.109v2.909h9.324l2.764 2.502L34.4 29.44 2.327.393zm7.128 2.516l3.2 2.909h17.891v16.204l2.909 2.633V5.819a2.908 2.908 0 0 0-2.909-2.909H9.455zm-8 10.182V16c7.23 0 13.091 5.861 13.091 13.091h2.909c0-8.844-7.156-16-16-16zm0 5.818v2.909a7.273 7.273 0 0 1 7.273 7.273h2.909c0-5.623-4.559-10.182-10.182-10.182zm0 5.818v4.364h4.364a4.364 4.364 0 0 0-4.364-4.364z"/></symbol></defs></svg>