<svg xmlns="http://www.w3.org/2000/svg" viewBox="0 0 210 125"><path fill="#30cde5" d="M0 0h210v125H0z"/><rect x="80" y="65" width="50" height="50" rx="2.6" ry="2.6" fill="#fcb238"/><path d="M104.4 102.4a13 13 0 1 0-13-13 13 13 0 0 0 13 13zm-8-4l-1-1 2.5-2.5 1 1zm8.8 3h-1.5v-3.5h1.5zm11.1-12.7v1.5H113v-1.5zm-4-8.2l1.1 1-2.5 2.5-1-1zM111 94.9l2.4 2.5-1 1-2.5-2.4zm-7.3-17.4h1.5V81h-1.5zm-1.4 8.9l2.3 2.2 4-4 1.1 1-5.1 5-3.3-3.2zm-5.8-6L99 83l-1.1 1-2.5-2.4zm-.6 8.3v1.5h-3.4v-1.5z" fill="#fff"/><rect x="148" y="65" width="50" height="50" rx="2.6" ry="2.6" fill="#4395fb"/><path d="M171.3 90.8v10.7c-2 .3-3.5 1.3-3.5 2.5h9.7c0-1.1-1.2-2-3-2.4V90.8l13.4-15.1h-30zm1.5-1.4l-9.1-10.3h18.2z" fill="#fff"/><rect x="13" y="65" width="50" height="50" rx="2.6" ry="2.6" fill="#4395fb"/><path d="M36.6 101.3s3.4-14.2 9.2-15c0 0 1.7-1.3 1.7 15h2.3s-.2-12 3.2-18.4c0 0 .1-4.7-2.6-7.3s-3.3 8.2-14.2 13.5a4.7 4.7 0 0 0-1.3-.8c-.5-.2-5 2.6-9.2 3.4s-1 3.3.5 9.6z" fill="#fff"/><rect x="13.3" y="10.6" width="50.1" height="50.1" rx="2.6" ry="2.6" fill="#30cde5"/><path fill="#fff" d="M48.5 21.8h-5.2v2.1l5.2 4.3v-6.4zm0 16.3V36l-5.2-4.2-5.5-4.5L27 36v12h6.7V36h8v11.7h6.7V38z"/><path fill="#fff" d="M27 34.8l10.8-8.7 5.5 4.5 5.2 4.2 2.3 2 2.7-3.4-5-4.1-5.2-4.2-5.5-4.5L22 33.4l2.7 3.4 2.4-2z"/><rect x="80" y="11" width="50" height="50" rx="2.6" ry="2.6" fill="#4395fb"/><path d="M105 21.4a15.9 15.9 0 0 0-13.8 23.4v-4.2a3.4 3.4 0 0 1 .7-2v-1.3a13.2 13.2 0 1 1 26.3 1.4 3.4 3.4 0 0 1 .6 2V45A15.9 15.9 0 0 0 105 21.4z" fill="#fff"/><path d="M92.1 40a2.3 2.3 0 0 0 0 .7v5.9c0 1.8 2.1 3.3 4.8 3.3h2V37.3h-2c-2.3 0-4.3 1.2-4.8 2.7zm25.9 6.5v-5.9a2.3 2.3 0 0 0 0-.4c-.4-1.6-2.4-2.9-4.9-2.9h-2V50h2c2.7 0 4.8-1.5 4.8-3.4z" fill="#fff"/><rect x="147.9" y="10.6" width="50.1" height="50.1" rx="2.6" ry="2.6" fill="#30cde5"/><path d="M187 37a3 3 0 0 0-3-3 8.6 8.6 0 1 0-16.8-2.8A5 5 0 1 0 164 40h19.9a3 3 0 0 0 3-3zm-23.9 4.5h2.4v5.3h-2.4zm5.8 2.9h2.4v5.3h-2.4zm5.8-2.9h2.4v5.3h-2.4zm5.9 2.9h2.4v5.3h-2.4z" fill="#fff"/></svg>