<svg version="1.1" id="Layer_1" xmlns="http://www.w3.org/2000/svg" xmlns:xlink="http://www.w3.org/1999/xlink" x="0px" y="0px" viewBox="0 0 210 125" style="enable-background:new 0 0 210 125" xml:space="preserve"><style type="text/css">.st5{opacity:.7;clip-path:url(#___2_);enable-background:new}.st6{fill:#fff}.st15{fill:#444242}.st16{fill:#3a3839}</style><title>Artboard 8</title><rect id="__" y="0" width="210" height="125" style="opacity:.7;fill:#fff;enable-background:new"/><g><defs><rect id="___1_" y="0" width="210" height="125"/></defs><rect id="__2_1_" x="-10.3" y="-11.5" width="71.3" height="39.7" style="opacity:.7;clip-path:url(#___2_);fill:#31ad64;enable-background:new"/><rect id="__3_1_" x="-10.3" y="39.7" width="71.3" height="39.7" style="opacity:.7;clip-path:url(#___2_);fill:#2f80b6;enable-background:new"/><polygon id="___1_" points="143.9,28.2 108.2,15.6 72.7,28.2 72.7,-11.5 143.9,-11.5 	" style="opacity:.7;clip-path:url(#___2_);fill:#d40050;enable-background:new"/><polygon id="__2_1_" points="151.4,79.4 144.6,90.8 71.2,90.8 67.7,79.4 63.5,71.7 63.5,39.7 67.7,34.2 
		72.7,27.2 143.9,27.2 151.4,36.2 153.1,39.7 153.1,70.7 	" style="clip-path:url(#___2_);fill:#f19b2b"/><g class="st5"><path class="st6" d="M27 13.7h-3V2.5c-.5.5-.9.8-1.1 1l-1.7 1.3L19.9 3l4.6-3.7H27v14.4z"/></g><g style="clip-path:url(#___2_);enable-background:new"><path class="st6" d="M109.3 67.1h-3.4V73H100v-5.9H87.7v-4.2l12.5-18.4h5.6v17.9h3.4v4.7zm-9.4-4.7v-4.8c0-.8 0-2 .1-3.5s.1-2.4.2-2.7h-.2c-.5 1.1-1.1 2.1-1.7 3.1L93 62.4h6.9z"/><path class="st6" d="M131.3 58.7c0 5-.8 8.7-2.5 11.1s-4.2 3.6-7.5 3.6-5.8-1.2-7.5-3.7-2.5-6.1-2.5-11c0-5 .8-8.8 2.4-11.1s4.1-3.6 7.5-3.6c3.3 0 5.8 1.2 7.5 3.8s2.6 6.1 2.6 10.9zm-14 0c0 3.5.3 6 .9 7.5s1.6 2.3 3.1 2.3c1.4 0 2.4-.8 3-2.3s.9-4 .9-7.5-.3-6-.9-7.5-1.6-2.3-3-2.3-2.4.8-3 2.3-1 4-1 7.5z"/></g><g class="st5"><path class="st6" d="M100.3 13.7l5.4-11.8h-7.1V-.7h10.3v1.9l-5.4 12.5h-3.2z"/><path class="st6" d="M120.4 5.5c0 2.8-.6 4.9-1.8 6.3-1.2 1.4-3 2.1-5.4 2.1-.9 0-1.5 0-1.9-.1v-2.4c.6.1 1.1.2 1.7.2 1 0 1.9-.1 2.5-.4.7-.3 1.2-.8 1.5-1.4s.5-1.5.6-2.6h-.1c-.4.6-.8 1-1.3 1.3-.5.2-1.1.4-1.9.4-1.3 0-2.2-.4-3-1.2s-1.1-1.9-1.1-3.4.4-2.8 1.3-3.7c.9-.9 2.1-1.3 3.6-1.3 1.1 0 2 .2 2.8.7.8.5 1.4 1.2 1.8 2.2.4.9.7 2 .7 3.3zm-5.3-3.9c-.6 0-1.1.2-1.5.6-.4.4-.5 1.1-.5 1.9 0 .7.2 1.2.5 1.7.3.4.8.6 1.5.6.6 0 1.1-.2 1.6-.6.4-.4.7-.9.7-1.4 0-.8-.2-1.4-.6-2-.5-.5-1-.8-1.7-.8z"/></g><g class="st5"><path class="st6" d="M13.4 51.7c1.4 0 2.5.3 3.3.9.8.6 1.3 1.5 1.3 2.5 0 .7-.2 1.4-.6 2-.4.6-1.1 1.1-2 1.5 1.1.6 1.8 1.2 2.3 1.8.5.6.7 1.3.7 2.1 0 1.2-.5 2.1-1.4 2.8-.9.7-2.1 1.1-3.7 1.1s-2.8-.3-3.7-1c-.9-.7-1.3-1.6-1.3-2.8 0-.8.2-1.5.7-2.2.4-.6 1.1-1.2 2.1-1.7-.8-.5-1.4-1.1-1.8-1.7-.4-.6-.5-1.2-.5-1.9 0-1 .4-1.9 1.3-2.5.8-.6 1.9-.9 3.3-.9zm-2.3 10.8c0 .6.2 1 .6 1.3.4.3.9.5 1.6.5.8 0 1.3-.2 1.7-.5.4-.3.6-.8.6-1.3 0-.4-.2-.9-.6-1.2-.4-.4-1-.8-1.8-1.2-1.4.6-2.1 1.4-2.1 2.4zm2.2-8.5c-.5 0-.9.1-1.3.4-.3.3-.5.6-.5 1.1 0 .4.1.7.4 1.1s.7.6 1.4 1c.6-.3 1.1-.6 1.3-.9.3-.3.4-.7.4-1.1 0-.5-.2-.8-.5-1.1-.2-.4-.6-.5-1.2-.5z"/><path class="st6" d="M24.9 51.7c1.4 0 2.5.3 3.3.9.8.6 1.3 1.5 1.3 2.5 0 .7-.2 1.4-.6 2-.4.6-1.1 1.1-2 1.5 1.1.6 1.8 1.2 2.3 1.8.5.6.7 1.3.7 2.1 0 1.2-.5 2.1-1.4 2.8-.9.7-2.1 1.1-3.7 1.1s-2.8-.3-3.7-1c-.9-.7-1.3-1.6-1.3-2.8 0-.8.2-1.5.7-2.2.4-.6 1.1-1.2 2.1-1.7-.8-.5-1.4-1.1-1.8-1.7-.4-.6-.5-1.2-.5-1.9 0-1 .4-1.9 1.3-2.5.8-.6 1.9-.9 3.3-.9zm-2.3 10.8c0 .6.2 1 .6 1.3.4.3.9.5 1.6.5.8 0 1.3-.2 1.7-.5.4-.3.6-.8.6-1.3 0-.4-.2-.9-.6-1.2-.4-.4-1-.8-1.8-1.2-1.4.6-2.1 1.4-2.1 2.4zm2.2-8.5c-.5 0-.9.1-1.3.4-.3.3-.5.6-.5 1.1 0 .4.1.7.4 1.1s.7.6 1.4 1c.6-.3 1.1-.6 1.3-.9.3-.3.4-.7.4-1.1 0-.5-.2-.8-.5-1.1-.2-.4-.6-.5-1.2-.5z"/><path class="st6" d="M36.6 57.1c1.4 0 2.5.4 3.3 1.2.8.8 1.2 1.8 1.2 3.2 0 1.6-.5 2.8-1.5 3.7-1 .9-2.4 1.3-4.3 1.3-1.6 0-2.9-.3-3.9-.8v-2.6c.5.3 1.1.5 1.8.7.7.2 1.3.3 2 .3 1.9 0 2.8-.8 2.8-2.3 0-1.4-1-2.2-2.9-2.2-.3 0-.7 0-1.2.1-.4.1-.8.1-1 .2l-1.2-.6.5-7.3H40v2.6h-5.1l-.3 2.8.3-.1c.7-.1 1.2-.2 1.7-.2z"/></g><rect id="__4_1_" x="155.6" y="-11.5" width="71.3" height="39.7" style="opacity:.7;clip-path:url(#___2_);fill:#7e8c8d;enable-background:new"/><rect id="__5_1_" x="155.6" y="39.7" width="71.3" height="39.7" style="opacity:.7;clip-path:url(#___2_);fill:#97bf0d;enable-background:new"/><g class="st5"><path class="st6" d="M186.5 63.3h-1.7v3h-3v-3h-6.1v-2.1l6.3-9.3h2.8v9h1.7v2.4zm-4.7-2.3v-4.2c0-.8.1-1.2.1-1.3h-.1c-.2.5-.5 1.1-.9 1.6l-2.6 4h3.5z"/><path class="st6" d="M197.1 55.1c0 .9-.3 1.7-.8 2.3-.5.6-1.3 1.1-2.3 1.3v.1c1.2.1 2 .5 2.6 1.1.6.6.9 1.3.9 2.3 0 1.4-.5 2.5-1.5 3.2s-2.4 1.2-4.3 1.2c-1.6 0-2.9-.3-4.2-.8v-2.6c.6.3 1.2.5 1.8.7s1.3.3 2 .3c1 0 1.7-.2 2.2-.5.5-.3.7-.9.7-1.6 0-.7-.3-1.2-.8-1.4-.6-.3-1.4-.4-2.6-.4h-1.1V58h1.1c1.1 0 1.9-.1 2.4-.4.5-.3.8-.8.8-1.5 0-1.1-.7-1.6-2-1.6-.5 0-1 .1-1.4.2-.5.2-1 .4-1.6.8l-1.4-2.1c1.3-.9 2.9-1.4 4.7-1.4 1.5 0 2.7.3 3.5.9.8.3 1.3 1.2 1.3 2.2z"/><path class="st6" d="M209.5 63.3h-1.7v3h-3v-3h-6.1v-2.1l6.3-9.3h2.8v9h1.7v2.4zm-4.7-2.3v-4.2c0-.8.1-1.2.1-1.3h-.1c-.2.5-.5 1.1-.9 1.6l-2.6 4h3.5z"/></g><g class="st5"><path class="st6" d="M191.3 2.6c0 .9-.3 1.7-.8 2.3-.5.6-1.3 1.1-2.3 1.3v.1c1.2.1 2 .5 2.6 1.1.6.6.9 1.3.9 2.3 0 1.4-.5 2.5-1.5 3.2-1 .8-2.4 1.2-4.3 1.2-1.6 0-2.9-.3-4.2-.8v-2.6c.6.3 1.2.5 1.8.7.7.2 1.3.3 2 .3 1 0 1.7-.2 2.2-.5.5-.3.7-.9.7-1.6 0-.7-.3-1.2-.8-1.4s-1.4-.4-2.6-.4h-1V5.2h1.1c1.1 0 1.9-.1 2.4-.4.5-.3.8-.8.8-1.5 0-1.1-.7-1.6-2-1.6-.5 0-1 .1-1.4.2-.5.2-1 .4-1.6.8L181.9.6c1.3-.9 2.9-1.4 4.7-1.4 1.5 0 2.7.3 3.5.9.8.6 1.2 1.4 1.2 2.5z"/><path class="st6" d="M198.6 4.6c1.4 0 2.5.4 3.3 1.2.8.8 1.2 1.8 1.2 3.2 0 1.6-.5 2.8-1.5 3.7-1 .9-2.4 1.3-4.3 1.3-1.6 0-2.9-.3-3.9-.8v-2.6c.5.3 1.1.5 1.8.7.7.2 1.3.3 2 .3 1.9 0 2.8-.8 2.8-2.3 0-1.4-1-2.2-2.9-2.2-.3 0-.7 0-1.2.1-.4.1-.8.1-1 .2l-1.2-.6.5-7.3h7.8v2.6h-5l-.3 2.8.3-.1c.5-.2 1-.2 1.6-.2z"/></g><rect id="__6_1_" x="-10.3" y="90.8" width="71.3" height="39.7" style="opacity:.7;clip-path:url(#___2_);fill:#35495d;enable-background:new"/><polygon id="__3_1_" points="143.9,130.5 72.7,130.5 72.7,90.8 109.9,104.3 143.9,90.8 	" style="opacity:.7;clip-path:url(#___2_);fill:#be3a30;enable-background:new"/><g class="st5"><path class="st6" d="M109.6 102.9c1.4 0 2.5.3 3.3.9.8.6 1.3 1.5 1.3 2.5 0 .7-.2 1.4-.6 2-.4.6-1.1 1.1-2 1.5 1.1.6 1.8 1.2 2.3 1.8s.7 1.3.7 2.1c0 1.2-.5 2.1-1.4 2.8-.9.7-2.1 1.1-3.7 1.1s-2.8-.3-3.7-1c-.9-.7-1.3-1.6-1.3-2.8 0-.8.2-1.5.7-2.2.4-.6 1.1-1.2 2.1-1.7-.8-.5-1.4-1.1-1.8-1.7-.4-.6-.5-1.2-.5-1.9 0-1 .4-1.9 1.3-2.5.8-.6 1.9-.9 3.3-.9zm-2.3 10.7c0 .6.2 1 .6 1.3.4.3.9.5 1.6.5.8 0 1.3-.2 1.7-.5.4-.3.6-.8.6-1.3 0-.4-.2-.9-.6-1.2-.4-.4-1-.8-1.8-1.2-1.4.6-2.1 1.4-2.1 2.4zm2.2-8.5c-.5 0-.9.1-1.3.4-.3.3-.5.6-.5 1.1 0 .4.1.7.4 1.1.3.3.7.6 1.4 1 .6-.3 1.1-.6 1.3-.9.3-.3.4-.7.4-1.1 0-.5-.2-.8-.5-1.1-.2-.4-.6-.5-1.2-.5z"/></g><g class="st5"><path class="st6" d="M21.7 117.4h-3v-11.2c-.5.5-.9.8-1.1 1l-1.7 1.3-1.5-1.8L19 103h2.5v14.4z"/><path class="st6" d="M30.9 108.3c1.4 0 2.5.4 3.3 1.2.8.8 1.2 1.8 1.2 3.2 0 1.6-.5 2.8-1.5 3.7-1 .9-2.4 1.3-4.3 1.3-1.6 0-2.9-.3-3.9-.8v-2.6c.5.3 1.1.5 1.8.7.7.2 1.3.3 2 .3 1.9 0 2.8-.8 2.8-2.3 0-1.4-1-2.2-2.9-2.2-.3 0-.7 0-1.2.1-.4.1-.8.1-1 .2l-1.2-.6.5-7.3h7.8v2.6h-5.1l-.3 2.8.3-.1c.6-.2 1.1-.2 1.7-.2z"/></g><rect id="__7_1_" x="155.6" y="90.8" width="71.3" height="39.7" style="opacity:.7;clip-path:url(#___2_);fill:#995cb3;enable-background:new"/><g class="st5"><path class="st6" d="M187.1 108.3c1.4 0 2.5.4 3.3 1.2s1.2 1.8 1.2 3.2c0 1.6-.5 2.8-1.5 3.7-1 .9-2.4 1.3-4.2 1.3-1.6 0-2.9-.3-3.9-.8v-2.6c.5.3 1.1.5 1.8.7.7.2 1.3.3 2 .3 1.9 0 2.8-.8 2.8-2.3 0-1.4-1-2.2-2.9-2.2-.3 0-.7 0-1.2.1-.4.1-.8.1-1 .2l-1.2-.6.5-7.3h7.8v2.6h-5.1l-.3 2.8.3-.1c.5-.2 1-.2 1.6-.2z"/><path class="st6" d="M194.8 117.4l5.4-11.8h-7.1V103h10.3v1.9l-5.4 12.5h-3.2z"/></g><g id="_grewwqfwe__1_" style="clip-path:url(#___2_)"><g id="_grewwqfwe_2_1_"><polygon id="__4_1_" points="72.5,112.8 63.7,103.8 77.6,89.9 85,97.4 			" style="fill:#262626"/><g id="_grewwqfwe_3_1_"><path id="__5_1_" class="st15" d="M8.3 159.2c7.5 7.5 19.7 7.5 27.2 0l.7-.7 49.2-62.2-14.2-14.2L9 131.4c-7.9 7.1-8.5 19.3-1.4 27.1.2.3.4.5.7.7z"/><g id="_grewwqfwe_4_1_"><g id="_grewwqfwe_5_1_"><path id="__6_1_" class="st16" d="M8.3 159.2l71.6-71.6 7.1 7.1-50.8 63.8C29 166.4 16.9 167 9 159.9c-.3-.2-.5-.4-.7-.7z"/><polygon id="__7_1_" class="st16" points="72.5,112.8 54.9,95.1 70.3,82.6 85,97.4 						"/></g><path id="vegr__1_" class="st15" d="M72.1 23.3C52.2 43.2 52.2 75.4 72 95.4s52.1 19.9 72.1.1 19.9-52.1.1-72.1l-.1-.1c-19.9-19.8-52.1-19.8-72 0zm8.4 8.4c15.3-15.3 40-15.3 55.3 0s15.3 40 0 55.3c-15.3 15.3-40 15.3-55.3 0-15.2-15.3-15.2-40 0-55.3z"/></g></g></g></g></g></svg>