<svg id="Слой_1" data-name="Слой 1" xmlns="http://www.w3.org/2000/svg" xmlns:xlink="http://www.w3.org/1999/xlink" viewBox="0 0 210 125"><defs><style>.cls-1{fill:none}.cls-3{fill:#5baaec;opacity:.2;isolation:isolate}.cls-4{fill:#fff}.cls-10{fill:#626b2f}.cls-11{fill:#70772f}.cls-12{fill:#92a251}.cls-13{fill:#a9b562}.cls-15{fill:#fccfc8}.cls-18{fill:#d36853}.cls-19{fill:#e98167}.cls-20{fill:#638290}.cls-21{fill:#897d81}.cls-23{fill:#d6d0d3}.cls-27{fill:#35363a}.cls-44{fill:#fdae74}.cls-45{fill:#f7e293}.cls-46{fill:#d64c6a}.cls-47{fill:#f26273}.cls-48{fill:#2a9c9e}.cls-50{fill:#f2d7bc}.cls-54{fill:#f8e9cb}.cls-55{fill:#4e4237}.cls-56{fill:#ebe67c}</style><clipPath id="clip-path"><rect class="cls-1" width="210" height="125"/></clipPath><linearGradient id="Безымянный_градиент_2" x1="104.54" y1="30.79" x2="104.54" y2="284.5" gradientTransform="translate(0 -104)" gradientUnits="userSpaceOnUse"><stop offset="0.01" stop-color="#6dcaff"/><stop offset="0.04" stop-color="#75cbfc"/><stop offset="0.17" stop-color="#9cd2ed"/><stop offset="0.31" stop-color="#bdd8e0"/><stop offset="0.45" stop-color="#d7dcd6"/><stop offset="0.59" stop-color="#e9e0cf"/><stop offset="0.75" stop-color="#f4e1cb"/><stop offset="0.92" stop-color="#f7e2ca"/></linearGradient><linearGradient id="Безымянный_градиент_23" x1="225.05" y1="241.01" x2="225.05" y2="96.07" gradientTransform="translate(0 -104)" gradientUnits="userSpaceOnUse"><stop offset="0.01" stop-color="#b9c9c9"/><stop offset="0.27" stop-color="#c1babe"/><stop offset="0.57" stop-color="#c5b1b7"/><stop offset="1" stop-color="#c7aeb5"/></linearGradient><linearGradient id="Безымянный_градиент_23-2" x1="-11.44" y1="241.01" x2="-11.44" y2="96.38" xlink:href="#Безымянный_градиент_23"/><linearGradient id="Безымянный_градиент_23-3" x1="170.78" y1="241.01" x2="170.78" y2="96.41" xlink:href="#Безымянный_градиент_23"/><linearGradient id="Безымянный_градиент_23-4" x1="36.69" y1="241.01" x2="36.69" y2="96.41" xlink:href="#Безымянный_градиент_23"/><linearGradient id="Безымянный_градиент_23-5" x1="102.24" y1="230.77" x2="102.24" y2="86.17" xlink:href="#Безымянный_градиент_23"/><linearGradient id="Безымянный_градиент_30" x1="104.71" y1="241.7" x2="104.71" y2="89.36" gradientTransform="translate(0 -104)" gradientUnits="userSpaceOnUse"><stop offset="0.01" stop-color="#e98167"/><stop offset="0.42" stop-color="#e47d67"/><stop offset="0.91" stop-color="#d57067"/><stop offset="1" stop-color="#d26d67"/></linearGradient><linearGradient id="Безымянный_градиент_30-2" x1="186.76" y1="201.49" x2="163.42" y2="201.49" xlink:href="#Безымянный_градиент_30"/><linearGradient id="Безымянный_градиент_50" x1="65.55" y1="113.13" x2="65.55" y2="109.21" gradientTransform="translate(0 -104)" gradientUnits="userSpaceOnUse"><stop offset="0.01" stop-color="#897d81"/><stop offset="0.28" stop-color="#a08b90"/><stop offset="1" stop-color="#d9aeb5"/></linearGradient><linearGradient id="Безымянный_градиент_50-2" x1="91.31" y1="132.7" x2="91.31" y2="109.23" xlink:href="#Безымянный_градиент_50"/><linearGradient id="Безымянный_градиент_50-3" x1="117.76" y1="132.7" x2="117.76" y2="109.23" xlink:href="#Безымянный_градиент_50"/><linearGradient id="Безымянный_градиент_50-4" x1="143.64" y1="132.7" x2="143.64" y2="109.23" xlink:href="#Безымянный_градиент_50"/><linearGradient id="Безымянный_градиент_50-5" x1="65.55" y1="163.75" x2="65.55" y2="140.27" xlink:href="#Безымянный_градиент_50"/><linearGradient id="Безымянный_градиент_50-6" x1="91.31" y1="163.75" x2="91.31" y2="140.27" xlink:href="#Безымянный_градиент_50"/><linearGradient id="Безымянный_градиент_50-7" x1="117.76" y1="163.75" x2="117.76" y2="140.27" xlink:href="#Безымянный_градиент_50"/><linearGradient id="Безымянный_градиент_50-8" x1="143.64" y1="163.75" x2="143.64" y2="140.27" xlink:href="#Безымянный_градиент_50"/><linearGradient id="Безымянный_градиент_50-9" x1="117.76" y1="144.17" x2="117.76" y2="140.25" xlink:href="#Безымянный_градиент_50"/><linearGradient id="Безымянный_градиент_50-10" x1="65.55" y1="196.6" x2="65.55" y2="173.12" xlink:href="#Безымянный_градиент_50"/><linearGradient id="Безымянный_градиент_50-11" x1="91.31" y1="196.6" x2="91.31" y2="173.12" xlink:href="#Безымянный_градиент_50"/><linearGradient id="Безымянный_градиент_50-12" x1="117.76" y1="196.6" x2="117.76" y2="173.12" xlink:href="#Безымянный_градиент_50"/><linearGradient id="Безымянный_градиент_50-13" x1="143.64" y1="196.6" x2="143.64" y2="173.12" xlink:href="#Безымянный_градиент_50"/><linearGradient id="Безымянный_градиент_50-14" x1="91.31" y1="177.01" x2="91.31" y2="173.09" xlink:href="#Безымянный_градиент_50"/><linearGradient id="Безымянный_градиент_50-15" x1="65.55" y1="227.37" x2="65.55" y2="203.9" xlink:href="#Безымянный_градиент_50"/><linearGradient id="Безымянный_градиент_50-16" x1="91.31" y1="227.37" x2="91.31" y2="203.9" xlink:href="#Безымянный_градиент_50"/><linearGradient id="Безымянный_градиент_50-17" x1="117.76" y1="227.37" x2="117.76" y2="203.9" xlink:href="#Безымянный_градиент_50"/><linearGradient id="Безымянный_градиент_50-18" x1="143.64" y1="227.37" x2="143.64" y2="203.9" xlink:href="#Безымянный_градиент_50"/><linearGradient id="Безымянный_градиент_50-19" x1="143.64" y1="207.84" x2="143.64" y2="203.91" xlink:href="#Безымянный_градиент_50"/><linearGradient id="Безымянный_градиент_63" x1="163.4" y1="149.54" x2="175.39" y2="149.54" gradientTransform="translate(0 -104)" gradientUnits="userSpaceOnUse"><stop offset="0.01" stop-color="#4b5a66"/><stop offset="0.3" stop-color="#4f606d"/><stop offset="0.71" stop-color="#59727f"/><stop offset="1" stop-color="#638290"/></linearGradient></defs><g style="clip-path:url(#clip-path)"><path class="cls-3" d="M33.36-73.21H176V180.5H33.36z"/><path class="cls-3" d="M-47.49-60.43H257v229H-47.49z"/><path class="cls-4" d="M-101.42-73.21h411.91v253.6h-411.91z"/><path d="M-101.42-73.21h411.91V180.5h-411.91z" style="fill:url(#Безымянный_градиент_2)"/><path d="M249.09 90.75V9.29h-4.83V-.95H234V9.41h-3.33v70.07h-5.06v-9.55l-11 8.86V55.55h-2.88v-4.38H210v4.38h-1.84v-4.38h-1.73v4.38h-1.95v13.34H201V137h48.07z" style="fill:url(#Безымянный_градиент_23);opacity:.6;isolation:isolate"/><path d="M3.23 78.21V3.42h-5.29v-11h-12.77v11h-11.38V137H3.34V78.21z" style="fill:url(#Безымянный_градиент_23-2);opacity:.6;isolation:isolate"/><path d="M189.63 69V23h-4.14V9.41h-4.25V3.65h-3.45l-.35-6.9-8.16 6.79v.11h-3.45v5.76h-4.25V23h-4.14v9.9l-2.76 2.53v27.83h-6V137h44.15V69z" style="fill:url(#Безымянный_градиент_23-3);opacity:.6;isolation:isolate"/><path d="M54.86 72.23V17.12H35.77l.12 59.94v4.49h-1.15L15.65 68.43V137h42.08V72.23z" style="fill:url(#Безымянный_градиент_23-4);opacity:.6;isolation:isolate"/><path class="cls-10" d="M13.81 89.49c0 12.77-8.17 12.43-18.75 12.43-20.7 0-18.74.11-18.74-12.43a19 19 0 0 1 19.2-18.76c10.7 0 18.29 8.4 18.29 18.76z"/><path class="cls-11" d="M6.22 57.73a7.32 7.32 0 0 1-7.13 7.48h-14.26a7.24 7.24 0 0 1-6.9-6 5.85 5.85 0 0 1-.12-1.5 4.61 4.61 0 0 1 1.15-3 3.69 3.69 0 0 1 2.76-1.26H2.31a4.35 4.35 0 0 1 3.91 4.28z"/><path class="cls-10" d="M6.22 57.27a3.76 3.76 0 0 1-3.68 3.91h-21a3.76 3.76 0 0 1-3.68-3.91v-.11a3.76 3.76 0 0 1 3.68-3.91h21a3.79 3.79 0 0 1 3.68 4z"/><path class="cls-12" d="M-41.62 34.26a5.45 5.45 0 0 1-.23 3 4.27 4.27 0 0 1-1.84-2 5.4 5.4 0 0 1 .23-3 3.87 3.87 0 0 1 1.84 2zm39.79 6.44a7.63 7.63 0 0 0 .11 4.3 7.06 7.06 0 0 0 2.19-3.38 7.68 7.68 0 0 0-.12-4.25 6.52 6.52 0 0 0-2.18 3.33z"/><path class="cls-12" d="M1.5 39.55a9.24 9.24 0 0 0-7.82 3.92 1.42 1.42 0 0 1-1.15.53 1.38 1.38 0 0 1-1.38-1.27v-.23a14.09 14.09 0 0 0 .23-3.1 16.91 16.91 0 0 0-17.71-16.3 17.13 17.13 0 0 0-16 13.81 17.56 17.56 0 0 0-3.45-.35 10.26 10.26 0 0 0-9.66 11A10.45 10.45 0 0 0-45 57.39H1.27a8.79 8.79 0 0 0 9-8.75 9 9 0 0 0-8.77-9.09z"/><path class="cls-13" d="M2.65 42.89c1.38 1.73.46 3.8-1.38 5.29s-3.91 2.07-5.17.23a4.46 4.46 0 0 1 .8-6 4 4 0 0 1 5.52.11 1.77 1.77 0 0 0 .23.37zm-17.59-6.1A12.08 12.08 0 0 0-27 24.71a12.07 12.07 0 0 0-12.09 12.08 11.33 11.33 0 0 0 .34 2.76h-.34A7.8 7.8 0 0 0-44.73 37a7.39 7.39 0 0 0-7.59 7.37c0 4 3.45 5.86 7.59 5.86h16.1a13.58 13.58 0 0 0 13.8-13.34z"/><path class="cls-10" d="M-8.85 88.8h19.09v3.91H-8.85z"/><path class="cls-12" d="M12.2 71.65a12.54 12.54 0 0 0-9.89-4.83 12.15 12.15 0 0 0-12.19 12 4.12 4.12 0 0 0 .11 1.15h-.57a7.07 7.07 0 0 0-5.41-2.65 6.69 6.69 0 0 0-6.9 6.45 6.69 6.69 0 0 0 6.44 6.9h26.8a9.52 9.52 0 0 0 9.77-9.32 10 10 0 0 0-8.16-9.7z"/><path class="cls-12" d="M13 72.35a3.46 3.46 0 0 1-2.07.92 3.34 3.34 0 0 1 .81-2.08 3.46 3.46 0 0 1 2.07-.92 3.34 3.34 0 0 1-.81 2.08z"/><path class="cls-13" d="M3.8 71.31c2.19 2.76.92 6-1.95 8.51s-6 3.34-8.28.58A7 7 0 0 1-5.28 71a6.18 6.18 0 0 1 8.74.12c.23-.04.23.07.34.19z"/><path d="M127.08 53.13V35.3l-23.69-9.9v-38.77h-5.52V-16H81.19v2.65h-3.91v140.12h49.91V53.13z" style="fill:url(#Безымянный_градиент_23-5)"/><path class="cls-15" d="M45.89-4.86h2.87v141.75h-2.87zm-5.41-8.63h2.88v9.32h-2.88z"/><path class="cls-15" d="M40.48-4.86H46V-2h-5.52zm0-7.82h8.28v3.1h-8.28zm0-3.8v-2a2.31 2.31 0 0 1 2.3-2.3h6v4.14zM160.54-4.86h2.88v141.75h-2.88z"/><path class="cls-15" d="M186.76 102.49l-25.87-11 1.11-2.58zm-144.44-123h1v9.32h-2.84v-7.59a1.73 1.73 0 0 1 1.84-1.73zm123.74 7h2.88v9.32h-2.88z"/><path d="M48.76-14.64V137.7h111.9V-14.64zm20.7 132.32H56.81V100h12.65zm0-30.84H56.81V69.12h12.65zm0-32.9H56.81V36.22h12.65zm0-30.84H56.81V5.38h12.65zm27.83 94.69H84.64V100h12.65zm0-30.83H84.64V69.12h12.65zm0-32.91H84.64V36.22h12.65zm0-30.84H84.64V5.38h12.65zM125 117.79h-12.64V100H125zM125 87h-12.64V69.12H125zm0-32.91h-12.64V36.22H125zm0-30.84h-12.64V5.38H125zm26.91 94.58h-11.72V100h11.73zm0-30.83h-11.72V69.12h11.73zm0-32.91h-11.72V36.22h11.73zm0-30.84h-11.72V5.27h11.73z" style="fill:url(#Безымянный_градиент_30)"/><path id="_Path_72" data-name=" Path 72" d="M163.42 92.48l23.34 10h-23.34z" style="fill:url(#Безымянный_градиент_30-2)"/><g id="_Group_32" data-name=" Group 32"><g id="_Group_33" data-name=" Group 33"><path id="_Path_73" data-name=" Path 73" class="cls-18" d="M157.09-2.21h3.45v2.3h-3.45z"/><path id="_Path_74" data-name=" Path 74" class="cls-18" d="M158.82.43h1.72v2.3h-1.72z"/><path id="_Path_75" data-name=" Path 75" class="cls-18" d="M157.09 3.19h3.45V5.5h-3.45z"/><path id="_Path_76" data-name=" Path 76" class="cls-18" d="M158.82 5.84h1.72v2.3h-1.72z"/><path id="_Path_78" data-name=" Path 78" class="cls-18" d="M157.09 8.49h3.45v2.3h-3.45z"/><path id="_Path_79" data-name=" Path 79" class="cls-18" d="M158.82 11.13h1.72v2.3h-1.72z"/><path id="_Path_80" data-name=" Path 80" class="cls-18" d="M157.09 13.78h3.45v2.3h-3.45z"/><path id="_Path_81" data-name=" Path 81" class="cls-18" d="M158.82 16.43h1.72v2.3h-1.72z"/><path id="_Path_82" data-name=" Path 82" class="cls-18" d="M157.09 19.07h3.45v2.3h-3.45z"/><path id="_Path_83" data-name=" Path 83" class="cls-18" d="M158.82 21.72h1.72V24h-1.72z"/><path id="_Path_84" data-name=" Path 84" class="cls-18" d="M157.09 24.37h3.45v2.3h-3.45z"/><path id="_Path_85" data-name=" Path 85" class="cls-18" d="M158.82 27h1.72v2.3h-1.72z"/></g><path id="_Path_86" data-name=" Path 86" class="cls-18" d="M157.09 29.77h3.45v2.3h-3.45z"/><path id="_Path_87" data-name=" Path 87" class="cls-18" d="M158.82 32.42h1.72v2.3h-1.72z"/></g><g id="_Group_34" data-name=" Group 34"><g id="_Group_35" data-name=" Group 35"><path id="_Path_88" data-name=" Path 88" class="cls-18" d="M157.09 35.3h3.45v2.3h-3.45z"/><path id="_Path_89" data-name=" Path 89" class="cls-18" d="M158.82 37.94h1.72v2.3h-1.72z"/><path id="_Path_90" data-name=" Path 90" class="cls-18" d="M157.09 40.59h3.45v2.3h-3.45z"/><path id="_Path_91" data-name=" Path 91" class="cls-18" d="M158.82 43.23h1.72v2.31h-1.72z"/><path id="_Path_92" data-name=" Path 92" class="cls-18" d="M158.82 32.53h1.72v2.31h-1.72z"/><path id="_Path_93" data-name=" Path 93" class="cls-18" d="M157.09 46h3.45v2.3h-3.45z"/><path id="_Path_94" data-name=" Path 94" class="cls-18" d="M158.82 48.64h1.72v2.3h-1.72z"/><path id="_Path_95" data-name=" Path 95" class="cls-18" d="M157.09 51.29h3.45v2.3h-3.45z"/><path id="_Path_96" data-name=" Path 96" class="cls-18" d="M158.82 53.94h1.72v2.3h-1.72z"/><path id="_Path_97" data-name=" Path 97" class="cls-18" d="M157.09 56.47h3.45v2.3h-3.45z"/><path id="_Path_98" data-name=" Path 98" class="cls-18" d="M158.82 59.23h1.72v2.3h-1.72z"/><path id="_Path_99" data-name=" Path 99" class="cls-18" d="M157.09 61.87h3.45v2.31h-3.45z"/><path id="_Path_100" data-name=" Path 100" class="cls-18" d="M158.82 64.52h1.72v2.3h-1.72z"/></g><path id="_Path_101" data-name=" Path 101" class="cls-18" d="M157.09 67.17h3.45v2.3h-3.45z"/><path id="_Path_102" data-name=" Path 102" class="cls-18" d="M158.82 69.81h1.72v2.3h-1.72z"/></g><g id="_Group_36" data-name=" Group 36"><g id="_Group_37" data-name=" Group 37"><path id="_Path_103" data-name=" Path 103" class="cls-18" d="M157.09 72.58h3.45v2.3h-3.45z"/><path id="_Path_104" data-name=" Path 104" class="cls-18" d="M158.82 75.22h1.72v2.3h-1.72z"/><path id="_Path_105" data-name=" Path 105" class="cls-18" d="M157.09 77.87h3.45v2.3h-3.45z"/><path id="_Path_106" data-name=" Path 106" class="cls-18" d="M158.82 80.51h1.72v2.31h-1.72z"/><path id="_Path_107" data-name=" Path 107" class="cls-18" d="M157.09 83.16h3.45v2.3h-3.45z"/><path id="_Path_108" data-name=" Path 108" class="cls-18" d="M158.82 85.92h1.72v2.3h-1.72z"/><path id="_Path_109" data-name=" Path 109" class="cls-18" d="M157.09 88.45h3.45v2.3h-3.45z"/><path id="_Path_110" data-name=" Path 110" class="cls-18" d="M158.82 91.21h1.72v2.31h-1.72z"/><path id="_Path_111" data-name=" Path 111" class="cls-18" d="M157.09 93.75h3.45v2.3h-3.45z"/><path id="_Path_112" data-name=" Path 112" class="cls-18" d="M158.82 96.39h1.72v2.3h-1.72z"/></g></g><g id="_Group_38" data-name=" Group 38"><g id="_Group_39" data-name=" Group 39"><path id="_Path_113" data-name=" Path 113" class="cls-18" d="M48.76-2.21h3.45v2.3h-3.45z"/><path id="_Path_114" data-name=" Path 114" class="cls-18" d="M48.76.43h1.73v2.3h-1.73z"/><path id="_Path_115" data-name=" Path 115" class="cls-18" d="M48.76 3.19h3.45V5.5h-3.45z"/><path id="_Path_116" data-name=" Path 116" class="cls-18" d="M48.76 5.84h1.73v2.3h-1.73z"/><path id="_Path_118" data-name=" Path 118" class="cls-18" d="M48.76 8.49h3.45v2.3h-3.45z"/><path id="_Path_119" data-name=" Path 119" class="cls-18" d="M48.76 11.13h1.73v2.3h-1.73z"/><path id="_Path_120" data-name=" Path 120" class="cls-18" d="M48.76 13.78h3.45v2.3h-3.45z"/><path id="_Path_121" data-name=" Path 121" class="cls-18" d="M48.76 16.43h1.73v2.3h-1.73z"/><path id="_Path_122" data-name=" Path 122" class="cls-18" d="M48.76 19.07h3.45v2.3h-3.45z"/><path id="_Path_123" data-name=" Path 123" class="cls-18" d="M48.76 21.72h1.73V24h-1.73z"/><path id="_Path_124" data-name=" Path 124" class="cls-18" d="M48.76 24.37h3.45v2.3h-3.45z"/><path id="_Path_125" data-name=" Path 125" class="cls-18" d="M48.76 27h1.73v2.3h-1.73z"/></g><path id="_Path_126" data-name=" Path 126" class="cls-18" d="M48.76 29.77h3.45v2.3h-3.45z"/><path id="_Path_127" data-name=" Path 127" class="cls-18" d="M48.76 32.42h1.73v2.3h-1.73z"/></g><g id="_Group_40" data-name=" Group 40"><g id="_Group_41" data-name=" Group 41"><path id="_Path_128" data-name=" Path 128" class="cls-18" d="M48.76 35.3h3.45v2.3h-3.45z"/><path id="_Path_129" data-name=" Path 129" class="cls-18" d="M48.76 37.94h1.73v2.3h-1.73z"/><path id="_Path_130" data-name=" Path 130" class="cls-18" d="M48.76 40.59h3.45v2.3h-3.45z"/><path id="_Path_131" data-name=" Path 131" class="cls-18" d="M48.76 43.23h1.73v2.31h-1.73z"/><path id="_Path_132" data-name=" Path 132" class="cls-18" d="M48.76 32.53h1.73v2.31h-1.73z"/><path id="_Path_133" data-name=" Path 133" class="cls-18" d="M48.76 46h3.45v2.3h-3.45z"/><path id="_Path_134" data-name=" Path 134" class="cls-18" d="M48.76 48.64h1.73v2.3h-1.73z"/><path id="_Path_135" data-name=" Path 135" class="cls-18" d="M48.76 51.29h3.45v2.3h-3.45z"/><path id="_Path_136" data-name=" Path 136" class="cls-18" d="M48.76 53.94h1.73v2.3h-1.73z"/><path id="_Path_137" data-name=" Path 137" class="cls-18" d="M48.76 56.47h3.45v2.3h-3.45z"/><path id="_Path_138" data-name=" Path 138" class="cls-18" d="M48.76 59.23h1.73v2.3h-1.73z"/><path id="_Path_139" data-name=" Path 139" class="cls-18" d="M48.76 61.87h3.45v2.31h-3.45z"/><path id="_Path_140" data-name=" Path 140" class="cls-18" d="M48.76 64.52h1.73v2.3h-1.73z"/></g><path id="_Path_141" data-name=" Path 141" class="cls-18" d="M48.76 67.17h3.45v2.3h-3.45z"/><path id="_Path_142" data-name=" Path 142" class="cls-18" d="M48.76 69.81h1.73v2.3h-1.73z"/></g><g id="_Group_42" data-name=" Group 42"><g id="_Group_43" data-name=" Group 43"><path id="_Path_143" data-name=" Path 143" class="cls-18" d="M48.76 72.58h3.45v2.3h-3.45z"/><path id="_Path_144" data-name=" Path 144" class="cls-18" d="M48.76 75.22h1.73v2.3h-1.73z"/><path id="_Path_145" data-name=" Path 145" class="cls-18" d="M48.76 77.87h3.45v2.3h-3.45z"/><path id="_Path_146" data-name=" Path 146" class="cls-18" d="M48.76 80.51h1.73v2.31h-1.73z"/><path id="_Path_147" data-name=" Path 147" class="cls-18" d="M48.76 83.16h3.45v2.3h-3.45z"/><path id="_Path_148" data-name=" Path 148" class="cls-18" d="M48.76 85.92h1.73v2.3h-1.73z"/><path id="_Path_149" data-name=" Path 149" class="cls-18" d="M48.76 88.45h3.45v2.3h-3.45z"/><path id="_Path_150" data-name=" Path 150" class="cls-18" d="M48.76 91.21h1.73v2.31h-1.73z"/><path id="_Path_151" data-name=" Path 151" class="cls-18" d="M48.76 93.75h3.45v2.3h-3.45z"/><path id="_Path_152" data-name=" Path 152" class="cls-18" d="M48.76 96.39h1.73v2.3h-1.73z"/></g></g><g id="_Group_44" data-name=" Group 44"><path id="_Path_153" data-name=" Path 153" class="cls-18" d="M73.26 97.43H81v3.8h-7.7z"/><path id="_Path_154" data-name=" Path 154" class="cls-18" d="M77.17 93.17h7.7V97h-7.7z"/></g><g id="_Group_45" data-name=" Group 45"><path id="_Path_156" data-name=" Path 156" class="cls-18" d="M100.28 124.35h7.36v3.57h-7.36z"/></g><g id="_Group_46" data-name=" Group 46"><path id="_Path_157" data-name=" Path 157" class="cls-19" d="M101.2 3.54h7.59v3.68h-7.59z"/><path id="_Path_158" data-name=" Path 158" class="cls-19" d="M105-.72h7.59V3H105z"/><path id="_Path_159" data-name=" Path 159" class="cls-19" d="M96.83-.72h7.59V3h-7.59z"/></g><g id="_Group_47" data-name=" Group 47"><path id="_Path_160" data-name=" Path 160" class="cls-18" d="M73.26 65.9h7.59v3.68h-7.59z"/><path id="_Path_161" data-name=" Path 161" class="cls-18" d="M77.05 61.76h7.59v3.68h-7.59z"/><path id="_Path_162" data-name=" Path 162" class="cls-18" d="M69 61.76h7.59v3.68H69z"/></g><g id="_Group_48" data-name=" Group 48"><path id="_Path_163" data-name=" Path 163" class="cls-19" d="M128.23 33.8h7.59v3.68h-7.59z"/><path id="_Path_164" data-name=" Path 164" class="cls-19" d="M131.91 29.66h7.59v3.68h-7.59z"/><path id="_Path_165" data-name=" Path 165" class="cls-19" d="M123.86 29.66h7.59v3.68h-7.59z"/></g><g id="_Group_49" data-name=" Group 49"><path id="_Path_166" data-name=" Path 166" class="cls-18" d="M128.8 97.89h7.59v3.68h-7.59z"/><path id="_Path_167" data-name=" Path 167" class="cls-18" d="M132.6 93.63h7.59v3.68h-7.59z"/><path id="_Path_168" data-name=" Path 168" class="cls-18" d="M124.55 93.63h7.59v3.68h-7.59z"/></g><path id="_Path_169" data-name=" Path 169" class="cls-18" d="M100.74 61.64h7.71v3.8h-7.71z"/><path id="_Path_170" data-name=" Path 170" class="cls-19" d="M73.14-.26h7.71v3.8h-7.71z"/><path id="_Path_172" data-name=" Path 172" class="cls-18" d="M73.14 124.58h7.71v3.8h-7.71z"/><path id="_Path_173" data-name=" Path 173" class="cls-18" d="M138.23 60.61h7.71v3.8h-7.71z"/><path id="_Path_174" data-name=" Path 174" class="cls-18" d="M101.09 93.06h7.7v3.79h-7.7z"/><g id="_Group_50" data-name=" Group 50"><path id="_Path_175" data-name=" Path 175" class="cls-19" d="M73.72 33.57h7.7v3.8h-7.7z"/><path id="_Path_176" data-name=" Path 176" class="cls-19" d="M77.63 29.2h7.7V33h-7.7z"/></g><path id="_Path_177" data-name=" Path 177" class="cls-18" d="M129 65.56h7.71v3.79H129z"/><path class="cls-1" d="M38.3 55.32h7.47v-1.61h-7.7zm.23 2.3h7.24v-1.5h-7.35zm1.61-24.86h5.63v-1.95h-5.86zm-1.27 27.16h6.9v-1.5h-7.12zm1.61-25.08h5.29v-1.39h-5.52zM45.77 47v-8.25H38zm-5.06-9.89h5.06v-1.5H40.6zm-3 13.57h8V49.1H37.5zm2.52 20.94h5.52v-1.46h-5.61zm.35 2.65h5.17v-2h-5.4zm5.17 9.9v-8.26H38zM39.1 62.1h6.67v-1.49h-6.9zm.9 7.37h5.75v-2h-6zm-.57-4.83v-.12h6.32v-1.61h-6.53zm.23 2.18h6.09v-1.61h-6.3zM38 53h7.81v-1.5h-7.97zm-.81-13.93v8.4h7.93zm0-36.93v8.4h7.93zM37.84 14h7.93v-1.83h-8.16zm7.93-4V1.81H38zm-8.62 66.26v8.51h7.93zm1.61-55.35h7v-1.49h-7.23zm.8 6.91h6.21v-1.61h-6.44zm-1.37-11.51h7.58v-1.49H38zm.8 6.9h6.78v-1.49h-6.89zm.34 2.19h6.44v-1.5H39.1zm.58 4.72h5.86v-1.61h-6.09zm-1.49-11.51h7.35V17H38.3z"/><path class="cls-20" d="M38 75.91h7.81V74.3H40.6l-.23-2h5.4v-.81h-5.52L40 70.16h5.64v-.69h-5.73l-.23-1.84h6v-.81h-6.1l-.23-1.49h6.33v-.81h-6.35v.23l-.23-1.84h6.56v-.81H39l-.23-1.49h6.9v-.81h-6.9l-.23-1.49h7v-.81H38.3l-.23-1.5h7.36v-.8H38l-.23-1.61h7.7v-.81h-7.86l-.23-1.49h7.93v-.81h-8L37 48.87h8.27v-2.18L37.5 38.4h7.81v-1.72h-5.06l-.25-1.5h5.2V35h-4.72l-.23-1.38h5.52v-.81h-5.52L40 30.92h5.75v-.8h-5.84l-.23-1.5h6.09v-.8h-6.21l-.23-1.61h6.33v-.81h-6.33l-.23-1.5h6.67v-.8H39l-.23-1.5h6.9v-.8h-7l-.23-1.5h7.24v-.8H38.3l-.23-1.61h7.47v-.81h-7.35L38 14.59h7.81v-.81H38l-.23-1.84h8V9.75L38 1.47h7.81V.2H34.85v1.61h1v10.36h1l3.1 25h-5.21v1.61h1.15V49.1h.8l3.1 25.2h-4.94v1.61h1v10.36h9.88v-2.19zm-.85-73.75l7.93 8.4h-7.93zm0 36.93l7.93 8.4h-7.93zm0 37.17l7.93 8.4h-7.93zm8.62-39.12h.12v1.61h-.12zm0-36.94h.12v1.61h-.12z"/><path class="cls-20" d="M45.89 75.91V74.3h-.12v1.61z"/><path class="cls-21" d="M82.34 5.27h17.94v23.47H82.34zm26.45 0h17.94v23.47h-17.94zm25.88 0h17.94v23.47h-17.94zm-78.09 31h17.94v23.42H56.58zm25.76 0h17.94v23.42H82.34zm26.45 0h17.94v23.42h-17.94zm25.88 0h17.94v23.42h-17.94zM56.58 69.12h17.94V92.6H56.58zm25.76 0h17.94V92.6H82.34zm26.45 0h17.94V92.6h-17.94zm25.88 0h17.94V92.6h-17.94zM56.58 99.84h17.94v23.48H56.58zm25.76 0h17.94v23.48H82.34zm26.45 0h17.94v23.48h-17.94zm25.88 0h17.94v23.48h-17.94z"/><path d="M56.58 5.27h17.94v3.91H56.58z" style="fill:url(#Безымянный_градиент_50)"/><path class="cls-4" d="M56 28.74h19.2V30H56z"/><path class="cls-4" d="M55.32 3.88h1.26v26h-1.26z"/><path class="cls-21" d="M74.52 5.27H56.58V6h17.25v3.18H56.58v.69h17.25v18.87h.69V5.27z"/><path class="cls-4" d="M56.12 8.49h19v.69h-19z"/><path class="cls-4" d="M65.21 5.27h.69v3.56h-.69z"/><path class="cls-23" d="M74.52 3.88h-19.2v1.39h19.2V30h1.27V3.88z"/><path d="M82.34 5.27h17.94v23.47H82.34z" style="fill:url(#Безымянный_градиент_50-2)"/><path class="cls-4" d="M81.77 28.74H101V30H81.77z"/><path class="cls-4" d="M81.08 3.88h1.26v26h-1.26z"/><path class="cls-21" d="M100.28 6v-.73H82.34V6h17.25v7.36H82.34V14h17.25v7.36H82.34v.81h17.25v6.56h.69z"/><path class="cls-4" d="M91 4h.69v26H91z"/><path class="cls-4" d="M81.88 20.8h19v.69h-19zm0-8.06h19v.69h-19z"/><path class="cls-23" d="M100.28 3.88h-19.2v1.39h19.2V30h1.27V3.88z"/><path d="M108.79 5.27h17.94v23.47h-17.94z" style="fill:url(#Безымянный_градиент_50-3)"/><path class="cls-4" d="M108.22 28.74h19.2V30h-19.2z"/><path class="cls-4" d="M107.53 3.88h1.26v26h-1.26z"/><path class="cls-21" d="M126.85 6v-.73h-18.06V6H126v7.36h-17.21V14H126v7.36h-17.21v.81H126v6.56h.81z"/><path class="cls-4" d="M117.53 4h.69v26h-.69z"/><path class="cls-4" d="M108.33 20.8h19v.69h-19zm0-8.06h19v.69h-19z"/><path class="cls-23" d="M126.85 3.88h-19.32v1.39h19.32V30h1.26V3.88z"/><path d="M134.67 5.27h17.94v23.47h-17.94z" style="fill:url(#Безымянный_градиент_50-4)"/><path class="cls-4" d="M134.09 28.74h19.21V30h-19.21z"/><path class="cls-4" d="M133.4 3.88h1.27v26h-1.27z"/><path class="cls-21" d="M152.61 6v-.73h-17.94V6h17.25v7.36h-17.25V14h17.25v7.36h-17.25v.81h17.25v6.56h.69z"/><path class="cls-4" d="M143.29 4h.71v26h-.69z"/><path class="cls-4" d="M134.21 20.8h19v.69h-19zm0-8.06h19v.69h-19z"/><path class="cls-23" d="M152.61 3.88H133.4v1.39h19.21V30h1.26V3.88z"/><path class="cls-27" d="M56.58 9.87h17.25v18.87H56.58z"/><path d="M56.58 36.22h17.94v23.47H56.58z" style="fill:url(#Безымянный_градиент_50-5)"/><path class="cls-4" d="M56 59.8h19.2v1.27H56z"/><path class="cls-4" d="M55.32 35h1.26v26h-1.26z"/><path class="cls-21" d="M74.52 36.91v-.69H56.58v.69h17.25v7.48H56.58v.69h17.25v7.36H56.58v.69h17.25v6.67h.69z"/><path class="cls-4" d="M65.21 35.07h.69v26h-.69z"/><path class="cls-4" d="M56.12 51.86h19v.69h-19zm0-8.16h19v.69h-19z"/><path class="cls-23" d="M74.52 35h-19.2v1.27h19.2v24.8h1.27V35z"/><path d="M82.34 36.22h17.94v23.47H82.34z" style="fill:url(#Безымянный_градиент_50-6)"/><path class="cls-4" d="M81.77 59.8H101v1.27H81.77z"/><path class="cls-4" d="M81.08 35h1.26v26h-1.26z"/><path class="cls-21" d="M100.28 36.91v-.69H82.34v.69h17.25v7.48H82.34v.69h17.25v7.36H82.34v.69h17.25v6.67h.69z"/><path class="cls-4" d="M91 35.07h.69v26H91z"/><path class="cls-4" d="M81.88 51.86h19v.69h-19zm0-8.16h19v.69h-19z"/><path class="cls-23" d="M100.28 35h-19.2v1.27h19.2v24.8h1.27V35z"/><path d="M108.79 36.22h17.94v23.47h-17.94z" style="fill:url(#Безымянный_градиент_50-7)"/><path class="cls-4" d="M108.22 59.8h19.2v1.27h-19.2z"/><path class="cls-4" d="M107.53 35h1.26v26h-1.26z"/><path class="cls-21" d="M126.85 36.91v-.69h-18.06v.69H126v7.48h-17.21v.69H126v7.36h-17.21v.69H126v6.67h.81z"/><path class="cls-4" d="M117.53 35.07h.69v26h-.69z"/><path class="cls-4" d="M108.33 51.86h19v.69h-19zm0-8.16h19v.69h-19z"/><path class="cls-23" d="M126.85 35h-19.32v1.27h19.32v24.8h1.26V35z"/><path d="M134.67 36.22h17.94v23.47h-17.94z" style="fill:url(#Безымянный_градиент_50-8)"/><path class="cls-4" d="M134.09 59.8h19.21v1.27h-19.21z"/><path class="cls-4" d="M133.4 35h1.27v26h-1.27z"/><path class="cls-21" d="M152.61 36.91v-.69h-17.94v.69h17.25v7.48h-17.25v.69h17.25v7.36h-17.25v.69h17.25v6.67h.69z"/><path class="cls-4" d="M143.29 35.07h.71v26h-.69z"/><path class="cls-4" d="M134.21 51.86h19v.69h-19zm0-8.16h19v.69h-19z"/><path class="cls-23" d="M152.61 35H133.4v1.27h19.21v24.8h1.26V35z"/><path d="M108.79 36.22h17.94v3.91h-17.94z" style="fill:url(#Безымянный_градиент_50-9)"/><path class="cls-4" d="M108.22 59.8h19.2v1.27h-19.2z"/><path class="cls-4" d="M107.64 35h1.27v26h-1.27z"/><path class="cls-21" d="M126.85 36.22h-18.06v.69H126v3.22h-17.21v.8H126V59.8h.81V36.22z"/><path class="cls-4" d="M108.33 39.55h19v.69h-19z"/><path class="cls-4" d="M117.53 36.22h.69v3.56h-.69z"/><path class="cls-23" d="M126.85 35h-19.21v1.27h19.21v24.8h1.26V35z"/><path class="cls-27" d="M108.91 40.93h17.25V59.8h-17.25z"/><path d="M56.58 69.12h17.94V92.6H56.58z" style="fill:url(#Безымянный_градиент_50-10)"/><path class="cls-4" d="M56 92.6h19.2v1.26H56z"/><path class="cls-4" d="M55.32 67.86h1.26v26h-1.26z"/><path class="cls-21" d="M74.52 69.81v-.69H56.58v.69h17.25v7.37H56.58v.69h17.25v7.48H56.58V86h17.25v6.6h.69z"/><path class="cls-4" d="M65.21 67.86h.69v26h-.69z"/><path class="cls-4" d="M56.12 84.66h19v.69h-19zm0-8.06h19v.69h-19z"/><path class="cls-23" d="M74.52 67.86h-19.2v1.26h19.2v24.74h1.27v-26z"/><path d="M82.34 69.12h17.94V92.6H82.34z" style="fill:url(#Безымянный_градиент_50-11)"/><path class="cls-4" d="M81.77 92.6H101v1.26H81.77z"/><path class="cls-4" d="M81.08 67.86h1.26v26h-1.26z"/><path class="cls-21" d="M100.28 69.81v-.69H82.34v.69h17.25v7.37H82.34v.69h17.25v7.48H82.34V86h17.25v6.6h.69z"/><path class="cls-4" d="M91 67.86h.69v26H91z"/><path class="cls-4" d="M81.88 84.66h19v.69h-19zm0-8.06h19v.69h-19z"/><path class="cls-23" d="M100.28 67.86h-19.2v1.26h19.2v24.74h1.27v-26z"/><path d="M108.79 69.12h17.94V92.6h-17.94z" style="fill:url(#Безымянный_градиент_50-12)"/><path class="cls-4" d="M108.22 92.6h19.2v1.26h-19.2z"/><path class="cls-4" d="M107.53 67.86h1.26v26h-1.26z"/><path class="cls-21" d="M126.85 69.81v-.69h-18.06v.69H126v7.37h-17.21v.69H126v7.48h-17.21V86H126v6.6h.81z"/><path class="cls-4" d="M117.53 67.86h.69v26h-.69z"/><path class="cls-4" d="M108.33 84.66h19v.69h-19zm0-8.06h19v.69h-19z"/><path class="cls-23" d="M126.85 67.86h-19.32v1.26h19.32v24.74h1.26v-26z"/><path d="M134.67 69.12h17.94V92.6h-17.94z" style="fill:url(#Безымянный_градиент_50-13)"/><path class="cls-4" d="M134.09 92.6h19.21v1.26h-19.21z"/><path class="cls-4" d="M133.4 67.86h1.27v26h-1.27z"/><path class="cls-21" d="M152.61 69.81v-.69h-17.94v.69h17.25v7.37h-17.25v.69h17.25v7.48h-17.25V86h17.25v6.6h.69z"/><path class="cls-4" d="M143.29 67.86h.71v26h-.69z"/><path class="cls-4" d="M134.21 84.66h19v.69h-19zm0-8.06h19v.69h-19z"/><path class="cls-23" d="M152.61 67.86H133.4v1.26h19.21v24.74h1.26v-26z"/><path d="M82.34 69.12h17.94V73H82.34z" style="fill:url(#Безымянный_градиент_50-14)"/><path class="cls-4" d="M81.77 92.6H101v1.26H81.77z"/><path class="cls-4" d="M81.08 67.86h1.26v26h-1.26z"/><path class="cls-21" d="M100.28 69.12H82.34v.69h17.25V73H82.34v.69h17.25V92.6h.69V69.12z"/><path class="cls-4" d="M81.88 72.35h19V73h-19z"/><path class="cls-4" d="M91 68.55h.69v4.14H91z"/><path class="cls-23" d="M100.28 67.86h-19.2v1.26h19.2v24.74h1.27v-26z"/><path class="cls-27" d="M82.34 73.73h17.25V92.6H82.34z"/><path d="M56.58 99.84h17.94v23.48H56.58z" style="fill:url(#Безымянный_градиент_50-15)"/><path class="cls-4" d="M56 123.43h19.2v1.27H56z"/><path class="cls-4" d="M55.32 98.58h1.26v26h-1.26z"/><path class="cls-21" d="M74.52 100.65v-.81H56.58v.81h17.25V108H56.58v.69h17.25v7.37H56.58v.69h17.25v6.67h.69z"/><path class="cls-4" d="M65.21 98.69h.69v26h-.69z"/><path class="cls-4" d="M56.12 115.49h19v.69h-19zm0-8.17h19v.68h-19z"/><path class="cls-23" d="M74.52 98.58h-19.2v1.26h19.2v24.86h1.27V98.58z"/><path d="M82.34 99.84h17.94v23.48H82.34z" style="fill:url(#Безымянный_градиент_50-16)"/><path class="cls-4" d="M81.77 123.43H101v1.27H81.77z"/><path class="cls-4" d="M81.08 98.58h1.26v26h-1.26z"/><path class="cls-21" d="M100.28 100.65v-.81H82.34v.81h17.25V108H82.34v.69h17.25v7.37H82.34v.69h17.25v6.67h.69z"/><path class="cls-4" d="M91 98.69h.69v26H91z"/><path class="cls-4" d="M81.88 115.49h19v.69h-19zm0-8.17h19v.68h-19z"/><path class="cls-23" d="M100.28 98.58h-19.2v1.26h19.2v24.86h1.27V98.58z"/><path d="M108.79 99.84h17.94v23.48h-17.94z" style="fill:url(#Безымянный_градиент_50-17)"/><path class="cls-4" d="M108.22 123.43h19.2v1.27h-19.2z"/><path class="cls-4" d="M107.53 98.58h1.26v26h-1.26z"/><path class="cls-21" d="M126.85 100.65v-.81h-18.06v.81H126V108h-17.21v.69H126v7.37h-17.21v.69H126v6.67h.81z"/><path class="cls-4" d="M117.53 98.69h.69v26h-.69z"/><path class="cls-4" d="M108.33 115.49h19v.69h-19zm0-8.17h19v.68h-19z"/><path class="cls-23" d="M126.85 98.58h-19.32v1.26h19.32v24.86h1.26V98.58z"/><path d="M134.67 99.84h17.94v23.48h-17.94z" style="fill:url(#Безымянный_градиент_50-18)"/><path class="cls-4" d="M134.09 123.43h19.21v1.27h-19.21z"/><path class="cls-4" d="M133.4 98.58h1.27v26h-1.27z"/><path class="cls-21" d="M152.61 100.65v-.81h-17.94v.81h17.25V108h-17.25v.69h17.25v7.37h-17.25v.69h17.25v6.67h.69z"/><path class="cls-4" d="M143.29 98.69h.71v26h-.69z"/><path class="cls-4" d="M134.21 115.49h19v.69h-19zm0-8.17h19v.68h-19z"/><path class="cls-23" d="M152.61 98.58H133.4v1.26h19.21v24.86h1.26V98.58z"/><path d="M134.67 100h17.94v3.91h-17.94z" style="fill:url(#Безымянный_градиент_50-19)"/><path class="cls-4" d="M134.09 123.43h19.21v1.27h-19.21z"/><path class="cls-4" d="M133.4 98.69h1.27v26h-1.27z"/><path class="cls-21" d="M152.61 100h-17.94v.69h17.25v3.22h-17.25v.69h17.25v18.87h.69V100z"/><path class="cls-4" d="M134.21 103.18h19v.69h-19z"/><path class="cls-4" d="M143.29 99.5h.71v4h-.69z"/><path class="cls-23" d="M152.61 98.69H133.4V100h19.21v24.7h1.26v-26z"/><path class="cls-27" d="M134.67 104.56h17.25v18.87h-17.25z"/><path class="cls-4" d="M163.42 25.4H171v1.27h-7.59zm0 38.55H171v1.26h-7.59z"/><path d="M163.42 16.77h10.11a1.82 1.82 0 0 1 1.84 1.84v53.85a1.81 1.81 0 0 1-1.84 1.84h-10.11z" style="fill:url(#Безымянный_градиент_63)"/><path class="cls-44" d="M71.07 18l.23 5.52-4.37 3.68 3.57-4z"/><path class="cls-44" d="M61.18 28.74l3.91-12.2L69 28.74z"/><path class="cls-45" d="M62.68 28.74l2.41-7 2.65 7zm7.47-14.62l-5.06 5.64L60 14.12z"/><path class="cls-44" d="M66.24 16.77l-1.15.81-1-.81z"/><path class="cls-45" d="M60 14.12l2-3.33 1.95 3.33zm6.21 0l2-3.33 2 3.33z"/><path class="cls-44" d="M60.38 14.12L62 11.48l1.61 2.64zm6.32 0l1.5-2.64 1.61 2.64z"/><path class="cls-46" d="M148.7 112.62l.23 5.63-4.37 3.69 3.56-4z"/><path class="cls-46" d="M138.69 123.43l4-12.31 3.91 12.31z"/><path class="cls-47" d="M140.19 123.43l2.53-7 2.64 7zm7.59-14.73l-5.06 5.76-5.18-5.76z"/><path class="cls-46" d="M143.75 111.35l-1 .92-1.15-.92z"/><path class="cls-47" d="M137.54 108.7l2-3.33 1.95 3.33zm6.33 0l1.95-3.33 2 3.33z"/><path class="cls-46" d="M137.89 108.7l1.61-2.64 1.61 2.64zm6.32 0l1.61-2.64 1.61 2.64z"/><path class="cls-48" d="M123.74 49.68l.12 4.72c0 .11 0 .11-.12.23l-3.68 3.1 3-3.33a.42.42 0 0 0 .12-.35z"/><path class="cls-48" d="M113.85 59.8l3.91-12.31 3.91 12.31z"/><path d="M115.35 59.46l2.18-6.1c0-.11.12-.23.23-.11a.11.11 0 0 1 .12.11l2.3 6.1c0 .11 0 .23-.12.23h-4.6c0 .11-.11 0-.11-.23zm5.17-17.15l-1.61 2.77c0 .11-.11.11-.23.11h-2.07a.43.43 0 0 1-.23-.11l-1.61-2.65a.34.34 0 0 0-.46-.12.11.11 0 0 0-.11.12l-1.61 2.65a.21.21 0 0 0 0 .34l4.71 5.29a.34.34 0 0 0 .46 0l4.72-5.29a.22.22 0 0 0 0-.34l-1.61-2.65c0-.23-.12-.35-.35-.12.12-.11 0-.11 0 0z" style="fill:#2ab5b5"/><path class="cls-48" d="M113.28 44.62l1-1.85c.12-.11.23-.23.46-.11 0 0 .12 0 .12.11l1 1.85c.12.11 0 .34-.11.46h-2.3c-.12 0-.35-.12-.23-.35zm6.32 0l1-1.85a.34.34 0 0 1 .46-.11.11.11 0 0 1 .11.11l1 1.85c.11.11 0 .34-.12.46h-2.3a.37.37 0 0 1-.34-.35.11.11 0 0 0 .19-.11zm-.92 3.38l-.8.69h-.12L117 48v-.11h1.72c-.11-.12 0-.12 0 .11z"/><path class="cls-45" d="M86.25 86.73h9a1 1 0 0 1 .92.92v4.95H85.33v-4.95a.91.91 0 0 1 .92-.92z"/><path class="cls-50" d="M87.06 77.41h7.47v7.36a.73.73 0 0 1-.69.69h-6.21a.74.74 0 0 1-.69-.69z"/><path class="cls-50" d="M93.73 79.71h1.61a.49.49 0 0 1 .46.46v1.73a.49.49 0 0 1-.46.46h-1.61a.49.49 0 0 1-.46-.46v-1.73a.49.49 0 0 1 .46-.46zm-7.48 0h1.61a.49.49 0 0 1 .46.46v1.73a.49.49 0 0 1-.46.46h-1.61a.49.49 0 0 1-.46-.46v-1.73a.49.49 0 0 1 .46-.46z"/><g id="men_2" data-name="men 2"><path d="M89.24 85.46h3.11V87h-3.11z" style="fill:#d9a78c"/><path class="cls-44" d="M90.62 87.53l-.46 3.92.58 1 .69-1-.43-3.92z"/><path class="cls-44" d="M91.31 87.53l-.57.58-.58-.58.58-.57z"/><path class="cls-4" d="M90.74 87l-1.5-.58-.46.35.81 1.72zm0 0l1.61-.58.46.35-.81 1.68z"/><path class="cls-44" d="M87.4 90.87h2v.34h-2zm4.83 0h2v.34h-2z"/></g><path class="cls-44" d="M92.81 75.11a.37.37 0 0 1-.35.34h-.23a.36.36 0 0 1-.34-.34.37.37 0 0 0-.35-.35h-4.6a.37.37 0 0 0-.34.35v5.4h.34v-2.07a.37.37 0 0 1 .35-.34h6.9a.36.36 0 0 1 .34.34v2.07h.35v-5.4a.37.37 0 0 0-.35-.35h-1.38c-.15 0-.23.12-.34.35z"/><path class="cls-4" d="M89.36 83.51h2.76V84h-2.76z"/><path class="cls-10" d="M246.1 92.6c-.12 10.81 3.1 11.62-20.24 11.62-11.16 0-20.24-.81-20.24-11.62a19.94 19.94 0 0 1 20.24-19.68c11.27 0 20.47 5.52 20.24 19.68z"/><path class="cls-11" d="M204.35 93.06a9.13 9.13 0 0 1 3.91-4.15 8.34 8.34 0 0 1 .12 5.53 9.15 9.15 0 0 1-3.91 4.14 8.29 8.29 0 0 1-.12-5.52z"/><path class="cls-11" d="M203.09 91.1a5.71 5.71 0 0 1 3.68.23 5.43 5.43 0 0 1-2.42 2.67 5.78 5.78 0 0 1-3.68-.23 4.58 4.58 0 0 1 2.42-2.67z"/><path class="cls-11" d="M238.62 94.21h-20.35c-16.68 0-21.74-.81-21.74-12.89s10.93-22 23.46-22c10.93 0 22.89 7.94 16.68 7.94-4.83.14 1.95 26.95 1.95 26.95z"/><path d="M230.69 76.83s-4.26.81-2 5.53c-2.53 2.41-7.13 2.53-12.53 2.53-8 0-14.49-.35-14.49-8.06a14.5 14.5 0 0 1 29 0z" style="fill:#85913d"/><path class="cls-12" d="M239.2 65.44a8.18 8.18 0 0 0-7.48 4.6 1.26 1.26 0 0 1-1.15.69 1.24 1.24 0 0 1-1.26-1v-.23a5.85 5.85 0 0 0 .11-1.38 11 11 0 0 0-22-.23c-.12 6 2.07 10.93 8.16 10.93h23.46c4.6 0 8.28-.81 8.28-5.29a8.25 8.25 0 0 0-8.12-8.09z"/><path class="cls-12" d="M208.26 76.26c-3.22-2.65-3.68-7.37-3.68-7.37s4.83-.34 8 2.42 3.68 7.36 3.68 7.36-4.78.33-8-2.41z"/><circle cx="196.65" cy="86.38" r="1.27" style="fill:#80cfff"/><g id="_Group_52" data-name=" Group 52"><path id="_Path_179" data-name=" Path 179" class="cls-54" d="M9 88.22h3.91l1.49-8.51H7.48z"/><path id="_Compound_Path_8" data-name=" Compound Path 8" class="cls-55" d="M14.27 79.25l-2.65-2.42v-1.61h-1.26v1.61l-2.65 2.42H6.22v.92h1.15l1.49 8.51h1.27V124H8.75v13.11h4.37V124h-1.27V88.57h1.27l1.49-8.52h1.15v-.8zM9 87.42l-1.29-7.37h3v7.37zm3.91 0h-1.75v-7.37h3z"/></g><g id="_Group_52-2" data-name=" Group 52-2"><path id="_Path_179-2" data-name=" Path 179-2" class="cls-54" d="M206.65 88.22h3.91l1.5-8.51h-6.79z"/><path id="_Compound_Path_8-2" data-name=" Compound Path 8-2" class="cls-55" d="M211.94 79.25l-2.64-2.42v-1.61H208v1.61l-2.64 2.42h-1.5v.92H205l1.5 8.51h1.26V124h-1.26v13.11h4.37V124h-1.27V88.57h1.27l1.49-8.52h1.15v-.8zm-5.29 8.17l-1.26-7.37h3v7.37zm3.91 0h-1.72v-7.37h3z"/></g><circle class="cls-56" cx="168.25" cy="61.53" r="0.46"/><circle class="cls-56" cx="168.25" cy="62.68" r="0.46"/><circle class="cls-56" cx="168.25" cy="64.87" r="0.46"/><circle class="cls-56" cx="168.25" cy="63.72" r="0.46"/><circle class="cls-56" cx="168.25" cy="66.02" r="0.46"/><circle class="cls-56" cx="169.28" cy="66.02" r="0.46"/><circle class="cls-56" cx="171.58" cy="66.02" r="0.46"/><circle class="cls-56" cx="170.43" cy="66.02" r="0.46"/><circle class="cls-56" cx="168.25" cy="52.21" r="0.46"/><circle class="cls-56" cx="168.25" cy="53.25" r="0.46"/><circle class="cls-56" cx="168.25" cy="55.55" r="0.46"/><circle class="cls-56" cx="168.25" cy="54.4" r="0.46"/><circle class="cls-56" cx="168.25" cy="56.7" r="0.46"/><circle class="cls-56" cx="169.28" cy="54.4" r="0.46"/><circle class="cls-56" cx="170.43" cy="54.4" r="0.46"/><circle class="cls-56" cx="169.28" cy="56.7" r="0.46"/><circle class="cls-56" cx="171.58" cy="56.7" r="0.46"/><circle class="cls-56" cx="170.43" cy="56.7" r="0.46"/><circle class="cls-56" cx="169.28" cy="52.21" r="0.46"/><circle class="cls-56" cx="171.58" cy="52.21" r="0.46"/><circle class="cls-56" cx="170.43" cy="52.21" r="0.46"/><circle class="cls-56" cx="169.63" cy="42.77" r="0.46"/><circle class="cls-56" cx="169.63" cy="43.81" r="0.46"/><circle class="cls-56" cx="169.63" cy="46.11" r="0.46"/><circle class="cls-56" cx="169.63" cy="44.96" r="0.46"/><circle class="cls-56" cx="169.63" cy="47.26" r="0.46"/><circle class="cls-56" cx="167.33" cy="42.77" r="0.46"/><circle class="cls-56" cx="168.48" cy="42.77" r="0.46"/><circle class="cls-56" cx="170.78" cy="42.77" r="0.46"/><circle class="cls-56" cx="171.93" cy="42.77" r="0.46"/><circle class="cls-56" cx="167.9" cy="23.79" r="0.46"/><circle class="cls-56" cx="167.9" cy="24.94" r="0.46"/><circle class="cls-56" cx="167.9" cy="27.24" r="0.46"/><circle class="cls-56" cx="167.9" cy="26.09" r="0.46"/><circle class="cls-56" cx="167.9" cy="28.39" r="0.46"/><circle class="cls-56" cx="171.35" cy="23.79" r="0.46"/><circle class="cls-56" cx="171.35" cy="24.94" r="0.46"/><circle class="cls-56" cx="171.35" cy="27.24" r="0.46"/><circle class="cls-56" cx="171.35" cy="26.09" r="0.46"/><circle class="cls-56" cx="171.35" cy="28.39" r="0.46"/><circle class="cls-56" cx="169.05" cy="26.09" r="0.46"/><circle class="cls-56" cx="170.2" cy="26.09" r="0.46"/><circle class="cls-56" cx="169.74" cy="33.45" r="0.46"/><circle class="cls-56" cx="169.74" cy="37.71" r="0.46"/><circle class="cls-56" cx="167.56" cy="35.64" r="0.46"/><circle class="cls-56" cx="167.92" cy="36.66" r="0.46" transform="matrix(1, -0.02, 0.02, 1, -0.6, 2.87)"/><circle class="cls-56" cx="168.73" cy="37.45" r="0.46" transform="translate(-0.61 2.89) rotate(-0.98)"/><circle class="cls-56" cx="168.71" cy="33.77" r="0.46" transform="translate(-0.42 2.16) rotate(-0.73)"/><circle class="cls-56" cx="167.92" cy="34.58" r="0.46" transform="matrix(1, -0.02, 0.02, 1, -0.53, 2.69)"/><circle class="cls-56" cx="171.93" cy="35.64" r="0.46"/><circle class="cls-56" cx="171.61" cy="36.7" r="0.46" transform="translate(-0.6 2.94) rotate(-0.98)"/><circle class="cls-56" cx="170.82" cy="37.51" r="0.46" transform="translate(-0.62 2.92) rotate(-0.98)"/><circle class="cls-56" cx="170.81" cy="33.83" r="0.46" transform="translate(-0.42 2.19) rotate(-0.73)"/><circle class="cls-56" cx="171.61" cy="34.62" r="0.46" transform="translate(-0.53 2.75) rotate(-0.92)"/></g></svg>