<svg xmlns="http://www.w3.org/2000/svg" viewBox="0 0 210 125"><defs><linearGradient id="a" x1="48.3" y1="122.5" x2="113.3" y2="57.5" gradientUnits="userSpaceOnUse"><stop offset="0" stop-opacity="0"/><stop offset=".7"/></linearGradient></defs><path fill="#fbba01" d="M0 0h210v125H0z"/><g opacity=".5"><path fill="#ffa022" d="M17.3.5h44.5V125H17.3zm65.5 0h44.5V125H82.8zm65.5 0h44.5V125h-44.5z"/><path fill="#fbba01" d="M28.4.3h3.2v124.8h-3.2zm19 0h3.2v124.8h-3.2z"/><ellipse cx="39.5" cy="4.1" rx="3.4" ry="3.5" fill="#fbba01"/><ellipse cx="39.5" cy="20.4" rx="3.4" ry="3.5" fill="#fbba01"/><ellipse cx="39.5" cy="36.7" rx="3.4" ry="3.5" fill="#fbba01"/><ellipse cx="39.5" cy="53" rx="3.4" ry="3.5" fill="#fbba01"/><ellipse cx="39.5" cy="69.3" rx="3.4" ry="3.5" fill="#fbba01"/><ellipse cx="39.5" cy="85.6" rx="3.4" ry="3.5" fill="#fbba01"/><ellipse cx="39.5" cy="101.9" rx="3.4" ry="3.5" fill="#fbba01"/><ellipse cx="39.5" cy="118.2" rx="3.4" ry="3.5" fill="#fbba01"/><path fill="#fbba01" d="M93.9.3h3.2v124.8h-3.2zm19.1 0h3.2v124.8H113z"/><ellipse cx="105" cy="4.1" rx="3.4" ry="3.5" fill="#fbba01"/><ellipse cx="105" cy="20.4" rx="3.4" ry="3.5" fill="#fbba01"/><ellipse cx="105" cy="36.7" rx="3.4" ry="3.5" fill="#fbba01"/><ellipse cx="105" cy="53" rx="3.4" ry="3.5" fill="#fbba01"/><ellipse cx="105" cy="69.3" rx="3.4" ry="3.5" fill="#fbba01"/><ellipse cx="105" cy="85.6" rx="3.4" ry="3.5" fill="#fbba01"/><ellipse cx="105" cy="101.9" rx="3.4" ry="3.5" fill="#fbba01"/><ellipse cx="105" cy="118.2" rx="3.4" ry="3.5" fill="#fbba01"/><path fill="#fbba01" d="M159.4.3h3.2v124.8h-3.2zm19.1 0h3.2v124.8h-3.2z"/><ellipse cx="170.5" cy="4.1" rx="3.4" ry="3.5" fill="#fbba01"/><ellipse cx="170.5" cy="20.4" rx="3.4" ry="3.5" fill="#fbba01"/><ellipse cx="170.5" cy="36.7" rx="3.4" ry="3.5" fill="#fbba01"/><ellipse cx="170.5" cy="53" rx="3.4" ry="3.5" fill="#fbba01"/><ellipse cx="170.5" cy="69.3" rx="3.4" ry="3.5" fill="#fbba01"/><ellipse cx="170.5" cy="85.6" rx="3.4" ry="3.5" fill="#fbba01"/><ellipse cx="170.5" cy="101.9" rx="3.4" ry="3.5" fill="#fbba01"/><ellipse cx="170.5" cy="118.2" rx="3.4" ry="3.5" fill="#fbba01"/></g><path d="M203.3 106c-1.5-2-4-3-4.4-5.7a6.7 6.7 0 0 1 2.5-6.3h-7.2c7-4.3 5.9-8.9 5.9-8.9-8.5 2.4-7.5 7.4-7 8.9h-1.4a19.8 19.8 0 0 0-8.8-14.3 2.7 2.7 0 0 0 0-.2s0-5.5-8.5-5.9c-6-.2-5.4-1.4-5.4-1.4s-1 2 1.7 3.6l-3.7 3.4 3.6 3.6c-2.8 1.5-1.8 3.5-1.8 3.5s-.5-1.2 5.5-1.3c5.4 0 7.4-2.3 8.2-3.9a18.1 18.1 0 0 1 7.8 12.9h-5a6.7 6.7 0 0 1 2.5 6.3c-.4 2.7-2.9 3.8-4.4 5.7-3.1 4.2-2.5 8.5-.4 12.8 1 2 2 4.8 3.6 6.2h13.6c1.6-1.4 2.6-4.3 3.5-6.2 2.2-4.3 2.8-8.6-.4-12.8zM2.2 121.1L16 73.8l13.4 4L15.6 125zM40 86V74H30v51h21V86H40z" fill="#f29400"/><path d="M46.8 25v82h116V25zm109 75h-102V32h102z" fill="#57371e"/><path fill="#f14c74" d="M54 32h102v68H54z"/><path fill="#713616" d="M79.7 25.6l25-18 .6.8-25 18z"/><path fill="#713616" d="M104.7 8.4l.6-.8 25 18-.6.8z"/><circle cx="105.5" cy="9.5" r="2.5" fill="#ffecb7"/><path opacity=".1" fill="url(#a)" d="M46.8 25l-7 7v82h116l7-7h-116V25z"/></svg>