<svg id="Слой_1" data-name="Слой 1" xmlns="http://www.w3.org/2000/svg" xmlns:xlink="http://www.w3.org/1999/xlink" viewBox="0 0 210 125"><defs><style>.cls-1,.cls-7,.cls-8{fill:none}.cls-3{fill:#031233}.cls-7,.cls-8{stroke:#fff;stroke-width:.93px}.cls-7{stroke-miterlimit:10}.cls-8{stroke-linecap:round;stroke-linejoin:round}.cls-11{fill:#fff}.cls-12{opacity:.7}.cls-13{opacity:.5}.cls-14{opacity:.6}.cls-18{fill:#28221f}.cls-19{fill:#efab7d}.cls-20{fill:#f22525}.cls-21{fill:#1c2833}.cls-22{fill:#d11313}.cls-25{fill:#42352d}.cls-27{fill:#283749}.cls-28{fill:#553b17}.cls-29{fill:#ff4040}.cls-30{fill:#723222}.cls-33{fill:#ececec}</style><clipPath id="clip-path"><rect class="cls-1" width="210" height="125"/></clipPath><linearGradient id="Безымянный_градиент_26" x1="-16.38" y1="-446.21" x2="208.99" y2="-836.57" gradientTransform="matrix(1, 0, 0, -1, 0, -502.33)" gradientUnits="userSpaceOnUse"><stop offset="0" stop-color="#324d1f"/><stop offset="0.3" stop-color="#426229"/><stop offset="0.93" stop-color="#6d9841"/><stop offset="1" stop-color="#729f44"/></linearGradient><linearGradient id="Безымянный_градиент_25" x1="77.18" y1="-539.12" x2="135.14" y2="-539.12" gradientTransform="matrix(1, 0, 0, -1, 0, -502.33)" gradientUnits="userSpaceOnUse"><stop offset="0" stop-color="#fff"/><stop offset="0.51" stop-color="#fff"/><stop offset="1" stop-color="#fff"/></linearGradient><linearGradient id="Безымянный_градиент_24" x1="503.59" y1="-529.09" x2="110.79" y2="-529.09" gradientTransform="matrix(1, 0, 0, -1, 0, -502.33)" gradientUnits="userSpaceOnUse"><stop offset="0" stop-color="#55a7d7"/><stop offset="0.14" stop-color="#55a7d7" stop-opacity="0.95"/><stop offset="0.38" stop-color="#55a7d7" stop-opacity="0.83"/><stop offset="0.69" stop-color="#55a7d7" stop-opacity="0.63"/><stop offset="1" stop-color="#55a7d7" stop-opacity="0.4"/></linearGradient><clipPath id="clip-path-2"><path class="cls-1" d="M59.81 38a1.9 1.9 0 0 0 3.78 0z"/></clipPath><clipPath id="clip-path-3"><circle class="cls-1" cx="106.47" cy="95.92" r="5.87"/></clipPath></defs><title>icon</title><g style="clip-path:url(#clip-path)"><path class="cls-3" d="M426.73-66s-60.33 28.78-84.91 37.19-51.15 16.72-87 20.09c-33.83 3.18-133 4-144.24 4.13C99.31-4.68.13-5.54-33.7-8.72c-35.88-3.37-62.45-11.68-87-20.09S-205.64-66-205.64-66l-.2 112.13S-81.65 47.73-25 47.34c51.27-.35 121.55-.07 134.48 0h2.09c12.93-.06 83.2-.34 134.48 0 56.67.39 180.86-1.26 180.86-1.26z"/><rect x="-205.84" y="53.21" width="632.74" height="155.48" style="fill:#b9d354"/><polygon points="111.59 46.08 109.5 46.08 -205.84 46.08 -205.84 53.21 109.5 53.21 111.59 53.21 426.93 53.21 426.93 46.08 111.59 46.08" style="fill:#55a6d6"/><g style="opacity:.2"><path class="cls-7" d="M-205.84-36.69s85.4 39.21 159.52 42.9S113 9.89 113 9.89"/><path class="cls-7" d="M-206.15-31.3S-120.44 6-46.32 9.63s157.4 3.68 157.4 3.68"/><path class="cls-7" d="M-205.84-24.87s85.4 34.46 159.52 38.15S111.08 17 111.08 17"/><path class="cls-7" d="M-205.84-17.52s85.4 30.69 159.52 34.37 157.41 3.68 157.41 3.68"/><path class="cls-7" d="M-205.64-12s85.2 28.69 159.32 32.38S111.09 24 111.09 24"/><path class="cls-8" d="M-205.84-5.89s85.4 26 159.52 29.72 157.41 3.68 157.41 3.68"/><path class="cls-8" d="M-205.84 1.45s85.91 22.16 160 26.16 156.9 4.24 156.9 4.24"/><path class="cls-8" d="M-205.84 9.47S-119.93 27-45.84 31s156.9 3.92 156.9 3.92"/><path class="cls-8" d="M-205.84 19.39s85.91 11.62 160 15.33 156.9 3.71 156.9 3.71"/><path class="cls-8" d="M-206.82 29.86s86.38 4.82 160.49 8.5S111.08 42 111.08 42"/><path class="cls-8" d="M-205.48 39.14s81.54 1.11 159.15 2.65c74.19 1.47 157.41 2 157.41 2"/><path class="cls-7" d="M426.93-36.69S341.53 2.52 267.41 6.2 108.14 9.89 108.14 9.89"/><path class="cls-7" d="M427.24-31.3S341.53 6 267.41 9.63 110 13.31 110 13.31"/><path class="cls-7" d="M426.93-24.87s-85.4 34.46-159.52 38.15S110 17 110 17"/><path class="cls-7" d="M426.93-17.52s-85.4 30.69-159.52 34.37S110 20.54 110 20.54"/><path class="cls-7" d="M426.73-12s-85.2 28.69-159.32 32.38S110 24 110 24"/><path class="cls-8" d="M426.93-5.89s-85.4 26-159.52 29.72S110 27.51 110 27.51"/><path class="cls-8" d="M426.93 1.45S341 23.61 266.91 27.61 110 31.85 110 31.85"/><path class="cls-8" d="M426.93 9.47S341 27 266.91 31 110 34.87 110 34.87"/><path class="cls-8" d="M426.93 19.39S341 31 266.91 34.71 110 38.42 110 38.42"/><path class="cls-8" d="M427.91 29.86s-86.38 4.82-160.49 8.5S110 42.05 110 42.05"/><path class="cls-8" d="M426.57 39.14S345 40.25 267.41 41.79c-74.19 1.47-157.41 2-157.41 2"/></g><path d="M119.81 53.21s-22.6.64-71.81 10.61S-19.91 79.45-27 82s-50.12 77.44 61.67 72.53c119.17-5.23 391.76-36.14 391.76-36.14v90.31h-632l-.19-155.48H112.1" style="fill:url(#Безымянный_градиент_26)"/><g style="opacity:.8"><path class="cls-11" d="M126 53.2h-.79V29.42a.26.26 0 0 0-.22-.28H87.27a.26.26 0 0 0-.22.28V53.2h-.79V29.42a1 1 0 0 1 .93-1.07H125a1 1 0 0 1 1 1V53.2z"/></g><g class="cls-12"><rect class="cls-11" x="82.31" y="24.71" width="0.26" height="11.59" transform="translate(5.19 72.44) rotate(-48.8)"/></g><g class="cls-12"><rect class="cls-11" x="82.31" y="19.42" width="0.26" height="11.59" transform="translate(9.17 70.64) rotate(-48.8)"/></g><g class="cls-12"><rect class="cls-11" x="88.67" y="19.23" width="0.25" height="10.85" transform="matrix(0.75, -0.66, 0.66, 0.75, 5.73, 64.56)"/></g><g class="cls-12"><rect class="cls-11" x="95.13" y="19.75" width="0.23" height="9.99" transform="translate(1.55 54.82) rotate(-32.36)"/></g><g class="cls-12"><rect class="cls-11" x="102.16" y="20.35" width="0.19" height="8.56" transform="translate(-2.8 29.75) rotate(-16.33)"/></g><g class="cls-12"><rect class="cls-11" x="118.25" y="24.53" width="10.85" height="0.25" transform="matrix(0.66, -0.75, 0.75, 0.66, 23.7, 101.52)"/></g><g class="cls-12"><rect class="cls-11" x="112.24" y="24.63" width="9.99" height="0.23" transform="matrix(0.54, -0.84, 0.84, 0.54, 33.6, 110.54)"/></g><g class="cls-12"><rect class="cls-11" x="105.93" y="24.55" width="8.56" height="0.19" transform="translate(55.58 123.48) rotate(-73.67)"/></g><g class="cls-12"><rect class="cls-11" x="82.33" y="30.6" width="0.26" height="11.59" transform="translate(0.76 74.45) rotate(-48.79)"/></g><g class="cls-12"><rect class="cls-11" x="82.32" y="36.2" width="0.26" height="11.59" transform="translate(-3.46 76.37) rotate(-48.8)"/></g><g class="cls-12"><rect class="cls-11" x="82.32" y="41.8" width="0.26" height="11.59" transform="translate(-7.67 78.28) rotate(-48.8)"/></g><g class="cls-12"><rect class="cls-11" x="124.22" y="30.38" width="11.59" height="0.26" transform="translate(12.09 93.19) rotate(-41.2)"/></g><g class="cls-12"><rect class="cls-11" x="124.22" y="25.15" width="11.59" height="0.26" transform="translate(15.54 91.9) rotate(-41.2)"/></g><g class="cls-12"><rect class="cls-11" x="124.22" y="36.25" width="11.59" height="0.26" transform="translate(8.22 94.65) rotate(-41.2)"/></g><g class="cls-12"><rect class="cls-11" x="124.22" y="41.87" width="11.59" height="0.26" transform="translate(4.53 96.04) rotate(-41.2)"/></g><g class="cls-12"><rect class="cls-11" x="124.21" y="47.47" width="11.59" height="0.26" transform="translate(0.85 97.44) rotate(-41.21)"/></g><g class="cls-13"><rect class="cls-11" x="86.77" y="45.68" width="39" height="0.26"/></g><g class="cls-13"><rect class="cls-11" x="86.77" y="50.69" width="39" height="0.26"/></g><g class="cls-13"><rect class="cls-11" x="86.66" y="39.92" width="39" height="0.26"/></g><g class="cls-13"><rect class="cls-11" x="86.66" y="34.19" width="39" height="0.26"/></g><g class="cls-14"><rect class="cls-11" x="82.45" y="25.02" width="47.56" height="0.26"/></g><g class="cls-13"><rect class="cls-11" x="103.33" y="28.78" width="0.26" height="24.44"/></g><g class="cls-13"><rect class="cls-11" x="97.78" y="28.78" width="0.26" height="24.44"/></g><g class="cls-13"><rect class="cls-11" x="92.23" y="28.78" width="0.26" height="24.44"/></g><g class="cls-14"><rect class="cls-11" x="82.32" y="25.15" width="0.28" height="28.06"/></g><g class="cls-14"><rect class="cls-11" x="129.87" y="25.15" width="0.28" height="28.06"/></g><g class="cls-13"><rect class="cls-11" x="119.98" y="28.78" width="0.26" height="24.44"/></g><g class="cls-13"><rect class="cls-11" x="114.43" y="28.78" width="0.26" height="24.44"/></g><g class="cls-13"><rect class="cls-11" x="108.88" y="28.78" width="0.26" height="24.44"/></g><path d="M135.13 53.19h-1.83V22.25H79v30.94h-1.82v-31a1.8 1.8 0 0 1 1.8-1.8h54.36a1.8 1.8 0 0 1 1.8 1.8z" style="fill:url(#Безымянный_градиент_25)"/><g class="cls-14"><path class="cls-11" d="M175.49 68.86H37.84a.69.69 0 0 1-.69-.67v-.13l15-14.84H53l-.18.18-15 14.86h137.66l-16.57-15h.92l16.36 14.84v.14a.69.69 0 0 1-.7.62z"/></g><g class="cls-14"><path class="cls-11" d="M158.55 61.62H54.78a.59.59 0 0 1-.52-.62v-.12l6.44-7.69h.66l-6.58 7.86h103.76l-7.11-7.83h.69l6.95 7.65V61a.58.58 0 0 1-.5.65z"/></g><line x1="-205" y1="101.76" x2="426.39" y2="101.76" style="stroke-width:1.23px;stroke-linecap:round;stroke-linejoin:round;stroke:#fff;fill:none"/><ellipse class="cls-8" cx="106.7" cy="101.7" rx="59.34" ry="14.03"/><g class="cls-14"><path class="cls-11" d="M106.67 72.54c-7.15 0-14.76-1.31-14.76-3.72a.31.31 0 1 1 .62 0c0 1.47 5.81 3.11 14.14 3.11s14.14-1.64 14.14-3.11a.31.31 0 1 1 .62 0c-.01 2.41-7.61 3.72-14.76 3.72z"/></g><path d="M306.67 5.3C57.56 25.08 117 53.21 117 53.21h309.9V.47c-28.72-.62-67.41.64-120.23 4.83z" style="fill:url(#Безымянный_градиент_24)"/><path id="_Path_" data-name=" Path " class="cls-18" d="M108.9 90.63a.47.47 0 0 0 .46-.46v-1a.46.46 0 0 0-.46-.46.47.47 0 0 0-.46.46v1a.47.47 0 0 0 .46.46z"/><path id="_Path_2" data-name=" Path 2" class="cls-18" d="M107.61 90.63a.47.47 0 0 0 .46-.46v-1a.46.46 0 0 0-.46-.46.47.47 0 0 0-.46.46v1a.47.47 0 0 0 .46.46z"/><path id="_Path_3" data-name=" Path 3" class="cls-18" d="M105.17 90.63a.47.47 0 0 0 .46-.46v-1a.46.46 0 0 0-.46-.46.47.47 0 0 0-.46.46v1a.47.47 0 0 0 .46.46z"/><path id="_Path_4" data-name=" Path 4" class="cls-18" d="M103.88 90.63a.47.47 0 0 0 .46-.46v-1a.46.46 0 0 0-.46-.46.47.47 0 0 0-.46.46v1a.47.47 0 0 0 .46.46z"/><path id="_Path_5" data-name=" Path 5" class="cls-19" d="M104.14 88.25a1.91 1.91 0 0 0 1.86-1.37L109.1 76a1.89 1.89 0 0 0-.86-2.16L99.94 69A1.9 1.9 0 0 0 98 72.2l7 4.16-2.72 9.46a1.9 1.9 0 0 0 1.29 2.35 2 2 0 0 0 .54.08z"/><rect id="_Path_6" data-name=" Path 6" class="cls-11" x="101.22" y="80.56" width="8.04" height="3.85" transform="translate(-3.13 160.8) rotate(-73.94)"/><rect id="_Path_7" data-name=" Path 7" class="cls-20" x="105.53" y="77.85" width="1.01" height="3.85" transform="translate(0.04 159.6) rotate(-73.94)"/><g id="_Group_" data-name=" Group "><path id="_Path_8" data-name=" Path 8" class="cls-21" d="M111 87.74a2 2 0 0 1-2 2h-3a3.87 3.87 0 0 1-3.87-3.87v-.21H109a2 2 0 0 1 2 2z"/></g><rect id="_Path_9" data-name=" Path 9" class="cls-22" x="98.71" y="68.38" width="3.91" height="6.39" transform="translate(-12.19 121.77) rotate(-59.39)"/><path id="_Path_10" data-name=" Path 10" class="cls-18" d="M91.91 101.77a.47.47 0 0 1-.46-.46v-1a.46.46 0 0 1 .46-.46.47.47 0 0 1 .46.46v1a.47.47 0 0 1-.46.46z"/><path id="_Path_11" data-name=" Path 11" class="cls-18" d="M93.2 101.77a.47.47 0 0 1-.46-.46v-1a.46.46 0 0 1 .46-.46.47.47 0 0 1 .46.46v1a.47.47 0 0 1-.46.46z"/><path id="_Path_12" data-name=" Path 12" class="cls-18" d="M95.63 101.77a.47.47 0 0 1-.46-.46v-1a.46.46 0 0 1 .46-.46.47.47 0 0 1 .46.46v1a.47.47 0 0 1-.46.46z"/><path id="_Path_13" data-name=" Path 13" class="cls-18" d="M96.92 101.77a.47.47 0 0 1-.46-.46v-1a.46.46 0 0 1 .46-.46.47.47 0 0 1 .46.46v1a.47.47 0 0 1-.46.46z"/><g id="_Group_2" data-name=" Group 2"><path id="_Path_14" data-name=" Path 14" class="cls-19" d="M101.61 37.22A5.8 5.8 0 0 1 90 37.7a3.84 3.84 0 0 1 0-.48v-7.13h11.59z"/></g><g id="_Group_3" data-name=" Group 3"><path d="M88.55 30.4a4.8 4.8 0 0 1 4.8-4.8h2.19a9.68 9.68 0 0 1 6.62 2.62 1.22 1.22 0 0 1 .06 1.72 1.2 1.2 0 0 1-.89.39h-6.46a2.34 2.34 0 0 0-2.33 2.35v3.85h-2.06a1.93 1.93 0 0 1-1.93-1.93z" style="fill:#db8f1f"/></g><g id="_Group_4" data-name=" Group 4"><path id="_Path_15" data-name=" Path 15" class="cls-19" d="M100.93 65.81a1.57 1.57 0 0 1-1.17-2.61l5.09-5.71-7.2-7.49a1.57 1.57 0 0 1 2.27-2.17l9.2 9.63-7 7.86a1.55 1.55 0 0 1-1.19.49z"/></g><g id="_Group_5" data-name=" Group 5"><path id="_Path_16" data-name=" Path 16" d="M100.43 47.3l7.95 8.82.09.1a1.85 1.85 0 0 1 0 2.52l-4.28 4.44a1.7 1.7 0 0 1-2.58-2.18l3.92-4.76v2.62l-8.45-8.34a2.28 2.28 0 1 1 3.21-3.25z" style="fill:#dadada"/></g><g id="_Group_6" data-name=" Group 6"><ellipse id="_Path_17" data-name=" Path 17" class="cls-25" cx="95.52" cy="33.46" rx="0.52" ry="0.78"/></g><g id="_Group_7" data-name=" Group 7"><ellipse id="_Path_18" data-name=" Path 18" class="cls-25" cx="99.2" cy="33.46" rx="0.52" ry="0.78"/></g><g id="_Group_8" data-name=" Group 8"><rect id="_Rectangle_2" data-name=" Rectangle 2" class="cls-19" x="93.08" y="41.37" width="3.59" height="7.41"/></g><g id="_Group_9" data-name=" Group 9"><path id="_Path_19" data-name=" Path 19" d="M99.92 65h-9.79V49.06a2.62 2.62 0 0 1 2.62-2.62h4.54a2.62 2.62 0 0 1 2.62 2.62z" style="fill:#ededed"/></g><g id="_Group_10" data-name=" Group 10"><ellipse id="_Path_20" data-name=" Path 20" class="cls-19" cx="89.69" cy="34.85" rx="1.45" ry="1.71" transform="translate(-5.51 20.85) rotate(-12.87)"/></g><g id="_Group_11" data-name=" Group 11"><path id="_Path_21" data-name=" Path 21" class="cls-19" d="M92.08 100.65a2 2 0 0 1-2-2V68a2 2 0 0 1 4 0v30.65a2 2 0 0 1-2 2z"/></g><g id="_Group_12" data-name=" Group 12"><rect id="_Path_22" data-name=" Path 22" class="cls-11" x="90.09" y="86.55" width="3.96" height="12.1"/></g><g id="_Group_13" data-name=" Group 13"><rect id="_Path_23" data-name=" Path 23" class="cls-20" x="90.05" y="67.96" width="4.05" height="9.27"/></g><g id="_Group_14" data-name=" Group 14"><path id="_Rectangle_3" data-name=" Rectangle 3" class="cls-20" d="M90.13 65h9.79v3.36a3.48 3.48 0 0 1-3.48 3.48h-2.83a3.48 3.48 0 0 1-3.48-3.48z"/></g><g id="_Group_15" data-name=" Group 15"><path id="_Path_24" data-name=" Path 24" class="cls-19" d="M89.32 68.43a1.57 1.57 0 0 1-1.32-.77l-6.14-10.28 8.82-9.6A1.57 1.57 0 1 1 93 49.9l-7.24 7.88 4.92 8.28a1.57 1.57 0 0 1-.55 2.15 1.6 1.6 0 0 1-.8.22z"/></g><g id="_Group_16" data-name=" Group 16"><path id="_Path_25" data-name=" Path 25" class="cls-11" d="M93.51 50.38l-8.29 8.5.24-2.3 3.92 7.06a1.7 1.7 0 0 1-2.92 1.73l-4.32-6.8a1.87 1.87 0 0 1 .16-2.21l.08-.09 7.78-9a2.29 2.29 0 1 1 3.45 3z"/></g><g id="_Group_17" data-name=" Group 17"><path id="_Path_26" data-name=" Path 26" class="cls-11" d="M97 40.32a2.41 2.41 0 0 0 2.61-2.12h-5.25A2.41 2.41 0 0 0 97 40.32z"/></g><g id="_Group_18" data-name=" Group 18"><path id="_Path_27" data-name=" Path 27" class="cls-19" d="M91.16 34.81a1.65 1.65 0 0 0-1.65-1.65v.22H90v3.87h1.14z"/></g><g id="_Group_19" data-name=" Group 19"><g id="_Group_20" data-name=" Group 20"><path id="_Path_28" data-name=" Path 28" class="cls-27" d="M99.39 98.65a2.14 2.14 0 0 1-2.14 2.14H91.6a1.52 1.52 0 0 1-1.52-1.52v-2.76h7.17a2.14 2.14 0 0 1 2.14 2.14z"/></g></g><rect id="_Path_29" data-name=" Path 29" class="cls-20" x="90.16" y="87.66" width="3.84" height="1.3"/><g id="_Group_21" data-name=" Group 21"><path class="cls-19" d="M186.6 100.42a1.9 1.9 0 0 1-1.9-1.9v-27.8a1.9 1.9 0 0 1 3.79 0v27.8a1.9 1.9 0 0 1-1.89 1.9z"/></g><g id="_Group_22" data-name=" Group 22"><path class="cls-18" d="M182.3 101.88a.55.55 0 0 1-.55-.55v-1.12a.55.55 0 1 1 1.09-.15.38.38 0 0 1 0 .15v1.12a.55.55 0 0 1-.54.55z"/></g><g id="_Group_23" data-name=" Group 23"><path class="cls-18" d="M183.82 101.88a.55.55 0 0 1-.55-.55v-1.12a.55.55 0 1 1 1.09-.15.38.38 0 0 1 0 .15v1.12a.55.55 0 0 1-.54.55z"/></g><g id="_Group_24" data-name=" Group 24"><path class="cls-18" d="M186.31 101.88a.55.55 0 0 1-.55-.55v-1.12a.55.55 0 1 1 1.09-.15.38.38 0 0 1 0 .15v1.12a.55.55 0 0 1-.54.55z"/></g><g id="_Group_25" data-name=" Group 25"><path class="cls-18" d="M187.83 101.88a.55.55 0 0 1-.55-.55v-1.12a.55.55 0 1 1 1.09-.15.38.38 0 0 1 0 .15v1.12a.55.55 0 0 1-.54.55z"/></g><g id="_Group_26" data-name=" Group 26"><g id="_Group_27" data-name=" Group 27"><path class="cls-21" d="M179.82 98.89a2 2 0 0 0 2 2h6.82v-4h-6.82a2 2 0 0 0-2 2z"/></g></g><g id="_Group_28" data-name=" Group 28"><rect class="cls-21" x="184.65" y="69.98" width="3.9" height="8.89"/></g><g id="_Group_29" data-name=" Group 29"><rect class="cls-11" x="184.68" y="86.01" width="3.84" height="1.3"/></g><g id="_Group_30" data-name=" Group 30"><path id="_Path_30" data-name=" Path 30" class="cls-18" d="M55.65 102.14a.47.47 0 0 1-.46-.46v-1a.46.46 0 0 1 .92 0v1a.47.47 0 0 1-.46.46z"/></g><g id="_Group_31" data-name=" Group 31"><path id="_Path_31" data-name=" Path 31" class="cls-18" d="M56.94 102.14a.47.47 0 0 1-.46-.46v-1a.46.46 0 0 1 .92 0v1a.47.47 0 0 1-.46.46z"/></g><g id="_Group_32" data-name=" Group 32"><path id="_Path_32" data-name=" Path 32" class="cls-18" d="M59.37 102.14a.47.47 0 0 1-.46-.46v-1a.46.46 0 0 1 .92 0v1a.47.47 0 0 1-.46.46z"/></g><g id="_Group_33" data-name=" Group 33"><path id="_Path_33" data-name=" Path 33" class="cls-18" d="M60.66 102.14a.47.47 0 0 1-.46-.46v-1a.46.46 0 0 1 .92 0v1a.47.47 0 0 1-.46.46z"/></g><g id="_Group_34" data-name=" Group 34"><path id="_Path_34" data-name=" Path 34" class="cls-18" d="M62 102.14a.47.47 0 0 1-.46-.46v-1a.46.46 0 0 1 .92 0v1a.47.47 0 0 1-.46.46z"/></g><g id="_Group_35" data-name=" Group 35"><path id="_Path_35" data-name=" Path 35" class="cls-18" d="M63.26 102.14a.47.47 0 0 1-.46-.46v-1a.46.46 0 0 1 .92 0v1a.47.47 0 0 1-.46.46z"/></g><g id="_Group_36" data-name=" Group 36"><path id="_Path_36" data-name=" Path 36" class="cls-18" d="M65.7 102.14a.47.47 0 0 1-.46-.46v-1a.46.46 0 1 1 .92 0v1a.47.47 0 0 1-.46.46z"/></g><g id="_Group_37" data-name=" Group 37"><path id="_Path_37" data-name=" Path 37" class="cls-18" d="M67 102.14a.47.47 0 0 1-.46-.46v-1a.46.46 0 1 1 .92 0v1a.47.47 0 0 1-.46.46z"/></g><g id="_Group_38" data-name=" Group 38"><path id="_Path_38" data-name=" Path 38" class="cls-18" d="M149.12 102.33a.47.47 0 0 0 .46-.46V101a.46.46 0 0 0-.92 0v1a.46.46 0 0 0 .46.41z"/></g><g id="_Group_39" data-name=" Group 39"><path id="_Path_39" data-name=" Path 39" class="cls-18" d="M147.83 102.33a.47.47 0 0 0 .46-.46V101a.46.46 0 1 0-.92 0v1a.46.46 0 0 0 .46.41z"/></g><g id="_Group_40" data-name=" Group 40"><path id="_Path_40" data-name=" Path 40" class="cls-18" d="M145.4 102.33a.47.47 0 0 0 .46-.46V101a.46.46 0 0 0-.92 0v1a.46.46 0 0 0 .46.41z"/></g><g id="_Group_41" data-name=" Group 41"><path id="_Path_41" data-name=" Path 41" class="cls-18" d="M144.11 102.33a.47.47 0 0 0 .46-.46V101a.46.46 0 1 0-.92 0v1a.46.46 0 0 0 .46.41z"/></g><g id="_Group_42" data-name=" Group 42"><path id="_Path_42" data-name=" Path 42" class="cls-18" d="M142.79 102.33a.47.47 0 0 0 .46-.46V101a.46.46 0 0 0-.92 0v1a.46.46 0 0 0 .46.41z"/></g><g id="_Group_43" data-name=" Group 43"><path id="_Path_43" data-name=" Path 43" class="cls-18" d="M141.51 102.33a.47.47 0 0 0 .46-.46V101a.46.46 0 0 0-.92 0v1a.46.46 0 0 0 .46.41z"/></g><g id="_Group_44" data-name=" Group 44"><path id="_Path_44" data-name=" Path 44" class="cls-18" d="M139.07 102.33a.47.47 0 0 0 .46-.46V101a.46.46 0 0 0-.92 0v1a.46.46 0 0 0 .46.41z"/></g><g id="_Group_45" data-name=" Group 45"><path id="_Path_45" data-name=" Path 45" class="cls-18" d="M137.79 102.33a.47.47 0 0 0 .46-.46V101a.46.46 0 0 0-.92 0v1a.46.46 0 0 0 .46.41z"/></g><g id="_Group_46" data-name=" Group 46"><g id="_Group_47" data-name=" Group 47"><g id="_Group_48" data-name=" Group 48"><rect id="_Path_46" data-name=" Path 46" class="cls-20" x="183.37" y="85.06" width="3.84" height="11.8"/></g><g id="_Group_49" data-name=" Group 49"><path id="_Path_47" data-name=" Path 47" class="cls-18" d="M186 101.88a.47.47 0 0 1-.46-.46v-1a.46.46 0 0 1 .46-.42.47.47 0 0 1 .46.46v1a.47.47 0 0 1-.46.46z"/></g><g id="_Group_50" data-name=" Group 50"><path id="_Path_48" data-name=" Path 48" class="cls-18" d="M187.24 101.88a.47.47 0 0 1-.46-.46v-1a.46.46 0 0 1 .46-.46.47.47 0 0 1 .46.46v1a.47.47 0 0 1-.46.46z"/></g><g id="_Group_51" data-name=" Group 51"><path id="_Path_49" data-name=" Path 49" class="cls-18" d="M189.68 101.88a.47.47 0 0 1-.46-.46v-1a.46.46 0 0 1 .46-.46.47.47 0 0 1 .46.46v1a.47.47 0 0 1-.46.46z"/></g><g id="_Group_52" data-name=" Group 52"><path id="_Path_50" data-name=" Path 50" class="cls-18" d="M191 101.88a.47.47 0 0 1-.46-.46v-1a.46.46 0 0 1 .46-.42.47.47 0 0 1 .46.46v1a.47.47 0 0 1-.46.46z"/></g><g id="_Group_53" data-name=" Group 53"><path id="_Path_51" data-name=" Path 51" class="cls-19" d="M181.4 63.68a1.59 1.59 0 0 1-.61-.13l-8.69-3.89a1.49 1.49 0 0 1 1.22-2.66l7.56 3.38 6-8.64a1.49 1.49 0 0 1 2.53 1.57l-.08.12-6.67 9.66a1.51 1.51 0 0 1-1.26.59z"/></g><g id="_Group_54" data-name=" Group 54"><path id="_Path_52" data-name=" Path 52" class="cls-22" d="M181.4 64a1.79 1.79 0 0 1-.72-.15l-5.79-2.59a1.78 1.78 0 0 1 1.44-3.26l4.45 2 5.84-8.46a1.76 1.76 0 0 1 2.9 2l-6.67 9.66a1.76 1.76 0 0 1-1.45.8z"/></g><g id="_Group_55" data-name=" Group 55"><path id="_Path_53" data-name=" Path 53" class="cls-19" d="M181.67 40.52a5.51 5.51 0 0 0 11 0v-6.77h-11z"/></g><g id="_Group_56" data-name=" Group 56"><ellipse id="_Path_54" data-name=" Path 54" class="cls-25" cx="186.34" cy="36.92" rx="0.48" ry="0.71"/></g><g id="_Group_57" data-name=" Group 57"><ellipse id="_Path_55" data-name=" Path 55" class="cls-25" cx="183.04" cy="36.92" rx="0.48" ry="0.71"/></g><g id="_Group_58" data-name=" Group 58"><rect id="_Rectangle_4" data-name=" Rectangle 4" class="cls-19" x="186.36" y="44.47" width="3.41" height="7.04"/></g><g id="_Group_59" data-name=" Group 59"><path id="_Path_56" data-name=" Path 56" class="cls-20" d="M183.28 66.86h9.3V51.77a2.48 2.48 0 0 0-2.49-2.49h-4.31a2.48 2.48 0 0 0-2.49 2.49z"/></g><g id="_Group_60" data-name=" Group 60"><path id="_Path_57" data-name=" Path 57" class="cls-28" d="M184.41 34.69a6 6 0 0 1 5.1 2.62c.68 1 1.05 2.38 2.23 3l.47.19h.12a1.85 1.85 0 0 0 1.85-1.85v-6.82a1.85 1.85 0 0 0-1.84-1.83h-12.75a4.64 4.64 0 0 0 4.11 4.6l.71.12z"/></g><g id="_Group_61" data-name=" Group 61"><ellipse id="_Path_58" data-name=" Path 58" class="cls-19" cx="190.12" cy="38.26" rx="1.62" ry="1.38" transform="translate(110.47 215.08) rotate(-77.13)"/></g><g id="_Group_62" data-name=" Group 62"><path id="_Path_59" data-name=" Path 59" class="cls-19" d="M190.73 99.75a1.9 1.9 0 0 1-1.9-1.9V69.73a1.9 1.9 0 0 1 3.79-.28 1.31 1.31 0 0 1 0 .28v28.12a1.9 1.9 0 0 1-1.89 1.9z"/></g><g id="_Group_63" data-name=" Group 63"><rect id="_Path_60" data-name=" Path 60" class="cls-20" x="188.81" y="85.06" width="3.84" height="12.79"/></g><g id="_Group_64" data-name=" Group 64"><rect id="_Path_61" data-name=" Path 61" class="cls-27" x="188.78" y="67.65" width="3.9" height="11.31"/></g><g id="_Group_65" data-name=" Group 65"><g id="_Group_66" data-name=" Group 66"><path id="_Path_62" data-name=" Path 62" class="cls-27" d="M183.77 98.89a2 2 0 0 0 2 2h5.37a1.44 1.44 0 0 0 1.44-1.44v-2.59h-6.82a2 2 0 0 0-2 2z"/></g></g><g id="_Group_67" data-name=" Group 67"><path id="_Rectangle_5" data-name=" Rectangle 5" class="cls-27" d="M189.1 73.35h-2.34a3.48 3.48 0 0 1-3.48-3.48v-3h9.3v3a3.48 3.48 0 0 1-3.48 3.48z"/></g><g id="_Group_68" data-name=" Group 68"><path id="_Path_63" data-name=" Path 63" class="cls-19" d="M189.77 71.22a1.49 1.49 0 0 1-1.49-1.49 1.45 1.45 0 0 1 .24-.81l5-7.67-6.58-7.76a1.49 1.49 0 0 1 2.24-2l8 9.45-6.18 9.6a1.49 1.49 0 0 1-1.23.68z"/></g><g id="_Group_69" data-name=" Group 69"><path id="_Path_64" data-name=" Path 64" class="cls-29" d="M189.72 51.13l7 8.82.07.08a1.77 1.77 0 0 1 .07 2.1l-4.36 6.31a1.61 1.61 0 0 1-2.7-1.76l4-6.55.14 2.19-7.52-8.32a2.17 2.17 0 0 1 3.06-3.08l.16.18z"/></g><g id="_Group_70" data-name=" Group 70"><rect id="_Path_65" data-name=" Path 65" class="cls-11" x="188.78" y="86.01" width="3.84" height="1.3"/></g><g id="_Group_71" data-name=" Group 71"><rect id="_Path_66" data-name=" Path 66" class="cls-11" x="183.38" y="86.01" width="3.84" height="1.3"/></g><g id="_Group_72" data-name=" Group 72"><path id="_Path_67" data-name=" Path 67" class="cls-11" d="M185.31 43a1.69 1.69 0 0 0 1.69-1.72v-.06h-3.32a1.7 1.7 0 0 0 1.63 1.78z"/></g></g><g id="_Group_73" data-name=" Group 73"><g id="_Group_74" data-name=" Group 74"><path id="_Path_68" data-name=" Path 68" class="cls-19" d="M140.1 66.38a1.57 1.57 0 0 0 1.17-2.61l-5.09-5.71 7.2-7.54a1.57 1.57 0 1 0-2.27-2.17L131.92 58l7 7.86a1.57 1.57 0 0 0 1.18.55z"/></g><g id="_Group_75" data-name=" Group 75"><path id="_Path_69" data-name=" Path 69" class="cls-22" d="M140.6 47.87l-7.95 8.82-.09.1a1.85 1.85 0 0 0 0 2.52l4.28 4.44a1.7 1.7 0 0 0 2.53-2.26l-3.92-4.76v2.62L143.9 51a2.28 2.28 0 0 0-3.21-3.25z"/></g><g id="_Group_76" data-name=" Group 76"><path id="_Path_70" data-name=" Path 70" class="cls-19" d="M139.42 37.78a5.8 5.8 0 0 0 11.59.48 3.84 3.84 0 0 0 0-.48v-7.12h-11.59z"/></g><g id="_Group_77" data-name=" Group 77"><ellipse id="_Path_71" data-name=" Path 71" class="cls-25" cx="145.51" cy="34.02" rx="0.52" ry="0.78"/></g><g id="_Group_78" data-name=" Group 78"><ellipse id="_Path_72" data-name=" Path 72" class="cls-25" cx="141.83" cy="34.02" rx="0.52" ry="0.78"/></g><g id="_Group_79" data-name=" Group 79"><rect id="_Rectangle_6" data-name=" Rectangle 6" class="cls-19" x="144.36" y="41.94" width="3.59" height="7.41"/></g><g id="_Group_80" data-name=" Group 80"><path id="_Path_73" data-name=" Path 73" class="cls-20" d="M141.11 65.5h9.79V49.63a2.62 2.62 0 0 0-2.58-2.63h-4.59a2.62 2.62 0 0 0-2.62 2.62z"/></g><g id="_Group_81" data-name=" Group 81"><path id="_Path_74" data-name=" Path 74" class="cls-30" d="M150.61 36.89v-.06a.54.54 0 0 0-.11-.76.63.63 0 0 0-.32-.1h-1.62v-2.64a1.82 1.82 0 0 0-1.82-1.84h-9.58l1-1.62a6.44 6.44 0 0 1 5.52-3.13h7a2 2 0 0 1 1.95 2v7.15a2 2 0 0 1-1.95 1.95 5.46 5.46 0 0 1-.07-.95z"/></g><g id="_Group_82" data-name=" Group 82"><ellipse id="_Path_75" data-name=" Path 75" class="cls-19" cx="151.32" cy="35.41" rx="1.71" ry="1.45" transform="translate(83.09 175.04) rotate(-77.13)"/></g><g id="_Group_83" data-name=" Group 83"><path id="_Path_76" data-name=" Path 76" class="cls-19" d="M143.25 100.83a2 2 0 0 0 2-2V69.57a2 2 0 0 0-4 0v29.27a2 2 0 0 0 2 1.99z"/></g><g id="_Group_84" data-name=" Group 84"><path id="_Path_77" data-name=" Path 77" class="cls-19" d="M149 101.21a2 2 0 0 0 2-2V68.53a2 2 0 0 0-4 0v30.69a2 2 0 0 0 2 1.99z"/></g><g id="_Group_85" data-name=" Group 85"><rect id="_Path_78" data-name=" Path 78" class="cls-20" x="141.27" y="87.07" width="3.96" height="11.77"/></g><g id="_Group_86" data-name=" Group 86"><rect id="_Path_79" data-name=" Path 79" class="cls-20" x="146.97" y="87.12" width="3.96" height="12.1"/></g><g id="_Group_87" data-name=" Group 87"><rect id="_Path_80" data-name=" Path 80" class="cls-21" x="141.2" y="68.84" width="4.1" height="8.84"/></g><g id="_Group_88" data-name=" Group 88"><rect id="_Path_81" data-name=" Path 81" class="cls-27" x="146.93" y="68.53" width="4.05" height="9.27"/></g><g id="_Group_89" data-name=" Group 89"><path id="_Rectangle_7" data-name=" Rectangle 7" class="cls-27" d="M147.42 72.34h-2.83a3.48 3.48 0 0 1-3.48-3.47v-3.36h9.79v3.36a3.48 3.48 0 0 1-3.48 3.47z"/></g><g id="_Group_90" data-name=" Group 90"><path id="_Path_82" data-name=" Path 82" class="cls-19" d="M151.71 69a1.57 1.57 0 0 0 1.35-.77L159.17 58l-8.82-9.6a1.58 1.58 0 1 0-2.35 2.1l7.24 7.88-4.92 8.28a1.57 1.57 0 0 0 .6 2.14 1.66 1.66 0 0 0 .79.2z"/></g><g id="_Group_91" data-name=" Group 91"><path id="_Path_83" data-name=" Path 83" class="cls-29" d="M147.52 51l8.29 8.5-.24-2.3-3.92 7.06a1.7 1.7 0 0 0 2.92 1.74l4.32-6.81a1.87 1.87 0 0 0-.16-2.21l-.08-.09-7.78-9a2.29 2.29 0 1 0-3.45 3z"/></g><g id="_Group_92" data-name=" Group 92"><path id="_Path_84" data-name=" Path 84" class="cls-11" d="M144.06 40.89a2.41 2.41 0 0 1-2.61-2.12h5.23a2.41 2.41 0 0 1-2.62 2.12z"/></g><g id="_Group_93" data-name=" Group 93"><path id="_Path_85" data-name=" Path 85" class="cls-19" d="M149.87 35.37a1.65 1.65 0 0 1 1.65-1.65V34H151v3.87h-1.14z"/></g><g id="_Group_94" data-name=" Group 94"><g id="_Group_95" data-name=" Group 95"><path id="_Path_86" data-name=" Path 86" class="cls-21" d="M136.12 99.22a2.14 2.14 0 0 0 2.14 2.14h7.17v-4.28h-7.17a2.14 2.14 0 0 0-2.14 2.14z"/></g></g><g id="_Group_96" data-name=" Group 96"><g id="_Group_97" data-name=" Group 97"><path id="_Path_87" data-name=" Path 87" class="cls-27" d="M141.64 99.22a2.14 2.14 0 0 0 2.14 2.14h5.65a1.52 1.52 0 0 0 1.57-1.52v-2.76h-7.17a2.14 2.14 0 0 0-2.19 2.14z"/></g></g><g id="_Group_98" data-name=" Group 98"><path id="_Path_88" data-name=" Path 88" class="cls-30" d="M145.51 26.69h-6.89a4.75 4.75 0 0 0 4.75 4.75h1.83z"/></g></g></g><g id="_Group_100" data-name=" Group 100"><path class="cls-27" d="M60.8 49.2l2.77 4.91a1.49 1.49 0 0 1-2.44 1.69l-3.61-4.33a2 2 0 1 1 3-2.67l.09.11a1.94 1.94 0 0 1 .19.29z"/></g><g id="_Group_101" data-name=" Group 101"><path class="cls-19" d="M65.89 37.71a5.79 5.79 0 0 1-11.58 0v-7.12h11.58z"/></g><g id="_Group_102" data-name=" Group 102"><ellipse class="cls-25" cx="59.81" cy="33.95" rx="0.52" ry="0.77"/></g><g id="_Group_103" data-name=" Group 103"><ellipse class="cls-25" cx="63.48" cy="33.95" rx="0.52" ry="0.77"/></g><g id="_Group_104" data-name=" Group 104"><rect class="cls-19" x="57.37" y="41.86" width="3.58" height="7.4"/></g><g id="_Group_105" data-name=" Group 105"><path class="cls-20" d="M64.2 65.4h-9.77V49.54A2.62 2.62 0 0 1 57 46.92h4.53a2.62 2.62 0 0 1 2.62 2.62z"/></g><g id="_Group_106" data-name=" Group 106"><path class="cls-30" d="M52.73 31.47a4.84 4.84 0 0 1 4.84-4.84h2.2a9.73 9.73 0 0 1 6.67 2.64 1.23 1.23 0 0 1 0 1.74 1.24 1.24 0 0 1-.87.38H59.1a2.35 2.35 0 0 0-2.35 2.37V35h-2.1c-1.07 0-1.94 1.75-1.94.68z"/></g><g id="_Group_107" data-name=" Group 107"><ellipse class="cls-19" cx="53.99" cy="35.35" rx="1.45" ry="1.71" transform="translate(-6.52 12.91) rotate(-12.87)"/></g><g id="_Group_108" data-name=" Group 108"><path class="cls-19" d="M62.06 100.69a2 2 0 0 1-2-2V69.47a2 2 0 0 1 4 0V98.7a2 2 0 0 1-2 1.99z"/></g><g id="_Group_109" data-name=" Group 109"><path class="cls-19" d="M56.37 101.07a2 2 0 0 1-2-2V68.42a2 2 0 0 1 4 0v30.66a2 2 0 0 1-2 1.99z"/></g><g id="_Group_110" data-name=" Group 110"><rect class="cls-20" x="60.08" y="86.94" width="3.96" height="11.75"/></g><g id="_Group_111" data-name=" Group 111"><rect class="cls-20" x="54.39" y="86.99" width="3.96" height="12.09"/></g><g id="_Group_112" data-name=" Group 112"><rect class="cls-21" x="60.02" y="68.74" width="4.1" height="8.83"/></g><g id="_Group_113" data-name=" Group 113"><rect class="cls-27" x="54.35" y="68.42" width="4.04" height="9.26"/></g><g id="_Group_114" data-name=" Group 114"><path class="cls-27" d="M54.43 65.4h9.77v3.17a3.66 3.66 0 0 1-3.66 3.66h-2.46a3.66 3.66 0 0 1-3.66-3.66V65.4z"/></g><g id="_Group_115" data-name=" Group 115"><rect class="cls-19" x="54.31" y="33.75" width="1.14" height="3.99"/></g><g id="_Group_116" data-name=" Group 116"><rect class="cls-19" x="53.8" y="33.65" width="1.65" height="0.22"/></g><g id="_Group_117" data-name=" Group 117"><g id="_Group_118" data-name=" Group 118"><path class="cls-21" d="M69.18 99.08a2.15 2.15 0 0 1-2.18 2.13h-7.12V97H67a2.14 2.14 0 0 1 2.18 2.1z"/></g></g><g id="_Group_119" data-name=" Group 119"><g id="_Group_120" data-name=" Group 120"><path class="cls-27" d="M63.68 99.08a2.14 2.14 0 0 1-2.14 2.14h-5.65a1.52 1.52 0 0 1-1.52-1.52V97h7.17a2.14 2.14 0 0 1 2.14 2.08z"/></g></g><g id="_Group_121" data-name=" Group 121"><path class="cls-25" d="M59.81 38a1.9 1.9 0 0 0 3.78 0z"/></g><g id="_Group_99" data-name=" Group 99"><g id="_Clip_Group_" data-name=" Clip Group "><g style="clip-path:url(#clip-path-2)"><g id="_Group_122" data-name=" Group 122"><path class="cls-11" d="M64.59 38.35a1.79 1.79 0 0 0 .28-1h-5.23a1.79 1.79 0 0 0 .28 1z"/></g></g></g></g><ellipse class="cls-30" cx="62.54" cy="27.11" rx="2.44" ry="0.9"/><g id="_Group_123" data-name=" Group 123"><path id="_Path_89" data-name=" Path 89" class="cls-19" d="M54.11 70a1.66 1.66 0 0 1-1.42-.81l-6.42-10.85 9.27-10.09A1.66 1.66 0 1 1 58 50.48l-7.65 8.29 5.17 8.7a1.64 1.64 0 0 1-.52 2.26 1.61 1.61 0 0 1-.89.27z"/></g><path id="_Path_90" data-name=" Path 90" class="cls-29" d="M53.48 67.36a1.8 1.8 0 0 1-2.37-.6l-4.55-7.16a2 2 0 0 1 .17-2.32l.08-.09L55 47.75a2.4 2.4 0 0 1 3.63 3.14l-.1.1-8.72 9 .25-2.41L54.18 65a1.77 1.77 0 0 1-.68 2.42"/><g id="_Group_124" data-name=" Group 124"><rect id="_Path_91" data-name=" Path 91" class="cls-11" x="141.33" y="88.22" width="3.84" height="1.3"/></g><g id="_Group_125" data-name=" Group 125"><rect id="_Path_92" data-name=" Path 92" class="cls-11" x="147.04" y="88.22" width="3.84" height="1.3"/></g><g id="_Group_126" data-name=" Group 126"><rect id="_Path_93" data-name=" Path 93" class="cls-11" x="60.14" y="88.74" width="3.84" height="1.3"/></g><g id="_Group_127" data-name=" Group 127"><rect id="_Path_94" data-name=" Path 94" class="cls-11" x="54.42" y="88.74" width="3.84" height="1.3"/></g><g id="_Group_128" data-name=" Group 128"><path class="cls-19" d="M23 100.57a2 2 0 0 0 2-2V68.91a2 2 0 0 0-4 0v29.64a2 2 0 0 0 2 2z"/></g><g id="_Group_129" data-name=" Group 129"><g id="_Group_130" data-name=" Group 130"><path class="cls-21" d="M30.16 99a2.16 2.16 0 0 1-2.16 2.1h-7.27v-4.33H28a2.16 2.16 0 0 1 2.16 2.16z"/></g></g><g id="_Group_131" data-name=" Group 131"><rect class="cls-21" x="20.87" y="68.12" width="4.15" height="9.48"/></g><g id="_Group_132" data-name=" Group 132"><rect class="cls-11" x="20.9" y="85.21" width="4.09" height="1.38"/></g><g id="_Group_133" data-name=" Group 133"><g id="_Group_134" data-name=" Group 134"><rect id="_Path_95" data-name=" Path 95" class="cls-20" x="20.9" y="84.19" width="4.1" height="12.57"/></g><g id="_Group_135" data-name=" Group 135"><path id="_Path_96" data-name=" Path 96" class="cls-18" d="M22.24 102.12a.49.49 0 0 0 .49-.49v-1a.5.5 0 0 0-1 0v1a.49.49 0 0 0 .49.49z"/></g><g id="_Group_136" data-name=" Group 136"><path id="_Path_97" data-name=" Path 97" class="cls-18" d="M20.87 102.12a.49.49 0 0 0 .49-.49v-1a.5.5 0 0 0-1 0v1a.49.49 0 0 0 .49.49z"/></g><g id="_Group_137" data-name=" Group 137"><path id="_Path_98" data-name=" Path 98" class="cls-18" d="M18.28 102.12a.49.49 0 0 0 .49-.49v-1a.5.5 0 0 0-1 0v1a.49.49 0 0 0 .49.49z"/></g><g id="_Group_138" data-name=" Group 138"><path id="_Path_99" data-name=" Path 99" class="cls-18" d="M16.91 102.12a.49.49 0 0 0 .49-.49v-1a.5.5 0 0 0-1 0v1a.49.49 0 0 0 .49.49z"/></g><g id="_Group_139" data-name=" Group 139"><path id="_Path_100" data-name=" Path 100" class="cls-18" d="M27.63 102.12a.49.49 0 0 0 .49-.49v-1a.5.5 0 0 0-1 0v1a.49.49 0 0 0 .49.49z"/></g><g id="_Group_140" data-name=" Group 140"><path id="_Path_101" data-name=" Path 101" class="cls-18" d="M26.26 102.12a.49.49 0 0 0 .49-.49v-1a.5.5 0 0 0-1 0v1a.49.49 0 0 0 .49.49z"/></g><g id="_Group_141" data-name=" Group 141"><path id="_Path_102" data-name=" Path 102" class="cls-18" d="M23.67 102.12a.49.49 0 0 0 .49-.49v-1a.5.5 0 0 0-1 0v1a.49.49 0 0 0 .49.49z"/></g><g id="_Group_142" data-name=" Group 142"><path id="_Path_103" data-name=" Path 103" class="cls-18" d="M22.3 102.12a.49.49 0 0 0 .49-.49v-1a.5.5 0 0 0-1 0v1a.49.49 0 0 0 .49.49z"/></g><g id="_Group_143" data-name=" Group 143"><path id="_Path_104" data-name=" Path 104" class="cls-19" d="M26.81 36.73a5.87 5.87 0 1 1-11.74 0v-7.22h11.74z"/></g><g id="_Group_144" data-name=" Group 144"><ellipse id="_Path_105" data-name=" Path 105" class="cls-25" cx="21.83" cy="32.89" rx="0.52" ry="0.76"/></g><g id="_Group_145" data-name=" Group 145"><ellipse id="_Path_106" data-name=" Path 106" class="cls-25" cx="25.36" cy="32.89" rx="0.52" ry="0.76"/></g><g id="_Group_146" data-name=" Group 146"><rect id="_Rectangle_8" data-name=" Rectangle 8" class="cls-19" x="18.17" y="40.94" width="3.63" height="7.5"/></g><g id="_Group_147" data-name=" Group 147"><path id="_Path_107" data-name=" Path 107" class="cls-20" d="M25.1 64.8h-9.91V48.72a2.66 2.66 0 0 1 2.66-2.66h4.59a2.66 2.66 0 0 1 2.66 2.66z"/></g><g id="_Group_148" data-name=" Group 148"><path id="_Path_108" data-name=" Path 108" class="cls-28" d="M19.08 30.12c-2.2.07.64 1.28-.62 3.19-.72 1.09-1.12 2.54-2.38 3.16a4.4 4.4 0 0 1-.5.21h-.13a2 2 0 0 1-2-2v-7.21a2 2 0 0 1 2-2h6.39a4.5 4.5 0 0 1 4.8-2.14c2.94 5 .72 6.51-1.79 6.81-.26.05-5.54-.06-5.77-.02z"/></g><g id="_Group_149" data-name=" Group 149"><ellipse id="_Path_109" data-name=" Path 109" class="cls-19" cx="17.79" cy="34.33" rx="1.47" ry="1.73" transform="translate(-7.2 4.83) rotate(-12.87)"/></g><g id="_Group_150" data-name=" Group 150"><path id="_Path_110" data-name=" Path 110" class="cls-19" d="M17.16 99.85a2 2 0 0 0 2-2v-30a2 2 0 0 0-4 0v30a2 2 0 0 0 2 2z"/></g><g id="_Group_151" data-name=" Group 151"><rect id="_Path_111" data-name=" Path 111" class="cls-20" x="15.11" y="84.19" width="4.1" height="13.64"/></g><g id="_Group_152" data-name=" Group 152"><rect id="_Path_112" data-name=" Path 112" class="cls-27" x="15.08" y="65.64" width="4.15" height="12.05"/></g><g id="_Group_153" data-name=" Group 153"><g id="_Group_154" data-name=" Group 154"><path id="_Path_113" data-name=" Path 113" class="cls-27" d="M24.57 99a2.16 2.16 0 0 1-2.16 2.16h-5.73a1.54 1.54 0 0 1-1.54-1.54v-2.85h7.26a2.16 2.16 0 0 1 2.17 2.15z"/></g></g><g id="_Group_155" data-name=" Group 155"><path id="_Rectangle_9" data-name=" Rectangle 9" class="cls-27" d="M15.19 64.8h9.91V68a3.71 3.71 0 0 1-3.71 3.71H18.9A3.71 3.71 0 0 1 15.19 68z"/></g><g id="_Group_156" data-name=" Group 156"><path id="_Path_114" data-name=" Path 114" class="cls-19" d="M18.18 69.45A1.59 1.59 0 0 0 19.51 67l-5.31-8.21 7-8.27a1.59 1.59 0 1 0-2.27-2.23l-.15.18-8.54 10.1 6.6 10.16a1.61 1.61 0 0 0 1.34.72z"/></g><g id="_Group_157" data-name=" Group 157"><path id="_Path_115" data-name=" Path 115" class="cls-29" d="M18.23 48l-7.5 9.39-.07.09a1.88 1.88 0 0 0-.08 2.24l4.65 6.72a1.72 1.72 0 0 0 2.88-1.87l-4.25-7-.15 2.43 8-8.94a2.31 2.31 0 1 0-2.92-3.58 2.33 2.33 0 0 0-.47.52z"/></g><g id="_Group_158" data-name=" Group 158"><rect id="_Path_116" data-name=" Path 116" class="cls-11" x="15.14" y="85.21" width="4.09" height="1.38"/></g><g id="_Group_159" data-name=" Group 159"><rect id="_Path_117" data-name=" Path 117" class="cls-11" x="20.9" y="85.21" width="4.09" height="1.38"/></g><g id="_Group_160" data-name=" Group 160"><path id="_Path_118" data-name=" Path 118" class="cls-11" d="M22.93 39.31a1.81 1.81 0 0 1-1.77-1.83h3.54a1.81 1.81 0 0 1-1.77 1.83z"/></g></g><g style="clip-path:url(#clip-path-3)"><circle class="cls-11" cx="106.47" cy="95.92" r="5.87"/><rect class="cls-33" x="97.97" y="95.76" width="16.99" height="0.34" transform="translate(-33.69 66.06) rotate(-29.99)"/><rect class="cls-33" x="106.3" y="87.42" width="0.34" height="16.99" transform="translate(-29.83 140.16) rotate(-60)"/><rect class="cls-33" x="106.3" y="87.42" width="0.34" height="16.99"/><path class="cls-33" d="M108.36 101.28h-3.78l-1.81-1-1.9-3.28v-2.1l1.89-3.27 1.81-1h3.78l1.81 1 1.89 3.27V97l-1.89 3.27zm-3.69-.31h3.6l1.66-1 1.8-3.12V95l-1.8-3.12-1.66-1h-3.6l-1.66 1-1.8 3.12v1.9L103 100z"/><polygon class="cls-3" points="106.47 93.1 108.85 94.47 108.85 97.36 106.47 98.73 104.08 97.36 104.08 94.47 106.47 93.1"/><polygon class="cls-3" points="106.47 87.42 108.31 88.49 108.31 90.72 106.47 91.78 104.62 90.72 104.62 88.49 106.47 87.42"/><polygon class="cls-3" points="99.11 91.67 100.95 90.61 102.89 91.72 102.89 93.85 101.04 94.92 99.11 93.8 99.11 91.67"/><polygon class="cls-3" points="99.11 100.16 99.11 98.03 101.04 96.92 102.89 97.99 102.89 100.11 100.95 101.23 99.11 100.16"/><polygon class="cls-3" points="106.47 104.41 104.62 103.35 104.62 101.12 106.47 100.05 108.31 101.12 108.31 103.35 106.47 104.41"/><polygon class="cls-3" points="113.82 91.67 111.98 90.61 110.05 91.72 110.05 93.85 111.89 94.92 113.82 93.8 113.82 91.67"/><polygon class="cls-3" points="113.82 100.16 113.82 98.03 111.89 96.92 110.05 97.99 110.05 100.11 111.98 101.23 113.82 100.16"/></g></g></svg>