<svg xmlns="http://www.w3.org/2000/svg" viewBox="0 0 210 125"><defs><clipPath id="a"><path fill="none" d="M.2 0h209.6v125.5H.2z"/></clipPath><clipPath id="b"><circle cx="329" cy="102" r="23" fill="none"/></clipPath><clipPath id="c"><path fill="none" d="M224.2 16h209.6v158.5H224.2z"/></clipPath></defs><g clip-path="url(#a)"><path d="M227 0H-17.3C-24.8 0-31 5.2-31 11.4v105.8c0 6.3 6.1 11.4 13.6 11.4H227c7.5 0 13.6-5.1 13.6-11.4V11.4c0-6.3-6-11.4-13.6-11.4z" fill="#523202"/><path d="M240.7 8.7v105.8c0 4.1-2.7 7.8-6.7 9.8a15.2 15.2 0 0 1-1.5.6 15.7 15.7 0 0 1-5.5 1H-19.8l-.4-.1h-.3l-.8-.2-.5-.2-.5-.2h-.2l-.7-.3-.3-.1h-.2l-.2-.2h-.2l-.6-.4-.5-.3-1-.6-.3-.2-.1-.1a12.9 12.9 0 0 1-1.1-1l-.3-.3a24 24 0 0 1-.5-.5l-.2-.3-.3-.4-.2-.4-.2-.2-.2-.4-.2-.2-.3-.9-.2-.2v-.3l-.3-.9-.1-.5-.1-.4a9.6 9.6 0 0 1-.1-1.5V6.8a9 9 0 0 1 .4-1.3v-.2l.3-.6.2-.4.3-.6a12.9 12.9 0 0 1 6.2-5.2l.7-.3 1-.3h.3l.5-.2h.3l.2-.1h.3l.6-.1H227a16.4 16.4 0 0 1 1.9 0 16.1 16.1 0 0 1 2 .4 13 13 0 0 1 9 7v.2l.2.3.2.6v.3l.2.4v.6a3.6 3.6 0 0 1 0 .4.5.5 0 0 1 0 .1v.4a.7.7 0 0 1 0 .1c.2.1.2.3.2.4z" fill="#945c23"/><path d="M240.7 65v28.6l-3.6-.3a198.2 198.2 0 0 0-33-.1c-4.5.5-9 1.2-13.5 1.5-3.4.3-6.8.4-10.3.5h-19.6l-4.5.2c-5.9.3-11.7.8-17.4 1.5-13.6 1.4-27 3.3-41 3.6-28 .7-53-4.9-78.8-9.5L4.9 88.6A294 294 0 0 0-26.6 85a42.6 42.6 0 0 1-4.3-.4V81l2.5-.7 1.7-.4 24.3-6c11.7-3 26.9-2.3 39.6-4 4-.5 7.6-1.3 11.5-1.8a156.3 156.3 0 0 1 16.9-.7l24.8-.1 19.2-.2 34.6-.2a84 84 0 0 1 12.3.5c3.8.6 6.9 1.6 10.6 2.3 11.6 2 24.8-.7 37-2.2h.4c5-.7 10-1 15-1.4l13.4-.8zm0-56.3V23l-2.4-.1c-11.2-.5-23 .4-33.7-.8-5.3-.6-10-1.8-15-2.6-13.8-2.2-29.8-2.1-45-3-17.5-.8-34.1-3-51-4.9A920.7 920.7 0 0 0 2.4 6c-11-.1-22 0-33 .4l.3-.8v-.2l.3-.6.2-.4v-.1l.3-.5A11.8 11.8 0 0 1-26.8.5a13.9 13.9 0 0 1 3.4-2l.7-.3 1-.3h.4l.5-.1h.3l.3-.1h.2l.6-.1.4-.1h158.2l5.9.5 34 3 9.7.9q7.3.6 14.7 1l4.1.4q16.1 1.1 32.4 1.9l.1.2.3.6v.4l.2.4v.5a.4.4 0 0 1 0 .1v.4a.7.7 0 0 1 0 .1v.4a.4.4 0 0 1 0 .1c.2 0 .2.2.2.3z" fill="#a35e26"/><path d="M240.7 21v3c-12.9.1-26 1.2-37.6-.4-5.2-.7-9.6-2-14.6-2.7-8-1.3-17-1.6-25.7-2-40-1.7-78.3-6.4-117.4-9.8A490.7 490.7 0 0 0-8.3 6.6c-8.2.2-15.5.7-22.6 1.4V6.8l.2-.5.2-.8v-.3l.3-.5.2-.4v-.1c22.8-1 46.4.5 69.1 2a1687 1687 0 0 1 87 7c11 1.3 21.8 2.8 33.3 3.2 9.9.3 20.3-.2 29.5 1 7.1 1 13.1 3.1 20.9 3.4 4.1 0 8.2-.3 12.3-.4a146.3 146.3 0 0 1 18.6.7zm0 7v1.4h-8a533 533 0 0 1-52.7-3.1C141.3 22.6 103.7 18 63.5 17a1862 1862 0 0 0-94.5-.8v-1.5c28-.9 56.4-.4 84.5.6 22.5.7 45 1.8 67 3.7 9.8.8 19.5 1.9 29.2 2.9 13 1.3 24.2 3.3 37.7 4 16.5.8 33.1 1.7 49.8 2h3.5zm0-14v2.7a145.8 145.8 0 0 1-17.6-1.2c-6-1-11.1-2.4-17.4-3-8.8-1-18.4 0-27.6-.3-7.9-.3-18.6-1.3-25.2-2.8-7.8-1.7-10.4-3.9-21-4.4-9.3-.5-18.7 0-28 0C75.6 5.3 49 .7 21 .5 13.9.4 6.7.7-.5.6-9.8.5-18.4.4-26.8.6a13.9 13.9 0 0 1 3.4-2.1l.7-.3 1-.3h.2c28-.3 56 1.1 83.9 2.4l60.7 3A135 135 0 0 1 141.5 5c3.8.8 7 1.8 10.6 2.6 15.3 3.2 35.7 1 53.4 2.3 10.6.8 20 2.9 30.6 3.8 1.5.2 3 .3 4.6.3zm-.1-6.8c-7-.1-14-.5-19.6-1.6-4.4-.9-8.6-2-13.5-2.5l-3-.2h-1.1c-3-.1-6 0-8.9-.3-2-.2-3.8-.6-5.7-.9l-3.2-.4a62.6 62.6 0 0 0-6.6-.4h-11.8c-10.2-.5-21-2.2-31.4-3.6h30.7c7.7.1 15.4.3 22.8.9 14.6 1 27.8 3.6 42.4 4.8l7.4.5a9.8 9.8 0 0 1 .7 1.4l.1.1.1.3.2.6.1.4.1.3v.2l.2.4zm.1 33.9v2.2c-10.8.2-21.5-.6-32-1.3l-61-4.5c-22-1.6-40.3-2-62.8-2.7-9.9-.3-20-.6-29.7.3-8.5.7-16.4 2.5-25.3 2.4-3.4 0-6.7-.3-10 0-4 .4-6.8 1.6-10 2.4-10.8 3-26.1 2.5-40.9 2.8v-2.5a120.2 120.2 0 0 0 16.7-.6c5.3-.6 9.5-2 14.5-2.8 11-2 24.7-2 37.2-2.9 14-1 24.6-2.4 39.5-2.2 21.9.2 43.6 1.2 65 2.6 31.6 2.2 65.7 7.8 98.4 6.9z" fill="#864f22"/><path d="M240.7 33.2v2.4q-14.4 0-28.7.4a113 113 0 0 1-13.6-.2C178 34 158.1 30.3 137 28.6A1063 1063 0 0 0 64.9 25a134.2 134.2 0 0 1-15.2-.7c-4-.5-7.5-1.4-11.5-1.8a90 90 0 0 0-14.5.4L-31 27v-3c8.4-.4 17.9.4 26-.8 3-.5 5.9-1.2 9.2-1.5 10.1-.7 31.2-3 40.6-1.2l6.5 1.6c6.4 1.1 14 .2 21.1.3 7.5 0 14.9 1.3 22.4 1.1 2.7 0 5.3-.3 8-.4 7.6-.1 13.8 1.5 21 1.8 5.8.3 10.8 0 16.7.6 11.6 1.1 19.8 3.2 30.2 5a60 60 0 0 0 7.8.5c10.4.5 19.1 3.3 29.5 3.5 7.1.2 14-1 21-1.2l11.7-.1zm0 14.3v2q-14.5.5-29 1.3c-14.1.7-28.1 1.6-42.1 2.4-22 1.2-44.3 2-66 .5-18.6-1.2-36.4-4-55.2-4.5-12.6-.2-25.2.6-37.6 1.5L-31 53.2v-3.6l9.5-.4c15.6-.6 31.3-1.2 47-1.5 16-.3 32.5-.2 48.1 1.4 12.7 1.3 24.8 3.6 37.8 4s26.2-1.3 39.4-1.3c8 0 16.2.5 24 0 5.6-.5 10.8-1.5 16.3-2.2 7.7-1 15.8-1.2 23.9-1.4zm0 15.1v2.6l-7.5.3-13.6.6c-5.1.3-10.2.7-15 1.4h-.5l-1.5.3c-9.4 1.4-18.6 3.7-28.7 3.3-8.2-.3-15.3-2.3-23.3-3.2-11.3-1.1-23.2.3-34.8 1a281.7 281.7 0 0 1-40.1-.3 125.7 125.7 0 0 0-16-.8c-7.3.4-13.4 2.1-20.4 3-10 1-21 .2-30.8 1.5-13 1.7-22 7-35.3 7.7h-1.5a.9.9 0 0 0 0 .4c0 1.3 3.4 2.2 6.4 2.9Q-8.8 86 4.9 88.6l14 2.4q13.6 2.2 27.5 4c24.7 3.2 52 5.6 76.7 2.2 10-1.3 19.4-3.6 30-3.8 7.1-.2 14.3.7 21.5.6 13.3-.2 25.5-3.5 38.8-3.3 6.7 0 13 1 19.6 1.5 2.5.2 5 .3 7.7.3V95h-12.2c-8.2-.5-16.3-1.6-24.4-1.8a80.8 80.8 0 0 0-8.5.2c-4.3.3-8.3 1-12.5 1.5l-2.8.3c-7.9.5-16 .1-24.2.2a108.7 108.7 0 0 0-17.3 1.4c-5.6.9-10.9 2-16.3 3-8.5 1.4-17.5 1.4-26.8 1.8a148.7 148.7 0 0 1-34.3-2.3c-4-.8-7.7-1.7-12-2.2-5.2-.6-10.8-.4-16.2-.5a101.9 101.9 0 0 1-27.5-4.3C-4.9 89-12.3 86-27 85.7h-3.8V78c5.4-.7 11.5-1.2 16.4-2.4 4.5-1 7.8-2.7 12-4 12.3-3.5 27.9-1.4 42-3 5.8-.7 11-2 17-2.7 11-1.1 22.5.7 34 1.5a130.2 130.2 0 0 0 19-.1c11.8-1 23.3-3.2 35-2.3 10.7 1 20.1 4.5 31 4 6-.4 11-1.9 16.8-2.5 14.5-1.6 27.6 0 41.7-2.9a61.8 61.8 0 0 1 6.7-.9z" fill="#864f22"/><path d="M240.7 54.6v2.7l-43.2 2.9c-14.5 1-29.2 2-43.7 1.3-8-.4-16-1.3-24.1-1-3.7.2-7.4.7-11 1-19.2 1.3-38.6-2-58-1.3a253 253 0 0 0-24.3 2.5l-22.3 3c-4.5.6-9 1.2-13.3 2-4 .8-7.6 1.8-11.8 2.3-6 .7-12.3.5-18.4.9l-1.6.1v-2c4.6-.1 9.3 0 13.7-.5 6-.7 10.5-2.7 16.5-3.4 5.1-.6 10.8-.2 16-.7s9.6-2 14.2-3a206 206 0 0 1 48-3.7c8.1 0 16.8.1 24.8.5 6.9.3 15.3 2 22.2 1.1 2-.2 3.7-.8 5.7-1 7.6-.8 14.5 2.4 22.4 2.5 7 0 13.2-2.3 20.1-2 3.9.3 7.6 1.3 11.4.9a34 34 0 0 0 4.2-1c7.9-2 16.8-.3 25.1-1 6.7-.5 12-2.1 18.9-2.6l8.5-.5zm0 50.4v3.9c-8 .7-16 1.4-24 1.7-17.9.8-36-.2-53.8.8-10.5.6-20.8 2-31.4 2.4-31 1.2-60.1-5.2-90.6-7.7-24.4-2-51.3-1.6-71.8-7v-1.6c18.3 5 42.7 4.8 65 6 34.5 1.9 68.3 7.6 103 6.1 14.9-.6 29.3-2.5 44.3-2.7 10.3 0 20.5.7 30.7.3 6.8-.2 13.4-.9 20-1.5l8.6-.6z" fill="#864f22"/><path d="M240.5 116.3a10 10 0 0 1-1.2 3.1 2333.5 2333.5 0 0 1-160.2-1.8c-8-.5-16.2-1.2-24.3-.9-6.3.3-12.7 1.1-18.9.5-5-.5-9-1.9-13.7-2.7-12.3-2.2-27-.2-40.1-1.6-4.2-.4-8.1-1.2-12.4-1.6h-.7v-2c6.5.2 12.6 1.5 19.2 1.8 9.6.5 19.3-1.3 29-1 11 .5 20.3 3.6 31.2 4.3 9.4.6 19-.6 28.4 0 5.8.5 11.2 1.6 16.8 2.2 6.7.8 13.7.9 20.6 1 14.7 0 32.3 2.4 46.6 1 3.5-.4 7-1 10.7-1.1 6-.1 11.2 1.3 17 1.7 8.6.6 17-1.1 25.7-.9 1.8 0 3.5.2 5.2 0a56.7 56.7 0 0 0 7.3-1.2 70.4 70.4 0 0 1 13.8-.8zM98 126H69.5a152.9 152.9 0 0 0-19.4 0H34c-4.2-.7-7.7-1.9-11.8-2.6C9.9 121.3-5 123.3-18 122c-3.8-.4-7.3-1.1-11.1-1.5l-.3-.4-.1-.2-.3-.4-.1-.3-.4-.8v-.2c6.2.4 12 1.6 18.4 1.9 9.6.4 19.3-1.3 29-1 11 .5 20.3 3.6 31.2 4.3 9.4.6 19-.6 28.3 0 5.9.5 11.2 1.6 17 2.2q2.1.3 4.3.4zM11.5 81.1c-.5.8 2.7 1.3 5.5 1.7a1211 1211 0 0 0 59 6.1c21.4 1.7 45 3 66.2 1.2 8.6-.7 16.8-1.9 25.9-2l18.6.3c11.5-.1 22-1.8 33.5-1.7 5.8 0 11.3.5 17 .8h3.5V89h-7.4c-9.6-.3-19-1.3-28.4-.9L194 89c-9.7.6-20.2 0-30 .4-8 .4-15 1.4-22.3 2.1s-15 .8-23 1A210 210 0 0 1 89 91.1c-3.4-.3-6.7-.8-10.3-1-4.6-.4-9.4-.3-14-.3a142.3 142.3 0 0 1-23.8-2.3c-9.1-1.8-15.5-3.3-28.3-3.4l-8-.1c-2.6-.1-5.2-.6-5.9-1.2s.6-1.3 2.5-1.7c5.8-1.4 15.3-1.3 22.2-2.3 3.9-.6 6.8-1.5 10.4-2.1 10.6-1.9 24-.8 36.1-1.6 5.1-.4 9.6-1.1 14.8-1.4 12.4-.8 25.2 1 38 1s25.3-2 38-1.4c9.3.4 17.4 2.3 26.9 2 5-.2 9.5-1 14.4-1.3 12.5-.9 23.8 0 36-1.5l2.7-.3v1.2l-3.4.1c-9 .2-18 .5-26.5 1.2-8.2.7-16 2-24.8 1.8-7-.2-13.2-1.3-20-1.7-9.9-.6-20.2.1-30.2.5-11.5.5-23.3.4-34.6-.2-4.6-.2-9.2-.5-13.8-.4-6.3.2-11.6 1.1-17.6 1.6-8.6.6-18.1 0-26.6.7-11.6 1-19.5 4-31.7 4.1z" fill="#864f22"/><path d="M43.1 81.7c-.4.4 2.5.6 5 .8 17 1.2 34.7 2.1 53 3 19.2.7 40.5 1.3 59.6.5 7.7-.4 15-1 23.2-1 5.6 0 11.2.2 16.8.1 10.3 0 19.8-.8 30.1-.8l9.9.2v.8c-8-.1-15.9-.5-23.7-.3-3.4 0-6.5.3-9.8.4-8.7.3-18 0-27 .2-7 .1-13.4.6-20 1s-13.5.3-20.7.4c-9 .2-18.5 0-26.7-.5-3-.2-6-.5-9.2-.6L91 85.8c-7.8 0-15.4-.5-21.4-1A210.9 210.9 0 0 0 44.1 83H37a22.2 22.2 0 0 1-5.3-.6c-.6-.3.6-.6 2.3-.9 5.1-.6 13.7-.6 20-1l9.3-1c9.5-1 21.6-.5 32.5-.8 4.5-.2 8.6-.6 13.2-.7 11.2-.4 22.7.5 34.2.4s22.8-1 34.2-.6c8.3.2 15.6 1 24.1 1 4.6-.1 8.6-.5 13-.6 9.2-.4 17.6-.2 26.3-.5v.3c-6.3 0-12.5.2-18.4.5-7.3.4-14.4 1-22.2.8-6.4 0-12-.6-18.1-.8-8.8-.3-18 .1-27.1.3a806 806 0 0 1-43.5-.3c-5.6.1-10.4.6-15.8.8-7.8.2-16.4 0-24 .3-10.5.5-17.6 2-28.6 2z" fill="#864f22"/><path d="M240.7 8.3a.7.7 0 0 0 0-.1v-.4a.5.5 0 0 0 0-.1 3.6 3.6 0 0 0 0-.4l-.1-.5c-.1-.2 0 0 0-.2l-.1-.3-.1-.4-.2-.6-.3-.3v-.1a13 13 0 0 0-9-7 16.1 16.1 0 0 0-2-.4 16.4 16.4 0 0 0-1.9-.2H-19.5l-.6.1h-.2l-.3.1h-.2l-.6.2h-.2l-1 .4-.8.2a12.9 12.9 0 0 0-6.2 5.3l-.3.6-.2.4-.2.5v.3a9 9 0 0 0-.4 1.2v4-1.3a9 9 0 0 1 .4-1.2v-.3l.2-.5.2-.4.3-.6a12.9 12.9 0 0 1 6.2-5.2l.8-.3 1-.3.2-.1.6-.1.2-.1h.5l.6-.1.5-.1h246a16.4 16.4 0 0 1 1.9.1 16.1 16.1 0 0 1 2 .4 13 13 0 0 1 9 7v.1l.1.4.2.6.1.4.1.3c.1.1 0 .1 0 .2v.4a3.6 3.6 0 0 1 0 .4.5.5 0 0 1 0 .1v1-2.7c.3-.1.3-.3.3-.4z" fill="#c49931" opacity=".6"/></g><path fill="#1a171b" opacity=".4" d="M.2 0h209.6v125.5H.2z"/><g clip-path="url(#b)"><g clip-path="url(#c)"><path d="M451 16H206.7c-7.5 0-13.7 6.5-13.7 14.4V164a14 14 0 0 0 13.6 14.4H451c7.5 0 13.6-6.5 13.6-14.4V30.4A14 14 0 0 0 451 16z" fill="#523202"/><path d="M464.7 27v133.6A14.7 14.7 0 0 1 458 173a13.8 13.8 0 0 1-1.5.8 12.8 12.8 0 0 1-5.5 1.2H204.8l-.6-.2h-.4l-.3-.1-.8-.2-.5-.2-.5-.2-.2-.1-.7-.3-.3-.2-.2-.1-.2-.1-.2-.1-.6-.4-.5-.4-1-.8-.3-.3-.1-.1a14.4 14.4 0 0 1-1.1-1.2l-.3-.4-.5-.7-.2-.4-.3-.5-.3-.5-.1-.3-.2-.5-.2-.3-.4-1v-.4c0-.2-.1-.2-.2-.3l-.2-1c0-.4-.1-.5-.2-.7v-.5a15.2 15.2 0 0 1-.1-1.9V24.5a13.8 13.8 0 0 1 .5-1.5v-.3l.3-.7.2-.5.3-.7a14.2 14.2 0 0 1 6.2-6.7l.7-.3 1-.4.3-.1.5-.2h.3l.2-.1.3-.1.6-.1h.5l.6-.1H451a12.7 12.7 0 0 1 3.9.5 14.1 14.1 0 0 1 9 9v.1l.1.4.2.8.1.4.1.5v.2l.1.5a.9.9 0 0 1 0 .2v.4a.8.8 0 0 1 0 .2v.5a1 1 0 0 1 0 .1c.2.2.2.4.2.5z" fill="#945c23"/><path d="M464.7 98v36.2l-3.6-.3a157.3 157.3 0 0 0-33-.2c-4.5.6-9 1.5-13.5 2-3.4.3-6.8.5-10.3.5-6.5.2-13 0-19.6.1l-4.5.3c-5.9.3-11.7 1-17.4 1.8-13.6 1.8-27 4.2-41 4.6-28 .8-53-6.2-78.8-12-4.7-1.2-9.4-2.2-14.1-3a235.3 235.3 0 0 0-31.5-4.4 34 34 0 0 1-4.4-.6v-4.6l2.6-.8 1.6-.5 24.4-7.7c11.7-3.6 26.8-2.8 39.6-5 3.9-.7 7.6-1.7 11.5-2.2a124 124 0 0 1 16.8-1l24.9-.2 19.1-.1 34.7-.3a66.7 66.7 0 0 1 12.3.6c3.7.7 6.8 2 10.5 2.9 11.7 2.5 24.8-.8 37-2.8h.4c5-.8 10-1.3 15-1.8l13.4-.9zm0-71v18l-2.4-.2c-11.2-.7-23 .5-33.7-1-5.3-.8-10-2.2-15-3.3-13.8-2.8-29.8-2.7-45-3.7-17.5-1.2-34.1-4-51-6.2a733 733 0 0 0-91.3-7.2c-11 0-22 .1-33 .6.2-.3.2-.7.3-1l.1-.3.2-.7.2-.5v-.2l.3-.5a14.5 14.5 0 0 1 2.8-4 13.7 13.7 0 0 1 3.4-2.6l.8-.4 1-.4h.2l.5-.2h.3l.3-.1h.2l.6-.2h.5l.6-.1H363l5.9.7a4411 4411 0 0 0 34 3.8l9.7 1 14.6 1.4 4.2.4c10.7 1 21.5 1.8 32.4 2.4l.1.3.2.8c0 .3.1.3.2.4v.7l.1.5a.6.6 0 0 1 0 .1v.5a1.1 1.1 0 0 1 0 .1v.6a.6.6 0 0 1 0 .1c.2 0 .2.3.2.4z" fill="#a35e26"/><path d="M464.7 42.6v3.7c-12.8.2-26 1.5-37.6-.5-5.2-1-9.6-2.5-14.6-3.5-8-1.6-17-2-25.7-2.4-40-2.2-78.3-8.1-117.4-12.4-17.5-2-35.6-3.6-53.7-3.1-8.2.2-15.5.9-22.6 1.7v-1.5l.2-.6.2-1v-.3l.3-.7.2-.5v-.2c22.8-1.2 46.4.6 69.1 2.5 29.3 2.4 58.8 4.8 87 9 10.8 1.6 21.6 3.5 33.1 4 10 .4 20.4-.3 29.5 1.3 7.3 1.2 13.3 3.8 21 4.1 4.2.2 8.3-.3 12.4-.5a116.1 116.1 0 0 1 18.6 1zm0 8.7V53l-8 .1c-18 0-35.5-2-52.7-4-38.7-4.7-76.3-10.4-116.5-11.8-31.4-1-63.2-2-94.5-1v-1.8c28-1.1 56.4-.5 84.5.7a1058.8 1058.8 0 0 1 96.1 8.3c13 1.7 24.2 4.2 37.7 5 16.5 1 33.2 2.3 49.9 2.7h3.5zm0-17.6v3.5a116 116 0 0 1-17.6-1.6c-6-1.1-11.1-3-17.4-3.8-8.8-1.1-18.4 0-27.6-.3A130 130 0 0 1 377 28c-7.8-2.2-10.4-5-21-5.6-9.3-.6-18.7 0-28 0-28.1.2-54.8-5.7-82.9-5.8-7.2 0-14.3.3-21.5.2-9.3-.1-17.9-.2-26.3 0a13.7 13.7 0 0 1 3.4-2.6l.7-.4 1-.4h.2c28-.3 56 1.4 83.9 3.1l60.7 3.8c6.4.4 12.9.8 18.4 2.2 3.8.9 7 2.2 10.7 3.2 15.3 4 35.6 1.2 53.3 2.9 10.7 1 20 3.7 30.7 4.8l4.5.3zm0 34.3v2.8a282 282 0 0 1-32-1.8l-60.9-5.6c-22-2-40.4-2.4-62.8-3.4-10-.4-20.1-.8-29.7.3-8.6 1-16.5 3.3-25.4 3.2-3.3 0-6.7-.4-10 0-4 .4-6.8 1.9-10 3-10.7 3.7-26 3.1-40.8 3.4v-3.2a95.4 95.4 0 0 0 16.7-.6c5.3-.9 9.5-2.5 14.5-3.7 11-2.5 24.7-2.4 37.2-3.6 13.9-1.3 24.5-3 39.4-2.8 21.9.3 43.6 1.6 65 3.4 31.6 2.7 65.7 9.8 98.4 8.6z" fill="#864f22"/><path d="M464.7 57.9v3q-14.3 0-28.7.5a89.5 89.5 0 0 1-13.6-.2c-20.5-2.4-40.3-6.9-61.4-9.1-23.7-2.5-47.9-4-72-4.5a106.6 106.6 0 0 1-15.3-1c-3.9-.6-7.5-1.7-11.5-2.2a71.4 71.4 0 0 0-14.5.4L193 50.3v-4c8.4-.6 17.9.5 26-1 3-.6 5.9-1.6 9.1-1.9 10.2-1 31.3-3.9 40.7-1.5 2.3.6 4.2 1.4 6.5 2 6.4 1.4 14 .2 21 .4 7.6 0 15 1.7 22.4 1.4 2.8 0 5.4-.4 8.1-.5 7.5-.2 13.7 1.8 21 2.3 5.8.4 10.7 0 16.6.7 11.7 1.4 19.9 4 30.3 6.4a47.7 47.7 0 0 0 7.7.6c10.4.6 19.2 4.1 29.6 4.4 7 .2 14-1.3 21-1.5l11.7-.2zm0 18.1v2.6q-14.5.6-29 1.6c-14.1.9-28.1 2-42.1 3a435.6 435.6 0 0 1-66 .7c-18.6-1.6-36.4-5.2-55.2-5.7-12.6-.3-25.2.8-37.6 1.8Q214 81.7 193 83.2v-4.5l9.5-.5c15.6-.8 31.2-1.5 46.9-2 16.2-.3 32.6-.2 48.2 1.8 12.7 1.6 24.8 4.5 37.8 5s26.2-1.6 39.4-1.6c8 0 16.2.6 24-.1 5.6-.6 10.8-1.9 16.3-2.7a207.6 207.6 0 0 1 23.9-1.8zm0 19v3.4l-7.5.3-13.6.8c-5.1.4-10.2 1-15 1.7l-.5.1-1.5.3c-9.4 1.7-18.6 4.7-28.7 4.2-8.2-.3-15.3-3-23.3-4-11.3-1.5-23.2.3-34.8 1.3a223.2 223.2 0 0 1-40.1-.5c-5.3-.5-10.7-1.3-16-1-7.3.4-13.4 2.7-20.4 3.7-10 1.5-21 .3-30.8 2-13 2-22 8.8-35.2 9.7l-1.5.1a1.4 1.4 0 0 0-.1.4c0 1.6 3.5 2.8 6.5 3.6q13.1 3.6 26.8 6.7l14 3q13.5 2.8 27.4 5c24.8 4.2 52.1 7.2 76.8 3 10-1.8 19.3-4.6 29.9-4.9 7.2-.2 14.3.9 21.6.7 13.3-.2 25.5-4.4 38.8-4.1 6.7 0 13 1.3 19.6 1.9 2.5.2 5 .4 7.6.4v3.2c-4 0-8 0-12.1-.2-8.2-.5-16.3-2-24.4-2.2a64 64 0 0 0-8.5.3c-4.3.4-8.3 1.4-12.6 2l-2.7.3c-7.9.7-16.1.2-24.2.3-2.6 0-5.3.1-7.9.4a92.6 92.6 0 0 0-9.5 1.4c-5.5 1-10.8 2.5-16.3 3.7-8.5 1.8-17.4 1.8-26.7 2.3a118.5 118.5 0 0 1-34.3-3 111.4 111.4 0 0 0-12-2.7c-5.2-.7-10.8-.4-16.2-.6a82.7 82.7 0 0 1-27.5-5.4c-10.7-4.4-18-8.2-32.9-8.4h-3.8v-9.8c5.5-1 11.5-1.5 16.5-3 4.4-1.4 7.7-3.4 12-5 12.3-4.5 27.8-1.9 41.8-4 6-.8 11.1-2.5 17-3.3 11.2-1.4 22.6.9 34 1.9a102.7 102.7 0 0 0 19.2-.2c11.7-1.2 23.2-4 34.8-2.8 10.9 1.1 20.3 5.6 31.2 4.9 6-.4 11-2.2 16.7-3 14.5-2 27.6 0 41.7-3.6a49.8 49.8 0 0 1 6.7-1.2z" fill="#864f22"/><path d="M464.7 85v3.3L421.5 92a305 305 0 0 1-43.7 1.6c-8-.5-16-1.6-24.1-1.1-3.7.2-7.4.7-11 1-19.2 1.8-38.6-2.5-58-1.5a202.3 202.3 0 0 0-24.3 3.2L238 99c-4.5.8-9 1.6-13.3 2.6-4 1-7.6 2.2-11.8 2.8-6 1-12.3.6-18.4 1.1l-1.6.2V103c4.6 0 9.3.2 13.7-.5 6-1 10.5-3.4 16.5-4.3 5.2-.8 10.8-.3 16-1s9.6-2.4 14.3-3.8c14.3-4.3 31.5-4.9 48-4.6 8 .1 16.7.2 24.7.6 7 .4 15.4 2.7 22.2 1.5 2-.4 3.7-1 5.7-1.3 7.6-1.1 14.5 3 22.4 3 7 .2 13.2-2.8 20.2-2.4 3.8.3 7.6 1.6 11.3 1a28.1 28.1 0 0 0 4.2-1.2c8-2.4 16.8-.3 25.2-1.2 6.7-.7 12-2.7 18.8-3.3l8.5-.6z" fill="#864f22"/><path d="M464.7 26.5a1 1 0 0 0 0-.1v-.6a.8.8 0 0 0 0-.1v-.5a.3.3 0 0 0 0-.1l-.1-.5v-.3l-.1-.4-.1-.5-.2-.8-.1-.3V22a14.1 14.1 0 0 0-9-9 12.7 12.7 0 0 0-4-.5H205l-.4.1-.6.1-.2.1h-.3l-.3.1-.5.2-.3.1-1 .4-.7.4a14.2 14.2 0 0 0-6.2 6.6l-.3.7-.2.5-.2.6v.4a13.8 13.8 0 0 0-.4 1.6v5-1.6a13.8 13.8 0 0 1 .3-1.6l.1-.3.2-.7.2-.5.3-.7a14.2 14.2 0 0 1 6.2-6.6l.7-.4 1-.4h.3l.5-.2.3-.1h.3l.2-.1.6-.2h.5l.5-.1H451a12.7 12.7 0 0 1 3.9.6 14.1 14.1 0 0 1 9 8.9v.2l.1.4.2.7.1.5.1.4v.3l.1.5a.9.9 0 0 1 0 .1v.5a.8.8 0 0 1 0 .1v1.3V27c.2-.1.2-.3.2-.5z" fill="#c49931" opacity=".6"/></g></g><rect x="36" y="6" width="141" height="112" rx="3.6" ry="3.6" fill="#1a171b" opacity=".3"/><rect x="49" y="19" width="27" height="27" rx="2.3" ry="2.3" fill="#a35e26"/><rect x="78" y="19" width="27" height="27" rx="2.3" ry="2.3" fill="#ffd400"/><rect x="107" y="19" width="27" height="27" rx="2.3" ry="2.3" fill="#a35e26"/><rect x="136" y="19" width="27" height="27" rx="2.3" ry="2.3" fill="#a35e26"/><rect x="49" y="48" width="27" height="27" rx="2.3" ry="2.3" fill="#a35e26"/><rect x="78" y="48" width="27" height="27" rx="2.3" ry="2.3" fill="#a35e26"/><rect x="136" y="48" width="27" height="27" rx="2.3" ry="2.3" fill="#ffd400"/><rect x="49" y="77" width="27" height="27" rx="2.3" ry="2.3" fill="#ffd400"/><rect x="78" y="77" width="27" height="27" rx="2.3" ry="2.3" fill="#a35e26"/><rect x="107" y="77" width="27" height="27" rx="2.3" ry="2.3" fill="#a35e26"/><rect x="136" y="77" width="27" height="27" rx="2.3" ry="2.3" fill="#a35e26"/><path d="M61.9 87l-1.9.5-.6-2.4 3.2-.9h2.2v11h-3zm25.5-51.3l4.1-3.2c1-.7 1.4-1.3 1.4-2a1.1 1.1 0 0 0-1.2-1c-.8 0-1.3.3-2.2 1.3l-2-1.7a5 5 0 0 1 4.4-2.3c2.4 0 4 1.4 4 3.5 0 1.8-.8 2.7-2.5 3.9l-1.9 1.3h4.6V38h-8.7zM149.7 65h-5.3l-.5-2 5.7-6.9h3v6.7h1.5v2.3h-1.4v2.1h-3zm0-2.2v-3.1l-2.6 3.1z" fill="#673b15"/><rect x="107" y="48" width="27" height="27" rx="2.3" ry="2.3" fill="#ffd400"/><path d="M116 64.8l2-2a3.6 3.6 0 0 0 2.6 1.3c.9 0 1.4-.4 1.4-1.1s-.6-1.1-1.8-1.1H119l-.4-1.6L121 58h-4.2v-2.5h8v2.2L122 60c1.6.3 2.9 1.2 2.9 3.1 0 2.2-1.8 3.7-4.3 3.7a6 6 0 0 1-4.6-2z" fill="#673b15"/></svg>