<svg xmlns="http://www.w3.org/2000/svg" id="Layer_1" xmlns:xlink="http://www.w3.org/1999/xlink" viewBox="0 0 210 125"><style>.st2{fill:#b7712c}.st4{fill:#a06025}</style><defs><path id="XMLID_258_" d="M-.5 0h210v125H-.5z"/></defs><clipPath id="XMLID_227_"><use xlink:href="#XMLID_258_" overflow="visible"/></clipPath><g id="XMLID_261_" style="clip-path:url(#XMLID_227_)"><path id="XMLID_496_" d="M-164.8-66.5h632.6v477.7h-632.6z" class="st2"/><g id="XMLID_262_"><defs><path id="XMLID_263_" d="M-164-65.9h631.1v476.5H-164z"/></defs><clipPath id="XMLID_228_"><use xlink:href="#XMLID_263_" overflow="visible"/></clipPath><g id="XMLID_264_" opacity=".4" clip-path="url(#XMLID_228_)"><path id="XMLID_470_" d="M-233.4 90.3c56.8-.8 113.5-1.8 170.1-3.1 68.7-1.5 136.9-4.3 205.8-4.8 110.8-.8 221.8 0 332.6 1.2 3.3 0 5.4-1 4.7-2-.3-.4-.6-.9-.9-1.3-.5-.7-1.9-1-3.5-1.1h-1.1c-109.1-1.1-218.5-1.7-327.6-.9-68.4.4-136.1 3.1-204.4 4.7-58.4 1.4-116.8 2.4-175.3 3.2-2.8 0-4.7.7-4.9 1.5-.1.3-.2.7-.3 1-.2.9 2.3 1.7 4.8 1.6z" class="st4"/><path id="XMLID_469_" d="M-238.2 60.2v1.4c0 .8 1.5 1.2 3.5 1.5 62.7 8.5 132.3 13.6 200.1 14.6 31.1.5 62.6-.7 93.7-1.1 32.7-.4 65.4-.7 98.1-.9 106.1-.7 212.3-.9 318.5-1.2 3.2 0 5.5-1 4.7-2-.3-.4-.7-.9-1-1.3-.3-.4-.9-.7-1.7-.9-.7-.2-1.7-.3-3-.3-103.9.2-207.8.6-311.7 1.4-61.1.6-122.5 2.2-183.6 2.2-71.1.1-145.8-6.1-211.4-14.9-3-.4-6.2.6-6.2 1.5z" class="st4"/><path id="XMLID_468_" d="M-233.6 54.8c102.9 4.9 206.1 9.2 310 11.1 55.2 1 110.9 1.9 165.8-.2 77.1-2.9 155.2-3.4 232.7-5 2.7-.1 4.8-.6 4.9-1.5 0-.3.1-.7.1-1 0-.4-.3-.7-.8-.9-.7-.4-2-.7-4-.7-76.3 1.6-152.9 2.3-229 4.8-54.5 1.8-108.5 1.3-163.2.4-105.6-1.8-210.1-6.5-314.6-11.6-3.8-.2-6.7.6-6 1.9.2.5.5 1 .7 1.4.3.7 2 1.2 3.4 1.3z" class="st4"/><path id="XMLID_285_" d="M-237.8 27.5c6.5 2.9 13.8 2.2 24.8 2.6 22.3.9 44.3 2.6 66.1 4.4C-97.1 38.6-48 43.6 1.2 48.4c35.6 3.5 72.4 7.6 109.6 8.9 22.9.8 46.3.4 69.3.1 99.3-1.3 198.6-5 297.2-9 2.9-.1 3.9-.8 3.5-1.5v-.4c-.1-.3-.3-.7-.4-1-.4-.9-3.6-1.2-6-1.1-93 3.8-186.5 7-280.1 8.6-23.3.4-46.6.7-69.9.4-33.1-.4-65.5-4-97.1-7C-21.7 42-70.1 37-119 32.6c-37.2-3.3-75.8-6.8-114.5-7.4-3.5 0-6.5 1.4-4.3 2.3z" class="st4"/><path id="XMLID_284_" d="M478.7 10.1c-23-1.1-49.9 2.5-72 4.1-56.6 4-113.2 8.1-169.6 12.5-35.9 2.8-71.9 5.7-107.2 9.2-12.4 1.2-25.7 2.5-37.1 4.6-3 .6-7.6 1.6-7.3 2.9 1.1 4.7 32 4 42.1 4.2 63.5.8 127.6-.6 191-1.8 52.4-1 104.8-2.1 157.1-3.5 2.6-.1 4.9-.6 4.9-1.5v-1c0-.8-2.1-1.6-4.8-1.6-105.4 2.7-211.3 5.3-317.1 5.5-11.6 0-23.1 0-34.7-.2-4.4-.1-8.8-.2-13.3-.3-1.9-.1-3.3-.1-4.5-.2 5.4-.7 12.6-1.5 15.8-1.8 54.3-6.1 111.1-10.3 167-14.5 62.9-4.8 126.1-9.2 189.4-13.4 2.7-.2 3.7-.8 3.5-1.5.6-.9-.4-1.6-3.2-1.7z" class="st4"/><path id="XMLID_282_" d="M-236.6 19.2c7 2.9 22.9 2.2 33.6 2.6 26.8 1.2 53.4 2.8 79.9 4.5 50.3 3.2 101.2 10.1 153 7.9 31.2-1.3 61.6-4.1 92-6.6 36.9-3 74-5.8 111.2-8.4 31.7-2.3 63.5-4.5 95.3-6.7 11-.8 24.6-1 35.2-2.4 1 0 1.8-.2 2.4-.4 2.9-.7 1.5-2.6-2.3-2.7 32.6.1 65.3.3 97.9.6 18.6.1 38.4-.2 56.9.8 2.8.1 6.6-.4 6.2-1.5l-.6-1.5c-.3-.6-1.3-1.4-3.6-1.5-17.9-.9-36.7-.6-54.7-.7-35.6-.3-71.2-.3-106.8-.3-53 0-106 .2-159 .1-2.3 0-3.8.4-4.4.9-22.1 1.1-44.5 3.4-65.4 4.7-25.3 1.6-50.8 3.1-76.3 4.3-16.3.8-33.1 1.7-49.7 1.1-78.1-3.1-156.6-5.2-234.9-7.6-3.3-.1-5.4 1-4.7 2 .3.4.6.9.9 1.3.5.7 2.6 1.1 4.7 1.2 77.4 2.3 155.1 4.3 232.3 7.2 37.5 1.4 79-2.4 115.6-4.5 36-2.1 71.9-4.4 107.7-6.9 40.6.1 81.2.2 121.8.4-25.6.4-51.2 3.3-75.9 5.1-70.9 5-141 10.9-211.7 16.1-28.1 2.1-56.3 3.1-84.8 1.2-25.3-1.7-50.1-4.2-75.4-6-43.1-3-88.7-6.5-132.9-7-4.6 0-6 1.7-3.5 2.7z" class="st4"/><path id="XMLID_281_" d="M-234.6-.8c.2.6 1.2 1.4 3.5 1.5 17.8 1 36.7.8 54.7 1 35.6.3 71.2.5 106.8.7 43.6.2 87.1.2 130.6.4.2 0 .3.1.5.1h.1c.2 0 .5.1.8.1h1.2c6.7.3 13.5.2 20.3 0h5.5c1.5 0 2.6-.2 3.4-.4 22.4-1.1 45-3.6 66.2-5 25.3-1.7 50.7-3.3 76.2-4.7 16.4-.8 33.2-1.9 49.8-1.3 78.2 2.7 156.7 4.5 235.1 6.5 3.3.1 5.3-1.1 4.7-2-.3-.4-.6-.9-1-1.3-.5-.7-2.6-1.1-4.7-1.1-77.4-1.9-155.1-3.6-232.4-6.2-37.5-1.3-78.9 2.7-115.4 5C137.9-5.3 104.6-3 71.5-.6c-1.7 0-3.4-.1-5.2-.1C35-.9 3.6-1.2-27.8-1.4c15.4-1.2 30.6-2.7 45.5-3.9 70.6-5.5 140.5-11.7 211-17.2 28.1-2.2 56.2-3.4 84.8-1.6 25.3 1.6 50.2 4 75.5 5.6 43.2 2.8 88.8 6.1 133.1 6.4 4.6 0 5.9-1.7 3.4-2.7-7.1-2.8-23-2.1-33.7-2.5-26.8-1.1-53.5-2.5-80-4.1-50.3-3-101.5-9.6-153.2-7.2-31.2 1.5-61.5 4.4-91.8 7-36.8 3.2-73.9 6.1-111 8.9-31.5 2.6-63.2 4.9-94.9 7.2-11 .8-24.5 1.1-35.2 2.6-1 0-1.8.2-2.4.4-.7.2-1.1.4-1.3.7-29.1-.3-58.2-.5-87.2-.9 16.3-.9 33.1-2.9 47.8-4.1C-61-11-4.6-15.4 51.7-20c35.9-3 71.7-6 106.9-9.7 12.4-1.3 25.6-2.6 36.9-4.7 3-.6 7.6-1.7 7.2-3-1.2-4.7-32.2-3.9-42.3-4-63.4-.5-127.5 1.3-190.8 2.7-52.4 1.2-104.7 2.6-157 4.2-2.6.1-4.9.6-4.9 1.6v1c0 .8 2.2 1.6 4.9 1.6 105.3-3.2 211.2-6.2 316.9-6.9 11.6-.1 23.1-.1 34.7 0 4.4 0 8.8.1 13.3.2 1.9.1 3.3.1 4.5.2-5.4.7-12.6 1.5-15.8 1.9C112.1-28.5 55.4-24.1-.4-19.6c-62.8 5.1-125.8 9.7-189 14.2-2.7.2-3.7.9-3.5 1.5-.1.3 0 .7.5.9-12.3-.1-24.7-.2-36.6-.9-2.7-.2-6.6.4-6.2 1.5.3.5.4 1.1.6 1.6z" class="st4"/><g id="XMLID_273_"><path id="XMLID_280_" d="M144.7 93.1c-110.8 1.3-221.8 1-332.6.3-3.3 0-5.4 1-4.7 2 .3.4.6.9.9 1.3.5.7 1.9 1 3.6 1.1h1.1c109.1.7 218.6.7 327.6-.6 68.5-.8 136.1-3.8 204.3-5.7 58.3-1.6 116.8-2.9 175.2-4 2.8-.1 4.6-.7 4.9-1.6.1-.3.2-.7.3-1 .2-.8-2.4-1.6-4.9-1.6-56.7 1-113.4 2.3-170 3.8-68.7 2.1-136.8 5.2-205.7 6z" class="st4"/><path id="XMLID_279_" d="M526.1 112.3c0-.8-1.5-1.2-3.6-1.5-62.9-8.2-132.7-13-200.5-13.7-31.1-.3-62.6.9-93.7 1.5-32.7.6-65.4 1-98.1 1.3-106.1 1.2-212.3 1.9-318.4 2.6-3.2 0-5.5 1-4.7 2 .3.4.7.9 1 1.3.3.4.9.7 1.7.8.7.2 1.7.3 3 .3 103.9-.6 207.8-1.6 311.6-2.8 61.1-.7 122.5-2.6 183.6-3 71.1-.4 146 5.5 211.8 14 3 .4 6.2-.6 6.2-1.5.1-.4.1-.9.1-1.3z" class="st4"/><path id="XMLID_278_" d="M521.6 119.1c-103.1-4.5-206.4-8.3-310.3-9.8-55.2-.8-110.9-1.4-165.8.9-77 3.2-155.1 4.1-232.5 6-2.7.1-4.8.7-4.9 1.6 0 .3-.1.7-.1 1 0 .4.3.7.8.9.7.4 2.1.7 4.1.6 76.2-1.9 152.9-3 228.8-5.8 54.4-2 108.4-1.8 163.2-1.1 105.6 1.3 210.2 5.5 314.9 10.2 3.8.2 6.7-.7 6-1.9-.3-.5-.5-1-.8-1.4-.3-.6-1.9-1.2-3.4-1.2z" class="st4"/><path id="XMLID_277_" d="M526.6 146.3c-6.5-2.9-13.9-2.2-24.8-2.5-22.3-.8-44.4-2.4-66.2-4.1-49.9-3.8-99.1-8.7-148.4-13.2-35.7-3.3-72.6-7.3-109.8-8.4-22.9-.7-46.3-.2-69.3.2-99.3 1.7-198.5 5.8-296.9 10.3-2.9.1-3.8.8-3.4 1.5v.4c.1.3.3.7.4 1 .4.9 3.6 1.2 6 1.1 92.9-4.2 186.3-7.8 279.8-9.9 23.3-.5 46.6-.9 69.9-.7 33.1.3 65.6 3.7 97.2 6.5 48.9 4.4 97.4 9.1 146.5 13.3 37.3 3.1 76 6.4 114.7 6.9 3.6 0 6.5-1.4 4.3-2.4z" class="st4"/></g></g></g></g><path id="XMLID_260_" fill="none" d="M-164.8-66.5h632v478h-632z" clip-path="url(#XMLID_227_)"/><g id="XMLID_2540_"><path id="XMLID_924_" d="M75.325 44.658l47.083-19.342 19.342 47.082L94.667 91.74z" style="fill:#fcd532"/></g><g><defs><path id="SVGID_3_" d="M0 0h210v125H0z"/></defs><clipPath id="SVGID_2_"><use xlink:href="#SVGID_3_" overflow="visible"/></clipPath><g id="XMLID_259_" style="clip-path:url(#SVGID_2_)"><g id="XMLID_499_"><defs><path id="XMLID_640_" d="M-9.962-.222l178.456-44.43 39.96 160.504L30 160.282z"/></defs><clipPath id="XMLID_234_"><use xlink:href="#XMLID_640_" overflow="visible"/></clipPath><path id="XMLID_642_" fill="#FCD532" d="M100.1-.4c2.4-.4 4.7-.6 7-.7 26.3-1.1 50.2 16.9 56.7 43.2 4 15.7.4 31.2-7.7 43.9-7.3 12.2-19.5 21.6-34.3 25.4-30.4 7.6-60.6-11.6-68-41.5v-.1l10.8-2.7c6.7-1.7 8.3-6.8 3.6-11.4l-29-17.2c-6.6-4-8.2-3.6-12.1 3L9.6 70.3c-2 6.3 1.9 10 8.5 8.4L29 76c11 44 55.3 70.8 99 59.9 21.9-5.4 39.4-19.3 50.2-37.3 11.2-18.2 15.8-40.2 10.5-62.4l-.1-.2-.1-.3C177.3-8.1 133.1-35 89.6-24.1 74.2-20.3 61-12.3 50.8-1.7c-.4.4-.8.8-1.2 1.3M18.1 78.7" opacity=".5" clip-path="url(#XMLID_234_)"/></g></g></g><g><defs><circle id="SVGID_5_" cx="104.5" cy="-62.8" r="23"/></defs><clipPath id="SVGID_4_"><use xlink:href="#SVGID_5_" overflow="visible"/></clipPath><g style="clip-path:url(#SVGID_4_)"><defs><path id="XMLID_655_" d="M64.6-85.5h76.9v45.8H64.6z"/></defs><clipPath id="XMLID_235_"><use xlink:href="#XMLID_655_" overflow="visible"/></clipPath><g id="XMLID_657_" style="clip-path:url(#XMLID_235_)"><path id="XMLID_710_" d="M4.4-109.9H236V65H4.4z" class="st2"/><g id="XMLID_658_"><defs><path id="XMLID_659_" d="M4.7-109.6h231V64.8H4.7z"/></defs><clipPath id="XMLID_237_"><use xlink:href="#XMLID_659_" overflow="visible"/></clipPath><g id="XMLID_660_" style="opacity:.4;clip-path:url(#XMLID_237_)"><path id="XMLID_709_" d="M240.7 67.3c-.2-.3-.7-.4-1.3-.4h-.4c-40-.2-80-.3-120 .2-25.1.3-49.8 1.4-74.8 2.1-21.4.6-42.7 1.1-64.1 1.5-1 0-1.7.2-1.8.6 0 .1-.1.2-.1.4-.1.3.9.6 1.8.6 20.8-.4 41.5-.8 62.3-1.4 25.1-.7 50.1-1.8 75.3-2.1 40.5-.5 81.2-.4 121.8-.1 1.2 0 2-.4 1.7-.7-.2-.4-.3-.6-.4-.7z" class="st4"/><path id="XMLID_708_" d="M240.7 64c-.1-.1-.3-.2-.6-.3-.3-.1-.6-.1-1.1-.1-38 .2-76.1.6-114.1 1-22.4.3-44.8 1-67.2 1.1-26 .1-53.4-2-77.5-5.1-1.1-.1-2.3.2-2.3.5v.5c0 .3.6.5 1.3.6 23 3 48.6 4.8 73.4 5 11.4.1 22.9-.3 34.3-.5 12-.2 23.9-.3 35.9-.5 38.8-.4 77.7-.7 116.6-1 1.2 0 2-.4 1.7-.7-.1-.2-.3-.4-.4-.5z" class="st4"/><path id="XMLID_707_" d="M239 58.7c-27.9.7-56 1.1-83.8 2.1-19.9.7-39.7.7-59.7.4-38.7-.5-77-2-115.3-3.7-1.4-.1-2.4.2-2.2.7.1.2.2.4.3.5.1.2.7.4 1.2.4 37.7 1.6 75.6 3 113.6 3.6 20.2.3 40.6.5 60.7-.3 28.2-1.2 56.8-1.5 85.1-2.2 1 0 1.8-.2 1.8-.6v-.4c0-.1-.1-.2-.3-.3-.2-.2-.6-.3-1.4-.2z" class="st4"/><path id="XMLID_706_" d="M11 51.6c18.3 1.4 36.3 3.2 54.3 4.8 13.1 1.2 26.6 2.7 40.2 3.1 8.4.2 17 .1 25.4-.1 36.3-.6 72.7-2.1 108.7-3.8 1 0 1.4-.3 1.3-.6v-.1c-.1-.1-.1-.2-.2-.4-.1-.3-1.3-.4-2.2-.4-34 1.5-68.2 2.9-102.5 3.6-8.5.2-17.1.3-25.6.3-12.1-.1-24-1.4-35.6-2.4-17.9-1.6-35.7-3.3-53.6-4.9-13.7-1.2-27.8-2.4-42-2.5-1.3 0-2.3.5-1.5.9 2.4 1.1 5.1.8 9.1.9 8.2.3 16.3 1 24.2 1.6z" class="st4"/><path id="XMLID_705_" d="M239.1 43.9c-11.3.9-22.6 1.9-33.8 3-3.6.4-22 1.6-22 3.4 0 2.9 49.6.1 56.4-.2.7 0 1.4-.3 1.3-.6 0-.1-.1-.2-.1-.4-.1-.3-.7-.6-1.8-.6-10 .4-20 .8-30 1.1l-12.3.3h-5.7c5.4-.9 12.7-1.4 18.2-1.9 10.1-1 20.4-1.8 30.7-2.7.6 0 1-.2 1.1-.3l.1-.1c0-.1.1-.1.1-.2v-.5c0-.1-1.1-.4-2.2-.3z" class="st4"/><path id="XMLID_704_" d="M255.9 7.6c-20.8.3-41.5.7-62.3 1.1-25.2.6-50.1 1.6-75.4 1.8-40.6.3-81.2 0-121.8-.4-1.2 0-2 .4-1.7.7.1.2.2.3.3.5.2.3.7.4 1.3.4h.4c39.9.4 80 .6 120 .3 25.1-.2 49.9-1.2 74.8-1.8 21.4-.5 42.8-.9 64.2-1.2 1 0 1.7-.2 1.8-.6 0-.1.1-.2.1-.4.2-.1-.7-.4-1.7-.4z" class="st4"/><path id="XMLID_703_" d="M257.7 18.7v-.5c0-.3-.5-.5-1.3-.6-22.9-3.1-48.5-5-73.2-5.3-11.4-.2-22.9.2-34.3.4L113 13c-38.9.3-77.7.3-116.6.4-1.2 0-2 .3-1.7.7.1.2.2.3.4.5.1.1.3.2.6.3.2.1.5.1 1 .1 38-.1 76.1-.2 114.1-.5 22.4-.2 44.9-.8 67.2-.8 26 0 53.4 2.2 77.4 5.5 1.1.1 2.3-.2 2.3-.5z" class="st4"/><path id="XMLID_702_" d="M256 20.7c-37.7-1.8-75.5-3.4-113.5-4.1-20.2-.4-40.6-.7-60.7.1-28.2 1-56.8 1.2-85.2 1.7-1 0-1.8.2-1.8.6v.4c0 .1.1.2.3.3.3.2.7.3 1.5.2 27.9-.6 56-.8 83.8-1.8 19.9-.7 39.7-.5 59.7-.1 38.7.7 76.9 2.4 115.2 4.2 1.4.1 2.4-.2 2.2-.7-.1-.2-.2-.4-.3-.5 0-.1-.6-.3-1.2-.3z" class="st4"/><path id="XMLID_701_" d="M257.6 30.6c-2.4-1.1-5.1-.8-9.1-1-8.2-.3-16.2-1-24.2-1.6-18.2-1.5-36.2-3.3-54.2-5.1-13-1.3-26.5-2.8-40.1-3.3-8.4-.3-17-.2-25.4 0-36.4.5-72.7 1.8-108.8 3.3-1 0-1.4.3-1.3.6v.1c0 .1.1.2.1.4.1.3 1.3.4 2.2.4 34-1.4 68.3-2.6 102.5-3.2 8.5-.1 17.1-.2 25.6-.1 12.1.2 24 1.5 35.5 2.6 17.8 1.7 35.6 3.5 53.5 5.1 13.6 1.2 27.7 2.5 41.9 2.7 1.5 0 2.6-.5 1.8-.9z" class="st4"/><path id="XMLID_700_" d="M-4.8 37c8.4.4 18.3-.9 26.4-1.5 20.7-1.5 41.4-3 62.1-4.6 13.2-1 26.3-2.1 39.2-3.4 4.6-.5 9.4-.9 13.6-1.7 1.1-.2 2.8-.6 2.7-1.1-.4-1.7-11.7-1.5-15.4-1.5-23.3-.2-46.8.4-70 .8-19.2.4-38.4.8-57.5 1.3-1 0-1.8.2-1.8.6v.4c0 .3.8.6 1.8.6 38.6-1 77.4-1.9 116.1-2 4.2 0 8.5 0 12.7.1 1.6 0 3.2.1 4.9.1.7 0 1.2.1 1.6.1-2 .3-4.6.5-5.8.7-19.9 2.1-40.7 3.6-61.2 5.1-23 1.8-46.2 3.4-69.3 4.9-1 .1-1.3.3-1.3.6-.1.2.2.5 1.2.5z" class="st4"/><path id="XMLID_699_" d="M-4.8 33c-.6 0-1 .2-1.2.3l-.1.1c0 .1-.1.1-.1.2v.5c0 .4 1.1.6 2.2.6 11.4-.9 22.7-1.8 33.9-2.9 3.6-.3 22-1.5 22.1-3.3.1-2.9-49.6-.4-56.4-.1-.7 0-1.4.3-1.3.5 0 .1.1.2.1.4.1.3.7.6 1.8.6 10-.4 20-.7 30-1 4.1-.1 8.2-.2 12.4-.2h5.7c-5.4.9-12.8 1.3-18.3 1.8-10.2.9-20.5 1.8-30.8 2.5z" class="st4"/><path id="XMLID_698_" d="M257.1 33.7c-2.6-1-8.4-.8-12.3-1-9.8-.4-19.5-1-29.2-1.6-18.4-1.2-37.1-3.7-56-2.9-11.4.5-22.6 1.5-33.7 2.4-13.5 1.1-27.1 2.1-40.7 3.1-11.6.8-23.3 1.6-34.9 2.4-4 .3-9 .4-12.9.9-.4 0-.7.1-.9.1-1.1.3-.5.9.8 1-11.9 0-23.9-.1-35.8-.2-6.8-.1-14.1.1-20.8-.3-1-.1-2.4.1-2.3.6.1.2.1.4.2.6.1.2.5.5 1.3.5 6.5.3 13.5.2 20 .3 13 .1 26.1.1 39.1.1 19.4 0 38.8-.1 58.2 0 .9 0 1.4-.1 1.6-.3 8.1-.4 16.3-1.2 23.9-1.7 9.3-.6 18.6-1.1 27.9-1.6 6-.3 12.2-.6 18.2-.4 28.6 1.1 57.3 1.9 86 2.8 1.2 0 2-.4 1.7-.7-.1-.2-.2-.3-.3-.5-.2-.3-.9-.4-1.7-.4-28.3-.8-56.8-1.6-85-2.6-13.7-.5-28.9.9-42.3 1.7-13.2.8-26.3 1.6-39.4 2.5-14.9 0-29.7-.1-44.6-.1 9.4-.2 18.8-1.2 27.8-1.9 25.9-1.9 51.6-4.1 77.4-6 10.3-.8 20.6-1.1 31.1-.5 9.2.6 18.3 1.5 27.6 2.2 15.8 1.1 32.5 2.4 48.7 2.6 1.7-.1 2.2-.8 1.3-1.1z" class="st4"/><path id="XMLID_697_" d="M256.4 41c-.1-.2-.5-.5-1.3-.6-6.5-.4-13.4-.3-20-.4-13.1 0-26.1-.1-39.1-.2-15.9-.1-31.9-.1-47.8-.2h-1c-2.5-.1-4.9 0-7.4.1h-2c-.5 0-1 .1-1.2.1-8.2.4-16.5 1.3-24.2 1.8-9.3.6-18.5 1.2-27.9 1.7-6 .3-12.2.7-18.2.5-28.6-1-57.4-1.7-86.1-2.4-1.2 0-2 .4-1.7.7.1.2.2.3.3.5.2.3.9.4 1.7.4 28.4.7 56.8 1.3 85.1 2.3 13.7.5 28.9-1 42.3-1.8 12.2-.8 24.4-1.6 36.5-2.5h1.9c11.5.1 23 .2 34.5.2-5.6.4-11.2 1-16.7 1.4-25.8 2-51.4 4.3-77.3 6.3-10.3.8-20.6 1.2-31 .6-9.3-.6-18.4-1.5-27.7-2.1-15.8-1-32.5-2.2-48.7-2.3-1.7 0-2.2.6-1.3 1 2.6 1 8.4.8 12.3.9 9.8.4 19.6.9 29.3 1.5 18.4 1.1 37.2 3.5 56.1 2.6 11.4-.5 22.5-1.6 33.6-2.6 13.5-1.2 27-2.2 40.6-3.3 11.6-.9 23.2-1.7 34.8-2.6 4-.3 9-.4 12.9-.9.4 0 .7-.1.9-.1.3-.1.4-.2.5-.3l31.9.3c-6 .3-12.1 1.1-17.5 1.5-20.7 1.6-41.4 3.2-61.9 4.9-13.1 1.1-26.3 2.2-39.2 3.5-4.5.5-9.4.9-13.5 1.7-1.1.2-2.8.6-2.6 1.1.4 1.7 11.8 1.4 15.5 1.5 23.3.2 46.7-.4 69.9-1 19.2-.4 38.3-1 57.5-1.5 1 0 1.8-.2 1.8-.6v-.4c0-.3-.8-.6-1.8-.6-38.5 1.2-77.3 2.3-116 2.5h-12.7c-1.6 0-3.2 0-4.9-.1-.7 0-1.2 0-1.6-.1 2-.3 4.6-.6 5.8-.7 19.8-2.3 40.3-3.9 61-5.6 23-1.9 46.1-3.6 69.2-5.2 1-.1 1.3-.3 1.3-.6.1-.1 0-.2-.2-.3 4.5 0 9.1.1 13.4.3 1 .1 2.4-.1 2.3-.5-.3 0-.4-.2-.4-.4z" class="st4"/><path id="XMLID_696_" d="M117.5 6.6c40.5-.5 81.2-.4 121.8-.1 1.2 0 2-.4 1.7-.7-.1-.2-.2-.3-.3-.5-.2-.3-.7-.4-1.3-.4h-.4c-40-.2-80-.3-120 .2-25.1.3-49.8 1.4-74.8 2.1-21.3.5-42.7 1-64.1 1.4-1 0-1.7.2-1.8.6 0 .1-.1.2-.1.4-.1.3.9.6 1.8.6 20.7-.4 41.5-.9 62.2-1.5 25.2-.7 50.1-1.8 75.3-2.1z" class="st4"/><path id="XMLID_695_" d="M-22.1-.4c0 .3.6.5 1.3.6 23 3 48.6 4.7 73.4 5 11.4.1 22.9-.4 34.3-.6 12-.2 23.9-.3 35.9-.5 38.8-.4 77.7-.7 116.6-1 1.2 0 2-.4 1.7-.7-.1-.2-.3-.3-.4-.5-.1-.1-.3-.2-.6-.3-.3-.1-.6-.1-1.1-.1-38 .2-76.1.6-114.1 1-22.4.3-44.8 1-67.2 1.1-26 .1-53.4-2-77.5-5.1-1.1-.1-2.3.2-2.3.5v.6z" class="st4"/><path id="XMLID_694_" d="M-20.5-2.9C17.2-1.3 55.1.1 93.1.7c20.2.3 40.6.5 60.7-.3C182-.8 210.7-1.1 239-1.8c1 0 1.8-.2 1.8-.6v-.4c0-.1-.1-.2-.3-.3-.3-.2-.8-.3-1.5-.2-27.9.7-56 1.1-83.8 2.1-19.9.7-39.7.7-59.7.4-38.7-.5-77-2-115.3-3.7-1.4-.1-2.4.2-2.2.7.1.2.2.4.3.5.1.2.7.4 1.2.4z" class="st4"/></g></g></g><path id="XMLID_656_" fill="none" d="M4.4-109.9h231.4v175H4.4z" clip-path="url(#XMLID_235_)"/></g></g></svg>