<svg id="Слой_1" data-name="Слой 1" xmlns="http://www.w3.org/2000/svg" xmlns:xlink="http://www.w3.org/1999/xlink" viewBox="0 0 210 125"><defs><style>.cls-1,.cls-16,.cls-33,.cls-6,.cls-7,.cls-8{fill:none}.cls-5{opacity:.6}.cls-6,.cls-7,.cls-8{stroke:#0f76bc}.cls-16,.cls-33,.cls-6,.cls-7,.cls-8{stroke-miterlimit:10}.cls-6,.cls-7{stroke-width:.56px}.cls-6{stroke-dasharray:2.76 2.76}.cls-8{stroke-width:.45px;stroke-dasharray:2.9 2.9}.cls-16{stroke:#6b2619;stroke-width:.31px}.cls-16,.cls-33{stroke-linecap:round}.cls-17{fill:#efc390}.cls-19{fill:#9b2b1f}.cls-20{fill:#77200e}.cls-22{fill:#562602;opacity:.56;isolation:isolate}.cls-25{fill:#31170a}.cls-32{fill:#bf7c22}.cls-33{stroke:#dd886b;stroke-width:.54px}</style><clipPath id="clip-path"><rect class="cls-1" width="210" height="125"/></clipPath><clipPath id="clip-path-2"><rect class="cls-1" x="-211" y="0.11" width="632" height="125"/></clipPath><linearGradient id="Безымянный_градиент_12" x1="-211" y1="-1308.95" x2="421" y2="-1308.95" gradientTransform="matrix(1, 0, 0, -1, 0, -1246.33)" gradientUnits="userSpaceOnUse"><stop offset="0" stop-color="#42dcff"/><stop offset="1" stop-color="#0697e6"/></linearGradient><linearGradient id="Безымянный_градиент_6" x1="47.86" y1="-1345.48" x2="152.88" y2="-1345.48" gradientTransform="matrix(1, 0, 0, -1, 0, -1246.33)" gradientUnits="userSpaceOnUse"><stop offset="0" stop-color="#823e2f"/><stop offset="0.18" stop-color="#8f412d"/><stop offset="0.71" stop-color="#b34729"/><stop offset="1" stop-color="#c04a27"/></linearGradient><linearGradient id="Безымянный_градиент_6-2" x1="62.59" y1="-1328.99" x2="67" y2="-1328.99" xlink:href="#Безымянный_градиент_6"/><linearGradient id="Безымянный_градиент_6-3" x1="55.04" y1="-1328.99" x2="59.46" y2="-1328.99" xlink:href="#Безымянный_градиент_6"/><linearGradient id="Безымянный_градиент_6-4" x1="47.13" y1="-1329.14" x2="51.54" y2="-1329.14" xlink:href="#Безымянный_градиент_6"/><linearGradient id="Безымянный_градиент_6-5" x1="47.55" y1="-1322.66" x2="66.67" y2="-1322.66" xlink:href="#Безымянный_градиент_6"/><linearGradient id="Безымянный_градиент_7" x1="99.15" y1="-1338.63" x2="99.15" y2="-1253.12" gradientTransform="matrix(1, 0, 0, -1, 0, -1246.33)" gradientUnits="userSpaceOnUse"><stop offset="0" stop-color="#682014"/><stop offset="0.21" stop-color="#5e2014"/><stop offset="0.56" stop-color="#542014"/><stop offset="1" stop-color="#512014"/></linearGradient><linearGradient id="Безымянный_градиент_8" x1="86.41" y1="-1303.6" x2="127.83" y2="-1303.6" gradientTransform="matrix(1, 0, 0, -1, 0, -1246.33)" gradientUnits="userSpaceOnUse"><stop offset="0" stop-color="#fff"/><stop offset="0.32" stop-color="#fbfbfb"/><stop offset="0.67" stop-color="#ededed"/><stop offset="1" stop-color="#dadada"/></linearGradient><linearGradient id="Безымянный_градиент_9" x1="90.15" y1="-1269.32" x2="106.75" y2="-1269.32" gradientTransform="matrix(1, 0, 0, -1, 0, -1246.33)" gradientUnits="userSpaceOnUse"><stop offset="0" stop-color="#fff"/><stop offset="0.32" stop-color="#f8f8f8"/><stop offset="0.78" stop-color="#e6e6e6"/><stop offset="1" stop-color="#dadada"/></linearGradient><linearGradient id="Безымянный_градиент_16" x1="47.24" y1="-1345.16" x2="154.1" y2="-1345.16" gradientTransform="matrix(1, 0, 0, -1, 0, -1246.33)" gradientUnits="userSpaceOnUse"><stop offset="0" stop-color="#e3a040"/><stop offset="1" stop-color="#f4e08c"/></linearGradient><radialGradient id="Безымянный_градиент_11" cx="97.59" cy="-1254.53" r="1.57" gradientTransform="matrix(1, 0, 0, -1.04, 0, -1300.87)" gradientUnits="userSpaceOnUse"><stop offset="0" stop-color="#682014"/><stop offset="1" stop-color="#512014"/></radialGradient><linearGradient id="Безымянный_градиент_16-2" x1="61.55" y1="-1344.59" x2="70.75" y2="-1344.59" xlink:href="#Безымянный_градиент_16"/><linearGradient id="Безымянный_градиент_16-3" x1="101.53" y1="-1350.15" x2="111.83" y2="-1350.15" xlink:href="#Безымянный_градиент_16"/><linearGradient id="Безымянный_градиент_14" x1="75.8" y1="-1258.91" x2="97.16" y2="-1258.91" gradientTransform="matrix(1, 0, 0, -1, 0, -1246.33)" gradientUnits="userSpaceOnUse"><stop offset="0" stop-color="#fff"/><stop offset="0.24" stop-color="#f9f9f9"/><stop offset="0.57" stop-color="#e8e8e8"/><stop offset="0.94" stop-color="#cbcbcb"/><stop offset="1" stop-color="#c6c6c6"/></linearGradient><linearGradient id="Безымянный_градиент_16-4" x1="83.97" y1="-1350.17" x2="94.27" y2="-1350.17" xlink:href="#Безымянный_градиент_16"/><linearGradient id="Безымянный_градиент_16-5" x1="118.89" y1="-1350.17" x2="129.19" y2="-1350.17" xlink:href="#Безымянный_градиент_16"/></defs><g style="clip-path:url(#clip-path)"><g id="Layer_1" data-name="Layer 1"><g style="clip-path:url(#clip-path-2)"><rect x="-211" y="0.11" width="632" height="125" style="fill:url(#Безымянный_градиент_12)"/><g class="cls-5"><line class="cls-6" x1="-21.22" y1="20.19" x2="198.3" y2="20.19"/><line class="cls-7" x1="199.68" y1="20.19" x2="201.07" y2="20.19"/><line class="cls-6" x1="-21.22" y1="59.49" x2="198.3" y2="59.49"/><line class="cls-7" x1="199.68" y1="59.49" x2="201.07" y2="59.49"/><line class="cls-6" x1="-21.22" y1="98.79" x2="198.3" y2="98.79"/><line class="cls-7" x1="199.68" y1="98.79" x2="201.07" y2="98.79"/><line class="cls-8" x1="125.55" y1="-14.46" x2="125.55" y2="135.08"/><line class="cls-8" x1="87.82" y1="-14.46" x2="87.82" y2="135.08"/><line class="cls-8" x1="50.09" y1="-14.46" x2="50.09" y2="135.08"/><line class="cls-8" x1="12.36" y1="-14.46" x2="12.36" y2="135.08"/><line class="cls-8" x1="163.28" y1="-14.46" x2="163.28" y2="135.08"/></g><g class="cls-5"><line class="cls-6" x1="-172.15" y1="20.19" x2="47.37" y2="20.19"/><line class="cls-7" x1="48.75" y1="20.19" x2="50.14" y2="20.19"/><line class="cls-6" x1="-172.15" y1="59.49" x2="47.37" y2="59.49"/><line class="cls-7" x1="48.75" y1="59.49" x2="50.14" y2="59.49"/><line class="cls-6" x1="-172.15" y1="98.79" x2="47.37" y2="98.79"/><line class="cls-7" x1="48.75" y1="98.79" x2="50.14" y2="98.79"/><line class="cls-8" x1="12.35" y1="-14.46" x2="12.35" y2="135.08"/></g><g class="cls-5"><line class="cls-6" x1="-21.15" y1="20.19" x2="198.37" y2="20.19"/><line class="cls-7" x1="199.75" y1="20.19" x2="201.14" y2="20.19"/><line class="cls-6" x1="-21.15" y1="59.49" x2="198.37" y2="59.49"/><line class="cls-7" x1="199.75" y1="59.49" x2="201.14" y2="59.49"/><line class="cls-6" x1="-21.15" y1="98.79" x2="198.37" y2="98.79"/><line class="cls-7" x1="199.75" y1="98.79" x2="201.14" y2="98.79"/><line class="cls-8" x1="125.62" y1="-14.46" x2="125.62" y2="135.08"/><line class="cls-8" x1="87.89" y1="-14.46" x2="87.89" y2="135.08"/><line class="cls-8" x1="50.16" y1="-14.46" x2="50.16" y2="135.08"/><line class="cls-8" x1="12.43" y1="-14.46" x2="12.43" y2="135.08"/><line class="cls-8" x1="163.35" y1="-14.46" x2="163.35" y2="135.08"/></g><g class="cls-5"><line class="cls-7" x1="163.35" y1="20.19" x2="164.74" y2="20.19"/><line class="cls-6" x1="167.5" y1="20.19" x2="387.02" y2="20.19"/><line class="cls-7" x1="163.35" y1="59.49" x2="164.74" y2="59.49"/><line class="cls-6" x1="167.5" y1="59.49" x2="387.02" y2="59.49"/><line class="cls-7" x1="163.35" y1="98.79" x2="164.74" y2="98.79"/><line class="cls-6" x1="167.5" y1="98.79" x2="387.02" y2="98.79"/><line class="cls-8" x1="201.08" y1="-14.46" x2="201.08" y2="135.08"/></g><path d="M147.13 90.28l28.81-16.53c.55-.27.67-.6.48-1-.32-.67-1.1-.29-1.51-.06l-28.65 14.63a1.19 1.19 0 0 0-.52 1.54c.26.62.84 1.69 1.39 1.42z" style="fill:#f4e08c"/><path d="M118.89 112.37L161.24 85c.92-.52 1.1-1.1.74-1.87v-.07c-.6-1.11-1.91-.39-2.6 0L111.6 111c-.92.52-.8.1-.3 1l2.48-.08c.47 1.02 4.22.99 5.11.45z" style="fill:#e3a040"/><path d="M152.84 85.42h-.42l-12.42.14-21.31.28a2.06 2.06 0 0 0-2 2.09v2.3a2.22 2.22 0 0 1-2.14 2.29l-27 .37h-.25a2.25 2.25 0 0 1-1.94-2.27v-2.3a2 2 0 0 0-1.88-2H81.2l-33.27.39h-.07v.23c0 1.74.1 12.92.13 15.48 0 3.12 2.41 3.31 3.64 3.32a10.61 10.61 0 0 1 1.68.08l1.25.09h.73a2.26 2.26 0 0 1 1.92 1.7l.06.25c.06.31.14.7.25 1.16a26.9 26.9 0 0 0 1.27 3.9h82a34.84 34.84 0 0 0 12.09-27z" style="fill:url(#Безымянный_градиент_6)"/><path d="M63.68 79.17h.08v.24l-.47 4.81a2.82 2.82 0 0 0 0 .82.53.53 0 0 0 0 .94l-.6 1.23h-.1l2.33-.06H67l-.58-1.24a.54.54 0 0 0 .2-.43.51.51 0 0 0-.3-.47 2.66 2.66 0 0 0 0-.69l-.51-4.79a1.59 1.59 0 0 0-.07-.38h.08a.37.37 0 0 0 .28-.17.6.6 0 0 0 .11-.39.81.81 0 0 0 0-.22v-.07a.64.64 0 0 0-.2-.2h-2.2a.3.3 0 0 0-.18.08l-.08.08a.66.66 0 0 0-.11.39.49.49 0 0 0 .24.52z" style="fill:url(#Безымянный_градиент_6-2)"/><path d="M56.14 79.17h.08v.24l-.47 4.81a2.82 2.82 0 0 0 0 .82.53.53 0 0 0 0 .94l-.6 1.23h-.1l2.33-.06h2.1l-.58-1.24a.54.54 0 0 0 .2-.43.51.51 0 0 0-.3-.47 2.66 2.66 0 0 0 0-.69l-.51-4.79a1.59 1.59 0 0 0-.07-.38h.08a.37.37 0 0 0 .28-.17.6.6 0 0 0 .11-.39.81.81 0 0 0 0-.22v-.07a.64.64 0 0 0-.2-.2h-2.22a.3.3 0 0 0-.18.08l-.08.08a.66.66 0 0 0-.11.39.49.49 0 0 0 .24.52z" style="fill:url(#Безымянный_градиент_6-3)"/><path d="M48.23 79.35h.08v.24l-.51 4.79a2.82 2.82 0 0 0 0 .82.52.52 0 0 0-.23.69.56.56 0 0 0 .23.25l-.6 1.22h-.1l2.33-.06h2.1L51 86.06a.53.53 0 0 0 .2-.42.51.51 0 0 0-.3-.47 2.66 2.66 0 0 0 0-.69l-.51-4.79a1.78 1.78 0 0 0-.07-.39h.08a.36.36 0 0 0 .28-.16.61.61 0 0 0 .11-.39.81.81 0 0 0 0-.22v-.07a.48.48 0 0 0-.2-.2h-2.27a.36.36 0 0 0-.18.07l-.08.09a.63.63 0 0 0-.11.38.49.49 0 0 0 .28.55z" style="fill:url(#Безымянный_градиент_6-4)"/><path d="M47.55 75v2.83a.75.75 0 0 0 .75.76h3.26l6.59-.09H61l3.87-.06H66a.78.78 0 0 0 .63-.77v-2.84a.76.76 0 0 0-.75-.76h-.08l-6.29.1-10.15.13h-1.08a.76.76 0 0 0-.73.7z" style="fill:url(#Безымянный_градиент_6-5)"/><line class="cls-16" x1="50.67" y1="78.64" x2="48.06" y2="78.64"/><line class="cls-16" x1="50.67" y1="85.19" x2="48.06" y2="85.19"/><line class="cls-16" x1="58.58" y1="84.99" x2="55.97" y2="85"/><line class="cls-16" x1="66.08" y1="84.91" x2="63.48" y2="84.94"/><line class="cls-16" x1="58.58" y1="78.58" x2="55.88" y2="78.61"/><line class="cls-16" x1="66.12" y1="78.47" x2="63.41" y2="78.49"/><path class="cls-17" d="M57.17 74.36a.28.28 0 0 1-.27-.28.33.33 0 0 1 .05-.15L97 14.58a.26.26 0 0 1 .38 0 .29.29 0 0 1 .06.36L57.35 74.28a.25.25 0 0 1-.18.08z"/><path class="cls-17" d="M174.3 75a.27.27 0 0 1-.23-.14l-.79-1.36-53.63-41.21a.29.29 0 0 1-.1-.38.27.27 0 0 1 .37-.11l53.72 41.27.84 1.46a.29.29 0 0 1-.09.39.23.23 0 0 1-.14 0z"/><polygon points="102.56 92.19 99.14 92.25 95.73 92.3 96.51 30.68 96.54 28.11 96.78 9.06 96.82 6.82 97.76 6.8 98.44 6.79 98.56 9.13 99.47 28.1 102.56 92.19" style="fill:url(#Безымянный_градиент_7)"/><path class="cls-19" d="M83.67 81.93a1.37 1.37 0 0 0 1.38 1.34 1.34 1.34 0 0 0 1.34-1.35A1.38 1.38 0 0 0 85 80.55a1.36 1.36 0 0 0-1.33 1.37z"/><path class="cls-19" d="M121.14 81.93a1.37 1.37 0 0 0 1.38 1.34 1.34 1.34 0 0 0 1.34-1.35 1.38 1.38 0 0 0-1.38-1.35 1.35 1.35 0 0 0-1.34 1.36z"/><path class="cls-20" d="M112.27 32.86a1.38 1.38 0 0 0 1.38 1.35 1.35 1.35 0 0 0 1.35-1.35 1.37 1.37 0 0 0-1.38-1.34 1.34 1.34 0 0 0-1.35 1.34z"/><path class="cls-20" d="M83.67 32.86a1.38 1.38 0 0 0 1.38 1.35 1.35 1.35 0 0 0 1.34-1.36A1.37 1.37 0 0 0 85 31.49a1.34 1.34 0 0 0-1.33 1.36z"/><polygon class="cls-20" points="85.05 33.69 112.79 33.44 112.77 32.26 85.03 32.5 85.05 33.69"/><polygon class="cls-19" points="85.04 82.51 123.21 82.15 123.19 80.96 85.02 81.32 85.04 82.51"/><path d="M126.49 70.59l-2.24.49 1.88.73c-.1.34-.21.68-.32 1l-.15.43-.2.57a44.19 44.19 0 0 1-3.14 6.76l-.23.41c-.23.4-.47.79-.71 1.19l-.24-.15a18.64 18.64 0 0 0-1.85-1c-4.61-2.21-10.62-2.79-17.38-2.08a56.74 56.74 0 0 0-6 1q-2.7.56-5.5 1.35c-1.33.37-2.67.78-4 1.23.27-.39.53-.79.79-1.2a46.4 46.4 0 0 0 3.7-40.85l-.37-.86-.17-.41a40.48 40.48 0 0 0-2.78-5.45c-.24-.4-.49-.78-.74-1.17H87c1.69-.13 3.35-.24 5-.32 1.5-.08 3-.14 4.46-.18h3.16c4.07 0 8 .06 11.89.36l.71.43.51.33c.51.32 1 .67 1.49 1a33.21 33.21 0 0 1 6.78 6.64c-.51.76-1.29 1.68-1.29 1.68h2.47a33.75 33.75 0 0 1 4.31 28.07z" style="fill:url(#Безымянный_градиент_8)"/><path class="cls-22" d="M116.78 87.9l36-.31s.06-1.79 0-1.94-.31-.16-.29-.26l-33.86.45h-.18a2.51 2.51 0 0 0-1.67 2.06z"/><path class="cls-22" d="M47.82 86.8v2l37.4-.64c-.28-.81-1-1.86-1.85-1.85z"/><path class="cls-20" d="M88.52 18.57a.81.81 0 0 0 .83.77.76.76 0 0 0 .8-.74.81.81 0 0 0-.83-.77.77.77 0 0 0-.8.75z"/><path class="cls-20" d="M104.7 18.5a.81.81 0 0 0 .83.77.77.77 0 0 0 .8-.75.81.81 0 0 0-.83-.77.77.77 0 0 0-.8.75z"/><polygon class="cls-20" points="89.62 18.91 105.39 18.82 105.37 18.16 89.61 18.23 89.62 18.91"/><path class="cls-20" d="M105.71 27.74a.81.81 0 0 0 .83.77.77.77 0 0 0 .8-.75.81.81 0 0 0-.83-.77.77.77 0 0 0-.8.75z"/><path class="cls-20" d="M89.61 27.74a.81.81 0 0 0 .83.77.77.77 0 0 0 .8-.75.81.81 0 0 0-.83-.77.77.77 0 0 0-.8.75z"/><polygon class="cls-20" points="90.63 28.15 106.39 28.07 106.38 27.4 90.61 27.48 90.63 28.15"/><path d="M106.41 26a10.51 10.51 0 0 1-.41 1.11l-.11.27-.18.4-.13.28a57.05 57.05 0 0 0-6.13-.3h-2.9l-5.26.39c.13-.22.25-.44.36-.67a9.47 9.47 0 0 0 .83-2.38l.1-.67a6.67 6.67 0 0 0-.2-2.52 8.07 8.07 0 0 0-1.63-3c-.19-.21-.39-.44-.6-.66C91.06 18.08 92 18 93 18l2.13-.1H99c.84 0 1.69 0 2.56.09 1 0 2.09.1 3.15.17l.05.07c.16.2.31.39.45.6l.28.44a8.37 8.37 0 0 1 1.08 2.66 8.22 8.22 0 0 1-.16 4.07z" style="fill:url(#Безымянный_градиент_9)"/><path d="M154.07 86.28l-.65-1.69H153l-1.21.1-33.1.45a2.9 2.9 0 0 0-2.63 2.86v2.3a1.52 1.52 0 0 1-1.47 1.57l-27 .37a1.56 1.56 0 0 1-1-.44 1.6 1.6 0 0 1-.45-1v-2.3a2.84 2.84 0 0 0-.8-2 2.52 2.52 0 0 0-1.89-.79l-36.16.48v1.42l36.16-.48a1.26 1.26 0 0 1 .91.39 1.34 1.34 0 0 1 .39 1v2.3a2.94 2.94 0 0 0 2.86 2.94l27-.37a2.92 2.92 0 0 0 2.82-3V88a1.48 1.48 0 0 1 1.27-1.39l34.17-.46a34.81 34.81 0 0 1-12.09 26.9h5.76a32.36 32.36 0 0 0 3.23-5.21c.31-.63.61-1.27.88-1.92a47.48 47.48 0 0 0 3.42-19.64zm-1.22-.23z" style="fill:url(#Безымянный_градиент_16)"/><ellipse class="cls-25" cx="141.36" cy="94.13" rx="2.13" ry="2.22"/><path class="cls-22" d="M141.36 96.88h-.1a2.7 2.7 0 0 1-2.53-2.88 2.63 2.63 0 1 1 2.63 2.84zm0-4.43a1.65 1.65 0 0 0-1.62 1.63 1.63 1.63 0 1 0 1.69-1.63z"/><ellipse class="cls-25" cx="142.04" cy="94.13" rx="2.13" ry="2.22"/><path d="M142 96.88h-.1a2.63 2.63 0 1 1 .1 0zm-1.63-2.81a1.63 1.63 0 1 0 1.69-1.63H142a1.65 1.65 0 0 0-1.69 1.63h.06z" style="fill:#e3b077"/><path d="M96.08 6a1.58 1.58 0 0 0 1.53 1.65A1.54 1.54 0 0 0 99 6.44a1.88 1.88 0 0 0 .07-.53 1.58 1.58 0 0 0-1.51-1.66 1.33 1.33 0 0 0-.62.16A1.72 1.72 0 0 0 96.08 6z" style="fill:url(#Безымянный_градиент_11)"/><ellipse class="cls-25" cx="65.38" cy="98.27" rx="3.88" ry="4.04"/><path class="cls-22" d="M65.38 103.06A4.65 4.65 0 0 1 61 99.55a4.82 4.82 0 0 1 3.2-5.9A4.6 4.6 0 0 1 69.82 97a4.83 4.83 0 0 1-3.21 5.9 4.62 4.62 0 0 1-1.23.16zm-3-3.9a3.15 3.15 0 0 0 3.89 2.29 3.31 3.31 0 0 0 2.2-4 3.15 3.15 0 0 0-3.89-2.3 3.33 3.33 0 0 0-2.2 4.01z"/><ellipse class="cls-25" cx="66.14" cy="98.27" rx="3.88" ry="4.04"/><path d="M70.58 97a4.59 4.59 0 0 0-5.67-3.35 4.83 4.83 0 0 0-3.22 5.91 4.59 4.59 0 0 0 5.68 3.35A4.83 4.83 0 0 0 70.58 97zm-1.39.41a1.86 1.86 0 0 1 .06.34l-2.8.24-.23-3a3.18 3.18 0 0 1 2.97 2.4zm-3.89-2.3h.23l.23 3-2.76.14a3.24 3.24 0 0 1 2.3-3.13zm-2.2 4.06V99l2.74-.23.16 2.8a3.15 3.15 0 0 1-2.93-2.39zm3.9 2.29h-.27l-.22-2.8 2.78-.24a3.27 3.27 0 0 1-2.29 3.02z" style="fill:url(#Безымянный_градиент_16-2)"/><path class="cls-22" d="M106.3 108zm4.36-5.87l-.1-.3v-.1a4.84 4.84 0 0 0-.36-.72l-.22-.32a4.25 4.25 0 0 0-.37-.47l-.3-.3a5 5 0 0 0-3-1.39h-.26a4.33 4.33 0 0 0-.72 0 5 5 0 0 0-3 1.41l-.19.2a5.42 5.42 0 0 0-1.45 3.54 5.68 5.68 0 0 0 .16 1.54 1.65 1.65 0 0 0 .16.52 3.76 3.76 0 0 0 .25.58 5.5 5.5 0 0 0 .81 1.2 5.07 5.07 0 0 0 2.84 1.63 5 5 0 0 0 .54.07h.84a5.23 5.23 0 0 0 1.11-.24l.3-.11.32-.15a5.28 5.28 0 0 0 1.23-.87 5.1 5.1 0 0 0 .71-.82 5.54 5.54 0 0 0 1-2.93v-.32a5.47 5.47 0 0 0-.3-1.66zm-6.84 5.38l-.27-.18a4.09 4.09 0 0 1-1.48-1.85 4.29 4.29 0 0 1-.32-1.62v-.18a4.24 4.24 0 0 1 1.25-2.91 5.4 5.4 0 0 1 .52-.43l.31-.18a3.82 3.82 0 0 1 2.06-.5h.3a3.9 3.9 0 0 1 1.37.42l.34.21a4.31 4.31 0 0 1 .62.51l.17.18.22.27a4.25 4.25 0 0 1 .85 2.39v.36a4.31 4.31 0 0 1-.77 2.31l-.12.16a4.19 4.19 0 0 1-.58.61 3.57 3.57 0 0 1-.38.3l-.19.11-.25.14a3 3 0 0 1-.49.2h-.1l-.44.12h-.24a3.9 3.9 0 0 1-2.1-.35l-.31-.15zm2.49.49zm0 0z"/><path class="cls-25" d="M111 102.08l-.06-.16a4.74 4.74 0 0 0-.46-.86 4.58 4.58 0 0 0-3.35-2h-.94a4.75 4.75 0 0 0-.83.19 4.49 4.49 0 0 0-1.74 1 5.2 5.2 0 0 0-1.48 4.31 3.86 3.86 0 0 0 .1.49 4.66 4.66 0 0 0 3.52 3.49 5 5 0 0 0 .56.09h.2a4.47 4.47 0 0 0 1.26-.14h.22a4.53 4.53 0 0 0 1.25-.61 5.58 5.58 0 0 0 .47-.38 4.79 4.79 0 0 0 .75-.87 4.75 4.75 0 0 0 .81-2.54v-.28a4.87 4.87 0 0 0-.28-1.73z"/><path d="M111.55 102.08V102a5.17 5.17 0 0 0-4.66-3.54 3.42 3.42 0 0 0-.64 0 4.88 4.88 0 0 0-.75.12 4.8 4.8 0 0 0-1.22.49 5.42 5.42 0 0 0-2.72 4.53 5.8 5.8 0 0 0 .16 1.55 1.73 1.73 0 0 0 .16.52l.05.13a5.29 5.29 0 0 0 3.21 3.13 5.67 5.67 0 0 0 1.07.23h.3a5.34 5.34 0 0 0 .8 0h.15a5.49 5.49 0 0 0 .7-.17h.28a5.19 5.19 0 0 0 2.39-1.88 5.29 5.29 0 0 0 .63-1.17l.05-.14a5.65 5.65 0 0 0 0-3.59zm-1.17 3.4a3.75 3.75 0 0 1-.19.41 4 4 0 0 1-.64.88 4.11 4.11 0 0 1-.75.63l-.16.09a3.7 3.7 0 0 1-1 .38l-.45.1h-1.13a4 4 0 0 1-2.35-1.29l-.11-.13a3.3 3.3 0 0 1-.22-.3 4.29 4.29 0 0 1-.56-1.16 4.35 4.35 0 0 1-.19-1.19v-.18a4.23 4.23 0 0 1 .64-2.08 4.5 4.5 0 0 1 .64-.8l.24-.22a4 4 0 0 1 2-.86 5.81 5.81 0 0 1 .59 0h.29a3.94 3.94 0 0 1 1.06.27l.33.16.21.12a4.13 4.13 0 0 1 .91.76 3.8 3.8 0 0 1 .5.69 4.16 4.16 0 0 1 .24.47 1.1 1.1 0 0 0 .12.31 4.37 4.37 0 0 1 .22 1.24v.29a4.27 4.27 0 0 1-.24 1.28s0 .09-.05.15z" style="fill:url(#Безымянный_градиент_16-3)"/><path d="M96.56 14.58c-2.5-3.69-4 2.77-10.68 2.56a13.65 13.65 0 0 1-1.69-.14 13.2 13.2 0 0 1-8.39-5.31A6.94 6.94 0 0 0 81.09 13a7.23 7.23 0 0 1-2.55-4.66A15.7 15.7 0 0 0 84 11.46a8.08 8.08 0 0 0 2.13.32 5.62 5.62 0 0 0 3.08-.85c.48-.3 3.52-3.3 6.35-2.86a6.11 6.11 0 0 1 1.55.45 3 3 0 0 0-1.53 2.34A6.29 6.29 0 0 0 97 14.45c.54.6-.44.13-.44.13z" style="fill:url(#Безымянный_градиент_14)"/><line x1="173.82" y1="74.93" x2="173.48" y2="73.25" style="stroke:#c67f60;stroke-width:.9px;stroke-linecap:round;stroke-miterlimit:10;fill:none"/><path class="cls-32" d="M159.3 86.92a.46.46 0 0 1-.44-.36l-1.23-5.31a.48.48 0 0 1 .27-.6.45.45 0 0 1 .58.29.29.29 0 0 1 0 .09l1.23 5.33a.47.47 0 0 1-.33.57z"/><path class="cls-32" d="M157.82 87.8a.45.45 0 0 1-.44-.38l-.92-5.57a.47.47 0 0 1 .37-.54.46.46 0 0 1 .52.39l.92 5.56a.46.46 0 0 1-.37.54h-.08z"/><path class="cls-17" d="M98.83 15.09l-2.11-.24a.26.26 0 0 1-.24-.3.29.29 0 0 1 .3-.25l2.11.24a.28.28 0 0 1 .27.28.27.27 0 0 1-.27.28z"/><path class="cls-17" d="M96.73 14.73a.28.28 0 0 1-.27-.28.27.27 0 0 1 .27-.28l2.07-.32a.29.29 0 0 1 .09.57l-2.07.31z"/><line class="cls-33" x1="98.67" y1="8.61" x2="96.77" y2="8.49"/><line class="cls-33" x1="98.64" y1="9.27" x2="96.68" y2="8.68"/><path class="cls-22" d="M93 101.74a4.84 4.84 0 0 0-.36-.72 3.62 3.62 0 0 0-.22-.32 4.25 4.25 0 0 0-.37-.47c-.1-.1-.2-.21-.3-.3a5 5 0 0 0-3-1.39h-.26a5 5 0 0 0-3.7 1.43l-.19.2-.11.12a5.42 5.42 0 0 0-1.34 3.41 5.68 5.68 0 0 0 .16 1.54 4.48 4.48 0 0 0 .16.52 6 6 0 0 0 .25.58 4.94 4.94 0 0 0 .54.88l.27.32a5.06 5.06 0 0 0 3.38 1.7h.73a5.23 5.23 0 0 0 1.16-.24l.3-.12a4.86 4.86 0 0 0 1.55-1l.16-.15a5.94 5.94 0 0 0 .55-.67 4.33 4.33 0 0 0 .31-.51 5.5 5.5 0 0 0 .65-2.42v-.32a5.55 5.55 0 0 0-.32-2.07zm-7.81 4.83a4.23 4.23 0 0 1-1-2.69v-.18a4.23 4.23 0 0 1 1.15-2.78l.12-.13a4.24 4.24 0 0 1 .52-.43l.31-.19a3.92 3.92 0 0 1 1.18-.44 3.77 3.77 0 0 1 .89-.06h.3a3.93 3.93 0 0 1 1.71.62 3.7 3.7 0 0 1 .79.69l.22.27a4.3 4.3 0 0 1 .85 2.38v.37a4.35 4.35 0 0 1-.59 2l-.13.21-.16.23a4.19 4.19 0 0 1-.58.61 3.47 3.47 0 0 1-.38.29l-.19.12a3.6 3.6 0 0 1-.75.34h-.1a3.18 3.18 0 0 1-.61.14h-.07a3.76 3.76 0 0 1-2.11-.35l-.31-.16-.27-.17a3.92 3.92 0 0 1-.72-.63z"/><path class="cls-25" d="M93.2 101.65a5.3 5.3 0 0 0-.33-.57 4.59 4.59 0 0 0-3.34-2h-.23a4.55 4.55 0 0 0-1.55.22 4.71 4.71 0 0 0-.52.21 4.51 4.51 0 0 0-1.23.85 4.77 4.77 0 0 0-.55.64 4.93 4.93 0 0 0-.14 5.5 4.35 4.35 0 0 0 .69.85 4.42 4.42 0 0 0 2.57 1.24H89a4.4 4.4 0 0 0 1.25-.13l.22-.06a4.56 4.56 0 0 0 1.25-.62l.17-.12.3-.25a4.85 4.85 0 0 0 .75-.88 4.87 4.87 0 0 0 .81-2.54v-.27a4.9 4.9 0 0 0-.55-2.07z"/><path d="M93.71 101.41a5.13 5.13 0 0 0-4.39-2.91 3.42 3.42 0 0 0-.64 0 4.92 4.92 0 0 0-1.94.59 5.4 5.4 0 0 0-2.74 4.57 5.72 5.72 0 0 0 .16 1.54 5.16 5.16 0 0 0 .16.52l.06.13a5.18 5.18 0 0 0 .46.91 5.51 5.51 0 0 0 .54.73 5 5 0 0 0 3.33 1.69H89a4.81 4.81 0 0 0 1-.07 4.68 4.68 0 0 0 .84-.2l.15-.06a4.89 4.89 0 0 0 1.06-.56 5.5 5.5 0 0 0 1.76-6.94zm-.88 4.1a4.33 4.33 0 0 1-.44.79 3.17 3.17 0 0 1-.4.49l-.26.25a3.66 3.66 0 0 1-.5.38l-.16.09a3.88 3.88 0 0 1-1.4.48h-1.13a4 4 0 0 1-2.39-1.29l-.11-.13a2.37 2.37 0 0 1-.23-.3 4 4 0 0 1-.51-1v-.08a4.74 4.74 0 0 1-.17-1.18v-.18a4.23 4.23 0 0 1 .64-2.08 2.11 2.11 0 0 1 .2-.29 3.5 3.5 0 0 1 .44-.5 3.81 3.81 0 0 1 1.32-.86 4.29 4.29 0 0 1 1-.24h.87a3.94 3.94 0 0 1 1.06.27l.33.16.21.13a3.68 3.68 0 0 1 .91.76 3.91 3.91 0 0 1 .59.85 3.76 3.76 0 0 1 .27.62 4.3 4.3 0 0 1 .22 1.23v.3a4.09 4.09 0 0 1-.24 1.29z" style="fill:url(#Безымянный_градиент_16-4)"/><path class="cls-22" d="M127.87 101.74l-.09-.2a5.21 5.21 0 0 0-.28-.52 3.62 3.62 0 0 0-.22-.32 4.25 4.25 0 0 0-.37-.47l-.3-.31a5 5 0 0 0-3-1.39h-.26a5 5 0 0 0-3.69 1.43l-.19.2a5.41 5.41 0 0 0-1.4 3.48 5.68 5.68 0 0 0 .16 1.54 1.65 1.65 0 0 0 .16.52 4.23 4.23 0 0 0 .25.58 4.17 4.17 0 0 0 .26.46 5.68 5.68 0 0 0 .55.74 5.13 5.13 0 0 0 2.25 1.52l.23.07a4.38 4.38 0 0 0 .88.15h1.11a4.51 4.51 0 0 0 .88-.21l.3-.11.35-.17a5.34 5.34 0 0 0 1.9-1.67l.06-.09a5.48 5.48 0 0 0 .9-2.83v-.33a5.46 5.46 0 0 0-.44-2.07zm-8.08 4.45a4.63 4.63 0 0 1-.36-.7 4.3 4.3 0 0 1-.32-1.63v-.17a4.26 4.26 0 0 1 1.27-2.91 4.24 4.24 0 0 1 .52-.43l.31-.19a3.82 3.82 0 0 1 2.06-.5h.3a3.93 3.93 0 0 1 1.71.62 3.7 3.7 0 0 1 .79.69l.22.27a4.64 4.64 0 0 1 .49.83 4.33 4.33 0 0 1 .36 1.54v.39a4.23 4.23 0 0 1-.89 2.47 4.19 4.19 0 0 1-.58.61 3.47 3.47 0 0 1-.38.29l-.19.12a4.21 4.21 0 0 1-.75.34h-.1a3.18 3.18 0 0 1-.61.14h-.07a3.9 3.9 0 0 1-2.1-.35l-.31-.15-.27-.18a4.28 4.28 0 0 1-.72-.63 5.07 5.07 0 0 1-.37-.44z"/><path class="cls-25" d="M128 101.41l-.2-.33a4.58 4.58 0 0 0-3.35-2h-.23a4.56 4.56 0 0 0-3.86 2 4.55 4.55 0 0 0-.49.86 5 5 0 0 0-.37 2.7 3.86 3.86 0 0 0 .1.49 4.85 4.85 0 0 0 1.31 2.31 6.11 6.11 0 0 0 .63.51 4.44 4.44 0 0 0 2.13.75h.2a4 4 0 0 0 .91-.07l.35-.07.22-.06a4.56 4.56 0 0 0 1.25-.62 4.56 4.56 0 0 0 1.18-1.18v-.07a4.87 4.87 0 0 0 .81-2.54v-.27a4.87 4.87 0 0 0-.59-2.41z"/><path d="M128.47 101.13a5.5 5.5 0 0 0-.66-.92 5 5 0 0 0-3.58-1.71 3.42 3.42 0 0 0-.64 0 5.06 5.06 0 0 0-2 .61 5.48 5.48 0 0 0-2.56 6.08 1.73 1.73 0 0 0 .16.52v.13a4 4 0 0 0 .23.51 5.12 5.12 0 0 0 4.1 2.83h.26a5.58 5.58 0 0 0 1.83-.27l.15-.06a5 5 0 0 0 .87-.42 5.32 5.32 0 0 0 2.09-2.47 5.58 5.58 0 0 0-.29-4.88zm-4.24 6.92h-.75a3.89 3.89 0 0 1-2.2-1.1l-.19-.2-.11-.12a3.46 3.46 0 0 1-.22-.31 4.38 4.38 0 0 1-.56-1.15 4.42 4.42 0 0 1-.2-1.17v-.18a4.34 4.34 0 0 1 .12-.88 4.24 4.24 0 0 1 .52-1.24 4.5 4.5 0 0 1 .64-.8 4 4 0 0 1 2.3-1.09 5.81 5.81 0 0 1 .59 0h.29a3.94 3.94 0 0 1 1.06.27l.33.16.21.12a4 4 0 0 1 .93.71 4.25 4.25 0 0 1 .5.7 4.54 4.54 0 0 1 .35.78 4.3 4.3 0 0 1 .22 1.23v.22a4.27 4.27 0 0 1-.24 1.28c0 .08 0 .13-.08.2a4.11 4.11 0 0 1-.84 1.29 4.41 4.41 0 0 1-.75.62l-.16.09a3.88 3.88 0 0 1-1.4.48h-.33z" style="fill:url(#Безымянный_градиент_16-5)"/><path class="cls-17" d="M119.81 32.29a.3.3 0 0 1-.16 0L97.1 14.92a.29.29 0 0 1 0-.4.26.26 0 0 1 .33 0L120 31.79a.28.28 0 0 1 .06.39.25.25 0 0 1-.22.12z"/><path d="M57.49 109.1c-.11-.45-.2-.85-.25-1.15l-.06-.25a2.26 2.26 0 0 0-1.92-1.7h-.73l-1.25-.08a3.85 3.85 0 0 0-3 4c0 1 0 2.16.07 3.12h8.36a26.68 26.68 0 0 1-1.22-3.94z" style="fill:#6b2619"/><path d="M56.53 113h2.23a26.13 26.13 0 0 1-1.27-3.9c-.11-.45-.2-.85-.25-1.15l-.06-.25a2.26 2.26 0 0 0-1.92-1.7h-.73l-1.25-.08a4.14 4.14 0 0 0-2.28 1.53c3.43.55 4.8 2.89 5.53 5.55z" style="opacity:.2;isolation:isolate"/><path d="M140.76 113H50.4c.05 1.69.11 2.92.11 2.92l7.2.18 2.36.07v-.55c1.64 2.74 4.1 5.21 7.72 5.46 1.33.12 52.53-.34 52.53-.34a30.6 30.6 0 0 0 4.68-.42l.85 3.05A25.44 25.44 0 0 0 146.51 113z" style="fill:#1d1d1b;opacity:.41;isolation:isolate"/></g></g></g></svg>