<svg xmlns="http://www.w3.org/2000/svg" viewBox="0 0 210 125"><title>Artboard 54</title><rect width="210" height="125" fill="#095460"/><ellipse cx="105.01" cy="81.62" rx="11.91" ry="5.57" fill="#fff"/><polygon points="93.1 78.94 93.1 81.62 96.27 83.41 116.92 81.62 116.92 78.94 93.1 78.94" fill="#fff"/><path d="M116.92,78.94c0,3.08-5.33,5.57-11.91,5.57S93.1,82,93.1,78.94l7-5.2h9.74Z" fill="#fff"/><rect x="99.54" y="67.28" width="10.93" height="10.66" fill="#fff"/><rect x="93.68" y="61.23" width="3.03" height="9.75" fill="#fff"/><circle cx="95.2" cy="72.11" r="2.42" fill="#fff"/><polygon points="89.77 39.77 81.74 61.48 128.29 61.48 120.31 39.77 89.77 39.77" fill="#fff"/><ellipse cx="105.04" cy="39.77" rx="15.27" ry="3.76" fill="#fff"/><ellipse cx="105.04" cy="40.5" rx="13.77" ry="3.02" fill="#fff"/><ellipse cx="105.04" cy="61.48" rx="23.3" ry="6.67" fill="#fff"/><rect x="94.48" y="65.32" width="1.43" height="5.66" fill="#17b4ad"/><circle cx="95.2" cy="72.13" r="1.52" fill="#17b4ad"/><ellipse cx="105.01" cy="81.35" rx="9.76" ry="4.56" fill="#006964"/><polygon points="95.25 79.15 95.25 81.35 97.84 82.81 114.77 81.35 114.77 79.15 95.25 79.15" fill="#006964"/><path d="M114.77,79.15c0,2.52-4.37,4.56-9.76,4.56s-9.76-2-9.76-4.56L101,74.88h8Z" fill="#1b887e"/><ellipse cx="105.01" cy="74.88" rx="3.99" ry="1.87" fill="#016a67"/><rect x="101.08" y="65.55" width="7.87" height="9.49" fill="#016a67"/><polygon points="91.16 40.75 83.86 60.49 126.18 60.49 118.92 40.75 91.16 40.75" fill="#8accc8"/><ellipse cx="105.04" cy="40.75" rx="13.88" ry="3.42" fill="#19b7ad"/><ellipse cx="105.04" cy="41.41" rx="12.51" ry="2.75" fill="#1e8681"/><ellipse cx="105.04" cy="60.49" rx="21.18" ry="6.06" fill="#8accc8"/><ellipse cx="168.03" cy="85.85" rx="14.32" ry="6.7" fill="#fff"/><polygon points="153.7 82.63 153.7 85.85 157.52 88 182.35 85.85 182.35 82.63 153.7 82.63" fill="#fff"/><path d="M182.35,82.63c0,3.7-6.41,6.7-14.32,6.7s-14.32-3-14.32-6.7l8.47-6.26h11.71Z" fill="#fff"/><rect x="161.45" y="68.61" width="13.14" height="12.82" fill="#fff"/><rect x="154.4" y="61.34" width="3.65" height="11.72" fill="#fff"/><circle cx="156.22" cy="74.42" r="2.91" fill="#fff"/><polygon points="149.7 35.52 140.04 61.63 196.02 61.63 186.43 35.52 149.7 35.52" fill="#fff"/><ellipse cx="168.07" cy="35.52" rx="18.36" ry="4.52" fill="#fff"/><ellipse cx="168.07" cy="36.4" rx="16.56" ry="3.64" fill="#fff"/><ellipse cx="168.07" cy="61.63" rx="28.02" ry="8.02" fill="#fff"/><rect x="155.36" y="66.25" width="1.72" height="6.81" fill="#0288d1"/><circle cx="156.22" cy="74.44" r="1.82" fill="#0288d1"/><ellipse cx="168.03" cy="85.52" rx="11.74" ry="5.49" fill="#0274ad"/><polygon points="156.28 82.88 156.28 85.52 159.41 87.29 179.77 85.52 179.77 82.88 156.28 82.88" fill="#0274ad"/><path d="M179.77,82.88c0,3-5.26,5.49-11.74,5.49s-11.74-2.46-11.74-5.49l6.94-5.13h9.6Z" fill="#0288d1"/><ellipse cx="168.03" cy="77.75" rx="4.8" ry="2.24" fill="#0274ad"/><rect x="163.3" y="66.53" width="9.46" height="11.42" fill="#0274ad"/><polygon points="151.37 36.7 142.59 60.44 193.48 60.44 184.76 36.7 151.37 36.7" fill="#03a9f4"/><ellipse cx="168.07" cy="36.7" rx="16.69" ry="4.11" fill="#039be5"/><ellipse cx="168.07" cy="37.5" rx="15.05" ry="3.31" fill="#0288d1"/><ellipse cx="168.07" cy="60.44" rx="25.47" ry="7.29" fill="#03a9f4"/><ellipse cx="42.07" cy="85.91" rx="14.34" ry="6.7" fill="#fff"/><polygon points="27.73 82.68 27.73 85.91 31.55 88.06 56.41 85.91 56.41 82.68 27.73 82.68" fill="#fff"/><path d="M56.4,82.68c0,3.7-6.42,6.7-14.34,6.7s-14.34-3-14.34-6.7l8.48-6.26H47.93Z" fill="#fff"/><rect x="35.49" y="68.65" width="13.16" height="12.84" fill="#fff"/><rect x="28.43" y="61.37" width="3.65" height="11.74" fill="#fff"/><circle cx="30.26" cy="74.46" r="2.91" fill="#fff"/><polygon points="23.73 35.52 14.06 61.66 70.1 61.66 60.49 35.52 23.73 35.52" fill="#fff"/><ellipse cx="42.11" cy="35.52" rx="18.38" ry="4.52" fill="#fff"/><ellipse cx="42.11" cy="36.4" rx="16.57" ry="3.64" fill="#fff"/><ellipse cx="42.11" cy="61.66" rx="28.05" ry="8.03" fill="#fff"/><rect x="29.39" y="66.28" width="1.72" height="6.82" fill="#17b4ad"/><circle cx="30.26" cy="74.49" r="1.83" fill="#17b4ad"/><ellipse cx="42.07" cy="85.58" rx="11.75" ry="5.5" fill="#006964"/><polygon points="30.32 82.93 30.32 85.58 33.45 87.34 53.82 85.58 53.82 82.93 30.32 82.93" fill="#006964"/><path d="M53.82,82.93c0,3-5.26,5.5-11.75,5.5S30.32,86,30.32,82.93l6.95-5.13h9.61Z" fill="#1b887e"/><ellipse cx="42.07" cy="77.8" rx="4.8" ry="2.25" fill="#016a67"/><rect x="37.34" y="66.56" width="9.47" height="11.43" fill="#016a67"/><polygon points="25.4 36.7 16.61 60.47 67.55 60.47 58.82 36.7 25.4 36.7" fill="#8accc8"/><ellipse cx="42.11" cy="36.7" rx="16.71" ry="4.11" fill="#19b7ad"/><ellipse cx="42.11" cy="37.5" rx="15.07" ry="3.31" fill="#1e8681"/><ellipse cx="42.11" cy="60.47" rx="25.5" ry="7.3" fill="#8accc8"/><ellipse cx="42.45" cy="85.92" rx="14.34" ry="6.7" fill="#fff"/><polygon points="28.11 82.69 28.11 85.92 31.93 88.07 56.78 85.92 56.78 82.69 28.11 82.69" fill="#fff"/><path d="M56.78,82.69c0,3.7-6.42,6.7-14.34,6.7s-14.34-3-14.34-6.7l8.48-6.26H48.31Z" fill="#fff"/><rect x="35.87" y="68.66" width="13.16" height="12.84" fill="#fff"/><rect x="28.81" y="61.38" width="3.65" height="11.74" fill="#fff"/><circle cx="30.64" cy="74.48" r="2.91" fill="#fff"/><polygon points="24.11 35.54 14.44 61.68 70.47 61.68 60.87 35.54 24.11 35.54" fill="#fff"/><ellipse cx="42.49" cy="35.54" rx="18.38" ry="4.52" fill="#fff"/><ellipse cx="42.49" cy="36.42" rx="16.57" ry="3.64" fill="#fff"/><ellipse cx="42.49" cy="61.68" rx="28.05" ry="8.03" fill="#fff"/><rect x="29.77" y="66.3" width="1.72" height="6.82" fill="#e2bd23"/><circle cx="30.64" cy="74.5" r="1.83" fill="#e2bd23"/><ellipse cx="42.45" cy="85.59" rx="11.75" ry="5.5" fill="#c6a51c"/><polygon points="30.7 82.94 30.7 85.59 33.83 87.36 54.2 85.59 54.2 82.94 30.7 82.94" fill="#c6a51c"/><path d="M54.2,82.94c0,3-5.26,5.5-11.75,5.5S30.7,86,30.7,82.94l6.95-5.13h9.61Z" fill="#e2bf30"/><ellipse cx="42.45" cy="77.81" rx="4.8" ry="2.25" fill="#016a67"/><rect x="37.71" y="66.58" width="9.47" height="11.43" fill="#016a67"/><path d="M47.25,77.81c0,1.24-2.15,2.25-4.8,2.25s-4.8-1-4.8-2.25l.07-1.8h9.47Z" fill="#c6a51c"/><rect x="37.71" y="66.58" width="9.47" height="9.43" fill="#c6a51c"/><polygon points="25.78 36.72 16.99 60.48 67.93 60.48 59.2 36.72 25.78 36.72" fill="#ffdc4a"/><ellipse cx="42.49" cy="36.72" rx="16.71" ry="4.11" fill="#e2bd23"/><ellipse cx="42.49" cy="37.52" rx="15.07" ry="3.31" fill="#c6a51c"/><ellipse cx="42.49" cy="60.48" rx="25.5" ry="7.3" fill="#ffdc4a"/></svg>