<svg version="1.1" id="Слой_1" xmlns="http://www.w3.org/2000/svg" xmlns:xlink="http://www.w3.org/1999/xlink" x="0px" y="0px" viewBox="0 0 210 125" style="enable-background:new 0 0 210 125" xml:space="preserve"><style type="text/css">.st1{fill:#fff}.st2{fill:#e2bd23}.st3{fill:#c6a51c}.st4{fill:#ffdc4a}.st5{fill:#17b4ad}.st6{fill:#016a67}.st7{fill:#006964}.st8{fill:#1b887e}.st9{fill:#8accc8}.st10{fill:#19b7ad}.st11{fill:#1e8681}</style><title>Artboard 54</title><rect width="210" height="125" style="fill:#095460"/><ellipse class="st1" cx="105" cy="81.6" rx="11.9" ry="5.6"/><polygon class="st1" points="93.1,78.9 93.1,81.6 96.3,83.4 116.9,81.6 116.9,78.9 "/><path class="st1" d="M116.9 78.9c0 3.1-5.3 5.6-11.9 5.6S93.1 82 93.1 78.9l7-5.2h9.7l7.1 5.2z"/><rect x="99.5" y="67.3" class="st1" width="10.9" height="10.7"/><rect x="93.7" y="61.2" class="st1" width="3" height="9.7"/><circle class="st1" cx="95.2" cy="72.1" r="2.4"/><polygon class="st1" points="89.8,39.8 81.7,61.5 128.3,61.5 120.3,39.8 "/><ellipse class="st1" cx="105" cy="39.8" rx="15.3" ry="3.8"/><ellipse class="st1" cx="105" cy="40.5" rx="13.8" ry="3"/><ellipse class="st1" cx="105" cy="61.5" rx="23.3" ry="6.7"/><rect x="94.5" y="65.3" class="st2" width="1.4" height="5.7"/><circle class="st2" cx="95.2" cy="72.1" r="1.5"/><ellipse class="st3" cx="105" cy="81.3" rx="9.8" ry="4.6"/><polygon class="st3" points="95.2,79.2 95.2,81.3 97.8,82.8 114.8,81.3 114.8,79.2 "/><path class="st2" d="M114.8 79.2c0 2.5-4.4 4.6-9.8 4.6s-9.8-2-9.8-4.6l5.8-4.3h8l5.8 4.3z"/><ellipse class="st3" cx="105" cy="74.9" rx="4" ry="1.9"/><rect x="101.1" y="65.6" class="st3" width="7.9" height="9.5"/><polygon class="st4" points="91.2,40.8 83.9,60.5 126.2,60.5 118.9,40.8 "/><ellipse class="st2" cx="105" cy="40.8" rx="13.9" ry="3.4"/><ellipse class="st3" cx="105" cy="41.4" rx="12.5" ry="2.8"/><ellipse class="st4" cx="105" cy="60.5" rx="21.2" ry="6.1"/><g><ellipse class="st1" cx="168" cy="85.8" rx="14.3" ry="6.7"/><polygon class="st1" points="153.7,82.6 153.7,85.8 157.5,88 182.4,85.8 182.4,82.6 	"/><path class="st1" d="M182.4 82.6c0 3.7-6.4 6.7-14.3 6.7s-14.3-3-14.3-6.7l8.5-6.3H174l8.4 6.3z"/><rect x="161.4" y="68.6" class="st1" width="13.1" height="12.8"/><rect x="154.4" y="61.3" class="st1" width="3.6" height="11.7"/><circle class="st1" cx="156.2" cy="74.4" r="2.9"/><polygon class="st1" points="149.7,35.5 140,61.6 196,61.6 186.4,35.5 	"/><ellipse class="st1" cx="168.1" cy="35.5" rx="18.4" ry="4.5"/><ellipse class="st1" cx="168.1" cy="36.4" rx="16.6" ry="3.6"/><ellipse class="st1" cx="168.1" cy="61.6" rx="28" ry="8"/><rect x="155.4" y="66.2" class="st5" width="1.7" height="6.8"/><circle class="st5" cx="156.2" cy="74.4" r="1.8"/><ellipse class="st6" cx="168" cy="85.5" rx="11.7" ry="5.5"/><polygon class="st7" points="156.3,82.9 156.3,85.5 159.4,87.3 179.8,85.5 179.8,82.9 	"/><path class="st8" d="M179.8 82.9c0 3-5.3 5.5-11.7 5.5s-11.7-2.5-11.7-5.5l6.9-5.1h9.6l6.9 5.1z"/><ellipse class="st6" cx="168" cy="77.8" rx="4.8" ry="2.2"/><rect x="163.3" y="66.5" class="st6" width="9.5" height="11.4"/><polygon class="st9" points="151.4,36.7 142.6,60.4 193.5,60.4 184.8,36.7 	"/><ellipse class="st10" cx="168.1" cy="36.7" rx="16.7" ry="4.1"/><ellipse class="st11" cx="168.1" cy="37.5" rx="15.1" ry="3.3"/><ellipse class="st9" cx="168.1" cy="60.4" rx="25.5" ry="7.3"/></g><g><ellipse class="st1" cx="41.9" cy="86.6" rx="14.3" ry="6.7"/><polygon class="st1" points="27.6,83.4 27.6,86.6 31.4,88.7 56.2,86.6 56.2,83.4 	"/><path class="st1" d="M56.2 83.4c0 3.7-6.4 6.7-14.3 6.7s-14.3-3-14.3-6.7l8.5-6.3h11.7l8.4 6.3z"/><rect x="35.3" y="69.3" class="st1" width="13.1" height="12.8"/><rect x="28.3" y="62.1" class="st1" width="3.6" height="11.7"/><circle class="st1" cx="30.1" cy="75.1" r="2.9"/><polygon class="st1" points="23.6,36.2 13.9,62.4 69.9,62.4 60.3,36.2 	"/><ellipse class="st1" cx="42" cy="36.2" rx="18.4" ry="4.5"/><ellipse class="st1" cx="42" cy="37.1" rx="16.6" ry="3.6"/><ellipse class="st1" cx="42" cy="62.4" rx="28" ry="8"/><rect x="29.3" y="67" class="st5" width="1.7" height="6.8"/><circle class="st5" cx="30.1" cy="75.2" r="1.8"/><ellipse class="st6" cx="41.9" cy="86.2" rx="11.7" ry="5.5"/><polygon class="st7" points="30.2,83.6 30.2,86.2 33.3,88 53.7,86.2 53.7,83.6 	"/><path class="st8" d="M53.7 83.6c0 3-5.3 5.5-11.7 5.5s-11.7-2.5-11.7-5.5l6.9-5.1h9.6l6.9 5.1z"/><ellipse class="st6" cx="41.9" cy="78.5" rx="4.8" ry="2.2"/><rect x="37.2" y="67.3" class="st6" width="9.5" height="11.4"/><polygon class="st9" points="25.3,37.4 16.5,61.2 67.4,61.2 58.7,37.4 	"/><ellipse class="st10" cx="42" cy="37.4" rx="16.7" ry="4.1"/><ellipse class="st11" cx="42" cy="38.2" rx="15.1" ry="3.3"/><ellipse class="st9" cx="42" cy="61.2" rx="25.5" ry="7.3"/></g></svg>