<svg version="1.1" id="Layer_1" xmlns="http://www.w3.org/2000/svg" xmlns:xlink="http://www.w3.org/1999/xlink" x="0px" y="0px" viewBox="0 0 210 125" style="enable-background:new 0 0 210 125" xml:space="preserve"><style type="text/css">.st1{opacity:.4;fill:#fff}.st4{fill:#53b748}.st5{fill:#37722b}.st7{opacity:.6}.st8{fill:#4e5c7b}.st9{fill:#8aa9c2}.st10{fill:#fff}.st12{fill:#c8dce8}.st13{fill:#192244}.st16{fill:#f6f6f6}.st18{fill:#a1bec9}</style><rect id="XMLID_4348_" x="0" y="0" width="210" height="125" style="fill-rule:evenodd;clip-rule:evenodd;fill:#192244"/><g id="XMLID_4260_"><polygon id="XMLID_4346_" class="st1" points="178.8,51.4 179.6,51 179.7,50.1 180.3,50.7 181.2,50.6 180.8,51.4 181.2,52.1 
		180.3,52 179.7,52.6 179.6,51.7 	"/><polygon id="XMLID_4337_" class="st1" points="36.4,74.6 37.2,74.2 37.3,73.3 37.9,74 38.8,73.8 38.4,74.6 38.8,75.4 37.9,75.2 
		37.3,75.9 37.2,75 	"/><polygon id="XMLID_4336_" class="st1" points="95.2,25.9 96,25.5 96.1,24.6 96.8,25.2 97.6,25.1 97.2,25.9 97.6,26.7 96.8,26.5 
		96.1,27.2 96,26.3 	"/><polygon id="XMLID_4335_" class="st1" points="119.3,65.5 120.1,65.1 120.2,64.2 120.8,64.9 121.7,64.7 121.3,65.5 121.7,66.3 
		120.8,66.1 120.2,66.8 120.1,65.9 	"/><polygon id="XMLID_4334_" class="st1" points="90.9,99.3 91.7,98.9 91.9,98 92.5,98.6 93.4,98.5 92.9,99.3 93.4,100.1 92.5,99.9 
		91.9,100.6 91.7,99.7 	"/><polygon id="XMLID_4332_" class="st1" points="158.7,15.2 159.5,14.8 159.6,14 160.3,14.6 161.1,14.4 160.7,15.2 161.1,16 
		160.3,15.9 159.6,16.5 159.5,15.6 	"/><polygon id="XMLID_4331_" class="st1" points="138.7,61.9 139.5,61.5 139.6,60.6 140.3,61.3 141.1,61.1 140.7,61.9 141.1,62.7 
		140.3,62.6 139.6,63.2 139.5,62.3 	"/><polygon id="XMLID_4326_" class="st1" points="192.3,78.1 193.1,77.7 193.3,76.8 193.9,77.4 194.8,77.3 194.4,78.1 194.8,78.8 
		193.9,78.7 193.3,79.3 193.1,78.4 	"/><polygon id="XMLID_4322_" class="st1" points="182.4,17.1 183.2,16.7 183.4,15.9 184,16.5 184.9,16.3 184.5,17.1 184.9,17.9 
		184,17.8 183.4,18.4 183.2,17.5 	"/><polygon id="XMLID_4313_" points="81.7,36.8 83.4,35.9 83.6,34.1 85,35.4 86.8,35.1 85.9,36.8 86.8,38.4 85,38.1 
		83.6,39.5 83.4,37.6 	" style="opacity:.79;fill:#fff"/></g><g id="XMLID_4205_"><circle id="XMLID_4225_" cx="141.6" cy="62.4" r="43.3" style="fill:#2662ea"/><g id="XMLID_4207_"><path id="XMLID_4224_" class="st4" d="M157.6 36.8c-.6-.6-1 1.1-.4 1.3.6.1 1.3-.5.4-1.3z"/><path id="XMLID_4223_" class="st4" d="M127 98.2c-.3-1.7-2.4-1.4-3.5-.9-1.1.5-.9 2.8-.5 4.2 2.3 1.1 4.7 2 7.2 2.7 0-.2 0-.5-.2-.8-.6-.9-2.7-3.5-3-5.2z"/><g id="XMLID_4208_"><path id="XMLID_4222_" class="st4" d="M176.8 54.9c1.9.1 4.8-2.6 4.4-3.7-.4-1.1-2.7-.6-3.4-2.2-.7-1.7-1.8-3-1.1-3.3.7-.3 2 4.3 6.2 3.5-.1-.2-.6-1.8-1.4-3.6-1.3-3-2.9-5.8-4.7-8.4.3.4 1.4 4-.1 4.1-1.5.1-1.8-3.5-1.8-4s-1.4-4-1.4-4.1l-.2-.2c-.2-.2-.5-.5-.9-1-2.4-2.5-5.2-4.6-8.2-6.5-.2.5.1 1.4-.2 1.8-.5.6-1.9 2-3.6 1.9-1.7-.1-2.4-.9-1.5-1.5 1-.6 1.5-.2 1.9-2 .4-1.7 0-2.1-.1-2.1-1.8-.9-3.8-1.7-5.7-2.3-.7 1.8-.9 3.6.7 3.7 1.6.1 2.4.5 1.9 1.7s-1.2 1.4-2.2 2c-1.1.7-2.2 1.7-2.4.7-.2-1-1.4-2.5-1.8-3.6-.4-1.1-.5-2.1-1.3-1.2-.8 1-1.7 1.9-2.5 2.9-.8 1.1.8 1.2 2.3 1.8 1.5.6 1.8 1.6 1.4 2.2-.4.7.6.9 1 1.7.2.5.8 1.6 0 2-.8.5-3.3-1-4.1-.5-.8.5-.2 3.4-.5 4-.3.6 2 .8 2.5 1.3s2.5-.6 3-1.4c.5-.8.4-1.7 1.4-2.5 1-.9 1.9-.5 2.6-.8.8-.3 0-.8.8-.3s3.9 2.4 3.7 3c-.2.6-1.6.2-1.7 1-.1.8.7 1.1 1.2 1.1s1.3-1.3 1.8-1.6c.5-.3 1.5.9 2.6 1.6 1.2.7 1.6-2 2.1-2.4.6-.4 4.9-.3 5 .3.1.6-4-.1-4.5 1.2s1.6 1.7 2.6 2.4c1.1.8 1.8 3.5 1.9 5.5.1 1.8 2.3 7.7 4.3 7.8z"/><path id="XMLID_4221_" class="st4" d="M149.5 40.5c-.7-.2-1.9.3-2.2 2-.3 1.8-1.7 2.1-2.7 3.5-1 1.4-1.4 6.9-.9 8.9.5 1.9 3.2 5 5.1 5.3 1.9.3 4.8.3 6.5 0 1.8-.3 3.5 1.6 3.5 3.3 0 1.8 1.9 3.6 1.9 5.2-.1 1.6-1.4 4.8 0 7.5s3.3 5.3 3.4 6.1c.1.9 3.9-.4 5.7-2.6 1.9-2.2 1.9-2 2.5-4.4.6-2.3 1.9-3.2 2-4.5.2-1.3.2-2.6 0-4.5s3.4-6.1 3.6-7.8c.2-1.7-2-1.7-2.9-2.9-.9-1.3-3.9-7.1-4.2-9-.3-1.9-3.8-2.2-4.8-2.8-1-.6-2.3.5-3.8-.5s-4.2-3.7-5.5-3.7c-1 0-5.9 1.3-7.2.9z"/><path id="XMLID_4220_" class="st4" d="M110.9 59.2c.1.4.4 1.9-.4 3.3s-1.1 2.6 0 4.9c1.1 2.3 2.6 3.1 3.8 5.3 1.2 2.1 1 5.6 1.2 10.6.2 5.1 1.9 9.1 4.9 10.2 2.9 1.2-1.1-1.8-.8-3.7.3-1.9.2-3 1.3-4.5s1.7-.9 3.1-3.5c1.3-2.6.9-3.5 2.5-4.4 1.6-.9 3.8.1 4.3-2.9s-1.5-2.1.7-4.9-.1-3.2-1.9-4.3c-1.9-1.1-3.7-1.2-4.6-2.2-.9-1.1-.8-.8-2.3-2.4-1.6-1.7-2.7-1.5-4.8-2.8-2-1.4-3.8-2.4-4.9-1.6-1.3.8-2.2 2.3-2.1 2.9z"/><path id="XMLID_4219_" class="st4" d="M118.3 25.9l-3 2.1c.3 1.6-1.2 2.3-1.7 3-.5.7.1 2.4-.4 2.5-.5.1-1-1.9-1-2.9-5.2 4.8-9.2 10.9-11.6 17.8.7 1.8 1.2 3.4 1.5 5.2.3 1.8 3 .8 3.9 2.1.9 1.4 2.5 2.5 3.6 3.2 1.1.7 0-.7-.7-2.2-.7-1.6-1.6-3.3-1.4-4.4.2-1.1-1-1.5-1.8-.6s-1.3 1.1-1.7-1c-.4-2 1.9-2.3 3-2.8 1.2-.5 1.8.4 2.5 1.1.8.7.7-.5.9-2.6.2-2.1 3.6-6.2 4.7-8.2 1.1-2 2.2-2.7 2.5-3.8.3-1.1 2.6-.6 4.6.1 1.9.7 1.9-.6 1.1-1.6-.8-1-1.5-1.3-.7-1.9.8-.7-.2-1.3-1-2.2-.8-1-.8-2.3-1.1-2.8-.3-.4-1.5 1.4-2.4 1.5-.8 0-.1-1.4.2-1.6z"/><path id="XMLID_4218_" class="st4" d="M126.3 21.9c.6.7 1.1 1.1 1.8 2.2.7 1.2 1.9 2 2.6 0 .7-2 1.6-4 1.6-4-2 .4-4 1-6 1.8z"/><g id="XMLID_4209_"><g id="XMLID_4210_"><path id="XMLID_4217_" class="st4" d="M174.5 74c-.8 1.5-2.4 3.3-2 4.3.4 1 .9 1.1 2-.8 1.2-1.9 2.3-4.5 2.6-6 .3-1.6.8-3.4 0-2.5-.8.9-2.6 2.5-2.6 3.8V74z"/><path id="XMLID_4216_" class="st5" d="M161.1 101.2c-.5-.2-1.7.2-2.7-.5-1.6-1.1-3.5.3-5.7.4-2.2.1-5.1.2-7.4 1.3-2.3 1.2-2.4 1.1-4.6 1.9-1.5.5-1.4 1-1.3 1.5.7 0 1.5.1 2.2.1 7-.1 13.7-1.8 19.5-4.7z"/><path id="XMLID_4215_" class="st4" d="M174.5 70.8c.2-1.3.2-2.6 0-4.5s3.4-6.1 3.6-7.8c.2-1.7-2-1.7-2.9-2.9-.9-1.3-3.9-7.1-4.2-9-.3-1.9-3.8-2.2-4.8-2.8-1-.6-2.3.5-3.8-.5-.7-.5-1.7-1.3-2.7-2.1 2.1 5.5 3.5 12 3.1 19.4-.3 4.5-1.2 8.7-2.6 12.4 0 1 .1 2.1.6 3.1 1.4 2.7 3.3 5.3 3.4 6.1.1.9 3.9-.4 5.7-2.6 1.9-2.2 1.9-2 2.5-4.4.6-2.3 1.9-3.2 2.1-4.4z"/><g id="XMLID_4212_"><path id="XMLID_4214_" class="st4" d="M150 24.5c-.1.1-.2.3-.4.4 1.1 1.2 2.2 2.5 3.3 4-.3-1-1.3-2.3-1.7-3.3-.3-1-.4-2.1-1.2-1.1z"/><path id="XMLID_4213_" class="st4" d="M176.8 54.9c1.9.1 4.8-2.6 4.4-3.7-.4-1.1-2.7-.6-3.4-2.2-.7-1.7-1.8-3-1.1-3.3.7-.3 2 4.3 6.2 3.5 0-.1-.1-.2-.1-.3-.2-.5-.6-1.7-1.2-3.2l-.3-.6c-.2-.5-.4-.9-.6-1.4-.1-.2-.2-.5-.4-.7-.2-.4-.5-.9-.7-1.3-.1-.2-.2-.5-.4-.7-.3-.5-.6-1-.9-1.4-.1-.2-.2-.3-.3-.5-.4-.6-.8-1.3-1.3-1.9.3.4 1.4 4-.1 4.1-1.5.1-1.8-3.5-1.8-4s-1.3-3.8-1.4-4.1c-.2-.2-.3-.4-.5-.6l-.2-.2-.8-.8-1.1-1.1-.6-.6c-.4-.4-.9-.8-1.4-1.1-.2-.1-.3-.3-.5-.4-.6-.5-1.2-.9-1.8-1.4-.2-.2-.5-.3-.7-.5-.4-.3-.8-.5-1.2-.8-.1-.1-.3-.2-.4-.3-.2.5.1 1.4-.2 1.8-.5.6-1.9 2-3.6 1.9-1.7-.1-2.4-.9-1.5-1.5 1-.6 1.5-.2 1.9-2 .3-1.5.1-1.9-.1-2.1-.3-.2-.6-.3-1-.5-.1 0-.1-.1-.2-.1l-3.6-1.5c-.1 0-.2-.1-.3-.1-.2-.1-.4-.1-.7-.2-.7 1.8-.9 3.6.7 3.6 1.6.1 2.4.5 1.9 1.7s-1.2 1.4-2.2 2c-.7.5-1.5 1.1-2 1.1 1.2 1.7 2.4 3.5 3.5 5.6h.1c.8-.3 0-.8.8-.3s3.9 2.4 3.7 3c-.2.6-1.6.2-1.7 1-.1.8.7 1.1 1.2 1.1s1.3-1.3 1.8-1.6c.5-.3 1.5.9 2.6 1.6 1.2.7 1.6-2 2.1-2.4.6-.4 4.9-.3 5 .3.1.6-4-.1-4.5 1.2s1.6 1.7 2.6 2.4c1.1.8 1.8 3.5 1.9 5.5.2 2 2.4 7.9 4.4 8z"/></g><path id="XMLID_4211_" class="st5" d="M123.1 101.6c.5.2.9.4 1.4.6.1.1.3.1.4.2l1.5.6c.1 0 .2.1.3.1.5.2 1 .4 1.5.5h.1c.6.2 1.1.3 1.7.5h.1c0-.2 0-.5-.2-.8-.3-.6-1.3-1.8-2-3.1-1.7.5-3.4.9-4.9 1.3 0 .1 0 .1.1.1z"/></g></g></g></g><circle id="XMLID_4206_" cx="141.4" cy="54.9" r="34.2" style="opacity:.3;fill:#9ad3f4"/></g><g id="XMLID_4200_" class="st7"><path id="XMLID_4203_" class="st8" d="M18.2 15.6c-.3-.2 33 11 34 11.1.7.1 1 .7.9 1.1-.1.4-.7.8-1.3.4-1.1-.6-32.7-12.1-33.6-12.6z"/><path id="XMLID_4202_" class="st9" d="M19.6 16c-.2-.1 31.7 10.8 32.5 10.9.5.1.7.5.6.8-.1.3-.5.5-.9.2-.9-.4-31.5-11.5-32.2-11.9z"/><ellipse id="XMLID_4201_" transform="matrix(-0.9452 -0.3264 0.3264 -0.9452 92.4298 70.4913)" class="st10" cx="52.1" cy="27.5" rx="0.8" ry="0.6"/></g><g id="XMLID_4196_" class="st7"><path id="XMLID_4199_" class="st8" d="M26.4 13.1c-.2-.1 22.6 7.5 23.2 7.6.5 0 .7.5.6.7-.1.3-.5.5-.9.3-.7-.4-22.3-8.2-22.9-8.6z"/><path id="XMLID_4198_" class="st9" d="M27.3 13.4c-.2-.1 21.7 7.4 22.2 7.4.4 0 .5.3.4.5-.1.2-.3.3-.6.2-.6-.3-21.5-7.8-22-8.1z"/><ellipse id="XMLID_4197_" transform="matrix(-0.9452 -0.3264 0.3264 -0.9452 89.4644 57.4582)" class="st10" cx="49.6" cy="21.2" rx="0.5" ry="0.4"/></g><g id="XMLID_4158_" style="opacity:.9"><g id="XMLID_4193_"><path id="XMLID_4195_" class="st12" d="M52.1 56.6s-7.4 4.5-10.7 5.3c-4 .9-10.8.6-15.6 5.7l8.7 8 17.6-19z"/><path id="XMLID_4194_" class="st13" d="M28.1 65.6l8.5 7.8 2.1-2.3L31 64c-1 .5-2 1-2.9 1.6z"/></g><g id="XMLID_4190_"><path id="XMLID_4192_" class="st12" d="M64.3 67.9s-3.9 7.8-4.4 11.1c-.6 4 .3 10.8-4.5 16l-8.7-8 17.6-19.1z"/><path id="XMLID_4191_" class="st13" d="M57.3 92.6l-8.5-7.8 2.1-2.3 7.7 7.1c-.3 1-.7 2-1.3 3z"/></g><path id="XMLID_4189_" d="M33.3 83s-3.2 0-7.6 3.9l1.6-.3s-3.7 2.3-4.7 6.5c0 0 2.9-1.8 4-2.2 0 0-3.3 4.8-3.4 9.5 0 0 4.2-.5 8.1-4.7 0 0-.8 3.2-1.6 4.1 0 0 4.5-1.8 6.7-5.8l.1 2.1s3.3-4.1 3.3-7.2c0-4-3-6.5-6.5-5.9z" style="fill:#ec8b2c"/><path id="XMLID_4188_" d="M34.1 85.5s-1.4 0-3.4 1.7l.7-.1s-1.7 1-2.1 2.9c0 0 1.3-.8 1.8-1 0 0-1.5 2.2-1.5 4.2 0 0 1.9-.2 3.6-2.1 0 0-.4 1.4-.7 1.8 0 0 2-.8 3-2.6v.9S37 89.3 37 88c0-1.6-1.3-2.8-2.9-2.5z" style="fill:#ffaf3c"/><path id="XMLID_4187_" class="st12" d="M40.2 90.9l-9.3-8.6c-.4-.3-.3-1 .2-1.3l3-2.1c.3-.2.7-.2 1 0l8.1 7.5c.3.2.3.6.1 1l-1.9 3.1c-.2.6-.8.7-1.2.4z"/><path id="XMLID_4186_" class="st12" d="M43.3 87.5c.2-.3.2-.7-.1-1l-4-3.7-3.6 3.9 4.6 4.2c.4.3 1 .2 1.3-.3l1.8-3.1z"/><path id="XMLID_4185_" class="st16" d="M65.9 66.1c4-5.2 6.4-12.9 3.3-15.7-3.1-2.9-10.6.1-15.4 4.5-.2.1-.3.2-.4.3L34.2 76c-.8.8-.7 2.1.1 2.9l9.2 8.5c.8.8 2.1.7 2.9-.1l19.1-20.8c.2-.1.3-.3.4-.4z"/><path id="XMLID_4184_" class="st16" d="M43.6 87.4c.8.8 2.1.7 2.9-.1l19.1-20.8c.1-.1.2-.3.3-.5 4-5.2 6.4-12.9 3.3-15.7L38.9 83.2l4.7 4.2z"/><g id="XMLID_4179_"><rect id="XMLID_4183_" x="50.1" y="61.7" transform="matrix(0.7353 0.6778 -0.6778 0.7353 57.4948 -23.1778)" class="st12" width="16.7" height="0.6"/><rect id="XMLID_4182_" x="45.6" y="66.6" transform="matrix(0.7353 0.6778 -0.6778 0.7353 59.5986 -18.8638)" class="st12" width="16.7" height="0.6"/><rect id="XMLID_4181_" x="41.1" y="71.4" transform="matrix(0.7353 0.6778 -0.6778 0.7353 61.7025 -14.5497)" class="st12" width="16.7" height="0.6"/><rect id="XMLID_4180_" x="36.7" y="76.3" transform="matrix(0.7353 0.6778 -0.6778 0.7353 63.8064 -10.2357)" class="st12" width="16.7" height="0.6"/></g><g id="XMLID_4174_"><rect id="XMLID_4178_" x="57.3" y="64.5" transform="matrix(0.7353 0.6778 -0.6778 0.7353 60.2247 -24.5092)" width="8.3" height="0.6" style="fill:#b4cedb"/><rect id="XMLID_4177_" x="52.8" y="69.4" transform="matrix(0.7353 0.6778 -0.6778 0.7353 62.3286 -20.1951)" class="st12" width="8.3" height="0.6"/><rect id="XMLID_4176_" x="48.4" y="74.2" transform="matrix(0.7353 0.6778 -0.6778 0.7353 64.4325 -15.8811)" class="st12" width="8.3" height="0.6"/><rect id="XMLID_4175_" x="43.9" y="79.1" transform="matrix(0.7353 0.6778 -0.6778 0.7353 66.5364 -11.567)" class="st12" width="8.3" height="0.6"/></g><g id="XMLID_4171_"><path id="XMLID_4173_" class="st13" d="M66.9 52.8c-1.8-1.7-5.5-.9-8.5.4l-.1 3.1c1.8-.5 4-.8 5.1.2 1.1 1.1 1 3.3.6 5.2l3.1-.3c1.1-3.1 1.6-6.9-.2-8.6z"/><path id="XMLID_4172_" class="st13" d="M66.9 52.8l-3.5 3.8c1.1 1.1 1 3.3.6 5.2l3.1-.3c1.1-3.2 1.6-7-.2-8.7z"/></g><g id="XMLID_4168_"><path id="XMLID_4170_" class="st13" d="M37.7 84.5c-.3-.3-.4-.8 0-1.2l8.7-9.4c.3-.3.8-.4 1.2 0 .3.3.4.8 0 1.2l-8.7 9.4c-.3.3-.8.3-1.2 0z"/><path id="XMLID_4169_" class="st13" d="M38.9 84.4l8.7-9.4c.3-.3.3-.9 0-1.2l-9.8 10.7c.3.3.8.3 1.1-.1z"/></g><g id="XMLID_4159_"><g id="XMLID_4164_"><circle id="XMLID_4167_" class="st12" cx="55.6" cy="59.4" r="1.1"/><path id="XMLID_4166_" class="st12" d="M56.7 59.6l-2.1-.5c-.1.3 0 .7.3 1 .4.4 1.1.5 1.5 0 .1-.1.2-.3.3-.5z"/><circle id="XMLID_4165_" class="st18" cx="55.6" cy="59.4" r="0.6"/></g><g id="XMLID_4160_"><circle id="XMLID_4163_" class="st12" cx="61.4" cy="64.7" r="1.1"/><path id="XMLID_4162_" class="st12" d="M61.1 63.7l.7 2c-.3.1-.7.1-1-.2-.5-.4-.5-1.1-.2-1.5.1-.1.3-.2.5-.3z"/><circle id="XMLID_4161_" class="st18" cx="61.4" cy="64.7" r="0.6"/></g></g></g></svg>