<svg version="1.1" id="Layer_1" xmlns="http://www.w3.org/2000/svg" xmlns:xlink="http://www.w3.org/1999/xlink" x="0px" y="0px" viewBox="0 0 210 125" style="enable-background:new 0 0 210 125" xml:space="preserve"><style type="text/css">.st1{fill:none}.st2{fill:#64c3f9}.st6{fill:#ff5722}.st8{fill:#65db65}.st9{fill:#4caf50}.st10{fill:#388e3c}.st12{fill:#ff8f8f}</style><rect id="XMLID_402_" width="210" height="125" style="fill:#3a454d"/><g id="XMLID_392_"><rect id="XMLID_401_" x="142.4" y="84" class="st1" width="22.1" height="21.9"/><polygon id="XMLID_400_" class="st1" points="153.5,84.8 153.5,95 164.5,95 164.5,84 153.5,84 	"/><polyline id="XMLID_399_" class="st2" points="210,110.6 208.8,122.3 210,107.7 191.5,109.7 163.2,108.7 142.4,107.2 142.4,105.9 
		153.5,95 155.2,95 210,95 	"/><polyline id="XMLID_384_" points="172.7,125 171.7,77.4 138,76 129.9,72 141.3,60.8 187.8,60.8 187.8,125 	" style="fill:#2196f3"/><polygon id="XMLID_397_" class="st2" points="153.5,95 153.5,78.6 138.5,78.6 138.5,109.4 142.4,107.2 	"/><g id="XMLID_393_"><path id="XMLID_394_" d="M177.4 125V72h-47.5v45.7h34.9v7.3m45.2 0v-17.3h-22.2v10.8h11v6.5m-34.3-19.1h-22.1V84h22.1v21.9z" style="fill:#1976d2"/></g></g><g id="XMLID_387_"><polyline id="XMLID_391_" points="37.4,125 29.6,114.9 104.8,102.2 102,109.4 41.7,119.3 46,125 	" style="fill:#e64a19"/><polygon id="XMLID_390_" class="st6" points="104.8,102.2 80.1,72.9 72.6,74.5 91.5,97.4 32.5,107.8 29.6,114.9 	"/><path id="XMLID_382_" d="M53.5 125c0-.1.1-.3.2-.4 3.4-9 19-50.1 19-50.1l18.9 22.9-6.7 1.2-7.2-8.9L66 117.3l-3.8 7.7" style="fill:#ff8b6c"/><polyline id="XMLID_389_" class="st6" points="53.6,125 48.3,118.2 41.7,119.3 46,125 	"/><polyline id="XMLID_388_" class="st6" points="67.3,125 79.9,92.5 75.1,86.7 60.4,125 	"/></g><g id="XMLID_352_"><path id="XMLID_386_" class="st8" d="M34 58.7c1.3.1 12.1-1.6 12.1-1.6l5 8.2-11.8 1-11.1.5 5.8-8.1z"/><path id="XMLID_385_" class="st8" d="M59 41.4c-.4 1.2-5.9 10.6-5.9 10.6l5.8 7.6L64.2 49l4.5-10.1-9.7 2.5z"/><polyline id="XMLID_379_" class="st9" points="28.3,59.3 32.3,65.2 0,69.7 0,60.3 	"/><polygon id="XMLID_383_" class="st10" points="33.7,44 38.7,51.5 32.3,65.2 27.3,57.9 	"/><polyline id="XMLID_338_" class="st10" points="82.8,0 62.7,35.9 66.6,41.7 88.1,3.8 90.2,0 	"/><polygon id="XMLID_381_" class="st9" points="46.5,35.3 51.5,42.7 66.6,41.7 61.7,34.4 	"/><line id="XMLID_403_" class="st10" x1="0" y1="48.1" x2="1.8" y2="44.8"/><polyline id="XMLID_336_" class="st9" points="77.3,0 75.2,3.9 58.8,6 55,0.4 57.7,0 	"/><polyline id="XMLID_374_" class="st9" points="6.2,37.9 24.9,65.5 25.7,65.8 46.5,62.8 31.4,40.7 16.9,42.6 13,36.9 35.8,33.4 
		59.2,67.7 21.3,73.3 17.2,67.3 0.8,43.4 0.6,43 0,42.2 0,38.9 6.2,37.9 	"/><polygon id="XMLID_377_" class="st10" points="74.1,28.5 78.3,34.5 59.2,67.7 35.8,33.4 47.4,13.5 51.3,19.2 44.2,32 59.3,54.1 
		69.6,35.8 69.6,35.1 50.8,7.5 55,0.4 	"/><polyline id="XMLID_375_" class="st8" points="0,35.6 1.4,33.1 0,33.3 	"/><polyline id="XMLID_376_" class="st8" points="0,63.2 28.3,59.3 35.1,46.1 31.4,40.7 24.5,53.8 0,56.9 	"/><polyline id="XMLID_340_" class="st8" points="75.6,0 58.9,30.4 44.2,32 47.9,37.4 62.7,35.9 82.8,0 	"/><polygon id="XMLID_339_" class="st8" points="48.8,0 48.1,1.3 57.7,0 58,0 	"/><polyline id="XMLID_380_" class="st8" points="0,35.6 16.8,5.5 55,0.4 50.8,7.5 20.6,11.1 6.2,37.9 0,38.9 	"/><polygon id="XMLID_373_" class="st10" points="13,36.9 24.5,53.8 17.6,54.7 6.2,37.9 20.6,11.1 24.1,16.3 	"/><polygon id="XMLID_357_" class="st9" points="47.4,13.5 58.9,30.4 62.3,24.3 50.8,7.5 20.6,11.1 24.1,16.3 	"/><polygon id="XMLID_356_" class="st8" points="13,36.9 16.3,30.8 32.5,28.5 40.5,14.3 47.4,13.5 35.8,33.4 	"/><polygon id="XMLID_355_" class="st9" points="24.1,16.3 25.1,17.7 32.5,28.5 25.2,29.6 20.6,22.8 	"/><polygon id="XMLID_354_" class="st10" points="24.1,16.3 25.1,17.7 32.5,28.5 36.1,22.2 31.5,15.4 	"/><path id="XMLID_353_" class="st9" d="M32.5 28.5"/></g><g id="XMLID_333_"><polyline id="XMLID_322_" points="131.7,0 130.5,19.5 129.6,33.2 179.1,9.7 178,20.2 118.9,48.3 122.6,1.8 122.8,0 	
		" style="fill:#d32f2f"/><polyline id="XMLID_337_" class="st12" points="113.7,0 110.2,42.4 118.9,48.3 122.8,0 	"/><polyline id="XMLID_335_" class="st12" points="132.5,0 152.1,13.5 161.1,9.2 147.6,0 	"/><polyline id="XMLID_334_" points="164.7,0 168,2.2 179.1,9.7 129.6,33.2 130.2,23.9 161.1,9.2 147.6,0 	" style="fill:#f44336"/></g></svg>