<svg version="1.1" id="Layer_1" xmlns="http://www.w3.org/2000/svg" xmlns:xlink="http://www.w3.org/1999/xlink" x="0px" y="0px" viewBox="0 0 210 125" style="enable-background:new 0 0 210 125" xml:space="preserve"><style type="text/css">.st2{fill:none}.st4{fill:#fff}.st5{fill:#39b54a}.st6{fill:#60d1f8}.st7{fill:#ef277d}.st8{fill:#333c49}</style><rect id="XMLID_9802_" x="0" y="0" width="210" height="125" style="fill-rule:evenodd;clip-rule:evenodd;fill:#333c49"/><g id="XMLID_462_" style="opacity:.1"><path id="XMLID_969_" class="st2" d="M14 118.8c-1.4.4-2.9-.4-3.3-1.9-.1-.4-.1-.8-.1-1.2L0 113.2V125h94.3l-78.4-8.5c-.3 1-.9 2-1.9 2.3z"/><path id="XMLID_968_" class="st2" d="M25 55.4c0-.4.1-.8.3-1.1L0 23.9v37.4l25-5.9z"/><path id="XMLID_967_" class="st2" d="M12.1 113.5c.1-.1.3-.1.4-.2.5-.2 1-.1 1.5 0l1.6-4.2-6.8-1.3 3.3 5.7z"/><polygon id="XMLID_966_" class="st2" points="36.4,56.9 69.9,63.1 55.1,42.1 39.2,49.6 	"/><path id="XMLID_965_" class="st2" d="M110.6 124.3l-1.5-4.1c-1.4.4-2.9-.4-3.3-1.9-.1-.3-.1-.6-.1-.9l-87.3-13.9-2 5.1 88.1 16.4h5.2c.2 0 .5-.5.9-.7z"/><polygon id="XMLID_964_" class="st2" points="4.1,100.7 0,93.6 0,100 	"/><polygon id="XMLID_963_" class="st2" points="152.9,45.1 168.8,19.4 147.3,13.5 144.3,21.6 	"/><path id="XMLID_962_" class="st2" d="M110 115.3c.4.3.7.8.9 1.3l8.7-2.1L142.9 79l-9.8-1.1-23.1 37.4z"/><path id="XMLID_961_" class="st2" d="M109.6 120l1.5 4.1c.7-.2 1.4-.1 2 .2l6-9.2-8.1 1.9c.2 1.4-.4 2.5-1.4 3z"/><polygon id="XMLID_960_" class="st2" points="134.5,75.8 133.4,77.5 143.3,78.6 144,77.5 	"/><polygon id="XMLID_959_" class="st2" points="143.8,78.7 158.8,80.3 144.5,77.6 	"/><polygon id="XMLID_958_" class="st2" points="134.8,75.3 144.3,77.1 157,57.8 152.8,46.3 	"/><polygon id="XMLID_957_" class="st2" points="153.1,45.8 157.3,57.3 180.2,22.5 169.4,19.6 	"/><polygon id="XMLID_956_" class="st2" points="180.5,22 181.6,20.4 176.1,13.8 173.4,13.1 169.6,19.1 	"/><path id="XMLID_955_" class="st2" d="M110.8 75.6c-.1.5-.5.9-1 1.1-.8.2-1.7-.2-1.9-1.1-.1-.2-.1-.4-.1-.5l-1.6-.4 2.2 40c.2 0 .4 0 .6.1L123.2 77l-12.4-1.4z"/><path id="XMLID_954_" class="st2" d="M109.6 115l23-37.1-8.8-1-14.2 38.1z"/><polygon id="XMLID_953_" class="st2" points="55.3,41.4 76.7,31 65.5,0 58.1,0 46.9,29.3 	"/><path id="XMLID_952_" class="st2" d="M11.6 113.8l-3.5-6.1-8.1-1.5v6.4l10.7 2.6c.1-.6.5-1 .9-1.4z"/><polygon id="XMLID_951_" class="st2" points="8.5,107.3 15.8,108.6 17.8,103.4 5.1,101.4 	"/><polygon id="XMLID_950_" class="st2" points="0,105.7 7.8,107.1 4.4,101.3 0,100.6 	"/><path id="XMLID_949_" class="st2" d="M138.6 2l5.3-2h-7l.2 1c.6-.1 1.2.4 1.5 1z"/><polygon id="XMLID_948_" class="st2" points="144,22.4 125,73.5 134.3,75.2 152.5,45.7 	"/><path id="XMLID_947_" class="st2" d="M110.8 74.7c0 .1.1.2.1.4l12.5 1.4 1-2.6-13.2-2.5-.9 2.4c.2.2.4.5.5.9z"/><polygon id="XMLID_946_" class="st2" points="143.8,21.6 140.1,11.6 134.8,10.1 111.3,70.9 124.5,73.4 	"/><polygon id="XMLID_945_" class="st2" points="146.8,13.4 140.7,11.7 144.1,20.9 	"/><path id="XMLID_944_" class="st2" d="M14.4 113.6c.6.3 1.1.9 1.3 1.7.1.3.1.4.1.7l83.3 9h2.3L16 109.1l-1.6 4.5z"/><polygon id="XMLID_943_" class="st2" points="54.8,41.6 46.7,30.1 39.4,48.9 	"/><polygon id="XMLID_942_" class="st2" points="123.9,76.5 132.9,77.5 134,75.7 124.8,74 	"/><path id="XMLID_941_" class="st2" d="M27.8 54.4l11-5.2 7.6-19.6L29.7 5.9l-2.9 47.8c.4.1.8.3 1 .7z"/><polygon id="XMLID_940_" class="st2" points="105.9,69.8 105.9,69.9 106,69.9 	"/><path id="XMLID_939_" class="st2" d="M127.1 7.5l8.7-4.1c-.1-.3-.1-.9 0-1.2L132.5 0H102v.4l25.1 7.1z"/><polygon id="XMLID_938_" class="st2" points="126.3,7.8 102.1,1.2 103.1,18.8 	"/><polygon id="XMLID_937_" class="st2" points="102.6,19 101.6,0.8 99.7,0 66.8,0 82.8,28.1 	"/><path id="XMLID_936_" class="st2" d="M91.2 71.1L73 66.7l34 48.4c.1 0 .2-.1.2-.1l-16-43.9z"/><polygon id="XMLID_935_" class="st2" points="105.7,74 105.5,70.3 90.5,67.5 91.6,70.6 	"/><polygon id="XMLID_934_" class="st2" points="180.5,0 165.7,0 174.2,10.2 	"/><path id="XMLID_933_" class="st2" d="M25.7 53.9c.1-.1.2-.1.3-.2l-6.4-43.5L0 19.5v3.6l25.7 30.8z"/><path id="XMLID_932_" class="st2" d="M107.9 74.6c.1-.2.2-.4.4-.6l-2-3.4-.4-.1.2 3.7 1.8.4z"/><polygon id="XMLID_931_" class="st2" points="89.9,67.4 71,63.9 72.6,66.1 91,70.5 	"/><polygon id="XMLID_930_" class="st2" points="46.6,28.7 57.6,0 40.2,0 30,4.9 	"/><polygon id="XMLID_929_" class="st2" points="29.6,0 26.6,0 29.3,3.9 	"/><polygon id="XMLID_928_" class="st2" points="36.9,57.5 71.8,65.9 70.3,63.8 	"/><polygon id="XMLID_927_" class="st2" points="102.6,19.6 83.1,28.8 105.3,67.6 	"/><path id="XMLID_926_" class="st2" d="M105.7 74.6l-13.9-3.3 15.9 43.6h.2l-2.2-40.3z"/><path id="XMLID_925_" class="st2" d="M144.8 77.2l19.5 3.7c.1-.3.4-.6.7-.8l-7.8-21.6-12.4 18.7z"/><polygon id="XMLID_924_" class="st2" points="134.4,0.5 133.7,0.5 135.4,1.5 	"/><path id="XMLID_923_" class="st2" d="M136.4 4.3c-.2-.1-.3-.3-.5-.5l-8.1 3.8 6.6 1.8 2-5.1z"/><polygon id="XMLID_922_" class="st2" points="106.7,70 110.8,70.8 134.3,10 127.1,8 103.1,19.4 105.9,68.6 	"/><path id="XMLID_921_" class="st2" d="M35.8 56.8l2.6-6.8-10.5 5v.4l7.9 1.4z"/><path id="XMLID_920_" class="st2" d="M136.6 1.5l-.2-1h-1.3l1.2 1.2c.1-.1.2-.2.3-.2z"/><polygon id="XMLID_919_" class="st2" points="89.7,66.8 76.9,31.8 55.6,41.8 70.6,63.3 	"/><polygon id="XMLID_918_" class="st2" points="183.7,22.9 181.9,20.8 181,22.2 	"/><path id="XMLID_917_" class="st2" d="M139.9 11l-2.3-6.4h-.6l-2 5.1 4.9 1.3z"/><polygon id="XMLID_916_" class="st2" points="0,18.9 19.6,9.4 18.2,0 15.2,0 0,15.6 	"/><path id="XMLID_915_" class="st2" d="M108.9 73.6c.3-.1.5-.1.8 0l.9-2.3-3.5-.7 1.7 3c0 .1.1 0 .1 0z"/><polygon id="XMLID_914_" class="st2" points="105.4,69.8 105.4,68.8 82.6,29.1 77.4,31.5 90.3,66.9 	"/><polygon id="XMLID_913_" class="st2" points="174.3,11.6 173.7,12.6 175.5,13.1 	"/><polygon id="XMLID_912_" class="st2" points="173.1,12.5 173.9,10.9 165,0 152.2,0 150.1,5.9 	"/><polygon id="XMLID_911_" class="st2" points="181.9,19.9 184.4,16.1 177,14.1 	"/><polygon id="XMLID_910_" class="st2" points="182.2,20.4 184.6,23.2 200.9,27.6 204.8,21.7 184.9,16.3 	"/><path id="XMLID_909_" class="st2" d="M27.9 55.9c-.2.4-.5.8-1 .9-.8.2-1.6-.2-1.9-.9l-25 6v30.7l4.7 8.3L18 103l17.5-45.2-7.6-1.9z"/><polygon id="XMLID_908_" class="st2" points="176.4,13.4 184.7,15.4 194.7,0 181.1,0 174.6,10.9 	"/><path id="XMLID_907_" class="st2" d="M72.2 66.5L36 57.8 18.5 103l87.2 13.9c.1-.5.4-1 .8-1.4l-34.3-49z"/><path id="XMLID_906_" class="st2" d="M180.7 22.7l-23.2 35.2 8 21.9c.3-.1.7 0 .9.1L195 36.5l-10.7-12.9-3.6-.9z"/><polygon id="XMLID_905_" class="st2" points="195.3,36 200.6,28.1 185.2,23.9 	"/><polygon id="XMLID_904_" class="st2" points="169.1,18.9 172.8,12.9 149.9,6.7 147.5,13 	"/><polygon id="XMLID_903_" class="st2" points="82.3,28.3 66.2,0 66.1,0 77.2,30.6 	"/><polygon id="XMLID_902_" class="st2" points="38.9,0 30.1,0 29.8,4.3 	"/><polygon id="XMLID_901_" class="st2" points="29.2,4.9 25.9,0 18.8,0 20.1,9 	"/><path id="XMLID_900_" class="st2" d="M138 4.3l2.5 6.8 6.5 1.8 2.4-6.4-10.7-2.9c-.2.3-.4.6-.7.7z"/><polygon id="XMLID_899_" class="st2" points="29.2,5.7 20.1,10 26.4,52.8 	"/><path id="XMLID_898_" class="st2" d="M138.8 3.1l10.8 2.7 2.1-5.8h-6l-6.9 2.5v.6z"/><polygon id="XMLID_897_" class="st2" points="14.5,0 0,0 0,14.8 	"/><polygon id="XMLID_896_" points="65.7,-0.4 66.1,0.5 66.2,0.5 	" style="fill:#292f3a"/><polygon id="XMLID_895_" class="st4" points="20.1,9.2 18.8,0 18.2,0 19.6,9.3 	"/><path id="XMLID_894_" class="st4" d="M26.1 53.7c.1 0 .2 0 .3-.1l.1-.9L20.1 10l-.5.2 6.5 43.5c-.1.1-.1 0 0 0z"/><rect id="XMLID_893_" x="27.8" y="2.7" transform="matrix(-6.046918e-02 0.9982 -0.9982 -6.046918e-02 34.4252 -27.0455)" class="st4" width="4.3" height="0"/><polygon id="XMLID_892_" class="st4" points="29,4.4 29.4,1 29.3,1 29,4.4 	"/><polygon id="XMLID_891_" class="st4" points="26.9,53.7 29.7,5.9 29.7,5.9 	"/><rect id="XMLID_890_" x="4.2" y="29.2" transform="matrix(-6.043193e-02 0.9982 -0.9982 -6.043193e-02 58.6722 3.2274)" class="st4" width="47.2" height="0"/><polygon id="XMLID_889_" class="st4" points="26.4,52.8 26.3,53.7 26.4,52.8 	"/><polygon id="XMLID_888_" class="st4" points="29.6,4.9 29.8,4.6 30.1,0 29.6,0 29.3,4.2 	"/><path id="XMLID_887_" class="st4" d="M26.4 52.8l.1.9h.3l2.9-47.8-.3-.4-.2.1-2.8 47.2z"/><path id="XMLID_886_" class="st4" d="M26.4 52.8l-.1.9h.2l-.1-.9z"/><path id="XMLID_885_" class="st4" d="M25.7 53.9L0 23.1v.8l25.3 30.3c.1-.1.2-.2.4-.3z"/><path id="XMLID_884_" class="st4" d="M25 55.4L0 61.3v.6l25.1-6c0-.1 0-.1-.1-.2v-.3z"/><polygon id="XMLID_883_" class="st4" points="72.6,66.1 73,66.7 91.2,71.1 91,70.5 	"/><path id="XMLID_882_" class="st4" d="M106.2 74.1v.6l1.6.4c0-.2.1-.4.1-.5l-1.7-.5z"/><path id="XMLID_881_" class="st4" d="M27.9 55.8c0 .1 0 .1 0 0l7.5 1.9.2-.4-7.7-1.5z"/><polygon id="XMLID_880_" class="st4" points="36.9,57.5 36.2,57.4 36,57.8 72.2,66.5 71.8,65.9 	"/><polygon id="XMLID_879_" class="st4" points="91.6,70.6 91.8,71.2 105.7,74.6 105.7,74 	"/><polygon id="XMLID_878_" class="st4" points="106,69.9 106.7,70 105.9,68.6 105.9,69.8 	"/><path id="XMLID_877_" class="st4" d="M108.8 73.7l-1.7-3-.7-.1 2 3.4c.1-.2.2-.2.4-.3z"/><polygon id="XMLID_876_" class="st4" points="105.3,67.6 83.1,28.8 82.6,29.1 105.4,68.8 	"/><polygon id="XMLID_875_" class="st4" points="82.8,28.1 66.8,0 66.2,0 82.3,28.2 	"/><path id="XMLID_874_" class="st4" d="M136.9 4.5c-.2 0-.3-.1-.5-.2l-2 5.2.5.1 2-5.1z"/><path id="XMLID_873_" class="st4" d="M110.2 73.8l.9-2.4-.5-.1-.9 2.3c.1 0 .3.1.5.2z"/><polygon id="XMLID_872_" class="st4" points="134.8,10.1 134.3,10 110.8,70.8 111.3,70.9 	"/><path id="XMLID_871_" class="st4" d="M136.8 1.4c.1 0 .2 0 .3-.1l-.2-.8h-.5l.2 1c.1 0 .1-.1.2-.1z"/><path id="XMLID_870_" class="st4" d="M138.7 2.5c.1.1.1-.1 0 0l6.9-2.5h-1.7l-5.3 2c.1 0 .1.4.1.5z"/><path id="XMLID_869_" class="st4" d="M28 54.9l10.5-5 .3-.7-11 5.2c.1.1.1.3.2.5 0-.1 0 0 0 0z"/><polygon id="XMLID_868_" class="st4" points="82.6,29.1 82.3,28.6 77.2,31 77.4,31.5 	"/><path id="XMLID_867_" class="st4" d="M136 3.9c-.1-.1-.2-.3-.2-.4l-8.7 4.1.8.2 8.1-3.9z"/><polygon id="XMLID_866_" class="st4" points="76.9,31.8 76.7,31.3 55.3,41.4 55.6,41.8 	"/><polygon id="XMLID_865_" class="st4" points="126.3,7.8 103.1,18.8 103.1,19.4 127.1,8 	"/><polygon id="XMLID_864_" class="st4" points="39.2,49.6 55.1,42.1 54.8,41.6 39.4,48.9 	"/><polygon id="XMLID_863_" class="st4" points="102.6,19.6 102.6,19 82.8,28.4 83.1,28.8 	"/><polygon id="XMLID_862_" class="st4" points="83.1,28.8 82.8,28.4 82.3,28.6 82.6,29.1 	"/><polygon id="XMLID_861_" class="st4" points="135.4,1.5 133.7,0.5 133.6,0.5 135.5,1.6 	"/><path id="XMLID_860_" class="st4" d="M136.1 1.9c.1-.1.2-.2.3-.2L135.2.5h-.8l1 1 .7.4z"/><path id="XMLID_859_" class="st4" d="M136.1 1.9l-.7-.4.1.1.6.3c-.1 0 0 0 0 0z"/><path id="XMLID_858_" class="st4" d="M135.8 2.1L132.7 0h-.1l3.2 2v.1z"/><path id="XMLID_857_" class="st4" d="M136 2.1l-.5-.7-1.9-1.4h-.9l3.1 2.1c0-.1.1.1.2 0z"/><path id="XMLID_856_" class="st4" d="M135.5 1.6l.5.5.1-.1-.6-.4z"/><path id="XMLID_855_" class="st4" d="M149.4 6.5l.2-.5-10.8-2.9c0 .2-.1.4-.1.5l10.7 2.9z"/><polygon id="XMLID_854_" class="st4" points="204.8,21.7 205.1,21.2 185.2,15.8 184.9,16.3 	"/><polygon id="XMLID_853_" class="st4" points="175.5,13.1 173.7,12.6 173.4,13.1 176.1,13.8 	"/><polygon id="XMLID_852_" class="st4" points="184.4,16.1 184.7,15.6 176.4,13.4 177,14.1 	"/><polygon id="XMLID_851_" class="st4" points="210,23.1 210,22.5 205.6,21.3 205.4,21.8 	"/><polygon id="XMLID_850_" class="st4" points="172.8,12.9 173.1,12.5 150.1,6.2 149.9,6.7 	"/><path id="XMLID_849_" class="st4" d="M167.4 81.1L210 66.9v-.6l-42.8 14.3c0 .1.1.2.1.3 0 .1 0 .2.1.2z"/><polygon id="XMLID_848_" class="st4" points="144.3,21.6 144,22.4 152.5,45.7 152.9,45.1 	"/><polygon id="XMLID_847_" class="st4" points="144.1,20.9 140.7,11.7 140.1,11.6 143.8,21.6 	"/><path id="XMLID_846_" class="st4" d="M140.5 11.1L138 4.3c-.1.1-.2.1-.3.2h-.1l2.3 6.4.6.2z"/><path id="XMLID_845_" class="st4" d="M165 80c.1-.1.2-.1.3-.2h.1l-8-21.9-.4.5 8 21.6z"/><polygon id="XMLID_844_" class="st4" points="152.8,46.3 157,57.8 157.3,57.3 153.1,45.8 	"/><polygon id="XMLID_843_" class="st4" points="133.1,78 142.9,79.1 143.3,78.6 133.4,77.5 	"/><polygon id="XMLID_842_" class="st4" points="123.7,77 132.5,78 132.9,77.5 123.9,76.5 	"/><path id="XMLID_841_" class="st4" d="M158.8 80.3l-15-1.6-.3.5 20.8 2.3v-.1l-5.5-1.1z"/><path id="XMLID_840_" class="st4" d="M110.8 75.6l12.3 1.4.2-.5-12.5-1.4c.1.2.1.3 0 .5z"/><polygon id="XMLID_839_" class="st4" points="200.9,27.6 201.4,27.8 205.3,21.8 204.8,21.7 	"/><path id="XMLID_838_" class="st4" d="M166.5 79.9c.2.1.3.2.4.3l28.5-43.3-.4-.4-28.5 43.4z"/><polygon id="XMLID_837_" class="st4" points="195.3,36 195.7,36.5 201.1,28.2 200.6,28.1 	"/><polygon id="XMLID_836_" class="st4" points="210,13.8 205.1,21.2 205.7,21.3 210,14.8 	"/><polygon id="XMLID_835_" class="st4" points="204.8,21.7 205.3,21.8 205.6,21.3 205.1,21.2 	"/><polygon id="XMLID_834_" class="st4" points="134.8,75.3 134.5,75.8 144,77.5 144.3,77.1 	"/><polygon id="XMLID_833_" class="st4" points="124.8,74 134,75.7 134.3,75.2 125,73.5 	"/><polygon id="XMLID_832_" class="st4" points="36.9,57.5 70.3,63.8 69.9,63.1 36.4,56.9 36.2,57.3 	"/><path id="XMLID_831_" class="st4" d="M164.4 80.8l-19.5-3.7-.3.5 14.3 2.7 5.5.6c-.1 0-.1 0 0-.1z"/><path id="XMLID_830_" class="st4" d="M28 55.4l7.6 1.8.2-.5-7.8-1.3c0-.1 0-.1 0 0z"/><polygon id="XMLID_829_" class="st4" points="105.5,70.3 105.4,69.8 90.3,66.9 90.5,67.5 	"/><polygon id="XMLID_828_" class="st4" points="89.9,67.4 89.7,66.8 70.6,63.3 71,63.9 	"/><polygon id="XMLID_827_" class="st4" points="110.6,71.3 110.8,70.8 106.7,70 107,70.6 	"/><polygon id="XMLID_826_" class="st4" points="106,69.9 105.9,69.9 106,70.4 106.4,70.5 	"/><polygon id="XMLID_825_" class="st4" points="124.5,73.4 111.3,70.9 111.1,71.4 124.3,73.9 	"/><polygon id="XMLID_824_" class="st4" points="36.2,57.4 36.9,57.5 36.2,57.3 	"/><path id="XMLID_823_" class="st4" d="M28 55.4c0 .2 0 .3-.1.5l7.7 1.4v-.1L28 55.4z"/><polygon id="XMLID_822_" class="st4" points="106.4,70.5 107,70.6 106.7,70 106,69.9 	"/><polygon id="XMLID_821_" class="st4" points="111.1,71.4 111.3,70.9 110.8,70.8 110.6,71.3 	"/><path id="XMLID_820_" class="st4" d="M158.8 80.3l5.5 1c0-.1 0-.3.1-.4l-5.6-.6z"/><path id="XMLID_819_" class="st4" d="M137.5 4.5l-.3-.8-.3.8c.2.1.4.1.6 0z"/><path id="XMLID_818_" class="st4" d="M138.6 2.2c-.3-.6-.9-.9-1.5-.9l.3 1.3 1.2-.4z"/><path id="XMLID_817_" class="st4" d="M136.4 4.3l.3-.8-.7.4.4.4z"/><path id="XMLID_816_" class="st4" d="M135.8 2.4c-.1.3-.1.6 0 .9l.9-.4-.9-.5z"/><path id="XMLID_815_" class="st4" d="M138.6 3.6l-1-.3.4 1c.3-.1.5-.4.6-.7z"/><path id="XMLID_814_" class="st4" d="M138.8 3.1v-.4l-.6.2.6.2z"/><path id="XMLID_813_" class="st4" d="M136.6 1.5c-.1.1-.2.1-.3.2l.5.4-.2-.6z"/><path id="XMLID_812_" class="st4" d="M136.9 4.5l.3-.8-.1-.4-.3.2-.3.8c.1.1.3.2.4.2z"/><path id="XMLID_811_" class="st4" d="M137.3 2.7h.1l-.3-1.3c-.1 0-.2 0-.3.1-.1 0-.1.1-.2.1l.2.6.5.5z"/><path id="XMLID_810_" class="st4" d="M137.5 2.7l.7.2.6-.2v-.2c0-.1-.1-.2-.1-.3l-1.2.4v.1z"/><polygon id="XMLID_809_" class="st4" points="137.5,2.7 137.4,2.6 137.3,2.7 137.4,2.7 	"/><path id="XMLID_808_" class="st4" d="M136 3.9l.8-.4.2-.4-.2-.1-.9.4c-.1.2 0 .3.1.5z"/><polygon id="XMLID_807_" class="st4" points="137,3.1 136.9,3.1 136.8,3.5 137.1,3.3 	"/><path id="XMLID_806_" class="st4" d="M136.8 2.1l-.5-.4c-.1.1-.2.2-.3.2l.8.5v-.3z"/><polygon id="XMLID_805_" class="st4" points="137.3,2.7 136.8,2.1 136.8,2.4 137.3,2.7 	"/><polygon id="XMLID_804_" class="st4" points="137.3,2.7 137.4,2.7 137.3,2.7 137.3,2.7 	"/><path id="XMLID_803_" class="st4" d="M136.8 2.4l-.8-.5.8.5z"/><polygon id="XMLID_802_" class="st4" points="137.3,2.7 136.8,2.4 136.8,2.4 137.3,2.7 	"/><rect id="XMLID_801_" x="137.3" y="2.7" transform="matrix(0.8579 0.5138 -0.5138 0.8579 20.8861 -70.1646)" class="st4" width="0.1" height="0"/><path id="XMLID_800_" class="st4" d="M136.7 2.9l-.9-.5.9.5z"/><polygon id="XMLID_799_" class="st4" points="136.7,2.9 136.7,2.9 136.9,3.1 136.9,3.1 	"/><rect id="XMLID_798_" x="136.9" y="3.1" transform="matrix(0.8585 0.5128 -0.5128 0.8585 20.978 -69.8096)" class="st4" width="0.1" height="0"/><path id="XMLID_797_" class="st4" d="M136.8 2.9l-.8-.8c-.1.1-.1.2-.2.3l.9.5h.1z"/><polygon id="XMLID_796_" class="st4" points="136.9,3 136.8,2.9 136.7,2.9 136.9,3.1 	"/><polygon id="XMLID_795_" class="st4" points="136.9,3 136.9,3.1 137,3.1 137,3.1 	"/><rect id="XMLID_794_" x="137.2" y="3" class="st4" width="0" height="0"/><polygon id="XMLID_793_" class="st4" points="137.2,3 137.2,3 137.2,3 	"/><path id="XMLID_792_" class="st4" d="M136.9 2.8l-.1-.4-.8-.5-.1.1.8.8h.2z"/><polygon id="XMLID_791_" class="st4" points="137.2,3 137.2,2.7 137.3,2.7 136.8,2.4 136.9,2.8 137.1,2.7 	"/><polygon id="XMLID_790_" class="st4" points="137.2,3 137.3,2.7 137.3,2.7 137.3,2.7 137.2,2.7 137.2,3 137.2,3 	"/><polygon id="XMLID_789_" class="st4" points="137,2.9 136.9,2.8 136.8,2.9 136.9,3 	"/><polygon id="XMLID_788_" class="st4" points="137,3 137.2,3 137,3 137,2.9 136.9,3 137,3.1 	"/><polygon id="XMLID_787_" class="st4" points="137,2.9 137.2,3 137.2,3 137.1,2.7 136.9,2.8 137,2.9 	"/><polygon id="XMLID_786_" class="st4" points="137.2,3 137.2,3 137,2.9 137,2.9 137,3 	"/><rect id="XMLID_785_" x="137.2" y="3" class="st4" width="0" height="0"/><path id="XMLID_784_" class="st4" d="M137.6 3.1l.1.2 1 .3c.1-.2.1-.3.1-.5l-.6-.2-.6.2z"/><polygon id="XMLID_783_" class="st4" points="137.6,3.1 138.2,2.9 137.5,2.7 137.5,2.9 	"/><polygon id="XMLID_782_" class="st4" points="137.4,2.8 137.2,3 137.2,3 137.5,2.9 137.5,2.9 137.5,2.7 137.4,2.7 	"/><polygon id="XMLID_781_" class="st4" points="137.2,2.9 137.2,3 137.2,3 137.4,2.8 137.4,2.7 137.3,2.7 137.4,2.7 	"/><polygon id="XMLID_780_" class="st4" points="137.4,2.7 137.2,2.9 137.4,2.7 137.3,2.7 137.3,2.7 	"/><polygon id="XMLID_779_" class="st4" points="137.2,3 137.2,3 137.2,2.9 	"/><polygon id="XMLID_778_" class="st4" points="137.4,2.7 137.3,2.7 137.3,2.7 137.2,3 137.2,2.9 	"/><path id="XMLID_777_" class="st4" d="M137.2 3.7l.3.8h.1c.1 0 .2-.1.3-.2l-.4-1-.3-.1v.5z"/><polygon id="XMLID_776_" class="st4" points="137.3,3.2 137.1,3.3 137.2,3.7 137.4,3.3 	"/><polygon id="XMLID_775_" class="st4" points="137.2,3.2 137.2,3 137.2,3 137.1,3.2 137.1,3.2 137.1,3.2 137.1,3.2 137,3.1 
		137.1,3.3 137.3,3.2 	"/><polygon id="XMLID_774_" class="st4" points="137.2,3 137.2,3 137.2,3 	"/><polygon id="XMLID_773_" class="st4" points="137.1,3.2 137.1,3.2 137.1,3.2 	"/><polygon id="XMLID_772_" class="st4" points="137.2,3 137.1,3.2 137.1,3.2 137.2,3 137.2,3 	"/><polygon id="XMLID_771_" class="st4" points="137,3.1 137,3.1 137.1,3.2 	"/><polygon id="XMLID_770_" class="st4" points="137.2,3 137.2,3 137.2,3 	"/><polygon id="XMLID_769_" class="st4" points="137.1,3.2 137.2,3 137.1,3.2 137,3.1 137,3.1 137.1,3.2 	"/><polygon id="XMLID_768_" class="st4" points="137.2,3 137.2,3 137.2,3 	"/><polygon id="XMLID_767_" class="st4" points="137.2,3 137.2,3 137.2,3 	"/><polygon id="XMLID_766_" class="st4" points="137,3 137,3.1 137.1,3.2 137.2,3 137.2,3 	"/><polygon id="XMLID_765_" class="st4" points="137.4,3.3 137.7,3.3 137.6,3.1 137.4,3.2 	"/><polygon id="XMLID_764_" class="st4" points="137.3,3.2 137.4,3.3 137.4,3.2 137.3,3.2 	"/><polygon id="XMLID_763_" class="st4" points="137.5,2.9 137.2,3 137.2,3 137.2,3 137.2,3 137.5,3.1 137.4,3.2 137.6,3.1 137.5,2.9 
			"/><polygon id="XMLID_762_" class="st4" points="137.3,3.2 137.4,3.2 137.5,3.1 137.2,3 137.4,3.2 	"/><polygon id="XMLID_761_" class="st4" points="137.5,2.9 137.5,2.9 137.2,3 137.5,2.9 	"/><polygon id="XMLID_760_" class="st4" points="137.3,3.2 137.2,3 137.2,3.2 137.3,3.2 137.3,3.2 	"/><polygon id="XMLID_759_" class="st4" points="137.3,3.2 137.3,3.2 137.4,3.2 137.2,3 137.2,3 	"/><path id="XMLID_758_" class="st4" d="M108.3 74c-.2.2-.3.4-.4.6l.9.2-.5-.8z"/><path id="XMLID_757_" class="st4" d="M109.4 75.2l-.1.3-1.5-.4c0 .2 0 .4.1.5.2.9 1.1 1.3 1.9 1.1.5-.2.9-.6 1-1.1l-1.5-.2.1-.2z"/><path id="XMLID_756_" class="st4" d="M110.9 75.1c0-.1 0-.2-.1-.4-.1-.4-.4-.7-.7-.9l-.4 1.1 1.2.2z"/><path id="XMLID_755_" class="st4" d="M109.7 73.6c-.2-.1-.5-.1-.8 0 0 0-.1 0-.1.1l.5.9.4-1z"/><path id="XMLID_754_" class="st4" d="M109.4 75.2l-.2.1-.3-.5-.9-.2c-.1.2-.1.3-.1.5l1.5.4v-.3z"/><path id="XMLID_753_" class="st4" d="M109.2 74.9l.1-.3-.5-.9c-.2.1-.3.2-.4.3l.5.8.3.1z"/><polygon id="XMLID_752_" class="st4" points="109.2,74.9 108.8,74.8 109.1,75.3 109.4,75.2 109.1,75.1 	"/><path id="XMLID_751_" class="st4" d="M109.5 74.9h.2l.4-1.1c-.1-.1-.3-.2-.5-.2l-.4 1 .3.3z"/><polygon id="XMLID_750_" class="st4" points="109.5,74.9 109.3,74.6 109.2,74.9 109.4,74.9 	"/><polygon id="XMLID_749_" class="st4" points="109.4,74.9 109.2,74.9 109.1,75.1 109.4,75.2 109.4,74.9 	"/><path id="XMLID_748_" class="st4" d="M109.7 74.9l-.1.3-.2-.1v.3l1.5.2c0-.2.1-.4.1-.5l-1.3-.2z"/><polygon id="XMLID_747_" class="st4" points="109.6,75 109.4,75.2 109.6,75.3 109.7,74.9 109.5,74.9 	"/><polygon id="XMLID_746_" class="st4" points="109.5,74.9 109.4,74.9 109.4,74.9 109.4,75.2 109.6,75 	"/><polygon id="XMLID_745_" class="st4" points="109.4,74.9 109.4,74.9 109.4,75.2 109.4,74.9 	"/><path id="XMLID_744_" class="st4" d="M25.1 55.9c.3.7 1.1 1.2 1.9.9.5-.1.8-.5 1-.9l-1.4-.3-1.5.3z"/><path id="XMLID_743_" class="st4" d="M27.8 54.4c-.2-.3-.5-.6-.9-.7l-.1 1.1 1-.4z"/><path id="XMLID_742_" class="st4" d="M28 54.9l-.6.3.7.1c-.1-.1-.1-.3-.1-.4z"/><path id="XMLID_741_" class="st4" d="M26 53.8c-.1 0-.2.1-.3.2l.4.5-.1-.7z"/><path id="XMLID_740_" class="st4" d="M25 55.4l1.1-.3-.7-.9c-.3.4-.5.8-.4 1.2z"/><path id="XMLID_739_" class="st4" d="M26.3 54.6l.1-.9c-.1 0-.2 0-.3.1l.1.6.1.2z"/><path id="XMLID_738_" class="st4" d="M26.8 54.9l.1-1.1h-.3l.2 1.1z"/><path id="XMLID_737_" class="st4" d="M26.6 55l.1-.1-.2-1.2h-.2l-.1.9.4.4z"/><path id="XMLID_736_" class="st4" d="M26 55.1h.2l-.1-.7-.4-.5c-.1.1-.3.2-.4.3l.7.9z"/><polygon id="XMLID_735_" class="st4" points="26.3,54.6 26.1,54.4 26.2,55.1 26.3,55.1 	"/><polygon id="XMLID_734_" class="st4" points="26.3,55.1 26.3,54.6 26.3,55.1 	"/><polygon id="XMLID_733_" class="st4" points="26.4,55 26.6,55 26.3,54.6 26.3,55.1 	"/><path id="XMLID_732_" class="st4" d="M26.4 55.5l.1-.3-.2.2-.3-.3-1 .3c0 .1 0 .2.1.4 0 .1 0 .1.1.2l1.2-.5z"/><polygon id="XMLID_731_" class="st4" points="26.2,55.3 26.2,55.1 26,55.1 26.3,55.5 26.5,55.3 26.5,55.3 	"/><polygon id="XMLID_730_" class="st4" points="26.5,55.3 26.5,55.3 26.2,55.3 26.3,55.1 26.2,55.1 26.2,55.3 	"/><polygon id="XMLID_729_" class="st4" points="26.3,55.1 26.2,55.3 26.3,55.1 	"/><polygon id="XMLID_728_" class="st4" points="26.4,55 26.3,55.1 26.2,55.3 26.5,55.3 26.4,55 	"/><path id="XMLID_727_" class="st4" d="M26.5 55.6l1.4.3v-.1l-1.4-.2z"/><polygon id="XMLID_726_" class="st4" points="26.5,55.3 26.5,55.3 26.5,55.3 26.4,55.5 26.5,55.6 26.5,55.6 26.5,55.5 	"/><rect id="XMLID_725_" x="26.5" y="55.3" class="st4" width="0" height="0"/><polygon id="XMLID_724_" class="st4" points="26.5,55.3 26.5,55.3 26.5,55.3 	"/><path id="XMLID_723_" class="st4" d="M26.8 55.1l.6.1.6-.3c0-.2-.1-.3-.2-.4l-1 .5v.1z"/><polygon id="XMLID_722_" class="st4" points="26.8,55.1 26.8,54.9 26.7,54.9 26.7,55.1 	"/><polygon id="XMLID_721_" class="st4" points="26.7,55.1 26.7,54.9 26.6,55 26.6,55 	"/><polygon id="XMLID_720_" class="st4" points="26.4,55 26.5,55.3 26.5,55.3 26.5,55 26.6,55 26.6,55 26.4,55 	"/><polygon id="XMLID_719_" class="st4" points="26.4,55 26.4,55 26.4,55 26.5,55.3 26.5,55.3 	"/><polygon id="XMLID_718_" class="st4" points="26.5,55.3 26.5,55.3 26.5,55.3 	"/><rect id="XMLID_717_" x="26.5" y="55.3" class="st4" width="0" height="0"/><rect id="XMLID_716_" x="26.5" y="55.3" class="st4" width="0" height="0"/><polygon id="XMLID_715_" class="st4" points="26.5,55.3 26.5,55.3 26.5,55.3 	"/><rect id="XMLID_714_" x="26.5" y="55.3" class="st4" width="0" height="0"/><polygon id="XMLID_713_" class="st4" points="26.5,55.3 26.5,55.3 26.5,55.3 	"/><polygon id="XMLID_712_" class="st4" points="26.5,55.3 26.5,55.3 26.5,55.3 	"/><polygon id="XMLID_711_" class="st4" points="26.5,55.3 26.5,55.3 26.5,55.3 26.5,55.3 26.5,55.3 	"/><path id="XMLID_710_" class="st4" d="M28 55.4c0-.1 0-.1 0 0l-.7-.2h-.1l.8.2z"/><path id="XMLID_709_" class="st4" d="M27.3 55.2l-.7.3-.1-.2.1.3h-.1l1.4.3c.1-.1.1-.3.1-.5l-.7-.2z"/><polygon id="XMLID_708_" class="st4" points="26.5,55.3 26.5,55.3 26.5,55.5 26.5,55.6 26.6,55.5 	"/><polygon id="XMLID_707_" class="st4" points="27.3,55.2 27.4,55.2 26.8,55.1 26.8,55.1 	"/><rect id="XMLID_706_" x="26.7" y="55.1" transform="matrix(-0.9732 -0.2298 0.2298 -0.9732 40.1258 114.7949)" class="st4" width="0" height="0"/><polygon id="XMLID_705_" class="st4" points="26.7,55.1 26.7,55.1 26.6,55 26.6,55 	"/><polygon id="XMLID_704_" class="st4" points="26.6,55 26.6,55 26.5,55 26.5,55.3 26.6,55 	"/><polygon id="XMLID_703_" class="st4" points="26.8,55.3 26.5,55.3 26.5,55.3 26.6,55.5 27.3,55.2 26.8,55.1 	"/><polygon id="XMLID_702_" class="st4" points="26.5,55.3 26.5,55.3 26.8,55.3 26.8,55.1 26.7,55.1 26.8,55.2 	"/><polygon id="XMLID_701_" class="st4" points="26.7,55.1 26.5,55.3 26.5,55.3 26.8,55.2 26.7,55.1 26.6,55 	"/><polygon id="XMLID_700_" class="st4" points="26.7,55.1 26.6,55 26.6,55 26.5,55.3 26.5,55.3 	"/><rect id="XMLID_699_" x="26.5" y="55.3" class="st4" width="0" height="0"/><rect id="XMLID_698_" x="26.5" y="55.3" class="st4" width="0" height="0"/><polygon id="XMLID_697_" class="st4" points="26.5,55.3 26.5,55.3 26.5,55.3 	"/><path id="XMLID_696_" class="st4" d="M165.8 81h.2v.3l-.1.3-1.6-.2v.4c.2.9 1.1 1.3 1.9 1.1.7-.2 1.2-1 1.1-1.8l-1.4.3-.1-.4z"/><path id="XMLID_695_" class="st4" d="M167.2 80.6c-.1-.2-.2-.3-.3-.4l-.4.7.7-.3z"/><path id="XMLID_694_" class="st4" d="M164.4 80.8l1 .2-.4-1c-.3.2-.5.5-.6.8z"/><path id="XMLID_693_" class="st4" d="M165.5 79.8l.4 1 .6-.9c-.3-.1-.7-.2-1-.1z"/><path id="XMLID_692_" class="st4" d="M166 81.5l-.2-.2.1.3 1.4-.5v-.2c0-.1-.1-.2-.1-.3l-.7.2-.5.7z"/><path id="XMLID_691_" class="st4" d="M165.4 79.8c-.1 0-.2.1-.3.2l.4 1 .3.1.2-.3-.4-1h-.2z"/><polygon id="XMLID_690_" class="st4" points="165.8,81.4 165.8,81.4 165.8,81.4 	"/><path id="XMLID_689_" class="st4" d="M165.8 81.4v.3l-1.5-.3v.1l1.5.2v-.3z"/><polygon id="XMLID_688_" class="st4" points="165.8,81.4 165.8,81.4 165.8,81.4 	"/><path id="XMLID_687_" class="st4" d="M165.9 80.8l.1.2.5-.2.4-.7c-.1-.1-.3-.2-.4-.3l-.6 1z"/><polygon id="XMLID_686_" class="st4" points="165.8,81.4 165.8,81.4 166,81.5 166.4,80.9 166,81 166,81.3 	"/><polygon id="XMLID_685_" class="st4" points="165.8,81.1 166,81 165.9,80.8 165.7,81.1 	"/><rect id="XMLID_684_" x="165.8" y="81.4" class="st4" width="0" height="0"/><polygon id="XMLID_683_" class="st4" points="165.9,81.1 165.8,81.4 165.8,81.4 166,81.3 166,81 165.8,81.1 	"/><path id="XMLID_682_" class="st4" d="M164.3 80.9l1.1.1-1-.2-.1.1z"/><polygon id="XMLID_681_" class="st4" points="165.8,81.4 165.8,81.4 165.8,81.4 	"/><polygon id="XMLID_680_" class="st4" points="165.8,81.4 165.8,81.4 165.8,81.4 	"/><polygon id="XMLID_679_" class="st4" points="165.7,81.1 165.7,81.1 165.4,81 165.4,81 	"/><path id="XMLID_678_" class="st4" d="M165.6 81.5l-.1-.4-1.1-.1c0 .1-.1.3-.1.4l1.5.3v-.3l-.2.1z"/><polygon id="XMLID_677_" class="st4" points="165.7,81.1 165.4,81 165.6,81.5 165.8,81.4 165.8,81.4 165.6,81.2 	"/><polygon id="XMLID_676_" class="st4" points="165.8,81.4 165.8,81.4 165.8,81.4 	"/><polygon id="XMLID_675_" class="st4" points="165.8,81.1 165.8,81.1 165.7,81.1 165.7,81.1 	"/><polygon id="XMLID_674_" class="st4" points="165.8,81.1 165.8,81.4 165.8,81.4 165.9,81.1 165.8,81.1 165.8,81.1 	"/><polygon id="XMLID_673_" class="st4" points="165.7,81.1 165.8,81.1 165.7,81.1 165.6,81.2 165.8,81.4 165.8,81.4 	"/><polygon id="XMLID_672_" class="st4" points="165.8,81.4 165.8,81.1 165.8,81.1 165.7,81.1 	"/><polygon id="XMLID_671_" class="st4" points="0,15.6 15.2,0 14.5,0 0,14.8 	"/><polygon id="XMLID_670_" class="st4" points="181.9,19.9 177,14.1 176.1,13.8 181.6,20.4 	"/><polygon id="XMLID_669_" class="st4" points="175.5,13.1 176.4,13.4 174.6,11.1 174.3,11.6 	"/><polygon id="XMLID_668_" class="st4" points="184.3,23.6 195,36.5 195.3,36 185.2,23.9 	"/><polygon id="XMLID_667_" class="st4" points="210,54.4 210,53.5 195.7,36.5 195.4,36.9 	"/><polygon id="XMLID_666_" class="st4" points="174.2,10.5 165.7,0 165,0 173.9,10.8 	"/><polygon id="XMLID_665_" class="st4" points="183.7,22.9 184.6,23.2 182.2,20.4 181.9,20.8 	"/><polygon id="XMLID_664_" class="st4" points="176.1,13.8 177,14.1 176.4,13.4 175.5,13.1 	"/><polygon id="XMLID_663_" class="st4" points="195,36.5 195.4,36.9 195.7,36.5 195.3,36 	"/><path id="XMLID_662_" class="st4" d="M110.9 116.8c0 .1.1.3.1.4l8.1-1.9.4-.7-8.6 2.2c0-.1 0-.1 0 0z"/><polygon id="XMLID_661_" class="st4" points="210,93.6 210,93.1 120.3,114.4 119.9,115.1 	"/><polygon id="XMLID_660_" class="st4" points="29.3,5.1 29.3,4.2 26.6,0 25.9,0 29.2,4.9 	"/><polygon id="XMLID_659_" class="st4" points="70.6,63.3 55.6,41.8 55.1,42.1 69.9,63.1 	"/><path id="XMLID_658_" class="st4" d="M72.2 66.5l34.3 48.9c.1-.1.3-.2.4-.3L73 66.7l-.8-.2z"/><polygon id="XMLID_657_" class="st4" points="29.7,5.9 46.3,29.6 46.6,29 30,5.3 29.8,5.4 	"/><polygon id="XMLID_656_" class="st4" points="70.3,63.8 71.8,65.9 72.6,66.1 71,63.9 	"/><polygon id="XMLID_655_" class="st4" points="54.8,41.6 55.3,41.4 46.9,29.5 46.7,30.1 	"/><rect id="XMLID_654_" x="29.3" y="4.4" class="st4" width="0" height="0.6"/><rect id="XMLID_653_" x="29.5" y="5.7" transform="matrix(-6.058189e-02 0.9982 -0.9982 -6.058189e-02 37.2426 -23.6674)" class="st4" width="0.5" height="0"/><polygon id="XMLID_652_" class="st4" points="29.6,4.9 29.3,4.4 29.3,5.1 	"/><polygon id="XMLID_651_" class="st4" points="29.8,5.4 29.5,5.6 29.7,5.9 	"/><polygon id="XMLID_650_" class="st4" points="72.6,66.1 71.8,65.9 72.2,66.5 73,66.7 	"/><polygon id="XMLID_649_" class="st4" points="55.1,42.1 55.6,41.8 55.3,41.4 54.8,41.6 	"/><polygon id="XMLID_648_" class="st4" points="71,63.9 70.6,63.3 69.9,63.1 70.3,63.8 	"/><path id="XMLID_647_" class="st4" d="M18.5 103l-.2.5 87.3 13.9c0-.2 0-.4.1-.5L18.5 103z"/><polygon id="XMLID_646_" class="st4" points="5.1,101.4 17.8,103.4 18,102.9 4.7,100.8 	"/><polygon id="XMLID_645_" class="st4" points="0,100.6 4.4,101.3 4.1,100.7 0,100 	"/><polygon id="XMLID_644_" class="st4" points="150.1,5.9 152.2,0 151.6,0 149.6,5.6 	"/><polygon id="XMLID_643_" class="st4" points="144.3,21.6 147.3,13.5 146.8,13.4 144.1,20.9 	"/><path id="XMLID_642_" class="st4" d="M109.1 114.8c.2 0 .3.1.5.2l14.2-38-.5-.1-14.2 37.9z"/><polygon id="XMLID_641_" class="st4" points="124.5,73.4 125,73.5 144,22.4 143.8,21.6 	"/><polygon id="XMLID_640_" class="st4" points="147.5,13 149.9,6.7 149.4,6.5 147,12.9 	"/><polygon id="XMLID_639_" class="st4" points="123.4,76.4 123.9,76.5 124.8,74 124.3,73.9 	"/><polygon id="XMLID_638_" class="st4" points="149.9,6.7 150.1,6.2 149.6,6 149.4,6.5 	"/><polygon id="XMLID_637_" class="st4" points="144.1,20.9 143.8,21.6 144,22.4 144.3,21.6 	"/><polygon id="XMLID_636_" class="st4" points="123.2,77 123.7,77 123.9,76.5 123.4,76.4 	"/><polygon id="XMLID_635_" class="st4" points="124.3,73.9 124.8,74 125,73.5 124.5,73.4 	"/><polygon id="XMLID_634_" class="st4" points="174.6,10.9 181.1,0 180.5,0 174.2,10.3 	"/><polygon id="XMLID_633_" class="st4" points="152.9,45.1 153.1,45.8 169.4,19.6 168.8,19.4 	"/><path id="XMLID_632_" class="st4" d="M109.6 115.1c.2.1.3.2.4.3L133.1 78l-.6-.1-22.9 37.2z"/><polygon id="XMLID_631_" class="st4" points="152.5,45.7 134.3,75.2 134.8,75.3 152.8,46.3 	"/><polygon id="XMLID_630_" class="st4" points="132.9,77.5 133.4,77.5 134.5,75.8 134,75.7 	"/><polygon id="XMLID_629_" class="st4" points="174.3,11.6 173.9,11.2 173.1,12.5 173.7,12.6 	"/><polygon id="XMLID_628_" class="st4" points="169.6,19.1 173.4,13.1 172.8,12.9 169.1,18.9 	"/><polygon id="XMLID_627_" class="st4" points="173.4,13.1 173.7,12.6 173.1,12.5 172.8,12.9 	"/><polygon id="XMLID_626_" class="st4" points="152.5,45.7 152.8,46.3 153.1,45.8 152.9,45.1 	"/><polygon id="XMLID_625_" class="st4" points="132.5,78 133.1,78 133.4,77.5 132.9,77.5 	"/><polygon id="XMLID_624_" class="st4" points="134.3,75.2 134,75.7 134.5,75.8 134.8,75.3 	"/><polygon id="XMLID_623_" class="st4" points="174.6,11.1 174.2,10.7 173.9,11.2 174.3,11.6 	"/><polygon id="XMLID_622_" class="st4" points="105.9,68.6 103.1,19.4 102.6,19.6 105.3,67.6 	"/><path id="XMLID_621_" class="st4" d="M107.9 114.8h.5l-2.2-40-.5-.1 2.2 40.1z"/><polygon id="XMLID_620_" class="st4" points="106.2,74.1 106,70.4 105.5,70.3 105.7,74 	"/><polygon id="XMLID_619_" class="st4" points="105.9,69.8 105.4,68.8 105.4,69.8 105.9,69.9 	"/><polygon id="XMLID_618_" class="st4" points="102.1,1.2 101.6,1.1 102.6,19 103.1,18.8 	"/><polygon id="XMLID_617_" class="st4" points="102.1,0.5 101.7,0.5 102.1,0.6 	"/><polygon id="XMLID_616_" class="st4" points="105.7,74 105.7,74.6 106.2,74.7 106.2,74.1 	"/><polygon id="XMLID_615_" class="st4" points="105.9,68.6 105.3,67.6 105.4,68.8 105.9,69.8 	"/><polygon id="XMLID_614_" class="st4" points="103.1,19.4 103.1,18.8 102.6,19 102.6,19.6 	"/><polygon id="XMLID_613_" class="st4" points="106,70.4 105.9,69.9 105.4,69.8 105.5,70.3 	"/><path id="XMLID_612_" class="st4" d="M107 115.1l.6.8-.3-1c-.2.1-.3.2-.3.2z"/><path id="XMLID_611_" class="st4" d="M105.7 117.4c0 .3 0 .6.1.9.4 1.5 1.9 2.3 3.3 1.9l-.9-2.4-2.5-.4z"/><path id="XMLID_610_" class="st4" d="M105.7 116.9l2 .3-1.2-1.7c-.3.3-.6.8-.8 1.4z"/><path id="XMLID_609_" class="st4" d="M110.9 116.7c-.2-.5-.5-1-.9-1.3l-1.1 1.8 2-.5z"/><path id="XMLID_608_" class="st4" d="M107.7 114.8l.3.8v-.8h-.3z"/><path id="XMLID_607_" class="st4" d="M108.5 116.3l.5-1.4c-.2-.1-.4-.1-.6-.1l.1 1.5z"/><path id="XMLID_606_" class="st4" d="M109.6 120c1-.5 1.6-1.7 1.4-2.8l-2.3.5.9 2.3z"/><path id="XMLID_605_" class="st4" d="M109.5 115.2l.1-.1-.1.1z"/><path id="XMLID_604_" class="st4" d="M108.7 117.5l.1.2 2.3-.5c0-.1 0-.3-.1-.4v-.1l-2 .5-.3.3z"/><path id="XMLID_603_" class="st4" d="M107.6 116l-.6-.8c-.2.1-.3.2-.4.3l1.2 1.7h.2l-.4-1.2z"/><path id="XMLID_602_" class="st4" d="M108.2 117.7l-.4-.5-2-.3c0 .2-.1.4-.1.5l2.6.4-.1-.1z"/><polygon id="XMLID_601_" class="st4" points="108.1,117.6 108.1,117.4 108,117.2 107.8,117.2 108.1,117.7 108.2,117.7 108.1,117.6 
			"/><path id="XMLID_600_" class="st4" d="M109.1 114.8l-.5 1.4v.4l.9-1.5.1-.1c-.2 0-.4-.1-.5-.2z"/><path id="XMLID_599_" class="st4" d="M109.5 115.2l-.7 2h.1l1.1-1.8c-.1-.1-.3-.2-.4-.3l-.1.1z"/><polygon id="XMLID_598_" class="st4" points="108.7,117.5 108.9,117.1 108.8,117.2 108.7,117.5 	"/><polygon id="XMLID_597_" class="st4" points="108.6,117.2 108.8,117.2 109.5,115.2 108.6,116.7 	"/><polygon id="XMLID_596_" class="st4" points="108.6,117.3 108.7,117.5 108.8,117.2 108.6,117.2 	"/><path id="XMLID_595_" class="st4" d="M107.9 114.8v.8l.4 1.1.2-.4-.1-1.5c-.1-.1-.3 0-.5 0z"/><polygon id="XMLID_594_" class="st4" points="108.1,117.6 108.1,117.6 108.1,117.4 	"/><polygon id="XMLID_593_" class="st4" points="108.4,116.9 108.6,116.7 108.5,116.3 108.4,116.7 	"/><polygon id="XMLID_592_" class="st4" points="108.6,117.2 108.6,117.2 108.6,116.7 108.4,116.9 	"/><polygon id="XMLID_591_" class="st4" points="108.6,117.2 108.6,117.3 108.6,117.2 	"/><path id="XMLID_590_" class="st4" d="M0 112.6v.6l10.5 2.5c0-.2.1-.4.1-.5L0 112.6z"/><polygon id="XMLID_589_" class="st4" points="7.8,107.1 8.5,107.3 5.1,101.4 4.4,101.3 	"/><polygon id="XMLID_588_" class="st4" points="4.1,100.7 4.7,100.8 0,92.5 0,93.6 	"/><path id="XMLID_587_" class="st4" d="M11.6 113.8c.1-.1.3-.2.4-.3l-3.3-5.7-.7-.1 3.6 6.1z"/><polygon id="XMLID_586_" class="st4" points="4.4,101.3 5.1,101.4 4.7,100.8 4.1,100.7 	"/><polygon id="XMLID_585_" class="st4" points="39.4,48.9 46.7,30.1 46.3,29.6 38.8,49.2 	"/><polygon id="XMLID_584_" class="st4" points="15.8,108.6 16.3,108.7 18.4,103.5 17.8,103.4 	"/><path id="XMLID_583_" class="st4" d="M14 113.4c.2.1.3.1.5.2l1.7-4.3-.5-.1-1.7 4.2z"/><polygon id="XMLID_582_" class="st4" points="35.5,57.7 18,102.9 18.5,103 36,57.8 	"/><polygon id="XMLID_581_" class="st4" points="35.8,56.8 36.4,56.9 39.2,49.6 38.5,49.9 	"/><polygon id="XMLID_580_" class="st4" points="46.9,29.3 58.1,0 57.6,0 46.6,28.6 	"/><polygon id="XMLID_579_" class="st4" points="35.6,57.3 35.5,57.7 36,57.8 36.2,57.4 	"/><polygon id="XMLID_578_" class="st4" points="39.2,49.6 39.4,48.9 38.8,49.2 38.5,49.9 	"/><polygon id="XMLID_577_" class="st4" points="35.7,57.2 36.2,57.3 36.4,56.9 35.8,56.8 	"/><polygon id="XMLID_576_" class="st4" points="35.7,57.2 35.6,57.3 36.2,57.4 36.2,57.3 	"/><polygon id="XMLID_575_" class="st4" points="46.7,30.1 46.9,29.5 46.6,29 46.3,29.6 	"/><polygon id="XMLID_574_" class="st4" points="18,102.9 17.8,103.4 18.4,103.5 18.5,103 	"/><polygon id="XMLID_573_" class="st4" points="29.2,5.7 29.3,5.3 29.2,5.1 20.1,9.4 20.1,10 	"/><polygon id="XMLID_572_" class="st4" points="19.7,10.2 19.6,9.7 0,18.9 0,19.5 	"/><polygon id="XMLID_571_" class="st4" points="29.8,5.1 30,5.1 40.2,0 38.9,0 29.8,4.6 	"/><polygon id="XMLID_570_" class="st4" points="20.1,10 20.1,9.4 19.6,9.7 19.7,10.2 	"/><rect id="XMLID_569_" x="29.7" y="5" transform="matrix(-6.033338e-02 0.9982 -0.9982 -6.033338e-02 36.5596 -24.4804)" class="st4" width="0.3" height="0"/><rect id="XMLID_568_" x="29.3" y="5.3" class="st4" width="0" height="0.4"/><polygon id="XMLID_567_" class="st4" points="29.5,5.6 29.3,5.3 29.2,5.7 	"/><polygon id="XMLID_566_" class="st4" points="29.8,4.8 29.6,4.9 29.8,5.1 	"/><polygon id="XMLID_565_" class="st4" points="30,5.3 29.8,5.1 29.8,5.4 	"/><polygon id="XMLID_564_" class="st4" points="29.3,5.1 29.2,5.1 29.3,5.3 	"/><rect id="XMLID_563_" x="29.8" y="5.1" class="st4" width="0" height="0.3"/><rect id="XMLID_562_" x="29.2" y="5.2" transform="matrix(-6.045299e-02 0.9982 -0.9982 -6.045299e-02 36.2084 -23.7323)" class="st4" width="0.2" height="0"/><polygon id="XMLID_561_" class="st4" points="29.3,5.3 29.5,5.6 29.8,5.4 29.8,5.1 29.6,4.9 29.3,5.1 	"/><polygon id="XMLID_560_" class="st4" points="146.8,13.4 147,12.9 140.5,11.1 140.7,11.7 	"/><polygon id="XMLID_559_" class="st4" points="169.4,19.6 180.2,22.5 180.5,22 169.6,19.1 	"/><polygon id="XMLID_558_" class="st4" points="210,30.6 210,30.1 201.4,27.8 201.1,28.2 	"/><polygon id="XMLID_557_" class="st4" points="168.8,19.4 169.1,18.9 147.5,13 147.3,13.5 	"/><polygon id="XMLID_556_" class="st4" points="181,22.2 180.7,22.7 184.3,23.6 183.7,22.9 	"/><polygon id="XMLID_555_" class="st4" points="101.6,0.5 99.7,0.5 101.6,1.1 	"/><polygon id="XMLID_554_" class="st4" points="185.2,23.9 200.6,28.1 200.9,27.6 184.6,23.2 	"/><polygon id="XMLID_553_" class="st4" points="134.5,9.5 127.9,7.7 127.1,8 134.3,10 	"/><polygon id="XMLID_552_" class="st4" points="127.1,7.5 102.1,0.6 102.1,1.2 126.3,7.8 	"/><polygon id="XMLID_551_" class="st4" points="139.9,11 135,9.6 134.8,10.1 140.1,11.6 	"/><polygon id="XMLID_550_" class="st4" points="135,9.6 134.5,9.5 134.3,10 134.8,10.1 	"/><polygon id="XMLID_549_" class="st4" points="127.1,8 127.9,7.7 127.1,7.5 126.3,7.8 	"/><polygon id="XMLID_548_" class="st4" points="140.1,11.6 140.7,11.7 140.5,11.1 139.9,11 	"/><polygon id="XMLID_547_" class="st4" points="200.6,28.1 201.1,28.2 201.4,27.8 200.9,27.6 	"/><polygon id="XMLID_546_" class="st4" points="184.3,23.6 185.2,23.9 184.6,23.2 183.7,22.9 	"/><polygon id="XMLID_545_" class="st4" points="147.3,13.5 147.5,13 147,12.9 146.8,13.4 	"/><polygon id="XMLID_544_" class="st4" points="169.4,19.6 169.6,19.1 169.1,18.9 168.8,19.4 	"/><polygon id="XMLID_543_" class="st4" points="102.1,1.2 102.1,0.6 101.7,0.5 101.6,0.5 101.6,1.1 	"/><polygon id="XMLID_542_" class="st4" points="101.6,0.5 101.6,0.5 101.7,0.5 	"/><polygon id="XMLID_541_" class="st4" points="117.6,125 210,94.3 210,93.7 115.9,125 	"/><polygon id="XMLID_540_" class="st4" points="90.3,66.9 77.4,31.5 76.9,31.8 89.7,66.8 	"/><path id="XMLID_539_" class="st4" d="M109.1 120.2l1.5 4.1c.1-.1.3-.1.4-.2h.1l-1.5-4.1c-.2.1-.3.2-.5.2z"/><path id="XMLID_538_" class="st4" d="M91.2 71.1l16 43.9c.1-.1.2-.1.4-.2h.1L91.8 71.2l-.6-.1z"/><polygon id="XMLID_537_" class="st4" points="91.6,70.6 90.5,67.5 89.9,67.4 91,70.5 	"/><polygon id="XMLID_536_" class="st4" points="77.2,30.8 66.1,0 65.5,0 76.7,30.9 	"/><polygon id="XMLID_535_" class="st4" points="91.6,70.6 91,70.5 91.2,71.1 91.8,71.2 	"/><polygon id="XMLID_534_" class="st4" points="77.4,31.5 77.2,31 76.7,31.3 76.9,31.8 	"/><polygon id="XMLID_533_" class="st4" points="90.5,67.5 90.3,66.9 89.7,66.8 89.9,67.4 	"/><path id="XMLID_532_" class="st4" d="M108 115.6l-.3-.8h-.1c-.1 0-.3.1-.4.2l.3 1 .5.7v-1.1z"/><path id="XMLID_531_" class="st4" d="M108.7 117.7l-.3.1-.1-.3v.3h-.1l.9 2.4c.2-.1.3-.1.5-.2l-.9-2.3z"/><polygon id="XMLID_530_" class="st4" points="108.6,117.7 108.3,117.5 108.4,117.8 108.7,117.7 108.7,117.5 	"/><polygon id="XMLID_529_" class="st4" points="108,116.6 107.6,116 108,117.2 108.1,117.2 	"/><polygon id="XMLID_528_" class="st4" points="108.2,117.8 108.3,117.8 108.3,117.5 108.2,117.7 	"/><polygon id="XMLID_527_" class="st4" points="108,117.2 108.1,117.4 108.1,117.2 	"/><polygon id="XMLID_526_" class="st4" points="108.1,117.6 108.2,117.7 108.3,117.5 108.3,117.5 	"/><polygon id="XMLID_525_" class="st4" points="108.3,117.5 108.3,117.5 108.3,117.5 	"/><polygon id="XMLID_524_" class="st4" points="108.7,117.5 108.7,117.5 108.6,117.6 108.3,117.5 108.6,117.7 	"/><polygon id="XMLID_523_" class="st4" points="108.7,117.5 108.6,117.3 108.6,117.5 108.3,117.5 108.3,117.5 108.3,117.5 
		108.3,117.5 108.6,117.6 	"/><polygon id="XMLID_522_" class="st4" points="108.3,117.5 108.3,117.5 108.3,117.5 	"/><polygon id="XMLID_521_" class="st4" points="108.3,117.5 108.3,117.5 108.3,117.5 	"/><polygon id="XMLID_520_" class="st4" points="108.4,116.7 108,115.6 108,116.6 108.3,117 	"/><polygon id="XMLID_519_" class="st4" points="108,116.6 108.1,117.2 108.2,117.2 108.3,117 	"/><polygon id="XMLID_518_" class="st4" points="108.2,117.2 108.1,117.2 108.1,117.4 108.1,117.6 108.3,117.5 108.1,117.4 	"/><polygon id="XMLID_517_" class="st4" points="108.3,117.1 108.4,116.9 108.4,116.7 108.3,117 	"/><polygon id="XMLID_516_" class="st4" points="108.3,117 108.2,117.2 108.2,117.2 108.3,117.1 	"/><polygon id="XMLID_515_" class="st4" points="108.2,117.2 108.2,117.2 108.1,117.4 108.3,117.5 108.3,117.5 108.1,117.4 	"/><polygon id="XMLID_514_" class="st4" points="108.3,117.1 108.5,117.2 108.6,117.2 108.4,116.9 	"/><polygon id="XMLID_513_" class="st4" points="108.5,117.2 108.6,117.4 108.3,117.5 108.6,117.5 108.6,117.3 108.6,117.2 	"/><polygon id="XMLID_512_" class="st4" points="108.2,117.2 108.3,117.3 108.5,117.2 108.3,117.1 	"/><polygon id="XMLID_511_" class="st4" points="108.5,117.2 108.3,117.3 108.4,117.3 108.3,117.5 108.3,117.5 108.6,117.4 	"/><polygon id="XMLID_510_" class="st4" points="108.3,117.3 108.2,117.2 108.1,117.4 108.3,117.5 108.3,117.5 108.3,117.3 	"/><polygon id="XMLID_509_" class="st4" points="108.3,117.3 108.3,117.3 108.3,117.5 108.3,117.5 108.4,117.3 	"/><path id="XMLID_508_" class="st4" d="M15.8 116.5l78.4 8.5h4.9l-83.3-9.1c.1.2.1.4 0 .6z"/><polygon id="XMLID_507_" class="st4" points="185.2,15.5 195.3,0 194.7,0 184.7,15.2 	"/><polygon id="XMLID_506_" class="st4" points="182.2,20.4 184.9,16.3 184.4,16.1 181.9,19.9 	"/><polygon id="XMLID_505_" class="st4" points="157,57.8 144.3,77.1 144.8,77.2 157.2,58.4 	"/><polygon id="XMLID_504_" class="st4" points="144,77.5 143.3,78.6 143.8,78.7 144.5,77.6 	"/><path id="XMLID_503_" class="st4" d="M113.1 124.4c.2.1.3.2.4.3l6.4-9.7-.7.2-6.1 9.2z"/><polygon id="XMLID_502_" class="st4" points="181,22.2 181.9,20.8 181.6,20.4 180.5,22 	"/><polygon id="XMLID_501_" class="st4" points="119.6,114.6 120.3,114.4 143.5,79.2 142.9,79.1 	"/><polygon id="XMLID_500_" class="st4" points="157.3,57.3 157.5,57.9 180.7,22.7 180.2,22.5 	"/><polygon id="XMLID_499_" class="st4" points="184.4,16.1 184.9,16.3 185.2,15.8 184.7,15.6 	"/><polygon id="XMLID_498_" class="st4" points="157,57.8 157.2,58.4 157.5,57.9 157.3,57.3 	"/><polygon id="XMLID_497_" class="st4" points="143.3,78.6 142.9,79.1 143.5,79.2 143.8,78.7 	"/><polygon id="XMLID_496_" class="st4" points="144,77.5 144.5,77.6 144.8,77.2 144.3,77.1 	"/><polygon id="XMLID_495_" class="st4" points="181.6,20.4 181.9,20.8 182.2,20.4 181.9,19.9 	"/><polygon id="XMLID_494_" class="st4" points="119.2,115.2 119.9,115.1 120.3,114.4 119.6,114.6 	"/><polygon id="XMLID_493_" class="st4" points="180.5,22 180.2,22.5 180.7,22.7 181,22.2 	"/><polygon id="XMLID_492_" class="st4" points="0,105.7 0,106.2 8.1,107.7 7.8,107.1 	"/><polygon id="XMLID_491_" class="st4" points="8.8,107.9 15.6,109.1 15.8,108.6 8.5,107.3 	"/><polygon id="XMLID_490_" class="st4" points="16.1,109.1 101.5,125 104.5,125 16.3,108.6 	"/><polygon id="XMLID_489_" class="st4" points="8.1,107.7 8.8,107.9 8.5,107.3 7.8,107.1 	"/><polygon id="XMLID_488_" class="st4" points="15.6,109.1 16.1,109.2 16.3,108.7 15.8,108.6 	"/><path id="XMLID_487_" class="st4" d="M10.7 115.2l2 .5-1.1-1.9c-.4.4-.8.8-.9 1.4z"/><path id="XMLID_486_" class="st4" d="M15.9 116.1c0-.3 0-.5-.1-.8-.2-.8-.7-1.4-1.3-1.7l-.9 2.3 2.3.2z"/><path id="XMLID_485_" class="st4" d="M12.4 113.4c-.1 0-.3.1-.4.2l1.1 1.9.8-2.1c-.4-.2-.9-.2-1.5 0z"/><path id="XMLID_484_" class="st4" d="M13.2 116.1l-.1.3-2.6-.6c0 .4 0 .8.1 1.2.4 1.5 1.9 2.3 3.3 1.9 1-.3 1.7-1.2 1.9-2.1l-2.7-.3.1-.4z"/><path id="XMLID_483_" class="st4" d="M13.2 116.1l-.2.1-.3-.5-2-.5c-.1.2-.1.3-.1.5l2.6.6v-.2z"/><path id="XMLID_482_" class="st4" d="M11.6 113.8l1.1 1.9.4.1.1-.3-1.1-1.9c-.2 0-.3.1-.5.2z"/><rect id="XMLID_481_" x="13.2" y="116.1" class="st4" width="0" height="0"/><polygon id="XMLID_480_" class="st4" points="13,116 13,115.8 12.7,115.7 13,116.2 13.2,116.1 13.2,116.1 	"/><path id="XMLID_479_" class="st4" d="M13.2 115.5l.2.4h.2l.9-2.3c-.2-.1-.3-.2-.5-.2l-.8 2.1z"/><polygon id="XMLID_478_" class="st4" points="13.2,116.1 13.2,116.1 13.2,116.1 	"/><polygon id="XMLID_477_" class="st4" points="13.2,115.8 13.4,115.8 13.2,115.5 13,115.8 	"/><polygon id="XMLID_476_" class="st4" points="13.2,116.1 13.2,116.1 13.2,115.8 13.2,115.8 13,115.8 13,116 	"/><path id="XMLID_475_" class="st4" d="M13.4 116.2l-.2-.1v.3l2.7.3c0-.2.1-.4.1-.5l-2.3-.3-.3.3z"/><polygon id="XMLID_474_" class="st4" points="13.2,116.1 13.2,116.1 13.2,116.1 	"/><polygon id="XMLID_473_" class="st4" points="13.2,116.1 13.4,116.2 13.6,115.8 13.4,115.8 13.4,115.9 	"/><polygon id="XMLID_472_" class="st4" points="13.3,115.8 13.2,116.1 13.2,116.1 13.2,116.1 13.4,115.9 13.4,115.8 13.2,115.8 	"/><polygon id="XMLID_471_" class="st4" points="13.2,116.1 13.3,115.8 13.2,115.8 13.2,115.8 	"/><path id="XMLID_470_" class="st4" d="M111.1 124.1l.4.9h1.1l.5-.7c-.6-.4-1.3-.4-2-.2z"/><path id="XMLID_469_" class="st4" d="M114 125.2c-.1-.2-.3-.4-.4-.5l-.3.5h.7z"/><path id="XMLID_468_" class="st4" d="M109.6 125.2h1.3l-.3-.9c-.4.3-.7.6-1 .9z"/><path id="XMLID_467_" class="st4" d="M111 124.2c-.2 0-.3.1-.4.2l.3.9h.6l-.5-1.1c.1 0 .1 0 0 0z"/><path id="XMLID_466_" class="st4" d="M112.6 125.2h.6l.3-.5c-.1-.1-.3-.2-.4-.3l-.5.8z"/><line id="XMLID_465_" class="st4" x1="0" y1="23" x2="0" y2="20"/><path id="XMLID_464_" class="st4" d="M0 24"/><line id="XMLID_463_" class="st4" x1="0" y1="20" x2="0" y2="19"/></g><g id="XMLID_80_"><polygon id="XMLID_461_" class="st2" points="37.1,91.8 37.1,91.8 127,35.4 127,35.4 127,35.4 127,35.4 	"/><polygon id="XMLID_460_" class="st2" points="37.1,92 37.1,92 127,35.6 	"/><polygon id="XMLID_459_" class="st2" points="23,44.4 11.5,55.3 24.6,52.8 	"/><polygon id="XMLID_458_" class="st2" points="5,36.6 8.5,55.1 9.1,55.8 9.7,55.7 22.3,43.6 	"/><polygon id="XMLID_457_" class="st2" points="0,34.6 0,44.2 7.3,53.5 3.9,36.2 	"/><polygon id="XMLID_456_" class="st2" points="25.5,52.6 38.6,50.1 23.9,44.2 	"/><polygon id="XMLID_455_" class="st2" points="24.2,43.2 40.4,49.8 41,49.7 41.2,48.8 37.7,30.3 	"/><polygon id="XMLID_454_" class="st2" points="0.5,13.1 14,0.2 13.5,0 0,0 0,10.6 	"/><polygon id="XMLID_453_" class="st2" points="31.9,0 16.3,0 33.2,6.8 	"/><path id="XMLID_452_" class="st2" d="M201.8 59.4l-18.7-18.7-.5.5-6.5 24.2c.1.2.1.5.2.7l25.5-6.7z"/><polygon id="XMLID_451_" class="st2" points="41.8,46.8 50.3,18.3 38.5,29.5 	"/><polygon id="XMLID_450_" class="st2" points="0,15.6 0,24.8 1.7,24.5 	"/><polygon id="XMLID_449_" class="st2" points="1.9,25.5 0,25.9 0,33.5 3.7,35 	"/><path id="XMLID_448_" class="st2" d="M201.2 60.4L176.5 67c.1.2.1.5.2.7l8.6 8.6 15.9-15.9z"/><path id="XMLID_447_" class="st2" d="M210 67.6l-7.2-7.2-6.8 25.5c.2.1.5.1.7.2l13.3-3.6V67.6z"/><path id="XMLID_446_" class="st2" d="M198.6 86.4c3.8.6 7.4.3 11.4-.7v-2.3l-11.4 3z"/><polygon id="XMLID_445_" class="st2" points="36.5,18.9 38.3,28.3 50.9,16.4 50.9,16.1 	"/><path id="XMLID_444_" class="st2" d="M201.8 61l-15.9 15.9 8.6 8.6c.2.1.5.1.7.2l6.6-24.7z"/><path id="XMLID_443_" class="st2" d="M183.7 79.1c2.6 2.6 5.7 4.5 8.9 5.8l-7.3-7.3-1.6 1.5z"/><path id="XMLID_442_" class="st2" d="M177.4 69.6c1.3 3.2 3.2 6.3 5.8 8.9l1.6-1.6-7.4-7.3z"/><polygon id="XMLID_441_" class="st2" points="36.3,17.9 50.7,15.1 50.6,14.9 34.5,8.4 	"/><polygon id="XMLID_440_" class="st2" points="34.2,7.2 49.3,13.3 38.8,0 32.9,0 	"/><polygon id="XMLID_439_" class="st2" points="123.2,92 109.3,109.8 114.9,125 121,125 	"/><polygon id="XMLID_438_" class="st2" points="108.1,111.2 108.2,110.7 82.7,119 92.7,125 113.6,125 108.4,110.9 	"/><path id="XMLID_437_" class="st2" d="M202.4 58.8l6.8-25.5c-.2-.1-.5-.1-.7-.2l-24.2 6.5c-.2.2-.4.3-.5.5l18.6 18.7z"/><polygon id="XMLID_436_" class="st2" points="99.2,86.2 80.4,117.7 81.4,118.2 107.9,109.6 	"/><path id="XMLID_435_" class="st2" d="M175.8 63.5l5.6-20.8c-4.8 6-6.7 13.6-5.6 20.8z"/><polygon id="XMLID_434_" class="st2" points="125.7,39.7 91.1,61.4 114.5,58.4 	"/><polygon id="XMLID_433_" class="st2" points="210,66.4 210,58 203.4,59.8 	"/><polygon id="XMLID_432_" class="st2" points="35.4,18.1 33.4,8 15.6,0.8 19.5,21.1 	"/><polygon id="XMLID_431_" class="st2" points="126.7,40.3 115.5,59 124,81.1 	"/><polygon id="XMLID_430_" class="st2" points="23.5,42.4 37.5,29.1 35.6,19.1 19.7,22.1 	"/><polygon id="XMLID_429_" class="st2" points="14.6,1 0.7,14.3 2.6,24.3 18.5,21.3 	"/><polygon id="XMLID_428_" class="st2" points="2.8,25.4 4.8,35.4 22.6,42.6 18.7,22.3 	"/><polygon id="XMLID_427_" class="st2" points="210,57.2 210,52.8 204,58.8 	"/><path id="XMLID_426_" class="st2" d="M202.6 32.4c-6 0-11.9 2-16.9 5.9l20.8-5.6c-1.2-.2-2.6-.3-3.9-.3z"/><polygon id="XMLID_425_" class="st2" points="100.3,84.4 123.6,86.8 123.8,83.9 114.7,60.3 	"/><polygon id="XMLID_424_" class="st2" points="81.7,67.2 41.9,92.2 72.5,88 	"/><polygon id="XMLID_423_" class="st2" points="40.3,93.6 77.1,115.7 72.4,89.2 	"/><polygon id="XMLID_422_" class="st2" points="98.3,84.4 85.2,65.1 83.5,66.1 73.4,87.9 	"/><polygon id="XMLID_421_" class="st2" points="210,51.6 210,33.6 203.4,58.2 	"/><polygon id="XMLID_420_" class="st2" points="73.5,89 78.5,116.5 79.4,117.1 98.2,85.6 	"/><polygon id="XMLID_419_" class="st2" points="113.7,59.7 88.7,62.9 86.2,64.5 99.3,83.8 	"/><polygon id="XMLID_418_" class="st2" points="108.8,108.5 123.4,89.9 123.5,88 100.2,85.5 	"/><path id="XMLID_417_" class="st5" d="M185.3 76.3l-8.6-8.6.6 1.8 7.3 7.3.7-.5z"/><path id="XMLID_416_" class="st5" d="M181.3 42.7l-5.6 20.8c.1.6.2 1.3.4 1.9l6.5-24.2c-.4.5-.8 1-1.3 1.5z"/><path id="XMLID_415_" class="st5" d="M210 82.5l-13.3 3.6c.6.1 1.3.3 1.9.4l11.4-3v-1z"/><path id="XMLID_414_" class="st5" d="M185.3 77.5l7.3 7.3c.6.2 1.2.5 1.8.6l-8.6-8.6-.5.7z"/><path id="XMLID_413_" class="st5" d="M206.6 32.7l-20.8 5.6c-.5.4-1 .8-1.5 1.3l24.2-6.5c-.6-.1-1.3-.3-1.9-.4z"/><path id="XMLID_412_" class="st5" d="M182.8 40.4l-.2.8c.2-.2.3-.4.5-.5l-.3-.3z"/><path id="XMLID_411_" class="st5" d="M209.3 32.9l-.8.2c.2.1.5.1.7.2l.1-.4z"/><path id="XMLID_410_" class="st5" d="M176.1 67.1l.6.6c-.1-.2-.1-.5-.2-.7l-.4.1z"/><path id="XMLID_409_" class="st5" d="M184.2 39.6l-.8.2.3.3c.2-.2.4-.3.5-.5z"/><path id="XMLID_408_" class="st5" d="M176.1 65.5l-.2.8.4-.1c-.1-.3-.1-.5-.2-.7z"/><path id="XMLID_407_" class="st5" d="M198.6 86.4l-1.6.4c4.3.9 9 .7 13-.4v-.7c-4 1-7.6 1.3-11.4.7z"/><path id="XMLID_406_" class="st5" d="M181.3 42.7l.4-1.6c-6 6.7-8.1 15.7-6.4 24l.4-1.6c-1-7.2.9-14.8 5.6-20.8z"/><path id="XMLID_405_" class="st5" d="M177.4 69.6l-1.2-1.2c1.3 3.9 3.4 7.5 6.4 10.6l.5-.5c-2.5-2.7-4.5-5.7-5.7-8.9z"/><path id="XMLID_404_" class="st5" d="M194.5 85.5l.6.6.1-.4c-.3-.1-.5-.2-.7-.2z"/><path id="XMLID_403_" class="st5" d="M202.6 32.4c1.3 0 2.6.1 4 .3l1.6-.4c-8.3-1.7-17.3.5-24 6.4l1.6-.4c4.9-3.9 10.8-5.9 16.8-5.9z"/><path id="XMLID_402_" class="st5" d="M183.7 79.1l-.5.5c3.1 3 6.7 5.1 10.6 6.4l-1.2-1.2c-3.2-1.3-6.2-3.2-8.9-5.7z"/><path id="XMLID_401_" class="st5" d="M195.9 86.3l.8-.2c-.2-.1-.5-.1-.7-.2l-.1.4z"/><path id="XMLID_400_" class="st5" d="M182 80.2c-11.4-11.4-11.4-29.8 0-41.2 7.6-7.6 18-10.1 28-7.6v-.7c-2-.6-4.9-.9-7.4-.9-8 0-15.5 3.1-21.1 8.7-5.6 5.6-8.7 13.1-8.7 21.1s3.1 15.5 8.7 21.1 13.1 8.7 21.1 8.7c2.5 0 5.4-.3 7.4-.9v-.7c-10 2.4-20.4-.1-28-7.6z"/><path id="XMLID_399_" class="st5" d="M182.6 41.2l.2-.8-.2-.2c-.3.3-.6.6-.8.9l-.4 1.6 1.2-1.5z"/><path id="XMLID_398_" class="st5" d="M183.4 39.8l.8-.2c.5-.4 1-.9 1.5-1.3l-1.6.4c-.3.3-.6.6-.9.8l.2.3z"/><path id="XMLID_397_" class="st5" d="M196.7 86.1l-.8.2-.1.3 1.2.3 1.6-.4c-.6-.2-1.2-.3-1.9-.4z"/><path id="XMLID_396_" class="st5" d="M175.9 66.3l.2-.8c-.1-.6-.3-1.3-.4-1.9l-.4 1.6.3 1.2.3-.1z"/><path id="XMLID_395_" class="st5" d="M176.7 67.7l-.6-.6-.3.1c.1.4.2.8.4 1.2l1.2 1.2c-.3-.7-.5-1.3-.7-1.9z"/><path id="XMLID_394_" class="st5" d="M208.5 33.1l.8-.2.1-.3-1.2-.3-1.6.4c.6.1 1.3.3 1.9.4z"/><path id="XMLID_393_" class="st5" d="M195.1 86.1l-.6-.6-1.8-.6 1.2 1.2c.4.1.8.3 1.2.4v-.4z"/><path id="XMLID_392_" class="st5" d="M182 39c-11.4 11.4-11.4 29.8 0 41.2 7.6 7.6 18 10.1 28 7.6v-1.3c-4 1.2-8.7 1.3-13 .4l-1.6.4c-.1 0-.3 0-.4-.1l-1.2-1.2c-3.9-1.3-7.5-3.4-10.6-6.4l-.5.5c-.2.2-.4.2-.6 0s-.2-.4 0-.6l.5-.5c-3-3.1-5.1-6.7-6.4-10.6l-1.2-1.2c-.1-.1-.1-.3-.1-.4l.4-1.6c-1.7-8.3.5-17.3 6.4-24l.4-1.4c-.1-.2-.1-.4 0-.6.2-.2.4-.2.6 0l1.4-.4c6.7-6 15.7-8.1 24-6.4l1.6-.4h.2v-.4c-9.9-2.7-20.3-.2-27.9 7.4z"/><path id="XMLID_391_" class="st5" d="M182.2 39.7l-.4 1.4c.3-.3.6-.6.8-.9l-.4-.5z"/><path id="XMLID_390_" class="st5" d="M209.5 32.2l.5.1v-.4h-.2l-1.6.4 1.2.3.1-.4z"/><path id="XMLID_389_" class="st5" d="M195.7 87l-.8-.2.1-.4c-.4-.1-.8-.2-1.2-.4l1.2 1.2c.1.1.3.1.4.1l1.6-.4-1.2-.3-.1.4z"/><path id="XMLID_388_" class="st5" d="M183.2 39.6c.3-.3.6-.6.9-.8l-1.4.4.5.4z"/><path id="XMLID_387_" class="st5" d="M175.4 67.3l-.2-.8.4-.1-.3-1.2-.4 1.6c0 .1 0 .3.1.4l1.2 1.2c-.1-.4-.3-.8-.4-1.2l-.4.1z"/><polygon id="XMLID_386_" class="st5" points="203.2,59.6 203.4,59.8 210,58 210,57.2 204,58.8 	"/><path id="XMLID_385_" class="st5" d="M201.8 61l-6.6 24.7c.3.1.5.2.8.2l6.8-25.5-.2-.2-.8.8z"/><path id="XMLID_384_" class="st5" d="M195.2 85.7l-.1.4.3.3.5-.1.1-.4c-.3-.1-.6-.2-.8-.2z"/><path id="XMLID_383_" class="st5" d="M195.1 86.1l-.1.3c.3.1.5.2.8.2l.1-.3-.5.1-.3-.3z"/><path id="XMLID_382_" class="st5" d="M194.9 86.8l.8.2.1-.4c-.3-.1-.5-.1-.8-.2l-.1.4z"/><path id="XMLID_381_" class="st5" d="M203.4 58.2l6.6-24.5v-.2c0-.1-.5-.1-.8-.2l-6.8 25.5.2.2.8-.8z"/><path id="XMLID_380_" class="st5" d="M201.8 59.4l-25.5 6.8c.1.3.1.5.2.8l24.7-6.6.8-.8-.2-.2z"/><path id="XMLID_379_" class="st5" d="M176.3 66.2l-.4.1-.1.5.3.3.4-.1c-.1-.3-.1-.5-.2-.8z"/><path id="XMLID_378_" class="st5" d="M210 33.5V33l-.2-.2-.5.1-.1.4c.3 0 .5.1.8.2z"/><path id="XMLID_377_" class="st5" d="M175.9 66.3l-.3.1c.1.3.1.5.2.8l.3-.1-.3-.3.1-.5z"/><path id="XMLID_376_" class="st5" d="M210 32.9v-.2c-.2-.1-.4-.1-.6-.2l-.1.3.5-.1.2.2z"/><path id="XMLID_375_" class="st5" d="M175.2 66.5l.2.8.4-.1c-.1-.3-.2-.5-.2-.8l-.4.1z"/><path id="XMLID_374_" class="st5" d="M202.4 58.8l-18.7-18.7-.3.3-.3.3 18.7 18.7.5-.1.1-.5z"/><polygon id="XMLID_373_" class="st5" points="203.4,59.8 203,59.9 202.8,60.4 210,67.6 210,66.4 	"/><path id="XMLID_372_" class="st5" d="M183.4 40.4l.3-.3-.3-.3-.5.1-.1.5.3.3.3-.3z"/><path id="XMLID_371_" class="st5" d="M183.4 39.8l-.2-.2-.3.3-.3.3.2.2.1-.5.5-.1z"/><path id="XMLID_370_" class="st5" d="M182.5 39.2l.2-.1c-.2-.1-.4-.1-.6 0-.2.2-.2.4 0 .6l.1-.2c.1-.2.2-.3.3-.3z"/><path id="XMLID_369_" class="st5" d="M182.6 40.2l.3-.3.3-.3-.5-.5-.2.1c-.1 0-.3.2-.3.3l-.1.2.5.5z"/><polygon id="XMLID_368_" class="st5" points="203.4,59.8 203.2,59.6 202.9,59.9 202.9,59.9 202.6,60.2 202.8,60.4 203,59.9 	"/><polygon id="XMLID_367_" class="st5" points="202.3,59.3 202.3,59.3 202.6,59 202.4,58.8 202.3,59.2 201.8,59.4 202,59.6 	"/><polygon id="XMLID_366_" class="st5" points="203.2,59 204,58.8 210,52.8 210,51.6 203.4,58.2 	"/><polygon id="XMLID_365_" class="st5" points="201.2,60.4 185.3,76.3 185.9,76.9 201.8,61 202,60.2 	"/><path id="XMLID_364_" class="st5" d="M184.7 76.9l-1.6 1.6.3.3.3.3 1.6-1.6-.6-.6z"/><rect id="XMLID_363_" x="184.9" y="76.5" transform="matrix(-0.7068 -0.7074 0.7074 -0.7068 261.8869 262.3033)" class="st5" width="0.8" height="0.8"/><path id="XMLID_362_" class="st5" d="M183.4 78.8l-.3-.3-.5.5.3.3.3.3.5-.5-.3-.3z"/><path id="XMLID_361_" class="st5" d="M182.6 79l-.5.5c-.2.2-.2.4 0 .6s.4.2.6 0l.5-.5-.3-.3-.3-.3z"/><polygon id="XMLID_360_" class="st5" points="202.5,60 202,60.2 201.8,61 202.6,60.2 	"/><polygon id="XMLID_359_" class="st5" points="203.2,59 203.1,59.4 203.2,59.6 204,58.8 	"/><polygon id="XMLID_358_" class="st5" points="202.1,59.7 202,59.6 201.2,60.4 202,60.2 	"/><polygon id="XMLID_357_" class="st5" points="203.2,59 203.4,58.2 202.6,59 202.7,59.1 	"/><polygon id="XMLID_356_" class="st5" points="203.1,59.4 203.2,59 202.7,59.1 	"/><polygon id="XMLID_355_" class="st5" points="202,60.2 202.5,60 202.1,59.7 	"/><path id="XMLID_354_" class="st5" d="M203 59.7c0 .1-.1.1-.1.2l.3-.3-.1-.1-.1.2z"/><path id="XMLID_353_" class="st5" d="M202.5 60l.1.1.3-.3c-.1.1-.1.1-.2.1l-.2.1z"/><path id="XMLID_352_" class="st5" d="M202.7 59.1l-.1-.1-.3.3c.1-.1.1-.1.2-.1l.2-.1z"/><path id="XMLID_351_" class="st5" d="M202.3 59.3l-.3.3.1.1.1-.2c0-.1.1-.2.1-.2z"/><path id="XMLID_350_" class="st5" d="M203.1 59.4l-.3-.3-.2.1c-.1 0-.1.1-.2.1-.1.1-.1.1-.1.2l-.1.2.3.3.2-.1c.1 0 .1-.1.2-.1.1-.1.1-.1.1-.2l.1-.2z"/><polygon id="XMLID_349_" class="st6" points="100.3,84.4 114.7,60.3 114.4,59.6 113.7,59.7 99.3,83.8 99.7,84.3 	"/><path id="XMLID_348_" class="st6" d="M109.2 109.8c.1.3-.1.6-.4.7l-.2.1-.3.3 5.2 14.1h1.3l-5.6-15.2z"/><path id="XMLID_347_" class="st6" d="M107.9 109.6l.5-.2.1-.6.2-.3-8.5-23-.9-.1c-.1 0-.2 0-.2-.1s-.1-.1-.2-.2l-.5-.8-24.9 3.5-.1.3c.1.1.1.2.1.3l.1.6 24.7-3.4L79.5 117l1 .6 18.8-31.4 8.6 23.4z"/><path id="XMLID_346_" class="st6" d="M114.5 58.4h.3c.3 0 .5.1.6.4l.1.3 11.2-18.7.1-1.3-1.1.7-11.2 18.6z"/><path id="XMLID_345_" class="st6" d="M72.3 88.7h-.1l.1-.3c0-.1.1-.2.1-.3l.1-.2-30.6 4.2-1.9 1.2.3.2 32.1-4.4-.1-.4z"/><polygon id="XMLID_344_" class="st6" points="123.8,83.9 124,81.1 115.5,59 114.7,60.3 	"/><polygon id="XMLID_343_" class="st6" points="114.5,58.4 91.1,61.4 88.7,62.9 113.7,59.7 	"/><polygon id="XMLID_342_" class="st6" points="100,84.9 100.2,85.5 123.5,88 123.6,86.8 100.3,84.4 	"/><polygon id="XMLID_341_" class="st6" points="99,84.3 99.3,83.8 86.2,64.5 85.2,65.1 98.3,84.4 	"/><path id="XMLID_340_" class="st6" d="M114.4 59.6l.3.7.8-1.3-.1-.3c-.1-.3-.4-.4-.6-.4h-.3l-.8 1.3h.7z"/><path id="XMLID_339_" class="st6" d="M100.3 84.4l-.6-.1-.4-.5-.3.5-.7.1.5.8c0 .1.1.1.2.2s.2.1.2.1l.9.1-.2-.6.4-.6z"/><polygon id="XMLID_338_" class="st6" points="73.4,87.9 83.5,66.1 81.7,67.2 72.5,88 	"/><path id="XMLID_337_" class="st6" d="M72.4 88.2c.1-.1.2-.2.3-.2.2 0 .4.1.6.2l.1-.3-1 .1v.2z"/><path id="XMLID_336_" class="st6" d="M72.3 88.4l-.1.3h.1v-.3z"/><polygon id="XMLID_335_" class="st6" points="109.3,109.8 123.2,92 123.4,89.9 108.8,108.5 	"/><polygon id="XMLID_334_" class="st6" points="108.2,110.7 108.1,111.2 108.4,110.9 108.3,110.7 	"/><path id="XMLID_333_" class="st6" d="M108.5 108.8l-.1.6h.1c.3-.1.6.1.7.4v.1l-.5-1.3-.2.2z"/><polygon id="XMLID_332_" class="st6" points="108.4,110.9 108.7,110.6 108.3,110.7 	"/><polygon id="XMLID_331_" class="st6" points="72.4,89.2 77.1,115.7 78.5,116.5 73.5,89 	"/><polygon id="XMLID_330_" class="st6" points="108.3,110.5 107.9,109.6 81.4,118.2 82.7,119 108.2,110.7 	"/><polygon id="XMLID_329_" class="st6" points="107.9,109.6 108.3,110.5 108.4,109.4 	"/><path id="XMLID_328_" class="st6" d="M72.3 88.7l.1.5 1.2-.2-.1-.6c0-.1-.1-.2-.1-.3l-.2.3-.9.3z"/><path id="XMLID_327_" class="st6" d="M108.9 110.5c.3-.1.4-.4.4-.7l-.6.7h.2z"/><path id="XMLID_326_" class="st6" d="M72.4 88.2c-.1.1-.1.2-.1.3v.3l.9-.2.2-.3c-.2-.3-.4-.4-.7-.3-.1 0-.2.1-.3.2z"/><polygon id="XMLID_325_" class="st6" points="108.3,110.5 108.2,110.7 108.3,110.7 	"/><path id="XMLID_324_" class="st6" d="M108.5 109.4l-.2 1.1.1.2.3-.1.6-.7v-.1c-.2-.3-.5-.5-.8-.4z"/><path id="XMLID_323_" class="st6" d="M130.9 34c0-.1-.1-.1-.1-.2 0 .1 0 .2.1.2z"/><path id="XMLID_322_" class="st6" d="M34.2 94.6s0-.1-.1-.1c.1 0 .1 0 .1.1z"/><path id="XMLID_321_" class="st6" d="M33.9 93c0 .1 0 .1 0 0v-.1c.1 0 0 .1 0 .1z"/><polygon id="XMLID_320_" class="st6" points="88.7,62.9 85.9,63.2 85.5,63.5 86.2,64.5 	"/><path id="XMLID_319_" class="st6" d="M37 91.7l90-56.3V35c0-.5.3-1.1.7-1.4.1-.1.2-.2.3-.2L34.9 91.7h-.1c.2-.1.4-.2.7-.3.5-.1 1 0 1.5.3z"/><polygon id="XMLID_318_" class="st6" points="125.7,39.7 126.9,37.7 126.9,37.5 88.2,61.7 91.1,61.4 	"/><polygon id="XMLID_317_" class="st6" points="85.2,65.1 84.5,64.1 84.4,64.2 83.5,66.1 	"/><polygon id="XMLID_316_" class="st6" points="81.7,67.2 82.6,65.3 39,92.6 41.9,92.2 	"/><polygon id="XMLID_315_" class="st6" points="126.8,39 126.9,37.7 125.7,39.7 	"/><polygon id="XMLID_314_" class="st6" points="41.9,92.2 39,92.6 38.8,92.8 39.9,93.4 	"/><polygon id="XMLID_313_" class="st6" points="91.1,61.4 88.2,61.7 85.9,63.2 88.7,62.9 	"/><polygon id="XMLID_312_" class="st6" points="86.2,64.5 85.5,63.5 84.5,64.1 85.2,65.1 	"/><polygon id="XMLID_311_" class="st6" points="83.5,66.1 84.4,64.2 82.6,65.3 81.7,67.2 	"/><polygon id="XMLID_310_" class="st6" points="39,92.6 82.6,65.3 83,64.4 38.2,92.4 38.6,92.7 	"/><polygon id="XMLID_309_" class="st6" points="84.5,64 84.4,64.2 84.5,64.1 	"/><polygon id="XMLID_308_" class="st6" points="37.1,91.8 127,35.4 127,35.4 37.1,91.7 	"/><polygon id="XMLID_307_" class="st6" points="127,35.4 127,35.4 37.1,91.7 37.1,91.7 	"/><polygon id="XMLID_306_" class="st6" points="126.9,37.5 126.9,36.9 86.9,61.9 88.2,61.7 	"/><polygon id="XMLID_305_" class="st6" points="85.4,63.3 85.5,63.5 85.9,63.2 	"/><path id="XMLID_304_" class="st6" d="M83 64.4l.8-1.8c0-.1.1-.2.2-.2h.1c.1 0 .1-.1.2-.1L87 62l40-25.1.1-1.5-90 56.4 1.1.7L83 64.4z"/><polygon id="XMLID_303_" class="st6" points="38.6,92.7 38.8,92.8 39,92.6 	"/><polygon id="XMLID_302_" class="st6" points="84.5,64 84.5,64.1 85.5,63.5 85.4,63.3 85.9,63.2 88.2,61.7 86.9,61.9 84.8,63.2 	"/><polygon id="XMLID_301_" class="st6" points="83.8,62.6 83.8,62.6 83.8,62.6 	"/><path id="XMLID_300_" class="st6" d="M84.6 62.3c.3.1.4.5.3.8l-.1.2 2.1-1.3-2.7.3c.2-.1.3-.1.4 0z"/><polygon id="XMLID_299_" class="st6" points="84.4,64.2 84.5,64 84.2,63.6 83,64.4 82.6,65.3 	"/><path id="XMLID_298_" class="st6" d="M83.9 63.2c-.1-.2-.1-.4 0-.6l-.9 1.8 1.2-.7-.3-.5z"/><polygon id="XMLID_297_" class="st6" points="84.2,63.6 84.5,64 84.8,63.2 	"/><path id="XMLID_296_" class="st6" d="M83.9 63.2l.3.5.6-.4.1-.2c.1-.3 0-.6-.3-.8-.1-.1-.2-.1-.4 0-.1 0-.1 0-.2.1h-.1l-.2.2c0 .2.1.4.2.6z"/><polygon id="XMLID_295_" class="st6" points="123.4,89.9 124.7,88.2 124.7,88.1 123.5,88 	"/><polygon id="XMLID_294_" class="st6" points="123.6,86.8 124.8,86.9 124.8,86.5 123.8,83.9 	"/><path id="XMLID_293_" class="st6" d="M130.5 36.6l-.3.3-.4.2L124 125h1.2l5.8-89c-.2.2-.3.4-.5.6z"/><polygon id="XMLID_292_" class="st6" points="121,125 122.2,125 124.5,90.3 123.2,92 	"/><polygon id="XMLID_291_" class="st6" points="124,81.1 125,83.7 128,38.2 127.9,38.3 126.7,40.3 	"/><path id="XMLID_290_" class="st6" d="M129.2 33z"/><polygon id="XMLID_289_" class="st6" points="127.9,38.3 126.8,39 126.7,40.3 	"/><polygon id="XMLID_288_" class="st6" points="123.8,83.9 124.8,86.5 125,83.7 124,81.1 	"/><polygon id="XMLID_287_" class="st6" points="123.5,88 124.7,88.1 124.8,86.9 123.6,86.8 	"/><polygon id="XMLID_286_" class="st6" points="123.4,89.9 123.2,92 124.5,90.3 124.7,88.2 	"/><polygon id="XMLID_285_" class="st6" points="128,38.2 128,38 127.9,38.3 	"/><path id="XMLID_284_" class="st6" d="M127 35v.4l1.6-1h.1l.4-.2h.4s.1 0 .1.1c.1 0 .1.1.1.2 0 0 0 .1.1.1v.7l-.1 1.9.4-.2.3-.3c.2-.2.3-.5.4-.8v-.6c0 .1.1.2 0 .4 0 .1-.1.2-.1.3v.2c.1-.2.1-.3.2-.5v-.8c0-.1 0-.2-.1-.3v-.1c0-.1-.1-.2-.1-.2s0-.1-.1-.1c0-.1-.1-.1-.1-.2l-.1-.1-.2-.2-.1-.1c-.1 0-.1-.1-.2-.1s-.1-.1-.2-.1-.1 0-.2-.1c-.1 0-.1-.1-.2-.1h-.8c-.1 0-.2 0-.2.1h-.2c-.1 0-.1.1-.2.1s-.1.1-.2.1c-.1.1-.2.1-.3.2-.1.2-.3.7-.4 1.3z"/><path id="XMLID_283_" class="st6" d="M130.5 36.6c.2-.2.3-.3.4-.6v-.2c0 .3-.2.6-.4.8z"/><path id="XMLID_282_" class="st6" d="M130.5 36.6l-.3.3.3-.3z"/><path id="XMLID_281_" class="st6" d="M131 35.2v.6c0-.1.1-.2.1-.3 0-.1-.1-.2-.1-.3z"/><polygon id="XMLID_280_" class="st6" points="127,37.4 126.9,37.5 126.9,37.7 	"/><path id="XMLID_279_" class="st6" d="M128.9 34.3s0-.1 0 0c.1-.1.2-.1.2-.2l-.4.2h.2z"/><path id="XMLID_278_" class="st6" d="M129.9 34.3z"/><polygon id="XMLID_277_" class="st6" points="126.9,37.7 126.8,39 127.9,38.3 128,38 128.1,36.7 127,37.4 	"/><path id="XMLID_276_" class="st6" d="M129.6 34s.1 0 .1.1l-.1-.1z"/><path id="XMLID_275_" class="st6" d="M129.9 34.9v.2-.5c.1 0 .1.1 0 .3 0-.1 0 0 0 0z"/><path id="XMLID_274_" class="st6" d="M129.1 34.2h.4c.1 0 .1 0 .1.1l.1.1.1.1v.2s0 .1.1.1c0-.1.1-.2.1-.3v-.1c0-.1 0-.1-.1-.1v-.1c0-.1-.1-.1-.1-.2l-.1-.1h-.4c-.1 0-.1.1-.2.2s-.1.1 0 .1z"/><polygon id="XMLID_273_" class="st6" points="127,37.4 127.6,36.4 126.9,36.9 126.9,37.5 	"/><path id="XMLID_272_" class="st6" d="M128.5 34.4l.1-.1-1.6 1 1.5-.9z"/><path id="XMLID_271_" class="st6" d="M128.9 34.2s0 .1 0 0c0 .1 0 .1 0 0 0 .1 0 0 0 0z"/><path id="XMLID_270_" class="st6" d="M127.6 36.4l.6-.9v-.4c0-.2.1-.4.3-.6l-1.5.9-.1 1.5.7-.5z"/><path id="XMLID_269_" class="st6" d="M128.7 34.3c0 .1 0 0 0 0z"/><polygon id="XMLID_268_" class="st6" points="128.1,36.7 128.2,36.1 127.6,36.4 127,37.4 	"/><polygon id="XMLID_267_" class="st6" points="128.2,35.4 127.6,36.4 128.2,36.1 	"/><path id="XMLID_266_" class="st6" d="M129.1 34.2h-.1.1z"/><path id="XMLID_265_" class="st6" d="M129.8 34.6s.1.1 0 0c.1.1.1.1 0 0z"/><polygon id="XMLID_264_" class="st6" points="125,87 124.8,86.5 124.8,86.9 	"/><polygon id="XMLID_263_" class="st6" points="124.7,88.1 124.7,88.1 124.7,88.2 	"/><polygon id="XMLID_262_" class="st6" points="124,125 124,125 129.9,37.1 129.8,37.1 	"/><polygon id="XMLID_261_" class="st6" points="124.5,90.3 122.2,125 122.8,125 125.1,89.6 	"/><polygon id="XMLID_260_" class="st6" points="125,83.7 125.5,84.9 128.6,37.9 128,38.2 	"/><path id="XMLID_259_" class="st6" d="M125.5 84.9l1 2.5v.2l-.2.1c0 .1-.3.2-.3.2h.3l-1.1 1.5-2.3 35.5h1.2L130 37l-1.2.8-3.3 47.1z"/><polygon id="XMLID_258_" class="st6" points="125.1,89.6 122.8,125 125.1,89.6 	"/><polygon id="XMLID_257_" class="st6" points="122.8,125 125.1,89.5 125.1,89.6 	"/><polygon id="XMLID_256_" class="st6" points="124.8,86.5 125,87 124.8,86.9 124.7,88.1 124.7,88.1 125.3,87.4 125.5,84.9 125,83.7 
			"/><path id="XMLID_255_" class="st6" d="M125.4 87.3c.2-.3.6-.3.8-.1.1.1.2.2.2.3l-1-2.5-.2 2.5.2-.2z"/><polygon id="XMLID_254_" class="st6" points="126.3,88 126.3,88 126.3,88 	"/><polygon id="XMLID_253_" class="st6" points="124.5,90.3 125,89.6 125,89.5 125,89.5 125.1,89.5 125.2,88.2 124.7,88.1 124.7,88.2 
			"/><polygon id="XMLID_252_" class="st6" points="125.1,89.6 125.1,89.5 125.1,89.6 	"/><polygon id="XMLID_251_" class="st6" points="125.1,89.5 125.1,89.5 125.1,89.5 125.1,89.5 125.1,89.5 	"/><polygon id="XMLID_250_" class="st6" points="125.1,89.5 125.1,89.5 125.1,89.6 125.1,89.5 125.1,89.5 	"/><path id="XMLID_249_" class="st6" d="M125.4 89.1l.7-1c-.1.1-.2.1-.3.1l-.6-.1-.1 1.3.3-.3z"/><polygon id="XMLID_248_" class="st6" points="126.1,88.2 126.1,88.2 125.4,89.1 	"/><polygon id="XMLID_247_" class="st6" points="125.1,89.5 125.4,89.1 125.1,89.5 	"/><path id="XMLID_246_" class="st6" d="M125.4 89.1l-.3.3v.1l1.2-1.5-.2.2-.7.9z"/><polygon id="XMLID_245_" class="st6" points="125.3,87.4 124.7,88.1 125.2,88.2 	"/><path id="XMLID_244_" class="st6" d="M125.4 87.3l-.1.1v.7l.6.1c.1 0 .2 0 .3-.1l.1-.1.1-.1h-.2c0-.1.2-.1.2-.2.1 0 .1 0 .1-.1v-.2c0-.1-.1-.2-.2-.3-.3-.1-.7-.1-.9.2z"/><path id="XMLID_243_" class="st6" d="M126.3 87.7c0 .1 0 .1 0 0 0 .1 0 .1 0 0z"/><path id="XMLID_242_" class="st6" d="M126.4 87.7s-.1 0-.1.1l.1-.1z"/><path id="XMLID_241_" class="st6" d="M126.2 88z"/><polygon id="XMLID_240_" class="st6" points="126.2,88.1 126.1,88.2 126.1,88.2 	"/><path id="XMLID_239_" class="st6" d="M126.2 88z"/><path id="XMLID_238_" class="st6" d="M126.3 87.7z"/><path id="XMLID_237_" class="st6" d="M126.2 87.8c-.1.1-.2.1-.2.2 0-.1.2-.1.2-.2z"/><path id="XMLID_236_" class="st6" d="M126.3 87.7c0 .1 0 .1 0 0-.1.1-.3.2-.3.3s.2 0 .2 0l-.1.1-.1.1c.1 0 .1-.1.2-.2s.1-.2.1-.2v-.1c.1 0 .1 0 0 0z"/><polygon id="XMLID_235_" class="st6" points="128.6,37.9 128.7,37 128,38 128,38.2 	"/><path id="XMLID_234_" class="st6" d="M130 35.3l-.1 1.8.1-1.9v-.1.2z"/><path id="XMLID_233_" class="st6" d="M129.9 34.9s0-.1 0 0c0-.1 0-.1 0 0z"/><path id="XMLID_232_" class="st6" d="M129.6 35.8l-1.5.9-.1 1.3.6-1-.1.9 1.2-.8.1-1.8c.1.2 0 .4-.2.5z"/><path id="XMLID_231_" class="st6" d="M130 35.1z"/><path id="XMLID_230_" class="st6" d="M129.9 34.8s0-.1-.1-.1l.1.1z"/><path id="XMLID_229_" class="st6" d="M129.2 34.2c-.1 0-.1 0 0 0-.1 0 0 0 0 0z"/><path id="XMLID_228_" class="st6" d="M128.2 35.4l.7-1.2c-.1 0-.1 0-.2.1h-.1s-.1 0-.1.1c-.2.1-.3.4-.3.6v.4z"/><path id="XMLID_227_" class="st6" d="M129.7 35.1l-1.6 1v.7l1.5-.9c.2-.1.3-.3.4-.5v-.5c-.1 0-.2.1-.3.2z"/><path id="XMLID_226_" class="st6" d="M128.9 34.3l-.7 1.2v.6l1.6-1c.1-.1.2-.1.2-.2v-.1s0-.1-.1-.1l-.1-.1-.1-.1s-.1 0-.1-.1h-.4c-.2-.2-.2-.2-.3-.1z"/><polygon id="XMLID_225_" class="st6" points="80.4,117.7 79.8,118.7 79.9,118.7 81.4,118.2 	"/><polygon id="XMLID_224_" class="st6" points="82.7,119 81.2,119.5 90.4,125 92.7,125 	"/><path id="XMLID_223_" class="st6" d="M86.1 125l-7.9-4.7-41.6-24.9c-.2.1-.4.1-.7.1-.4 0-.7-.1-1.1-.3-.1-.1-.3-.2-.4-.3.1.1.2.2.4.3L84.6 125h1.5z"/><polygon id="XMLID_222_" class="st6" points="78.5,116.5 78.8,118.1 78.8,118.1 79.4,117.1 	"/><path id="XMLID_221_" class="st6" d="M34.2 92.4c0 .1 0 .1 0 0 0 .1 0 0 0 0z"/><polygon id="XMLID_220_" class="st6" points="40.3,93.6 39.4,93.8 38.8,94.2 77.4,117.3 77.1,115.7 	"/><path id="XMLID_219_" class="st6" d="M78 120.1c0-.1-.1-.1-.1-.2l-.1-.3-40.7-24.4H37c-.1.1-.3.1-.4.2l41.6 24.8c-.1 0-.2 0-.2-.1z"/><path id="XMLID_218_" class="st6" d="M79 120.2l-.3.1h-.3c-.1 0-.2 0-.2-.1l7.9 4.7h.9l-8-4.7z"/><rect id="XMLID_217_" x="79" y="117.3" transform="matrix(0.5132 -0.8582 0.8582 0.5132 -62.406 125.7115)" class="st6" width="1.2" height="1.2"/><polygon id="XMLID_216_" class="st6" points="39.4,93.8 40.3,93.6 39.9,93.4 	"/><polygon id="XMLID_215_" class="st6" points="77.1,115.7 77.4,117.3 78.8,118.1 78.5,116.5 	"/><polygon id="XMLID_214_" class="st6" points="81.4,118.2 79.9,118.7 81.2,119.5 82.7,119 	"/><path id="XMLID_213_" class="st6" d="M77.9 119.9v-.3l-.1-.1.1.4z"/><path id="XMLID_212_" class="st6" d="M78.6 120.3c.1 0 .1 0 0 0l.3-.1-.1-.1c0 .2-.1.2-.2.2z"/><path id="XMLID_211_" class="st6" d="M78.5 120.4h.2c.1 0 .2-.1.3-.2l-1-.6v.3c0 .1 0 .1.1.2v.1c0 .1.1.1.2.2 0-.1 0 0 .2 0-.1 0 0 0 0 0z"/><path id="XMLID_210_" class="st6" d="M34.9 95.3c.3.2.7.3 1.1.3.2 0 .4 0 .7-.1l-1.9-1.2c-.1 0-.1-.1-.2-.2 0-.1-.1-.1-.1-.2v-.4c0-.1.1-.1.2-.2l.7-.5.1-.1 1.6-1H37c-.5-.3-1-.4-1.6-.2-.2.1-.5.2-.7.3-.1 0-.1.1-.2.1l-.1.1-.1.1c0 .1-.1.1-.1.2l-.1.1c0 .1-.1.1-.1.2s0 .1-.1.2c0 .1 0 .1-.1.2v.9c0 .1 0 .2.1.2 0 .1.1.1.1.2s.1.1.1.2c.1.1.1.2.2.2l.1.1c.2.3.4.4.5.5z"/><rect id="XMLID_209_" x="37.1" y="91.7" class="st6" width="0" height="0"/><polygon id="XMLID_208_" class="st6" points="38.4,93.9 38.8,94.2 39.4,93.8 	"/><path id="XMLID_207_" class="st6" d="M35.2 93.2v-.1l.1-.1.1-.1-.7.5c.1-.1.2-.1.3-.1l.2-.1z"/><path id="XMLID_206_" class="st6" d="M34.4 93.8c0-.1 0 0 0 0z"/><path id="XMLID_205_" class="st6" d="M37.1 95.2l-1.5-.9-.5.1c-.1 0-.3 0-.4-.1l1.9 1.2c.2-.1.3-.2.5-.3z"/><path id="XMLID_204_" class="st6" d="M34.4 93.9c0 .1 0 .1.1.2-.1-.1-.1-.2-.1-.2 0-.1 0-.1 0 0z"/><polygon id="XMLID_203_" class="st6" points="39.9,93.4 38.8,92.8 37.6,93.5 38.4,93.9 39.4,93.8 	"/><path id="XMLID_202_" class="st6" d="M35.6 94.3c-.1-.1-.1-.1 0 0-.2-.1-.3-.2-.4-.3v-.1c0-.1-.1-.1-.1-.2v-.4c0-.1 0-.1.1-.2h-.3c-.1 0-.2.1-.3.1-.1 0-.1.1-.2.2v.4c0 .1 0 .2.1.2 0 .1.1.1.2.2s.3.1.4.1h.5z"/><path id="XMLID_201_" class="st6" d="M37.1 91.8l-1.6 1h.1l1.5-1z"/><polygon id="XMLID_200_" class="st6" points="37.1,91.8 37.1,91.8 37.1,91.8 	"/><rect id="XMLID_199_" x="37.1" y="91.7" transform="matrix(0.8437 0.5369 -0.5369 0.8437 55.0579 -5.5701)" class="st6" width="0" height="0"/><polygon id="XMLID_198_" class="st6" points="38.2,92.4 37.6,92.8 38.6,92.7 	"/><path id="XMLID_197_" class="st6" d="M36.4 92.7l.3.2.9-.1.6-.4-1.1-.7-1.6 1c.3-.1.6-.1.9 0z"/><polygon id="XMLID_196_" class="st6" points="38.8,92.8 38.6,92.7 37.6,92.8 37.1,93.2 37.6,93.5 	"/><polygon id="XMLID_195_" class="st6" points="36.7,92.9 37.1,93.2 37.6,92.8 	"/><path id="XMLID_194_" class="st6" d="M35.2 94v-.1.1z"/><polygon id="XMLID_193_" class="st6" points="35.5,94.2 35.5,94.2 35.5,94.2 	"/><polygon id="XMLID_192_" class="st6" points="79.8,118.7 79.8,118.7 79.9,118.7 	"/><polygon id="XMLID_191_" class="st6" points="38.8,94.2 37.8,94.8 77.7,118.6 77.4,117.3 	"/><polygon id="XMLID_190_" class="st6" points="78.8,118.1 78.8,118.1 78.8,118.1 	"/><polygon id="XMLID_189_" class="st6" points="81.2,119.5 79.9,119.9 88.4,125 90.4,125 	"/><polygon id="XMLID_188_" class="st6" points="37.8,94.8 37.1,95.2 77.8,119.5 77.7,118.6 	"/><polygon id="XMLID_187_" class="st6" points="78.8,118.1 78.8,118.1 78.9,119 79.8,118.7 79.8,118.7 	"/><polygon id="XMLID_186_" class="st6" points="79.9,119.9 79,120.2 87,125 88.4,125 	"/><polygon id="XMLID_185_" class="st6" points="79.9,118.7 79.8,118.7 79.3,119.6 79.9,119.9 81.2,119.5 	"/><polygon id="XMLID_184_" class="st6" points="77.4,117.3 77.7,118.6 78.3,119 78.8,118.1 78.8,118.1 	"/><path id="XMLID_183_" class="st6" d="M78.3 119l-.6-.4.2.9.1.1v-.1l.3-.5z"/><path id="XMLID_182_" class="st6" d="M79.3 119.6l.5-.8-.9.3-.2-.9-.5.8.5.3c.3.2.4.5.2.8l-.1.1.1.1.9-.3-.5-.4z"/><path id="XMLID_181_" class="st6" d="M78.8 119.3l-.5-.3-.3.5v.1l1 .6.1-.1c.1-.3 0-.7-.3-.8z"/><path id="XMLID_180_" class="st6" d="M35.5 92.8s-.1 0 0 0z"/><polygon id="XMLID_179_" class="st6" points="38.4,93.9 36.7,94.1 37.8,94.8 38.8,94.2 	"/><path id="XMLID_178_" class="st6" d="M35.2 93z"/><path id="XMLID_177_" class="st6" d="M36.7 94.1h-.2l-.1.1c-.2.2-.5.2-.8.1l1.5.9.7-.4-1.1-.7z"/><path id="XMLID_176_" class="st6" d="M35.4 92.8s0 .1 0 0c0 .1 0 0 0 0z"/><polygon id="XMLID_175_" class="st6" points="37.6,93.5 36.7,94.1 36.7,94.1 38.4,93.9 	"/><path id="XMLID_174_" class="st6" d="M35.5 94.2h.1c0 .1-.1.1-.1 0z"/><polygon id="XMLID_173_" class="st6" points="36.5,94.2 36.7,94.1 36.7,94.1 	"/><path id="XMLID_172_" class="st6" d="M35.5 92.7s0 .1 0 0c-.1 0-.1.1-.1.1l.1-.1z"/><path id="XMLID_171_" class="st6" d="M36.4 92.7c-.3-.2-.6-.1-.9 0l-.1.1-.1.1-.1.1s0 .1-.1.1l1.6-.2-.3-.2z"/><path id="XMLID_170_" class="st6" d="M36.4 94.2l.1-.1-.9.1c.3.2.6.2.8 0z"/><polygon id="XMLID_169_" class="st6" points="37.1,93.2 36.1,93.8 36.7,94.1 37.6,93.5 	"/><path id="XMLID_168_" class="st6" d="M36.5 94.2l.1-.1-.5-.3 1-.6-.4-.2-1.6.2c0 .1 0 .1-.1.2v.4c0 .1 0 .1.1.2 0 0 0 .1.1.1l.3.3h.1l.9-.2z"/><polygon id="XMLID_167_" class="st7" points="25.8,54.1 25.8,54.2 24.9,54.3 24.9,54.3 9.5,57.3 9.4,57.4 41.3,51.2 41.2,51.2 	"/><polygon id="XMLID_166_" class="st7" points="24.6,52.8 11.5,55.3 10.5,56.3 24.7,53.6 	"/><polygon id="XMLID_165_" class="st7" points="8.5,55.1 8.8,56.5 9.7,55.7 9.1,55.8 	"/><polygon id="XMLID_164_" class="st7" points="41.8,46.8 42.1,48.5 51.4,17.3 50.3,18.3 	"/><polygon id="XMLID_163_" class="st7" points="50.9,15.1 50.6,14.9 50.7,15.1 	"/><polygon id="XMLID_162_" class="st7" points="0,44.2 0,45.5 7.6,55.1 7.3,53.5 	"/><polygon id="XMLID_161_" class="st7" points="49.3,13.3 50.8,13.9 39.8,0 38.8,0 	"/><path id="XMLID_160_" class="st7" d="M43.6 51.5l10.6-35.8c.2-.5 0-1.1-.3-1.5L42.6 0h-1l11.6 14.8c.2.2.2.5.1.8L42.8 51.3c-.1.3-.3.5-.5.5L8.7 58.3c-.2 0-.5-.1-.7-.3L0 47.8V49l7.4 9.4c.3.4.7.6 1.1.6h.3l33.7-6.4c.5-.1.9-.5 1.1-1.1z"/><polygon id="XMLID_159_" class="st7" points="25.6,53.4 39.9,50.7 38.6,50.1 25.5,52.6 	"/><polygon id="XMLID_158_" class="st7" points="40.4,49.8 41.5,50.2 41.2,48.8 41,49.7 	"/><polygon id="XMLID_157_" class="st7" points="50.9,16.4 51.1,16.1 50.9,16.1 	"/><path id="XMLID_156_" class="st7" d="M50.8 13.9l2.1.9c.2.1.3.2.3.4s0 .4-.1.5l-1.7 1.6-9.2 31.2.5 2.5c0 .2 0 .4-.1.5-.1.1-.1.1-.2.1h-.2l-.7-.3-32.1 6.1-.6.5s-.1.1-.2.1h-.2c-.2-.1-.3-.2-.3-.4l-.5-2.5L0 45.5v2.4L8 58c.2.2.4.3.7.3l33.7-6.4c.2 0 .4-.2.5-.5l10.6-35.8c.1-.3 0-.6-.1-.8L41.7 0h-1.8l10.9 13.9z"/><polygon id="XMLID_155_" class="st7" points="10.5,56.3 9.5,57.3 24.9,54.3 24.7,53.6 	"/><polygon id="XMLID_154_" class="st7" points="25.8,54.1 41.2,51.2 39.9,50.7 25.6,53.4 	"/><polygon id="XMLID_153_" class="st7" points="37.7,30.3 41.2,48.8 41.8,46.8 38.5,29.5 	"/><polygon id="XMLID_152_" class="st7" points="34.2,7.2 32.9,0 31.9,0 33.2,6.8 	"/><polygon id="XMLID_151_" class="st7" points="14.5,0.4 14,0.2 0.5,13.1 0.7,14.3 14.6,1 	"/><polygon id="XMLID_150_" class="st7" points="0,33.5 0,34.6 3.9,36.2 3.7,35 	"/><polygon id="XMLID_149_" class="st7" points="37.5,29.1 38.3,28.3 36.5,18.9 35.6,19.1 	"/><polygon id="XMLID_148_" class="st7" points="35.4,18.1 36.3,17.9 34.5,8.4 33.4,8 	"/><polygon id="XMLID_147_" class="st7" points="22.6,42.6 4.8,35.4 5,36.6 22.3,43.6 22.7,43.2 	"/><polygon id="XMLID_146_" class="st7" points="23.8,43.6 23.9,44.2 38.6,50.1 40.4,49.8 24.2,43.2 	"/><polygon id="XMLID_145_" class="st7" points="42.1,51 41.2,51.2 41.3,51.2 42.1,51.1 	"/><polygon id="XMLID_144_" class="st7" points="41.2,48.8 41.5,50.2 40.4,49.8 38.6,50.1 39.9,50.7 41.6,50.3 42.1,48.5 41.8,46.8 	
		"/><path id="XMLID_143_" class="st7" d="M39.9 50.7l1.3.5.9-.2-.8.2.7.3h.2l.2-.1c.1-.1.2-.3.1-.5l-.5-2.5-.5 1.8-1.6.5z"/><polygon id="XMLID_142_" class="st7" points="0,10.6 0,13.6 0.5,13.1 	"/><polygon id="XMLID_141_" class="st7" points="22.8,43.8 22.3,43.6 9.7,55.7 11.5,55.3 23,44.4 	"/><polygon id="XMLID_140_" class="st7" points="38.5,29.5 50.3,18.3 50.9,16.4 38.3,28.3 	"/><polygon id="XMLID_139_" class="st7" points="13.5,0 14,0.2 14.2,0 	"/><polygon id="XMLID_138_" class="st7" points="3.9,36.2 7.3,53.5 8.5,55.1 5,36.6 	"/><polygon id="XMLID_137_" class="st7" points="34.5,8.4 50.6,14.9 49.3,13.3 34.2,7.2 	"/><polygon id="XMLID_136_" class="st7" points="15.5,0.2 15.6,0.8 33.4,8 33.2,6.8 16.3,0 15.7,0 	"/><polygon id="XMLID_135_" class="st7" points="23.5,42.4 23.7,43 24.2,43.2 37.7,30.3 37.5,29.1 	"/><polygon id="XMLID_134_" class="st7" points="2.6,24.3 0.7,14.3 0,15 0,15.6 1.7,24.5 	"/><polygon id="XMLID_133_" class="st7" points="1.9,25.5 3.7,35 4.8,35.4 2.8,25.4 	"/><polygon id="XMLID_132_" class="st7" points="8.5,57.5 8.6,57.5 9.4,57.4 9.5,57.3 	"/><polygon id="XMLID_131_" class="st7" points="10.5,56.3 11.5,55.3 9.7,55.7 8.8,56.5 8.5,55.1 7.3,53.5 7.6,55.1 8.8,56.6 	"/><polygon id="XMLID_130_" class="st7" points="50.6,14.9 50.9,15.1 51.6,14.9 50.8,13.9 49.3,13.3 	"/><polygon id="XMLID_129_" class="st7" points="51.1,16.1 50.9,16.4 50.3,18.3 51.4,17.3 51.8,16 	"/><path id="XMLID_128_" class="st7" d="M8.5 57.5l.9-.2 1-1-1.7.3-1.2-1.5.5 2.5c0 .2.2.3.3.4h.2c.1 0 .2-.1.2-.1l.6-.5-.8.1z"/><path id="XMLID_127_" class="st7" d="M52.6 14.7l.2 1-1 .3-.4 1.3 1.7-1.6c.1-.1.2-.3.1-.5 0-.2-.2-.3-.3-.4l-2.1-.9.8 1 1-.2z"/><polygon id="XMLID_126_" class="st7" points="22.3,43.6 22.8,43.8 22.7,43.2 	"/><polygon id="XMLID_125_" class="st7" points="3.7,35 3.9,36.2 5,36.6 4.8,35.4 	"/><polygon id="XMLID_124_" class="st7" points="15.7,0 15.4,0 15.5,0.2 	"/><polygon id="XMLID_123_" class="st7" points="33.4,8 34.5,8.4 34.2,7.2 33.2,6.8 	"/><polygon id="XMLID_122_" class="st7" points="23.8,43.6 24.2,43.2 23.7,43 	"/><polygon id="XMLID_121_" class="st7" points="37.7,30.3 38.5,29.5 38.3,28.3 37.5,29.1 	"/><polygon id="XMLID_120_" class="st7" points="14,0.2 14.5,0.4 14.5,0 14.2,0 	"/><polygon id="XMLID_119_" class="st7" points="0,13.6 0,15 0.7,14.3 0.5,13.1 	"/><polygon id="XMLID_118_" class="st7" points="14.6,1 18.5,21.3 19.5,21.1 15.6,0.8 15,0.6 	"/><polygon id="XMLID_117_" class="st7" points="18.7,22.3 22.6,42.6 23.1,42.8 23.5,42.4 19.7,22.1 	"/><polygon id="XMLID_116_" class="st7" points="23,44.4 24.6,52.8 25.5,52.6 23.9,44.2 23.4,44 	"/><rect id="XMLID_115_" x="24.9" y="54.2" transform="matrix(-0.9821 0.1883 -0.1883 -0.9821 60.4168 102.7487)" class="st7" width="0.9" height="0"/><rect id="XMLID_114_" x="24.6" y="52.7" transform="matrix(-0.9821 0.1883 -0.1883 -0.9821 59.7654 100.5171)" class="st7" width="0.9" height="0.8"/><rect id="XMLID_113_" x="24.9" y="53.4" transform="matrix(-0.1883 -0.9821 0.9821 -0.1883 -22.8804 88.8003)" class="st7" width="0.8" height="0.9"/><polygon id="XMLID_112_" class="st7" points="22.7,43.2 23.1,42.8 22.6,42.6 	"/><polygon id="XMLID_111_" class="st7" points="15,0.6 14.5,0.4 14.6,1 	"/><polygon id="XMLID_110_" class="st7" points="23.9,44.2 23.8,43.6 23.4,44 	"/><polygon id="XMLID_109_" class="st7" points="23.7,43 23.5,42.4 23.1,42.8 	"/><polygon id="XMLID_108_" class="st7" points="15.6,0.8 15.5,0.2 15,0.6 	"/><polygon id="XMLID_107_" class="st7" points="22.8,43.8 23,44.4 23.4,44 	"/><polygon id="XMLID_106_" class="st7" points="15,0.6 15.5,0.2 15.4,0 14.5,0 14.5,0.4 	"/><polygon id="XMLID_105_" class="st7" points="23.1,42.8 22.7,43.2 22.8,43.8 23.4,44 23.8,43.6 23.7,43 	"/><rect id="XMLID_104_" x="10.2" y="15.2" transform="matrix(0.188 0.9822 -0.9822 0.188 31.5777 8.4467)" class="st7" width="1.1" height="16.2"/><polygon id="XMLID_103_" class="st7" points="50.9,16.1 51.1,15.6 50.7,15.1 36.3,17.9 36.5,18.9 	"/><rect id="XMLID_102_" x="19.4" y="19.6" transform="matrix(-0.9821 0.1882 -0.1882 -0.9821 58.3025 34.6555)" class="st7" width="16.2" height="1.1"/><polygon id="XMLID_101_" class="st7" points="1.7,24.5 0,24.8 0,25.9 1.9,25.5 	"/><polygon id="XMLID_100_" class="st7" points="51.1,15.6 50.9,16.1 51.1,16.1 51.8,15.4 50.9,15.1 50.7,15.1 	"/><rect id="XMLID_99_" x="35.4" y="18" transform="matrix(-0.9821 0.1883 -0.1883 -0.9821 74.6734 29.8754)" class="st7" width="0.9" height="1.1"/><rect id="XMLID_98_" x="1.8" y="24.4" transform="matrix(0.9821 -0.1882 0.1882 0.9821 -4.6509 0.872)" class="st7" width="0.9" height="1.1"/><polygon id="XMLID_97_" class="st7" points="51.1,16.1 51.8,16 51.9,15.4 51.6,14.9 50.9,15.1 51.8,15.4 	"/><polygon id="XMLID_96_" class="st7" points="51.8,16 52.8,15.8 52.6,14.7 51.6,14.9 51.9,15.4 	"/><rect id="XMLID_95_" x="18.6" y="21.2" transform="matrix(0.1885 0.9821 -0.9821 0.1885 36.8149 -1.1335)" class="st7" width="1.1" height="0.9"/><line id="XMLID_94_" class="st8" x1="0" y1="33" x2="0" y2="26"/><line id="XMLID_93_" class="st8" x1="0" y1="44" x2="0" y2="35"/><polyline id="XMLID_92_" class="st8" points="0,25 0,15.6 -0.1,15.2 	"/><line id="XMLID_91_" class="st8" x1="0" y1="11" x2="0" y2="0"/><line id="XMLID_90_" class="st8" x1="0" y1="45" x2="0" y2="44"/><line id="XMLID_89_" class="st8" x1="0" y1="49" x2="0" y2="48"/><line id="XMLID_88_" class="st8" x1="0" y1="48" x2="0" y2="45"/><line id="XMLID_87_" class="st8" x1="0" y1="35" x2="0" y2="33"/><polygon id="XMLID_86_" class="st8" points="-0.1,15.1 0,15.6 0,15 	"/><line id="XMLID_85_" class="st8" x1="0" y1="26" x2="0" y2="25"/><polygon id="XMLID_84_" class="st8" points="16.3,0 15.9,-0.2 15.7,0 	"/><polygon id="XMLID_83_" class="st8" points="14.5,0 14.4,-0.2 14.2,0 	"/><path id="XMLID_82_" class="st8" d="M210 33.5v.1-.1z"/><path id="XMLID_81_" class="st8" d="M210 32.9l.1.1.1-.3c-.1 0-.1 0-.2-.1v.3z"/></g></svg>