<svg id="Layer_1" xmlns="http://www.w3.org/2000/svg" xmlns:xlink="http://www.w3.org/1999/xlink" viewBox="0 0 210 125"><style>.st1{fill:#523202}.st2{fill:#945c23}.st3{fill:#a35e26}.st4{fill:#864f22}</style><g id="XMLID_39_"><defs><path id="XMLID_40_" d="M-210.5 178h632v120h-632z"/></defs><clipPath id="XMLID_190_"><use xlink:href="#XMLID_40_" overflow="visible"/></clipPath><g id="XMLID_41_" style="clip-path:url(#XMLID_190_)"><defs><path id="XMLID_48_" d="M-210.5-46.3h632v478h-632z"/></defs><clipPath id="XMLID_191_"><use xlink:href="#XMLID_48_" overflow="visible"/></clipPath><g id="XMLID_49_" style="clip-path:url(#XMLID_191_)"><path id="XMLID_109_" class="st1" d="M473.5-50.3h-736.9c-22.6 0-41.1 19.6-41.1 43.6V396c0 24 18.5 43.6 41.1 43.6h736.9c22.6 0 41.1-19.6 41.1-43.6V-6.7c0-24-18.5-43.6-41.1-43.6z"/><path id="XMLID_108_" class="st2" d="M514.6-17v402.7c0 15.9-8.1 29.8-20.2 37.5-1.4.9-2.9 1.7-4.5 2.4-5 2.4-10.6 3.7-16.5 3.7h-738.2s-.8 0-1.3-.1c-.3 0-.6 0-.9-.1-.3 0-.6 0-.8-.1-.5-.1-.9-.1-1.4-.2-.6-.1-1.2-.2-1.7-.3-.4-.1-.8-.2-1.1-.2-.3-.1-.6-.1-1-.2-.8-.2-1.6-.4-2.3-.7-.5-.2-1.1-.4-1.6-.6-.5-.2-1-.4-1.6-.6-.2-.1-.5-.2-.7-.3-.7-.3-1.4-.6-2-1-.3-.2-.6-.3-.9-.5-.2-.1-.4-.2-.5-.3-.2-.1-.4-.2-.5-.3-.3-.2-.5-.3-.8-.5-.6-.3-1.1-.7-1.7-1.1-.5-.4-1.1-.8-1.6-1.2-1.1-.8-2.1-1.7-3.1-2.6-.3-.2-.5-.5-.7-.7l-.4-.4c-1.2-1.2-2.3-2.4-3.4-3.8-.3-.3-.5-.7-.8-1l-1.5-2.1c-.3-.4-.6-.8-.8-1.3-.2-.4-.5-.8-.7-1.2-.3-.5-.6-1-.8-1.5-.2-.3-.3-.6-.4-.9-.2-.5-.5-1-.7-1.5-.1-.3-.3-.7-.4-1-.4-1-.8-2.1-1.2-3.1-.1-.3-.2-.7-.3-1.1-.1-.3-.2-.7-.3-1.1-.3-1.1-.6-2.1-.8-3.2-.1-.7-.3-1.3-.4-2v-.1c-.1-.5-.1-1-.2-1.5-.2-1.9-.4-3.7-.4-5.7V-19.5c0-.3 0-.7.1-1v-.2c0-.4.1-.7.1-1.1 0-.4.1-.7.1-1.1.1-.5.1-1 .2-1.5.3-1.6.6-3.2 1.1-4.8l.3-.9c0-.1.1-.2.1-.3l.6-1.8c.2-.5.4-1.1.6-1.6.3-.7.6-1.5.9-2.2 4-8.6 10.6-15.7 18.7-20 .7-.4 1.5-.7 2.2-1.1 1-.4 1.9-.8 2.9-1.2.3-.1.6-.2.8-.3.5-.2 1-.3 1.6-.5.3-.1.5-.2.8-.2.3-.1.5-.2.8-.2.2-.1.5-.1.7-.2l1.8-.3c.4-.1.9-.1 1.3-.2.1 0 .3 0 .4-.1.6-.1 1.1-.1 1.7-.2.4 0 .7-.1 1.1-.1.3 0 .7 0 1-.1h738.1c1.9 0 3.8.1 5.7.4 2 .3 4 .8 5.9 1.4 12.5 3.9 22.5 14 27 26.8.1.2.1.4.2.6.1.4.3.8.4 1.2.2.7.4 1.5.6 2.3.1.5.2.9.3 1.4.1.5.2.9.3 1.4 0 .2.1.5.1.7.1.5.2 1 .2 1.5v.5c.1.5.1.9.1 1.4v.4c0 .4.1.7.1 1.1v.8c.2.7.2 1.2.2 1.8z"/><g id="XMLID_71_"><path id="XMLID_104_" class="st3" d="M514.6-17v54c-2.3-.2-4.7-.4-7-.5-33.8-2-69.5 1.7-101.7-3-16.2-2.4-30.2-6.6-45.5-9.8-41.4-8.5-89.7-8.1-135.3-11.2C172.3 8.9 122.1.6 71.2-6.4c-89.1-12.2-181.8-20.5-275.6-21.5-33.1-.4-66.3.2-99.2 1.7.2-1 .5-2.1.7-3.1l.3-.9c0-.1.1-.2.1-.3l.6-1.8c.2-.5.4-1.1.6-1.6.1-.2.1-.4.2-.6.2-.5.5-1.1.7-1.6 2.1-4.6 4.9-8.7 8.3-12.2 3.1-3.2 6.5-5.8 10.4-7.8.7-.4 1.4-.8 2.2-1.1 1-.4 1.9-.8 2.9-1.2.2 0 .3-.1.5-.1.1 0 .3-.1.4-.1.5-.2 1-.3 1.6-.5.3-.1.5-.2.8-.2.3-.1.6-.2.8-.2.2 0 .5-.1.7-.2l1.8-.3c.4-.1.9-.1 1.3-.2h.4c.6-.1 1.2-.1 1.7-.2.4 0 .7 0 1.1-.1h473.9c5.9.7 11.8 1.4 17.7 2 34.1 4 68.2 7.9 102.5 11.6 9.8 1.1 19.6 2.1 29.5 3.1 14.7 1.5 29.3 3 44 4.3l12.6 1.2c32.4 2.9 64.9 5.4 97.8 7.2.1.3.2.6.3 1 .2.8.4 1.5.6 2.3.1.4.2.9.3 1.4.1.5.2.9.3 1.4 0 .2.1.5.1.7.1.5.2 1 .2 1.5v.4c.1.5.1.9.1 1.3v.4c0 .4.1.7.1 1.1v.8c.1.7.1 1.2.1 1.8z"/><path id="XMLID_103_" class="st4" d="M514.6 30v11c-38.7.6-78.2 4.6-113.4-1.5-15.6-2.7-28.9-7.3-44.1-10.4-23.9-4.9-51.1-5.9-77.4-7.3C158.9 15 43.6-2.8-74.2-15.8c-52.9-5.8-107.3-10.7-161.9-9.3-24.7.7-47 2.7-68.3 5.3 0-.3 0-.6.1-.9v-.2c0-.4.1-.7.1-1.1 0-.4.1-.7.1-1.1.1-.5.1-1 .2-1.5.1-.6.2-1.1.3-1.7.2-1 .5-2.1.7-3.1l.3-.9c0-.1.1-.2.1-.3l.6-1.8c.2-.5.4-1.1.6-1.6.1-.2.1-.4.2-.6 68.5-3.6 139.7 1.9 208.3 7.5C-4.4-19.6 84.5-12.4 169.4.2c32.8 4.9 65.4 10.5 100 11.9 29.9 1.2 61.3-.8 89 4.1 21.6 3.8 39.7 11.6 63.1 12.6 12.4.5 24.8-1.1 37.1-1.5 19.9-.8 38.2.6 56 2.7z"/><path id="XMLID_102_" class="st4" d="M514.6 56v5.5c-8 .2-16 .4-24 .4-54.1.2-106.9-6-158.8-12.2C215 35.8 101.5 18.4-19.6 14.4c-94.8-3.1-190.6-6.2-285-3V5.8C-220 2.4-134.4 4.2-49.9 7.9c68 2.9 135.8 7 201.9 14.1 29.6 3.2 58.9 7 88.1 10.9 39.4 5.2 72.9 12.8 113.8 15.3 49.7 3.1 100 6.7 150.2 7.9 3.6.1 7.1 0 10.5-.1z"/><path id="XMLID_101_" class="st4" d="M514.6 3.2v10.3c-18.2-.5-36.5-1.6-53-4.7-18-3.4-33.5-9-52.3-11.5-26.7-3.4-55.6.2-83.3-1-23.7-1-56.1-4.9-76.1-10.5-23.5-6.6-31.4-14.8-63.3-16.9-27.9-1.8-56.3.3-84.6.3-84.7.3-165-17.3-249.7-17.8-21.7-.1-43.3.9-65 .6-28-.3-53.9-.6-79.4-.1 3.1-3.2 6.5-5.8 10.4-7.8.7-.4 1.4-.8 2.2-1.1 1-.4 1.9-.8 2.9-1.2.2 0 .3-.1.5-.1 84.6-.9 169.2 4.2 253 9.4C37.9-45.2 99-41.5 160-37.7c19.2 1.2 38.9 2.4 55.6 6.6 11.4 2.8 20.8 6.9 32.1 9.9 46.1 12.2 107.5 3.6 160.8 8.7C440.7-9.6 469-1.6 501 2c4.5.5 9 .9 13.6 1.2z"/><path id="XMLID_98_" class="st4" d="M514.6 106.4v8.4c-32.5.7-64.9-2.3-96.6-5.3-61.2-5.7-122.3-11.3-183.5-17-66.4-6.1-121.8-7.2-189.5-10.1-29.9-1.3-60.7-2.5-89.6.9-25.8 3-49.7 9.7-76.6 9.5-10-.1-20.2-1.2-29.9-.1-12.3 1.3-20.6 5.8-30.3 9.1-32.7 11.2-78.7 9.5-123.2 10.4v-9.4c17.3.4 34.4.5 50.2-2 16-2.5 28.7-7.5 43.6-10.9 33.5-7.7 74.6-7.3 112.3-10.8 42.1-4 74.1-9.3 119-8.7 66.1.9 131.7 4.7 196.3 10.2 95 8.1 197.8 29.5 296.5 26 .5-.2.9-.2 1.3-.2z"/><path id="XMLID_89_" class="st4" d="M514.6 76v9.2c-28.8 0-57.6.5-86.3 1.6-13.7.5-27.7 1.1-41.1-.5-61.9-7.4-121.7-21-185.3-27.6-71.5-7.5-144.3-12-217.4-13.5-15.5-.3-31.2-.5-45.9-2.9-11.8-2-22.5-5.3-34.6-6.6-14.3-1.6-29.3-.1-43.7 1.3-55 5.4-110 10.9-164.9 16.3V41c25.4-1.7 53.9 1.5 78.2-3 9.3-1.8 17.8-4.6 27.7-5.6 30.7-2.9 94.2-11.6 122.7-4.5 6.8 1.7 12.6 4.2 19.5 5.8 19.4 4.5 42.2.9 63.6 1.3 22.7.4 44.8 5.2 67.5 4.4 8.2-.3 16.2-1.3 24.4-1.6 22.6-.6 41.3 5.5 62.9 6.9 17.7 1.2 32.6.1 50.4 2.2 35.2 4.2 59.9 12.1 91.3 19.2 7.2 1.6 15.4 1.6 23.3 2 31.3 1.7 57.8 12.3 89 13.2 21.5.7 42.1-4 63.5-4.7 11.6-.2 23.3-.5 35.2-.6z"/></g></g></g></g><g id="XMLID_1495_"><defs><path id="XMLID_1496_" d="M-.3-.5h210v125H-.3z"/></defs><clipPath id="XMLID_192_"><use xlink:href="#XMLID_1496_" overflow="visible"/></clipPath><g id="XMLID_1497_" style="clip-path:url(#XMLID_192_)"><defs><path id="XMLID_1498_" d="M-74-108.8h357.4v270.3H-74z"/></defs><clipPath id="XMLID_193_"><use xlink:href="#XMLID_1498_" overflow="visible"/></clipPath><g id="XMLID_1499_" style="clip-path:url(#XMLID_193_)"><path id="XMLID_1525_" class="st1" d="M312.8-108.8H-104c-12.8 0-23.3 11.1-23.3 24.7v227.7c0 13.6 10.5 24.7 23.3 24.7h416.7c12.8 0 23.3-11.1 23.3-24.7V-84.2c0-13.5-10.4-24.6-23.2-24.6z"/><path id="XMLID_1524_" class="st2" d="M336-90v227.7c0 9-4.6 16.9-11.4 21.2-.8.5-1.7 1-2.5 1.4-2.9 1.3-6 2.1-9.3 2.1h-419.2c-.3 0-.5-.1-.8-.1-.3-.1-.7-.1-1-.2-.2 0-.4-.1-.6-.1-.2 0-.4-.1-.5-.1-.4-.1-.9-.2-1.3-.4l-.9-.3-.9-.3c-.1-.1-.3-.1-.4-.2-.4-.2-.8-.3-1.2-.5-.2-.1-.3-.2-.5-.3-.1-.1-.2-.1-.3-.2-.1-.1-.2-.1-.3-.2-.1-.1-.3-.2-.4-.3l-.9-.6c-.3-.2-.6-.4-.9-.7-.6-.5-1.2-.9-1.7-1.4l-.4-.4-.2-.2c-.7-.7-1.3-1.4-1.9-2.1-.2-.2-.3-.4-.4-.6-.3-.4-.6-.8-.8-1.2-.2-.2-.3-.5-.5-.7-.1-.2-.3-.4-.4-.7-.2-.3-.3-.6-.5-.9-.1-.2-.2-.3-.2-.5-.1-.3-.3-.6-.4-.8-.1-.2-.2-.4-.2-.6-.2-.6-.5-1.2-.7-1.8-.1-.2-.1-.4-.2-.6-.1-.2-.1-.4-.2-.6-.2-.6-.3-1.2-.4-1.8-.1-.4-.1-.7-.2-1.1v-.1c0-.3-.1-.6-.1-.9-.1-1-.2-2.1-.2-3.2V-92.1c0-.2 0-.4.1-.6 0-.2 0-.4.1-.6 0-.3.1-.6.1-.8.1-.9.4-1.8.6-2.7 0-.2.1-.3.1-.5v-.2c.1-.3.2-.7.3-1l.3-.9c.2-.4.3-.8.5-1.2 2.3-4.9 6-8.9 10.6-11.3l1.2-.6c.5-.2 1.1-.5 1.7-.7.2-.1.3-.1.5-.2l.9-.3c.2-.1.3-.1.5-.1s.3-.1.5-.1c.1 0 .3-.1.4-.1.3-.1.7-.1 1-.2.2 0 .5-.1.7-.1h.2c.3 0 .6-.1 1-.1H313c1.1 0 2.2.1 3.2.2 1.1.2 2.3.4 3.4.8 7.1 2.2 12.7 7.9 15.3 15.2 0 .1.1.2.1.3.1.2.1.4.2.7.1.4.2.8.4 1.3.1.3.1.5.2.8.1.3.1.5.2.8 0 .1.1.3.1.4 0 .3.1.6.1.9v.3c0 .3.1.5.1.8v1.3c-.3 0-.3.3-.3.6z"/><g id="XMLID_1503_"><path id="XMLID_1523_" class="st3" d="M336 31.2v61.6c-2-.2-4.1-.4-6.1-.5-15.6-1.4-31.7-2.8-47.4-1.4-3 .3-6 .6-8.9 1.1-7.7 1.1-15.2 2.5-23 3.3-5.8.6-11.6.8-17.5.9-11.1.2-22.3-.2-33.4.2-2.6.1-5.2.2-7.8.4-10 .6-19.9 1.7-29.7 3.1-23.1 3.1-45.9 7.2-69.8 7.9-47.6 1.4-90.5-10.6-134.5-20.7-7.9-1.8-15.9-3.6-24-5.2-17.5-3.5-35.3-6.3-53.8-7.4-2.3-.1-5-.5-7.3-.9v-7.8c1.5-.5 2.9-.9 4.4-1.4.9-.3 1.9-.6 2.8-.9 13.9-4.4 27.7-8.7 41.6-13.1 19.9-6.3 45.8-4.9 67.6-8.7 6.5-1 12.8-2.7 19.5-3.6 9.3-1.4 19-1.5 28.7-1.5 14.1-.1 28.3-.2 42.4-.4l32.6-.3c19.7-.2 39.4-.3 59.1-.5 7.1-.1 14.4-.1 21 1.1 6.4 1.2 11.7 3.4 18 4.8 19.9 4.4 42.3-1.3 63.1-4.6.3 0 .5-.1.8-.1 8.4-1.3 17-2.2 25.6-2.9h.1c7.6-.6 15.2-1.1 22.8-1.6 4.4-.4 8.8-.6 13.1-.9z"/><path id="XMLID_1512_" class="st4" d="M336-6.5V-2c-16.5.7-33 1.5-49.4 2.6-24 1.6-47.9 3.6-71.8 5.2-37.3 2.6-75.4 4.3-112.5 1.2-31.6-2.7-62-8.8-94-9.7-21.5-.6-42.9 1.3-64.2 3-23.7 1.9-47.5 3.8-71.3 5.4v-7.6l16.2-.9C-84.4-4-57.8-5.4-31.1-6c27.6-.7 55.6-.6 82.2 2.9 21.6 2.8 42.2 7.7 64.4 8.5 22.5.8 44.7-2.6 67.2-2.7 13.7 0 27.5 1.1 40.9-.2 9.6-1 18.4-3.1 27.7-4.6 13.1-2 27-2.5 40.7-3 14.8-.4 29.4-.9 44-1.4z"/><path id="XMLID_1511_" class="st4" d="M336 26v5.6c-4.3.2-8.5.4-12.8.6-7.7.4-15.5.8-23.2 1.3h-.1c-8.7.7-17.3 1.5-25.6 2.9-.3 0-.5.1-.8.1-.9.1-1.8.3-2.6.5-16.1 3-31.7 8.1-48.9 7.3-14.1-.6-26.1-5.1-39.7-6.9-19.4-2.5-39.7.6-59.5 2.2-22.6 1.8-45.9 1.5-68.4-.7-9-.9-18.2-2.2-27.3-1.7-12.2.8-22.8 4.7-34.7 6.4-17 2.5-35.8.5-52.6 3.3-22 3.7-37.3 15.1-59.9 16.7-.9.1-1.8.1-2.7.2-.1.2-.1.5-.1.7.1 2.7 5.9 4.8 11 6.1 15 4 30.2 7.8 45.7 11.4 7.9 1.8 15.9 3.5 24 5.2 15.4 3.2 31 6.1 46.8 8.7 42.2 7 88.8 12.1 130.8 4.9 17-2.9 33.1-7.8 51.1-8.3 12.3-.3 24.5 1.5 36.8 1.3 22.7-.4 43.5-7.5 66.2-7.1 11.4.2 22.3 2.3 33.5 3.3 4.3.4 8.6.6 13 .7V96c-7 .1-13.9.1-20.8-.3-13.9-.8-27.8-3.3-41.6-3.8-4.8-.2-9.7-.1-14.5.4-7.3.7-14.1 2.4-21.3 3.4-1.6.2-3.1.4-4.7.5-13.4 1.2-27.4.4-41.2.5-4.5.1-9 .3-13.5.7-5.6.5-10.9 1.4-16.2 2.4-9.4 1.8-18.5 4.3-27.8 6.3-14.5 3.1-29.8 3.1-45.5 4-20 1.2-40.6-.6-58.6-5-6.7-1.7-13.1-3.7-20.4-4.7-8.9-1.2-18.4-.8-27.6-1.1-17.1-.6-33.8-3.9-46.9-9.2-18.1-7.4-30.6-13.8-56-14.2h-6.6V59.1c9.3-1.7 19.7-2.6 28.1-5.2 7.6-2.3 13.3-5.9 20.4-8.5 21-7.8 47.5-3.2 71.4-6.7 10-1.5 18.9-4.4 29.1-5.7 19.1-2.4 38.4 1.5 58 3.2 5.7.5 11.5.8 17.2.7 5.2-.1 10.3-.5 15.4-1 20-2.2 39.6-6.9 59.5-4.9 18.4 1.9 34.4 9.6 53.1 8.4 10.1-.6 18.8-3.8 28.6-5.2 24.7-3.5 47.1-.1 71.1-6.2 3.9-.9 7.7-1.6 11.3-2z"/><path id="XMLID_1510_" class="st4" d="M336 8.8v5.8c-24.6 2.1-49.1 4.2-73.7 6.3-24.6 2.1-49.7 4.2-74.5 2.7-13.7-.8-27.4-2.7-41-1.9-6.4.4-12.6 1.3-18.9 1.9-32.5 2.9-65.8-4.3-98.7-2.7-14.3.7-28 3.1-41.6 5.4-12.7 2.2-25.3 4.4-38 6.5-7.7 1.3-15.4 2.7-22.7 4.5-6.7 1.7-13 3.7-20.2 4.8-10.1 1.5-21 1-31.3 1.9-.9.1-1.8.2-2.6.3v-4.5c7.9-.2 15.8.3 23.3-.9 10.2-1.6 18-5.9 28.2-7.4 8.8-1.3 18.4-.5 27.3-1.6 9-1.1 16.4-4.1 24.3-6.5C.3 16 29.6 15 57.7 15.4c13.8.2 28.6.3 42.2 1.1 11.7.7 26.1 4.5 37.8 2.4 3.4-.6 6.3-1.7 9.8-2.2 12.9-1.9 24.7 5.1 38.2 5.3 11.9.2 22.5-5 34.3-4.2 6.6.5 13 2.7 19.3 1.7 2.7-.4 4.9-1.3 7.2-2.1 13.4-4.1 28.6-.6 42.9-2 11.4-1.2 20.4-4.6 32.1-5.7 4.9-.3 9.7-.6 14.5-.9z"/><path id="XMLID_1509_" class="st4" d="M336 117.5v8.2c-13.6 1.6-27.3 3.1-41 3.8-30.4 1.6-61.4-.6-91.7 1.6-18 1.3-35.4 4.2-53.5 5.1C97 138.9 47.2 125.1-4.7 119.8c-41.6-4.2-87.5-3.5-122.5-15v-3.7c31.2 10.7 72.8 10.4 110.8 13 58.9 4.1 116.5 16.4 175.6 13.3 25.4-1.4 50-5.6 75.6-5.9 17.5-.2 35 1.4 52.4.7 11.6-.5 22.8-2 34.2-3.2 4.8-.6 9.7-1.1 14.6-1.5z"/><path id="XMLID_1505_" class="st4" d="M-54.8 65.9c-.9 1.6 4.6 2.8 9.4 3.6 32.1 5.2 65.8 9.7 100.6 13.1 36.4 3.7 76.6 6.3 113 2.6 14.7-1.5 28.5-4.1 44.1-4.3 10.6-.2 21.1.8 31.8.7 19.6-.2 37.5-3.9 57.2-3.7 9.9.1 19.2 1.2 28.9 1.7 2 .1 4 .2 6 .2v3c-4.3 0-8.5 0-12.7-.2-16.3-.6-32.4-2.7-48.4-1.7-6.3.4-12.2 1.2-18.4 1.7-16.6 1.3-34.4 0-51.2.9-13.5.7-25.5 2.9-38 4.5s-25.7 1.6-39.3 2.1c-17.2.6-35.1-.3-50.6-2.6-5.8-.9-11.4-1.9-17.6-2.4-7.7-.6-15.9-.4-23.9-.6-14.8-.3-29.2-2-40.5-4.8-15.6-3.9-26.4-7.2-48.3-7.4-4.6 0-9.2.1-13.6-.3-4.4-.3-8.8-1.2-10-2.5-1.2-1.3 1.1-2.7 4.3-3.7 9.8-2.9 26-2.9 37.8-5.1 6.6-1.2 11.5-3.1 17.6-4.4 18.1-4.1 41-1.7 61.7-3.5 8.7-.8 16.4-2.3 25.1-3 21.2-1.6 43 2.2 64.9 2.1 22-.2 43.1-4.4 64.7-3.1 15.9 1 29.7 5 45.9 4.4 8.7-.3 16.2-2 24.7-2.7 21.3-1.8 40.6-.1 61.4-3.2 1.5-.2 3.1-.4 4.6-.6v2.6c-1.9 0-3.9.1-5.8.2-15.3.5-30.8.9-45.2 2.5-13.9 1.6-27.4 4.2-42.2 3.8-12.1-.3-22.5-2.7-34.3-3.6-16.7-1.3-34.2.3-51.3 1.1-19.5.9-39.7.8-59-.4-7.8-.5-15.7-1.1-23.6-.9-10.6.4-19.7 2.4-30 3.3-14.7 1.3-30.9.2-45.4 1.7-20.1 2.1-33.6 8.5-54.4 8.9z"/><path id="XMLID_1504_" class="st4" d="M-.9 67.2c-.8.8 4.1 1.3 8.5 1.7 28.9 2.5 59.2 4.6 90.4 6.3 32.7 1.7 68.9 3 101.6 1.2 13.2-.7 25.6-1.9 39.6-2.1 9.5-.1 19 .4 28.6.3 17.6-.1 33.8-1.9 51.4-1.8 5.7 0 11.3.3 16.9.5V75c-13.6-.3-27.1-1.2-40.5-.7-5.7.2-11 .6-16.6.8-14.9.6-30.9 0-46.1.4-12.1.5-22.9 1.5-34.1 2.2-11.3.8-23.1.8-35.4 1-15.5.3-31.5-.1-45.5-1.2-5.2-.4-10.2-.9-15.8-1.2-6.9-.3-14.3-.2-21.5-.3-13.3-.1-26.2-1-36.4-2.3-14.1-1.8-23.8-3.4-43.5-3.5-4.1 0-8.3 0-12.2-.1-4-.1-7.9-.6-8.9-1.2-1.1-.6 1-1.3 3.9-1.8 8.8-1.4 23.4-1.4 34-2.4 5.9-.6 10.3-1.5 15.9-2.1 16.3-1.9 36.9-.8 55.4-1.7 7.8-.4 14.7-1.1 22.6-1.4 19.1-.8 38.6 1.1 58.4 1 19.8-.1 38.8-2.1 58.2-1.5 14.3.5 26.7 2.4 41.2 2.1 7.9-.1 14.6-.9 22.2-1.3 15.6-.7 29.9-.3 44.7-.9v.6c-10.7.2-21.3.5-31.3 1.1-12.5.7-24.6 2-38 1.8-10.9-.2-20.2-1.3-30.8-1.7-15-.6-30.8.1-46.2.5-17.6.5-35.7.4-53.1-.2-7-.2-14.1-.5-21.2-.4-9.6.2-17.7 1.1-27 1.6-13.2.6-27.8.1-40.8.8-17.7.9-29.9 4-48.6 4.2z"/></g></g></g></g><path id="XMLID_2869_" d="M89.2 98.8H28.3c-1.2 0-2.1-.9-2.1-2.1V35.8c0-1.2.9-2.1 2.1-2.1h60.9c1.2 0 2.1.9 2.1 2.1v60.9c0 1.1-.9 2.1-2.1 2.1z" style="fill-rule:evenodd;clip-rule:evenodd;fill:#fdc22d"/><path id="XMLID_937_" d="M189.8 103.2H120c-1.3 0-2.4-1.1-2.4-2.4V30.9c0-1.3 1.1-2.4 2.4-2.4h69.8c1.3 0 2.4 1.1 2.4 2.4v69.8c0 1.4-1.1 2.5-2.4 2.5z" style="fill-rule:evenodd;clip-rule:evenodd;fill:#1bef52"/><defs><circle id="SVGID_1_" cx="106" cy="-37" r="23"/></defs><clipPath id="SVGID_2_"><use xlink:href="#SVGID_1_" overflow="visible"/></clipPath><g id="XMLID_13_" style="clip-path:url(#SVGID_2_)"><defs><path id="XMLID_14_" d="M66-60h77.3v46H66z"/></defs><clipPath id="XMLID_194_"><use xlink:href="#XMLID_14_" overflow="visible"/></clipPath><g id="XMLID_15_" style="clip-path:url(#XMLID_194_)"><defs><path id="XMLID_16_" d="M38.9-99.9h131.5V-.4H38.9z"/></defs><clipPath id="XMLID_195_"><use xlink:href="#XMLID_16_" overflow="visible"/></clipPath><g id="XMLID_18_" style="clip-path:url(#XMLID_195_)"><path id="XMLID_56_" class="st1" d="M181.3-99.9H27.9c-4.7 0-8.6 4.1-8.6 9.1V-7c0 5 3.9 9.1 8.6 9.1h153.4c4.7 0 8.6-4.1 8.6-9.1v-83.8c-.1-5-3.9-9.1-8.6-9.1z"/></g></g></g></svg>