<svg id="Layer_1" xmlns="http://www.w3.org/2000/svg" xmlns:xlink="http://www.w3.org/1999/xlink" viewBox="0 0 210 125"><style>.st2{fill:#523202}.st3{fill:#945c23}.st4{fill:#a35e26}.st5{fill:#864f22}.st48{fill-rule:evenodd;clip-rule:evenodd;fill:#fdc22d}</style><g id="XMLID_39_"><defs><path id="XMLID_40_" d="M-692.2 2.5h632v120h-632z"/></defs><clipPath id="XMLID_64_"><use xlink:href="#XMLID_40_" overflow="visible"/></clipPath><g id="XMLID_41_" style="clip-path:url(#XMLID_64_)"><defs><path id="XMLID_48_" d="M-692.2-221.8h632v478h-632z"/></defs><clipPath id="XMLID_65_"><use xlink:href="#XMLID_48_" overflow="visible"/></clipPath><g id="XMLID_49_" style="clip-path:url(#XMLID_65_)"><path id="XMLID_109_" class="st2" d="M-8.2-225.8h-736.9c-22.6 0-41.1 19.6-41.1 43.6v402.7c0 24 18.5 43.6 41.1 43.6H-8.2c22.6 0 41.1-19.6 41.1-43.6v-402.7c.1-24-18.4-43.6-41.1-43.6z"/><path id="XMLID_108_" class="st3" d="M33-192.5v402.7c0 15.9-8.1 29.8-20.2 37.5-1.4.9-2.9 1.7-4.5 2.4-5 2.4-10.6 3.7-16.5 3.7h-738.2c-.4 0-.8 0-1.3-.1-.3 0-.6 0-.9-.1-.3 0-.6 0-.8-.1-.5-.1-.9-.1-1.4-.2-.6-.1-1.2-.2-1.7-.3-.4-.1-.8-.2-1.1-.2-.3-.1-.6-.1-1-.2-.8-.2-1.6-.4-2.3-.7-.5-.2-1.1-.4-1.6-.6-.5-.2-1-.4-1.6-.6-.2-.1-.5-.2-.7-.3-.7-.3-1.4-.6-2-1-.3-.2-.6-.3-.9-.5-.2-.1-.4-.2-.5-.3-.2-.1-.4-.2-.5-.3-.3-.2-.5-.3-.8-.5-.6-.3-1.1-.7-1.7-1.1-.5-.4-1.1-.8-1.6-1.2-1.1-.8-2.1-1.7-3.1-2.6-.3-.2-.5-.5-.7-.7l-.4-.4c-1.2-1.2-2.3-2.4-3.4-3.8-.3-.3-.5-.7-.8-1l-1.5-2.1c-.3-.4-.6-.8-.8-1.3-.2-.4-.5-.8-.7-1.2-.3-.5-.6-1-.8-1.5-.2-.3-.3-.6-.4-.9-.2-.5-.5-1-.7-1.5-.1-.3-.3-.7-.4-1-.4-1-.8-2.1-1.2-3.1-.1-.3-.2-.7-.3-1.1-.1-.3-.2-.7-.3-1.1-.3-1.1-.6-2.1-.8-3.2-.1-.7-.3-1.3-.4-2v-.1c-.1-.5-.1-1-.2-1.5-.2-1.9-.4-3.7-.4-5.7v-405.2c0-.3 0-.7.1-1v-.2c0-.4.1-.7.1-1.1 0-.4.1-.7.1-1.1.1-.5.1-1 .2-1.5.3-1.6.6-3.2 1.1-4.8l.3-.9c0-.1.1-.2.1-.3l.6-1.8c.2-.5.4-1.1.6-1.6.3-.7.6-1.5.9-2.2 4-8.6 10.6-15.7 18.7-20 .7-.4 1.5-.7 2.2-1.1 1-.4 1.9-.8 2.9-1.2.3-.1.6-.2.8-.3.5-.2 1-.3 1.6-.5.3-.1.5-.2.8-.2.3-.1.5-.2.8-.2.2-.1.5-.1.7-.2l1.8-.3c.4-.1.9-.1 1.3-.2.1 0 .3 0 .4-.1.6-.1 1.1-.1 1.7-.2.4 0 .7-.1 1.1-.1.3 0 .7 0 1-.1h738c1.9 0 3.8.1 5.7.4 2 .3 4 .8 5.9 1.4 12.5 3.9 22.5 14 27 26.8.1.2.1.4.2.6.1.4.3.8.4 1.2.2.7.4 1.5.6 2.3.1.5.2.9.3 1.4.1.5.2.9.3 1.4 0 .2.1.5.1.7.1.5.2 1 .2 1.5v.5c.1.5.1.9.1 1.4v.4c0 .4.1.7.1 1.1v.8c.2 1.1.3 1.7.3 2.3z"/><g id="XMLID_71_"><path id="XMLID_107_" class="st4" d="M33 21.8v108.9c-3.6-.3-7.2-.7-10.8-1-27.7-2.5-56.1-4.9-83.8-2.4-5.3.5-10.6 1.1-15.8 1.9-13.6 2-26.9 4.5-40.8 5.9-10.2 1.1-20.5 1.5-30.9 1.7-19.6.3-39.4-.3-59.1.3-4.6.1-9.2.4-13.8.7-17.7 1.1-35.1 3.1-52.4 5.4-40.9 5.5-81.2 12.7-123.4 14-84.3 2.5-160.1-18.6-238-36.5-14-3.2-28.1-6.3-42.4-9.1-30.9-6.2-62.4-11.1-95.1-13.1-4.1-.3-8.8-.8-13-1.6V83c2.6-.8 5.2-1.6 7.7-2.4 1.6-.5 3.3-1 4.9-1.6l73.5-23.1c35.2-11.1 81-8.6 119.5-15.3 11.7-2.1 22.8-4.9 34.7-6.7 16.4-2.4 33.7-2.6 50.8-2.7 25-.2 50-.4 75-.7 19.2-.1 38.5-.3 57.7-.5l104.5-.9c12.5-.1 25.4-.2 37.1 2 11.3 2.1 20.7 6.1 31.8 8.5 35.2 7.7 74.8-2.3 111.6-8.2.5-.1.9-.1 1.3-.2 14.8-2.3 30-3.9 45.4-5.2h.1c13.4-1.1 26.9-2 40.3-2.8 7.9-.5 15.6-1 23.4-1.4z"/><path id="XMLID_79_" class="st5" d="M33 12.6v9.9c-7.5.4-15.1.7-22.6 1.1-13.7.7-27.4 1.4-41 2.4h-.1c-15.4 1.2-30.7 2.7-45.4 5.2-.5.1-.9.1-1.3.2-1.6.3-3.1.5-4.7.8-28.5 5.3-56.1 14.3-86.5 12.9-24.9-1.1-46.2-9.1-70.3-12.2-34.2-4.5-70.1 1.1-105.1 3.9-40 3.2-81.3 2.7-120.9-1.3-15.9-1.6-32.1-3.9-48.3-2.9-21.8 1.3-40.4 8.1-61.4 11.2-30 4.4-63.3.8-93 5.8-38.9 6.5-66 26.7-105.9 29.5l-4.8.3c-.1.4-.2.9-.2 1.3.2 4.8 10.4 8.4 19.5 10.9 26.4 7.1 53.4 13.9 80.9 20.1 14 3.2 28.1 6.2 42.4 9.1 27.2 5.6 54.7 10.7 82.7 15.4 74.6 12.4 157 21.4 231.3 8.6 30.1-5.1 58.5-13.8 90.3-14.6 21.7-.6 43.3 2.6 65 2.2 40.2-.7 76.9-13.3 117.1-12.6 20.1.3 39.3 4.1 59.2 5.8 7.6.7 15.3 1.1 23 1.3v9.5c-12.3.2-24.6.2-36.8-.5-24.7-1.5-49.2-5.8-73.6-6.7-8.5-.3-17.1-.1-25.6.7-13 1.3-25 4.2-37.7 5.9-2.8.4-5.5.7-8.3.9-23.7 2.1-48.5.6-72.8 1-8 .1-16 .5-23.8 1.2-9.9.9-19.3 2.4-28.6 4.2-16.7 3.3-32.7 7.5-49.2 11.1-25.6 5.5-52.7 5.5-80.5 7.1-35.3 2.1-71.9-1.1-103.6-8.9-11.9-2.9-23.2-6.5-36.1-8.3-15.8-2.2-32.6-1.4-48.9-2-30.3-1.1-59.7-6.9-83-16.3-32-13.1-54.1-24.5-99-25.1-3.9-.1-7.8 0-11.6-.1V71.1c16.5-2.9 34.8-4.6 49.7-9.2 13.4-4.1 23.5-10.4 36.1-15 37.1-13.7 84-5.7 126.3-11.9 17.7-2.6 33.5-7.9 51.4-10.1 33.7-4.3 68 2.6 102.6 5.7 10.1.9 20.2 1.5 30.4 1.3 9.2-.1 18.3-.8 27.3-1.8 35.4-3.9 70-12.3 105.2-8.6 32.6 3.4 60.9 16.9 94 14.8 17.9-1.1 33.2-6.7 50.5-9.2C-69 21-29.5 26.9 13 16.2c6.8-1.7 13.4-2.8 20-3.6z"/><path id="XMLID_78_" class="st5" d="M33-17.9v10.2C-10.5-3.9-53.9-.2-97.3 3.5c-43.6 3.7-87.9 7.4-131.8 4.9-24.2-1.5-48.4-4.8-72.6-3.4-11.3.5-22.3 2.2-33.4 3.2-57.6 5.1-116.3-7.6-174.5-4.8-25.3 1.3-49.5 5.4-73.5 9.5-22.4 3.8-44.7 7.7-67.1 11.6-13.6 2.3-27.3 4.7-40.2 7.9-11.8 2.9-23 6.6-35.7 8.5-17.8 2.7-37 1.7-55.4 3.3-1.6.1-3.1.3-4.6.5v-8c13.9-.3 28 .5 41.2-1.5 18.1-2.8 31.8-10.4 49.8-13.1 15.5-2.3 32.5-.8 48.3-2.8C-631 17.3-618 12-604 7.8c43.3-12.9 95.1-14.8 144.7-14 24.5.4 50.6.5 74.7 1.9 20.8 1.2 46.2 8 66.9 4.3 6-1.1 11.2-3 17.3-3.9 22.9-3.4 43.7 9 67.6 9.4 21.1.3 39.8-8.8 60.7-7.4 11.6.9 22.9 4.9 34.1 3.2 4.8-.7 8.6-2.4 12.8-3.7 23.8-7.2 50.5-1.1 75.8-3.6 20.2-2 36-8.1 56.8-10 8.5-.8 17-1.4 25.6-1.9z"/><path id="XMLID_73_" class="st5" d="M-658.2 83.2c-1.5 2.8 8.1 4.9 16.6 6.3 56.8 9.3 116.4 17.1 177.9 23.2 64.4 6.5 135.5 11.2 199.7 4.5 26-2.7 50.5-7.2 77.9-7.6 18.8-.3 37.4 1.3 56.2 1.2 34.7-.4 66.4-6.9 101.1-6.6 17.4.2 34 2.1 51.1 3 3.5.2 7.1.3 10.7.4v5.3c-7.5 0-15 0-22.5-.3-28.8-1-57.3-4.8-85.7-3.1-11.2.7-21.6 2.2-32.6 3.1-29.3 2.3-60.8-.1-90.6 1.6-23.8 1.3-45 5.1-67.2 8-22.2 2.9-45.5 2.9-69.5 3.7-30.5 1.1-62.1-.6-89.4-4.6-10.3-1.5-20.1-3.4-31.2-4.3-13.6-1.1-28.1-.7-42.2-1-26.1-.6-51.6-3.6-71.6-8.5-27.6-6.8-46.7-12.8-85.5-13.1-8.1-.1-16.2.1-24.1-.5-7.8-.6-15.5-2.1-17.6-4.4-2.2-2.3 1.9-4.8 7.6-6.5 17.3-5.2 46-5.1 66.9-8.9 11.6-2.1 20.3-5.4 31.2-7.8 32-7.2 72.5-3 109-6.2 15.3-1.4 28.9-4.1 44.4-5.3 37.6-2.9 76 4 114.8 3.7 39-.3 76.3-7.8 114.4-5.4 28.1 1.8 52.6 8.8 81.1 7.7 15.4-.6 28.6-3.5 43.6-4.8 37.7-3.2 71.8-.1 108.5-5.7 2.7-.4 5.4-.8 8.1-1.1v4.6c-3.4.1-6.8.2-10.3.3-27.1.8-54.5 1.7-79.9 4.5-24.6 2.8-48.4 7.4-74.7 6.7-21.5-.6-39.8-4.7-60.7-6.4-29.6-2.4-60.5.5-90.8 2-34.5 1.7-70.1 1.4-104.4-.7-13.8-.9-27.7-2-41.7-1.5-18.8.7-34.9 4.2-53 5.8-25.9 2.3-54.7.4-80.3 3-34.6 3.7-58.6 14.9-95.3 15.7z"/><path id="XMLID_72_" class="st5" d="M-562.8 85.4c-1.4 1.3 7.3 2.4 15 3 51 4.4 104.6 8.2 159.9 11.1 57.9 3.1 121.9 5.3 179.6 2.2 23.3-1.3 45.4-3.4 70.1-3.7 16.9-.1 33.6.7 50.5.5 31.2-.2 59.7-3.3 90.9-3.1 10.1.1 20 .5 29.8.9v3c-24-.6-47.8-2.1-71.6-1.3-10.1.3-19.4 1.1-29.3 1.5-26.3 1.1-54.7 0-81.5.8-21.4.6-40.5 2.4-60.4 3.8s-40.9 1.4-62.5 1.8c-27.4.5-55.8-.3-80.4-2.2-9.2-.7-18-1.6-28-2.1-12.3-.5-25.3-.4-38-.5-23.5-.3-46.4-1.7-64.4-4.1-24.9-3.3-42-6.1-76.9-6.3-7.2 0-14.6 0-21.6-.2-7-.3-13.9-1-15.8-2.1-2-1.1 1.7-2.3 6.8-3.1 15.5-2.5 41.4-2.4 60.2-4.3 10.5-1 18.2-2.6 28-3.7 28.8-3.4 65.2-1.4 98.1-2.9 13.8-.7 26-2 39.9-2.5 33.8-1.4 68.3 1.9 103.2 1.7 35-.1 68.6-3.7 102.9-2.6 25.3.8 47.3 4.2 72.9 3.7 13.9-.3 25.8-1.7 39.2-2.3 27.5-1.2 52.9-.5 79.1-1.6v1c-18.9.4-37.7.8-55.4 1.9-22 1.3-43.5 3.6-67 3.2-19.3-.3-35.8-2.3-54.5-3-26.6-1.1-54.5.3-81.7.9-31.1.8-63.1.7-93.9-.3-12.4-.4-24.9-1-37.5-.7-16.9.3-31.4 2-47.7 2.8-23.3 1.1-49.2.2-72.2 1.5-31.2 1.6-52.8 6.9-85.8 7.3z"/></g></g></g></g><g id="XMLID_1495_"><defs><path id="XMLID_1496_" d="M0 0h210v125H0z"/></defs><clipPath id="XMLID_66_"><use xlink:href="#XMLID_1496_" overflow="visible"/></clipPath><g id="XMLID_1497_" style="clip-path:url(#XMLID_66_)"><defs><path id="XMLID_1498_" d="M-73.7-108.3h357.4V162H-73.7z"/></defs><clipPath id="XMLID_67_"><use xlink:href="#XMLID_1498_" overflow="visible"/></clipPath><g id="XMLID_1499_" style="clip-path:url(#XMLID_67_)"><path id="XMLID_1525_" class="st2" d="M313.1-108.3h-416.7c-12.8 0-23.3 11.1-23.3 24.7v227.7c0 13.6 10.5 24.7 23.3 24.7h416.7c12.8 0 23.3-11.1 23.3-24.7V-83.7c0-13.5-10.5-24.6-23.3-24.6z"/><path id="XMLID_1524_" class="st3" d="M336.4-89.5v227.7c0 9-4.6 16.9-11.4 21.2-.8.5-1.7 1-2.5 1.4-2.9 1.3-6 2.1-9.3 2.1h-419.1c-.3 0-.5-.1-.8-.1-.3-.1-.7-.1-1-.2-.2 0-.4-.1-.6-.1-.2 0-.4-.1-.5-.1-.4-.1-.9-.2-1.3-.4l-.9-.3-.9-.3c-.1-.1-.3-.1-.4-.2-.4-.2-.8-.3-1.2-.5-.2-.1-.3-.2-.5-.3-.1-.1-.2-.1-.3-.2-.1-.1-.2-.1-.3-.2-.1-.1-.3-.2-.4-.3l-.9-.6c-.3-.2-.6-.4-.9-.7-.6-.5-1.2-.9-1.7-1.4l-.4-.4-.2-.2c-.7-.7-1.3-1.4-1.9-2.1-.2-.2-.3-.4-.4-.6-.3-.4-.6-.8-.8-1.2-.2-.2-.3-.5-.5-.7-.1-.2-.3-.4-.4-.7-.2-.3-.3-.6-.5-.9-.1-.2-.2-.3-.2-.5-.1-.3-.3-.6-.4-.8-.1-.2-.2-.4-.2-.6-.2-.6-.5-1.2-.7-1.8-.1-.2-.1-.4-.2-.6-.1-.2-.1-.4-.2-.6-.2-.6-.3-1.2-.4-1.8-.1-.4-.1-.7-.2-1.1v-.1c0-.3-.1-.6-.1-.9-.1-1-.2-2.1-.2-3.2V-91.6c0-.2 0-.4.1-.6 0-.2 0-.4.1-.6 0-.3.1-.6.1-.8.1-.9.4-1.8.6-2.7 0-.2.1-.3.1-.5v-.2c.1-.3.2-.7.3-1l.3-.9c.2-.4.3-.8.5-1.2 2.3-4.9 6-8.9 10.6-11.3l1.2-.6c.5-.2 1.1-.5 1.7-.7.2-.1.3-.1.5-.2l.9-.3c.2-.1.3-.1.5-.1s.3-.1.5-.1c.1 0 .3-.1.4-.1.3-.1.7-.1 1-.2.2 0 .5-.1.7-.1h.2c.3 0 .6-.1 1-.1h418.6c1.1 0 2.2.1 3.2.2 1.1.2 2.3.4 3.4.8 7.1 2.2 12.7 7.9 15.3 15.2 0 .1.1.2.1.3.1.2.1.4.2.7.1.4.2.8.4 1.3.1.3.1.5.2.8.1.3.1.5.2.8 0 .1.1.3.1.4 0 .3.1.6.1.9v.3c0 .3.1.5.1.8v1.3c-.4 0-.4.3-.4.6z"/><g id="XMLID_1503_"><path id="XMLID_1523_" class="st4" d="M336.4 31.7v61.6c-2-.2-4.1-.4-6.1-.5-15.6-1.4-31.7-2.8-47.4-1.4-3 .3-6 .6-8.9 1.1-7.7 1.1-15.2 2.5-23 3.3-5.8.6-11.6.8-17.5.9-11.1.2-22.3-.2-33.4.2-2.6.1-5.2.2-7.8.4-10 .6-19.9 1.7-29.7 3.1-23.1 3.1-45.9 7.2-69.8 7.9-47.7 1.3-90.5-10.6-134.6-20.7-7.9-1.8-15.9-3.6-24-5.2-17.5-3.5-35.3-6.3-53.8-7.4-2.3-.1-5-.5-7.3-.9v-7.8c1.5-.5 2.9-.9 4.4-1.4.9-.3 1.9-.6 2.8-.9 13.9-4.4 27.7-8.7 41.6-13.1 19.9-6.3 45.8-4.9 67.6-8.7 6.6-1.2 12.9-2.8 19.6-3.8 9.3-1.4 19-1.5 28.7-1.5 14.1-.1 28.3-.2 42.4-.4l32.6-.3c19.7-.2 39.4-.3 59.1-.5 7.1-.1 14.4-.1 21 1.1 6.4 1.2 11.7 3.4 18 4.8 19.9 4.4 42.3-1.3 63.1-4.6.3 0 .5-.1.8-.1 8.4-1.3 17-2.2 25.6-2.9h.1c7.6-.6 15.2-1.1 22.8-1.6 4.3-.2 8.7-.5 13.1-.7z"/><path id="XMLID_1512_" class="st5" d="M336.4-6.1v4.5C319.9-.9 303.4 0 287 1c-24 1.6-47.9 3.6-71.8 5.2-37.3 2.6-75.4 4.3-112.5 1.2-31.6-2.7-62-8.8-94-9.7-21.5-.6-42.9 1.3-64.2 3-23.7 1.9-47.5 3.8-71.3 5.4v-7.6l16.2-.9C-84-3.7-57.3-5-30.6-5.7-3-6.4 25-6.3 51.6-2.8 73.2 0 93.8 4.9 116 5.7c22.5.8 44.7-2.6 67.2-2.7 13.7 0 27.5 1.1 40.9-.2 9.6-1 18.4-3.1 27.7-4.6 13.1-2 27-2.5 40.7-3 14.7-.3 29.3-.8 43.9-1.3z"/><path id="XMLID_1511_" class="st5" d="M336.4 26.5v5.6c-4.3.2-8.5.4-12.8.6-7.7.4-15.5.8-23.2 1.3h-.1c-8.7.7-17.3 1.5-25.6 2.9-.3 0-.5.1-.8.1-.9.1-1.8.3-2.6.5-16.1 3-31.7 8.1-48.9 7.3-14.1-.6-26.1-5.1-39.7-6.9-19.4-2.5-39.7.6-59.5 2.2-22.6 1.8-45.9 1.5-68.4-.7-9-.9-18.2-2.2-27.3-1.7-12.3.7-22.8 4.6-34.7 6.3-17 2.5-35.8.5-52.6 3.3-22 3.7-37.3 15.1-59.9 16.7-.9.1-1.8.1-2.7.2-.1.2-.1.5-.1.7.1 2.7 5.9 4.8 11 6.1 15 4 30.2 7.8 45.7 11.4 7.9 1.8 15.9 3.5 24 5.2 15.4 3.2 31 6.1 46.8 8.7 42.2 7 88.8 12.1 130.8 4.9 17-2.9 33.1-7.8 51.1-8.3 12.3-.3 24.5 1.5 36.8 1.3 22.7-.4 43.5-7.5 66.2-7.1 11.4.2 22.3 2.3 33.5 3.3 4.3.4 8.6.6 13 .7v5.4c-7 .1-13.9.1-20.8-.3-13.9-.8-27.8-3.3-41.6-3.8-4.8-.2-9.7-.1-14.5.4-7.3.7-14.1 2.4-21.3 3.4-1.6.2-3.1.4-4.7.5-13.4 1.2-27.4.4-41.2.5-4.5.1-9 .3-13.5.7-5.6.5-10.9 1.4-16.2 2.4-9.4 1.8-18.5 4.3-27.8 6.3-14.5 3.1-29.8 3.1-45.5 4-20 1.2-40.6-.6-58.6-5-6.7-1.7-13.1-3.7-20.4-4.7-8.9-1.2-18.4-.8-27.7-1.1-17.1-.6-33.8-3.9-46.9-9.2-18.1-7.4-30.6-13.8-56-14.2h-6.6V59.6c9.3-1.7 19.7-2.6 28.1-5.2 7.6-2.3 13.3-5.9 20.4-8.5 21-7.8 47.5-3.2 71.4-6.7 10-1.5 18.9-4.4 29.1-5.7 19.1-2.4 38.4 1.5 58 3.2 5.7.5 11.5.8 17.2.7 5.2-.1 10.3-.5 15.4-1 20-2.2 39.6-6.9 59.5-4.9 18.4 1.9 34.4 9.6 53.1 8.4 10.1-.6 18.8-3.8 28.6-5.2 24.7-3.5 47.1-.1 71.1-6.2 3.9-.9 7.7-1.6 11.4-2z"/><path id="XMLID_1510_" class="st5" d="M336.4 9.3v5.8c-24.6 2.1-49.1 4.2-73.7 6.3-24.6 2.1-49.7 4.2-74.5 2.7-13.7-.8-27.4-2.7-41-1.9-6.4.4-12.6 1.3-18.9 1.9-32.5 2.9-65.8-4.3-98.7-2.7-14.4.6-28.1 3-41.6 5.3-12.7 2.2-25.3 4.4-38 6.5-7.7 1.3-15.4 2.7-22.7 4.5-6.7 1.7-13 3.7-20.2 4.8-10.1 1.5-21 1-31.3 1.9-.9.1-1.8.2-2.6.3v-4.5c7.9-.2 15.8.3 23.3-.9 10.2-1.6 18-5.9 28.2-7.4 8.8-1.3 18.4-.5 27.3-1.6 9-1.1 16.4-4.1 24.3-6.5 24.5-7.3 53.8-8.3 81.8-7.9 13.8.2 28.6.3 42.2 1.1 11.7.7 26.1 4.5 37.8 2.4 3.4-.6 6.3-1.7 9.8-2.2 12.9-1.9 24.7 5.1 38.2 5.3 11.9.2 22.5-5 34.3-4.2 6.6.5 13 2.7 19.3 1.7 2.7-.4 4.9-1.3 7.2-2.1 13.4-4.1 28.6-.6 42.9-2 11.4-1.2 20.4-4.6 32.1-5.7 4.8-.3 9.6-.7 14.5-.9z"/><path id="XMLID_1509_" class="st5" d="M336.4 118v8.2c-13.6 1.6-27.3 3.1-41 3.8-30.4 1.6-61.4-.6-91.7 1.6-18 1.3-35.4 4.2-53.5 5.1-52.8 2.7-102.6-11.1-154.6-16.4-41.6-4.2-87.5-3.5-122.5-15v-3.7c31.2 10.7 72.8 10.4 110.8 13 58.9 4.1 116.5 16.4 175.6 13.3 25.4-1.4 50-5.6 75.6-5.9 17.5-.2 35 1.4 52.4.7 11.6-.5 22.8-2 34.2-3.2 4.9-.6 9.8-1.1 14.7-1.5z"/><path id="XMLID_1505_" class="st5" d="M-54.5 66.4c-.9 1.6 4.6 2.8 9.4 3.6 32.1 5.2 65.8 9.7 100.6 13.1 36.4 3.7 76.6 6.3 113 2.6 14.7-1.5 28.5-4.1 44.1-4.3 10.6-.2 21.1.8 31.8.7 19.6-.2 37.5-3.9 57.2-3.7 9.9.1 19.2 1.2 28.9 1.7 2 .1 4 .2 6 .2v3c-4.3 0-8.5 0-12.7-.2-16.3-.6-32.4-2.7-48.4-1.7-6.3.4-12.2 1.2-18.4 1.7-16.6 1.3-34.4 0-51.2.9-13.5.7-25.5 2.9-38 4.5s-25.7 1.6-39.3 2.1c-17.5.7-35.4-.3-50.8-2.6-5.8-.9-11.4-1.9-17.6-2.4-7.7-.6-15.9-.4-23.9-.6-14.8-.3-29.2-2-40.6-4.8-15.6-3.9-26.4-7.2-48.3-7.4-4.6 0-9.2.1-13.6-.3-4.4-.3-8.8-1.2-10-2.5-1.2-1.3 1.1-2.7 4.3-3.7 9.8-2.9 26-2.9 37.8-5.1 6.6-1.2 11.5-3.1 17.6-4.4 18.1-4.1 41-1.7 61.7-3.5 8.7-.8 16.4-2.3 25.1-3 21.2-1.6 43 2.2 64.9 2.1 22-.2 43.1-4.4 64.7-3.1 15.9 1 29.7 5 45.9 4.4 8.7-.3 16.2-2 24.7-2.7 21.3-1.8 40.6-.1 61.4-3.2 1.5-.2 3.1-.4 4.6-.6v2.6c-1.9 0-3.9.1-5.8.2-15.3.5-30.8.9-45.2 2.5-13.9 1.6-27.4 4.2-42.2 3.8-12.1-.3-22.5-2.7-34.3-3.6-16.7-1.3-34.2.3-51.3 1.1-19.5.9-39.7.8-59-.4-7.8-.5-15.7-1.1-23.6-.9-10.6.4-19.7 2.4-30 3.3-14.7 1.4-31 .4-45.5 1.8-19.7 2-33.2 8.4-54 8.8z"/><path id="XMLID_1504_" class="st5" d="M-.5 67.7c-.8.8 4.1 1.3 8.5 1.7 28.9 2.5 59.2 4.6 90.4 6.3 32.7 1.7 68.9 3 101.6 1.2 13.2-.7 25.6-1.9 39.6-2.1 9.5-.1 19 .4 28.6.3 17.6-.1 33.8-1.9 51.4-1.8 5.7 0 11.3.3 16.9.5v1.7c-13.6-.3-27.1-1.2-40.5-.7-5.7.2-11 .6-16.6.8-14.9.6-30.9 0-46.1.4-12.1.4-22.9 1.4-34.1 2.2-11.3.8-23.1.8-35.4 1-15.5.3-31.5-.1-45.5-1.2-5.2-.4-10.2-.9-15.8-1.2-6.9-.3-14.3-.2-21.5-.3-13.3-.1-26.2-1-36.4-2.3-14.1-1.8-23.8-3.4-43.5-3.5-4.1 0-8.3 0-12.2-.1-4-.1-7.9-.6-8.9-1.2-1.1-.6 1-1.3 3.9-1.8 8.8-1.4 23.4-1.4 34-2.4 5.9-.6 10.3-1.5 15.9-2.1 16.3-1.9 36.9-.8 55.4-1.7 7.8-.4 14.7-1.1 22.6-1.4 19.1-.8 38.6 1.1 58.4 1 19.8-.1 38.8-2.1 58.2-1.5 14.3.5 26.7 2.4 41.2 2.1 7.9-.1 14.6-.9 22.2-1.3 15.6-.7 29.9-.3 44.7-.9v.6c-10.7.2-21.3.5-31.3 1.1-12.5.7-24.6 2-38 1.8-10.9-.2-20.2-1.3-30.8-1.7-15-.6-30.8.1-46.2.5-17.6.5-35.7.4-53.1-.2-7-.2-14.1-.5-21.2-.4-9.6.2-17.7 1.1-27 1.6-13.2.6-27.8.1-40.8.8-17.8.9-29.9 4-48.6 4.2z"/></g></g></g></g><path id="XMLID_1531_" class="st48" d="M20.3 125V74.9c0-1.3 1.1-2.4 2.4-2.4h69.8c1.3 0 2.4 1.1 2.4 2.4V125"/><path id="XMLID_1529_" class="st48" d="M114.6 125V74.9c0-1.3 1.1-2.4 2.4-2.4h69.8c1.3 0 2.4 1.1 2.4 2.4V125"/><path id="XMLID_1528_" d="M101.1 0v57.1c0 1.6-1.3 2.9-2.9 2.9H12.7c-1.6 0-2.9-1.3-2.9-2.9V0" style="fill-rule:evenodd;clip-rule:evenodd;fill:#1bef52"/><path id="XMLID_1283_" class="st48" d="M189.2 0v50.5c0 1.3-1.1 2.4-2.4 2.4H117c-1.3 0-2.4-1.1-2.4-2.4V0"/></svg>