<svg id="Layer_1" data-name="Layer 1" xmlns="http://www.w3.org/2000/svg" xmlns:xlink="http://www.w3.org/1999/xlink" viewBox="0 0 210 125"><defs><style>.cls-3{fill:#104252}.cls-5{fill:red}.cls-7{fill:#ffda00}.cls-9{fill:#2ec8ff}</style><clipPath id="clip-path"><rect id="_Rectangle_" data-name="&lt;Rectangle&gt;" x="-260.92" y="156.91" width="632" height="121" style="fill:none"/></clipPath></defs><title>poschitay_cveta_peregruz game</title><g style="clip-path:url(#clip-path)"><rect class="cls-3" x="-260.92" y="-2.41" width="632" height="481.98"/><rect class="cls-3" x="-260.92" y="85.08" width="632" height="309.56"/><text transform="translate(-93.02 57.03) scale(0.99 1)" style="font-size:18.15px;fill:#fff;font-family:OpenSans-Semibold,Open Sans;font-weight:700">Посчитай какого цвета больше</text><ellipse class="cls-5" cx="169.58" cy="120.8" rx="19.5" ry="19.66"/></g><polygon id="_Path_" data-name="&lt;Path&gt;" points="210 125 0 125 0 22.91 0 0 10.08 0 210 0 210 125" style="fill-rule:evenodd;fill:#104252"/><circle class="cls-7" cx="146.58" cy="36.43" r="19.5" transform="translate(17.17 114.32) rotate(-45)"/><polygon id="_Path_2" data-name="&lt;Path&gt;" points="210.08 56.9 108.03 90.92 142.03 124.93 192.7 124.93 210.08 72.79 210.08 56.9" style="fill:#39b54a"/><polygon id="_Path_3" data-name="&lt;Path&gt;" class="cls-9" points="207.54 30.43 183.29 6.18 202.08 -0.09 210 0 210.04 22.93 207.54 30.43"/><polyline id="_Path_4" data-name="&lt;Path&gt;" class="cls-5" points="30.08 124.93 0 125 0.08 97.77 50.37 81.01 35.73 124.93"/><polyline class="cls-5" points="117.08 -0.07 94.51 22.93 71.08 -0.07"/><polyline class="cls-7" points="22.96 -0.09 30.74 5.72 47.88 -0.09 51.08 -0.09 54.05 -0.09 46.68 21.65 61.91 42.06 36.45 41.73 21.75 62.52 14.19 38.21 0.35 33.91 0.08 28.91 0.08 23.43 10.66 15.95 10.46 -0.08"/><rect class="cls-9" x="66.16" y="44.99" width="39" height="39" transform="translate(70.69 -41.68) rotate(45)"/></svg>