<svg id="Layer_1" data-name="Layer 1" xmlns="http://www.w3.org/2000/svg" viewBox="0 0 210 125"><defs><style>.cls-1{fill:#104252;fill-rule:evenodd}.cls-2{fill:#ffda00}.cls-4{fill:#2ec8ff}.cls-5{fill:red}.cls-6{fill:#fa5f02}</style></defs><title>poschitay_cveta_fin</title><polygon id="_Path_" data-name="&lt;Path&gt;" class="cls-1" points="210 125 0 125 0 22.91 0 0 10.08 0 210 0 210 125"/><circle class="cls-2" cx="146.58" cy="36.43" r="19.5" transform="translate(17.17 114.32) rotate(-45)"/><polygon id="_Path_2" data-name="&lt;Path&gt;" points="210.08 56.9 108.03 90.92 142.03 124.93 192.7 124.93 210.08 72.79 210.08 56.9" style="fill:#39b54a"/><polygon id="_Path_3" data-name="&lt;Path&gt;" class="cls-4" points="207.54 30.43 183.29 6.18 202.08 -0.09 210 0 210.04 22.93 207.54 30.43"/><polyline id="_Path_4" data-name="&lt;Path&gt;" class="cls-5" points="30.08 124.93 0 125 0.08 97.77 50.37 81.01 35.73 124.93"/><polyline class="cls-5" points="117.08 -0.07 94.51 22.93 71.08 -0.07"/><polyline class="cls-2" points="22.96 -0.09 30.74 5.72 47.88 -0.09 51.08 -0.09 54.05 -0.09 46.68 21.65 61.91 42.06 36.45 41.73 21.75 62.52 14.19 38.21 0.35 33.91 0.08 28.91 0.08 23.43 10.66 15.95 10.46 -0.08"/><rect class="cls-4" x="66.16" y="44.99" width="39" height="39" transform="translate(70.69 -41.68) rotate(45)"/><polygon id="_Path_5" data-name="&lt;Path&gt;" class="cls-1" points="210 125 0 125 0 22.91 0 0 10.08 0 210 0 210 125"/><circle class="cls-6" cx="146.58" cy="36.43" r="19.5" transform="translate(17.17 114.32) rotate(-45)"/><circle class="cls-4" cx="28.18" cy="33.43" r="19.5" transform="translate(-15.38 29.72) rotate(-45)"/><polygon id="_Path_6" data-name="&lt;Path&gt;" class="cls-4" points="210.08 56.9 108.03 90.92 142.03 124.93 192.7 124.93 210.08 72.79 210.08 56.9"/><polygon id="_Path_7" data-name="&lt;Path&gt;" class="cls-4" points="207.54 30.43 183.29 6.18 202.08 -0.09 210 0 210.04 22.93 207.54 30.43"/><polyline id="_Path_8" data-name="&lt;Path&gt;" class="cls-6" points="30.08 124.93 0 125 0.08 97.77 50.37 81.01 35.73 124.93"/><polyline class="cls-6" points="117.08 -0.07 94.51 22.93 71.08 -0.07"/><rect class="cls-4" x="66.16" y="44.99" width="39" height="39" transform="translate(70.69 -41.68) rotate(45)"/></svg>