<svg id="Слой_1" data-name="Слой 1" xmlns="http://www.w3.org/2000/svg" xmlns:xlink="http://www.w3.org/1999/xlink" viewBox="0 0 210 125"><defs><style>.cls-2{opacity:.8}.cls-5{fill:#dadada}.cls-6{fill:#ededed}.cls-7{fill:#fff}.cls-8{fill:none}.cls-14{opacity:.9}</style><linearGradient id="Безымянный_градиент_32" x1="21.25" y1="-3109.75" x2="188.75" y2="-3277.25" gradientTransform="matrix(1, 0, 0, -1, 0, -3131)" gradientUnits="userSpaceOnUse"><stop offset="0" stop-color="#fbb567"/><stop offset="0.51" stop-color="#f68461"/><stop offset="1" stop-color="#f1525b"/></linearGradient><linearGradient id="Безымянный_градиент_31" x1="4536.77" y1="-3481.71" x2="4536.77" y2="-3505.21" gradientTransform="matrix(-0.96, -0.27, 0.27, -0.96, 5454.15, -2101.46)" gradientUnits="userSpaceOnUse"><stop offset="0" stop-color="#28b1e4"/><stop offset="0.27" stop-color="#25aade"/><stop offset="0.66" stop-color="#1e98cf"/><stop offset="1" stop-color="#1582bd"/></linearGradient><linearGradient id="Безымянный_градиент_29" x1="4536.79" y1="-3474.94" x2="4536.79" y2="-3481.71" gradientTransform="matrix(-0.96, -0.27, 0.27, -0.96, 5454.15, -2101.46)" gradientUnits="userSpaceOnUse"><stop offset="0" stop-color="#28b1e4"/><stop offset="0.38" stop-color="#1e98cf"/><stop offset="0.73" stop-color="#1788c2"/><stop offset="1" stop-color="#1582bd"/></linearGradient><linearGradient id="Безымянный_градиент_28" x1="706.54" y1="-3758.71" x2="706.54" y2="-3768.25" gradientTransform="matrix(0.96, 0.26, 0.26, -0.96, 451.94, -3777.31)" gradientUnits="userSpaceOnUse"><stop offset="0" stop-color="#1878a9"/><stop offset="0.64" stop-color="#094a7f"/><stop offset="1" stop-color="#02366c"/></linearGradient><linearGradient id="Безымянный_градиент_32-2" x1="0.06" y1="-3171.39" x2="76.48" y2="-3171.39" xlink:href="#Безымянный_градиент_32"/><linearGradient id="Безымянный_градиент_32-3" x1="132.07" y1="-3214.29" x2="209.94" y2="-3214.29" xlink:href="#Безымянный_градиент_32"/><linearGradient id="Безымянный_градиент_31-2" x1="-310.4" y1="-2125.82" x2="-310.4" y2="-2149.32" gradientTransform="matrix(0.96, -0.27, -0.27, -0.96, -210.37, -2101.43)" xlink:href="#Безымянный_градиент_31"/><linearGradient id="Безымянный_градиент_29-2" x1="-310.37" y1="-2119.05" x2="-310.37" y2="-2125.82" gradientTransform="matrix(0.96, -0.27, -0.27, -0.96, -210.37, -2101.43)" xlink:href="#Безымянный_градиент_29"/><linearGradient id="Безымянный_градиент_31-3" x1="4915.69" y1="-3079.55" x2="4915.69" y2="-3109.35" gradientTransform="translate(5330.24 -2638.72) rotate(-175.43)" xlink:href="#Безымянный_градиент_31"/><linearGradient id="Безымянный_градиент_29-3" x1="4915.75" y1="-3070.96" x2="4915.75" y2="-3079.55" gradientTransform="translate(5330.24 -2638.72) rotate(-175.43)" xlink:href="#Безымянный_градиент_29"/><linearGradient id="Безымянный_градиент_28-2" x1="-323.62" y1="-2433.59" x2="-323.62" y2="-2436.47" gradientTransform="matrix(0.96, -0.27, -0.27, -0.96, -269.59, -2396.14)" xlink:href="#Безымянный_градиент_28"/><linearGradient id="Безымянный_градиент_28-3" x1="-323.6" y1="-2429.14" x2="-323.6" y2="-2440.91" gradientTransform="matrix(0.96, -0.27, -0.27, -0.96, -269.59, -2396.14)" xlink:href="#Безымянный_градиент_28"/><linearGradient id="Безымянный_градиент_28-4" x1="738.09" y1="-3069.01" x2="738.09" y2="-3091.01" xlink:href="#Безымянный_градиент_28"/><linearGradient id="Безымянный_градиент_31-4" x1="-74.86" y1="-2680.31" x2="-74.86" y2="-2710.11" gradientTransform="matrix(1, -0.08, -0.08, -1, -100.21, -2636.26)" xlink:href="#Безымянный_градиент_31"/><linearGradient id="Безымянный_градиент_29-4" x1="-74.88" y1="-2671.73" x2="-74.88" y2="-2680.31" gradientTransform="matrix(1, -0.08, -0.08, -1, -100.21, -2636.26)" xlink:href="#Безымянный_градиент_29"/><linearGradient id="Безымянный_градиент_28-5" x1="-34.93" y1="-3068.9" x2="-34.93" y2="-3089.97" gradientTransform="matrix(1, -0.04, -0.04, -1, -57.74, -3019.13)" xlink:href="#Безымянный_градиент_28"/><linearGradient id="Безымянный_градиент_28-6" x1="-27.04" y1="-3068.9" x2="-27.04" y2="-3089.97" gradientTransform="matrix(1, -0.04, -0.04, -1, -57.74, -3019.13)" xlink:href="#Безымянный_градиент_28"/><linearGradient id="Безымянный_градиент_28-7" x1="-31.51" y1="-3068.9" x2="-31.51" y2="-3089.97" gradientTransform="matrix(1, -0.04, -0.04, -1, -57.74, -3019.13)" xlink:href="#Безымянный_градиент_28"/><linearGradient id="Безымянный_градиент_28-8" x1="-38.4" y1="-3068.9" x2="-38.4" y2="-3089.97" gradientTransform="matrix(1, -0.04, -0.04, -1, -57.74, -3019.13)" xlink:href="#Безымянный_градиент_28"/><linearGradient id="Безымянный_градиент_28-9" x1="-43.54" y1="-3068.9" x2="-43.54" y2="-3089.97" gradientTransform="matrix(1, -0.04, -0.04, -1, -57.74, -3019.13)" xlink:href="#Безымянный_градиент_28"/><linearGradient id="Безымянный_градиент_31-5" x1="425.65" y1="-3298.18" x2="425.65" y2="-3331.07" gradientTransform="matrix(0.99, 0.17, 0.17, -0.99, 197.8, -3251.33)" xlink:href="#Безымянный_градиент_31"/><linearGradient id="Безымянный_градиент_29-5" x1="425.76" y1="-3288.7" x2="425.76" y2="-3298.18" gradientTransform="matrix(0.99, 0.17, 0.17, -0.99, 197.8, -3251.33)" xlink:href="#Безымянный_градиент_29"/><linearGradient id="Безымянный_градиент_28-10" x1="425.92" y1="-3301.68" x2="425.92" y2="-3327.58" gradientTransform="matrix(0.99, 0.17, 0.17, -0.99, 197.8, -3251.33)" xlink:href="#Безымянный_градиент_28"/><linearGradient id="Безымянный_градиент_31-6" x1="5352.57" y1="-2453.97" x2="5352.57" y2="-2486.86" gradientTransform="matrix(-0.99, 0.17, -0.17, -0.99, 5030.51, -3258.96)" xlink:href="#Безымянный_градиент_31"/><linearGradient id="Безымянный_градиент_29-6" x1="5352.6" y1="-2444.5" x2="5352.6" y2="-2453.97" gradientTransform="matrix(-0.99, 0.17, -0.17, -0.99, 5030.51, -3258.96)" xlink:href="#Безымянный_градиент_29"/><linearGradient id="Безымянный_градиент_28-11" x1="-229.69" y1="-2626.66" x2="-229.69" y2="-2651.6" gradientTransform="matrix(0.95, -0.31, -0.31, -0.95, -436.87, -2497.81)" xlink:href="#Безымянный_градиент_28"/></defs><title>icon</title><path d="M0 0h210v125H0z" style="fill:url(#Безымянный_градиент_32)"/><g class="cls-2"><path d="M147.47 28.4l17.6 5a.69.69 0 0 1 .5.8l-7.1 21a.69.69 0 0 1-.88.45h-.12L116.17 44a.71.71 0 0 1-.5-.8l4.8-21.6a.71.71 0 0 1 .85-.52h.05z" style="fill:url(#Безымянный_градиент_31)"/><path d="M124.77 18L150 25l1.6-1.8a1 1 0 0 1 1-.3l12 3.3a.59.59 0 0 1 .4.7l-.8 2.8-.9 3.2-16.2-4.6-24-6.7 1-3.2a.6.6 0 0 1 .67-.4z" style="fill:url(#Безымянный_градиент_29)"/><path class="cls-5" d="M157 30.1l-27.4-7.7.5-1.8a.5.5 0 0 1 .58-.4l26.5 7.4a.5.5 0 0 1 .3.6l-.5 2z"/><path class="cls-6" d="M158.47 31.6l-31-8.7.6-2a.5.5 0 0 1 .6-.3l29.9 8.4a.5.5 0 0 1 .41.58l-.6 2z"/><path class="cls-7" d="M161.17 32.4l-36.4-10.2.3-1a.61.61 0 0 1 .67-.53.31.31 0 0 1 .13 0l35 9.9a.6.6 0 0 1 .51.68l-.3 1z"/></g><polygon class="cls-8" points="125.17 29.7 124.27 41.3 137.17 47.4 138.07 40.9 142.07 41.5 142.57 36.8 145.07 36.8 150.27 37.1 148.97 32.4 131.17 27 125.17 29.7 125.17 29.7"/><g class="cls-2"><path d="M155.47 40.6l.2-2.9-1 2.7a1.67 1.67 0 0 1-1.3.9c-.7 0-1.9-.3-3.8-2.7-3-3.8-6.4-3.4-8.3-2.7-1.3-1.5-4-3.7-8.5-2-2.9 1.2-4.1.9-4.7.4a1.74 1.74 0 0 1-.5-1.4l.4-3-1.3 2.7a6.23 6.23 0 0 0-.3 4.7 5.73 5.73 0 0 0 3.8 3 11.21 11.21 0 0 0 10-.8 11.34 11.34 0 0 0 7.6 5.7l.7.2a5.67 5.67 0 0 0 4.9-.7 6.17 6.17 0 0 0 2.1-4.1zm-1.3 1.5a4.26 4.26 0 0 1-1.4 1.9 4.77 4.77 0 0 1-4 .5c-3.9-.9-6.3-2.7-7.9-5.8l-.2-.5-.5.3c-3 1.9-6 2.2-9.7 1a4.81 4.81 0 0 1-3.2-2.5 4.39 4.39 0 0 1-.2-2.3 2.52 2.52 0 0 0 .4.4c1.1.9 3 .8 5.6-.2 4.2-1.6 6.6.5 7.7 1.9l.2.3.3-.2a6.15 6.15 0 0 1 7.5 2.3c1.8 2.2 3.4 3.3 4.7 3a2.32 2.32 0 0 0 .7-.1z" style="fill:url(#Безымянный_градиент_28)"/></g><path d="M.06 16.5h76.1a.32.32 0 0 1 .32.32V64a.32.32 0 0 1-.32.32H.06z" style="fill:url(#Безымянный_градиент_32-2);isolation:isolate;opacity:.3"/><rect x="132.07" y="59.4" width="77.86" height="47.79" style="fill:url(#Безымянный_градиент_32-3);isolation:isolate;opacity:.3"/><g class="cls-2"><path d="M61.27 28.4l-17.6 5a.71.71 0 0 0-.5.8l7.1 21a.71.71 0 0 0 .89.45h.11L92.57 44a.69.69 0 0 0 .5-.8l-4.8-21.6a.7.7 0 0 0-.84-.52h-.06z" style="fill:url(#Безымянный_градиент_31-2)"/><path d="M84 18l-25.2 7-1.7-1.8a1 1 0 0 0-1-.3l-11.9 3.3a.61.61 0 0 0-.4.7l.8 2.8.9 3.2 16.2-4.7 24-6.7-1-3.2a.59.59 0 0 0-.7-.4z" style="fill:url(#Безымянный_градиент_29-2)"/><path class="cls-5" d="M51.57 27.7l26.5-7.5a.5.5 0 0 1 .6.38l.5 1.8L52 30.2l-.6-1.9a.5.5 0 0 1 .38-.6h-.18z"/><path class="cls-6" d="M50.17 28.9L80 20.6a.5.5 0 0 1 .6.3l.6 2-31 8.6-.5-1.9a.51.51 0 0 1 .26-.66h.14z"/><path class="cls-7" d="M47.77 30.6l35.1-9.9a.6.6 0 0 1 .78.34.14.14 0 0 1 0 .06l.3 1.1-36.38 10.2-.3-1.1a.6.6 0 0 1 .37-.77h.13z"/></g><g class="cls-14"><path d="M174.07 44.1l23 1.8a1 1 0 0 1 .9 1l-3.8 27.8a1 1 0 0 1-1 .8L139 71.2a1 1 0 0 1-.9-1l.8-28a1 1 0 0 1 1-.8z" style="fill:url(#Безымянный_градиент_31-3)"/><path d="M143.27 36.6l33 2.6 1.7-2.7a1.21 1.21 0 0 1 1.1-.7l15.7 1.3a.78.78 0 0 1 .7.8l-.3 3.6-.4 4.2-21.3-1.7-31.4-2.5.3-4.2a.81.81 0 0 1 .89-.7z" style="fill:url(#Безымянный_градиент_29-3)"/><path class="cls-5" d="M186.27 43.8l-36-2.9.2-2.4a.61.61 0 0 1 .6-.61h.1l34.7 2.8a.6.6 0 0 1 .61.59.41.41 0 0 1 0 .11z"/><path class="cls-6" d="M188.47 45.3l-40.6-3.3.2-2.6a.7.7 0 0 1 .7-.6l39.3 3.2a.69.69 0 0 1 .6.7z"/><path class="cls-7" d="M192 45.7l-47.7-3.9.2-1.4a.81.81 0 0 1 .8-.7l46.2 3.7a.81.81 0 0 1 .71.89l-.1 1.4z"/></g><polygon class="cls-8" points="49.47 37.7 65.77 36.6 66.27 37.3 66.67 41.5 68.77 41.3 69.87 41.8 70.07 45.4 65.47 45.9 76.97 47.7 84.37 33 70.97 29.6 55.77 33.3 49.47 37.7"/><path d="M70 39.1a4.63 4.63 0 0 0 2-1.1l1.3-1.4-1.9-.4a4.7 4.7 0 0 0-4.2 1.2l-1.4 1.3 1.9.4a4.81 4.81 0 0 0 2.2 0zm-2.4-1.3a4.12 4.12 0 0 1 3.7-1l.8.2-.6.6a4.1 4.1 0 0 1-3.7 1l-.8-.2z" style="fill:url(#Безымянный_градиент_28-2)"/><path d="M74.27 31.5a4.51 4.51 0 0 0-5.3.8l-.7.8-1-.3a4.51 4.51 0 0 0-5 2l-3.6 6.2-.2.4.5.3a19.08 19.08 0 0 0 10.6 2 9.47 9.47 0 0 0 3-.9 19 19 0 0 0 8.2-7.2l.2-.4zM67 33.7l1.5.4 1.1-1.2a3.61 3.61 0 0 1 4.3-.6l5.8 3.2a18.16 18.16 0 0 1-7.5 6.5 8.76 8.76 0 0 1-2.7.8 18.21 18.21 0 0 1-9.8-1.7l3.3-5.9a3.61 3.61 0 0 1 4-1.6z" style="fill:url(#Безымянный_градиент_28-3)"/><path d="M162.27 50.4h.4l.5.2a.79.79 0 0 1 .7-.2h.3a.78.78 0 0 1 .5.4h.9a.85.85 0 0 1 .5 0h.3a.77.77 0 0 1 .6.2h1a.89.89 0 0 1 .4-.2h.3a.77.77 0 0 1 .6.2h.7a.85.85 0 0 1 .5-.2l.3-.1a.79.79 0 0 1 .9.3h1.8c.5 0 1 .5 2 1.3l1.3 1.2a24.65 24.65 0 0 0 3 2.4 49.49 49.49 0 0 0 4.9 2.3l.3.2a3.78 3.78 0 0 1 1 4.2 1.69 1.69 0 0 1-.3 1 10.23 10.23 0 0 1-.7 1.5 8 8 0 0 1-3.3 3.7 1.7 1.7 0 0 1-1 .1l-.9 1.5-3-1.6.8-1.4-.4-.3-1-.7-1 1.6-3.1-1.6 1-1.6a65.42 65.42 0 0 1-7.7-3.2l-.7 1.2-3.1-1.6.7-1.2-1-.6-.8 1.3-3-1.9.8-1.1-.7-.5-.8 1.1-2.9-1.9.8-1.2-.7-.5-1 1.2-2.7-2.2 1-1.3a1.81 1.81 0 0 1-.4-2.5 2 2 0 0 1 1-1c1.3-.8 4-.5 8.3 1l1.6.4.4.1m15.8 18l1.3.7.9-1.3.3.1a1.05 1.05 0 0 0 .7 0 6.93 6.93 0 0 0 2.9-3.2 9.08 9.08 0 0 0 .6-1.4l.4-1a2.88 2.88 0 0 0-.8-3s-2.8-1.3-5-2.5a23.21 23.21 0 0 1-3.1-2.6l-1.4-1.2c-1-.9-1.3-1-1.4-1h-4.67v-.3l-.1.3h-2.3v-.3l-.1.2h-.4l-.9-.1h-.5l-.5-.1v-.2h-.5l-.8-.2h-.5l-.4-.2-1.7-.5c-4.8-1.6-6.7-1.4-7.5-1a1 1 0 0 0-.4.6v.1l-.1.1a1.16 1.16 0 0 0-.2.4s0 .3.7 1.1l.3.4-1 1.2 1.1 1 1-1.3.4.3 1.5 1.1.4.3-1.1 1.2 1.2.8.8-1.1.5.2 1.5 1 .4.3-.8 1.2 1.2.8 1-1.3.3.3 2 1 .4.2-.8 1.2 1.3.7.8-1.2.4.2a64.51 64.51 0 0 0 8.1 3.4l.5.1.5.2-1.1 1.8 1.3.7 1-1.8.5.3 1.6 1 .7.6.4.3z" style="fill:url(#Безымянный_градиент_28-4);opacity:.9;isolation:isolate"/><g class="cls-14"><path d="M34.57 44.1l-23 1.8a1 1 0 0 0-.8 1l3.8 27.8a1 1 0 0 0 1 .8l54.3-4.3a1 1 0 0 0 .9-1l-.8-28a1 1 0 0 0-1-.8z" style="fill:url(#Безымянный_градиент_31-4)"/><path d="M65.47 36.6l-33.1 2.6-1.6-2.7a1.2 1.2 0 0 0-1.2-.7L14 37.2a.8.8 0 0 0-.7.8l.3 3.6.3 4.2 21.4-1.7 31.4-2.5-.3-4.2a.79.79 0 0 0-.88-.7z" style="fill:url(#Безымянный_градиент_29-4)"/><path class="cls-5" d="M22.77 40.7l34.8-2.8a.6.6 0 0 1 .7.49v.11l.2 2.4-36 3-.2-2.5a.61.61 0 0 1 .49-.7z"/><path class="cls-6" d="M20.67 42.2l39.4-3.2a.69.69 0 0 1 .8.59l.1 2.6-40.8 3.2L20 42.8a.71.71 0 0 1 .6-.7z"/><path class="cls-7" d="M17.27 43.4l46.2-3.7a.8.8 0 0 1 .8.7l.2 1.4-47.8 3.9-.1-1.4a.81.81 0 0 1 .69-.9z"/></g><g class="cls-14"><path d="M49 67.8a3.66 3.66 0 0 0 1.3-2.5 4 4 0 0 0-1.3-3.1l-.1-.2-4.5-5-.1-.1a2.46 2.46 0 0 0-.4-.3 2.9 2.9 0 0 0-.7-.3 4.91 4.91 0 0 0-1.7-.3 3.46 3.46 0 0 0-2.3 1l-.3.2-.3.4-.1.1v.1l-4.5 6v.1a3.56 3.56 0 0 0-.3 1.4 4 4 0 0 0 .3 2 5.09 5.09 0 0 0 .3.5q.15.17.3.3l.1.1a2.63 2.63 0 0 0 .5.5 3.07 3.07 0 0 0 .5.2 2.89 2.89 0 0 0 .9.3h1a12.22 12.22 0 0 0 2.4-.6l.3-.1.3-.1h.2l1.2-.2a8.26 8.26 0 0 1 2.1.3 10.38 10.38 0 0 0 2.4.4h.4a3.54 3.54 0 0 0 2.1-1zm-2.2 0h-.3a9.5 9.5 0 0 1-2.1-.4 9.11 9.11 0 0 0-2.5-.3l-1.3.2h-.2l-.4.2h-.3a11.75 11.75 0 0 1-2.2.7h-.7a1.94 1.94 0 0 1-.5-.2H36l-.3-.2a2.61 2.61 0 0 1-.3-.2l-.2-.2-.2-.2c-.07-.13-.14-.26-.2-.4a3.06 3.06 0 0 1-.3-1.6 2.52 2.52 0 0 1 .3-1l4.3-6 .1-.1.3-.3c.07-.07.13-.14.2-.2a2.49 2.49 0 0 1 1.6-.7 3.9 3.9 0 0 1 1.4.2 1.87 1.87 0 0 1 .4.2h.1l.2.1.1.1 4.4 5 .2.2a3 3 0 0 1 1 2.5 2.67 2.67 0 0 1-1 1.8 2.56 2.56 0 0 1-1.4.7z" style="fill:url(#Безымянный_градиент_28-5)"/><path d="M50.67 54.4a1.79 1.79 0 0 0-1.4 0 4.62 4.62 0 0 0-2.1 2.5 3.12 3.12 0 0 0 0 2.4 2.43 2.43 0 0 0 1.3 1.3 2.27 2.27 0 0 0 .9 0 2.47 2.47 0 0 0 .9-.1 3.06 3.06 0 0 0 1.6-1.8 4.47 4.47 0 0 0-.1-3.2 2 2 0 0 0-1.1-1.1zm.3 4a2.09 2.09 0 0 1-1.1 1.2 1.3 1.3 0 0 1-1.74-.6l-.06-.12a2.11 2.11 0 0 1 0-1.6 3.65 3.65 0 0 1 1.6-1.9 1.18 1.18 0 0 1 .4-.1.51.51 0 0 1 .3 0 1.06 1.06 0 0 1 .5.6 3.37 3.37 0 0 1 .1 2.4z" style="fill:url(#Безымянный_градиент_28-6)"/><path d="M47.77 53c.3-2-.7-4.6-2.4-4.8s-3.2 2-3.5 3.8a3.84 3.84 0 0 0 .6 2.8 2.81 2.81 0 0 0 1.8 1.1 2.09 2.09 0 0 0 .5 0 2.77 2.77 0 0 0 1.5-.5 3.81 3.81 0 0 0 1.5-2.4zm-2 1.6a1.61 1.61 0 0 1-2.5-.4 2.82 2.82 0 0 1-.4-2c.2-1.5 1.2-3 2.2-3h.1c1 .1 1.9 2.1 1.6 3.6a2.77 2.77 0 0 1-1 1.8z" style="fill:url(#Безымянный_градиент_28-7)"/><path d="M39 48.7a2.6 2.6 0 0 0-1.8-.6 2.71 2.71 0 0 0-2 1.9 6.65 6.65 0 0 0-.4 3 4 4 0 0 0 1.4 2.6 3 3 0 0 0 2 .7h.2a3 3 0 0 0 2-1.1 4 4 0 0 0 .7-3 5.66 5.66 0 0 0-2-3.5zm.5 5.8a1.92 1.92 0 0 1-1.2.8 1.89 1.89 0 0 1-1.5-.4 3.06 3.06 0 0 1-1-2c-.2-1.6.4-3.7 1.5-3.8a1.78 1.78 0 0 1 1.2.4 4.67 4.67 0 0 1 1.6 2.8 3 3 0 0 1-.63 2.2z" style="fill:url(#Безымянный_градиент_28-8)"/><path d="M35.77 57.2a5 5 0 0 0-1.6-2.2 2.81 2.81 0 0 0-2.5-.8 2 2 0 0 0-1.1 1 5.31 5.31 0 0 0-.3 3.7 3.31 3.31 0 0 0 3.1 2.4 3 3 0 0 0 .6 0 3.11 3.11 0 0 0 1.81-4zm-2 3a2.1 2.1 0 0 1-2.5-1.6 4.36 4.36 0 0 1 .1-3 1 1 0 0 1 .6-.4h.2a3.46 3.46 0 0 1 2.6 2.4 2.09 2.09 0 0 1-1 2.7z" style="fill:url(#Безымянный_градиент_28-9)"/></g><path d="M55.77 68.6l-25.1-4.2a1 1 0 0 0-1.19.76L26 95.9a1 1 0 0 0 .76 1.19l59.4 10a1 1 0 0 0 1.1-.89l6.8-30a1 1 0 0 0-.75-1.2z" style="fill:url(#Безымянный_градиент_31-5)"/><path d="M90.87 69l-36.2-6.1-1-3.4c-.2-.7-.5-1-1-1l-17-3a.79.79 0 0 0-1 .57v.13l-.7 4-.8 4.6 23.3 4L91 74.4l.7-4.6a.8.8 0 0 0-.57-1H91z" style="fill:url(#Безымянный_градиент_29-5)"/><path class="cls-5" d="M44.07 61.9l38 6.4a.69.69 0 0 1 .5.8l-.5 2.6-39.2-6.5.4-2.7a.7.7 0 0 1 .8-.5z"/><path class="cls-6" d="M41.47 62.6l42.8 7.3a.78.78 0 0 1 .6.8l-.5 2.9-44.3-7.5.5-2.9a.81.81 0 0 1 .9-.6z"/><path class="cls-7" d="M37.47 63.2l50.3 8.6a.9.9 0 0 1 .81 1l-.3 1.5-52.1-8.8.2-1.5a.91.91 0 0 1 1-.8h.11z"/><path d="M72.17 75.5c-.7.3-1.4 0-2.4-.4a12 12 0 0 0-3.5-.9c-3.4-.3-5.3 3.2-5.4 3.4l-.2.3-.8 1a11.13 11.13 0 0 0-.4-1.8.47.47 0 0 0-.6-.3.48.48 0 0 0-.3.6 10.65 10.65 0 0 1 .5 2 8.83 8.83 0 0 1-1-.3 7.75 7.75 0 0 0-3.7-.8 6.91 6.91 0 0 0-4.1 2 9 9 0 0 0-2.6 5 15.38 15.38 0 0 0 2.6 10.2 5.63 5.63 0 0 0 3.4 2.6 7.39 7.39 0 0 0 2.1 0 3.52 3.52 0 0 1 2 .3 7.21 7.21 0 0 0 2 .7 5.5 5.5 0 0 0 4-1.2 15.39 15.39 0 0 0 6-8.8 8.92 8.92 0 0 0-.8-5.7 7.18 7.18 0 0 0-1.8-2.3 4.09 4.09 0 0 0 .7 0 6.18 6.18 0 0 0 3.8-2.8 9.43 9.43 0 0 0 1.1-2.2l.4-1zm-10.6 2.8a5.84 5.84 0 0 1 1.1.8l.9.6a12.06 12.06 0 0 0-1.7 0h-.6a8.34 8.34 0 0 1-1 0zm6.9 10.6a14.26 14.26 0 0 1-5.5 8 4.3 4.3 0 0 1-3 1 6.33 6.33 0 0 1-1.6-.6 4.81 4.81 0 0 0-2.8-.4 6.05 6.05 0 0 1-1.7 0 4.56 4.56 0 0 1-2.6-2 14.23 14.23 0 0 1-2.4-9.2c.5-2.7 2.4-5.8 5.6-6a6.64 6.64 0 0 1 3.1.7 9.1 9.1 0 0 0 1.5.5v.7l-1.6-.2c-.1.4.6 1 1.5 1.2l.5.1h.4c1 .1 1.8-.2 1.9-.6L60 81.7V81a8 8 0 0 0 1.2 0h.8a6.69 6.69 0 0 1 3.2.4c2.97 1.3 3.8 4.8 3.27 7.5zm-.8-8.8c-1.8.4-3.2-.8-4.4-1.8a7 7 0 0 0-1.2-.8 7.14 7.14 0 0 1 .9-1 4 4 0 0 1 3.2-1.3 11.3 11.3 0 0 1 3.3.8 6 6 0 0 0 2.1.6 6.25 6.25 0 0 1-3.9 3.5z" style="fill:url(#Безымянный_градиент_28-10)"/><path d="M153 68.6l25.1-4.2a1 1 0 0 1 1.2.76l3.5 30.7a1 1 0 0 1-.76 1.19l-59.4 10a1 1 0 0 1-1.09-.89l-6.8-30a1 1 0 0 1 .76-1.19z" style="fill:url(#Безымянный_градиент_31-6)"/><path d="M117.87 69L154 62.9l1-3.4c.3-.7.6-1 1.1-1l17-3a.8.8 0 0 1 1 .57.59.59 0 0 1 0 .13l.7 4 .7 4.6-23.3 3.9-34.2 5.8-.8-4.6a.81.81 0 0 1 .57-1h.13z" style="fill:url(#Безымянный_градиент_29-6)"/><path class="cls-5" d="M166 65.1l-39.4 6.6-.4-2.6a.71.71 0 0 1 .5-.8l38-6.4a.69.69 0 0 1 .8.5l.4 2.7z"/><path class="cls-6" d="M168.67 66.1l-44.4 7.5-.5-2.8a.81.81 0 0 1 .69-.9l42.8-7.2a.8.8 0 0 1 1 .55l.4 2.8z"/><path class="cls-7" d="M172.57 65.5l-52.1 8.8-.3-1.5a.91.91 0 0 1 .7-1l50.4-8.5a.9.9 0 0 1 1 .7z"/><path d="M147.47 73.6a12.5 12.5 0 1 0 15.73 8.08v-.08a12.5 12.5 0 0 0-15.73-8zm-7.3 13l.5-1 2.1 2 1.4 4.7-.5 1.2-.2-.1a11.15 11.15 0 0 1-3.3-6.7zm14.5 9.5a11.25 11.25 0 0 1-2 .4l-1.4-2.5 3.3-3.4 4.2-.6.9 2.8a11 11 0 0 1-5 3.3zm-8.3-.7l-1.3-.7-.8-.6.6-1.4 5.6 1.4 1.4 2.5a11.06 11.06 0 0 1-5.5-1.2zm9.4-20.1l-1.6.8-4.7-.9-.2-.7a11.15 11.15 0 0 1 6.5.8zM144 87.5l2.7-3.4 5.1.8 2 5-3.3 3.3-5.1-1.3zm8-3.8l-5-.8-.8-3.8 3.4-3 4.2.8 1.5 3.7zm7.8.3l-.8 5.2-4.6.7-2-5.5 3.5-3.4zm-18.3-3.6l.7-.1 3.2-1 .9 4.1-3 3.7-2.4-2.3-.5-.4 1-3.8zm20 1.4l-1.5 1.4-3.5-2.7-1.5-3.7 1.7-1 .9.5a10.93 10.93 0 0 1 3.3 3.4zm-1.6 7.5l.6-5 1.6-1.4.2.3a11.07 11.07 0 0 1-1.6 8.4zm-11.1-14l-3.5 3.1-2.9 1V79a11 11 0 0 1 5.7-4.2l.6-.1z" style="fill:url(#Безымянный_градиент_28-11)"/></svg>