<svg id="Слой_1" data-name="Слой 1" xmlns="http://www.w3.org/2000/svg" xmlns:xlink="http://www.w3.org/1999/xlink" viewBox="0 0 210 125"><defs><style>.cls-4{fill:#316631}.cls-5{fill:#383a3a}.cls-6,.cls-7{fill:#f1f0ef}.cls-6{opacity:.7;isolation:isolate}.cls-8{fill:#f7cd3e}.cls-9{fill:#fff}.cls-10{fill:#1e3b44}</style><linearGradient id="Безымянный_градиент_13" x1="-8.59" y1="-1725.93" x2="218.59" y2="-1665.06" gradientTransform="matrix(1, 0, 0, -1, 0, -1633)" gradientUnits="userSpaceOnUse"><stop offset="0" stop-color="#b6ea6a"/><stop offset="0.21" stop-color="#bde765"/><stop offset="0.49" stop-color="#cfe059"/><stop offset="0.83" stop-color="#edd444"/><stop offset="1" stop-color="#ffcd37"/></linearGradient><clipPath id="clip-path"><rect width="210" height="125" style="fill:none"/></clipPath></defs><rect id="_Rectangle_2" data-name=" Rectangle 2" width="210" height="125" style="fill:url(#Безымянный_градиент_13)"/><g style="clip-path:url(#clip-path)"><path class="cls-4" d="M18.11 66.71l2.43 1.88s25.83-37.85 32.71-39.15 16-1 17.06-2.79c.39-.68 0-1.44-.74-2.12A6 6 0 0 0 64.11 23l-8.93 2a16.7 16.7 0 0 0-9.64 6.14c-8.21 10.7-27.32 35.55-27.43 35.57z"/><path class="cls-4" d="M52.69 17.49l2.61 1.61S29 56.59 30.17 63.5s4.74 15.34 3.39 17c-.5.6-1.36.47-2.25 0A6 6 0 0 1 28 76l-1.28-9a16.74 16.74 0 0 1 2.33-11.3c7.12-11.48 23.67-38.11 23.64-38.21z"/><path class="cls-5" d="M19.91 67.71L19 69.3a.63.63 0 0 1-.85.25.64.64 0 0 1-.25-.86l.9-1.64a.63.63 0 1 1 1.11.61z"/><path class="cls-4" d="M52.38 16.54L44.91 23c-10 9.47-7.09 18.83-7.09 18.83a20.19 20.19 0 0 0-1.7 2.31 19.08 19.08 0 0 0-1.56 2.41s-9.79.56-15.13 13.26L16 69.1a1 1 0 0 0 .35 1.11l2.07 1.44a1 1 0 0 0 1.32-.24l.94-1.36s14.48 8.25 21-2.3c0 0 6.83-9.84-2.91-20.07a2.12 2.12 0 0 1 0-1.64 2 2 0 0 1 1.52-.61c13 5.52 19.81-4.33 19.81-4.33 7.58-9.8-5.23-20.49-5.23-20.49l.94-1.36a1 1 0 0 0-.24-1.32l-2.07-1.44a1 1 0 0 0-1.12.05zM37.91 50.67A12.47 12.47 0 0 1 41.09 61a14.38 14.38 0 0 1-1.76 5.2v.06l-.3.46C36.91 69.73 33.59 71 29 70c-5.24-1.18-8.66-4.6-8.18-5.92l1.2-3.3a25.56 25.56 0 0 1 2.39-4.47c4.49-6.48 10.18-7 10.23-7a4 4 0 0 1 3.27 1.36zm19.92-22.29c2.57 3.92 2.54 7.48.41 10.54l-.32.44v.06a14.41 14.41 0 0 1-4.25 3.47 12.53 12.53 0 0 1-10.74.64 4.07 4.07 0 0 1-2.39-2.59s-1.55-5.56 2.94-12a25.22 25.22 0 0 1 3.35-3.87l2.66-2.28c1.06-.91 5.47 1.09 8.42 5.58z"/><path class="cls-6" d="M24.44 56.3A24.82 24.82 0 0 0 22 60.8l-1.2 3.3c-.49 1.32 2.94 4.74 8.2 5.9 4.58 1 7.89-.26 10-3.32.11-.15.2-.3.3-.46v-.06A14.38 14.38 0 0 0 41 61a12.51 12.51 0 0 0-3.12-10.31 4 4 0 0 0-3.24-1.37c-.02-.02-5.73.52-10.2 6.98z"/><path class="cls-6" d="M49.41 22.79l-2.66 2.28a25.22 25.22 0 0 0-3.35 3.87c-4.48 6.48-3 12-2.94 12a4.07 4.07 0 0 0 2.39 2.59 12.53 12.53 0 0 0 10.74-.64 14.41 14.41 0 0 0 4.25-3.47v-.06l.32-.44c2.12-3.06 2.16-6.62-.41-10.54-2.84-4.5-7.28-6.5-8.34-5.59z"/><path class="cls-7" d="M18.46 68l-.49.7a.62.62 0 0 0 .16.86.62.62 0 0 0 .86-.16l.49-.71a.62.62 0 0 0-.16-.86.62.62 0 0 0-.86.16z"/><path class="cls-7" d="M51.09 28.62l-.49.71a.62.62 0 0 0 .16.86.62.62 0 0 0 .86-.16l.49-.71a.62.62 0 0 0-.16-.86.62.62 0 0 0-.86.16z"/><path class="cls-8" d="M193.8 47.77l-.62 1.12a1.11 1.11 0 0 1-1.49.48L189 48l1.59-3.09 2.69 1.38a1.1 1.1 0 0 1 .52 1.48z"/><rect class="cls-4" x="172.65" y="20.14" width="4.56" height="37.22" transform="translate(60.29 176.45) rotate(-62.71)"/><polygon class="cls-5" points="157.32 32.22 159.41 28.17 151.41 26.65 151.23 27.05 157.32 32.22"/><rect class="cls-9" x="186.79" y="43.32" width="4.56" height="5.42" transform="translate(61.47 192.95) rotate(-62.71)"/><polygon class="cls-5" points="151.41 26.65 151.23 27.05 153.65 29.1 154.62 27.26 151.41 26.65"/><polygon class="cls-7" points="159.41 28.17 154.62 27.26 153.65 29.1 157.32 32.22 159.41 28.17"/><rect class="cls-8" x="80.26" y="45.49" width="77.72" height="91.85" transform="translate(-30.46 104.5) rotate(-42.5)"/><path class="cls-9" d="M91.53 94.84a.77.77 0 0 1-.34-.22l-8.49-9.26a.81.81 0 0 1 0-1.14l32.3-29.6a.81.81 0 0 1 1.14 0l8.49 9.26a.8.8 0 0 1 0 1.13l-32.3 29.63a.81.81 0 0 1-.8.17zm-8.11-10L91.79 94 124 64.44l-8.37-9.13z"/><rect class="cls-9" x="88.09" y="81.71" width="45.18" height="1.12" rx="0.51" ry="0.51" transform="translate(-26.51 96.39) rotate(-42.5)"/><polygon class="cls-4" points="169.25 88.42 152.89 103.16 156 103.7 156.22 106.86 172.58 92.12 169.25 88.42"/><path class="cls-10" d="M65.8 74.36a1.07 1.07 0 0 1 1.51.06l4.07 4.41a1.07 1.07 0 0 1-.06 1.51 1.07 1.07 0 0 1-1.51-.06l-4.06-4.45a1.07 1.07 0 0 1 .06-1.51z"/><path class="cls-10" d="M72.68 68.07a1.07 1.07 0 0 1 1.51.06l4.07 4.44a1.07 1.07 0 0 1-.06 1.51 1.07 1.07 0 0 1-1.51-.08l-4.07-4.44a1.07 1.07 0 0 1 .06-1.51z"/><path class="cls-10" d="M79.55 61.77a1.07 1.07 0 0 1 1.51.06l4.07 4.44a1.07 1.07 0 0 1 0 1.51h-.05a1.07 1.07 0 0 1-1.51-.06l-4.07-4.44a1.07 1.07 0 0 1 .06-1.51z"/><path class="cls-10" d="M86.42 55.48a1.07 1.07 0 0 1 1.51.06L92 60a1.07 1.07 0 0 1-.06 1.51 1.07 1.07 0 0 1-1.51-.06L86.34 57a1.07 1.07 0 0 1 0-1.51z"/><path class="cls-10" d="M93.29 49.18a1.07 1.07 0 0 1 1.51 0l4.07 4.44a1.07 1.07 0 0 1-.06 1.51 1.07 1.07 0 0 1-1.51-.06l-4.08-4.45a1.07 1.07 0 0 1 .07-1.44z"/><path class="cls-10" d="M100.16 42.84a1.07 1.07 0 0 1 1.51.06l4.07 4.44a1.07 1.07 0 0 1-.06 1.51 1.07 1.07 0 0 1-1.51-.06l-4.07-4.44a1.07 1.07 0 0 1 0-1.51z"/><path class="cls-10" d="M107 36.59a1.07 1.07 0 0 1 1.51.06l4.07 4.44a1.07 1.07 0 0 1-.06 1.51 1.07 1.07 0 0 1-1.51-.06l-4-4.44a1.07 1.07 0 0 1 0-1.51z"/></g></svg>