<svg id="Слой_1" data-name="Слой 1" xmlns="http://www.w3.org/2000/svg" xmlns:xlink="http://www.w3.org/1999/xlink" viewBox="0 0 210 125"><defs><style>.cls-19,.cls-3{fill:#432918}.cls-3{opacity:.2;isolation:isolate}.cls-5{fill:#fff}.cls-6{fill:#8bc75a}.cls-7{fill:#f9ab58}.cls-8{fill:#e96b72}.cls-9{fill:#49a5dc}.cls-11,.cls-21{fill:#fec260;stroke:#ffdbab;stroke-miterlimit:10}.cls-11{stroke-width:1.15px}.cls-21{stroke-width:1.18px}</style><linearGradient id="Безымянный_градиент_19" y1="-2057.5" x2="210" y2="-2057.5" gradientTransform="matrix(1, 0, 0, -1, 0, -1995)" gradientUnits="userSpaceOnUse"><stop offset="0" stop-color="#cc633c"/><stop offset="1" stop-color="#cc633c"/></linearGradient><clipPath id="clip-path"><rect width="210" height="125" style="fill:none"/></clipPath><linearGradient id="Безымянный_градиент_18" x1="-134.03" y1="-502.43" x2="-134.03" y2="-494.36" gradientTransform="matrix(0.88, -0.47, -0.47, -0.88, 54.42, -447.3)" gradientUnits="userSpaceOnUse"><stop offset="0" stop-color="#be711d"/><stop offset="0.13" stop-color="#c2771f"/><stop offset="0.62" stop-color="#cf8726"/><stop offset="1" stop-color="#d38d29"/></linearGradient><linearGradient id="Безымянный_градиент_15" x1="-42.36" y1="-1814.07" x2="-42.36" y2="-1849.89" gradientTransform="matrix(0.96, -0.28, -0.28, -0.96, -303.48, -1730.29)" gradientUnits="userSpaceOnUse"><stop offset="0" stop-color="#fec260"/><stop offset="0.23" stop-color="#feca79"/><stop offset="0.53" stop-color="#ffd495"/><stop offset="0.8" stop-color="#ffd9a5"/><stop offset="1" stop-color="#ffdbab"/></linearGradient><linearGradient id="Безымянный_градиент_18-2" x1="824.43" y1="-4377.12" x2="824.43" y2="-4369.05" gradientTransform="matrix(1, 0.07, 0.07, -1, -339.21, -4316.73)" xlink:href="#Безымянный_градиент_18"/><linearGradient id="Безымянный_градиент_15-2" x1="-95.44" y1="-1662.95" x2="-95.44" y2="-1702.49" gradientTransform="matrix(0.94, -0.34, -0.34, -0.94, -298.83, -1527.33)" xlink:href="#Безымянный_градиент_15"/><linearGradient id="Безымянный_градиент_18-3" x1="457.9" y1="-52.42" x2="457.9" y2="-44.35" gradientTransform="matrix(0.93, -0.38, -0.38, -0.93, -309.66, 230.6)" xlink:href="#Безымянный_градиент_18"/><linearGradient id="Безымянный_градиент_15-3" x1="471.56" y1="-2366.97" x2="471.56" y2="-2405.73" gradientTransform="matrix(1, -0.03, -0.03, -1, -405.86, -2286.64)" xlink:href="#Безымянный_градиент_15"/><linearGradient id="Безымянный_градиент_18-4" x1="1458.98" y1="-3235.86" x2="1458.98" y2="-3227.79" gradientTransform="matrix(0.92, 0.39, 0.39, -0.92, 107.15, -3509.56)" xlink:href="#Безымянный_градиент_18"/><linearGradient id="Безымянный_градиент_15-4" x1="1236.57" y1="-2748.73" x2="1236.57" y2="-2781.91" gradientTransform="matrix(0.95, 0.3, 0.3, -0.95, -146.22, -2988.31)" xlink:href="#Безымянный_градиент_15"/><linearGradient id="Безымянный_градиент_18-5" x1="1326.59" y1="-740.01" x2="1326.59" y2="-731.79" gradientTransform="matrix(0.98, 0.19, 0.19, -0.98, -1102.66, -860.44)" xlink:href="#Безымянный_градиент_18"/><linearGradient id="Безымянный_градиент_15-5" x1="1411.34" y1="-2482.54" x2="1411.34" y2="-2522.22" gradientTransform="matrix(0.84, 0.54, 0.54, -0.84, 216.53, -2769.58)" xlink:href="#Безымянный_градиент_15"/><linearGradient id="Безымянный_градиент_18-6" x1="1292.4" y1="-2297.12" x2="1292.4" y2="-2288.9" gradientTransform="matrix(0.87, 0.5, 0.5, -0.87, 29.66, -2573.54)" xlink:href="#Безымянный_градиент_18"/><linearGradient id="Безымянный_градиент_15-6" x1="1343.99" y1="-2464.42" x2="1343.99" y2="-2497.02" gradientTransform="matrix(0.84, 0.54, 0.54, -0.84, 216.53, -2769.58)" xlink:href="#Безымянный_градиент_15"/><linearGradient id="Безымянный_градиент_18-7" x1="1627.27" y1="-3361.32" x2="1627.27" y2="-3353.1" gradientTransform="matrix(0.73, 0.69, 0.69, -0.73, 1124.54, -3458.15)" xlink:href="#Безымянный_градиент_18"/><linearGradient id="Безымянный_градиент_15-7" x1="1368.74" y1="-2509.51" x2="1368.74" y2="-2545.63" gradientTransform="matrix(0.84, 0.54, 0.54, -0.84, 216.53, -2769.58)" xlink:href="#Безымянный_градиент_15"/></defs><rect width="210" height="125" style="fill:url(#Безымянный_градиент_19)"/><rect class="cls-3" y="37.25" width="210" height="4.47"/><rect class="cls-3" y="83.28" width="210" height="4.47"/><g style="clip-path:url(#clip-path)"><path class="cls-5" d="M91.42 27.34l37.27 14.8a40.38 40.38 0 0 0-.34-30.73z"/><path class="cls-5" d="M106.38-10.29l-.37-.15a40.38 40.38 0 0 0-30.73.34l16.14 37.44z"/><path class="cls-5" d="M128.35 11.42a40.36 40.36 0 0 0-22-21.71l-15 37.63z"/><path class="cls-5" d="M91.42 27.34L76.42 65a40.36 40.36 0 0 0 30.88-.71z"/><path class="cls-5" d="M91.42 27.34l15.92 36.93a40.38 40.38 0 0 0 21.35-22.13z"/><path class="cls-5" d="M91.42 27.34L75.27-10.11a40.37 40.37 0 0 0-21.86 22.34l38 15.11z"/><path class="cls-5" d="M53.41 12.23A40.36 40.36 0 0 0 54 43.49l37.42-16.15z"/><path class="cls-5" d="M91.42 27.34L54 43.49a40.32 40.32 0 0 0 22.09 21.34l.38.14 15-37.63z"/><path class="cls-6" d="M91.39 27.33l33.89 13.47a36.71 36.71 0 0 0-.31-28z"/><path class="cls-7" d="M105-6.86l-.34-.14a36.71 36.71 0 0 0-28 .31l14.73 34z"/><path class="cls-8" d="M125 12.85a36.73 36.73 0 0 0-20-19.71L91.39 27.33z"/><path class="cls-7" d="M91.39 27.33L77.78 61.56a36.71 36.71 0 0 0 28.09-.64z"/><path class="cls-9" d="M91.39 27.33l14.48 33.59a36.7 36.7 0 0 0 19.41-20.12z"/><path class="cls-9" d="M91.39 27.33L76.7-6.74a36.74 36.74 0 0 0-19.89 20.33z"/><path class="cls-6" d="M56.81 13.59A36.75 36.75 0 0 0 57.32 42l34.07-14.67z"/><path class="cls-8" d="M91.39 27.33L57.32 42a36.73 36.73 0 0 0 20.12 19.43l.34.13z"/><polygon class="cls-5" points="110.88 28.81 108.7 34.31 106.52 39.8 121.98 39.59 110.88 28.81"/><path class="cls-5" d="M98.15 27.46a7 7 0 0 0-12.25-4.87L74.39 18l-1.82 4.57 11.51 4.55A7 7 0 0 0 96.34 32l11.51 4.57 1.4-3.52.42-1zM89.26 32a5 5 0 1 1 6.5-2.79 5.11 5.11 0 0 1-1.5 2 5 5 0 0 1-5 .77z"/><path class="cls-7" d="M96.09 26.64a5 5 0 1 0-.31 2.5 5 5 0 0 0 .31-2.5z"/><polygon class="cls-5" points="74.11 20.54 74.15 20.48 74.11 20.47 74.41 17.99 73.91 15.05 63.02 9.66 64.21 16.6 58.58 20.84 70.2 24.39 72.57 22.59 74.06 20.59 74.1 20.61 74.11 20.54"/><path d="M182.14 53.43l-24 12.71a1.79 1.79 0 0 1-2-1l-2.1-4a1.8 1.8 0 0 1 .75-2.42l24-12.7a1.8 1.8 0 0 1 2.42.75l2.1 4c.45.89.11 1.98-1.17 2.66z" style="fill:url(#Безымянный_градиент_18)"/><rect class="cls-11" x="146.59" y="27.45" width="29.59" height="29.59" rx="1.01" ry="1.01" transform="translate(-1.05 80.26) rotate(-27.84)"/><path d="M180.75 49.39l-24.38 12.88a1.59 1.59 0 0 1-2.14-.66l-12.88-24.39a1.6 1.6 0 0 1 .66-2.14l24.38-12.88a1.6 1.6 0 0 1 2.14.66l12.88 24.38a1.59 1.59 0 0 1-.66 2.15zm-38.2-13.25a.43.43 0 0 0-.18.58l12.88 24.38a.43.43 0 0 0 .58.18l24.38-12.88a.43.43 0 0 0 .18-.58l-12.88-24.41a.43.43 0 0 0-.58-.18z" style="fill:url(#Безымянный_градиент_15)"/><path d="M197.93 107.25l-27.12-1.85a1.8 1.8 0 0 1-1.2-1.88l.31-4.48a1.8 1.8 0 0 1 1.91-1.67L199 99.22a1.8 1.8 0 0 1 1.66 1.92l-.31 4.48c-.11.97-.97 1.72-2.42 1.63z" style="fill:url(#Безымянный_градиент_18-2)"/><rect class="cls-11" x="171.36" y="72.02" width="29.59" height="29.59" rx="1.01" ry="1.01" transform="translate(86.84 266.62) rotate(-86.09)"/><path d="M198.88 103.08l-27.51-1.88a1.59 1.59 0 0 1-1.47-1.69L171.78 72a1.59 1.59 0 0 1 1.69-1.47L201 72.41a1.59 1.59 0 0 1 1.44 1.73l-1.88 27.51a1.59 1.59 0 0 1-1.68 1.43zm-25.5-31.4a.43.43 0 0 0-.46.4L171 99.59a.43.43 0 0 0 .4.46l27.6 1.88a.43.43 0 0 0 .46-.4L201.34 74a.43.43 0 0 0-.4-.46z" style="fill:url(#Безымянный_градиент_15-2)"/><path d="M145.94 100.06l-25.15 10.33a1.79 1.79 0 0 1-1.91-1.15l-1.7-4.15a1.8 1.8 0 0 1 1-2.34l25.12-10.33a1.8 1.8 0 0 1 2.34 1l1.7 4.15c.38.88-.06 1.94-1.4 2.49z" style="fill:url(#Безымянный_градиент_18-3)"/><rect class="cls-11" x="111.56" y="72.14" width="29.59" height="29.59" rx="1.01" ry="1.01" transform="translate(-23.56 54.53) rotate(-22.33)"/><path d="M145 95.9l-25.51 10.48a1.59 1.59 0 0 1-2.07-.86L106.89 80a1.59 1.59 0 0 1 .86-2.07l25.51-10.48a1.59 1.59 0 0 1 2.07.86l10.48 25.51a1.59 1.59 0 0 1-.81 2.08zM108.2 79a.43.43 0 0 0-.23.56l10.48 25.51a.43.43 0 0 0 .56.23l25.51-10.48a.43.43 0 0 0 .23-.56l-10.49-25.5a.43.43 0 0 0-.56-.23z" style="fill:url(#Безымянный_градиент_15-3)"/><path d="M206.59 44l-25.05-10.61a1.79 1.79 0 0 1-.53-2.17l1.74-4.13a1.8 1.8 0 0 1 2.34-1l25.05 10.56a1.8 1.8 0 0 1 1 2.34l-1.78 4.14c-.36.95-1.43 1.38-2.77.87z" style="fill:url(#Безымянный_градиент_18-4)"/><rect class="cls-11" x="187" y="6.31" width="29.57" height="29.57" rx="1.01" ry="1.01" transform="translate(103.61 198.64) rotate(-67.03)"/><path d="M208.84 40.31L183.43 29.6a1.59 1.59 0 0 1-.84-2.07L193.3 2.14a1.59 1.59 0 0 1 2.07-.84L220.78 12a1.59 1.59 0 0 1 .84 2.07l-10.7 25.42a1.58 1.58 0 0 1-2.08.82zm-13.92-38a.43.43 0 0 0-.56.23L183.65 28a.43.43 0 0 0 .23.56l25.41 10.71a.43.43 0 0 0 .56-.23l10.71-25.41a.43.43 0 0 0-.23-.56z" style="fill:url(#Безымянный_градиент_15-4)"/><path class="cls-19" d="M124.38 80.45a6 6 0 0 0 4.53 11 7.24 7.24 0 0 0 3.71-4l3.38 1.69a11 11 0 0 1-5.8 6.08 9.7 9.7 0 0 1-12.79-5l-.15-.37c-2.1-5.12.34-10.66 5.66-12.85a10.71 10.71 0 0 1 8.08.1l-1.14 3.78a6.74 6.74 0 0 0-5.48-.43z"/><path class="cls-19" d="M165.84 35.14a4.19 4.19 0 0 1-.94 5.23 4.64 4.64 0 0 1 5.75 2.38c1.52 2.88 0 5.94-3.86 8l-8 4.23-8.89-16.77 7.73-4.07c3.69-1.94 6.84-1.55 8.21 1zm-3.51 2.75c-.61-1.15-1.83-1.36-3.25-.58l-3.74 2 1.94 3.69 3.72-2c1.44-.73 2-1.84 1.31-3zm4.16 6.45c-.65-1.22-2.14-1.38-3.9-.42l-3.74 2 2.11 4 3.74-2c1.76-.92 2.47-2.25 1.79-3.54z"/><path class="cls-19" d="M211.69 14.28l-1.39 3.27-9.36-4-1.61 3.79 8.41 3.57-1.39 3.27-8.41-3.57-1.64 3.87 9.63 4.09-1.39 3.27-13.54-5.7 7.42-17.47z"/><path class="cls-19" d="M182.9 76.65l-.53 7.9 8.58.57.53-7.9 4.27.28-1.26 18.94-4.28-.3.5-7.47-8.58-.53-.5 7.47-4.27-.29 1.26-18.94z"/><path d="M71.68 121.39l-27.2-5.25a1.83 1.83 0 0 1-1-2l.87-4.49a1.83 1.83 0 0 1 2.09-1.52h.07l27.2 5.28a1.83 1.83 0 0 1 1.44 2.14l-.87 4.49c-.19.96-1.15 1.63-2.6 1.35z" style="fill:url(#Безымянный_градиент_18-5)"/><rect class="cls-21" x="47.27" y="84.16" width="30.16" height="30.16" rx="1.03" ry="1.03" transform="translate(-46.96 141.53) rotate(-79.01)"/><path d="M73.16 117.29l-27.59-5.35a1.62 1.62 0 0 1-1.28-1.89l5.36-27.59a1.62 1.62 0 0 1 1.87-1.32l27.59 5.4a1.63 1.63 0 0 1 1.28 1.89L75 116a1.62 1.62 0 0 1-1.84 1.29zm-21.84-35a.44.44 0 0 0-.51.35l-5.36 27.59a.44.44 0 0 0 .35.51l27.58 5.4a.44.44 0 0 0 .51-.35l5.36-27.59a.44.44 0 0 0-.35-.51z" style="fill:url(#Безымянный_градиент_15-5)"/><path d="M18.83 68.76L-5.17 55a1.83 1.83 0 0 1-.26-2.26l2.28-4a1.83 1.83 0 0 1 2.45-.67l24 13.79a1.84 1.84 0 0 1 .7 2.49l-2.28 4c-.49.84-1.61 1.15-2.89.41z" style="fill:url(#Безымянный_градиент_18-6)"/><rect class="cls-21" x="2.09" y="29.71" width="30.16" height="30.16" rx="1.03" ry="1.03" transform="translate(-30.22 37.39) rotate(-60.15)"/><path d="M21.55 65.36l-24.38-14a1.62 1.62 0 0 1-.6-2.2l14-24.38a1.62 1.62 0 0 1 2.2-.6l24.38 14a1.62 1.62 0 0 1 .6 2.2l-14 24.38a1.63 1.63 0 0 1-2.2.64zm-9.36-40.14a.44.44 0 0 0-.6.16l-14 24.38a.44.44 0 0 0 .16.6l24.38 14a.44.44 0 0 0 .6-.16l14-24.38a.44.44 0 0 0-.16-.6z" style="fill:url(#Безымянный_градиент_15-6)"/><path d="M8.87 121.28l-20.15-19A1.85 1.85 0 0 1-11 100l3.14-3.33a1.83 1.83 0 0 1 2.58-.07l20.15 19a1.83 1.83 0 0 1 .07 2.58l-3.14 3.33c-.7.75-1.86.78-2.93-.23z" style="fill:url(#Безымянный_градиент_18-7)"/><rect class="cls-21" x="-2.23" y="82.49" width="30.16" height="30.16" rx="1.03" ry="1.03" transform="translate(-66.93 39.93) rotate(-46.65)"/><path d="M12.31 118.61L-8.13 99.32A1.61 1.61 0 0 1-8.2 97l19.3-20.4a1.62 1.62 0 0 1 2.28-.07l20.44 19.29a1.62 1.62 0 0 1 .09 2.29l-19.29 20.4a1.61 1.61 0 0 1-2.31.1zm.26-41.22a.44.44 0 0 0-.62 0L-7.34 97.85a.44.44 0 0 0 0 .62l20.44 19.29a.44.44 0 0 0 .62 0L33 97.3a.44.44 0 0 0 0-.62z" style="fill:url(#Безымянный_градиент_15-7)"/><path class="cls-19" d="M26.58 50.34c-2.83 4.91-8.87 6.44-14 3.48S5.73 44.9 8.58 40s8.84-6.39 14-3.44 6.83 8.87 4 13.78zm-14.12-8.13a6.07 6.07 0 0 0 2.08 8.34 6 6 0 0 0 8.14-2.38 5.92 5.92 0 1 0-10.19-6z"/><path class="cls-19" d="M12.77 104.54l-6.5-6.15-3.69 1.69L-.69 97l19.39-8.3 3.3 3.09-7.28 19.74-3.4-3.21zm1.39-3.54l3-7.55-7.44 3.38z"/><path class="cls-19" d="M70.16 97.68c-.87 4.46-4.16 6.46-9 5.46l-3.77-.74-1.07 5.42-4.25-.82 3.74-19 8 1.58c4.88.97 7.19 3.9 6.35 8.1zM66.07 97c.42-2.11-.73-3.44-3.12-3.91l-3.55-.7-1.26 6.43 3.55.7c2.38.47 4-.39 4.38-2.51z"/></g></svg>