<svg id="Слой_1" data-name="Слой 1" xmlns="http://www.w3.org/2000/svg" xmlns:xlink="http://www.w3.org/1999/xlink" viewBox="0 0 210 125"><defs><style>.cls-5{fill:#ffffe1}.cls-10{fill:#cdcdcd}.cls-12,.cls-13{fill:#683e28;isolation:isolate}.cls-12{opacity:.71}.cls-13{opacity:.4}.cls-14{fill:#ffc12b}.cls-15{fill:#383a3a}</style><linearGradient id="Безымянный_градиент_20" y1="-2730.5" x2="210" y2="-2730.5" gradientTransform="matrix(1, 0, 0, -1, 0, -2668)" gradientUnits="userSpaceOnUse"><stop offset="0" stop-color="#f9b180"/><stop offset="0.35" stop-color="#f9ab77"/><stop offset="0.94" stop-color="#f99a5d"/><stop offset="1" stop-color="#f9985a"/></linearGradient><clipPath id="clip-path"><rect width="210" height="125" style="fill:none"/></clipPath></defs><rect id="_Rectangle_2" data-name=" Rectangle 2" width="210" height="125" style="fill:url(#Безымянный_градиент_20)"/><g style="clip-path:url(#clip-path)"><path d="M63.83 20.65a26.34 26.34 0 0 1 0 37.29l-.82.79a26.37 26.37 0 1 1 .82-38.08z" style="fill:#f1f0d9"/><path class="cls-5" d="M26 20.16a27.12 27.12 0 0 0 37.52 39.12l.61-.58h-2.22a25.94 25.94 0 1 1 3.4-35.23h1.89l-.2-.37a27.12 27.12 0 0 0-37.94-5.59A26.68 26.68 0 0 0 26 20.16z"/><path class="cls-5" d="M64.36 58.47a27.12 27.12 0 0 0-37.51-39.16l-.61.58h2.22a25.92 25.92 0 1 1-3.39 35.2h-1.94l.28.39a27.12 27.12 0 0 0 37.94 5.6 26.6 26.6 0 0 0 3-2.6z"/><path d="M65.34 23.5a6.26 6.26 0 0 1 .39.51 25.73 25.73 0 0 1-2.44 33.4l-.8.77-.58.52-33-.16 18-35z" style="fill:#dfddc9"/><path class="cls-5" d="M26.66 55l6.2-6.2a.35.35 0 0 1 .49 0L36 51.44l-6.47 6.47a2 2 0 0 1-2.83 0 2.08 2.08 0 0 1 0-2.94z"/><circle class="cls-5" cx="45.19" cy="39.3" r="15.8"/><path d="M54.4 30.08a13 13 0 1 1-5.18-3.18 13 13 0 0 1 5.18 3.18z" style="fill:#b17e4c"/><path d="M54.4 30.08a13 13 0 0 1-10.55 22.17 13 13 0 0 1 5.38-25.35 12.86 12.86 0 0 1 5.17 3.18z" style="fill:#432918"/><rect x="77.3" y="45.67" width="111.89" height="75.1" transform="translate(-23.82 79.91) rotate(-30.78)" style="fill:#a55a1d"/><rect class="cls-10" x="128.28" y="46.15" width="8.38" height="74.9" transform="translate(-24.12 79.57) rotate(-30.78)"/><rect class="cls-5" x="81.47" y="48.46" width="103.56" height="69.51" transform="translate(-23.82 79.91) rotate(-30.78)"/><rect class="cls-5" x="129.6" y="35.22" width="51.78" height="69.51" transform="translate(-13.9 89.43) rotate(-30.78)"/><rect x="131.3" y="49" width="2.1" height="69.51" transform="translate(-24.22 79.53) rotate(-30.78)" style="fill:#edead4"/><rect class="cls-12" x="113.93" y="61.63" width="17.23" height="56.5" transform="translate(-28.66 74.58) rotate(-30.48)"/><rect class="cls-12" x="132.91" y="48.19" width="15.41" height="59.32" transform="translate(-19.95 85) rotate(-31.52)"/><path class="cls-5" d="M139.58 39.55l-23.41 14 35.29 59.21 23.41-14m-50.42-40a.93.93 0 1 1-.32 1.28.94.94 0 0 1 .31-1.28zm4.21 7.09a.93.93 0 1 1-.32 1.28.94.94 0 0 1 .32-1.28zm4.2 7.09a.93.93 0 1 1-.32 1.28.94.94 0 0 1 .32-1.28zm4.21 7.06a.93.93 0 1 1-.32 1.28.94.94 0 0 1 .32-1.28zm4.22 7.13a.93.93 0 1 1-.32 1.28.94.94 0 0 1 .32-1.28zm4.21 7.09a.93.93 0 1 1-.32 1.28.94.94 0 0 1 .32-1.28zm5.17 8.69a.93.93 0 1 1 .32-1.28.94.94 0 0 1-.31 1.28z"/><path class="cls-5" d="M125.16 128.33l23.42-13.93-35.25-59.24-23.42 13.93m24.83-4.27a1 1 0 0 1 .51 1.32 1 1 0 0 1-.51.51.91.91 0 0 1-1-.24 1 1 0 0 1 .91-1.58zm4.8 7.54a.93.93 0 1 1-1.28-.32.93.93 0 0 1 1.28.31zm4.23 7.08a.93.93 0 1 1-1.28-.32.93.93 0 0 1 1.27.32zm4.23 7.08a.93.93 0 1 1-1.28-.32.94.94 0 0 1 1.28.31zm4.23 7.08a.93.93 0 1 1-1.28-.32.94.94 0 0 1 1.28.31zm4.23 7.08a.93.93 0 1 1-1.28-.32.94.94 0 0 1 1.28.31zm2.63 8a.93.93 0 1 1 1.28.32.94.94 0 0 1-1.28-.31z"/><rect class="cls-13" x="122.21" y="42.49" width="37.22" height="2.79" transform="translate(-2.62 78.25) rotate(-30.78)"/><rect class="cls-13" x="129.67" y="55.01" width="37.22" height="2.79" transform="translate(-7.98 83.82) rotate(-30.78)"/><rect class="cls-13" x="134.77" y="63.55" width="37.22" height="2.79" transform="translate(-11.63 87.64) rotate(-30.78)"/><rect class="cls-13" x="137.38" y="68.27" width="37.21" height="2.79" transform="translate(-13.71 89.31) rotate(-30.67)"/><rect class="cls-13" x="139.98" y="72.31" width="37.22" height="2.79" transform="translate(-15.38 91.54) rotate(-30.78)"/><rect class="cls-13" x="142.6" y="77.03" width="37.21" height="2.79" transform="translate(-17.46 93.2) rotate(-30.67)"/><rect class="cls-13" x="145.2" y="81.07" width="37.22" height="2.79" transform="translate(-19.12 95.44) rotate(-30.78)"/><rect class="cls-13" x="147.8" y="85.43" width="37.22" height="2.79" transform="translate(-20.99 97.39) rotate(-30.78)"/><rect class="cls-13" x="153.19" y="94.18" width="37.22" height="2.79" transform="translate(-24.71 101.38) rotate(-30.78)"/><rect class="cls-13" x="74.38" y="71.26" width="37.87" height="2.79" transform="translate(-24 57.76) rotate(-30.67)"/><rect class="cls-13" x="82.1" y="82.59" width="37.88" height="2.79" transform="translate(-28.84 64.15) rotate(-31.05)"/><rect class="cls-13" x="86.98" y="92.1" width="37.88" height="2.79" transform="translate(-32.93 67.37) rotate(-30.78)"/><rect class="cls-13" x="89.59" y="96.47" width="37.88" height="2.79" transform="translate(-34.79 69.32) rotate(-30.78)"/><rect class="cls-13" x="92.19" y="100.85" width="37.88" height="2.79" transform="translate(-36.67 71.27) rotate(-30.78)"/><rect class="cls-13" x="94.79" y="105.22" width="37.88" height="2.79" transform="translate(-38.54 73.22) rotate(-30.78)"/><rect class="cls-13" x="97.4" y="109.6" width="37.88" height="2.79" transform="translate(-40.41 75.17) rotate(-30.78)"/><rect class="cls-13" x="100" y="113.97" width="37.88" height="2.79" transform="translate(-42.28 77.12) rotate(-30.78)"/><polygon class="cls-10" points="97.95 96.62 94.1 95.1 93.6 99.21 77.74 72.58 82.09 69.99 97.95 96.62"/><polygon class="cls-14" points="95.44 95.18 91.59 93.66 91.09 97.77 76.52 73.31 80.87 70.72 95.44 95.18"/><rect class="cls-14" x="95.75" y="23.67" width="34.09" height="4.17" transform="translate(27.43 103.85) rotate(-55.32)"/><polygon class="cls-15" points="104.81 40.95 101.38 38.57 99.06 45.67 99.41 45.87 104.81 40.95"/><rect x="118.59" y="11.69" width="4.96" height="4.17" transform="matrix(0.57, -0.82, 0.82, 0.57, 40.86, 105.5)" style="fill:#fff"/><polygon class="cls-15" points="99.06 45.67 99.41 45.87 101.55 43.92 99.99 42.82 99.06 45.67"/><polygon points="101.38 38.57 99.99 42.82 101.55 43.92 104.81 40.95 101.38 38.57" style="fill:#f1f0ef"/></g></svg>