<svg style="position:absolute;width:0;height:0;overflow:hidden" version="1.1" xmlns="http://www.w3.org/2000/svg" xmlns:xlink="http://www.w3.org/1999/xlink"><defs><symbol id="play-on" viewBox="0 0 32 32"><title>play-on</title><path class="path1" fill="currentColor" d="M3.429 0v32l25.143-16z"/></symbol><symbol id="play-off" viewBox="0 0 32 32"><title>play-off</title><path class="path1" fill="currentColor" d="M10.667 32V0H5.334v32h5.333zm16 0V0h-5.333v32h5.333z"/></symbol><symbol id="volume-off" viewBox="0 0 32 32"><title>volume-off</title><path class="path1" fill="currentColor" d="M24 16c0-3.2-1.778-5.867-4.444-7.111V12.8L24 17.244V16zm4.444 0c0 1.6-.356 3.2-.889 4.622l2.667 2.667c1.244-2.133 1.778-4.8 1.778-7.467C32 8.178 26.667 1.778 19.556.178v3.733c5.156 1.778 8.889 6.4 8.889 12.089zM2.311 0L0 2.311l8.356 8.356H0v10.667h7.111L16 30.223V18.312l7.644 7.644c-1.244.889-2.489 1.6-4.089 2.133v3.733c2.489-.533 4.622-1.6 6.578-3.2l3.556 3.556L32 29.867l-16-16L2.311 0zM16 1.778l-3.733 3.733L16 9.244V1.777z"/></symbol><symbol id="volume-on" viewBox="0 0 32 32"><title>volume-on</title><path class="path1" fill="currentColor" d="M0 10.311v10.667h7.111L16 29.867V1.423l-8.889 8.889H0zm24 5.333c0-3.2-1.778-5.867-4.444-7.111v14.222C22.223 21.511 24 18.844 24 15.644zM19.556 0v3.733c5.156 1.6 8.889 6.222 8.889 11.911s-3.733 10.311-8.889 11.911v3.733c7.111-1.6 12.444-8 12.444-15.644S26.667 1.6 19.556 0z"/></symbol><symbol id="help" viewBox="0 0 32 32"><title>help</title><path class="path1" fill="currentColor" d="M13.714 32v-4.571h4.571V32h-4.571zm7.315-15.543c-1.829 1.6-2.743 2.971-2.743 6.4h-4.571v-1.143c0-2.514.914-4.8 2.743-6.4l2.743-2.971c.914-.686 1.371-1.829 1.371-3.2 0-2.514-2.057-4.571-4.571-4.571S11.43 6.629 11.43 9.143H6.859C6.859 4.114 10.973 0 16.002 0s9.143 4.114 9.143 9.143c0 2.057-.914 3.886-2.057 5.257l-2.057 2.057z"/></symbol><symbol id="fullscreen-off" viewBox="0 0 32 32"><title>fullscreen-off</title><path fill="currentColor" d="M0 25.143h6.857V32h4.571V20.571H-.001v4.571zM6.857 6.857H0v4.571h11.429V-.001H6.858v6.857zM20.571 32h4.571v-6.857h6.857v-4.571H20.57v11.429zm4.572-25.143V0h-4.571v11.429h11.429V6.858h-6.857z"/></symbol><symbol id="fullscreen-on" viewBox="0 0 32 32"><title>fullscreen-on</title><path fill="currentColor" d="M4.571 20.571H0V32h11.429v-4.571H4.572v-6.857zM0 11.429h4.571V4.572h6.857V.001H-.001V11.43zm27.429 16h-6.857V32h11.429V20.571H27.43v6.857zM20.571 4.571h6.857v6.857h4.571V-.001H20.57V4.57z"/></symbol><symbol id="icon-i" viewBox="-12 0 32 32"><title>inform about the problem</title><path fill="currentColor" d="M4.571 32V9.143H0V32h4.571zm0-27.429V0H0v4.571h4.571z"/></symbol><symbol id="icon-clip" viewBox="0 0 31 32"><title>clip</title><path fill="#999" style="fill:var(--color1, #999)" d="M17.632 28.768c-3.712 3.711-9.898 3.711-13.61 0-3.711-3.712-3.711-9.899 0-13.61L17.014 2.166c2.723-2.721 7.176-2.721 9.899 0 2.721 2.723 2.721 7.176 0 9.898L16.395 22.582c-1.731 1.732-4.452 1.732-6.186 0-1.732-1.732-1.732-4.452 0-6.186l9.28-9.28 1.856 1.856-9.28 9.28c-.74.742-.74 1.732 0 2.474.744.743 1.734.743 2.477 0L25.06 10.208a4.331 4.331 0 0 0 0-6.184 4.337 4.337 0 0 0-6.189 0L5.878 17.016c-2.721 2.723-2.721 7.176 0 9.899 2.721 2.721 7.176 2.721 9.898 0l11.752-11.754 1.856 1.855-11.752 11.757z"/></symbol></defs></svg>