<svg style="position:absolute;width:0;height:0;overflow:hidden" version="1.1" xmlns="http://www.w3.org/2000/svg" xmlns:xlink="http://www.w3.org/1999/xlink"><defs><symbol id="icon-apple" viewBox="0 0 32 32"><title>icon-apple</title><path d="M8.346 16.345a6.41 6.41 0 0 0-1.823 3.537l-.005.037c-.059.343-.082.695-.123 1.042v1.129c0 .233.041.457.064.699.132 1.187.391 2.27.767 3.297l-.031-.097a13.848 13.848 0 0 0 2.095 3.895l-.024-.033.082.11c.374.519.794.969 1.264 1.362l.012.009c.101.081.215.161.333.234l.014.008a2.29 2.29 0 0 0 2.114.274l-.016.005h.059a7.322 7.322 0 0 0 1.022-.357l-.048.019c.176-.078.4-.16.63-.23l.046-.012c.344-.083.76-.151 1.185-.189l.036-.003h.059c.416.012.813.078 1.189.191l-.032-.008c.277.083.501.165.72.259l-.043-.016c.265.118.588.233.921.326l.052.012h.059c.239.093.517.147.807.147.485 0 .934-.151 1.303-.408l-.008.005c.133-.081.246-.161.354-.247l-.007.005a7.343 7.343 0 0 0 1.26-1.35l.015-.022.082-.11a13.745 13.745 0 0 0 2.041-3.765l.03-.097c.345-.93.604-2.013.73-3.136l.006-.064c0-.233.041-.457.064-.699v-1.143c-.041-.347-.064-.699-.123-1.042a6.434 6.434 0 0 0-1.828-3.574q-.201-.197-.416-.37a5.454 5.454 0 0 0-2.714-1.181l-.028-.003a5.722 5.722 0 0 0-2.995.416l.037-.014c-.494.178-1.531.544-1.554.549s-1.065-.37-1.554-.549a5.642 5.642 0 0 0-2.225-.449 5.79 5.79 0 0 0-.761.05l.029-.003a5.468 5.468 0 0 0-2.752 1.192l.01-.008c-.105.114-.242.238-.379.37zm4.557-3.291a4.047 4.047 0 0 0 1.868 1.208l.029.007a3.443 3.443 0 0 0 1.152.123h-.009c.091 0 .11-.041.114-.123a4.478 4.478 0 0 0-.98-3.107l.007.009a5.199 5.199 0 0 0-3.209-1.993l-.032-.005-.197-.032h-.16a4.956 4.956 0 0 0 .064 1.329l-.005-.031a5.226 5.226 0 0 0 1.359 2.616l-.002-.002z"/></symbol><symbol id="icon-ball" viewBox="0 0 32 32"><title>icon-ball</title><path d="M14.171 17.577L16 19.465l7.314-7.04a11.025 11.025 0 0 0-4.835-2.491l-.074-.014c-.765 2.998-2.24 5.584-4.238 7.663l.005-.006zm-9.33 3.351a15.477 15.477 0 0 0 6.734-3.421l-.018.016-3.941-4.114a11.046 11.046 0 0 0-2.774 7.529v-.009zm9.82-.178l-1.829-1.888a16.971 16.971 0 0 1-7.691 3.902l-.112.02a11.077 11.077 0 0 0 2.302 5.026l-.016-.02zm4.297 4.475a15.37 15.37 0 0 0-3.665 6.553l-.025.108a11.055 11.055 0 0 0 7.737-2.484l-.02.016zm5.655-11.465l-7.314 7.04 1.728 1.797a16.955 16.955 0 0 1 7.78-3.917l.111-.019a11.055 11.055 0 0 0-2.319-4.919l.015.019zM8.955 12.137l3.941 4.114a15.412 15.412 0 0 0 3.632-6.465l.025-.108a11.051 11.051 0 0 0-7.617 2.475l.02-.016zm8.718 11.749l-1.728-1.797-7.314 7.04a11 11 0 0 0 4.734 2.467l.075.015c.752-3.025 2.229-5.636 4.239-7.732l-.006.006zm9.426-3.369a15.174 15.174 0 0 0-6.819 3.438l.017-.014 4.023 4.187a11.05 11.05 0 0 0 2.779-7.625v.014z"/></symbol><symbol id="icon-basket" viewBox="0 0 32 32"><title>icon-basket</title><path d="M22.4 13.257h-3.2v-2.743h-7.314v2.743h-3.2v3.2H22.4zm-8.686-1.371h4.114v1.371h-4.114zM9.143 32H22.4V16.914H9.143zm9.6-13.257h.914v10.971h-.914zm-3.657 0H16v10.971h-.914zm-3.657 0h.914v10.971h-.914z"/></symbol><symbol id="icon-book" viewBox="0 0 32 32"><title>icon-book</title><path d="M5.065 31.461c.585-1.929 2.651-2.514 5.111-2.514s4.521.585 5.111 2.514c.197.654.165.667.165 0V14.638a9.07 9.07 0 0 0-.218-2.511l.012.061c-.635-1.829-2.665-2.373-5.07-2.373s-4.43.521-5.07 2.373a8.761 8.761 0 0 0-.205 2.464l-.001-.023v16.823c-.005.677-.037.663.165.009zm1.481-17.975a8.05 8.05 0 0 1 3.649-.658l-.019-.001a8.153 8.153 0 0 1 3.682.679l-.052-.021a.312.312 0 0 1-.17.571.321.321 0 0 1-.107-.019l.002.001a4.27 4.27 0 0 0-.7-.267l-.032-.008a9.083 9.083 0 0 0-2.654-.315h.012a9.307 9.307 0 0 0-2.708.331l.065-.015c-.275.083-.51.178-.734.291l.026-.012a.31.31 0 0 1-.277-.553l.002-.001zm0 2.999a8.05 8.05 0 0 1 3.649-.658l-.019-.001a8.158 8.158 0 0 1 3.682.679l-.052-.021a.31.31 0 0 1-.137.585.31.31 0 0 1-.139-.033l.002.001a4.27 4.27 0 0 0-.7-.267l-.032-.008a9.071 9.071 0 0 0-2.637-.306h.013a9.292 9.292 0 0 0-2.708.331l.065-.015a4.48 4.48 0 0 0-.739.291l.026-.012a.31.31 0 0 1-.275-.553l.001-.001zm0 2.998a8.048 8.048 0 0 1 3.649-.658l-.019-.001a8.153 8.153 0 0 1 3.682.679l-.052-.021a.312.312 0 0 1-.17.571.321.321 0 0 1-.107-.019l.002.001a4.182 4.182 0 0 0-.7-.262l-.032-.008a9.083 9.083 0 0 0-2.654-.315h.012a9.285 9.285 0 0 0-2.708.331l.065-.015a4.48 4.48 0 0 0-.739.291l.026-.012a.31.31 0 0 1-.275-.553l.001-.001zm20.261 11.978c.197.654.165.667.165 0V14.638a9.07 9.07 0 0 0-.218-2.511l.012.061c-.635-1.829-2.665-2.373-5.07-2.373s-4.43.521-5.065 2.373a8.761 8.761 0 0 0-.205 2.464l-.001-.023v16.823c0 .681-.032.667.169 0 .585-1.929 2.651-2.514 5.111-2.514s4.517.594 5.102 2.523zm-1.34-11.557a.312.312 0 0 1-.418.136l.002.001a4.257 4.257 0 0 0-.681-.27l-.032-.009a9.077 9.077 0 0 0-2.654-.315h.012a9.285 9.285 0 0 0-2.708.331l.065-.015a4.48 4.48 0 0 0-.739.291l.026-.012a.31.31 0 0 1-.275-.553l.001-.001a8.05 8.05 0 0 1 3.649-.658l-.019-.001a8.158 8.158 0 0 1 3.682.679l-.052-.021a.311.311 0 0 1 .141.418l.001-.002zm0-2.999a.312.312 0 0 1-.418.136l.002.001a4.392 4.392 0 0 0-.681-.271l-.032-.008a9.07 9.07 0 0 0-2.655-.306h.013a9.285 9.285 0 0 0-2.708.331l.065-.015a4.343 4.343 0 0 0-.739.291l.026-.012a.31.31 0 0 1-.275-.553l.001-.001a8.05 8.05 0 0 1 3.649-.658l-.019-.001a8.167 8.167 0 0 1 3.682.679l-.052-.021a.311.311 0 0 1 .141.418l.001-.002zm0-2.999a.312.312 0 0 1-.277.169h-.003a.302.302 0 0 1-.138-.033l.002.001a4.392 4.392 0 0 0-.681-.271l-.032-.008a9.083 9.083 0 0 0-2.654-.315h.012a9.3 9.3 0 0 0-2.708.331l.065-.015a4.428 4.428 0 0 0-.739.291l.026-.012a.31.31 0 0 1-.275-.553l.001-.001a8.057 8.057 0 0 1 3.648-.658l-.019-.001a8.167 8.167 0 0 1 3.682.679l-.052-.021a.31.31 0 0 1 .141.413l.001-.002z"/></symbol><symbol id="icon-camera" viewBox="0 0 32 32"><title>icon-camera</title><path d="M25.6 19.2h-5.911l-.864-2.743h-5.637l-.846 2.743H6.399V32h19.2zM16 30.825a5.193 5.193 0 1 1 5.202-5.193 5.193 5.193 0 0 1-5.193 5.193h-.01H16z"/><path d="M16 22.295h-.005a3.342 3.342 0 1 0 3.342 3.342v-.005A3.341 3.341 0 0 0 16 22.295z"/></symbol><symbol id="icon-clip" viewBox="0 0 32 32"><title>icon-clip</title><path d="M22.4 26.057V14.276c0-3.305-2.057-5.591-5.001-5.591h-2.405c-2.953 0-4.937 2.249-4.937 5.591v12.928a4.764 4.764 0 0 0 4.696 4.745h.12a4.786 4.786 0 0 0 4.783-4.618v-8.872l.001-.069a3.305 3.305 0 0 0-3.305-3.305h-.353c-1.829 0-3.2 1.449-3.2 3.374V25.6h1.829v-7.15a1.408 1.408 0 0 1 1.402-1.536h.313a1.541 1.541 0 0 1 1.486 1.656v-.005 9.197a3.023 3.023 0 0 1-1.982 2.838l-.021.007a2.927 2.927 0 0 1-3.197-.86l-.003-.004c-.421-.585-.741-1.495-.741-2.907V14.438c0-2.894 1.605-3.922 3.109-3.922h2.226c2.313 0 3.351 1.934 3.351 3.849v11.694z"/></symbol><symbol id="icon-cloud" viewBox="0 0 32 32"><title>icon-cloud</title><path d="M4.69 21.486H9.6c1.296-2.461 3.836-4.11 6.761-4.11a7.59 7.59 0 0 1 5.336 2.182l-.001-.001.105.11a3.511 3.511 0 0 0-5.349-4.376l.005-.004a6.075 6.075 0 1 0-11.874 1.949l-.012-.043a2.149 2.149 0 0 0-2.059 2.615l-.003-.014a2.203 2.203 0 0 0 2.14 1.692h.043-.002z"/><path d="M25.746 24.027a3.956 3.956 0 0 0-2.512.919l.006-.005a6.903 6.903 0 1 0-13.487 2.211l-.013-.049a2.442 2.442 0 0 0-2.329 2.97l-.003-.016A2.5 2.5 0 0 0 9.842 32h.041-.002 15.924a3.986 3.986 0 0 0 3.984-4.12v.006a4.034 4.034 0 0 0-4.028-3.858h-.018.001z"/></symbol><symbol id="icon-coffee" viewBox="0 0 32 32"><title>icon-coffee</title><path d="M11.886 15.086c-3.781 0-6.857 1.271-6.857 2.834v6.971c0 1.266 1.915 2.341 4.571 2.72V32h17.371V15.086zm-1.829 10.733a6.775 6.775 0 0 1-2.773-.931l.031.017v-6.619a6.709 6.709 0 0 1 2.712-.912l.031-.003zm7.58-14.281c-.05-.151-.11-.306-.178-.457s-.178-.302-.279-.457a.703.703 0 0 0-.065-.083l.001.001-.055-.069-.114-.137-.032-.064-.046-.05v-.023l-.082-.091a4.538 4.538 0 0 1-.266-.326l-.008-.012a2.442 2.442 0 0 1-.194-.302l-.007-.013a1.71 1.71 0 0 1-.139-.358l-.003-.012a2.2 2.2 0 0 1-.068-.452v-.005a5.512 5.512 0 0 1 .001-.865l-.001.019c0-.114 0-.21.027-.274v-.105h-.105c-.109.03-.202.065-.291.106l.012-.005a2.27 2.27 0 0 0-.824.645l-.004.005c-.152.19-.277.409-.365.647l-.005.016a2.362 2.362 0 0 0-.142.919v-.005c.014.357.097.691.235.995l-.007-.016c.142.314.32.584.533.821l-.003-.003.16.165.091.091.128.123.064.059.05.05a.68.68 0 0 0 .121.113l.002.001c.042.052.085.098.132.141l.001.001c.037.049.073.092.111.134l-.001-.001.046.064.027.037v.037l.041.073c.012.023.022.05.031.079l.001.004a.589.589 0 0 1 .031.082l.001.005v.096a1.6 1.6 0 0 1-.001.415l.001-.008v.197l-.032.178c-.023.11-.041.206-.059.265l-.027.101h.105c.11-.014.209-.036.304-.067l-.011.003c.082-.026.148-.053.213-.083l-.012.005a2.59 2.59 0 0 0 .234-.129l-.01.006c.089-.062.166-.123.24-.189l-.002.002c.083-.08.159-.166.225-.26l.004-.005c.037-.05.069-.105.105-.165s.059-.123.091-.187c.058-.126.103-.272.127-.425l.001-.01v-.485a1.777 1.777 0 0 0-.034-.253l.002.011c.009-.087-.009-.169-.027-.256zm2.633-4.045v-.105h-.105c-.109.03-.202.065-.291.106l.012-.005a2.27 2.27 0 0 0-.824.645l-.003.005c-.152.19-.277.409-.365.647l-.005.016a2.367 2.367 0 0 0-.142.919v-.005c.014.357.096.691.235.995l-.007-.016c.142.314.32.584.533.821l-.003-.003.256.256.128.123.064.059.05.05a.68.68 0 0 0 .121.113l.002.001c.042.052.085.098.132.141l.001.001c.036.049.072.092.111.133l-.001-.001.046.064.027.037v.037l.041.073c.011.023.022.05.031.078l.001.004c.01.023.021.051.03.081l.002.006v.096a1.6 1.6 0 0 1 0 .415l.001-.008v.197l-.032.178c-.023.11-.041.206-.059.265l-.027.101h.105c.11-.014.209-.036.304-.067l-.011.003c.082-.026.148-.053.213-.083l-.012.005a2.59 2.59 0 0 0 .234-.129l-.01.006c.089-.061.166-.123.24-.189l-.002.002c.084-.079.159-.166.225-.26l.004-.005c.037-.05.073-.105.105-.165s.059-.123.091-.187c.058-.126.103-.272.127-.425l.001-.01a1.088 1.088 0 0 0 0-.121v.003-.366a1.678 1.678 0 0 0-.034-.253l.002.011c0-.082-.032-.165-.05-.247-.05-.151-.11-.306-.178-.457s-.178-.302-.279-.457a1.001 1.001 0 0 0-.065-.083l.001.001-.055-.069-.114-.137-.059-.069-.046-.05-.082-.091a4.079 4.079 0 0 1-.274-.338 2.622 2.622 0 0 1-.194-.306l-.007-.014a1.71 1.71 0 0 1-.139-.358l-.003-.012a2.2 2.2 0 0 1-.068-.452v-.005a5.512 5.512 0 0 1 .001-.865l-.001.019c.059-.133.064-.233.073-.297z"/></symbol><symbol id="icon-cutlery" viewBox="0 0 32 32"><title>icon-cutlery</title><path d="M7.515 9.376a14.464 14.464 0 0 0-.861 3.071l-.012.088a4.091 4.091 0 0 0 .604 2.677l-.01-.017c.485.891 1.339 2.199 2.363 2.789V32h2.286V17.966c1.015-.594 1.856-1.888 2.336-2.775a4.101 4.101 0 0 0 .592-2.68l.002.02c-.196-1.19-.5-2.252-.909-3.26l.036.101c-.279-.809-.832-2.825-1.856-2.949l.613 5.92h-.763L11.328 6.4h-1.193l-.613 5.943h-.759l.608-5.92c-1.024.123-1.577 2.139-1.856 2.953zm11.749 4.192c0 6.4 2.496 7.086 3.136 7.159V32h2.286V6.4H22.4s-3.136 0-3.136 7.168z"/></symbol><symbol id="icon-film" viewBox="0 0 32 32"><title>icon-film</title><path d="M9.6 7.314v.914H7.314v-.914H5.943V32l1.371-.457v-.457H9.6v.457h1.371v-6.4h9.6v6.4h1.371v-.457h2.743V32h1.371V7.314h-1.829v.914h-2.286v-.914H20.57v6.4h-9.6v-6.4zm0 21.943H7.314v-2.286H9.6zm0-4.571H7.314V22.4H9.6zm0-4.115H7.314v-2.286H9.6zm0-4.114H7.314v-2.286H9.6zm0-4.114H7.314v-2.286H9.6zm12.343-2.286h2.286v2.286h-2.286zm0 4.114h2.286v2.286h-2.286zm0 4.115h2.286v2.286h-2.286zm0 4.114h2.286v2.286h-2.286zm0 4.571h2.286v2.286h-2.286zM20.571 16v6.857h-9.6V16z"/></symbol><symbol id="icon-flag" viewBox="0 0 32 32"><title>icon-flag</title><path d="M5.943 11.086V32h2.286V11.086c-.334.163-.728.258-1.143.258s-.808-.095-1.159-.265l.016.007z"/><path d="M8.617 9.001a1.669 1.669 0 1 1-3.337 0 1.669 1.669 0 0 1 3.337 0z"/><path d="M9.6 11.429h17.829v12.8H9.6z"/></symbol><symbol id="icon-flower" viewBox="0 0 32 32"><title>icon-flower</title><path d="M17.371 22.208q-.567.055-1.147.055t-1.138-.055V32h2.286v-9.792zm-2.436-.631c.309.033.667.052 1.03.052 5.61 0 10.158-4.548 10.158-10.158 0-1.839-.489-3.564-1.344-5.053l.026.049-4.407 2.432L16 6.467l-4.389 2.432-4.407-2.432a10.04 10.04 0 0 0-1.319 5.007c0 5.22 3.936 9.522 9.003 10.097l.047.004zm4.562 2.012a5.2 5.2 0 0 0-1.439 4.664l-.005-.032a5.221 5.221 0 0 0 6.075-6.109l.005.032a5.198 5.198 0 0 0-4.635 1.445z"/></symbol><symbol id="icon-headphone" viewBox="0 0 32 32"><title>icon-headphone</title><path d="M16.041 8.274c-7.218.033-13.057 5.892-13.057 13.115 0 2.292.588 4.447 1.621 6.322l-.034-.068v-3.47c.005-.663.241-1.27.63-1.747l-.004.005q-.05-.521-.05-1.042c.011-6.01 4.886-10.878 10.898-10.878 6.019 0 10.898 4.879 10.898 10.898 0 .4-.022.796-.064 1.185l.004-.048c.336.449.539 1.014.544 1.626v3.658a12.97 12.97 0 0 0 1.687-6.437c0-7.23-5.848-13.094-13.072-13.12h-.002z"/><path d="M5.568 23.694c-.052.17-.082.365-.082.566v4.965C5.486 30.756 7.214 32 9.344 32h1.627V21.486H9.344c-1.861 0-3.401.946-3.776 2.208zm20.946 5.531V24.26a1.98 1.98 0 0 0-.034-.364l.002.012c-.242-1.371-1.861-2.423-3.826-2.423h-1.627v10.514h1.627c2.13 0 3.858-1.243 3.858-2.775z"/></symbol><symbol id="icon-home" viewBox="0 0 32 32"><title>icon-home</title><path d="M25.143 10.514h-4.114v1.81l4.114 3.456v-5.266zm0 13.518v-1.797l-8.686-7.15-8.686 7.15V32h5.486v-9.6h6.4V32h5.486v-7.968z"/><path d="M7.493 21.184l8.777-7.154 10.725 8.741 2.231-2.734L16.271 9.495 3.316 20.037l2.231 2.734 1.947-1.586z"/></symbol><symbol id="icon-mail" viewBox="0 0 32 32"><title>icon-mail</title><path d="M4.571 31.442l6.619-7.922-6.619-5.321v13.243zm22.858 0V18.199L20.81 23.52l6.619 7.922zm-.055.558h.055v-.046l-.055.046zM4.571 32h.055l-.055-.046V32zm22.282 0l-.041-.046-6.706-8.023-4.151 3.337-4.151-3.337L5.057 32h21.797z"/><path d="M11.712 23.067l.256.206.251.201 3.735 2.999 3.735-2.999.256-.201.251-.206 6.519-5.239H5.193l6.519 5.239z"/></symbol><symbol id="icon-message" viewBox="0 0 32 32"><title>icon-message</title><path d="M4.571 31.977l3.09-3.634h14.281v-3.657H8.685v-9.143H2.742v12.8h1.829v3.634z"/><path d="M29.257 10.514H9.143v13.257h13.966l3.863 3.762v-3.762h2.286V10.514z"/></symbol><symbol id="icon-microphone" viewBox="0 0 32 32"><title>icon-microphone</title><path d="M18.216 13.299c0 .023.027 14.003.078 14.094 0 1.609-1.494 2.779-3.035 3.199-1.417.379-4.41-.274-4.113-2.253h.736v-1.376H9.14v1.371h.699c-.133 2.514 2.696 3.839 4.959 3.656 2.614-.233 4.853-2.395 4.853-4.863 0-.197-.123-13.77-.123-13.825 0-1.485.914-2.929 2.546-2.993 1.718-.069 2.605 1.513 2.605 3.112v15.612c0 .841 1.398.841 1.398 0 0 0-.023-15.771-.069-15.858l.001-.105a4.077 4.077 0 0 0-3.734-4.062l-.015-.001c-2.358-.178-4.045 2.047-4.045 4.291z"/><path d="M9.204 26.507h3.738l1.225-12.143c-1.015.639-2.25 1.018-3.574 1.018s-2.558-.379-3.602-1.035l.028.017 1.207 12.143z"/><path d="M9.693 6.517c-2.046.442-3.557 2.236-3.557 4.383l.001.101v-.005c.001.589.155 1.142.425 1.621l-.009-.017c.072.124.145.23.224.331l-.005-.006c.094.119.191.225.296.323l.002.001.064.046a6.061 6.061 0 0 0 3.372 1.088h.157a6.085 6.085 0 0 0 3.434-1.096l-.02.013.069-.046c.106-.1.203-.206.292-.318l.005-.006c.073-.094.144-.2.207-.311l.007-.014a3.33 3.33 0 0 0 .421-1.631l-.001-.082v-.005a4.465 4.465 0 0 0-5.413-4.364l.029-.005z"/></symbol><symbol id="icon-mosaic" viewBox="0 0 31 32"><title>icon-mosaic</title><path d="M7.882 23.381a3.08 3.08 0 1 1 3.865 4.754l-.012.007L15.593 32l3.858-3.858a3.08 3.08 0 1 1 4.251-4.27l.007.012 3.858-3.858-3.858-3.84a3.08 3.08 0 1 0-3.854-4.762 3.063 3.063 0 0 0-.398.488l-.007.012-3.858-3.858-3.858 3.858a3.073 3.073 0 0 0-2.576-1.395 3.08 3.08 0 0 0-1.698 5.65l.011.007-3.876 3.84 3.858 3.858c.129-.189.27-.354.426-.502l.001-.001z"/></symbol><symbol id="icon-phone" viewBox="0 0 32 32"><title>icon-phone</title><path d="M21.943 14.171v-2.743H9.6v20.571h12.343V18.285h.457v-1.829h-.457v-.457h.457V14.17h-.457zM14.629 12.8h1.829v.457h-1.829zm1.129 18.679a.823.823 0 1 1 .823-.823.823.823 0 0 1-.823.823zm4.813-2.222H10.514V14.171h10.057z"/></symbol><symbol id="icon-rain" viewBox="0 0 32 32"><title>icon-rain</title><path d="M27.323 21.742v-.001a2.486 2.486 0 0 0-2.429-2.486h-.003a6.899 6.899 0 0 0 .309-2.064 7.04 7.04 0 0 0-14.078-.151v.008a4.025 4.025 0 0 0-2.553-.951h-.006a4.114 4.114 0 0 0-4.111 3.951v.008l-.001.105a4.07 4.07 0 0 0 4.06 4.069h16.325a2.492 2.492 0 0 0 2.487-2.487z"/><path d="M7.771 25.6H9.6v4.114H7.771V25.6z"/><path d="M12.8 27.886h1.829V32H12.8v-4.114z"/><path d="M17.371 25.6H19.2v4.114h-1.829V25.6z"/><path d="M21.943 27.886h1.829V32h-1.829v-4.114z"/></symbol><symbol id="icon-shoe" viewBox="0 0 32 32"><title>icon-shoe</title><path d="M14.464 32s2.798-11.703 7.547-12.297c0 0 1.44-1.102 1.44 12.297h1.865s-.174-9.838 2.629-15.177c0 0 .082-3.817-2.121-5.943s-2.711 6.706-11.698 11.063a3.835 3.835 0 0 0-.996-.662l-.024-.01c-.425-.133-4.069 2.153-7.63 2.834s-.763 2.72.421 7.895z"/></symbol><symbol id="icon-sunny" viewBox="0 0 32 32"><title>icon-sunny</title><path d="M21.445 22.162h.305a5.678 5.678 0 1 0-5.676-5.818v.007c2.644.931 4.646 3.078 5.358 5.752l.013.058z"/><path d="M23.337 10.057l-1.595-2.496-1.591 2.496h3.186z"/><path d="M28.343 18.089l2.496-1.595-2.496-1.595v3.191z"/><path d="M15.543 14.898l-1.582 1.01a8.44 8.44 0 0 1 1.639.236l-.058-.012z"/><path d="M25.152 10.83l2.254 2.258.635-2.894-2.889.635z"/><path d="M27.406 19.899l-2.254 2.258 2.889.635-.635-2.894z"/><path d="M16.082 13.088l2.254-2.258-2.894-.635.64 2.894z"/><path d="M28.238 27.429a4.418 4.418 0 0 0-5.053-4.198l.024-.003a4.391 4.391 0 0 0-2.223 1.006l.006-.005a7.746 7.746 0 0 0-.126-1.245l.007.048a7.455 7.455 0 0 0-.215-.895l.014.053c-.97-3.179-3.876-5.453-7.314-5.454h-.316c-4.082.176-7.325 3.528-7.325 7.637 0 .798.122 1.568.349 2.292l-.015-.054a2.702 2.702 0 0 0-2.623 3.058l-.001-.014a2.77 2.77 0 0 0 2.734 2.346h.048-.002 17.621a4.411 4.411 0 0 0 4.408-4.579v.008z"/></symbol><symbol id="icon-tea" viewBox="0 0 32 32"><title>icon-tea</title><path d="M13.481 28.887a10.456 10.456 0 0 0 9.016-3.959l.017-.022a4.35 4.35 0 0 0 2.081.407h-.01a4.48 4.48 0 0 0 4.215-4.274v-.009c.002-.044.002-.095.002-.146a4.43 4.43 0 0 0-4.226-4.425H3.963a10.201 10.201 0 0 0-.182 1.947c0 5.52 4.254 10.047 9.663 10.48l.037.002zm11.278-10.441a2.505 2.505 0 0 1 2.119 2.471 2.501 2.501 0 0 1-3.317 2.365l.018.005a10.307 10.307 0 0 0 1.179-4.821v-.022.001z"/><path d="M4.114 30.171h22.4V32h-22.4v-1.829z"/><path d="M10.382 13.257c-1.303.457-.745 2.519.571 2.071 1.55-.53 2.057-2.094 1.691-3.593a9.685 9.685 0 0 0-1.024-2.16l.023.039c-.21-.398-.599-1.271-.073-1.6 1.175-.727.096-2.583-1.083-1.851-1.275.786-1.541 2.286-1.088 3.657.165.494 1.938 3.122.983 3.438z"/><path d="M16.274 13.257c-1.303.457-.741 2.519.571 2.071 1.55-.53 2.057-2.094 1.691-3.593a9.716 9.716 0 0 0-1.025-2.161l.023.039c-.21-.398-.599-1.271-.069-1.6 1.175-.727.096-2.583-1.083-1.851-1.275.786-1.541 2.286-1.088 3.657.16.494 1.938 3.122.978 3.438z"/></symbol><symbol id="icon-text" viewBox="0 0 31 32"><title>icon-text</title><path d="M3.953 32l2.965-3.452h13.725v-3.514H7.906V16.25h-5.71v12.298h1.757V32z"/><path d="M22.579 24.156l3.334 3.654v-3.654h2.196V11.419H8.784v12.737h13.795zm2.113-7.743a1.454 1.454 0 1 1-1.454 1.454c0-.803.651-1.454 1.454-1.454zm-12.228 2.912a1.454 1.454 0 1 1 1.454-1.454c0 .803-.651 1.454-1.454 1.454zm4.076 0a1.454 1.454 0 1 1 1.467-1.459v.004c0 .803-.651 1.454-1.454 1.454h-.014.001zm4.076 0a1.456 1.456 0 0 1 0-2.912h.079a1.453 1.453 0 1 1 .004 2.903h-.004z"/></symbol><symbol id="icon-trash" viewBox="0 0 32 32"><title>icon-trash</title><path d="M22.4 17.829H10.057V32H22.4zm-9.143 12.342H12.8V20.114h.457zm3.2 0H16V20.114h.457zm3.2 0H19.2V20.114h.457z"/><path d="M23.73 15.314l-2.551-1.481 1.371-2.336-5.573-3.237-1.371 2.336-2.711-1.577-1.289 2.217 10.834 6.295zm-6.281-5.257l3.31 1.925-.704 1.211-3.31-1.925z"/></symbol><symbol id="icon-tv" viewBox="0 0 32 32"><title>icon-tv</title><path d="M26.057 32v-2.286h1.371v-19.2h-3.136a2.16 2.16 0 0 0-.312-1.116l.005.01 2.926-2.226a.692.692 0 0 0-.101-1.164l-.004-.002a.697.697 0 0 0-.755.083l.001-.001-3.136 2.386a2.241 2.241 0 0 0-1.707.006l.015-.005-3.136-2.386a.697.697 0 0 0-.758-.08l.004-.002a.69.69 0 0 0-.107 1.165l.002.001 2.926 2.226a2.152 2.152 0 0 0-.311 1.106v.001H5.028v19.2h1.829v2.286H9.6v-2.286h13.714v2.286zM7.314 12.8H25.6v11.429H7.314zm12.229 15.429a1.298 1.298 0 1 1 1.298-1.298c0 .717-.581 1.298-1.298 1.298zm3.008-1.299a1.298 1.298 0 1 1 1.298 1.298 1.299 1.299 0 0 1-1.294-1.298z"/></symbol><symbol id="icon-txt" viewBox="0 0 32 32"><title>icon-txt</title><path d="M5.911 31.963l5.106-5.449h15.497v-19.2H5.943zm15.643-16.521a1.737 1.737 0 1 1-1.737 1.737c0-.959.778-1.737 1.737-1.737zm-5.554 0a1.737 1.737 0 1 1-1.737 1.737c0-.959.778-1.737 1.737-1.737zm-5.55 0a1.737 1.737 0 1 1-1.737 1.737c0-.959.778-1.737 1.737-1.737z"/></symbol><symbol id="icon-umbrella" viewBox="0 0 32 32"><title>icon-umbrella</title><path d="M16.174 7.771c.585.003 1.157.046 1.717.127l-.066-.008V6.4h-2.281v1.371h.631z"/><path d="M13.646 29.714c-1.943.535-3.739-.699-3.739-2.286H7.621c0 2.88 3.259 5.115 6.784 4.142 1.995-.595 3.424-2.413 3.424-4.564v-.036.002-2.743h-2.286v2.94a2.656 2.656 0 0 1-1.879 2.54l-.019.005z"/><path d="M24.617 23.314A9.746 9.746 0 0 0 25.9 18.45c0-5.433-4.393-9.839-9.821-9.861h-.583c-5.175.336-9.245 4.615-9.245 9.846 0 1.794.479 3.477 1.316 4.927l-.025-.048h17.074z"/></symbol><symbol id="icon-watch" viewBox="0 0 32 32"><title>icon-watch</title><path d="M16.151 31.954c5.921 0 10.72-4.8 10.72-10.72s-4.8-10.72-10.72-10.72c-5.921 0-10.72 4.8-10.72 10.72 0 5.921 4.8 10.72 10.72 10.72zm-6.505-3.346l-.873-.873 2.016-2.016.873.873zm7.268 2.478h-1.371v-2.743h1.371zm9.143-10.515v1.371h-2.743v-1.371zm-3.406-6.715l.873.873-2.039 2.021-.873-.873zm-1.165 11.863l2.016 2.016-.873.873-2.016-2.016zm-5.943-14.29h1.371v2.743h-1.371zm-1.116 7.314l1.829 1.783 3.36-3.301.869.882-4.21 4.128-2.706-2.619zm-4.781-4.887l2.016 2.016-.873.878-2.016-2.016zm-.503 6.715v1.371H6.4v-1.371z"/></symbol><symbol id="icon-wineglass" viewBox="0 0 32 32"><title>icon-wineglass</title><path d="M14.629 21.179v8.814c-1.71.256-2.958 1.061-2.958 2.007h8.293c0-.878-1.074-1.632-2.592-1.943v-8.878L28.741 8.685H3.26zm1.142-1.234l-7.47-8.517h14.935z"/></symbol></defs></svg>