<svg xmlns="http://www.w3.org/2000/svg"><symbol id="1" viewBox="0 0 52 52"><path fill="#fff" d="M43 10h-8v3.53l8 6.72V10zm0 26.48v-3.5l-8.22-6.74L26 19.05 9 32.98V52h11V33h13v19h10V36.48z"/><path fill="#fff" d="M9.05 30.77l17.1-13.93 8.83 7.19 8.27 6.74 3.79 3.09 4.34-5.33-8.13-6.62-8.27-6.73L26.15 8 .91 28.53l4.34 5.33 3.8-3.09z"/></symbol><symbol id="10" viewBox="0 0 52 52.01"><path d="M8.59 16.39a14.63 14.63 0 0 0-4.11 8.14c-.14.78-.19 1.58-.28 2.37v2.57c.05.53.09 1.06.15 1.59A31.87 31.87 0 0 0 6 38.31a31.5 31.5 0 0 0 4.71 8.79l.19.25a16.61 16.61 0 0 0 2.9 3.17 7.57 7.57 0 0 0 .79.55 5.21 5.21 0 0 0 4.77.63h.14a17 17 0 0 0 2.22-.77 14.94 14.94 0 0 1 1.54-.55 20.81 20.81 0 0 1 2.74-.46h.13a10.38 10.38 0 0 1 2.63.42 15.09 15.09 0 0 1 1.54.55 16.93 16.93 0 0 0 2.22.77h.14a5.21 5.21 0 0 0 4.77-.63 7.57 7.57 0 0 0 .79-.55 16.69 16.69 0 0 0 2.9-3.17l.19-.25A31.49 31.49 0 0 0 46 38.31 31.87 31.87 0 0 0 47.69 31l.15-1.59v-2.52c-.09-.79-.14-1.59-.28-2.37a14.63 14.63 0 0 0-4.11-8.14q-.46-.45-.95-.85a12.43 12.43 0 0 0-6.19-2.69 13.06 13.06 0 0 0-6.73.92C28.42 14.18 26.06 15 26 15s-2.42-.84-3.54-1.25a13.06 13.06 0 0 0-6.73-.92 12.43 12.43 0 0 0-6.19 2.69c-.32.29-.64.57-.95.87zM18.88 8.9a9.21 9.21 0 0 0 4.31 2.77 8 8 0 0 0 2.6.28c.21 0 .25-.09.26-.29a10.23 10.23 0 0 0-2.23-7A11.8 11.8 0 0 0 16.45.08L16 0h-.37a11.38 11.38 0 0 0 .14 3 11.87 11.87 0 0 0 3.11 5.9z" fill="#fff"/></symbol><symbol id="11" viewBox="0 0 52 52"><path d="M23.07 52s5.8-24.24 15.63-25.47c0 0 3-2.28 3 25.47h3.86S45.2 31.62 51 20.56c0 0 .18-7.9-4.39-12.3S41 22.14 22.37 31.18a8 8 0 0 0-2.11-1.39c-.88-.28-8.43 4.46-15.81 5.87S2.87 41.29 5.33 52z" fill="#fff"/></symbol><symbol id="12" viewBox="0 0 52 52"><path d="M26.16 51.67A23.45 23.45 0 1 0 2.71 28.23a23.45 23.45 0 0 0 23.45 23.44zm-14.22-7.31L10 42.45 14.44 38l1.91 1.91zM28 50h-3v-6h3zm20-23v3h-6v-3zm-7.62-14.91L42.3 14l-4.41 4.41L36 16.5zM37.89 38l4.41 4.41-1.91 1.91L36 39.95zM25 7h3v6h-3zm-2.6 15.74l4 3.9 7.35-7.22 1.9 1.93-9.23 9.07-5.92-5.73zM11.94 12.09l4.41 4.41-1.91 1.91L10 14zM11 27v3H5v-3z" fill="#fff"/></symbol><symbol id="13" viewBox="0 0 52 52"><path d="M23 30v17.91c-3.21.53-5.74 2.16-5.74 4.09h16.87c0-1.79-2.18-3.32-5.13-4V30L52 5H.13zm2.77-2.64L10.56 10H41z" fill="#fff"/></symbol><symbol id="14" viewBox="0 0 52 52"><path d="M29 32.12q-1.24.11-2.51.12T24 32.12V52h5V32.12zm-5.16-1.28A20.63 20.63 0 0 0 43.88.15L34.93 5.1 26 .15 17.11 5.1 8.16.15a20.64 20.64 0 0 0 15.68 30.69zm9.27 4.08a10.6 10.6 0 0 0-2.93 9.41A10.6 10.6 0 0 0 42.51 32a10.6 10.6 0 0 0-9.4 2.92z" fill="#fff"/></symbol><symbol id="15" viewBox="0 0 52 52"><path d="M8.44 6a28.65 28.65 0 0 0-1.91 6.38 7.84 7.84 0 0 0 1.3 5.37c1.06 1.8 2.93 4.44 5.17 5.63V52h5V23.35c2.22-1.2 4.06-3.82 5.11-5.6a7.85 7.85 0 0 0 1.3-5.37A28.66 28.66 0 0 0 22.5 6c-.61-1.63-1.82-5.7-4.06-6l1.33 12h-1.66L16.78 0h-2.61l-1.34 12h-1.66L12.5 0c-2.24.3-3.45 4.37-4.06 6zm23.7 8.56c0 13 5.46 14.39 6.86 14.54V52h5V0h-5s-6.86 0-6.86 14.56z" fill="#fff"/></symbol><symbol id="16" viewBox="0 0 52 52"><path fill="#fff" d="M2 50.42l14.19-16.97L2 22.05v28.37zm48 0V22.05l-14.19 11.4L50 50.42zM49.88 52H50v-.1l-.12.1zm-.79 0l-.08-.1-14.37-17.19-8.9 7.15-8.9-7.15L2.48 51.9l-.09.1h46.7z"/><path fill="#fff" d="M16.65 33.23l.55.43.54.44 8 6.43 8-6.43.55-.44.54-.43L48.8 22H2.68l13.97 11.23z"/></symbol><symbol id="17" viewBox="0 0 52 52"><path d="M16.34 16C8.42 16 2 18.7 2 22v15c0 2.68 4.19 4.95 10 5.74V52h36V16zM12 39.25a14.86 14.86 0 0 1-6-2V22.76a14.89 14.89 0 0 1 6-2zM27.84 8.77c-.11-.32-.23-.65-.37-1s-.37-.64-.59-1a1.78 1.78 0 0 0-.13-.18l-.12-.15-.24-.29-.12-.14-.1-.1-.18-.19a9.14 9.14 0 0 1-.67-.72 5.44 5.44 0 0 1-.43-.67 3.72 3.72 0 0 1-.3-.79 4.88 4.88 0 0 1-.15-.94 11.76 11.76 0 0 1 0-1.78c0-.24 0-.45.06-.58V.02h-.22a4.09 4.09 0 0 0-.59.21A4.75 4.75 0 0 0 22 1.62 4.94 4.94 0 0 0 21.22 3a5.09 5.09 0 0 0-.3 1.91A5.57 5.57 0 0 0 21.4 7a6.67 6.67 0 0 0 1.13 1.73l.34.35.2.2.27.26.14.13.11.11a1.4 1.4 0 0 0 .26.24 2.73 2.73 0 0 0 .28.3 3.33 3.33 0 0 0 .23.28l.1.14.06.07v.07l.09.16a1.13 1.13 0 0 1 .07.17 1.51 1.51 0 0 1 .07.19v.2a3.41 3.41 0 0 1 0 .86v.42l-.06.38c0 .23-.09.43-.13.56l-.06.21h.22a3.39 3.39 0 0 0 .62-.13 4 4 0 0 0 .42-.16 5.21 5.21 0 0 0 .47-.26 5 5 0 0 0 .5-.4 3.77 3.77 0 0 0 .49-.56c.08-.11.15-.23.22-.35s.13-.26.19-.4a3.57 3.57 0 0 0 .27-.92V9.82a3.62 3.62 0 0 0-.07-.52c.08-.18.05-.36.01-.53zM33.4.22V0h-.22a4.05 4.05 0 0 0-.59.21 4.76 4.76 0 0 0-1.74 1.37A5 5 0 0 0 30.09 3a5.1 5.1 0 0 0-.3 1.91A5.55 5.55 0 0 0 30.27 7a6.7 6.7 0 0 0 1.13 1.73l.34.35.2.2.27.26.14.13.11.11a1.36 1.36 0 0 0 .26.24 2.69 2.69 0 0 0 .28.3 3.14 3.14 0 0 0 .23.28l.1.14.06.07v.07l.09.16a1.3 1.3 0 0 1 .07.17 1.77 1.77 0 0 1 .07.19v.2a3.49 3.49 0 0 1 0 .86v.42l-.06.38c-.05.23-.09.43-.13.56l-.06.21h.22a3.4 3.4 0 0 0 .62-.13 4 4 0 0 0 .42-.16 5.09 5.09 0 0 0 .47-.26 4.82 4.82 0 0 0 .5-.4 3.69 3.69 0 0 0 .49-.56c.08-.11.15-.23.23-.35s.13-.26.19-.4a3.57 3.57 0 0 0 .27-.92 2.51 2.51 0 0 0 0-.25v-.78a3.5 3.5 0 0 0-.07-.52c0-.17-.06-.35-.11-.53s-.23-.65-.37-1-.37-.64-.59-1a2 2 0 0 0-.13-.18l-.12-.15-.24-.29-.12-.14-.1-.1-.18-.19c-.22-.25-.42-.49-.58-.71a5.55 5.55 0 0 1-.43-.67 3.71 3.71 0 0 1-.3-.79 4.88 4.88 0 0 1-.15-.94 11.76 11.76 0 0 1 0-1.78c.08-.27.09-.48.11-.61z" fill="#fff"/></symbol><symbol id="18" viewBox="0 0 52 52"><path d="M4.93 51.35L15.61 40H48V0H5zm32.78-34.23a3.66 3.66 0 1 1-3.66 3.66 3.66 3.66 0 0 1 3.66-3.66zm-11.7 0a3.66 3.66 0 1 1-3.66 3.66A3.66 3.66 0 0 1 26 17.12zm-11.69 0a3.66 3.66 0 1 1-3.66 3.66 3.66 3.66 0 0 1 3.66-3.66z" fill="#fff"/></symbol><symbol id="19" viewBox="0 0 52 52.06"><path d="M45 52.06v-5h3v-38h-6.3a4.25 4.25 0 0 0-.61-2.19L47 2.46a1.36 1.36 0 0 0-.25-2.31 1.42 1.42 0 0 0-1.52.16L38.93 5a4.57 4.57 0 0 0-3.4 0L29.23.31a1.42 1.42 0 0 0-1.52-.16 1.36 1.36 0 0 0-.21 2.31l5.88 4.41a4.25 4.25 0 0 0-.61 2.19H3v38h4v5h5v-5h28v5zm-37-38h36v23H8zm24.12 30.47a2.59 2.59 0 1 1 2.59-2.59 2.59 2.59 0 0 1-2.59 2.59zm6-2.59a2.59 2.59 0 1 1 2.59 2.59 2.59 2.59 0 0 1-2.59-2.59z" fill="#fff"/></symbol><symbol id="2" viewBox="0 0 52 52"><path d="M26.08 7A25.25 25.25 0 0 0 4 44.24v-6.68a5.39 5.39 0 0 1 1.21-3.35q-.1-1-.1-2a21.13 21.13 0 0 1 21-21.09A21.07 21.07 0 0 1 47 34.42a5.33 5.33 0 0 1 1 3.14v7A25.25 25.25 0 0 0 26.08 7z" fill="#fff"/><path d="M6.15 36.2A4 4 0 0 0 6 37.28v9.44C6 49.64 9.15 52 13 52h3V32h-3c-3.36 0-6.19 1.8-6.85 4.2zM46 46.72v-9.44a4 4 0 0 0-.06-.67C45.5 34 42.55 32 39 32h-3v20h3c3.85 0 7-2.36 7-5.28z" fill="#fff"/></symbol><symbol id="20" viewBox="0 0 52 52"><path d="M22.06 20.23l4 4.13L42.06 9a24.21 24.21 0 0 0-10.74-5.53 37.2 37.2 0 0 1-9.26 16.76zM1.63 27.55a33.81 33.81 0 0 0 14.68-7.45l-8.62-9a24.28 24.28 0 0 0-6.06 16.45zm21.47-.38l-4-4.13A37.28 37.28 0 0 1 2 31.62a24.22 24.22 0 0 0 5 10.95zM32.51 37a33.69 33.69 0 0 0-8.08 14.57 24.28 24.28 0 0 0 16.88-5.4zm12.36-25.12l-16 15.4 3.78 3.93a37.25 37.25 0 0 1 17.26-8.61 24.19 24.19 0 0 0-5.04-10.72zM10.62 8.32l8.62 9a33.79 33.79 0 0 0 8-14.38 24.28 24.28 0 0 0-16.62 5.38zM29.69 34l-3.78-3.93-16 15.4a24.18 24.18 0 0 0 10.49 5.45A37.14 37.14 0 0 1 29.69 34zm20.62-7.35a33.16 33.16 0 0 0-14.87 7.49l8.8 9.16a24.28 24.28 0 0 0 6.07-16.65z" fill="#fff"/></symbol><symbol id="21" viewBox="0 0 52 52"><path d="M30.14 14.06s.06 27.94.16 28.08c0 3.2-3 5.53-6 6.35-2.82.76-8.78-.54-8.2-4.49H18v-3h-5v3h.48c-.26 5 5.37 7.65 9.87 7.26 5.2-.45 9.65-4.75 9.65-9.67 0-.39-.25-27.42-.25-27.54 0-3 1.84-5.84 5.06-6C41.23 8 43 11.1 43 14.29v31.1c0 1.67 2.78 1.67 2.78 0 0 0 0-31.42-.13-31.58a8.11 8.11 0 0 0-7.45-8.3c-4.7-.36-8.06 4.08-8.06 8.55z" fill="#fff"/><path d="M12.5 40h7.44l2.44-24.19a13.51 13.51 0 0 1-14.24 0L10.59 40z" fill="#fff"/><path d="M14.21.47a8.93 8.93 0 0 0-7.77 9.88 6.29 6.29 0 0 0 .77 2.35 5.65 5.65 0 0 0 .43.65 5.84 5.84 0 0 0 .59.65l.13.09a12.18 12.18 0 0 0 6.78 2.15h.3a12.18 12.18 0 0 0 6.78-2.15l.13-.09a5.84 5.84 0 0 0 .59-.65 5.64 5.64 0 0 0 .43-.65 6.71 6.71 0 0 0 .84-3.4 8.89 8.89 0 0 0-10-8.83z" fill="#fff"/></symbol><symbol id="22" viewBox="0 0 52 52"><path d="M40 39V13.23C40 6 35.5 1 29.06 1H23.8C17.34 1 13 5.92 13 13.23v28.28a10.42 10.42 0 0 0 10.28 10.38h.22A10.47 10.47 0 0 0 34 41.77V22.38A7.23 7.23 0 0 0 26.76 15H26c-4 0-7 3.17-7 7.38V38h4V22.36A3.08 3.08 0 0 1 26.11 19h.64A3.37 3.37 0 0 1 30 22.61v20a6.61 6.61 0 0 1-4.38 6.34 6.41 6.41 0 0 1-7-1.89C17.7 45.78 17 43.79 17 40.7V13.58C17 7.25 20.51 5 23.8 5h4.87C33.73 5 36 9.23 36 13.42V39z" fill="#fff"/></symbol><symbol id="23" viewBox="0 0 52 52"><path d="M10 34a6.44 6.44 0 1 1 8.06 10l8.03 8 8.07-8.07a6.44 6.44 0 1 1 8.9-8.93l8.07-8-8.07-8.07a6.44 6.44 0 1 0-8.06-10 6.39 6.39 0 0 0-.85 1l-8.06-8.02L18 10a6.53 6.53 0 0 0-.85-1 6.44 6.44 0 1 0-8.06 10L1 27l8.11 8a6.42 6.42 0 0 1 .89-1z" fill="#fff"/></symbol><symbol id="24" viewBox="0 0 52 52"><path fill="#fff" d="M5 51.46L10.06 45H36v-6H12V22H2v23h3v6.46z"/><path d="M39.77 37L46 43.89V37h4V13H14v24h25.77zm3.9-15A2.7 2.7 0 1 1 41 24.68 2.69 2.69 0 0 1 43.67 22zM21 27.38a2.7 2.7 0 1 1 2.69-2.7 2.7 2.7 0 0 1-2.69 2.7zm7.55 0a2.7 2.7 0 1 1 2.69-2.7 2.69 2.69 0 0 1-2.67 2.7zm7.55 0a2.7 2.7 0 1 1 0-5.39h.15a2.69 2.69 0 0 1 0 5.37z" fill="#fff"/></symbol><symbol id="25" viewBox="0 0 52 52"><path d="M40 11h-7V5H17v6h-6v6h29zM21 8h9v3h-9zM11 52h29V19H11zm21-29h2v24h-2zm-8 0h2v24h-2zm-8 0h2v24h-2z" fill="#fff"/></symbol><symbol id="26" viewBox="0 0 52 52"><path d="M34.35 33.51h.57a10.67 10.67 0 1 0-10.67-10.92 15.73 15.73 0 0 1 10.1 10.92z" fill="#fff"/><path fill="#fff" d="M37.91 11l-3-4.69-3 4.69h6zM47 25.86l4.69-3-4.69-3v6zm-24-5.99l-3 1.9a15.75 15.75 0 0 1 3 .42zm18.31-7.65l4.24 4.24 1.2-5.44-5.44 1.2zm4.24 17.04l-4.24 4.24 5.44 1.2-1.2-5.44zm-21.28-12.8l4.24-4.24-5.44-1.2 1.2 5.44zm22.84 26.93a8.29 8.29 0 0 0-9.45-7.89 8.26 8.26 0 0 0-4.16 1.86 14.59 14.59 0 0 0-.22-2.25 14.17 14.17 0 0 0-.38-1.58 14.35 14.35 0 0 0-13.76-10.25h-.59A14.36 14.36 0 0 0 5.42 41.86 5.07 5.07 0 0 0 .5 47.59 5.2 5.2 0 0 0 5.72 52h33.1a8.29 8.29 0 0 0 8.29-8.61z"/></symbol><symbol id="27" viewBox="0 0 52 52"><path d="M5.07 33h9a13.93 13.93 0 0 1 22.13-3.53l.19.2a6.42 6.42 0 0 0-9.76-8c-.16-7.86-8.46-13.72-16.81-9.47a9.17 9.17 0 0 0-4 4 11.84 11.84 0 0 0-.92 8.92 3.93 3.93 0 0 0-3.76 4.73A4 4 0 0 0 5.07 33z" fill="#fff"/><path d="M43.6 37.41a7.26 7.26 0 0 0-4.6 1.71 12.63 12.63 0 1 0-24.7 4 4.47 4.47 0 0 0-4.27 5.41A4.57 4.57 0 0 0 14.58 52h29.13A7.29 7.29 0 0 0 51 44.5a7.38 7.38 0 0 0-7.4-7.09z" fill="#fff"/></symbol><symbol id="28" viewBox="0 0 52 52"><path fill="#fff" d="M5 52l5.75-7H37v-7H13V21H2v24h3v7z"/><path fill="#fff" d="M50 13H14v24h25.24L46 43.81V37h4V13z"/></symbol><symbol id="29" viewBox="0 0 52 52"><path d="M13 0v2H8V0H5v52h3v-2h5v1h2V38h21v13h2v-1h6v2h2V0h-3v2h-5V0h-2v13H15V0zm0 46H8v-5h5zm0-9H8v-5h5zm0-9H8v-5h5zm0-9H8v-5h5zm0-8H8V6h5zm25-5h5v5h-5zm0 8h5v5h-5zm0 9h5v5h-5zm0 9h5v5h-5zm0 9h5v5h-5zm-2-22v14H15V19z" fill="#fff"/></symbol><symbol id="3" viewBox="0 0 52 52"><path d="M51 29.6a5.4 5.4 0 0 0-5.28-5.39 15.28 15.28 0 1 0-29.88-4.79 8.79 8.79 0 0 0-5.55-2.06 8.92 8.92 0 0 0-8.94 8.59A8.82 8.82 0 0 0 10.17 35H45.6a5.4 5.4 0 0 0 5.4-5.4zM9 38h4v9H9zm10 5h4v9h-4zm11-5h4v9h-4zm10 5h4v9h-4z" fill="#fff"/></symbol><symbol id="30" viewBox="0 0 52 52"><path d="M40 22H13v30h27zM20 48h-1V26h1zm7 0h-1V26h1zm7 0h-1V26h1zm8.64-31.84L37.17 13l2.92-5-11.95-7-2.92 5-5.83-3.37-2.77 4.77 23.25 13.52zM29.15 4.83L36.26 9l-1.51 2.6-7.11-4.17z" fill="#fff"/></symbol><symbol id="4" viewBox="0 0 52 52"><path d="M48 22H33.54l-1.89-6H19.31l-1.88 6H4v30h44zM25.48 49.36a12 12 0 1 1 12-12 12 12 0 0 1-12 12z" fill="#fff"/><path d="M25.48 29.6a7.74 7.74 0 1 0 7.73 7.73 7.74 7.74 0 0 0-7.73-7.73z" fill="#fff"/></symbol><symbol id="5" viewBox="0 0 52 52"><path d="M19.28 46.18A20.47 20.47 0 0 0 38 38.51a9 9 0 0 0 7.82-.18 7.54 7.54 0 0 0 3.55-3.6A8.73 8.73 0 0 0 42 22H1.73a20.84 20.84 0 0 0-.13 6.93 20.51 20.51 0 0 0 17.68 17.25zM42.36 25.3a4.89 4.89 0 1 1-2.3 9.46 20.4 20.4 0 0 0 2.3-9.46zM3 48h43v4H3zm11.26-32.8c-2.55.87-1.45 4.92 1.11 4 3-1 4-4.09 3.3-7a18.94 18.94 0 0 0-2-4.15c-.41-.78-1.17-2.49-.14-3.12 2.29-1.42.19-5-2.12-3.62-2.49 1.54-3 4.5-2.13 7.13.39.98 3.86 6.11 1.98 6.76zm11.52 0c-2.54.87-1.45 4.92 1.12 4 3-1 4-4.09 3.3-7a19 19 0 0 0-2-4.15c-.41-.78-1.17-2.49-.14-3.12 2.29-1.42.19-5-2.12-3.62-2.49 1.54-3 4.5-2.13 7.13.37.98 3.85 6.11 1.97 6.76z" fill="#fff"/></symbol><symbol id="6" viewBox="0 0 52 52"><path d="M41 7V0H10v52h31V18h1v-5h-1v-1h1V7h-1zM22 2h5v1h-5zm3.39 48.3a2.08 2.08 0 1 1 2.09-2.08 2.08 2.08 0 0 1-2.09 2.08zM37 45H14V7h23z" fill="#fff"/></symbol><symbol id="7" viewBox="0 0 52 52"><path d="M26.38 2a26.74 26.74 0 0 1 3.62.22V0h-5v2h1.38zM21.5 47.3c-4.42 1.6-8.69-1.16-8.69-4.76H7.86c0 6.46 7.64 11.46 15.6 8.67A9.83 9.83 0 0 0 30 41.9v-6.29h-5v6.51a5.47 5.47 0 0 1-3.5 5.18zm22.19-13.67a20.33 20.33 0 0 0-17.6-30.36H24.9A20.34 20.34 0 0 0 8.49 33.63h35.2z" fill="#fff"/></symbol><symbol id="8" viewBox="0 0 52 52"><path d="M4 9.18V52h5V9.18a6.18 6.18 0 0 1-5 0z" fill="#fff"/><circle cx="6.67" cy="4.42" r="3.42" fill="#fff"/><path fill="#fff" d="M12 9h36v26H12z"/></symbol><symbol id="9" viewBox="0 0 52 52"><path d="M2.08 50.82c1.28-4.22 5.8-5.5 11.18-5.5s9.89 1.28 11.18 5.5c.43 1.43.36 1.46.36 0v-36.8a19.87 19.87 0 0 0-.45-5.36c-1.39-4-5.83-5.19-11.09-5.19S3.56 4.58 2.17 8.63A19.72 19.72 0 0 0 1.72 14v36.8c-.01 1.48-.08 1.45.36.02zM5.32 11.5a17.9 17.9 0 0 1 7.94-1.44 17.88 17.88 0 0 1 7.94 1.44.68.68 0 0 1-.6 1.21 9.79 9.79 0 0 0-1.6-.6 20.33 20.33 0 0 0-5.78-.69 20.38 20.38 0 0 0-5.78.69 9.8 9.8 0 0 0-1.55.61.68.68 0 1 1-.6-1.21zm0 6.56a17.9 17.9 0 0 1 7.94-1.44 17.89 17.89 0 0 1 7.94 1.44.68.68 0 0 1-.3 1.28.68.68 0 0 1-.3-.07 9.79 9.79 0 0 0-1.6-.6 20.35 20.35 0 0 0-5.74-.67 20.35 20.35 0 0 0-5.78.69 9.86 9.86 0 0 0-1.56.61.68.68 0 0 1-.6-1.21zm0 6.56a17.89 17.89 0 0 1 7.94-1.44 17.88 17.88 0 0 1 7.94 1.44.68.68 0 0 1-.6 1.21 9.82 9.82 0 0 0-1.6-.59 20.33 20.33 0 0 0-5.78-.69 20.33 20.33 0 0 0-5.78.69 9.91 9.91 0 0 0-1.56.61.68.68 0 0 1-.6-1.21zm44.32 26.2c.43 1.43.36 1.46.36 0v-36.8a19.87 19.87 0 0 0-.45-5.36c-1.39-4-5.83-5.19-11.09-5.19s-9.69 1.11-11.08 5.16a19.72 19.72 0 0 0-.45 5.37v36.8c0 1.49-.07 1.46.37 0 1.28-4.22 5.8-5.5 11.18-5.5s9.88 1.3 11.16 5.52zm-2.93-25.28a.68.68 0 0 1-.91.3 10 10 0 0 0-1.56-.61 20.32 20.32 0 0 0-5.78-.69 20.33 20.33 0 0 0-5.78.69 9.91 9.91 0 0 0-1.56.61.68.68 0 0 1-.6-1.21 17.9 17.9 0 0 1 7.94-1.44 17.89 17.89 0 0 1 7.94 1.44.68.68 0 0 1 .31.91zm0-6.56a.68.68 0 0 1-.91.3 9.86 9.86 0 0 0-1.56-.61 20.33 20.33 0 0 0-5.78-.67 20.33 20.33 0 0 0-5.78.69 9.77 9.77 0 0 0-1.56.61.68.68 0 0 1-.6-1.21 17.9 17.9 0 0 1 7.94-1.44 17.9 17.9 0 0 1 7.94 1.44.68.68 0 0 1 .31.91zm0-6.56a.68.68 0 0 1-.61.37.67.67 0 0 1-.3-.07 9.81 9.81 0 0 0-1.56-.61 20.33 20.33 0 0 0-5.78-.69 20.37 20.37 0 0 0-5.78.69 9.82 9.82 0 0 0-1.56.61.68.68 0 0 1-.6-1.21 17.91 17.91 0 0 1 7.94-1.44 17.9 17.9 0 0 1 7.94 1.44.68.68 0 0 1 .31.9z" fill="#fff"/></symbol></svg>