<svg style="position:absolute;width:0;height:0;overflow:hidden" version="1.1" xmlns="http://www.w3.org/2000/svg" xmlns:xlink="http://www.w3.org/1999/xlink"><defs><symbol id="figure-1" viewBox="0 0 32 32"><path fill="currentColor" d="M23.822 2.46C21.581 1.144 18.886.367 16.009.367 7.377.367.379 7.365.379 15.997s6.998 15.63 15.63 15.63c8.632 0 15.63-6.998 15.63-15.63 0-2.876-.777-5.571-2.133-7.886l.04.074A15.754 15.754 0 0 0 23.895 2.5l-.074-.04z"/><path fill="currentColor" d="M16.004 32h-.014C7.151 32-.014 24.835-.014 15.996S7.151-.008 15.99-.008c2.952 0 5.717.799 8.091 2.193l-.075-.041c4.809 2.82 7.988 7.965 7.988 13.851 0 8.834-7.157 15.995-15.989 16.004h-.001zm0-31.268C7.577.737.748 7.569.748 15.996c0 8.43 6.834 15.264 15.264 15.264s15.264-6.834 15.264-15.264c0-5.622-3.039-10.534-7.564-13.183l-.072-.039C21.452 1.49 18.822.731 16.014.731h-.01.001z"/></symbol><symbol id="figure-2" viewBox="0 0 32 32"><path fill="currentColor" d="M31.553 31.472l.002-.022a.164.164 0 0 0-.002-.023v.001L16.32.916s-.037.238-.06.223 0 .26 0 .26-.074-.305-.119-.298V.908c0 .008-.052 0-.067 0L11.75 9.422 8.773 15.45.758 31.42l-.001.022.001.023v-.001a.177.177 0 0 0 0 .105v-.001.119c0 .007.074.171.126.171h30.497c.052 0 .089-.134.127-.171s0-.06 0-.06v-.06a.2.2 0 0 0 0-.113v.001z"/><path fill="currentColor" d="M31.382 32.283H.915a.482.482 0 0 1-.415-.28L.499 32l-.082-.097v-.156a.56.56 0 0 1-.044-.27v.002l.052-.223L16.053 0l.208.536.26-.03.127.246 15.256 30.564v.156a.59.59 0 0 1-.001.25l.001-.004v.149l-.127.134a.417.417 0 0 1-.394.283zm.477-.454l-.045.067zm-.685-.29zm-30.058 0h30.028L16.26 1.772a.438.438 0 0 1-.263-.06l.002.001-4.287 8.618L1.115 31.488zm30.088-.097v.052zm0 0z"/></symbol><symbol id="figure-3" viewBox="0 0 32 32"><path fill="currentColor" d="M23.745 31.633H8.373a.317.317 0 0 1-.271-.182l-.001-.002-7.69-15.291a.409.409 0 0 1 .001-.37l-.001.002L8.079.55a.317.317 0 0 1 .287-.184h15.379c.12.006.223.079.271.182l.001.002 7.697 15.269a.409.409 0 0 1-.001.37l.001-.002-7.69 15.262a.319.319 0 0 1-.279.184z"/><path fill="currentColor" d="M23.745 32H8.373a.678.678 0 0 1-.601-.378l-.002-.004L.08 16.349a.737.737 0 0 1 .002-.702l-.002.004L7.77.382A.678.678 0 0 1 8.372 0h15.372a.678.678 0 0 1 .601.378l.002.004 7.69 15.269a.776.776 0 0 1-.002.702l.002-.004-7.682 15.233a.679.679 0 0 1-.609.419h-.001zM23.693.734H8.372L.734 15.981l7.69 15.306h15.284l7.675-15.269z"/></symbol><symbol id="figure-4" viewBox="0 0 32 32"><path fill="currentColor" d="M23.58 29.362H8.413a.226.226 0 0 1-.195-.112l-.001-.001L.634 16.11c-.019-.032-.03-.071-.03-.113s.011-.081.031-.114l-.001.001L8.217 2.752a.227.227 0 0 1 .196-.113H23.58c.083 0 .156.045.195.112l.001.001 7.584 13.132c.019.032.03.071.03.113s-.011.081-.031.114l.001-.001-7.584 13.139a.227.227 0 0 1-.196.113zm-15.032-.453h14.903l7.455-12.913L23.451 3.09H8.548L1.093 15.996z"/><path fill="currentColor" d="M15.996 31.623C7.373 31.619.384 24.627.384 16.004.384 7.378 7.377.385 16.003.385c8.624 0 15.615 6.989 15.619 15.611-.009 8.627-7 15.618-15.626 15.627h-.001zm0-30.56h-.03c-8.252 0-14.941 6.689-14.941 14.941s6.689 14.941 14.941 14.941 14.941-6.689 14.941-14.941v-.008c-.009-8.238-6.676-14.915-14.908-14.941h-.002z"/><path fill="currentColor" d="M15.996 32C7.165 31.996.007 24.836.007 16.004.007 7.17 7.169.008 16.003.008c8.832 0 15.992 7.157 15.996 15.988C31.99 24.831 24.83 31.991 15.996 32h-.001zm0-30.56c-8.043 0-14.564 6.521-14.564 14.564s6.521 14.564 14.564 14.564S30.56 24.047 30.56 16.004v-.008c-.009-8.04-6.524-14.555-14.563-14.564h-.001z"/><path fill="currentColor" d="M23.369 29.249L15.831 16.11c-.019-.032-.03-.071-.03-.113s.011-.081.031-.114l-.001.001 7.538-13.132.392.226-7.538 13.019 7.538 13.019z"/><path fill="currentColor" d="M8.616 29.249l-.392-.226 7.538-13.019L8.216 3.016l.392-.226 7.591 13.094c.019.032.03.071.03.113s-.011.081-.031.114l.001-.001z"/><path fill="currentColor" d="M31.284 16.23H.754a.226.226 0 1 1 0-.452h30.53a.226.226 0 1 1 0 .452z"/><path fill="currentColor" d="M15.996 31.51a.226.226 0 0 1-.226-.226V.754a.226.226 0 1 1 .452 0v30.53a.226.226 0 0 1-.226.226z"/></symbol><symbol id="figure-5" viewBox="0 0 32 32"><path fill="currentColor" d="M16.16 31.657H.564a.182.182 0 0 1-.152-.091v-.001a.191.191 0 0 1 .001-.183l-.001.001L16.001.099A.183.183 0 0 1 16.246 0h-.001a.19.19 0 0 1 .076.253V.252L.862 31.284h15.299a.187.187 0 0 1 0 .374z"/><path fill="currentColor" d="M31.756 31.657H16.16a.183.183 0 0 1-.183-.183V19.047L.678 31.618a.175.175 0 0 1-.259 0 .192.192 0 0 1 0-.26l15.558-12.8V.175c0-.085.058-.156.136-.177h.001a.182.182 0 0 1 .205.098v.001l15.596 31.284.002.027-.002.028v-.001a.193.193 0 0 1-.001.131v-.001a.187.187 0 0 1-.098.061h-.001zm-15.413-.373h14.895L16.343 19.048zm0-12.724l14.865 12.19L16.343.96z"/><path fill="currentColor" d="M23.71 14.964c.043.035.07.088.07.147l-.001.021v-.001a.182.182 0 0 1-.106.144h-.001l-7.436 3.543h-.152L8.64 15.283a.183.183 0 0 1-.107-.144v-.001l-.001-.02c0-.059.027-.112.069-.147l7.444-5.966a.175.175 0 0 1 .221 0zm-14.651.137l7.093 3.368 7.086-3.398-7.093-5.691z"/><path fill="currentColor" d="M9.585 24.099l-1.051-8.968a.183.183 0 0 1 .159-.206h.001l.017-.001c.093 0 .17.07.181.16v.001l.907 8.785z"/><path fill="currentColor" d="M22.362 23.619l1.059-8.549a.183.183 0 0 1 .199-.16h-.001a.184.184 0 0 1 .16.207v-.001l-1.135 9.265z"/><path fill="currentColor" d="M16.16 31.185l6.316-7.375a.184.184 0 0 1 .26 0c.032.034.051.079.051.13s-.019.096-.051.13l-6.423 7.543a.176.176 0 0 1-.274 0L9.616 24.07a.192.192 0 0 1 0-.26.175.175 0 0 1 .259 0z"/><path fill="currentColor" d="M.648 31.657c-.018.005-.039.007-.061.007s-.043-.003-.063-.007h.002a.283.283 0 0 1-.144-.42l-.001.001L15.916.145a.267.267 0 0 1 .367-.144L16.281 0a.282.282 0 0 1 .099.397l.001-.001L.891 31.505a.267.267 0 0 1-.241.152H.647z"/><path fill="currentColor" d="M.648 32a.617.617 0 0 1-.271 0l.004.001a.664.664 0 0 1-.311-.918l-.002.004L15.573.001a.653.653 0 0 1 .376-.326l.005-.001a.626.626 0 0 1 .499.04l-.003-.002a.663.663 0 0 1 .288.858l.002-.004L1.235 31.675a.648.648 0 0 1-.563.328H.647h.001zM16.061.229z"/><path fill="currentColor" d="M31.665 31.657h-.003a.267.267 0 0 1-.24-.151l-.001-.002L15.916.395a.281.281 0 0 1 .121-.396l.002-.001a.266.266 0 0 1 .342.143l.001.002L31.91 31.236a.282.282 0 0 1-.12.373l-.002.001a.273.273 0 0 1-.121.046h-.001z"/><path fill="currentColor" d="M31.665 32a.648.648 0 0 1-.577-.362l-.002-.004L15.574.564a.662.662 0 0 1 .278-.882l.004-.002a.627.627 0 0 1 .53-.036l-.004-.001a.649.649 0 0 1 .379.324l.002.004 15.49 31.116a.663.663 0 0 1-.279.913l-.004.002a.675.675 0 0 1-.309-.001l.004.001zm.099-.701z"/><path fill="currentColor" d="M31.665 31.657H.648a.278.278 0 0 1 0-.556h31.017a.278.278 0 0 1 0 .556z"/><path fill="currentColor" d="M31.665 32H.648a.659.659 0 1 1 0-1.318h31.017a.659.659 0 1 1 0 1.318z"/></symbol><symbol id="figure-6" viewBox="0 0 32 32"><path fill="currentColor" d="M23.745 31.633H8.373a.317.317 0 0 1-.271-.182l-.001-.002-7.69-15.291a.409.409 0 0 1 .001-.37l-.001.002L8.079.55a.317.317 0 0 1 .287-.184h15.379c.12.006.223.079.271.182l.001.002 7.697 15.269a.409.409 0 0 1-.001.37l.001-.002-7.69 15.262a.319.319 0 0 1-.279.184zm-15.189-.735h15.005l7.506-14.902-7.506-14.902H8.556L1.05 15.996z"/><path fill="currentColor" d="M23.745 32H8.373a.678.678 0 0 1-.601-.378l-.002-.004L.08 16.349a.737.737 0 0 1 .002-.702l-.002.004L7.77.382A.678.678 0 0 1 8.372 0h15.372a.678.678 0 0 1 .601.378l.002.004 7.69 15.269a.776.776 0 0 1-.002.702l.002-.004-7.682 15.233a.679.679 0 0 1-.609.419h-.001zm-15.328-.734h10.907zm.367-.735h14.557l7.345-14.535-7.345-14.527H8.814L1.469 15.996zM12.794.734h10.907z"/><path fill="currentColor" d="M23.745 31.508a.203.203 0 0 1-.104 0h.001L.58 16.209a.263.263 0 0 1-.001-.418H.58L23.642.522a.193.193 0 0 1 .214.001h-.001a.249.249 0 0 1 .103.202v.011-.001 30.542a.25.25 0 0 1-.102.202h-.001a.185.185 0 0 1-.102.03h-.009zM1.109 15.996l22.393 14.851V1.153z"/><path fill="currentColor" d="M8.373 31.508a.203.203 0 0 1-.104 0h.001a.249.249 0 0 1-.103-.202v-.011.001V.725a.25.25 0 0 1 .102-.202h.001a.193.193 0 0 1 .214.001h-.001l23.062 15.269a.263.263 0 0 1 .001.418h-.001L8.476 31.48a.193.193 0 0 1-.102.029h-.001zm.213-30.355v29.694l22.43-14.851z"/><path fill="currentColor" d="M15.849.734h.426v30.538h-.426V.734z"/><path fill="currentColor" d="M.683 15.754h30.751v.485H.683v-.485z"/></symbol><symbol id="figure-7" viewBox="0 0 32 32"><path fill="currentColor" d="M15.996 31.623C7.373 31.619.384 24.627.384 16.004.384 7.378 7.377.385 16.003.385c8.624 0 15.615 6.989 15.619 15.611-.009 8.627-7 15.618-15.626 15.627h-.001zm0-30.56h-.03c-8.252 0-14.941 6.689-14.941 14.941s6.689 14.941 14.941 14.941 14.941-6.689 14.941-14.941v-.008c-.009-8.238-6.676-14.915-14.908-14.941h-.002z"/><path fill="currentColor" d="M15.996 32C7.165 31.996.007 24.836.007 16.004.007 7.17 7.169.008 16.003.008c8.832 0 15.992 7.157 15.996 15.988C31.99 24.831 24.83 31.991 15.996 32h-.001zm0-30.56c-8.043 0-14.564 6.521-14.564 14.564s6.521 14.564 14.564 14.564S30.56 24.047 30.56 16.004v-.008c-.009-8.04-6.524-14.555-14.563-14.564h-.001z"/></symbol><symbol id="figure-8" viewBox="0 0 32 32"><path fill="currentColor" d="M16.156 31.3H.923a.177.177 0 0 1-.148-.088v-.001a.183.183 0 0 1 0-.179v.001L16.001.477a.178.178 0 0 1 .239-.082h-.001a.186.186 0 0 1 .074.247V.641l-15.1 30.296h14.943a.182.182 0 0 1 0 .364z"/><path fill="currentColor" d="M16.156 31.673H.923a.551.551 0 0 1-.49-.8l-.001.003L15.665.312a.547.547 0 0 1 .331-.311L16 0a.535.535 0 0 1 .428.001L16.425 0a.561.561 0 0 1 .237.748l.001-.003L1.831 30.512h14.326a.554.554 0 1 1 0 1.108z"/><path fill="currentColor" d="M1.012 31.3a.274.274 0 0 1-.121 0h.002a.277.277 0 0 1-.118-.367l-.001.002L15.918.52a.261.261 0 0 1 .359-.118l-.001-.001a.277.277 0 0 1 .118.367l.001-.002L1.243 31.151a.261.261 0 0 1-.23.149z"/><path fill="currentColor" d="M1.012 31.673a.637.637 0 0 1-.301-.076l.003.002a.648.648 0 0 1-.273-.867l-.002.004L15.591.358a.645.645 0 0 1 .405-.356l.005-.001a.612.612 0 0 1 .449.076l-.003-.002a.647.647 0 0 1 .296.86l.002-.004L1.579 31.316a.632.632 0 0 1-.565.357zM16.06.603z"/><path fill="currentColor" d="M31.308 31.3h-.003a.261.261 0 0 1-.235-.147l-.001-.002L15.917.744a.274.274 0 0 1 .082-.342L16 .401a.26.26 0 0 1 .357.118l.001.002 15.181 30.385a.275.275 0 0 1-.118.364l-.001.001a.269.269 0 0 1-.111.03z"/><path fill="currentColor" d="M31.308 31.673a.633.633 0 0 1-.564-.354l-.002-.004L15.59.93a.648.648 0 0 1 .272-.854l.003-.002A.618.618 0 0 1 16.353 0l-.004-.001a.635.635 0 0 1 .37.316l.002.004 15.152 30.422a.647.647 0 0 1-.242.854l-.003.002a.624.624 0 0 1-.298.075h-.023.001zm.097-.685z"/><path fill="currentColor" d="M31.308 31.3H1.012a.272.272 0 0 1 0-.544h30.296a.272.272 0 0 1 0 .544z"/><path fill="currentColor" d="M31.308 31.673H1.012a.644.644 0 1 1 0-1.288h30.296a.644.644 0 1 1 0 1.288z"/></symbol><symbol id="figure-9" viewBox="0 0 32 32"><path fill="currentColor" d="M23.745 31.633H8.373a.317.317 0 0 1-.271-.182l-.001-.002-7.69-15.291a.409.409 0 0 1 .001-.37l-.001.002L8.079.55a.317.317 0 0 1 .287-.184h15.379c.12.006.223.079.271.182l.001.002 7.697 15.269a.409.409 0 0 1-.001.37l.001-.002-7.69 15.262a.319.319 0 0 1-.279.184zm-15.189-.735h15.005l7.506-14.902-7.506-14.902H8.556L1.05 15.996z"/><path fill="currentColor" d="M23.745 32H8.373a.678.678 0 0 1-.601-.378l-.002-.004L.08 16.349a.737.737 0 0 1 .002-.702l-.002.004L7.77.382A.678.678 0 0 1 8.372 0h15.372a.678.678 0 0 1 .601.378l.002.004 7.69 15.269a.776.776 0 0 1-.002.702l.002-.004-7.682 15.233a.679.679 0 0 1-.609.419h-.001zm-15.328-.734h10.907zm.367-.735h14.557l7.345-14.535-7.345-14.527H8.814L1.469 15.996zM12.794.734h10.907z"/></symbol></defs></svg>