<svg style="position:absolute;width:0;height:0;overflow:hidden" version="1.1" xmlns="http://www.w3.org/2000/svg" xmlns:xlink="http://www.w3.org/1999/xlink"><defs><symbol id="arrow-blue" viewBox="0 0 20 32" fill="currentColor"><title>arrow-blue</title><path fill="#2ec8ff" style="fill:var(--color1, #2ec8ff)" d="M4.03 30.912h-.009c-.415 0-.804-.109-1.141-.3l.011.006a3.186 3.186 0 0 1-1.38-2.943l-.001.013V3.224A3.18 3.18 0 0 1 2.881.301l.011-.007A2.844 2.844 0 0 1 4.14.011c.654 0 1.257.217 1.741.583L5.874.589l.115.09 12.04 12.181a3.114 3.114 0 0 1 1.637 2.55v.009a3.113 3.113 0 0 1-1.621 2.551l-.016.008L5.874 30.325a3.514 3.514 0 0 1-1.836.588h-.006zM4.043 1.28h-.019c-.185 0-.36.047-.511.131l.006-.003a1.993 1.993 0 0 0-.728 1.827l-.001-.01v24.464a1.99 1.99 0 0 0 .726 1.813l.004.003a1.66 1.66 0 0 0 1.603-.233l-.004.003 12.168-12.27a1.938 1.938 0 0 0 1.1-1.526l.001-.009a1.935 1.935 0 0 0-1.089-1.543l-.012-.005-.115-.09L5.119 1.638a2.213 2.213 0 0 0-1.068-.358h-.007z"/><path d="M3.288 31.45h-.009c-.415 0-.804-.109-1.141-.3l.011.006a3.187 3.187 0 0 1-1.394-2.942l-.001.013V3.763A3.18 3.18 0 0 1 2.125.84l.011-.007A2.844 2.844 0 0 1 3.384.55c.654 0 1.257.217 1.741.583l-.007-.005.128.154 12.04 12.181a3.114 3.114 0 0 1 1.637 2.55v.009a3.113 3.113 0 0 1-1.621 2.551l-.016.008L5.118 30.864a3.517 3.517 0 0 1-1.823.588h-.007z"/></symbol><symbol id="arrow-green" viewBox="0 0 51 32" fill="currentColor"><title>arrow-green</title><path fill="#39b54a" style="fill:var(--color2, #39b54a)" d="M5.288 30.993a5.217 5.217 0 0 1-4.793-2.249l-.012-.018a4.67 4.67 0 0 1-.464-2.046c0-1.072.356-2.061.955-2.855l-.009.012.147-.189L21.088 3.902c.83-1.529 2.38-2.576 4.182-2.685l.014-.001a5.104 5.104 0 0 1 4.183 2.659l.013.027 20.144 19.955c.591.782.947 1.771.947 2.843 0 .744-.171 1.448-.476 2.074l.012-.028a5.165 5.165 0 0 1-4.828 2.264l.022.002H5.285zm-2.602-5.96a2.733 2.733 0 0 0-.371 2.683l-.007-.018a3.249 3.249 0 0 0 2.997 1.194l-.017.002h40.121a3.268 3.268 0 0 0 2.975-1.19l.005-.006c.12-.296.19-.64.19-1 0-.63-.213-1.21-.572-1.672l.005.006L27.868 5.098a3.177 3.177 0 0 0-2.503-1.803l-.015-.001a3.197 3.197 0 0 0-2.531 1.786l-.008.019-.147.189z"/><path d="M5.288 30.993a5.217 5.217 0 0 1-4.793-2.249l-.012-.018a4.67 4.67 0 0 1-.464-2.046c0-1.072.356-2.061.955-2.855l-.009.012.147-.189L21.088 3.902c.83-1.529 2.38-2.576 4.182-2.685l.014-.001a5.104 5.104 0 0 1 4.183 2.659l.013.027 20.144 19.955c.591.782.947 1.771.947 2.843 0 .744-.171 1.448-.476 2.074l.012-.028a5.165 5.165 0 0 1-4.828 2.264l.022.002H5.285z"/></symbol><symbol id="arrow-red" viewBox="0 0 20 32" fill="currentColor"><title>arrow-red</title><path fill="red" style="fill:var(--color3, #f00)" d="M16.177 31a3.375 3.375 0 0 1-1.769-.532l.014.008-.11-.085L2.841 18.749a2.98 2.98 0 0 1-1.56-2.43v-.009a2.964 2.964 0 0 1 1.545-2.43l.016-.008L14.435 2.169a2.747 2.747 0 0 1 1.653-.548c.431 0 .84.099 1.204.275l-.017-.007a3 3 0 0 1 1.315 2.805l.001-.013v23.247a3.034 3.034 0 0 1-1.306 2.785l-.01.007c-.31.176-.681.28-1.077.28h-.022.001zm-1.061-1.56a1.574 1.574 0 0 0 1.559.216l-.011.004a1.9 1.9 0 0 0 .694-1.741l.001.01V4.621a1.9 1.9 0 0 0-.691-1.728l-.004-.003a1.578 1.578 0 0 0-1.552.222l.004-.003L3.535 14.812a1.846 1.846 0 0 0-1.096 1.454l-.001.009a1.857 1.857 0 0 0 1.037 1.47l.011.005.11.085z"/><path d="M16.25 30.72a3.377 3.377 0 0 1-1.768-.569l.012.008-.11-.085L2.913 18.469a2.98 2.98 0 0 1-1.56-2.43v-.009a2.964 2.964 0 0 1 1.545-2.43l.016-.008L14.507 1.828a2.747 2.747 0 0 1 1.653-.548c.431 0 .84.099 1.204.275l-.017-.007a3 3 0 0 1 1.315 2.805l.001-.013v23.308a3.03 3.03 0 0 1-1.307 2.821l-.01.007a2.173 2.173 0 0 1-1.011.245l-.09-.002h.004z"/></symbol><symbol id="arrow-yellow" viewBox="0 0 50 32" fill="currentColor"><title>arrow-yellow</title><path fill="#eac306" style="fill:var(--color4, #eac306)" d="M25.216 30.935a5.102 5.102 0 0 1-4.162-2.645l-.013-.027L.96 8.349a4.702 4.702 0 0 1-.92-2.806c0-.724.162-1.41.453-2.024l-.012.029a5.138 5.138 0 0 1 4.802-2.253l-.022-.002h39.911a5.193 5.193 0 0 1 4.769 2.237l.011.018c.28.585.444 1.272.444 1.997 0 1.056-.347 2.03-.933 2.816l.009-.012-.146.188-19.893 19.726c-.836 1.53-2.394 2.573-4.204 2.671l-.013.001zM2.672 7.222l20.039 19.83a3.16 3.16 0 0 0 2.49 1.794l.015.001a3.16 3.16 0 0 0 2.497-1.694l.008-.018.146-.188L47.739 7.304c.352-.453.564-1.03.564-1.657 0-.358-.069-.7-.195-1.013l.006.018a3.254 3.254 0 0 0-2.981-1.188l.017-.002H5.26a3.252 3.252 0 0 0-2.959 1.183l-.005.006a2.667 2.667 0 0 0-.167.939c0 .614.204 1.181.548 1.636l-.005-.007z"/><path d="M25.216 30.935a5.102 5.102 0 0 1-4.162-2.645l-.013-.027L.96 8.349a4.702 4.702 0 0 1-.92-2.806c0-.724.162-1.41.453-2.024l-.012.029a5.138 5.138 0 0 1 4.802-2.253l-.022-.002h39.911a5.193 5.193 0 0 1 4.769 2.237l.011.018c.28.585.444 1.272.444 1.997 0 1.056-.347 2.03-.933 2.816l.009-.012-.146.188-19.893 19.726c-.836 1.53-2.394 2.573-4.204 2.671l-.013.001z"/></symbol><symbol id="arrow-grey" viewBox="0 0 53 32"><title>arrow-grey</title><path stroke-width="2.1333" stroke-miterlimit="10" stroke-linecap="butt" stroke-linejoin="miter" d="M16.853 2.56H7.04c-3.84 0-5.333 2.56-3.413 5.76l20.48 20.267c1.92 3.2 5.12 3.2 7.04 0L51.2 8.32c1.92-3.2.427-5.76-3.413-5.76H16.854zm30.934 0"/></symbol><symbol id="circle" viewBox="0 0 32 32" fill="currentColor"><title>circle</title><path d="M31.093 15.962c0 8.205-6.652 14.857-14.857 14.857S1.379 24.167 1.379 15.962c0-8.205 6.652-14.857 14.857-14.857s14.857 6.652 14.857 14.857z"/></symbol><symbol id="square" viewBox="0 0 32 32" fill="currentColor"><title>square</title><path d="M1.379 1.097h29.714v29.714H1.379V1.097z"/></symbol><symbol id="star" viewBox="0 0 32 32" fill="currentColor"><title>star</title><path d="M16.381.762l4.838 9.806 10.819 1.57-7.825 7.634 1.844 10.781-9.676-5.09-9.676 5.09 1.844-10.781-7.825-7.634 10.819-1.57L16.381.762z"/></symbol><symbol id="triangle" viewBox="0 0 32 32" fill="currentColor"><title>triangle</title><path d="M31.345 30.964H1.417L16.381 1.036l14.964 29.928z"/></symbol></defs></svg>